G04 start of page 2 for group 0 idx 0 *
G04 Title: (unknown), component *
G04 Creator: pcb 20091103 *
G04 CreationDate: Sat 19 Mar 2011 11:45:18 AM GMT UTC *
G04 For: gjhurlbu *
G04 Format: Gerber/RS-274X *
G04 PCB-Dimensions: 600000 500000 *
G04 PCB-Coordinate-Origin: lower left *
%MOIN*%
%FSLAX25Y25*%
%LNFRONT*%
%ADD11C,0.0100*%
%ADD12C,0.0560*%
%ADD13C,0.1150*%
%ADD14C,0.0200*%
%ADD15C,0.0600*%
%ADD16C,0.0360*%
%ADD17R,0.0200X0.0200*%
%ADD18R,0.0512X0.0512*%
%ADD19R,0.0157X0.0157*%
%ADD20C,0.0910*%
%ADD21C,0.0380*%
G54D11*X163000Y379000D02*X166000Y382000D01*
Y385583D01*
X165575Y386008D01*
X168725Y390434D02*Y393275D01*
X166000Y396000D01*
X162425Y390434D02*Y392425D01*
X166000Y396000D01*
X184992Y395977D02*X187023D01*
X188000Y395000D01*
X187874Y399126D02*X191000Y396000D01*
X184992Y399126D02*X187874D01*
X184992Y402276D02*X188724D01*
X193000Y398000D01*
X184992Y405425D02*X189275D01*
X197786Y396914D01*
X184992Y408575D02*X190425D01*
X184992Y411725D02*X187725D01*
X189000Y413000D01*
Y415000D01*
X190425Y408575D02*X202000Y397000D01*
Y385000D01*
Y411000D02*X198000D01*
X195000Y414000D01*
X199000Y425000D02*Y415000D01*
X195000Y414000D02*Y419000D01*
X162425Y427992D02*Y430575D01*
X171874Y427992D02*Y433874D01*
X172000Y434000D01*
X165575Y427992D02*Y430575D01*
X169000Y434000D01*
X172000D01*
X162425Y430575D02*X162000Y431000D01*
Y434000D01*
X163000Y435000D01*
X160000Y439000D02*X156000Y435000D01*
Y428118D01*
X156126Y427992D01*
X174000Y439000D02*X160000D01*
X180566Y414874D02*X173874D01*
X180566Y418024D02*X174024D01*
X175023Y423566D02*Y422023D01*
X172000Y419000D01*
X175000Y439000D02*X173000D01*
X175000D02*X195000Y419000D01*
X173874Y414874D02*X171000Y412000D01*
X174024Y418024D02*X170000Y414000D01*
X171000Y412000D02*X163000D01*
X162000Y413000D01*
X170000Y414000D02*X167000D01*
X165000Y416000D01*
X172000Y419000D02*X170000D01*
X169000Y418000D01*
X165575Y423566D02*Y421575D01*
X162000Y418000D01*
X157000Y397000D02*Y414000D01*
X161000Y418000D01*
X162000D01*
X151500Y350500D02*X148500D01*
X172000D02*X169500D01*
X165000Y355000D01*
X148500Y350500D02*X143000Y356000D01*
X147500Y355500D02*X143000Y360000D01*
X146500Y360500D02*X143000Y364000D01*
X144500Y365500D02*X143000Y367000D01*
Y356000D02*Y371000D01*
X151500Y355500D02*X147500D01*
X151500Y360500D02*X146500D01*
X151500Y365500D02*X144500D01*
X76000Y376000D02*X75000Y375000D01*
Y365000D01*
X90000Y350000D01*
X95000D01*
X70700Y409600D02*X71400D01*
X76000Y405000D01*
Y376000D01*
X94786Y419914D02*Y413214D01*
X96000Y412000D01*
X94000Y427000D02*X103000D01*
X104000Y428000D01*
X109000Y423000D01*
Y413000D01*
X165000Y355000D02*Y365000D01*
X156000Y374000D01*
Y385882D01*
X156126Y386008D01*
X159276D02*Y382724D01*
X163000Y379000D01*
X151000Y382000D02*X153000Y384000D01*
Y385985D01*
X152977Y386008D01*
X118000Y382000D02*X151000D01*
X143008Y395976D02*X134024D01*
X134000Y396000D01*
X133000D01*
X141000Y392000D02*X120000D01*
X133000Y396000D02*X130000Y399000D01*
X120000Y392000D02*X112000Y400000D01*
X92000Y373000D02*X134000D01*
X138000Y377000D01*
X130000Y399000D02*Y404000D01*
X134000Y405000D02*Y401000D01*
X136000Y399000D01*
X125000Y409000D02*X136000D01*
X113000D02*X121000D01*
X109000Y413000D02*X113000Y409000D01*
X126000D01*
X138000Y403000D02*X139000D01*
X140000Y402000D01*
X142733D01*
X136000Y399000D02*X142882D01*
X143008Y399126D01*
X142733Y402000D02*X143008Y402275D01*
X133000Y415000D02*X134000D01*
X135000Y416000D01*
X140000D01*
X141000Y415000D01*
X142882D01*
X143008Y414874D01*
X137000Y413000D02*X141000D01*
X142000Y412000D01*
X142732D01*
X143008Y411724D01*
X140000Y410000D02*X141583D01*
X143008Y408575D01*
X136000Y409000D02*X140000Y405000D01*
X142583D01*
X143008Y405425D01*
X217000Y372000D02*Y383000D01*
X218000Y384000D01*
Y396000D01*
X227000Y372000D02*Y384000D01*
X223000Y388000D01*
Y396000D01*
X222500Y396500D01*
X227500D02*Y393500D01*
X230000Y391000D01*
X232000D01*
X239000Y398000D01*
Y406000D01*
X188000Y395000D02*Y390000D01*
X191000Y396000D02*Y387000D01*
X187000Y383000D01*
X193000Y398000D02*Y383000D01*
X188000Y390000D02*X185000Y387000D01*
X193000Y383000D02*X189000Y379000D01*
X197786Y396914D02*Y372786D01*
X197000Y372000D01*
X202000Y385000D02*X207000Y380000D01*
Y372000D01*
X178500Y365500D02*X188500D01*
X189000Y366000D01*
X178500Y355500D02*X182500D01*
X183000Y356000D01*
X178500Y360500D02*X185500D01*
X186000Y361000D01*
X227500Y417000D02*Y414500D01*
X234914Y414000D02*X236000Y415086D01*
X222500Y417000D02*Y413500D01*
X215000Y432000D02*X234000D01*
X237000Y429000D01*
X217500Y423500D02*Y427500D01*
X219000Y429000D01*
X237000Y422214D02*X237214Y422000D01*
X237000Y429000D02*Y423214D01*
X227500Y414500D02*X228000Y414000D01*
X234914D01*
X222500Y413500D02*X223000Y413000D01*
X227000D02*X228000Y414000D01*
X238000Y422000D02*X241000D01*
X243000Y420000D01*
Y400000D01*
X218000Y396000D02*X217500Y396500D01*
Y417000D02*Y410500D01*
X219000Y409000D01*
X215000Y407000D02*X217000D01*
X218000Y406000D01*
X223000D01*
X227000Y410000D01*
Y413000D01*
X205000Y395000D02*Y426000D01*
X212500Y429500D02*X215000Y432000D01*
X212500Y424500D02*Y429500D01*
X205000Y426000D02*X208000Y429000D01*
X229000Y436000D02*X210000D01*
X199000Y425000D01*
G54D12*X70700Y409600D03*
Y399800D03*
Y382100D03*
G54D13*X60000Y370000D03*
G54D12*X81000Y409600D03*
G54D13*X82400Y421700D03*
X60000D03*
G54D12*X81000Y399800D03*
Y391900D03*
Y382100D03*
G54D13*X82400Y370000D03*
G54D14*G36*
X121000Y431000D02*Y425000D01*
X127000D01*
Y431000D01*
X121000D01*
G37*
G54D15*X124000Y418000D03*
X114000Y428000D03*
Y418000D03*
X104000Y428000D03*
Y418000D03*
G54D12*X70700Y391900D03*
G54D14*G36*
X194000Y375000D02*Y369000D01*
X200000D01*
Y375000D01*
X194000D01*
G37*
G54D15*X207000Y372000D03*
X217000D03*
X227000D03*
G54D16*X223000Y413000D03*
X230000Y391000D03*
X202000Y411000D03*
X199000Y415000D03*
X219000Y409000D03*
X214000Y391000D03*
X205000Y395000D03*
X219000Y429000D03*
X229000Y436000D03*
X208000Y429000D03*
X215000Y407000D03*
X239000Y406000D03*
X243000Y400000D03*
X103000Y384000D03*
Y348000D03*
X95000Y350000D03*
X143000Y371000D03*
X118000Y382000D03*
X138000Y377000D03*
X130000Y404000D03*
X134000Y405000D03*
X138000Y403000D03*
X133000Y415000D03*
X137000Y413000D03*
X140000Y410000D03*
X96000Y412000D03*
X112000Y400000D03*
X141000Y392000D03*
X129000Y388000D03*
X92000Y373000D03*
X163000Y379000D03*
X185000Y387000D03*
X187000Y383000D03*
X189000Y379000D03*
Y366000D03*
Y415000D03*
X183000Y356000D03*
X186000Y361000D03*
X163000Y435000D03*
X172000Y434000D03*
X165000Y416000D03*
X169000Y418000D03*
X162000Y413000D03*
X166000Y396000D03*
X157000Y397000D03*
G54D17*X212500Y403000D02*Y396500D01*
X217500Y403000D02*Y396500D01*
X222500Y403000D02*Y396500D01*
X227500Y403000D02*Y396500D01*
G54D18*X237214Y414914D02*X238000D01*
G54D17*X217500Y423500D02*Y417000D01*
X212500Y423500D02*Y417000D01*
G54D18*X237214Y422000D02*X238000D01*
G54D17*X222500Y423500D02*Y417000D01*
X227500Y423500D02*Y417000D01*
G54D18*X94000Y427000D02*X94786D01*
X94000Y419914D02*X94786D01*
G54D17*X172000Y350500D02*X178500D01*
X172000Y355500D02*X178500D01*
X172000Y360500D02*X178500D01*
X172000Y365500D02*X178500D01*
X151500D02*X158000D01*
X151500Y360500D02*X158000D01*
X151500Y355500D02*X158000D01*
X151500Y350500D02*X158000D01*
G54D19*X180566Y395977D02*X184992D01*
X180566Y399126D02*X184992D01*
X180566Y402276D02*X184992D01*
X180566Y405425D02*X184992D01*
X180566Y408575D02*X184992D01*
X180566Y411725D02*X184992D01*
X180566Y414874D02*X184992D01*
X180566Y418024D02*X184992D01*
X152977Y390434D02*Y386008D01*
X156126Y390434D02*Y386008D01*
X159276Y390434D02*Y386008D01*
X162425Y390434D02*Y386008D01*
X165575Y390434D02*Y386008D01*
X168725Y390434D02*Y386008D01*
X171874Y390434D02*Y386008D01*
X175024Y390434D02*Y386008D01*
X175023Y427992D02*Y423566D01*
X171874Y427992D02*Y423566D01*
X168724Y427992D02*Y423566D01*
X165575Y427992D02*Y423566D01*
X162425Y427992D02*Y423566D01*
X159275Y427992D02*Y423566D01*
X156126Y427992D02*Y423566D01*
X152976Y427992D02*Y423566D01*
X143008Y418023D02*X147434D01*
X143008Y414874D02*X147434D01*
X143008Y411724D02*X147434D01*
X143008Y408575D02*X147434D01*
X143008Y405425D02*X147434D01*
X143008Y402275D02*X147434D01*
X143008Y399126D02*X147434D01*
X143008Y395976D02*X147434D01*
G54D16*G54D20*G54D16*G54D20*G54D16*G54D20*G54D21*G54D16*G54D21*G54D14*M02*
