G04 start of page 8 for group -4078 idx -4078 *
G04 Title: (unknown), bottomsilk *
G04 Creator: pcb 20091103 *
G04 CreationDate: Sat 19 Mar 2011 11:45:18 AM GMT UTC *
G04 For: gjhurlbu *
G04 Format: Gerber/RS-274X *
G04 PCB-Dimensions: 600000 500000 *
G04 PCB-Coordinate-Origin: lower left *
%MOIN*%
%FSLAX25Y25*%
%LNBACKSILK*%
%ADD11C,0.0100*%
%ADD32C,0.0080*%
G54D11*X95500Y406000D02*X108500D01*
X113500D02*X126500D01*
X95500Y387000D02*Y406000D01*
Y387000D02*X126500D01*
Y406000D01*
X108500D02*G75*G03X113500Y406000I2500J0D01*G01*
X98500Y365400D02*X106500D01*
X98500D02*Y353500D01*
X106500D01*
Y365400D02*Y353500D01*
G54D32*X101755Y375393D02*Y374607D01*
X96245Y375393D02*Y374607D01*
X109755Y375393D02*Y374607D01*
X104245Y375393D02*Y374607D01*
G54D11*X222488Y398115D02*X235554D01*
X204422D02*X217488D01*
X235554Y416767D02*Y398115D01*
X204422Y416767D02*X235554D01*
X204422D02*Y398115D01*
X222488D02*G75*G03X217488Y398115I-2500J0D01*G01*
G54D32*X212150Y425362D02*X212936D01*
X212150Y419852D02*X212936D01*
X228150D02*X228936D01*
X228150Y425362D02*X228936D01*
X200148Y400850D02*Y400064D01*
X194638Y400850D02*Y400064D01*
G54D11*X92000Y363000D02*X95500D01*
X96000Y362500D01*
Y361500D02*Y362500D01*
Y361500D02*X95500Y361000D01*
X92000D02*X95500D01*
X92500Y359799D02*X92000Y359299D01*
Y358299D02*Y359299D01*
Y358299D02*X92500Y357799D01*
X95500D01*
X96000Y358299D02*X95500Y357799D01*
X96000Y358299D02*Y359299D01*
X95500Y359799D02*X96000Y359299D01*
X94000Y357799D02*Y359299D01*
X113000Y398000D02*Y401500D01*
Y398000D02*X112500Y397500D01*
X111500D02*X112500D01*
X111500D02*X111000Y398000D01*
Y401500D01*
X108299Y397500D02*X109299D01*
X108799D02*Y401500D01*
X109799Y400500D02*X108799Y401500D01*
X94000Y381000D02*Y382500D01*
X93500Y383000D02*X94000Y382500D01*
X90500Y383000D02*X93500D01*
X90500D02*X90000Y382500D01*
Y381000D02*Y382500D01*
X90500Y379799D02*X90000Y379299D01*
Y377799D02*Y379299D01*
Y377799D02*X90500Y377299D01*
X91500D01*
X94000Y379799D02*X91500Y377299D01*
X94000D02*Y379799D01*
X116000Y375000D02*Y376500D01*
X115500Y377000D02*X116000Y376500D01*
X112500Y377000D02*X115500D01*
X112500D02*X112000Y376500D01*
Y375000D02*Y376500D01*
X116000Y372299D02*Y373299D01*
X112000Y372799D02*X116000D01*
X113000Y373799D02*X112000Y372799D01*
X217988Y402441D02*Y405941D01*
X218488Y406441D01*
X219488D01*
X219988Y405941D01*
Y402441D02*Y405941D01*
X221189Y402441D02*X223189D01*
X221189D02*Y404441D01*
X221689Y403941D01*
X222689D01*
X223189Y404441D01*
Y405941D01*
X222689Y406441D02*X223189Y405941D01*
X221689Y406441D02*X222689D01*
X221189Y405941D02*X221689Y406441D01*
X229543Y431607D02*X231543D01*
X229543D02*X229043Y431107D01*
Y430107D02*Y431107D01*
X229543Y429607D02*X229043Y430107D01*
X229543Y429607D02*X231043D01*
Y427607D02*Y431607D01*
Y429607D02*X229043Y427607D01*
X227842Y431107D02*X227342Y431607D01*
X226342D02*X227342D01*
X226342D02*X225842Y431107D01*
Y428107D02*Y431107D01*
X226342Y427607D02*X225842Y428107D01*
X226342Y427607D02*X227342D01*
X227842Y428107D02*X227342Y427607D01*
X225842Y429607D02*X227342D01*
X214457Y431393D02*X216457D01*
X214457D02*X213957Y430893D01*
Y429893D02*Y430893D01*
X214457Y429393D02*X213957Y429893D01*
X214457Y429393D02*X215957D01*
Y427393D02*Y431393D01*
Y429393D02*X213957Y427393D01*
X212756Y430893D02*X212256Y431393D01*
X210756D02*X212256D01*
X210756D02*X210256Y430893D01*
Y429893D02*Y430893D01*
X212756Y427393D02*X210256Y429893D01*
Y427393D02*X212756D01*
X188290Y403163D02*Y405163D01*
Y403163D02*X188790Y402663D01*
X189790D01*
X190290Y403163D02*X189790Y402663D01*
X190290Y403163D02*Y404663D01*
X188290D02*X192290D01*
X190290D02*X192290Y402663D01*
X190290Y401462D02*X188290Y399462D01*
X190290Y398962D02*Y401462D01*
X188290Y399462D02*X192290D01*
M02*
