M48
INCH
T14C0.020
T16C0.036
T20C0.091
T21C0.038
%
T14
X022300Y041300
X023000Y039100
X020200Y041100
X019900Y041500
X021900Y040900
X021400Y039100
X020500Y039500
X021900Y042900
X022900Y043600
X020800Y042900
X021500Y040700
X023900Y040600
X024300Y040000
X010300Y038400
X010300Y034800
X009500Y035000
X014300Y037100
X011800Y038200
X013800Y037700
X013000Y040400
X013400Y040500
X013800Y040300
X013300Y041500
X013700Y041300
X014000Y041000
X009600Y041200
X011200Y040000
X014100Y039200
X012900Y038800
X009200Y037300
X016300Y037900
X018500Y038700
X018700Y038300
X018900Y037900
X018900Y036600
X018900Y041500
X018300Y035600
X018600Y036100
X016300Y043500
X017200Y043400
X016500Y041600
X016900Y041800
X016200Y041300
X016600Y039600
X015700Y039700
T16
X007070Y040960
X007070Y039980
X007070Y038210
X008100Y040960
X008100Y039980
X008100Y039190
X008100Y038210
X007070Y039190
T21
X012400Y042800
X012400Y041800
X011400Y042800
X011400Y041800
X010400Y042800
X010400Y041800
X019700Y037200
X020700Y037200
X021700Y037200
X022700Y037200
T20
X006000Y037000
X008240Y042170
X006000Y042170
X008240Y037000
M30
