G04 start of page 7 for group -4079 idx -4079 *
G04 Title: (unknown), topsilk *
G04 Creator: pcb 20091103 *
G04 CreationDate: Sun 20 Mar 2011 03:02:04 AM GMT UTC *
G04 For: gjhurlbu *
G04 Format: Gerber/RS-274X *
G04 PCB-Dimensions: 600000 500000 *
G04 PCB-Coordinate-Origin: lower left *
%MOIN*%
%FSLAX25Y25*%
%LNFRONTSILK*%
%ADD11C,0.0100*%
G54D11*X201000Y293000D02*X33000D01*
Y423000D02*Y392000D01*
X108000D01*
Y324000D01*
X33000D01*
Y293000D01*
X201000Y423000D02*Y293000D01*
X33000Y423000D02*X201000D01*
X134000Y303500D02*X134500Y303000D01*
X134000Y306500D02*X134500Y307000D01*
X134000Y306500D02*Y303500D01*
X136201Y305000D02*X137701D01*
X135701Y304500D02*X136201Y305000D01*
X135701Y304500D02*Y303500D01*
X136201Y303000D01*
X137701D01*
X138902Y307000D02*X139402Y306500D01*
Y303500D01*
X138902Y303000D02*X139402Y303500D01*
X142403Y306500D02*X142903Y307000D01*
X144403D01*
X144903Y306500D01*
Y305500D01*
X142403Y303000D02*X144903Y305500D01*
X142403Y303000D02*X144903D01*
X146104Y303500D02*X146604Y303000D01*
X146104Y306500D02*Y303500D01*
Y306500D02*X146604Y307000D01*
X147604D01*
X148104Y306500D01*
Y303500D01*
X147604Y303000D02*X148104Y303500D01*
X146604Y303000D02*X147604D01*
X146104Y304000D02*X148104Y306000D01*
X149805Y303000D02*X150805D01*
X150305Y307000D02*Y303000D01*
X149305Y306000D02*X150305Y307000D01*
X152506Y303000D02*X153506D01*
X153006Y307000D02*Y303000D01*
X152006Y306000D02*X153006Y307000D01*
X158507D02*X159007Y306500D01*
X157007Y307000D02*X158507D01*
X156507Y306500D02*X157007Y307000D01*
X156507Y306500D02*Y303500D01*
X157007Y303000D01*
X158507D01*
X159007Y303500D01*
Y304500D02*Y303500D01*
X158507Y305000D02*X159007Y304500D01*
X157507Y305000D02*X158507D01*
X161708D02*X162208Y304500D01*
X160708Y305000D02*X161708D01*
X160208Y304500D02*X160708Y305000D01*
X160208Y304500D02*Y303500D01*
X160708Y303000D01*
X162208Y305000D02*Y303500D01*
X162708Y303000D01*
X160708D02*X161708D01*
X162208Y303500D01*
X163909Y305000D02*Y304000D01*
X164909Y303000D01*
X165909Y304000D01*
Y305000D02*Y304000D01*
X167110Y306000D02*Y305500D01*
Y304500D02*Y303000D01*
X168611Y304500D02*Y303000D01*
Y304500D02*X169111Y305000D01*
X169611D01*
X170111Y304500D01*
Y303000D01*
X168111Y305000D02*X168611Y304500D01*
X173112Y307000D02*Y303000D01*
X175612Y307000D02*Y303000D01*
X173112Y305000D02*X175612D01*
X176813D02*Y303500D01*
X177313Y303000D01*
X178313D01*
X178813Y303500D01*
Y305000D02*Y303500D01*
X180514Y304500D02*Y303000D01*
Y304500D02*X181014Y305000D01*
X182014D01*
X180014D02*X180514Y304500D01*
X183215Y307000D02*Y303500D01*
X183715Y303000D01*
X184716Y307000D02*Y303000D01*
Y303500D02*X185216Y303000D01*
X186216D01*
X186716Y303500D01*
Y304500D02*Y303500D01*
X186216Y305000D02*X186716Y304500D01*
X185216Y305000D02*X186216D01*
X184716Y304500D02*X185216Y305000D01*
X187917D02*Y303500D01*
X188417Y303000D01*
X189417D01*
X189917Y303500D01*
Y305000D02*Y303500D01*
X191618Y307000D02*Y303500D01*
X192118Y303000D01*
X191118Y305500D02*X192118D01*
X177000Y316000D02*X179000D01*
X179500Y315500D01*
Y314500D01*
X179000Y314000D02*X179500Y314500D01*
X177500Y314000D02*X179000D01*
X177500Y316000D02*Y312000D01*
Y314000D02*X179500Y312000D01*
X181201D02*X182701D01*
X180701Y312500D02*X181201Y312000D01*
X180701Y313500D02*Y312500D01*
Y313500D02*X181201Y314000D01*
X182201D01*
X182701Y313500D01*
X180701Y313000D02*X182701D01*
Y313500D02*Y313000D01*
X183902Y314000D02*Y313000D01*
X184902Y312000D01*
X185902Y313000D01*
Y314000D02*Y313000D01*
X188903Y315500D02*X189403Y316000D01*
X190903D01*
X191403Y315500D01*
Y314500D01*
X188903Y312000D02*X191403Y314500D01*
X188903Y312000D02*X191403D01*
X192604D02*X193104D01*
X194305Y312500D02*X194805Y312000D01*
X194305Y315500D02*Y312500D01*
Y315500D02*X194805Y316000D01*
X195805D01*
X196305Y315500D01*
Y312500D01*
X195805Y312000D02*X196305Y312500D01*
X194805Y312000D02*X195805D01*
X194305Y313000D02*X196305Y315000D01*
X134000Y301000D02*X136000D01*
X135000D02*Y297000D01*
X137701D02*X139201D01*
X137201Y297500D02*X137701Y297000D01*
X137201Y298500D02*Y297500D01*
Y298500D02*X137701Y299000D01*
X138701D01*
X139201Y298500D01*
X137201Y298000D02*X139201D01*
Y298500D02*Y298000D01*
X140902Y298500D02*Y297000D01*
Y298500D02*X141402Y299000D01*
X141902D01*
X142402Y298500D01*
Y297000D01*
Y298500D02*X142902Y299000D01*
X143402D01*
X143902Y298500D01*
Y297000D01*
X140402Y299000D02*X140902Y298500D01*
X145603D02*Y295500D01*
X145103Y299000D02*X145603Y298500D01*
X146103Y299000D01*
X147103D01*
X147603Y298500D01*
Y297500D01*
X147103Y297000D02*X147603Y297500D01*
X146103Y297000D02*X147103D01*
X145603Y297500D02*X146103Y297000D01*
X149304D02*X150804D01*
X148804Y297500D02*X149304Y297000D01*
X148804Y298500D02*Y297500D01*
Y298500D02*X149304Y299000D01*
X150304D01*
X150804Y298500D01*
X148804Y298000D02*X150804D01*
Y298500D02*Y298000D01*
X152505Y298500D02*Y297000D01*
Y298500D02*X153005Y299000D01*
X154005D01*
X152005D02*X152505Y298500D01*
X156706Y299000D02*X157206Y298500D01*
X155706Y299000D02*X156706D01*
X155206Y298500D02*X155706Y299000D01*
X155206Y298500D02*Y297500D01*
X155706Y297000D01*
X157206Y299000D02*Y297500D01*
X157706Y297000D01*
X155706D02*X156706D01*
X157206Y297500D01*
X159407Y301000D02*Y297500D01*
X159907Y297000D01*
X158907Y299500D02*X159907D01*
X160908Y299000D02*Y297500D01*
X161408Y297000D01*
X162408D01*
X162908Y297500D01*
Y299000D02*Y297500D01*
X164609Y298500D02*Y297000D01*
Y298500D02*X165109Y299000D01*
X166109D01*
X164109D02*X164609Y298500D01*
X167810Y297000D02*X169310D01*
X167310Y297500D02*X167810Y297000D01*
X167310Y298500D02*Y297500D01*
Y298500D02*X167810Y299000D01*
X168810D01*
X169310Y298500D01*
X167310Y298000D02*X169310D01*
Y298500D02*Y298000D01*
X174311Y301000D02*X174811Y300500D01*
X172811Y301000D02*X174311D01*
X172311Y300500D02*X172811Y301000D01*
X172311Y300500D02*Y299500D01*
X172811Y299000D01*
X174311D01*
X174811Y298500D01*
Y297500D01*
X174311Y297000D02*X174811Y297500D01*
X172811Y297000D02*X174311D01*
X172311Y297500D02*X172811Y297000D01*
X176512D02*X178012D01*
X176012Y297500D02*X176512Y297000D01*
X176012Y298500D02*Y297500D01*
Y298500D02*X176512Y299000D01*
X177512D01*
X178012Y298500D01*
X176012Y298000D02*X178012D01*
Y298500D02*Y298000D01*
X179713Y298500D02*Y297000D01*
Y298500D02*X180213Y299000D01*
X180713D01*
X181213Y298500D01*
Y297000D01*
X179213Y299000D02*X179713Y298500D01*
X182914Y297000D02*X184414D01*
X184914Y297500D01*
X184414Y298000D02*X184914Y297500D01*
X182914Y298000D02*X184414D01*
X182414Y298500D02*X182914Y298000D01*
X182414Y298500D02*X182914Y299000D01*
X184414D01*
X184914Y298500D01*
X182414Y297500D02*X182914Y297000D01*
X186115Y298500D02*Y297500D01*
Y298500D02*X186615Y299000D01*
X187615D01*
X188115Y298500D01*
Y297500D01*
X187615Y297000D02*X188115Y297500D01*
X186615Y297000D02*X187615D01*
X186115Y297500D02*X186615Y297000D01*
X189816Y298500D02*Y297000D01*
Y298500D02*X190316Y299000D01*
X191316D01*
X189316D02*X189816Y298500D01*
X37000Y409000D02*X117000D01*
Y419000D02*Y409000D01*
X37000Y419000D02*X117000D01*
X37000D02*Y409000D01*
X47000Y419000D02*Y409000D01*
X37000Y419000D02*X47000D01*
X37000Y297000D02*X117000D01*
Y307000D02*Y297000D01*
X37000Y307000D02*X117000D01*
X37000D02*Y297000D01*
X47000Y307000D02*Y297000D01*
X37000Y307000D02*X47000D01*
X187000Y387000D02*Y327000D01*
X197000D01*
Y387000D01*
X187000D01*
Y377000D02*X197000D01*
Y387000D01*
X152000Y364000D02*X165000D01*
X134000D02*X147000D01*
X165000D02*Y345000D01*
X134000D02*X165000D01*
X134000Y364000D02*Y345000D01*
X147000Y364000D02*G75*G03X152000Y364000I2500J0D01*G01*
X38500Y403000D02*X40000D01*
X38000Y403500D02*X38500Y403000D01*
X38000Y406500D02*Y403500D01*
Y406500D02*X38500Y407000D01*
X40000D01*
X41201Y406500D02*Y403500D01*
Y406500D02*X41701Y407000D01*
X42701D01*
X43201Y406500D01*
Y403500D01*
X42701Y403000D02*X43201Y403500D01*
X41701Y403000D02*X42701D01*
X41201Y403500D02*X41701Y403000D01*
X44402Y407000D02*Y403000D01*
Y407000D02*Y406500D01*
X46902Y404000D01*
Y407000D02*Y403000D01*
X48103Y407000D02*Y403000D01*
Y407000D02*Y406500D01*
X50603Y404000D01*
Y407000D02*Y403000D01*
X52304D02*X53304D01*
X52804Y407000D02*Y403000D01*
X51804Y406000D02*X52804Y407000D01*
X37500Y309000D02*X39000D01*
X37000Y309500D02*X37500Y309000D01*
X37000Y312500D02*Y309500D01*
Y312500D02*X37500Y313000D01*
X39000D01*
X40201Y312500D02*Y309500D01*
Y312500D02*X40701Y313000D01*
X41701D01*
X42201Y312500D01*
Y309500D01*
X41701Y309000D02*X42201Y309500D01*
X40701Y309000D02*X41701D01*
X40201Y309500D02*X40701Y309000D01*
X43402Y313000D02*Y309000D01*
Y313000D02*Y312500D01*
X45902Y310000D01*
Y313000D02*Y309000D01*
X47103Y313000D02*Y309000D01*
Y313000D02*Y312500D01*
X49603Y310000D01*
Y313000D02*Y309000D01*
X50804Y312500D02*X51304Y313000D01*
X52804D01*
X53304Y312500D01*
Y311500D01*
X50804Y309000D02*X53304Y311500D01*
X50804Y309000D02*X53304D01*
X181000Y385500D02*Y384000D01*
X181500Y386000D02*X181000Y385500D01*
X181500Y386000D02*X184500D01*
X185000Y385500D01*
Y384000D01*
X181500Y382799D02*X184500D01*
X185000Y382299D01*
Y381299D01*
X184500Y380799D01*
X181500D02*X184500D01*
X181000Y381299D02*X181500Y380799D01*
X181000Y382299D02*Y381299D01*
X181500Y382799D02*X181000Y382299D01*
Y379598D02*X185000D01*
X184500D02*X185000D01*
X184500D02*X182000Y377098D01*
X181000D02*X185000D01*
X181000Y375897D02*X185000D01*
X184500D02*X185000D01*
X184500D02*X182000Y373397D01*
X181000D02*X185000D01*
X184500Y372196D02*X185000Y371696D01*
Y370696D01*
X184500Y370196D01*
X181500D02*X184500D01*
X181000Y370696D02*X181500Y370196D01*
X181000Y371696D02*Y370696D01*
X181500Y372196D02*X181000Y371696D01*
X183000D02*Y370196D01*
X147500Y359500D02*Y356000D01*
X148000Y355500D01*
X149000D01*
X149500Y356000D01*
Y359500D02*Y356000D01*
X151201Y355500D02*X152201D01*
X151701Y359500D02*Y355500D01*
X150701Y358500D02*X151701Y359500D01*
M02*
