G04 start of page 2 for group 0 idx 0 *
G04 Title: (unknown), component *
G04 Creator: pcb 20091103 *
G04 CreationDate: Sun 20 Mar 2011 03:02:04 AM GMT UTC *
G04 For: gjhurlbu *
G04 Format: Gerber/RS-274X *
G04 PCB-Dimensions: 600000 500000 *
G04 PCB-Coordinate-Origin: lower left *
%MOIN*%
%FSLAX25Y25*%
%LNFRONT*%
%ADD11C,0.0100*%
%ADD12C,0.0200*%
%ADD13C,0.0600*%
%ADD14C,0.0360*%
%ADD15R,0.0200X0.0200*%
%ADD16C,0.0380*%
G54D11*X125000Y362000D02*X136000D01*
X163000D02*X172000D01*
X177000Y367000D01*
Y376000D01*
X182000Y381000D01*
X191000D01*
X192000Y382000D01*
X163000Y347000D02*X170000D01*
X142500D02*X146000D01*
X149000Y344000D01*
Y340000D01*
X170000Y347000D02*X174000Y351000D01*
X173000Y352000D02*X174000Y351000D01*
Y355000D01*
X172000Y357000D01*
X163000D01*
Y352000D02*X173000D01*
X115000Y317000D02*X120000Y322000D01*
Y357000D01*
X119000Y313000D02*X126000Y320000D01*
Y351000D01*
X52000Y302000D02*Y313000D01*
X56000Y317000D01*
X62000Y302000D02*Y309000D01*
X64000Y311000D01*
X65000D01*
X67000Y313000D01*
X120000Y357000D02*X125000Y362000D01*
X126000Y351000D02*X132000Y357000D01*
X136000D01*
X56000Y317000D02*X115000D01*
X67000Y313000D02*X119000D01*
G54D12*G36*
X39000Y417000D02*Y411000D01*
X45000D01*
Y417000D01*
X39000D01*
G37*
G54D13*X52000Y414000D03*
X62000D03*
X72000D03*
X82000D03*
X92000D03*
X102000D03*
X112000D03*
G54D12*G36*
X189000Y385000D02*Y379000D01*
X195000D01*
Y385000D01*
X189000D01*
G37*
G54D13*X192000Y372000D03*
Y362000D03*
Y352000D03*
Y342000D03*
Y332000D03*
G54D12*G36*
X39000Y305000D02*Y299000D01*
X45000D01*
Y305000D01*
X39000D01*
G37*
G54D13*X52000Y302000D03*
X62000D03*
X72000D03*
X82000D03*
X92000D03*
X102000D03*
X112000D03*
G54D14*X174000Y351000D03*
X149000Y340000D03*
G54D15*X136000Y362000D02*X142500D01*
X136000Y357000D02*X142500D01*
X136000Y352000D02*X142500D01*
X156500D02*X163000D01*
X136000Y347000D02*X142500D01*
X156500D02*X163000D01*
X156500Y357000D02*X163000D01*
X156500Y362000D02*X163000D01*
G54D16*G54D12*M02*
