G04 start of page 3 for group 1 idx 1 *
G04 Title: (unknown), solder *
G04 Creator: pcb 20091103 *
G04 CreationDate: Sun 20 Mar 2011 03:02:04 AM GMT UTC *
G04 For: gjhurlbu *
G04 Format: Gerber/RS-274X *
G04 PCB-Dimensions: 600000 500000 *
G04 PCB-Coordinate-Origin: lower left *
%MOIN*%
%FSLAX25Y25*%
%LNBACK*%
%ADD12C,0.0200*%
%ADD13C,0.0600*%
%ADD14C,0.0360*%
%ADD16C,0.0380*%
G54D12*G36*
X199000Y421000D02*Y295000D01*
X195613D01*
Y329860D01*
X195708Y329882D01*
X195829Y329933D01*
X195938Y330005D01*
X196034Y330094D01*
X196113Y330198D01*
X196172Y330315D01*
X196314Y330722D01*
X196417Y331142D01*
X196479Y331569D01*
X196500Y332000D01*
X196479Y332432D01*
X196417Y332859D01*
X196314Y333279D01*
X196172Y333686D01*
X196171D01*
X196112Y333802D01*
X196033Y333907D01*
X195937Y333996D01*
X195828Y334067D01*
X195707Y334118D01*
X195613Y334139D01*
Y339344D01*
X195897Y339750D01*
X196229Y340461D01*
X196432Y341219D01*
X196500Y342000D01*
X196432Y342781D01*
X196229Y343539D01*
X195897Y344250D01*
X195613Y344656D01*
Y349344D01*
X195897Y349750D01*
X196229Y350461D01*
X196432Y351219D01*
X196500Y352000D01*
X196432Y352781D01*
X196229Y353539D01*
X195897Y354250D01*
X195613Y354656D01*
Y359344D01*
X195897Y359750D01*
X196229Y360461D01*
X196432Y361219D01*
X196500Y362000D01*
X196432Y362781D01*
X196229Y363539D01*
X195897Y364250D01*
X195613Y364656D01*
Y369344D01*
X195897Y369750D01*
X196229Y370461D01*
X196432Y371219D01*
X196500Y372000D01*
X196432Y372781D01*
X196229Y373539D01*
X195897Y374250D01*
X195613Y374656D01*
Y377637D01*
X195750Y377701D01*
X195964Y377851D01*
X196149Y378036D01*
X196299Y378250D01*
X196410Y378487D01*
X196477Y378740D01*
X196500Y379000D01*
Y385000D01*
X196477Y385260D01*
X196410Y385513D01*
X196299Y385750D01*
X196149Y385964D01*
X195964Y386149D01*
X195750Y386299D01*
X195613Y386363D01*
Y421000D01*
X199000D01*
G37*
G36*
X195613Y386363D02*X195513Y386410D01*
X195260Y386477D01*
X195000Y386500D01*
X192000D01*
Y421000D01*
X195613D01*
Y386363D01*
G37*
G36*
Y374656D02*X195447Y374893D01*
X194893Y375447D01*
X194250Y375897D01*
X193539Y376229D01*
X192781Y376432D01*
X192000Y376500D01*
Y377500D01*
X195000D01*
X195260Y377523D01*
X195513Y377590D01*
X195613Y377637D01*
Y374656D01*
G37*
G36*
Y364656D02*X195447Y364893D01*
X194893Y365447D01*
X194250Y365897D01*
X193539Y366229D01*
X192781Y366432D01*
X192000Y366500D01*
Y367500D01*
X192781Y367568D01*
X193539Y367771D01*
X194250Y368103D01*
X194893Y368553D01*
X195447Y369107D01*
X195613Y369344D01*
Y364656D01*
G37*
G36*
Y354656D02*X195447Y354893D01*
X194893Y355447D01*
X194250Y355897D01*
X193539Y356229D01*
X192781Y356432D01*
X192000Y356500D01*
Y357500D01*
X192781Y357568D01*
X193539Y357771D01*
X194250Y358103D01*
X194893Y358553D01*
X195447Y359107D01*
X195613Y359344D01*
Y354656D01*
G37*
G36*
Y344656D02*X195447Y344893D01*
X194893Y345447D01*
X194250Y345897D01*
X193539Y346229D01*
X192781Y346432D01*
X192000Y346500D01*
Y347500D01*
X192781Y347568D01*
X193539Y347771D01*
X194250Y348103D01*
X194893Y348553D01*
X195447Y349107D01*
X195613Y349344D01*
Y344656D01*
G37*
G36*
Y295000D02*X192000D01*
Y327500D01*
X192431Y327521D01*
X192858Y327583D01*
X193278Y327686D01*
X193685Y327828D01*
Y327829D01*
X193801Y327888D01*
X193906Y327967D01*
X193995Y328063D01*
X194066Y328172D01*
X194117Y328293D01*
X194146Y328420D01*
X194153Y328550D01*
X194137Y328680D01*
X194099Y328805D01*
X194040Y328921D01*
X193961Y329026D01*
X193865Y329115D01*
X193756Y329186D01*
X193635Y329237D01*
X193508Y329266D01*
X193378Y329273D01*
X193248Y329257D01*
X193123Y329219D01*
X192852Y329124D01*
X192572Y329056D01*
X192287Y329014D01*
X192000Y329000D01*
Y335000D01*
X192287Y334987D01*
X192572Y334945D01*
X192852Y334877D01*
X193123Y334782D01*
Y334781D01*
X193248Y334743D01*
X193378Y334727D01*
X193509Y334734D01*
X193636Y334763D01*
X193757Y334814D01*
X193866Y334886D01*
X193962Y334975D01*
X194041Y335079D01*
X194100Y335196D01*
X194138Y335321D01*
X194154Y335451D01*
X194147Y335582D01*
X194118Y335709D01*
X194067Y335830D01*
X193995Y335939D01*
X193906Y336035D01*
X193802Y336114D01*
X193685Y336173D01*
X193278Y336315D01*
X192858Y336418D01*
X192431Y336480D01*
X192000Y336500D01*
Y337500D01*
X192781Y337568D01*
X193539Y337771D01*
X194250Y338103D01*
X194893Y338553D01*
X195447Y339107D01*
X195613Y339344D01*
Y334139D01*
X195580Y334147D01*
X195450Y334154D01*
X195320Y334138D01*
X195195Y334100D01*
X195079Y334041D01*
X194974Y333962D01*
X194885Y333866D01*
X194814Y333757D01*
X194763Y333636D01*
X194734Y333509D01*
X194727Y333379D01*
X194743Y333249D01*
X194781Y333124D01*
X194876Y332853D01*
X194944Y332573D01*
X194986Y332288D01*
X195000Y332000D01*
X194986Y331713D01*
X194944Y331428D01*
X194876Y331148D01*
X194781Y330877D01*
X194780D01*
X194742Y330752D01*
X194726Y330622D01*
X194733Y330491D01*
X194762Y330364D01*
X194813Y330243D01*
X194885Y330134D01*
X194974Y330038D01*
X195078Y329959D01*
X195195Y329900D01*
X195320Y329862D01*
X195450Y329846D01*
X195581Y329853D01*
X195613Y329860D01*
Y295000D01*
G37*
G36*
X188387Y349344D02*X188553Y349107D01*
X189107Y348553D01*
X189750Y348103D01*
X190461Y347771D01*
X191219Y347568D01*
X192000Y347500D01*
Y346500D01*
X191219Y346432D01*
X190461Y346229D01*
X189750Y345897D01*
X189107Y345447D01*
X188553Y344893D01*
X188387Y344656D01*
Y349344D01*
G37*
G36*
Y359344D02*X188553Y359107D01*
X189107Y358553D01*
X189750Y358103D01*
X190461Y357771D01*
X191219Y357568D01*
X192000Y357500D01*
Y356500D01*
X191219Y356432D01*
X190461Y356229D01*
X189750Y355897D01*
X189107Y355447D01*
X188553Y354893D01*
X188387Y354656D01*
Y359344D01*
G37*
G36*
Y369344D02*X188553Y369107D01*
X189107Y368553D01*
X189750Y368103D01*
X190461Y367771D01*
X191219Y367568D01*
X192000Y367500D01*
Y366500D01*
X191219Y366432D01*
X190461Y366229D01*
X189750Y365897D01*
X189107Y365447D01*
X188553Y364893D01*
X188387Y364656D01*
Y369344D01*
G37*
G36*
Y377637D02*X188487Y377590D01*
X188740Y377523D01*
X189000Y377500D01*
X192000D01*
Y376500D01*
X191219Y376432D01*
X190461Y376229D01*
X189750Y375897D01*
X189107Y375447D01*
X188553Y374893D01*
X188387Y374656D01*
Y377637D01*
G37*
G36*
Y421000D02*X192000D01*
Y386500D01*
X189000D01*
X188740Y386477D01*
X188487Y386410D01*
X188387Y386363D01*
Y421000D01*
G37*
G36*
X192000Y295000D02*X188387D01*
Y329861D01*
X188419Y329854D01*
X188549Y329847D01*
X188679Y329863D01*
X188804Y329901D01*
X188920Y329960D01*
X189025Y330039D01*
X189114Y330135D01*
X189185Y330244D01*
X189236Y330365D01*
X189265Y330492D01*
X189272Y330622D01*
X189256Y330752D01*
X189218Y330877D01*
X189123Y331148D01*
X189055Y331428D01*
X189013Y331713D01*
X189000Y332001D01*
X189013Y332288D01*
X189055Y332573D01*
X189123Y332853D01*
X189218Y333124D01*
X189219D01*
X189257Y333249D01*
X189273Y333379D01*
X189266Y333510D01*
X189237Y333637D01*
X189186Y333758D01*
X189114Y333867D01*
X189025Y333963D01*
X188921Y334042D01*
X188804Y334101D01*
X188679Y334139D01*
X188549Y334155D01*
X188418Y334148D01*
X188387Y334141D01*
Y339344D01*
X188553Y339107D01*
X189107Y338553D01*
X189750Y338103D01*
X190461Y337771D01*
X191219Y337568D01*
X192000Y337500D01*
Y336500D01*
X191568Y336480D01*
X191141Y336418D01*
X190721Y336315D01*
X190314Y336173D01*
Y336172D01*
X190198Y336113D01*
X190093Y336034D01*
X190004Y335938D01*
X189933Y335829D01*
X189882Y335708D01*
X189853Y335581D01*
X189846Y335451D01*
X189862Y335321D01*
X189900Y335196D01*
X189959Y335080D01*
X190038Y334975D01*
X190134Y334886D01*
X190243Y334815D01*
X190364Y334764D01*
X190491Y334735D01*
X190621Y334728D01*
X190751Y334744D01*
X190876Y334782D01*
X191147Y334877D01*
X191427Y334945D01*
X191712Y334987D01*
X192000Y335000D01*
Y329000D01*
X191999D01*
X191712Y329014D01*
X191427Y329056D01*
X191147Y329124D01*
X190876Y329219D01*
Y329220D01*
X190751Y329258D01*
X190621Y329274D01*
X190490Y329267D01*
X190363Y329238D01*
X190242Y329187D01*
X190133Y329115D01*
X190037Y329026D01*
X189958Y328922D01*
X189899Y328805D01*
X189861Y328680D01*
X189845Y328550D01*
X189852Y328419D01*
X189881Y328292D01*
X189932Y328171D01*
X190004Y328062D01*
X190093Y327966D01*
X190197Y327887D01*
X190314Y327828D01*
X190721Y327686D01*
X191141Y327583D01*
X191568Y327521D01*
X191999Y327500D01*
X192000D01*
Y295000D01*
G37*
G36*
X188387D02*X176231D01*
Y349720D01*
X176248Y349721D01*
X176332Y349744D01*
X176411Y349781D01*
X176483Y349831D01*
X176544Y349893D01*
X176594Y349964D01*
X176631Y350043D01*
X176704Y350276D01*
X176757Y350514D01*
X176789Y350756D01*
X176800Y351000D01*
X176789Y351245D01*
X176757Y351487D01*
X176704Y351725D01*
X176631Y351958D01*
X176594Y352037D01*
X176544Y352108D01*
X176483Y352170D01*
X176411Y352220D01*
X176332Y352257D01*
X176248Y352280D01*
X176231Y352281D01*
Y421000D01*
X188387D01*
Y386363D01*
X188250Y386299D01*
X188036Y386149D01*
X187851Y385964D01*
X187701Y385750D01*
X187590Y385513D01*
X187523Y385260D01*
X187500Y385000D01*
Y379000D01*
X187523Y378740D01*
X187590Y378487D01*
X187701Y378250D01*
X187851Y378036D01*
X188036Y377851D01*
X188250Y377701D01*
X188387Y377637D01*
Y374656D01*
X188103Y374250D01*
X187771Y373539D01*
X187568Y372781D01*
X187500Y372000D01*
X187568Y371219D01*
X187771Y370461D01*
X188103Y369750D01*
X188387Y369344D01*
Y364656D01*
X188103Y364250D01*
X187771Y363539D01*
X187568Y362781D01*
X187500Y362000D01*
X187568Y361219D01*
X187771Y360461D01*
X188103Y359750D01*
X188387Y359344D01*
Y354656D01*
X188103Y354250D01*
X187771Y353539D01*
X187568Y352781D01*
X187500Y352000D01*
X187568Y351219D01*
X187771Y350461D01*
X188103Y349750D01*
X188387Y349344D01*
Y344656D01*
X188103Y344250D01*
X187771Y343539D01*
X187568Y342781D01*
X187500Y342000D01*
X187568Y341219D01*
X187771Y340461D01*
X188103Y339750D01*
X188387Y339344D01*
Y334141D01*
X188291Y334119D01*
X188170Y334068D01*
X188061Y333996D01*
X187965Y333907D01*
X187886Y333803D01*
X187827Y333686D01*
X187685Y333279D01*
X187582Y332859D01*
X187520Y332432D01*
X187500Y332001D01*
X187520Y331569D01*
X187582Y331142D01*
X187685Y330722D01*
X187827Y330315D01*
X187828D01*
X187887Y330199D01*
X187966Y330094D01*
X188062Y330005D01*
X188171Y329934D01*
X188292Y329883D01*
X188387Y329861D01*
Y295000D01*
G37*
G36*
X176231D02*X174000D01*
Y348200D01*
X174244Y348211D01*
X174486Y348243D01*
X174724Y348296D01*
X174957Y348369D01*
X175036Y348406D01*
X175107Y348456D01*
X175169Y348517D01*
X175219Y348589D01*
X175256Y348668D01*
X175279Y348752D01*
X175286Y348839D01*
X175279Y348926D01*
X175256Y349010D01*
X175219Y349089D01*
X175169Y349160D01*
X175108Y349222D01*
X175036Y349272D01*
X174957Y349309D01*
X174873Y349332D01*
X174786Y349339D01*
X174699Y349332D01*
X174615Y349309D01*
X174465Y349262D01*
X174312Y349228D01*
X174156Y349207D01*
X174000Y349200D01*
Y352800D01*
X174156Y352794D01*
X174312Y352773D01*
X174465Y352739D01*
X174615Y352692D01*
X174699Y352669D01*
X174786Y352662D01*
X174873Y352669D01*
X174957Y352692D01*
X175036Y352729D01*
X175108Y352779D01*
X175169Y352841D01*
X175219Y352912D01*
X175256Y352991D01*
X175279Y353075D01*
X175286Y353162D01*
X175279Y353249D01*
X175256Y353333D01*
X175219Y353412D01*
X175169Y353484D01*
X175107Y353545D01*
X175036Y353595D01*
X174957Y353632D01*
X174724Y353705D01*
X174486Y353758D01*
X174244Y353790D01*
X174000Y353800D01*
Y421000D01*
X176231D01*
Y352281D01*
X176161Y352287D01*
X176074Y352280D01*
X175990Y352257D01*
X175911Y352220D01*
X175840Y352170D01*
X175778Y352109D01*
X175728Y352037D01*
X175691Y351958D01*
X175668Y351874D01*
X175661Y351787D01*
X175668Y351700D01*
X175691Y351616D01*
X175738Y351466D01*
X175772Y351313D01*
X175793Y351157D01*
X175800Y351000D01*
X175793Y350844D01*
X175772Y350688D01*
X175738Y350535D01*
X175691Y350385D01*
X175668Y350301D01*
X175661Y350214D01*
X175668Y350127D01*
X175691Y350043D01*
X175728Y349964D01*
X175778Y349892D01*
X175840Y349831D01*
X175911Y349781D01*
X175990Y349744D01*
X176074Y349721D01*
X176161Y349714D01*
X176231Y349720D01*
Y295000D01*
G37*
G36*
X174000D02*X171769D01*
Y349720D01*
X171838Y349714D01*
X171925Y349721D01*
X172009Y349744D01*
X172088Y349781D01*
X172159Y349831D01*
X172221Y349892D01*
X172271Y349964D01*
X172308Y350043D01*
X172331Y350127D01*
X172338Y350214D01*
X172331Y350301D01*
X172308Y350385D01*
X172261Y350535D01*
X172227Y350688D01*
X172206Y350844D01*
X172200Y351001D01*
X172206Y351157D01*
X172227Y351313D01*
X172261Y351466D01*
X172308Y351616D01*
X172331Y351700D01*
X172338Y351787D01*
X172331Y351874D01*
X172308Y351958D01*
X172271Y352037D01*
X172221Y352109D01*
X172159Y352170D01*
X172088Y352220D01*
X172009Y352257D01*
X171925Y352280D01*
X171838Y352287D01*
X171769Y352281D01*
Y421000D01*
X174000D01*
Y353800D01*
X173755Y353790D01*
X173513Y353758D01*
X173275Y353705D01*
X173042Y353632D01*
X172963Y353595D01*
X172892Y353545D01*
X172830Y353484D01*
X172780Y353412D01*
X172743Y353333D01*
X172720Y353249D01*
X172713Y353162D01*
X172720Y353075D01*
X172743Y352991D01*
X172780Y352912D01*
X172830Y352841D01*
X172891Y352779D01*
X172963Y352729D01*
X173042Y352692D01*
X173126Y352669D01*
X173213Y352662D01*
X173300Y352669D01*
X173384Y352692D01*
X173534Y352739D01*
X173687Y352773D01*
X173843Y352794D01*
X174000Y352800D01*
Y349200D01*
X173999D01*
X173843Y349207D01*
X173687Y349228D01*
X173534Y349262D01*
X173384Y349309D01*
X173300Y349332D01*
X173213Y349339D01*
X173126Y349332D01*
X173042Y349309D01*
X172963Y349272D01*
X172891Y349222D01*
X172830Y349160D01*
X172780Y349089D01*
X172743Y349010D01*
X172720Y348926D01*
X172713Y348839D01*
X172720Y348752D01*
X172743Y348668D01*
X172780Y348589D01*
X172830Y348517D01*
X172892Y348456D01*
X172963Y348406D01*
X173042Y348369D01*
X173275Y348296D01*
X173513Y348243D01*
X173755Y348211D01*
X173999Y348200D01*
X174000D01*
Y295000D01*
G37*
G36*
X171769D02*X151231D01*
Y338720D01*
X151248Y338721D01*
X151332Y338744D01*
X151411Y338781D01*
X151483Y338831D01*
X151544Y338893D01*
X151594Y338964D01*
X151631Y339043D01*
X151704Y339276D01*
X151757Y339514D01*
X151789Y339756D01*
X151800Y340000D01*
X151789Y340245D01*
X151757Y340487D01*
X151704Y340725D01*
X151631Y340958D01*
X151594Y341037D01*
X151544Y341108D01*
X151483Y341170D01*
X151411Y341220D01*
X151332Y341257D01*
X151248Y341280D01*
X151231Y341281D01*
Y421000D01*
X171769D01*
Y352281D01*
X171751Y352280D01*
X171667Y352257D01*
X171588Y352220D01*
X171516Y352170D01*
X171455Y352108D01*
X171405Y352037D01*
X171368Y351958D01*
X171295Y351725D01*
X171242Y351487D01*
X171210Y351245D01*
X171200Y351001D01*
X171210Y350756D01*
X171242Y350514D01*
X171295Y350276D01*
X171368Y350043D01*
X171405Y349964D01*
X171455Y349893D01*
X171516Y349831D01*
X171588Y349781D01*
X171667Y349744D01*
X171751Y349721D01*
X171769Y349720D01*
Y295000D01*
G37*
G36*
X151231D02*X149000D01*
Y337200D01*
X149244Y337211D01*
X149486Y337243D01*
X149724Y337296D01*
X149957Y337369D01*
X150036Y337406D01*
X150107Y337456D01*
X150169Y337517D01*
X150219Y337589D01*
X150256Y337668D01*
X150279Y337752D01*
X150286Y337839D01*
X150279Y337926D01*
X150256Y338010D01*
X150219Y338089D01*
X150169Y338160D01*
X150108Y338222D01*
X150036Y338272D01*
X149957Y338309D01*
X149873Y338332D01*
X149786Y338339D01*
X149699Y338332D01*
X149615Y338309D01*
X149465Y338262D01*
X149312Y338228D01*
X149156Y338207D01*
X149000Y338200D01*
Y341800D01*
X149156Y341794D01*
X149312Y341773D01*
X149465Y341739D01*
X149615Y341692D01*
X149699Y341669D01*
X149786Y341662D01*
X149873Y341669D01*
X149957Y341692D01*
X150036Y341729D01*
X150108Y341779D01*
X150169Y341841D01*
X150219Y341912D01*
X150256Y341991D01*
X150279Y342075D01*
X150286Y342162D01*
X150279Y342249D01*
X150256Y342333D01*
X150219Y342412D01*
X150169Y342484D01*
X150107Y342545D01*
X150036Y342595D01*
X149957Y342632D01*
X149724Y342705D01*
X149486Y342758D01*
X149244Y342790D01*
X149000Y342800D01*
Y421000D01*
X151231D01*
Y341281D01*
X151161Y341287D01*
X151074Y341280D01*
X150990Y341257D01*
X150911Y341220D01*
X150840Y341170D01*
X150778Y341109D01*
X150728Y341037D01*
X150691Y340958D01*
X150668Y340874D01*
X150661Y340787D01*
X150668Y340700D01*
X150691Y340616D01*
X150738Y340466D01*
X150772Y340313D01*
X150793Y340157D01*
X150800Y340000D01*
X150793Y339844D01*
X150772Y339688D01*
X150738Y339535D01*
X150691Y339385D01*
X150668Y339301D01*
X150661Y339214D01*
X150668Y339127D01*
X150691Y339043D01*
X150728Y338964D01*
X150778Y338892D01*
X150840Y338831D01*
X150911Y338781D01*
X150990Y338744D01*
X151074Y338721D01*
X151161Y338714D01*
X151231Y338720D01*
Y295000D01*
G37*
G36*
X149000D02*X146769D01*
Y338720D01*
X146838Y338714D01*
X146925Y338721D01*
X147009Y338744D01*
X147088Y338781D01*
X147159Y338831D01*
X147221Y338892D01*
X147271Y338964D01*
X147308Y339043D01*
X147331Y339127D01*
X147338Y339214D01*
X147331Y339301D01*
X147308Y339385D01*
X147261Y339535D01*
X147227Y339688D01*
X147206Y339844D01*
X147200Y340001D01*
X147206Y340157D01*
X147227Y340313D01*
X147261Y340466D01*
X147308Y340616D01*
X147331Y340700D01*
X147338Y340787D01*
X147331Y340874D01*
X147308Y340958D01*
X147271Y341037D01*
X147221Y341109D01*
X147159Y341170D01*
X147088Y341220D01*
X147009Y341257D01*
X146925Y341280D01*
X146838Y341287D01*
X146769Y341281D01*
Y421000D01*
X149000D01*
Y342800D01*
X148755Y342790D01*
X148513Y342758D01*
X148275Y342705D01*
X148042Y342632D01*
X147963Y342595D01*
X147892Y342545D01*
X147830Y342484D01*
X147780Y342412D01*
X147743Y342333D01*
X147720Y342249D01*
X147713Y342162D01*
X147720Y342075D01*
X147743Y341991D01*
X147780Y341912D01*
X147830Y341841D01*
X147891Y341779D01*
X147963Y341729D01*
X148042Y341692D01*
X148126Y341669D01*
X148213Y341662D01*
X148300Y341669D01*
X148384Y341692D01*
X148534Y341739D01*
X148687Y341773D01*
X148843Y341794D01*
X149000Y341800D01*
Y338200D01*
X148999D01*
X148843Y338207D01*
X148687Y338228D01*
X148534Y338262D01*
X148384Y338309D01*
X148300Y338332D01*
X148213Y338339D01*
X148126Y338332D01*
X148042Y338309D01*
X147963Y338272D01*
X147891Y338222D01*
X147830Y338160D01*
X147780Y338089D01*
X147743Y338010D01*
X147720Y337926D01*
X147713Y337839D01*
X147720Y337752D01*
X147743Y337668D01*
X147780Y337589D01*
X147830Y337517D01*
X147892Y337456D01*
X147963Y337406D01*
X148042Y337369D01*
X148275Y337296D01*
X148513Y337243D01*
X148755Y337211D01*
X148999Y337200D01*
X149000D01*
Y295000D01*
G37*
G36*
X146769D02*X112000D01*
Y297500D01*
X112781Y297568D01*
X113539Y297771D01*
X114250Y298103D01*
X114893Y298553D01*
X115447Y299107D01*
X115897Y299750D01*
X116229Y300461D01*
X116432Y301219D01*
X116500Y302000D01*
X116432Y302781D01*
X116229Y303539D01*
X115897Y304250D01*
X115447Y304893D01*
X114893Y305447D01*
X114250Y305897D01*
X113539Y306229D01*
X112781Y306432D01*
X112000Y306500D01*
Y409500D01*
X112781Y409568D01*
X113539Y409771D01*
X114250Y410103D01*
X114893Y410553D01*
X115447Y411107D01*
X115897Y411750D01*
X116229Y412461D01*
X116432Y413219D01*
X116500Y414000D01*
X116432Y414781D01*
X116229Y415539D01*
X115897Y416250D01*
X115447Y416893D01*
X114893Y417447D01*
X114250Y417897D01*
X113539Y418229D01*
X112781Y418432D01*
X112000Y418500D01*
Y421000D01*
X146769D01*
Y341281D01*
X146751Y341280D01*
X146667Y341257D01*
X146588Y341220D01*
X146516Y341170D01*
X146455Y341108D01*
X146405Y341037D01*
X146368Y340958D01*
X146295Y340725D01*
X146242Y340487D01*
X146210Y340245D01*
X146200Y340001D01*
X146210Y339756D01*
X146242Y339514D01*
X146295Y339276D01*
X146368Y339043D01*
X146405Y338964D01*
X146455Y338893D01*
X146516Y338831D01*
X146588Y338781D01*
X146667Y338744D01*
X146751Y338721D01*
X146769Y338720D01*
Y295000D01*
G37*
G36*
X112000D02*X102000D01*
Y297500D01*
X102781Y297568D01*
X103539Y297771D01*
X104250Y298103D01*
X104893Y298553D01*
X105447Y299107D01*
X105897Y299750D01*
X106229Y300461D01*
X106432Y301219D01*
X106500Y302000D01*
X106432Y302781D01*
X106229Y303539D01*
X105897Y304250D01*
X105447Y304893D01*
X104893Y305447D01*
X104250Y305897D01*
X103539Y306229D01*
X102781Y306432D01*
X102000Y306500D01*
Y322000D01*
X111000D01*
Y394000D01*
X102000D01*
Y409500D01*
X102781Y409568D01*
X103539Y409771D01*
X104250Y410103D01*
X104893Y410553D01*
X105447Y411107D01*
X105897Y411750D01*
X106229Y412461D01*
X106432Y413219D01*
X106500Y414000D01*
X106432Y414781D01*
X106229Y415539D01*
X105897Y416250D01*
X105447Y416893D01*
X104893Y417447D01*
X104250Y417897D01*
X103539Y418229D01*
X102781Y418432D01*
X102000Y418500D01*
Y421000D01*
X112000D01*
Y418500D01*
X111219Y418432D01*
X110461Y418229D01*
X109750Y417897D01*
X109107Y417447D01*
X108553Y416893D01*
X108103Y416250D01*
X107771Y415539D01*
X107568Y414781D01*
X107500Y414000D01*
X107568Y413219D01*
X107771Y412461D01*
X108103Y411750D01*
X108553Y411107D01*
X109107Y410553D01*
X109750Y410103D01*
X110461Y409771D01*
X111219Y409568D01*
X112000Y409500D01*
Y306500D01*
X111219Y306432D01*
X110461Y306229D01*
X109750Y305897D01*
X109107Y305447D01*
X108553Y304893D01*
X108103Y304250D01*
X107771Y303539D01*
X107568Y302781D01*
X107500Y302000D01*
X107568Y301219D01*
X107771Y300461D01*
X108103Y299750D01*
X108553Y299107D01*
X109107Y298553D01*
X109750Y298103D01*
X110461Y297771D01*
X111219Y297568D01*
X112000Y297500D01*
Y295000D01*
G37*
G36*
X102000Y394000D02*X92000D01*
Y409500D01*
X92781Y409568D01*
X93539Y409771D01*
X94250Y410103D01*
X94893Y410553D01*
X95447Y411107D01*
X95897Y411750D01*
X96229Y412461D01*
X96432Y413219D01*
X96500Y414000D01*
X96432Y414781D01*
X96229Y415539D01*
X95897Y416250D01*
X95447Y416893D01*
X94893Y417447D01*
X94250Y417897D01*
X93539Y418229D01*
X92781Y418432D01*
X92000Y418500D01*
Y421000D01*
X102000D01*
Y418500D01*
X101219Y418432D01*
X100461Y418229D01*
X99750Y417897D01*
X99107Y417447D01*
X98553Y416893D01*
X98103Y416250D01*
X97771Y415539D01*
X97568Y414781D01*
X97500Y414000D01*
X97568Y413219D01*
X97771Y412461D01*
X98103Y411750D01*
X98553Y411107D01*
X99107Y410553D01*
X99750Y410103D01*
X100461Y409771D01*
X101219Y409568D01*
X102000Y409500D01*
Y394000D01*
G37*
G36*
X92000D02*X82000D01*
Y409500D01*
X82781Y409568D01*
X83539Y409771D01*
X84250Y410103D01*
X84893Y410553D01*
X85447Y411107D01*
X85897Y411750D01*
X86229Y412461D01*
X86432Y413219D01*
X86500Y414000D01*
X86432Y414781D01*
X86229Y415539D01*
X85897Y416250D01*
X85447Y416893D01*
X84893Y417447D01*
X84250Y417897D01*
X83539Y418229D01*
X82781Y418432D01*
X82000Y418500D01*
Y421000D01*
X92000D01*
Y418500D01*
X91219Y418432D01*
X90461Y418229D01*
X89750Y417897D01*
X89107Y417447D01*
X88553Y416893D01*
X88103Y416250D01*
X87771Y415539D01*
X87568Y414781D01*
X87500Y414000D01*
X87568Y413219D01*
X87771Y412461D01*
X88103Y411750D01*
X88553Y411107D01*
X89107Y410553D01*
X89750Y410103D01*
X90461Y409771D01*
X91219Y409568D01*
X92000Y409500D01*
Y394000D01*
G37*
G36*
X82000D02*X72000D01*
Y409500D01*
X72781Y409568D01*
X73539Y409771D01*
X74250Y410103D01*
X74893Y410553D01*
X75447Y411107D01*
X75897Y411750D01*
X76229Y412461D01*
X76432Y413219D01*
X76500Y414000D01*
X76432Y414781D01*
X76229Y415539D01*
X75897Y416250D01*
X75447Y416893D01*
X74893Y417447D01*
X74250Y417897D01*
X73539Y418229D01*
X72781Y418432D01*
X72000Y418500D01*
Y421000D01*
X82000D01*
Y418500D01*
X81219Y418432D01*
X80461Y418229D01*
X79750Y417897D01*
X79107Y417447D01*
X78553Y416893D01*
X78103Y416250D01*
X77771Y415539D01*
X77568Y414781D01*
X77500Y414000D01*
X77568Y413219D01*
X77771Y412461D01*
X78103Y411750D01*
X78553Y411107D01*
X79107Y410553D01*
X79750Y410103D01*
X80461Y409771D01*
X81219Y409568D01*
X82000Y409500D01*
Y394000D01*
G37*
G36*
X72000D02*X62000D01*
Y409500D01*
X62781Y409568D01*
X63539Y409771D01*
X64250Y410103D01*
X64893Y410553D01*
X65447Y411107D01*
X65897Y411750D01*
X66229Y412461D01*
X66432Y413219D01*
X66500Y414000D01*
X66432Y414781D01*
X66229Y415539D01*
X65897Y416250D01*
X65447Y416893D01*
X64893Y417447D01*
X64250Y417897D01*
X63539Y418229D01*
X62781Y418432D01*
X62000Y418500D01*
Y421000D01*
X72000D01*
Y418500D01*
X71219Y418432D01*
X70461Y418229D01*
X69750Y417897D01*
X69107Y417447D01*
X68553Y416893D01*
X68103Y416250D01*
X67771Y415539D01*
X67568Y414781D01*
X67500Y414000D01*
X67568Y413219D01*
X67771Y412461D01*
X68103Y411750D01*
X68553Y411107D01*
X69107Y410553D01*
X69750Y410103D01*
X70461Y409771D01*
X71219Y409568D01*
X72000Y409500D01*
Y394000D01*
G37*
G36*
X62000D02*X52000D01*
Y409500D01*
X52781Y409568D01*
X53539Y409771D01*
X54250Y410103D01*
X54893Y410553D01*
X55447Y411107D01*
X55897Y411750D01*
X56229Y412461D01*
X56432Y413219D01*
X56500Y414000D01*
X56432Y414781D01*
X56229Y415539D01*
X55897Y416250D01*
X55447Y416893D01*
X54893Y417447D01*
X54250Y417897D01*
X53539Y418229D01*
X52781Y418432D01*
X52000Y418500D01*
Y421000D01*
X62000D01*
Y418500D01*
X61219Y418432D01*
X60461Y418229D01*
X59750Y417897D01*
X59107Y417447D01*
X58553Y416893D01*
X58103Y416250D01*
X57771Y415539D01*
X57568Y414781D01*
X57500Y414000D01*
X57568Y413219D01*
X57771Y412461D01*
X58103Y411750D01*
X58553Y411107D01*
X59107Y410553D01*
X59750Y410103D01*
X60461Y409771D01*
X61219Y409568D01*
X62000Y409500D01*
Y394000D01*
G37*
G36*
X52000D02*X42000D01*
Y409500D01*
X45000D01*
X45260Y409523D01*
X45513Y409590D01*
X45750Y409701D01*
X45964Y409851D01*
X46149Y410036D01*
X46299Y410250D01*
X46410Y410487D01*
X46477Y410740D01*
X46500Y411000D01*
Y417000D01*
X46477Y417260D01*
X46410Y417513D01*
X46299Y417750D01*
X46149Y417964D01*
X45964Y418149D01*
X45750Y418299D01*
X45513Y418410D01*
X45260Y418477D01*
X45000Y418500D01*
X42000D01*
Y421000D01*
X52000D01*
Y418500D01*
X51219Y418432D01*
X50461Y418229D01*
X49750Y417897D01*
X49107Y417447D01*
X48553Y416893D01*
X48103Y416250D01*
X47771Y415539D01*
X47568Y414781D01*
X47500Y414000D01*
X47568Y413219D01*
X47771Y412461D01*
X48103Y411750D01*
X48553Y411107D01*
X49107Y410553D01*
X49750Y410103D01*
X50461Y409771D01*
X51219Y409568D01*
X52000Y409500D01*
Y394000D01*
G37*
G36*
X42000D02*X35000D01*
Y421000D01*
X42000D01*
Y418500D01*
X39000D01*
X38740Y418477D01*
X38487Y418410D01*
X38250Y418299D01*
X38036Y418149D01*
X37851Y417964D01*
X37701Y417750D01*
X37590Y417513D01*
X37523Y417260D01*
X37500Y417000D01*
Y411000D01*
X37523Y410740D01*
X37590Y410487D01*
X37701Y410250D01*
X37851Y410036D01*
X38036Y409851D01*
X38250Y409701D01*
X38487Y409590D01*
X38740Y409523D01*
X39000Y409500D01*
X42000D01*
Y394000D01*
G37*
G36*
X102000Y295000D02*X92000D01*
Y297500D01*
X92781Y297568D01*
X93539Y297771D01*
X94250Y298103D01*
X94893Y298553D01*
X95447Y299107D01*
X95897Y299750D01*
X96229Y300461D01*
X96432Y301219D01*
X96500Y302000D01*
X96432Y302781D01*
X96229Y303539D01*
X95897Y304250D01*
X95447Y304893D01*
X94893Y305447D01*
X94250Y305897D01*
X93539Y306229D01*
X92781Y306432D01*
X92000Y306500D01*
Y322000D01*
X102000D01*
Y306500D01*
X101219Y306432D01*
X100461Y306229D01*
X99750Y305897D01*
X99107Y305447D01*
X98553Y304893D01*
X98103Y304250D01*
X97771Y303539D01*
X97568Y302781D01*
X97500Y302000D01*
X97568Y301219D01*
X97771Y300461D01*
X98103Y299750D01*
X98553Y299107D01*
X99107Y298553D01*
X99750Y298103D01*
X100461Y297771D01*
X101219Y297568D01*
X102000Y297500D01*
Y295000D01*
G37*
G36*
X92000D02*X82000D01*
Y297500D01*
X82781Y297568D01*
X83539Y297771D01*
X84250Y298103D01*
X84893Y298553D01*
X85447Y299107D01*
X85897Y299750D01*
X86229Y300461D01*
X86432Y301219D01*
X86500Y302000D01*
X86432Y302781D01*
X86229Y303539D01*
X85897Y304250D01*
X85447Y304893D01*
X84893Y305447D01*
X84250Y305897D01*
X83539Y306229D01*
X82781Y306432D01*
X82000Y306500D01*
Y322000D01*
X92000D01*
Y306500D01*
X91219Y306432D01*
X90461Y306229D01*
X89750Y305897D01*
X89107Y305447D01*
X88553Y304893D01*
X88103Y304250D01*
X87771Y303539D01*
X87568Y302781D01*
X87500Y302000D01*
X87568Y301219D01*
X87771Y300461D01*
X88103Y299750D01*
X88553Y299107D01*
X89107Y298553D01*
X89750Y298103D01*
X90461Y297771D01*
X91219Y297568D01*
X92000Y297500D01*
Y295000D01*
G37*
G36*
X82000D02*X72000D01*
Y297500D01*
X72781Y297568D01*
X73539Y297771D01*
X74250Y298103D01*
X74893Y298553D01*
X75447Y299107D01*
X75897Y299750D01*
X76229Y300461D01*
X76432Y301219D01*
X76500Y302000D01*
X76432Y302781D01*
X76229Y303539D01*
X75897Y304250D01*
X75447Y304893D01*
X74893Y305447D01*
X74250Y305897D01*
X73539Y306229D01*
X72781Y306432D01*
X72000Y306500D01*
Y322000D01*
X82000D01*
Y306500D01*
X81219Y306432D01*
X80461Y306229D01*
X79750Y305897D01*
X79107Y305447D01*
X78553Y304893D01*
X78103Y304250D01*
X77771Y303539D01*
X77568Y302781D01*
X77500Y302000D01*
X77568Y301219D01*
X77771Y300461D01*
X78103Y299750D01*
X78553Y299107D01*
X79107Y298553D01*
X79750Y298103D01*
X80461Y297771D01*
X81219Y297568D01*
X82000Y297500D01*
Y295000D01*
G37*
G36*
X72000D02*X62000D01*
Y297500D01*
X62781Y297568D01*
X63539Y297771D01*
X64250Y298103D01*
X64893Y298553D01*
X65447Y299107D01*
X65897Y299750D01*
X66229Y300461D01*
X66432Y301219D01*
X66500Y302000D01*
X66432Y302781D01*
X66229Y303539D01*
X65897Y304250D01*
X65447Y304893D01*
X64893Y305447D01*
X64250Y305897D01*
X63539Y306229D01*
X62781Y306432D01*
X62000Y306500D01*
Y322000D01*
X72000D01*
Y306500D01*
X71219Y306432D01*
X70461Y306229D01*
X69750Y305897D01*
X69107Y305447D01*
X68553Y304893D01*
X68103Y304250D01*
X67771Y303539D01*
X67568Y302781D01*
X67500Y302000D01*
X67568Y301219D01*
X67771Y300461D01*
X68103Y299750D01*
X68553Y299107D01*
X69107Y298553D01*
X69750Y298103D01*
X70461Y297771D01*
X71219Y297568D01*
X72000Y297500D01*
Y295000D01*
G37*
G36*
X62000D02*X52000D01*
Y297500D01*
X52781Y297568D01*
X53539Y297771D01*
X54250Y298103D01*
X54893Y298553D01*
X55447Y299107D01*
X55897Y299750D01*
X56229Y300461D01*
X56432Y301219D01*
X56500Y302000D01*
X56432Y302781D01*
X56229Y303539D01*
X55897Y304250D01*
X55447Y304893D01*
X54893Y305447D01*
X54250Y305897D01*
X53539Y306229D01*
X52781Y306432D01*
X52000Y306500D01*
Y322000D01*
X62000D01*
Y306500D01*
X61219Y306432D01*
X60461Y306229D01*
X59750Y305897D01*
X59107Y305447D01*
X58553Y304893D01*
X58103Y304250D01*
X57771Y303539D01*
X57568Y302781D01*
X57500Y302000D01*
X57568Y301219D01*
X57771Y300461D01*
X58103Y299750D01*
X58553Y299107D01*
X59107Y298553D01*
X59750Y298103D01*
X60461Y297771D01*
X61219Y297568D01*
X62000Y297500D01*
Y295000D01*
G37*
G36*
X52000D02*X42000D01*
Y297500D01*
X45000D01*
X45260Y297523D01*
X45513Y297590D01*
X45750Y297701D01*
X45964Y297851D01*
X46149Y298036D01*
X46299Y298250D01*
X46410Y298487D01*
X46477Y298740D01*
X46500Y299000D01*
Y305000D01*
X46477Y305260D01*
X46410Y305513D01*
X46299Y305750D01*
X46149Y305964D01*
X45964Y306149D01*
X45750Y306299D01*
X45513Y306410D01*
X45260Y306477D01*
X45000Y306500D01*
X42000D01*
Y322000D01*
X52000D01*
Y306500D01*
X51219Y306432D01*
X50461Y306229D01*
X49750Y305897D01*
X49107Y305447D01*
X48553Y304893D01*
X48103Y304250D01*
X47771Y303539D01*
X47568Y302781D01*
X47500Y302000D01*
X47568Y301219D01*
X47771Y300461D01*
X48103Y299750D01*
X48553Y299107D01*
X49107Y298553D01*
X49750Y298103D01*
X50461Y297771D01*
X51219Y297568D01*
X52000Y297500D01*
Y295000D01*
G37*
G36*
X42000D02*X35000D01*
Y322000D01*
X42000D01*
Y306500D01*
X39000D01*
X38740Y306477D01*
X38487Y306410D01*
X38250Y306299D01*
X38036Y306149D01*
X37851Y305964D01*
X37701Y305750D01*
X37590Y305513D01*
X37523Y305260D01*
X37500Y305000D01*
Y299000D01*
X37523Y298740D01*
X37590Y298487D01*
X37701Y298250D01*
X37851Y298036D01*
X38036Y297851D01*
X38250Y297701D01*
X38487Y297590D01*
X38740Y297523D01*
X39000Y297500D01*
X42000D01*
Y295000D01*
G37*
G36*
X39000Y417000D02*Y411000D01*
X45000D01*
Y417000D01*
X39000D01*
G37*
G54D13*X52000Y414000D03*
X62000D03*
X72000D03*
X82000D03*
X92000D03*
X102000D03*
X112000D03*
G54D12*G36*
X189000Y385000D02*Y379000D01*
X195000D01*
Y385000D01*
X189000D01*
G37*
G54D13*X192000Y372000D03*
Y362000D03*
Y352000D03*
Y342000D03*
Y332000D03*
G54D12*G36*
X39000Y305000D02*Y299000D01*
X45000D01*
Y305000D01*
X39000D01*
G37*
G54D13*X52000Y302000D03*
X62000D03*
X72000D03*
X82000D03*
X92000D03*
X102000D03*
X112000D03*
G54D14*X174000Y351000D03*
X149000Y340000D03*
G54D16*G54D12*M02*
