M48
INCH
T12C0.020
T16C0.036
T20C0.038
T21C0.091
%
T12
X019300Y039600
X020000Y041500
X019300Y043700
X015600Y042600
X015100Y042600
X014600Y042600
X015900Y043800
X010200Y040500
X010400Y043400
X011000Y043600
X010300Y041900
X015200Y040000
X017300Y040800
X021100Y046300
X020800Y044000
X018900Y047500
X011700Y045200
T16
X023080Y040730
X023080Y041710
X022050Y040730
X023080Y042500
X023080Y043480
X022050Y041710
X022050Y042500
X022050Y043480
T20
X005000Y044000
X006000Y044000
X007000Y044000
X008000Y044000
X007000Y043000
X008000Y043000
X007000Y042000
X007000Y041000
X007000Y040000
X007000Y039000
X006000Y039000
X008000Y042000
X008000Y041000
X008000Y040000
X008000Y039000
X005000Y039000
X008000Y047000
X008000Y046000
X007000Y047000
X007000Y046000
X006000Y047000
X006000Y046000
T21
X021910Y039520
X024150Y039520
X021910Y044690
X024150Y044690
M30
