G04 start of page 4 for group -4063 idx -4063 *
G04 Title: (unknown), componentmask *
G04 Creator: pcb 20091103 *
G04 CreationDate: Mon 14 Mar 2011 05:58:12 AM GMT UTC *
G04 For: gjhurlbu *
G04 Format: Gerber/RS-274X *
G04 PCB-Dimensions: 600000 500000 *
G04 PCB-Coordinate-Origin: lower left *
%MOIN*%
%FSLAX25Y25*%
%LNFRONTMASK*%
%ADD12C,0.0200*%
%ADD23C,0.0660*%
%ADD24C,0.0620*%
%ADD25C,0.1210*%
%ADD26R,0.0187X0.0187*%
%ADD27R,0.0300X0.0300*%
%ADD28R,0.0572X0.0572*%
G54D12*G36*
X46700Y443300D02*Y436700D01*
X53300D01*
Y443300D01*
X46700D01*
G37*
G54D23*X60000Y440000D03*
X70000D03*
X80000D03*
G54D12*G36*
X66700Y433300D02*Y426700D01*
X73300D01*
Y433300D01*
X66700D01*
G37*
G54D23*X80000Y430000D03*
X70000Y420000D03*
Y410000D03*
Y400000D03*
Y390000D03*
X60000D03*
X80000Y420000D03*
Y410000D03*
Y400000D03*
G54D12*G36*
X76700Y393300D02*Y386700D01*
X83300D01*
Y393300D01*
X76700D01*
G37*
G54D23*X50000Y390000D03*
G54D12*G36*
X76700Y473300D02*Y466700D01*
X83300D01*
Y473300D01*
X76700D01*
G37*
G54D23*X80000Y460000D03*
X70000Y470000D03*
Y460000D03*
X60000Y470000D03*
Y460000D03*
G54D24*X230800Y407300D03*
Y417100D03*
X220500Y407300D03*
X230800Y425000D03*
Y434800D03*
X220500Y417100D03*
Y425000D03*
Y434800D03*
G54D25*X219100Y395200D03*
X241500D03*
X219100Y446900D03*
X241500D03*
G54D26*X127378Y389654D02*Y385228D01*
X130527Y389654D02*Y385228D01*
X133677Y389654D02*Y385228D01*
X136826Y389654D02*Y385228D01*
X139976Y389654D02*Y385228D01*
X143126Y389654D02*Y385228D01*
X146275Y389654D02*Y385228D01*
X149425Y389654D02*Y385228D01*
X152574Y389654D02*Y385228D01*
X165174Y454772D02*Y450346D01*
X162024Y454772D02*Y450346D01*
X158874Y454772D02*Y450346D01*
X155725Y454772D02*Y450346D01*
X152575Y454772D02*Y450346D01*
X149426Y454772D02*Y450346D01*
X146276Y454772D02*Y450346D01*
X143126Y454772D02*Y450346D01*
X139977Y454772D02*Y450346D01*
X136827Y454772D02*Y450346D01*
X133678Y454772D02*Y450346D01*
X130528Y454772D02*Y450346D01*
X127378Y454772D02*Y450346D01*
X116228Y443622D02*X120654D01*
X116228Y440473D02*X120654D01*
X116228Y437323D02*X120654D01*
X116228Y434174D02*X120654D01*
X116228Y431024D02*X120654D01*
X116228Y427874D02*X120654D01*
X116228Y424725D02*X120654D01*
X116228Y421575D02*X120654D01*
X116228Y418426D02*X120654D01*
X116228Y415276D02*X120654D01*
X116228Y412126D02*X120654D01*
X116228Y408977D02*X120654D01*
X116228Y405827D02*X120654D01*
X116228Y402678D02*X120654D01*
X116228Y399528D02*X120654D01*
X116228Y396378D02*X120654D01*
X181346Y427874D02*X185772D01*
X181346Y431023D02*X185772D01*
X181346Y415275D02*X185772D01*
X181346Y418425D02*X185772D01*
X181346Y421574D02*X185772D01*
X181346Y424724D02*X185772D01*
X181346Y434173D02*X185772D01*
G54D27*X218000Y457000D02*X224500D01*
X218000Y462000D02*X224500D01*
X218000Y467000D02*X224500D01*
X197500Y472000D02*X204000D01*
X197500Y467000D02*X204000D01*
X197500Y462000D02*X204000D01*
X197500Y457000D02*X204000D01*
X218000Y472000D02*X224500D01*
G54D28*X201914Y447786D02*Y447000D01*
X209000Y447786D02*Y447000D01*
X188000Y465786D02*Y465000D01*
X180914Y465786D02*Y465000D01*
G54D26*X155724Y389654D02*Y385228D01*
X158874Y389654D02*Y385228D01*
X162023Y389654D02*Y385228D01*
X165173Y389654D02*Y385228D01*
X168322Y389654D02*Y385228D01*
X171472Y389654D02*Y385228D01*
X174622Y389654D02*Y385228D01*
X181346Y437322D02*X185772D01*
X181346Y440472D02*X185772D01*
X181346Y443622D02*X185772D01*
X174622Y454772D02*Y450346D01*
X171473Y454772D02*Y450346D01*
X168323Y454772D02*Y450346D01*
X181346Y396378D02*X185772D01*
X181346Y399527D02*X185772D01*
X181346Y402677D02*X185772D01*
X181346Y405826D02*X185772D01*
X181346Y408976D02*X185772D01*
X181346Y412126D02*X185772D01*
G54D28*X193000Y406000D02*Y405214D01*
X200086Y406000D02*Y405214D01*
M02*
