G04 start of page 2 for group 0 idx 0 *
G04 Title: (unknown), component *
G04 Creator: pcb 20091103 *
G04 CreationDate: Mon 14 Mar 2011 03:34:43 AM GMT UTC *
G04 For: gjhurlbu *
G04 Format: Gerber/RS-274X *
G04 PCB-Dimensions: 600000 500000 *
G04 PCB-Coordinate-Origin: lower left *
%MOIN*%
%FSLAX25Y25*%
%LNFRONT*%
%ADD11C,0.0100*%
%ADD12C,0.0560*%
%ADD13C,0.1150*%
%ADD14C,0.0200*%
%ADD15C,0.0600*%
%ADD16C,0.0360*%
%ADD17R,0.0200X0.0200*%
%ADD18C,0.0910*%
%ADD19C,0.0380*%
G54D11*X108245Y437557D02*X112443D01*
X114000Y436000D01*
X112443Y442557D02*X116000Y439000D01*
X111443Y447557D02*X118000Y441000D01*
X108171Y432557D02*X111443D01*
X112000Y432000D01*
X108142Y432586D02*X108171Y432557D01*
X108142D02*Y432586D01*
X112000Y415000D02*X111000Y414000D01*
X112000Y432000D02*Y415000D01*
X114000Y436000D02*Y411000D01*
X112000Y409000D01*
X116000Y439000D02*Y408000D01*
X118000Y441000D02*Y406000D01*
X108500Y409000D02*Y409015D01*
X108515Y409000D01*
X108142Y442557D02*X112443D01*
X108142Y447557D02*X111443D01*
X108142Y437557D02*Y437454D01*
X108245Y437557D01*
X78500Y419000D02*X77500Y420000D01*
Y422500D01*
X80000Y425000D01*
X82500D01*
X81500Y419000D02*X78500D01*
X81142Y432557D02*X78443D01*
X77000Y434000D01*
X112000Y409000D02*X108515D01*
X112000Y404000D02*X116000Y408000D01*
X108500Y404000D02*X112000D01*
X118000Y406000D02*X111000Y399000D01*
X115000Y398000D02*X121000Y404000D01*
Y407000D01*
X110629Y370597D02*X110403D01*
X106000Y375000D01*
X108500Y394000D02*X113000D01*
X115000Y392000D01*
X118000Y388000D02*X113000D01*
X112000Y389000D01*
X109000D01*
X120629Y380597D02*Y385371D01*
X118000Y388000D01*
X111000Y414000D02*X108500D01*
Y419000D02*X100000D01*
Y421000D01*
X104000Y425000D01*
X98000Y401000D02*Y425000D01*
X88000Y409000D02*X91000D01*
X93000Y411000D01*
X88000Y414000D02*X89000D01*
X91000Y416000D01*
X93000Y411000D02*Y425000D01*
X91000Y416000D02*Y422000D01*
X88000Y425000D01*
X88500Y404000D02*X91000D01*
X77000Y437557D02*Y438000D01*
Y437557D02*Y438000D01*
Y450900D02*X75500Y452400D01*
X77000Y434000D02*Y437557D01*
X81142D02*X77000D01*
X81142Y442557D02*X77000D01*
Y438000D02*Y442557D01*
Y448000D02*Y450900D01*
Y447557D02*Y448000D01*
Y443000D02*Y447557D01*
Y442557D02*Y443000D01*
Y442557D02*Y443000D01*
Y447557D02*Y448000D01*
X81142Y447557D02*X77000D01*
X110214Y399000D02*X105714D01*
X88000D02*X96000D01*
X98000Y401000D01*
X91000Y404000D02*X93000Y406000D01*
X88500Y394000D02*X91000D01*
X93000Y392000D01*
Y381000D01*
X90000Y378000D01*
X106000Y375000D02*X85000D01*
X78000Y382000D01*
Y388000D01*
X79000Y389000D01*
X82000D01*
G54D12*X59254Y398422D03*
Y388622D03*
X69554Y406322D03*
Y398422D03*
Y388622D03*
X59254Y416122D03*
Y406322D03*
X69554Y416122D03*
G54D13*X70954Y428222D03*
X48554D03*
X70954Y376522D03*
X48554D03*
G54D14*G36*
X117629Y383597D02*Y377597D01*
X123629D01*
Y383597D01*
X117629D01*
G37*
G54D15*X120629Y370597D03*
X110629Y380597D03*
Y370597D03*
X100629Y380597D03*
Y370597D03*
G54D16*X82500Y425000D03*
X75500Y452400D03*
X104000Y425000D03*
X88000D03*
X93000D03*
X98000D03*
X93000Y406000D03*
X90000Y378000D03*
X115000Y392000D03*
X121000Y407000D03*
X115000Y398000D03*
G54D17*X102500Y399000D02*X109000D01*
X102500Y404000D02*X109000D01*
X102500Y409000D02*X109000D01*
X102500Y414000D02*X109000D01*
X102500Y419000D02*X109000D01*
X101642Y432557D02*X108142D01*
X101642Y437557D02*X108142D01*
X101642Y442557D02*X108142D01*
X101642Y447557D02*X108142D01*
X82000Y404000D02*X88500D01*
X82000Y399000D02*X88500D01*
X82000Y394000D02*X88500D01*
X82000Y389000D02*X88500D01*
X82000Y419000D02*X88500D01*
X82000Y414000D02*X88500D01*
X82000Y409000D02*X88500D01*
X102500Y389000D02*X109000D01*
X102500Y394000D02*X109000D01*
X81142Y447557D02*X87642D01*
X81142Y442557D02*X87642D01*
X81142Y437557D02*X87642D01*
X81142Y432557D02*X87642D01*
G54D16*G54D18*G54D19*G54D14*M02*
