G04 start of page 8 for group -4078 idx -4078 *
G04 Title: (unknown), bottomsilk *
G04 Creator: pcb 20091103 *
G04 CreationDate: Mon 14 Mar 2011 03:34:43 AM GMT UTC *
G04 For: gjhurlbu *
G04 Format: Gerber/RS-274X *
G04 PCB-Dimensions: 600000 500000 *
G04 PCB-Coordinate-Origin: lower left *
%MOIN*%
%FSLAX25Y25*%
%LNBACKSILK*%
%ADD11C,0.0100*%
%ADD30C,0.0080*%
G54D11*X83000Y403000D02*Y390000D01*
Y421000D02*Y408000D01*
Y390000D02*X102000D01*
Y421000D02*Y390000D01*
X83000Y421000D02*X102000D01*
X83000Y403000D02*G75*G03X83000Y408000I0J2500D01*G01*
G54D30*X104638Y405936D02*Y405150D01*
X110148Y405936D02*Y405150D01*
G54D11*X74400Y448500D02*Y440500D01*
X62500Y448500D02*X74400D01*
X62500D02*Y440500D01*
X74400D01*
X87500Y407500D02*X91000D01*
X91500Y407000D01*
Y406000D02*Y407000D01*
Y406000D02*X91000Y405500D01*
X87500D02*X91000D01*
X91500Y402799D02*Y403799D01*
X87500Y403299D02*X91500D01*
X88500Y404299D02*X87500Y403299D01*
X98197Y443837D02*Y445337D01*
X97697Y445837D02*X98197Y445337D01*
X94697Y445837D02*X97697D01*
X94697D02*X94197Y445337D01*
Y443837D02*Y445337D01*
X98197Y441136D02*Y442136D01*
X94197Y441636D02*X98197D01*
X95197Y442636D02*X94197Y441636D01*
X112371Y408393D02*X114371D01*
X114871Y408893D01*
Y409893D01*
X114371Y410393D02*X114871Y409893D01*
X112871Y410393D02*X114371D01*
X112871Y408393D02*Y412393D01*
Y410393D02*X114871Y412393D01*
X116572D02*X117572D01*
X117072Y408393D02*Y412393D01*
X116072Y409393D02*X117072Y408393D01*
X53100Y441500D02*X56600D01*
X53100D02*X52600Y442000D01*
Y443000D01*
X53100Y443500D01*
X56600D01*
X56100Y444701D02*X56600Y445201D01*
Y446701D01*
X56100Y447201D01*
X55100D02*X56100D01*
X52600Y444701D02*X55100Y447201D01*
X52600Y444701D02*Y447201D01*
M02*
