G04 start of page 7 for group -4079 idx -4079 *
G04 Title: (unknown), topsilk *
G04 Creator: pcb 20091103 *
G04 CreationDate: Mon 14 Mar 2011 03:34:43 AM GMT UTC *
G04 For: gjhurlbu *
G04 Format: Gerber/RS-274X *
G04 PCB-Dimensions: 600000 500000 *
G04 PCB-Coordinate-Origin: lower left *
%MOIN*%
%FSLAX25Y25*%
%LNFRONTSILK*%
%ADD11C,0.0100*%
G54D11*X33000Y460000D02*X128000D01*
Y363000D01*
X33000D01*
Y460000D01*
X117000Y414000D02*Y412000D01*
Y413000D02*X121000D01*
Y417201D02*Y415701D01*
X120500Y415201D02*X121000Y415701D01*
X119500Y415201D02*X120500D01*
X119500D02*X119000Y415701D01*
Y416701D02*Y415701D01*
Y416701D02*X119500Y417201D01*
X120000D02*Y415201D01*
X119500Y417201D02*X120000D01*
X119500Y418902D02*X121000D01*
X119500D02*X119000Y419402D01*
Y419902D02*Y419402D01*
Y419902D02*X119500Y420402D01*
X121000D01*
X119500D02*X119000Y420902D01*
Y421402D02*Y420902D01*
Y421402D02*X119500Y421902D01*
X121000D01*
X119000Y418402D02*X119500Y418902D01*
Y423603D02*X122500D01*
X119000Y423103D02*X119500Y423603D01*
X119000Y424103D01*
Y425103D02*Y424103D01*
Y425103D02*X119500Y425603D01*
X120500D01*
X121000Y425103D02*X120500Y425603D01*
X121000Y425103D02*Y424103D01*
X120500Y423603D02*X121000Y424103D01*
Y427304D02*Y426804D01*
X117000Y432305D02*X117500Y432805D01*
X117000Y432305D02*Y430805D01*
X117500Y430305D02*X117000Y430805D01*
X117500Y430305D02*X118500D01*
X119000Y430805D01*
Y432305D02*Y430805D01*
Y432305D02*X119500Y432805D01*
X120500D01*
X121000Y432305D02*X120500Y432805D01*
X121000Y432305D02*Y430805D01*
X120500Y430305D02*X121000Y430805D01*
Y436006D02*Y434506D01*
X120500Y434006D02*X121000Y434506D01*
X119500Y434006D02*X120500D01*
X119500D02*X119000Y434506D01*
Y435506D02*Y434506D01*
Y435506D02*X119500Y436006D01*
X120000D02*Y434006D01*
X119500Y436006D02*X120000D01*
X119500Y437707D02*X121000D01*
X119500D02*X119000Y438207D01*
Y438707D02*Y438207D01*
Y438707D02*X119500Y439207D01*
X121000D01*
X119000Y437207D02*X119500Y437707D01*
X121000Y442408D02*Y440908D01*
Y442408D02*X120500Y442908D01*
X120000Y442408D02*X120500Y442908D01*
X120000Y442408D02*Y440908D01*
X119500Y440408D02*X120000Y440908D01*
X119500Y440408D02*X119000Y440908D01*
Y442408D02*Y440908D01*
Y442408D02*X119500Y442908D01*
X120500Y440408D02*X121000Y440908D01*
X119500Y444109D02*X120500D01*
X119500D02*X119000Y444609D01*
Y445609D02*Y444609D01*
Y445609D02*X119500Y446109D01*
X120500D01*
X121000Y445609D02*X120500Y446109D01*
X121000Y445609D02*Y444609D01*
X120500Y444109D02*X121000Y444609D01*
X119500Y447810D02*X121000D01*
X119500D02*X119000Y448310D01*
Y449310D02*Y448310D01*
Y447310D02*X119500Y447810D01*
X38000Y452000D02*X40000D01*
X40500Y451500D01*
Y450500D01*
X40000Y450000D02*X40500Y450500D01*
X38500Y450000D02*X40000D01*
X38500Y452000D02*Y448000D01*
Y450000D02*X40500Y448000D01*
X42201D02*X43701D01*
X41701Y448500D02*X42201Y448000D01*
X41701Y449500D02*Y448500D01*
Y449500D02*X42201Y450000D01*
X43201D01*
X43701Y449500D01*
X41701Y449000D02*X43701D01*
Y449500D02*Y449000D01*
X44902Y450000D02*Y449000D01*
X45902Y448000D01*
X46902Y449000D01*
Y450000D02*Y449000D01*
X50403Y448000D02*X51403D01*
X50903Y452000D02*Y448000D01*
X49903Y451000D02*X50903Y452000D01*
X52604Y448000D02*X53104D01*
X54305Y448500D02*X54805Y448000D01*
X54305Y451500D02*Y448500D01*
Y451500D02*X54805Y452000D01*
X55805D01*
X56305Y451500D01*
Y448500D01*
X55805Y448000D02*X56305Y448500D01*
X54805Y448000D02*X55805D01*
X54305Y449000D02*X56305Y451000D01*
X36249Y365899D02*X36749Y365399D01*
X36249Y368899D02*X36749Y369399D01*
X36249Y368899D02*Y365899D01*
X38450Y367399D02*X39950D01*
X37950Y366899D02*X38450Y367399D01*
X37950Y366899D02*Y365899D01*
X38450Y365399D01*
X39950D01*
X41151Y369399D02*X41651Y368899D01*
Y365899D01*
X41151Y365399D02*X41651Y365899D01*
X44652Y368899D02*X45152Y369399D01*
X46652D01*
X47152Y368899D01*
Y367899D01*
X44652Y365399D02*X47152Y367899D01*
X44652Y365399D02*X47152D01*
X48353Y365899D02*X48853Y365399D01*
X48353Y368899D02*Y365899D01*
Y368899D02*X48853Y369399D01*
X49853D01*
X50353Y368899D01*
Y365899D01*
X49853Y365399D02*X50353Y365899D01*
X48853Y365399D02*X49853D01*
X48353Y366399D02*X50353Y368399D01*
X52054Y365399D02*X53054D01*
X52554Y369399D02*Y365399D01*
X51554Y368399D02*X52554Y369399D01*
X54755Y365399D02*X55755D01*
X55255Y369399D02*Y365399D01*
X54255Y368399D02*X55255Y369399D01*
X60756D02*X61256Y368899D01*
X59256Y369399D02*X60756D01*
X58756Y368899D02*X59256Y369399D01*
X58756Y368899D02*Y365899D01*
X59256Y365399D01*
X60756D01*
X61256Y365899D01*
Y366899D02*Y365899D01*
X60756Y367399D02*X61256Y366899D01*
X59756Y367399D02*X60756D01*
X63957D02*X64457Y366899D01*
X62957Y367399D02*X63957D01*
X62457Y366899D02*X62957Y367399D01*
X62457Y366899D02*Y365899D01*
X62957Y365399D01*
X64457Y367399D02*Y365899D01*
X64957Y365399D01*
X62957D02*X63957D01*
X64457Y365899D01*
X66158Y367399D02*Y366399D01*
X67158Y365399D01*
X68158Y366399D01*
Y367399D02*Y366399D01*
X69359Y368399D02*Y367899D01*
Y366899D02*Y365399D01*
X70860Y366899D02*Y365399D01*
Y366899D02*X71360Y367399D01*
X71860D01*
X72360Y366899D01*
Y365399D01*
X70360Y367399D02*X70860Y366899D01*
X75361Y369399D02*Y365399D01*
X77861Y369399D02*Y365399D01*
X75361Y367399D02*X77861D01*
X79062D02*Y365899D01*
X79562Y365399D01*
X80562D01*
X81062Y365899D01*
Y367399D02*Y365899D01*
X82763Y366899D02*Y365399D01*
Y366899D02*X83263Y367399D01*
X84263D01*
X82263D02*X82763Y366899D01*
X85464Y369399D02*Y365899D01*
X85964Y365399D01*
X86965Y369399D02*Y365399D01*
Y365899D02*X87465Y365399D01*
X88465D01*
X88965Y365899D01*
Y366899D02*Y365899D01*
X88465Y367399D02*X88965Y366899D01*
X87465Y367399D02*X88465D01*
X86965Y366899D02*X87465Y367399D01*
X90166D02*Y365899D01*
X90666Y365399D01*
X91666D01*
X92166Y365899D01*
Y367399D02*Y365899D01*
X93867Y369399D02*Y365899D01*
X94367Y365399D01*
X93367Y367899D02*X94367D01*
X98000Y421000D02*X111000D01*
X80000D02*X93000D01*
X111000D02*Y387000D01*
X80000D02*X111000D01*
X80000Y421000D02*Y387000D01*
X93000Y421000D02*G75*G03X98000Y421000I2500J0D01*G01*
X79142Y430557D02*X92142D01*
X97142D02*X110142D01*
X79142Y449557D02*Y430557D01*
Y449557D02*X110142D01*
Y430557D01*
X97142D02*G75*G03X92142Y430557I-2500J0D01*G01*
X8025Y430922D02*Y373836D01*
X74954D01*
Y430922D02*Y373836D01*
X8025Y430922D02*X74954D01*
X95629Y385597D02*X125629D01*
X95629D02*Y365597D01*
X125629D01*
Y385597D02*Y365597D01*
X115629Y385597D02*Y375597D01*
X125629D01*
X92317Y411566D02*Y408066D01*
X92817Y407566D01*
X93817D01*
X94317Y408066D01*
Y411566D02*Y408066D01*
X95518Y411066D02*X96018Y411566D01*
X97018D01*
X97518Y411066D01*
Y408066D01*
X97018Y407566D02*X97518Y408066D01*
X96018Y407566D02*X97018D01*
X95518Y408066D02*X96018Y407566D01*
Y409566D02*X97518D01*
X96642Y438557D02*Y435057D01*
Y438557D02*X96142Y439057D01*
X95142D02*X96142D01*
X95142D02*X94642Y438557D01*
Y435057D01*
X93441Y437057D02*X91441Y435057D01*
X90941Y437057D02*X93441D01*
X91441Y439057D02*Y435057D01*
X41954Y411422D02*Y409922D01*
X42454Y411922D02*X41954Y411422D01*
X42454Y411922D02*X45454D01*
X45954Y411422D01*
Y409922D01*
X42454Y408721D02*X45454D01*
X45954Y408221D01*
Y407221D01*
X45454Y406721D01*
X42454D02*X45454D01*
X41954Y407221D02*X42454Y406721D01*
X41954Y408221D02*Y407221D01*
X42454Y408721D02*X41954Y408221D01*
Y405520D02*X45954D01*
X45454D02*X45954D01*
X45454D02*X42954Y403020D01*
X41954D02*X45954D01*
X41954Y401819D02*X45954D01*
X45454D02*X45954D01*
X45454D02*X42954Y399319D01*
X41954D02*X45954D01*
X41954Y397618D02*Y396618D01*
Y397118D02*X45954D01*
X44954Y398118D02*X45954Y397118D01*
X123875Y389857D02*Y388357D01*
X123375Y387857D02*X123875Y388357D01*
X120375Y387857D02*X123375D01*
X120375D02*X119875Y388357D01*
Y389857D02*Y388357D01*
X120375Y391058D02*X123375D01*
X120375D02*X119875Y391558D01*
Y392558D02*Y391558D01*
Y392558D02*X120375Y393058D01*
X123375D01*
X123875Y392558D02*X123375Y393058D01*
X123875Y392558D02*Y391558D01*
X123375Y391058D02*X123875Y391558D01*
X119875Y394259D02*X123875D01*
X119875D02*X120375D01*
X122875Y396759D01*
X119875D02*X123875D01*
X119875Y397960D02*X123875D01*
X119875D02*X120375D01*
X122875Y400460D01*
X119875D02*X123875D01*
X120375Y401661D02*X119875Y402161D01*
Y403661D02*Y402161D01*
Y403661D02*X120375Y404161D01*
X121375D01*
X123875Y401661D02*X121375Y404161D01*
X123875D02*Y401661D01*
M02*
