M48
INCH
T12C0.020
T16C0.038
%
T12
X017400Y035100
X014900Y034000
T16
X004200Y041400
X005200Y041400
X006200Y041400
X007200Y041400
X008200Y041400
X009200Y041400
X010200Y041400
X011200Y041400
X019200Y038200
X019200Y037200
X019200Y036200
X019200Y035200
X019200Y034200
X019200Y033200
X004200Y030200
X005200Y030200
X006200Y030200
X007200Y030200
X008200Y030200
X009200Y030200
X010200Y030200
X011200Y030200
M30
