M48
INCH
T14C0.020
T16C0.036
T18C0.091
T19C0.038
%
T14
X008250Y042500
X007550Y045240
X010400Y042500
X008800Y042500
X009300Y042500
X009800Y042500
X009300Y040600
X009000Y037800
X011500Y039200
X012100Y040700
X011500Y039800
T16
X005925Y039842
X005925Y038862
X006955Y040632
X006955Y039842
X006955Y038862
X005925Y041612
X005925Y040632
X006955Y041612
T19
X012062Y038059
X012062Y037059
X011062Y038059
X011062Y037059
X010062Y038059
X010062Y037059
T18
X007095Y042822
X004855Y042822
X007095Y037652
X004855Y037652
M30
