G04 start of page 3 for group 1 idx 1 *
G04 Title: (unknown), solder *
G04 Creator: pcb 20091103 *
G04 CreationDate: Mon 11 Apr 2011 12:44:06 AM GMT UTC *
G04 For: gjhurlbu *
G04 Format: Gerber/RS-274X *
G04 PCB-Dimensions: 600000 500000 *
G04 PCB-Coordinate-Origin: lower left *
%MOIN*%
%FSLAX25Y25*%
%LNBACK*%
%ADD11C,0.0100*%
%ADD12C,0.0200*%
%ADD13C,0.0600*%
%ADD14C,0.0360*%
%ADD18C,0.0380*%
G54D12*G36*
X67387Y473500D02*X68183D01*
X68107Y473447D01*
X67553Y472893D01*
X67387Y472656D01*
Y473500D01*
G37*
G36*
X157613Y489000D02*X165000D01*
Y422000D01*
X157613D01*
Y454860D01*
X157708Y454882D01*
X157829Y454933D01*
X157938Y455005D01*
X158034Y455094D01*
X158113Y455198D01*
X158172Y455315D01*
X158314Y455722D01*
X158417Y456142D01*
X158479Y456569D01*
X158500Y457000D01*
X158479Y457432D01*
X158417Y457859D01*
X158314Y458279D01*
X158172Y458686D01*
X158171D01*
X158112Y458802D01*
X158033Y458907D01*
X157937Y458996D01*
X157828Y459067D01*
X157707Y459118D01*
X157613Y459139D01*
Y464344D01*
X157897Y464750D01*
X158229Y465461D01*
X158432Y466219D01*
X158500Y467000D01*
X158432Y467781D01*
X158229Y468539D01*
X157897Y469250D01*
X157613Y469656D01*
Y474344D01*
X157897Y474750D01*
X158229Y475461D01*
X158432Y476219D01*
X158500Y477000D01*
X158432Y477781D01*
X158229Y478539D01*
X157897Y479250D01*
X157613Y479656D01*
Y489000D01*
G37*
G36*
Y469656D02*X157447Y469893D01*
X156893Y470447D01*
X156250Y470897D01*
X155539Y471229D01*
X154781Y471432D01*
X154000Y471500D01*
Y472500D01*
X154781Y472568D01*
X155539Y472771D01*
X156250Y473103D01*
X156893Y473553D01*
X157447Y474107D01*
X157613Y474344D01*
Y469656D01*
G37*
G36*
Y422000D02*X154000D01*
Y452500D01*
X154431Y452521D01*
X154858Y452583D01*
X155278Y452686D01*
X155685Y452828D01*
Y452829D01*
X155801Y452888D01*
X155906Y452967D01*
X155995Y453063D01*
X156066Y453172D01*
X156117Y453293D01*
X156146Y453420D01*
X156153Y453550D01*
X156137Y453680D01*
X156099Y453805D01*
X156040Y453921D01*
X155961Y454026D01*
X155865Y454115D01*
X155756Y454186D01*
X155635Y454237D01*
X155508Y454266D01*
X155378Y454273D01*
X155248Y454257D01*
X155123Y454219D01*
X154852Y454124D01*
X154572Y454056D01*
X154287Y454014D01*
X154000Y454000D01*
Y460000D01*
X154287Y459987D01*
X154572Y459945D01*
X154852Y459877D01*
X155123Y459782D01*
Y459781D01*
X155248Y459743D01*
X155378Y459727D01*
X155509Y459734D01*
X155636Y459763D01*
X155757Y459814D01*
X155866Y459886D01*
X155962Y459975D01*
X156041Y460079D01*
X156100Y460196D01*
X156138Y460321D01*
X156154Y460451D01*
X156147Y460582D01*
X156118Y460709D01*
X156067Y460830D01*
X155995Y460939D01*
X155906Y461035D01*
X155802Y461114D01*
X155685Y461173D01*
X155278Y461315D01*
X154858Y461418D01*
X154431Y461480D01*
X154000Y461500D01*
Y462500D01*
X154781Y462568D01*
X155539Y462771D01*
X156250Y463103D01*
X156893Y463553D01*
X157447Y464107D01*
X157613Y464344D01*
Y459139D01*
X157580Y459147D01*
X157450Y459154D01*
X157320Y459138D01*
X157195Y459100D01*
X157079Y459041D01*
X156974Y458962D01*
X156885Y458866D01*
X156814Y458757D01*
X156763Y458636D01*
X156734Y458509D01*
X156727Y458379D01*
X156743Y458249D01*
X156781Y458124D01*
X156876Y457853D01*
X156944Y457573D01*
X156986Y457288D01*
X157000Y457000D01*
X156986Y456713D01*
X156944Y456428D01*
X156876Y456148D01*
X156781Y455877D01*
X156780D01*
X156742Y455752D01*
X156726Y455622D01*
X156733Y455491D01*
X156762Y455364D01*
X156813Y455243D01*
X156885Y455134D01*
X156974Y455038D01*
X157078Y454959D01*
X157195Y454900D01*
X157320Y454862D01*
X157450Y454846D01*
X157581Y454853D01*
X157613Y454860D01*
Y422000D01*
G37*
G36*
X154000Y489000D02*X157613D01*
Y479656D01*
X157447Y479893D01*
X156893Y480447D01*
X156250Y480897D01*
X155539Y481229D01*
X154781Y481432D01*
X154000Y481500D01*
Y489000D01*
G37*
G36*
Y422000D02*X150387D01*
Y454861D01*
X150419Y454854D01*
X150549Y454847D01*
X150679Y454863D01*
X150804Y454901D01*
X150920Y454960D01*
X151025Y455039D01*
X151114Y455135D01*
X151185Y455244D01*
X151236Y455365D01*
X151265Y455492D01*
X151272Y455622D01*
X151256Y455752D01*
X151218Y455877D01*
X151123Y456148D01*
X151055Y456428D01*
X151013Y456713D01*
X151000Y457001D01*
X151013Y457288D01*
X151055Y457573D01*
X151123Y457853D01*
X151218Y458124D01*
X151219D01*
X151257Y458249D01*
X151273Y458379D01*
X151266Y458510D01*
X151237Y458637D01*
X151186Y458758D01*
X151114Y458867D01*
X151025Y458963D01*
X150921Y459042D01*
X150804Y459101D01*
X150679Y459139D01*
X150549Y459155D01*
X150418Y459148D01*
X150387Y459141D01*
Y464344D01*
X150553Y464107D01*
X151107Y463553D01*
X151750Y463103D01*
X152461Y462771D01*
X153219Y462568D01*
X154000Y462500D01*
Y461500D01*
X153568Y461480D01*
X153141Y461418D01*
X152721Y461315D01*
X152314Y461173D01*
Y461172D01*
X152198Y461113D01*
X152093Y461034D01*
X152004Y460938D01*
X151933Y460829D01*
X151882Y460708D01*
X151853Y460581D01*
X151846Y460451D01*
X151862Y460321D01*
X151900Y460196D01*
X151959Y460080D01*
X152038Y459975D01*
X152134Y459886D01*
X152243Y459815D01*
X152364Y459764D01*
X152491Y459735D01*
X152621Y459728D01*
X152751Y459744D01*
X152876Y459782D01*
X153147Y459877D01*
X153427Y459945D01*
X153712Y459987D01*
X154000Y460000D01*
Y454000D01*
X153999D01*
X153712Y454014D01*
X153427Y454056D01*
X153147Y454124D01*
X152876Y454219D01*
Y454220D01*
X152751Y454258D01*
X152621Y454274D01*
X152490Y454267D01*
X152363Y454238D01*
X152242Y454187D01*
X152133Y454115D01*
X152037Y454026D01*
X151958Y453922D01*
X151899Y453805D01*
X151861Y453680D01*
X151845Y453550D01*
X151852Y453419D01*
X151881Y453292D01*
X151932Y453171D01*
X152004Y453062D01*
X152093Y452966D01*
X152197Y452887D01*
X152314Y452828D01*
X152721Y452686D01*
X153141Y452583D01*
X153568Y452521D01*
X153999Y452500D01*
X154000D01*
Y422000D01*
G37*
G36*
X150387D02*X144000D01*
Y452500D01*
X144781Y452568D01*
X145539Y452771D01*
X146250Y453103D01*
X146893Y453553D01*
X147447Y454107D01*
X147897Y454750D01*
X148229Y455461D01*
X148432Y456219D01*
X148500Y457000D01*
X148432Y457781D01*
X148229Y458539D01*
X147897Y459250D01*
X147447Y459893D01*
X146893Y460447D01*
X146250Y460897D01*
X145539Y461229D01*
X144781Y461432D01*
X144000Y461500D01*
Y462500D01*
X144781Y462568D01*
X145539Y462771D01*
X146250Y463103D01*
X146893Y463553D01*
X147447Y464107D01*
X147897Y464750D01*
X148229Y465461D01*
X148432Y466219D01*
X148500Y467000D01*
X148432Y467781D01*
X148229Y468539D01*
X147897Y469250D01*
X147447Y469893D01*
X146893Y470447D01*
X146817Y470500D01*
X148379D01*
X149952Y468927D01*
X149771Y468539D01*
X149568Y467781D01*
X149500Y467000D01*
X149568Y466219D01*
X149771Y465461D01*
X150103Y464750D01*
X150387Y464344D01*
Y459141D01*
X150291Y459119D01*
X150170Y459068D01*
X150061Y458996D01*
X149965Y458907D01*
X149886Y458803D01*
X149827Y458686D01*
X149685Y458279D01*
X149582Y457859D01*
X149520Y457432D01*
X149500Y457001D01*
X149520Y456569D01*
X149582Y456142D01*
X149685Y455722D01*
X149827Y455315D01*
X149828D01*
X149887Y455199D01*
X149966Y455094D01*
X150062Y455005D01*
X150171Y454934D01*
X150292Y454883D01*
X150387Y454861D01*
Y422000D01*
G37*
G36*
X144000Y489000D02*X154000D01*
Y481500D01*
X153219Y481432D01*
X152461Y481229D01*
X151750Y480897D01*
X151107Y480447D01*
X150553Y479893D01*
X150103Y479250D01*
X149771Y478539D01*
X149568Y477781D01*
X149500Y477000D01*
X149568Y476219D01*
X149771Y475461D01*
X150103Y474750D01*
X150553Y474107D01*
X151107Y473553D01*
X151750Y473103D01*
X152461Y472771D01*
X153219Y472568D01*
X154000Y472500D01*
Y471500D01*
X153219Y471432D01*
X152461Y471229D01*
X152073Y471048D01*
X150061Y473060D01*
X150011Y473102D01*
X149964Y473149D01*
X149909Y473187D01*
X149861Y473228D01*
X149806Y473260D01*
X149750Y473299D01*
X149686Y473329D01*
X149634Y473359D01*
X149580Y473379D01*
X149513Y473410D01*
X149441Y473429D01*
X149389Y473448D01*
X149329Y473459D01*
X149260Y473477D01*
X149194Y473483D01*
X149131Y473494D01*
X149068D01*
X149000Y473500D01*
X148413D01*
X148477Y473740D01*
X148500Y474000D01*
Y480000D01*
X148477Y480260D01*
X148410Y480513D01*
X148299Y480750D01*
X148149Y480964D01*
X147964Y481149D01*
X147750Y481299D01*
X147513Y481410D01*
X147260Y481477D01*
X147000Y481500D01*
X144000D01*
Y489000D01*
G37*
G36*
Y422000D02*X128000D01*
Y430500D01*
X128781Y430568D01*
X129539Y430771D01*
X130250Y431103D01*
X130893Y431553D01*
X131447Y432107D01*
X131897Y432750D01*
X132229Y433461D01*
X132432Y434219D01*
X132500Y435000D01*
X132432Y435781D01*
X132229Y436539D01*
X131897Y437250D01*
X131447Y437893D01*
X130893Y438447D01*
X130250Y438897D01*
X129539Y439229D01*
X128781Y439432D01*
X128000Y439500D01*
Y440500D01*
X131000D01*
X131260Y440523D01*
X131513Y440590D01*
X131750Y440701D01*
X131964Y440851D01*
X132149Y441036D01*
X132299Y441250D01*
X132410Y441487D01*
X132477Y441740D01*
X132500Y442000D01*
Y448000D01*
X132477Y448260D01*
X132410Y448513D01*
X132299Y448750D01*
X132149Y448964D01*
X131964Y449149D01*
X131750Y449299D01*
X131513Y449410D01*
X131260Y449477D01*
X131000Y449500D01*
X128000D01*
Y468500D01*
X133379D01*
X135940Y465939D01*
X135990Y465897D01*
X136036Y465851D01*
X136089Y465814D01*
X136140Y465771D01*
X136197Y465738D01*
X136250Y465701D01*
X136310Y465673D01*
X136367Y465640D01*
X136425Y465619D01*
X136487Y465590D01*
X136555Y465572D01*
X136613Y465551D01*
X136676Y465540D01*
X136740Y465523D01*
X136807Y465517D01*
X136870Y465506D01*
X136932D01*
X137000Y465500D01*
X139761D01*
X139771Y465461D01*
X140103Y464750D01*
X140553Y464107D01*
X141107Y463553D01*
X141750Y463103D01*
X142461Y462771D01*
X143219Y462568D01*
X144000Y462500D01*
Y461500D01*
X143219Y461432D01*
X142461Y461229D01*
X141750Y460897D01*
X141107Y460447D01*
X140553Y459893D01*
X140103Y459250D01*
X139771Y458539D01*
X139568Y457781D01*
X139500Y457000D01*
X139568Y456219D01*
X139771Y455461D01*
X140103Y454750D01*
X140553Y454107D01*
X141107Y453553D01*
X141750Y453103D01*
X142461Y452771D01*
X143219Y452568D01*
X144000Y452500D01*
Y422000D01*
G37*
G36*
X128000Y439500D02*X127219Y439432D01*
X126461Y439229D01*
X125750Y438897D01*
X125107Y438447D01*
X124553Y437893D01*
X124103Y437250D01*
X123771Y436539D01*
X123761Y436500D01*
X122239D01*
X122229Y436539D01*
X121897Y437250D01*
X121447Y437893D01*
X120893Y438447D01*
X120250Y438897D01*
X119539Y439229D01*
X118781Y439432D01*
X118000Y439500D01*
Y440500D01*
X121000D01*
X121260Y440523D01*
X121513Y440590D01*
X121750Y440701D01*
X121964Y440851D01*
X122149Y441036D01*
X122299Y441250D01*
X122410Y441487D01*
X122477Y441740D01*
X122500Y442000D01*
Y448000D01*
X122477Y448260D01*
X122410Y448513D01*
X122299Y448750D01*
X122149Y448964D01*
X121964Y449149D01*
X121750Y449299D01*
X121513Y449410D01*
X121260Y449477D01*
X121000Y449500D01*
X118000D01*
Y468500D01*
X128000D01*
Y449500D01*
X125000D01*
X124740Y449477D01*
X124487Y449410D01*
X124250Y449299D01*
X124036Y449149D01*
X123851Y448964D01*
X123701Y448750D01*
X123590Y448513D01*
X123523Y448260D01*
X123500Y448000D01*
Y442000D01*
X123523Y441740D01*
X123590Y441487D01*
X123701Y441250D01*
X123851Y441036D01*
X124036Y440851D01*
X124250Y440701D01*
X124487Y440590D01*
X124740Y440523D01*
X125000Y440500D01*
X128000D01*
Y439500D01*
G37*
G36*
X118000D02*X117219Y439432D01*
X116461Y439229D01*
X115750Y438897D01*
X115107Y438447D01*
X114553Y437893D01*
X114103Y437250D01*
X113771Y436539D01*
X113761Y436500D01*
X74613D01*
Y437860D01*
X74708Y437882D01*
X74829Y437933D01*
X74938Y438005D01*
X75034Y438094D01*
X75113Y438198D01*
X75172Y438315D01*
X75314Y438722D01*
X75417Y439142D01*
X75479Y439569D01*
X75500Y440000D01*
X75479Y440432D01*
X75417Y440859D01*
X75314Y441279D01*
X75172Y441686D01*
X75171D01*
X75112Y441802D01*
X75033Y441907D01*
X74937Y441996D01*
X74828Y442067D01*
X74707Y442118D01*
X74613Y442139D01*
Y447344D01*
X74897Y447750D01*
X75229Y448461D01*
X75432Y449219D01*
X75500Y450000D01*
X75432Y450781D01*
X75229Y451539D01*
X74897Y452250D01*
X74613Y452656D01*
Y457344D01*
X74897Y457750D01*
X75229Y458461D01*
X75432Y459219D01*
X75500Y460000D01*
X75432Y460781D01*
X75229Y461539D01*
X74897Y462250D01*
X74613Y462656D01*
Y467344D01*
X74897Y467750D01*
X75229Y468461D01*
X75239Y468500D01*
X118000D01*
Y449500D01*
X115000D01*
X114740Y449477D01*
X114487Y449410D01*
X114250Y449299D01*
X114036Y449149D01*
X113851Y448964D01*
X113701Y448750D01*
X113590Y448513D01*
X113523Y448260D01*
X113500Y448000D01*
Y442000D01*
X113523Y441740D01*
X113590Y441487D01*
X113701Y441250D01*
X113851Y441036D01*
X114036Y440851D01*
X114250Y440701D01*
X114487Y440590D01*
X114740Y440523D01*
X115000Y440500D01*
X118000D01*
Y439500D01*
G37*
G36*
X128000Y422000D02*X101231D01*
Y427720D01*
X101248Y427721D01*
X101332Y427744D01*
X101411Y427781D01*
X101483Y427831D01*
X101544Y427893D01*
X101594Y427964D01*
X101631Y428043D01*
X101704Y428276D01*
X101757Y428514D01*
X101789Y428756D01*
X101800Y429000D01*
X101789Y429245D01*
X101757Y429487D01*
X101704Y429725D01*
X101631Y429958D01*
X101594Y430037D01*
X101544Y430108D01*
X101483Y430170D01*
X101411Y430220D01*
X101332Y430257D01*
X101248Y430280D01*
X101231Y430281D01*
Y433500D01*
X113761D01*
X113771Y433461D01*
X114103Y432750D01*
X114553Y432107D01*
X115107Y431553D01*
X115750Y431103D01*
X116461Y430771D01*
X117219Y430568D01*
X118000Y430500D01*
X118781Y430568D01*
X119539Y430771D01*
X120250Y431103D01*
X120893Y431553D01*
X121447Y432107D01*
X121897Y432750D01*
X122229Y433461D01*
X122239Y433500D01*
X123761D01*
X123771Y433461D01*
X124103Y432750D01*
X124553Y432107D01*
X125107Y431553D01*
X125750Y431103D01*
X126461Y430771D01*
X127219Y430568D01*
X128000Y430500D01*
Y422000D01*
G37*
G36*
X101231D02*X99000D01*
Y426200D01*
X99244Y426211D01*
X99486Y426243D01*
X99724Y426296D01*
X99957Y426369D01*
X100036Y426406D01*
X100107Y426456D01*
X100169Y426517D01*
X100219Y426589D01*
X100256Y426668D01*
X100279Y426752D01*
X100286Y426839D01*
X100279Y426926D01*
X100256Y427010D01*
X100219Y427089D01*
X100169Y427160D01*
X100108Y427222D01*
X100036Y427272D01*
X99957Y427309D01*
X99873Y427332D01*
X99786Y427339D01*
X99699Y427332D01*
X99615Y427309D01*
X99465Y427262D01*
X99312Y427228D01*
X99156Y427207D01*
X99000Y427200D01*
Y430800D01*
X99156Y430794D01*
X99312Y430773D01*
X99465Y430739D01*
X99615Y430692D01*
X99699Y430669D01*
X99786Y430662D01*
X99873Y430669D01*
X99957Y430692D01*
X100036Y430729D01*
X100108Y430779D01*
X100169Y430841D01*
X100219Y430912D01*
X100256Y430991D01*
X100279Y431075D01*
X100286Y431162D01*
X100279Y431249D01*
X100256Y431333D01*
X100219Y431412D01*
X100169Y431484D01*
X100107Y431545D01*
X100036Y431595D01*
X99957Y431632D01*
X99724Y431705D01*
X99486Y431758D01*
X99244Y431790D01*
X99000Y431800D01*
Y433500D01*
X101231D01*
Y430281D01*
X101161Y430287D01*
X101074Y430280D01*
X100990Y430257D01*
X100911Y430220D01*
X100840Y430170D01*
X100778Y430109D01*
X100728Y430037D01*
X100691Y429958D01*
X100668Y429874D01*
X100661Y429787D01*
X100668Y429700D01*
X100691Y429616D01*
X100738Y429466D01*
X100772Y429313D01*
X100793Y429157D01*
X100800Y429000D01*
X100793Y428844D01*
X100772Y428688D01*
X100738Y428535D01*
X100691Y428385D01*
X100668Y428301D01*
X100661Y428214D01*
X100668Y428127D01*
X100691Y428043D01*
X100728Y427964D01*
X100778Y427892D01*
X100840Y427831D01*
X100911Y427781D01*
X100990Y427744D01*
X101074Y427721D01*
X101161Y427714D01*
X101231Y427720D01*
Y422000D01*
G37*
G36*
X99000D02*X96769D01*
Y427720D01*
X96838Y427714D01*
X96925Y427721D01*
X97009Y427744D01*
X97088Y427781D01*
X97159Y427831D01*
X97221Y427892D01*
X97271Y427964D01*
X97308Y428043D01*
X97331Y428127D01*
X97338Y428214D01*
X97331Y428301D01*
X97308Y428385D01*
X97261Y428535D01*
X97227Y428688D01*
X97206Y428844D01*
X97200Y429001D01*
X97206Y429157D01*
X97227Y429313D01*
X97261Y429466D01*
X97308Y429616D01*
X97331Y429700D01*
X97338Y429787D01*
X97331Y429874D01*
X97308Y429958D01*
X97271Y430037D01*
X97221Y430109D01*
X97159Y430170D01*
X97088Y430220D01*
X97009Y430257D01*
X96925Y430280D01*
X96838Y430287D01*
X96769Y430281D01*
Y433500D01*
X99000D01*
Y431800D01*
X98755Y431790D01*
X98513Y431758D01*
X98275Y431705D01*
X98042Y431632D01*
X97963Y431595D01*
X97892Y431545D01*
X97830Y431484D01*
X97780Y431412D01*
X97743Y431333D01*
X97720Y431249D01*
X97713Y431162D01*
X97720Y431075D01*
X97743Y430991D01*
X97780Y430912D01*
X97830Y430841D01*
X97891Y430779D01*
X97963Y430729D01*
X98042Y430692D01*
X98126Y430669D01*
X98213Y430662D01*
X98300Y430669D01*
X98384Y430692D01*
X98534Y430739D01*
X98687Y430773D01*
X98843Y430794D01*
X99000Y430800D01*
Y427200D01*
X98999D01*
X98843Y427207D01*
X98687Y427228D01*
X98534Y427262D01*
X98384Y427309D01*
X98300Y427332D01*
X98213Y427339D01*
X98126Y427332D01*
X98042Y427309D01*
X97963Y427272D01*
X97891Y427222D01*
X97830Y427160D01*
X97780Y427089D01*
X97743Y427010D01*
X97720Y426926D01*
X97713Y426839D01*
X97720Y426752D01*
X97743Y426668D01*
X97780Y426589D01*
X97830Y426517D01*
X97892Y426456D01*
X97963Y426406D01*
X98042Y426369D01*
X98275Y426296D01*
X98513Y426243D01*
X98755Y426211D01*
X98999Y426200D01*
X99000D01*
Y422000D01*
G37*
G36*
X96769D02*X74613D01*
Y427860D01*
X74708Y427882D01*
X74829Y427933D01*
X74938Y428005D01*
X75034Y428094D01*
X75113Y428198D01*
X75172Y428315D01*
X75314Y428722D01*
X75417Y429142D01*
X75479Y429569D01*
X75500Y430000D01*
X75479Y430432D01*
X75417Y430859D01*
X75314Y431279D01*
X75172Y431686D01*
X75171D01*
X75112Y431802D01*
X75033Y431907D01*
X74937Y431996D01*
X74828Y432067D01*
X74707Y432118D01*
X74613Y432139D01*
Y433500D01*
X96769D01*
Y430281D01*
X96751Y430280D01*
X96667Y430257D01*
X96588Y430220D01*
X96516Y430170D01*
X96455Y430108D01*
X96405Y430037D01*
X96368Y429958D01*
X96295Y429725D01*
X96242Y429487D01*
X96210Y429245D01*
X96200Y429001D01*
X96210Y428756D01*
X96242Y428514D01*
X96295Y428276D01*
X96368Y428043D01*
X96405Y427964D01*
X96455Y427893D01*
X96516Y427831D01*
X96588Y427781D01*
X96667Y427744D01*
X96751Y427721D01*
X96769Y427720D01*
Y422000D01*
G37*
G36*
X74613Y489000D02*X144000D01*
Y481500D01*
X141621D01*
X137061Y486060D01*
X137011Y486102D01*
X136964Y486149D01*
X136909Y486187D01*
X136861Y486228D01*
X136806Y486260D01*
X136750Y486299D01*
X136686Y486329D01*
X136634Y486359D01*
X136580Y486379D01*
X136513Y486410D01*
X136441Y486429D01*
X136389Y486448D01*
X136329Y486459D01*
X136260Y486477D01*
X136194Y486483D01*
X136131Y486494D01*
X136068D01*
X136000Y486500D01*
X74613D01*
Y489000D01*
G37*
G36*
Y462656D02*X74447Y462893D01*
X73893Y463447D01*
X73250Y463897D01*
X72539Y464229D01*
X71781Y464432D01*
X71000Y464500D01*
X70219Y464432D01*
X69461Y464229D01*
X68750Y463897D01*
X68107Y463447D01*
X67553Y462893D01*
X67387Y462656D01*
Y467344D01*
X67553Y467107D01*
X68107Y466553D01*
X68750Y466103D01*
X69461Y465771D01*
X70219Y465568D01*
X71000Y465500D01*
X71781Y465568D01*
X72539Y465771D01*
X73250Y466103D01*
X73893Y466553D01*
X74447Y467107D01*
X74613Y467344D01*
Y462656D01*
G37*
G36*
Y452656D02*X74447Y452893D01*
X73893Y453447D01*
X73250Y453897D01*
X72539Y454229D01*
X71781Y454432D01*
X71000Y454500D01*
X70219Y454432D01*
X69461Y454229D01*
X68750Y453897D01*
X68107Y453447D01*
X67553Y452893D01*
X67387Y452656D01*
Y457344D01*
X67553Y457107D01*
X68107Y456553D01*
X68750Y456103D01*
X69461Y455771D01*
X70219Y455568D01*
X71000Y455500D01*
X71781Y455568D01*
X72539Y455771D01*
X73250Y456103D01*
X73893Y456553D01*
X74447Y457107D01*
X74613Y457344D01*
Y452656D01*
G37*
G36*
Y436500D02*X73150D01*
X73153Y436550D01*
X73137Y436680D01*
X73099Y436805D01*
X73040Y436921D01*
X72961Y437026D01*
X72865Y437115D01*
X72756Y437186D01*
X72635Y437237D01*
X72508Y437266D01*
X72378Y437273D01*
X72248Y437257D01*
X72123Y437219D01*
X71852Y437124D01*
X71572Y437056D01*
X71287Y437014D01*
X71000Y437000D01*
Y443000D01*
X71287Y442987D01*
X71572Y442945D01*
X71852Y442877D01*
X72123Y442782D01*
Y442781D01*
X72248Y442743D01*
X72378Y442727D01*
X72509Y442734D01*
X72636Y442763D01*
X72757Y442814D01*
X72866Y442886D01*
X72962Y442975D01*
X73041Y443079D01*
X73100Y443196D01*
X73138Y443321D01*
X73154Y443451D01*
X73147Y443582D01*
X73118Y443709D01*
X73067Y443830D01*
X72995Y443939D01*
X72906Y444035D01*
X72802Y444114D01*
X72685Y444173D01*
X72278Y444315D01*
X71858Y444418D01*
X71431Y444480D01*
X71000Y444500D01*
Y445500D01*
X71781Y445568D01*
X72539Y445771D01*
X73250Y446103D01*
X73893Y446553D01*
X74447Y447107D01*
X74613Y447344D01*
Y442139D01*
X74580Y442147D01*
X74450Y442154D01*
X74320Y442138D01*
X74195Y442100D01*
X74079Y442041D01*
X73974Y441962D01*
X73885Y441866D01*
X73814Y441757D01*
X73763Y441636D01*
X73734Y441509D01*
X73727Y441379D01*
X73743Y441249D01*
X73781Y441124D01*
X73876Y440853D01*
X73944Y440573D01*
X73986Y440288D01*
X74000Y440000D01*
X73986Y439713D01*
X73944Y439428D01*
X73876Y439148D01*
X73781Y438877D01*
X73780D01*
X73742Y438752D01*
X73726Y438622D01*
X73733Y438491D01*
X73762Y438364D01*
X73813Y438243D01*
X73885Y438134D01*
X73974Y438038D01*
X74078Y437959D01*
X74195Y437900D01*
X74320Y437862D01*
X74450Y437846D01*
X74581Y437853D01*
X74613Y437860D01*
Y436500D01*
G37*
G36*
X71000Y437000D02*X70999D01*
X70712Y437014D01*
X70427Y437056D01*
X70147Y437124D01*
X69876Y437219D01*
Y437220D01*
X69751Y437258D01*
X69621Y437274D01*
X69490Y437267D01*
X69363Y437238D01*
X69242Y437187D01*
X69133Y437115D01*
X69037Y437026D01*
X68958Y436922D01*
X68899Y436805D01*
X68861Y436680D01*
X68845Y436550D01*
X68848Y436500D01*
X67387D01*
Y437861D01*
X67419Y437854D01*
X67549Y437847D01*
X67679Y437863D01*
X67804Y437901D01*
X67920Y437960D01*
X68025Y438039D01*
X68114Y438135D01*
X68185Y438244D01*
X68236Y438365D01*
X68265Y438492D01*
X68272Y438622D01*
X68256Y438752D01*
X68218Y438877D01*
X68123Y439148D01*
X68055Y439428D01*
X68013Y439713D01*
X68000Y440001D01*
X68013Y440288D01*
X68055Y440573D01*
X68123Y440853D01*
X68218Y441124D01*
X68219D01*
X68257Y441249D01*
X68273Y441379D01*
X68266Y441510D01*
X68237Y441637D01*
X68186Y441758D01*
X68114Y441867D01*
X68025Y441963D01*
X67921Y442042D01*
X67804Y442101D01*
X67679Y442139D01*
X67549Y442155D01*
X67418Y442148D01*
X67387Y442141D01*
Y447344D01*
X67553Y447107D01*
X68107Y446553D01*
X68750Y446103D01*
X69461Y445771D01*
X70219Y445568D01*
X71000Y445500D01*
Y444500D01*
X70568Y444480D01*
X70141Y444418D01*
X69721Y444315D01*
X69314Y444173D01*
Y444172D01*
X69198Y444113D01*
X69093Y444034D01*
X69004Y443938D01*
X68933Y443829D01*
X68882Y443708D01*
X68853Y443581D01*
X68846Y443451D01*
X68862Y443321D01*
X68900Y443196D01*
X68959Y443080D01*
X69038Y442975D01*
X69134Y442886D01*
X69243Y442815D01*
X69364Y442764D01*
X69491Y442735D01*
X69621Y442728D01*
X69751Y442744D01*
X69876Y442782D01*
X70147Y442877D01*
X70427Y442945D01*
X70712Y442987D01*
X71000Y443000D01*
Y437000D01*
G37*
G36*
X74613Y422000D02*X70999D01*
Y425500D01*
X71431Y425521D01*
X71858Y425583D01*
X72278Y425686D01*
X72685Y425828D01*
Y425829D01*
X72801Y425888D01*
X72906Y425967D01*
X72995Y426063D01*
X73066Y426172D01*
X73117Y426293D01*
X73146Y426420D01*
X73153Y426550D01*
X73137Y426680D01*
X73099Y426805D01*
X73040Y426921D01*
X72961Y427026D01*
X72865Y427115D01*
X72756Y427186D01*
X72635Y427237D01*
X72508Y427266D01*
X72378Y427273D01*
X72248Y427257D01*
X72123Y427219D01*
X71852Y427124D01*
X71572Y427056D01*
X71287Y427014D01*
X70999Y427000D01*
Y433000D01*
X71000D01*
X71287Y432987D01*
X71572Y432945D01*
X71852Y432877D01*
X72123Y432782D01*
Y432781D01*
X72248Y432743D01*
X72378Y432727D01*
X72509Y432734D01*
X72636Y432763D01*
X72757Y432814D01*
X72866Y432886D01*
X72962Y432975D01*
X73041Y433079D01*
X73100Y433196D01*
X73138Y433321D01*
X73154Y433451D01*
X73151Y433500D01*
X74613D01*
Y432139D01*
X74580Y432147D01*
X74450Y432154D01*
X74320Y432138D01*
X74195Y432100D01*
X74079Y432041D01*
X73974Y431962D01*
X73885Y431866D01*
X73814Y431757D01*
X73763Y431636D01*
X73734Y431509D01*
X73727Y431379D01*
X73743Y431249D01*
X73781Y431124D01*
X73876Y430853D01*
X73944Y430573D01*
X73986Y430288D01*
X74000Y430000D01*
X73986Y429713D01*
X73944Y429428D01*
X73876Y429148D01*
X73781Y428877D01*
X73780D01*
X73742Y428752D01*
X73726Y428622D01*
X73733Y428491D01*
X73762Y428364D01*
X73813Y428243D01*
X73885Y428134D01*
X73974Y428038D01*
X74078Y427959D01*
X74195Y427900D01*
X74320Y427862D01*
X74450Y427846D01*
X74581Y427853D01*
X74613Y427860D01*
Y422000D01*
G37*
G36*
X70999D02*X67387D01*
Y427861D01*
X67419Y427854D01*
X67549Y427847D01*
X67679Y427863D01*
X67804Y427901D01*
X67920Y427960D01*
X68025Y428039D01*
X68114Y428135D01*
X68185Y428244D01*
X68236Y428365D01*
X68265Y428492D01*
X68272Y428622D01*
X68256Y428752D01*
X68218Y428877D01*
X68123Y429148D01*
X68055Y429428D01*
X68013Y429713D01*
X68000Y430001D01*
X68013Y430288D01*
X68055Y430573D01*
X68123Y430853D01*
X68218Y431124D01*
X68219D01*
X68257Y431249D01*
X68273Y431379D01*
X68266Y431510D01*
X68237Y431637D01*
X68186Y431758D01*
X68114Y431867D01*
X68025Y431963D01*
X67921Y432042D01*
X67804Y432101D01*
X67679Y432139D01*
X67549Y432155D01*
X67418Y432148D01*
X67387Y432141D01*
Y433500D01*
X68849D01*
X68846Y433451D01*
X68862Y433321D01*
X68900Y433196D01*
X68959Y433080D01*
X69038Y432975D01*
X69134Y432886D01*
X69243Y432815D01*
X69364Y432764D01*
X69491Y432735D01*
X69621Y432728D01*
X69751Y432744D01*
X69876Y432782D01*
X70147Y432877D01*
X70427Y432945D01*
X70712Y432987D01*
X70999Y433000D01*
Y427000D01*
X70712Y427014D01*
X70427Y427056D01*
X70147Y427124D01*
X69876Y427219D01*
Y427220D01*
X69751Y427258D01*
X69621Y427274D01*
X69490Y427267D01*
X69363Y427238D01*
X69242Y427187D01*
X69133Y427115D01*
X69037Y427026D01*
X68958Y426922D01*
X68899Y426805D01*
X68861Y426680D01*
X68845Y426550D01*
X68852Y426419D01*
X68881Y426292D01*
X68932Y426171D01*
X69004Y426062D01*
X69093Y425966D01*
X69197Y425887D01*
X69314Y425828D01*
X69721Y425686D01*
X70141Y425583D01*
X70568Y425521D01*
X70999Y425500D01*
Y422000D01*
G37*
G36*
X67387Y489000D02*X74613D01*
Y486500D01*
X67387D01*
Y489000D01*
G37*
G36*
X12000Y422000D02*Y489000D01*
X67387D01*
Y486500D01*
X66000D01*
X65943Y486495D01*
X65869D01*
X65796Y486482D01*
X65740Y486477D01*
X65681Y486461D01*
X65612Y486449D01*
X65551Y486427D01*
X65487Y486410D01*
X65428Y486382D01*
X65366Y486360D01*
X65305Y486325D01*
X65250Y486299D01*
X65203Y486266D01*
X65139Y486229D01*
X65083Y486182D01*
X65036Y486149D01*
X64995Y486108D01*
X64939Y486061D01*
X63378Y484500D01*
X58000D01*
X57740Y484477D01*
X57487Y484410D01*
X57250Y484299D01*
X57036Y484149D01*
X56851Y483964D01*
X56701Y483750D01*
X56590Y483513D01*
X56523Y483260D01*
X56500Y483000D01*
Y477622D01*
X55378Y476500D01*
X32817D01*
X32893Y476553D01*
X33447Y477107D01*
X33897Y477750D01*
X34229Y478461D01*
X34432Y479219D01*
X34500Y480000D01*
X34432Y480781D01*
X34229Y481539D01*
X33897Y482250D01*
X33447Y482893D01*
X32893Y483447D01*
X32250Y483897D01*
X31539Y484229D01*
X30781Y484432D01*
X30000Y484500D01*
X29219Y484432D01*
X28461Y484229D01*
X27750Y483897D01*
X27107Y483447D01*
X26553Y482893D01*
X26103Y482250D01*
X25771Y481539D01*
X25568Y480781D01*
X25500Y480000D01*
X25568Y479219D01*
X25771Y478461D01*
X26103Y477750D01*
X26553Y477107D01*
X27107Y476553D01*
X27183Y476500D01*
X25621D01*
X24500Y477621D01*
Y483000D01*
X24477Y483260D01*
X24410Y483513D01*
X24299Y483750D01*
X24149Y483964D01*
X23964Y484149D01*
X23750Y484299D01*
X23513Y484410D01*
X23260Y484477D01*
X23000Y484500D01*
X17000D01*
X16740Y484477D01*
X16487Y484410D01*
X16250Y484299D01*
X16036Y484149D01*
X15851Y483964D01*
X15701Y483750D01*
X15590Y483513D01*
X15523Y483260D01*
X15500Y483000D01*
Y477000D01*
X15523Y476740D01*
X15590Y476487D01*
X15701Y476250D01*
X15851Y476036D01*
X16036Y475851D01*
X16250Y475701D01*
X16487Y475590D01*
X16740Y475523D01*
X17000Y475500D01*
X22379D01*
X23940Y473939D01*
X23990Y473897D01*
X24036Y473851D01*
X24089Y473814D01*
X24140Y473771D01*
X24197Y473738D01*
X24250Y473701D01*
X24310Y473673D01*
X24367Y473640D01*
X24425Y473619D01*
X24487Y473590D01*
X24555Y473572D01*
X24613Y473551D01*
X24676Y473540D01*
X24740Y473523D01*
X24807Y473517D01*
X24870Y473506D01*
X24932D01*
X25000Y473500D01*
X27183D01*
X27107Y473447D01*
X26553Y472893D01*
X26103Y472250D01*
X25771Y471539D01*
X25568Y470781D01*
X25500Y470000D01*
X25568Y469219D01*
X25771Y468461D01*
X26103Y467750D01*
X26553Y467107D01*
X27107Y466553D01*
X27183Y466500D01*
X25621D01*
X24048Y468073D01*
X24229Y468461D01*
X24432Y469219D01*
X24500Y470000D01*
X24432Y470781D01*
X24229Y471539D01*
X23897Y472250D01*
X23447Y472893D01*
X22893Y473447D01*
X22250Y473897D01*
X21539Y474229D01*
X20781Y474432D01*
X20000Y474500D01*
X19219Y474432D01*
X18461Y474229D01*
X17750Y473897D01*
X17107Y473447D01*
X16553Y472893D01*
X16103Y472250D01*
X15771Y471539D01*
X15568Y470781D01*
X15500Y470000D01*
X15568Y469219D01*
X15771Y468461D01*
X16103Y467750D01*
X16553Y467107D01*
X17107Y466553D01*
X17750Y466103D01*
X18461Y465771D01*
X19219Y465568D01*
X20000Y465500D01*
X20781Y465568D01*
X21539Y465771D01*
X21927Y465952D01*
X23940Y463939D01*
X23990Y463897D01*
X24036Y463851D01*
X24089Y463814D01*
X24140Y463771D01*
X24197Y463738D01*
X24250Y463701D01*
X24310Y463673D01*
X24367Y463640D01*
X24425Y463619D01*
X24487Y463590D01*
X24555Y463572D01*
X24613Y463551D01*
X24676Y463540D01*
X24740Y463523D01*
X24807Y463517D01*
X24870Y463506D01*
X24932D01*
X25000Y463500D01*
X27183D01*
X27107Y463447D01*
X26553Y462893D01*
X26103Y462250D01*
X25771Y461539D01*
X25568Y460781D01*
X25500Y460000D01*
X25568Y459219D01*
X25771Y458461D01*
X26103Y457750D01*
X26553Y457107D01*
X27107Y456553D01*
X27183Y456500D01*
X25621D01*
X24048Y458073D01*
X24229Y458461D01*
X24432Y459219D01*
X24500Y460000D01*
X24432Y460781D01*
X24229Y461539D01*
X23897Y462250D01*
X23447Y462893D01*
X22893Y463447D01*
X22250Y463897D01*
X21539Y464229D01*
X20781Y464432D01*
X20000Y464500D01*
X19219Y464432D01*
X18461Y464229D01*
X17750Y463897D01*
X17107Y463447D01*
X16553Y462893D01*
X16103Y462250D01*
X15771Y461539D01*
X15568Y460781D01*
X15500Y460000D01*
X15568Y459219D01*
X15771Y458461D01*
X16103Y457750D01*
X16553Y457107D01*
X17107Y456553D01*
X17750Y456103D01*
X18461Y455771D01*
X19219Y455568D01*
X20000Y455500D01*
X20781Y455568D01*
X21539Y455771D01*
X21927Y455952D01*
X23940Y453939D01*
X23990Y453897D01*
X24036Y453851D01*
X24089Y453814D01*
X24140Y453771D01*
X24197Y453738D01*
X24250Y453701D01*
X24310Y453673D01*
X24367Y453640D01*
X24425Y453619D01*
X24487Y453590D01*
X24555Y453572D01*
X24613Y453551D01*
X24676Y453540D01*
X24740Y453523D01*
X24807Y453517D01*
X24870Y453506D01*
X24932D01*
X25000Y453500D01*
X27183D01*
X27107Y453447D01*
X26553Y452893D01*
X26103Y452250D01*
X25771Y451539D01*
X25568Y450781D01*
X25500Y450000D01*
X25568Y449219D01*
X25771Y448461D01*
X26103Y447750D01*
X26553Y447107D01*
X27107Y446553D01*
X27183Y446500D01*
X25621D01*
X24048Y448073D01*
X24229Y448461D01*
X24432Y449219D01*
X24500Y450000D01*
X24432Y450781D01*
X24229Y451539D01*
X23897Y452250D01*
X23447Y452893D01*
X22893Y453447D01*
X22250Y453897D01*
X21539Y454229D01*
X20781Y454432D01*
X20000Y454500D01*
X19219Y454432D01*
X18461Y454229D01*
X17750Y453897D01*
X17107Y453447D01*
X16553Y452893D01*
X16103Y452250D01*
X15771Y451539D01*
X15568Y450781D01*
X15500Y450000D01*
X15568Y449219D01*
X15771Y448461D01*
X16103Y447750D01*
X16553Y447107D01*
X17107Y446553D01*
X17750Y446103D01*
X18461Y445771D01*
X19219Y445568D01*
X20000Y445500D01*
X20781Y445568D01*
X21539Y445771D01*
X21927Y445952D01*
X23940Y443939D01*
X23990Y443897D01*
X24036Y443851D01*
X24089Y443814D01*
X24140Y443771D01*
X24197Y443738D01*
X24250Y443701D01*
X24310Y443673D01*
X24367Y443640D01*
X24425Y443619D01*
X24487Y443590D01*
X24555Y443572D01*
X24613Y443551D01*
X24676Y443540D01*
X24740Y443523D01*
X24807Y443517D01*
X24870Y443506D01*
X24932D01*
X25000Y443500D01*
X27183D01*
X27107Y443447D01*
X26553Y442893D01*
X26103Y442250D01*
X25771Y441539D01*
X25568Y440781D01*
X25500Y440000D01*
X25568Y439219D01*
X25771Y438461D01*
X26103Y437750D01*
X26553Y437107D01*
X27107Y436553D01*
X27183Y436500D01*
X25621D01*
X24048Y438073D01*
X24229Y438461D01*
X24432Y439219D01*
X24500Y440000D01*
X24432Y440781D01*
X24229Y441539D01*
X23897Y442250D01*
X23447Y442893D01*
X22893Y443447D01*
X22250Y443897D01*
X21539Y444229D01*
X20781Y444432D01*
X20000Y444500D01*
X19219Y444432D01*
X18461Y444229D01*
X17750Y443897D01*
X17107Y443447D01*
X16553Y442893D01*
X16103Y442250D01*
X15771Y441539D01*
X15568Y440781D01*
X15500Y440000D01*
X15568Y439219D01*
X15771Y438461D01*
X16103Y437750D01*
X16553Y437107D01*
X17107Y436553D01*
X17750Y436103D01*
X18461Y435771D01*
X19219Y435568D01*
X20000Y435500D01*
X20781Y435568D01*
X21539Y435771D01*
X21927Y435952D01*
X23940Y433939D01*
X23990Y433897D01*
X24036Y433851D01*
X24089Y433814D01*
X24140Y433771D01*
X24197Y433738D01*
X24250Y433701D01*
X24310Y433673D01*
X24367Y433640D01*
X24425Y433619D01*
X24487Y433590D01*
X24555Y433572D01*
X24613Y433551D01*
X24676Y433540D01*
X24740Y433523D01*
X24807Y433517D01*
X24870Y433506D01*
X24932D01*
X25000Y433500D01*
X56000D01*
X56080Y433507D01*
X56131D01*
X56184Y433516D01*
X56260Y433523D01*
X56334Y433543D01*
X56388Y433552D01*
X56439Y433570D01*
X56513Y433590D01*
X56578Y433621D01*
X56634Y433641D01*
X56685Y433671D01*
X56750Y433701D01*
X56811Y433743D01*
X56860Y433772D01*
X56904Y433809D01*
X56964Y433851D01*
X57016Y433903D01*
X57060Y433940D01*
X59072Y435952D01*
X59461Y435771D01*
X60219Y435568D01*
X61000Y435500D01*
X61781Y435568D01*
X62539Y435771D01*
X63250Y436103D01*
X63893Y436553D01*
X64447Y437107D01*
X64897Y437750D01*
X65229Y438461D01*
X65432Y439219D01*
X65500Y440000D01*
X65432Y440781D01*
X65229Y441539D01*
X64897Y442250D01*
X64447Y442893D01*
X63893Y443447D01*
X63250Y443897D01*
X62539Y444229D01*
X61781Y444432D01*
X61000Y444500D01*
X60219Y444432D01*
X59461Y444229D01*
X58750Y443897D01*
X58107Y443447D01*
X57553Y442893D01*
X57103Y442250D01*
X56771Y441539D01*
X56568Y440781D01*
X56500Y440000D01*
X56568Y439219D01*
X56771Y438461D01*
X56952Y438074D01*
X55378Y436500D01*
X32817D01*
X32893Y436553D01*
X33447Y437107D01*
X33897Y437750D01*
X34229Y438461D01*
X34432Y439219D01*
X34500Y440000D01*
X34432Y440781D01*
X34229Y441539D01*
X33897Y442250D01*
X33447Y442893D01*
X32893Y443447D01*
X32817Y443500D01*
X56000D01*
X56080Y443507D01*
X56131D01*
X56183Y443516D01*
X56260Y443523D01*
X56335Y443543D01*
X56388Y443552D01*
X56439Y443570D01*
X56513Y443590D01*
X56579Y443621D01*
X56634Y443641D01*
X56685Y443671D01*
X56750Y443701D01*
X56810Y443743D01*
X56860Y443772D01*
X56904Y443809D01*
X56964Y443851D01*
X57016Y443903D01*
X57060Y443940D01*
X59072Y445952D01*
X59461Y445771D01*
X60219Y445568D01*
X61000Y445500D01*
X61781Y445568D01*
X62539Y445771D01*
X63250Y446103D01*
X63893Y446553D01*
X64447Y447107D01*
X64897Y447750D01*
X65229Y448461D01*
X65432Y449219D01*
X65500Y450000D01*
X65432Y450781D01*
X65229Y451539D01*
X64897Y452250D01*
X64447Y452893D01*
X63893Y453447D01*
X63250Y453897D01*
X62539Y454229D01*
X61781Y454432D01*
X61000Y454500D01*
X60219Y454432D01*
X59461Y454229D01*
X58750Y453897D01*
X58107Y453447D01*
X57553Y452893D01*
X57103Y452250D01*
X56771Y451539D01*
X56568Y450781D01*
X56500Y450000D01*
X56568Y449219D01*
X56771Y448461D01*
X56952Y448074D01*
X55378Y446500D01*
X32817D01*
X32893Y446553D01*
X33447Y447107D01*
X33897Y447750D01*
X34229Y448461D01*
X34432Y449219D01*
X34500Y450000D01*
X34432Y450781D01*
X34229Y451539D01*
X33897Y452250D01*
X33447Y452893D01*
X32893Y453447D01*
X32817Y453500D01*
X56000D01*
X56080Y453507D01*
X56131D01*
X56184Y453516D01*
X56260Y453523D01*
X56334Y453543D01*
X56388Y453552D01*
X56439Y453570D01*
X56513Y453590D01*
X56578Y453621D01*
X56634Y453641D01*
X56685Y453671D01*
X56750Y453701D01*
X56811Y453743D01*
X56860Y453772D01*
X56904Y453809D01*
X56964Y453851D01*
X57016Y453903D01*
X57060Y453940D01*
X59072Y455952D01*
X59461Y455771D01*
X60219Y455568D01*
X61000Y455500D01*
X61781Y455568D01*
X62539Y455771D01*
X63250Y456103D01*
X63893Y456553D01*
X64447Y457107D01*
X64897Y457750D01*
X65229Y458461D01*
X65432Y459219D01*
X65500Y460000D01*
X65432Y460781D01*
X65229Y461539D01*
X64897Y462250D01*
X64447Y462893D01*
X63893Y463447D01*
X63250Y463897D01*
X62539Y464229D01*
X61781Y464432D01*
X61000Y464500D01*
X60219Y464432D01*
X59461Y464229D01*
X58750Y463897D01*
X58107Y463447D01*
X57553Y462893D01*
X57103Y462250D01*
X56771Y461539D01*
X56568Y460781D01*
X56500Y460000D01*
X56568Y459219D01*
X56771Y458461D01*
X56952Y458074D01*
X55378Y456500D01*
X32817D01*
X32893Y456553D01*
X33447Y457107D01*
X33897Y457750D01*
X34229Y458461D01*
X34432Y459219D01*
X34500Y460000D01*
X34432Y460781D01*
X34229Y461539D01*
X33897Y462250D01*
X33447Y462893D01*
X32893Y463447D01*
X32817Y463500D01*
X56000D01*
X56080Y463507D01*
X56131D01*
X56183Y463516D01*
X56260Y463523D01*
X56335Y463543D01*
X56388Y463552D01*
X56439Y463570D01*
X56513Y463590D01*
X56579Y463621D01*
X56634Y463641D01*
X56685Y463671D01*
X56750Y463701D01*
X56811Y463743D01*
X56860Y463772D01*
X56904Y463809D01*
X56964Y463851D01*
X57016Y463903D01*
X57060Y463940D01*
X59072Y465952D01*
X59461Y465771D01*
X60219Y465568D01*
X61000Y465500D01*
X61781Y465568D01*
X62539Y465771D01*
X63250Y466103D01*
X63893Y466553D01*
X64447Y467107D01*
X64897Y467750D01*
X65229Y468461D01*
X65432Y469219D01*
X65500Y470000D01*
X65432Y470781D01*
X65229Y471539D01*
X65048Y471928D01*
X66620Y473500D01*
X67387D01*
Y472656D01*
X67103Y472250D01*
X66771Y471539D01*
X66568Y470781D01*
X66500Y470000D01*
X66568Y469219D01*
X66771Y468461D01*
X67103Y467750D01*
X67387Y467344D01*
Y462656D01*
X67103Y462250D01*
X66771Y461539D01*
X66568Y460781D01*
X66500Y460000D01*
X66568Y459219D01*
X66771Y458461D01*
X67103Y457750D01*
X67387Y457344D01*
Y452656D01*
X67103Y452250D01*
X66771Y451539D01*
X66568Y450781D01*
X66500Y450000D01*
X66568Y449219D01*
X66771Y448461D01*
X67103Y447750D01*
X67387Y447344D01*
Y442141D01*
X67291Y442119D01*
X67170Y442068D01*
X67061Y441996D01*
X66965Y441907D01*
X66886Y441803D01*
X66827Y441686D01*
X66685Y441279D01*
X66582Y440859D01*
X66520Y440432D01*
X66500Y440001D01*
X66520Y439569D01*
X66582Y439142D01*
X66685Y438722D01*
X66827Y438315D01*
X66828D01*
X66887Y438199D01*
X66966Y438094D01*
X67062Y438005D01*
X67171Y437934D01*
X67292Y437883D01*
X67387Y437861D01*
Y436500D01*
X66000D01*
X65943Y436495D01*
X65869D01*
X65796Y436482D01*
X65740Y436477D01*
X65682Y436462D01*
X65612Y436449D01*
X65550Y436427D01*
X65487Y436410D01*
X65428Y436383D01*
X65366Y436360D01*
X65305Y436325D01*
X65250Y436299D01*
X65203Y436266D01*
X65139Y436229D01*
X65083Y436182D01*
X65036Y436149D01*
X64995Y436108D01*
X64939Y436061D01*
X62926Y434048D01*
X62539Y434229D01*
X61781Y434432D01*
X61000Y434500D01*
X60219Y434432D01*
X59461Y434229D01*
X58750Y433897D01*
X58107Y433447D01*
X57553Y432893D01*
X57103Y432250D01*
X56771Y431539D01*
X56568Y430781D01*
X56500Y430000D01*
X56568Y429219D01*
X56771Y428461D01*
X57103Y427750D01*
X57553Y427107D01*
X58107Y426553D01*
X58750Y426103D01*
X59461Y425771D01*
X60219Y425568D01*
X61000Y425500D01*
X61781Y425568D01*
X62539Y425771D01*
X63250Y426103D01*
X63893Y426553D01*
X64447Y427107D01*
X64897Y427750D01*
X65229Y428461D01*
X65432Y429219D01*
X65500Y430000D01*
X65432Y430781D01*
X65229Y431539D01*
X65048Y431928D01*
X66620Y433500D01*
X67387D01*
Y432141D01*
X67291Y432119D01*
X67170Y432068D01*
X67061Y431996D01*
X66965Y431907D01*
X66886Y431803D01*
X66827Y431686D01*
X66685Y431279D01*
X66582Y430859D01*
X66520Y430432D01*
X66500Y430001D01*
X66520Y429569D01*
X66582Y429142D01*
X66685Y428722D01*
X66827Y428315D01*
X66828D01*
X66887Y428199D01*
X66966Y428094D01*
X67062Y428005D01*
X67171Y427934D01*
X67292Y427883D01*
X67387Y427861D01*
Y422000D01*
X12000D01*
G37*
G54D11*X25000Y445000D02*X56000D01*
X25000Y435000D02*X56000D01*
X61000Y440000D01*
X66000Y435000D02*X128000D01*
X66000Y485000D02*X136000D01*
X66000Y475000D02*X136000D01*
X71000Y470000D02*X134000D01*
X71000Y480000D02*X134000D01*
X136000Y485000D02*X144000Y477000D01*
X136000Y475000D02*X139000Y472000D01*
X149000D01*
X154000Y467000D01*
X137000D02*X144000D01*
X134000Y470000D02*X137000Y467000D01*
X20000Y480000D02*X25000Y475000D01*
X20000Y470000D02*X25000Y465000D01*
X56000D01*
X20000Y460000D02*X25000Y455000D01*
X56000D01*
X25000Y475000D02*X56000D01*
Y455000D02*X61000Y460000D01*
X56000Y475000D02*X66000Y485000D01*
X56000Y465000D02*X66000Y475000D01*
X20000Y450000D02*X25000Y445000D01*
X20000Y440000D02*X25000Y435000D01*
X56000Y445000D02*X61000Y450000D01*
Y430000D02*X66000Y435000D01*
G54D12*G36*
X17000Y483000D02*Y477000D01*
X23000D01*
Y483000D01*
X17000D01*
G37*
G54D13*X30000Y480000D03*
X20000Y470000D03*
X30000D03*
X20000Y460000D03*
X30000D03*
X20000Y450000D03*
X30000D03*
X20000Y440000D03*
X30000D03*
G54D12*G36*
X58000Y483000D02*Y477000D01*
X64000D01*
Y483000D01*
X58000D01*
G37*
G54D13*X71000Y480000D03*
Y470000D03*
Y460000D03*
Y450000D03*
Y440000D03*
Y430000D03*
X61000Y470000D03*
Y460000D03*
Y450000D03*
Y440000D03*
Y430000D03*
G54D12*G36*
X125000Y448000D02*Y442000D01*
X131000D01*
Y448000D01*
X125000D01*
G37*
G54D13*X128000Y435000D03*
X118000D03*
G54D12*G36*
X115000Y448000D02*Y442000D01*
X121000D01*
Y448000D01*
X115000D01*
G37*
G36*
X141000Y480000D02*Y474000D01*
X147000D01*
Y480000D01*
X141000D01*
G37*
G54D13*X154000Y477000D03*
X144000Y467000D03*
X154000D03*
X144000Y457000D03*
X154000D03*
G54D14*X134000Y480000D03*
X99000Y429000D03*
G54D18*G54D12*M02*
