M48
INCH
T12C0.020
T18C0.038
%
T12
X013400Y048000
X009900Y042900
T18
X002000Y048000
X003000Y048000
X002000Y047000
X003000Y047000
X002000Y046000
X003000Y046000
X002000Y045000
X003000Y045000
X002000Y044000
X003000Y044000
X006100Y048000
X007100Y048000
X007100Y047000
X007100Y046000
X007100Y045000
X007100Y044000
X007100Y043000
X006100Y047000
X006100Y046000
X006100Y045000
X006100Y044000
X006100Y043000
X012800Y044500
X012800Y043500
X011800Y043500
X011800Y044500
X014400Y047700
X015400Y047700
X014400Y046700
X015400Y046700
X014400Y045700
X015400Y045700
M30
