G04 start of page 5 for group -4062 idx -4062 *
G04 Title: (unknown), soldermask *
G04 Creator: pcb 20091103 *
G04 CreationDate: Mon 11 Apr 2011 12:44:06 AM GMT UTC *
G04 For: gjhurlbu *
G04 Format: Gerber/RS-274X *
G04 PCB-Dimensions: 600000 500000 *
G04 PCB-Coordinate-Origin: lower left *
%MOIN*%
%FSLAX25Y25*%
%LNBACKMASK*%
%ADD12C,0.0200*%
%ADD19C,0.0660*%
G54D12*G36*
X16700Y483300D02*Y476700D01*
X23300D01*
Y483300D01*
X16700D01*
G37*
G54D19*X30000Y480000D03*
X20000Y470000D03*
X30000D03*
X20000Y460000D03*
X30000D03*
X20000Y450000D03*
X30000D03*
X20000Y440000D03*
X30000D03*
G54D12*G36*
X57700Y483300D02*Y476700D01*
X64300D01*
Y483300D01*
X57700D01*
G37*
G54D19*X71000Y480000D03*
Y470000D03*
Y460000D03*
Y450000D03*
Y440000D03*
Y430000D03*
X61000Y470000D03*
Y460000D03*
Y450000D03*
Y440000D03*
Y430000D03*
G54D12*G36*
X124700Y448300D02*Y441700D01*
X131300D01*
Y448300D01*
X124700D01*
G37*
G54D19*X128000Y435000D03*
X118000D03*
G54D12*G36*
X114700Y448300D02*Y441700D01*
X121300D01*
Y448300D01*
X114700D01*
G37*
G36*
X140700Y480300D02*Y473700D01*
X147300D01*
Y480300D01*
X140700D01*
G37*
G54D19*X154000Y477000D03*
X144000Y467000D03*
X154000D03*
X144000Y457000D03*
X154000D03*
M02*
