G04 start of page 2 for group 0 idx 0 *
G04 Title: (unknown), component *
G04 Creator: pcb 20091103 *
G04 CreationDate: Mon 11 Apr 2011 12:44:06 AM GMT UTC *
G04 For: gjhurlbu *
G04 Format: Gerber/RS-274X *
G04 PCB-Dimensions: 600000 500000 *
G04 PCB-Coordinate-Origin: lower left *
%MOIN*%
%FSLAX25Y25*%
%LNFRONT*%
%ADD11C,0.0100*%
%ADD12C,0.0200*%
%ADD13C,0.0600*%
%ADD14C,0.0360*%
%ADD15R,0.0340X0.0340*%
%ADD16R,0.0512X0.0512*%
%ADD17R,0.1090X0.1090*%
%ADD18C,0.0380*%
G54D11*X66000Y455000D02*X71000Y460000D01*
X66000Y435000D02*X71000Y430000D01*
X66000Y445000D02*X71000Y450000D01*
X66000Y435000D02*X71000Y440000D01*
X69000Y445000D02*X77000D01*
X78000Y446000D01*
X80900D01*
X81600Y446700D01*
X90400Y442800D02*X99014D01*
X81600Y446700D02*Y465600D01*
X88000Y472000D01*
X93000D01*
X96000Y475000D01*
Y468400D02*Y460000D01*
X99214Y435914D02*Y429214D01*
X99000Y429000D01*
X35000Y475000D02*X66000D01*
X71000Y480000D01*
X35000Y465000D02*X66000D01*
X71000Y470000D01*
X30000Y480000D02*Y479000D01*
Y480000D02*X35000Y475000D01*
X30000Y470000D02*X35000Y465000D01*
X30000Y460000D02*X35000Y455000D01*
X30000Y440000D02*X35000Y435000D01*
Y455000D02*X66000D01*
X30000Y450000D02*X31000D01*
X30000D02*X35000Y445000D01*
X66000D01*
X35000Y435000D02*X66000D01*
X61000Y440000D02*X64000D01*
X69000Y445000D01*
X132000Y435000D02*X136000Y439000D01*
Y445000D01*
X134000Y480000D02*Y462000D01*
X139000Y457000D01*
X136000Y445000D02*X138000Y447000D01*
X141800D01*
X142000Y446800D01*
X145800D01*
X149000Y450000D01*
X139000Y457000D02*X144000D01*
X150800Y442900D02*X152100D01*
X155000Y440000D01*
X159914D01*
X160000Y439914D01*
X159214Y447000D02*Y451786D01*
X154000Y457000D01*
X149000Y450000D02*Y472000D01*
X154000Y477000D01*
X128000Y435000D02*X132000D01*
X99014Y442800D02*X99214Y443000D01*
X96000Y460000D02*X105000Y451000D01*
X112000D01*
X118000Y445000D01*
X117800Y468400D02*Y463200D01*
X127000Y454000D01*
Y446000D01*
X128000Y445000D01*
G54D12*G36*
X17000Y483000D02*Y477000D01*
X23000D01*
Y483000D01*
X17000D01*
G37*
G54D13*X30000Y480000D03*
X20000Y470000D03*
X30000D03*
X20000Y460000D03*
X30000D03*
X20000Y450000D03*
X30000D03*
X20000Y440000D03*
X30000D03*
G54D12*G36*
X58000Y483000D02*Y477000D01*
X64000D01*
Y483000D01*
X58000D01*
G37*
G54D13*X71000Y480000D03*
Y470000D03*
Y460000D03*
Y450000D03*
Y440000D03*
Y430000D03*
X61000Y470000D03*
Y460000D03*
Y450000D03*
Y440000D03*
Y430000D03*
G54D12*G36*
X125000Y448000D02*Y442000D01*
X131000D01*
Y448000D01*
X125000D01*
G37*
G54D13*X128000Y435000D03*
X118000D03*
G54D12*G36*
X115000Y448000D02*Y442000D01*
X121000D01*
Y448000D01*
X115000D01*
G37*
G36*
X141000Y480000D02*Y474000D01*
X147000D01*
Y480000D01*
X141000D01*
G37*
G54D13*X154000Y477000D03*
X144000Y467000D03*
X154000D03*
X144000Y457000D03*
X154000D03*
G54D14*X134000Y480000D03*
X99000Y429000D03*
G54D15*X81600Y446700D02*X82200D01*
X81600Y438900D02*X82200D01*
X89800Y442800D02*X90400D01*
G54D16*X99214Y443000D02*X100000D01*
X99214Y435914D02*X100000D01*
G54D17*X117800Y475000D02*Y468400D01*
X96000Y475000D02*Y468400D01*
G54D15*X142000Y446800D02*X142600D01*
X142000Y439000D02*X142600D01*
X150200Y442900D02*X150800D01*
G54D16*X159214Y439914D02*X160000D01*
X159214Y447000D02*X160000D01*
G54D18*G54D12*M02*
