G04 start of page 7 for group -4079 idx -4079 *
G04 Title: (unknown), topsilk *
G04 Creator: pcb 20091103 *
G04 CreationDate: Mon 11 Apr 2011 12:44:06 AM GMT UTC *
G04 For: gjhurlbu *
G04 Format: Gerber/RS-274X *
G04 PCB-Dimensions: 600000 500000 *
G04 PCB-Coordinate-Origin: lower left *
%MOIN*%
%FSLAX25Y25*%
%LNFRONTSILK*%
%ADD11C,0.0100*%
%ADD12C,0.0200*%
%ADD24C,0.0080*%
G54D11*X10000Y491000D02*Y420000D01*
X167000D01*
Y491000D01*
X10000D01*
X48000Y483000D02*Y481000D01*
X48500Y480500D01*
X49500D01*
X50000Y481000D02*X49500Y480500D01*
X50000Y482500D02*Y481000D01*
X48000Y482500D02*X52000D01*
Y483000D02*Y481000D01*
X51500Y480500D01*
X50500D02*X51500D01*
X50000Y481000D02*X50500Y480500D01*
X48500Y479299D02*X50000D01*
X48500D02*X48000Y478799D01*
Y477799D01*
X48500Y477299D01*
X50000D01*
X48000Y475598D02*Y474098D01*
X48500Y473598D01*
X49000Y474098D02*X48500Y473598D01*
X49000Y475598D02*Y474098D01*
X49500Y476098D02*X49000Y475598D01*
X49500Y476098D02*X50000Y475598D01*
Y474098D01*
X49500Y473598D01*
X48500Y476098D02*X48000Y475598D01*
Y471897D02*X52000D01*
Y472397D02*Y470397D01*
X51500Y469897D01*
X50500D02*X51500D01*
X50000Y470397D02*X50500Y469897D01*
X50000Y471897D02*Y470397D01*
X50500Y468696D02*X51000D01*
X48000D02*X49500D01*
X48000Y467195D02*X49500D01*
X50000Y466695D01*
Y465695D01*
Y467695D02*X49500Y467195D01*
X50000Y462994D02*X49500Y462494D01*
X50000Y463994D02*Y462994D01*
X49500Y464494D02*X50000Y463994D01*
X48500Y464494D02*X49500D01*
X48500D02*X48000Y463994D01*
X48500Y462494D02*X50000D01*
X48500D02*X48000Y461994D01*
Y463994D02*Y462994D01*
X48500Y462494D01*
Y460293D02*X52000D01*
X48500D02*X48000Y459793D01*
X50500Y460793D02*Y459793D01*
X48000Y458292D02*Y456792D01*
X48500Y458792D02*X48000Y458292D01*
X48500Y458792D02*X49500D01*
X50000Y458292D01*
Y457292D01*
X49500Y456792D01*
X49000Y458792D02*Y456792D01*
X49500D01*
X48000Y453791D02*Y451791D01*
X48500Y451291D01*
X49500D01*
X50000Y451791D02*X49500Y451291D01*
X50000Y453291D02*Y451791D01*
X48000Y453291D02*X52000D01*
Y453791D02*Y451791D01*
X51500Y451291D01*
X50500D02*X51500D01*
X50000Y451791D02*X50500Y451291D01*
X48000Y449590D02*X49500D01*
X50000Y449090D01*
Y448090D01*
Y450090D02*X49500Y449590D01*
X48000Y446389D02*Y444889D01*
X48500Y446889D02*X48000Y446389D01*
X48500Y446889D02*X49500D01*
X50000Y446389D01*
Y445389D01*
X49500Y444889D01*
X49000Y446889D02*Y444889D01*
X49500D01*
X50000Y442188D02*X49500Y441688D01*
X50000Y443188D02*Y442188D01*
X49500Y443688D02*X50000Y443188D01*
X48500Y443688D02*X49500D01*
X48500D02*X48000Y443188D01*
X48500Y441688D02*X50000D01*
X48500D02*X48000Y441188D01*
Y443188D02*Y442188D01*
X48500Y441688D01*
X48000Y439987D02*X52000D01*
X49500D02*X48000Y438487D01*
X49500Y439987D02*X50500Y438987D01*
X48500Y437286D02*X49500D01*
X50000Y436786D01*
Y435786D01*
X49500Y435286D01*
X48500D02*X49500D01*
X48000Y435786D02*X48500Y435286D01*
X48000Y436786D02*Y435786D01*
X48500Y437286D02*X48000Y436786D01*
X48500Y434085D02*X50000D01*
X48500D02*X48000Y433585D01*
Y432585D01*
X48500Y432085D01*
X50000D01*
X48500Y430384D02*X52000D01*
X48500D02*X48000Y429884D01*
X50500Y430884D02*Y429884D01*
X40500Y465000D02*X40000Y464500D01*
X43500Y465000D02*X44000Y464500D01*
X40500Y465000D02*X43500D01*
X42000Y462799D02*Y461299D01*
X41500Y463299D02*X42000Y462799D01*
X40500Y463299D02*X41500D01*
X40500D02*X40000Y462799D01*
Y461299D01*
X44000Y460098D02*X43500Y459598D01*
X40500D02*X43500D01*
X40000Y460098D02*X40500Y459598D01*
X43500Y456597D02*X44000Y456097D01*
Y454597D01*
X43500Y454097D01*
X42500D02*X43500D01*
X40000Y456597D02*X42500Y454097D01*
X40000Y456597D02*Y454097D01*
X40500Y452896D02*X40000Y452396D01*
X40500Y452896D02*X43500D01*
X44000Y452396D01*
Y451396D01*
X43500Y450896D01*
X40500D02*X43500D01*
X40000Y451396D02*X40500Y450896D01*
X40000Y452396D02*Y451396D01*
X41000Y452896D02*X43000Y450896D01*
X40000Y449195D02*Y448195D01*
Y448695D02*X44000D01*
X43000Y449695D02*X44000Y448695D01*
X40000Y446494D02*Y445494D01*
Y445994D02*X44000D01*
X43000Y446994D02*X44000Y445994D01*
Y440493D02*X43500Y439993D01*
X44000Y441993D02*Y440493D01*
X43500Y442493D02*X44000Y441993D01*
X40500Y442493D02*X43500D01*
X40500D02*X40000Y441993D01*
Y440493D01*
X40500Y439993D01*
X41500D01*
X42000Y440493D02*X41500Y439993D01*
X42000Y441493D02*Y440493D01*
X44000Y438792D02*Y437292D01*
X40500D02*X44000D01*
X40000Y437792D02*X40500Y437292D01*
X40000Y438292D02*Y437792D01*
X40500Y438792D02*X40000Y438292D01*
Y436091D02*X44000D01*
X40000Y433591D02*X44000D01*
X42000Y436091D02*Y433591D01*
X19000Y428000D02*Y427000D01*
X20000Y426000D01*
X21000Y427000D01*
Y428000D02*Y427000D01*
X22701Y426000D02*X23701D01*
X23201Y430000D02*Y426000D01*
X22201Y429000D02*X23201Y430000D01*
X24902Y426000D02*X25402D01*
X26603Y426500D02*X27103Y426000D01*
X26603Y429500D02*Y426500D01*
Y429500D02*X27103Y430000D01*
X28103D01*
X28603Y429500D01*
Y426500D01*
X28103Y426000D02*X28603Y426500D01*
X27103Y426000D02*X28103D01*
X26603Y427000D02*X28603Y429000D01*
X25000Y475000D02*Y485000D01*
X15000Y475000D02*X25000D01*
X35000Y485000D02*X15000D01*
X35000Y435000D02*Y485000D01*
X15000Y435000D02*X35000D01*
X15000Y485000D02*Y435000D01*
X56000Y485000D02*Y425000D01*
X76000D01*
Y485000D01*
X56000D01*
Y475000D02*X66000D01*
Y485000D01*
X79000Y449200D02*X92900D01*
X79000D02*Y436400D01*
X92900D01*
Y449200D02*Y436400D01*
G54D24*X96852Y439850D02*Y439064D01*
X102362Y439850D02*Y439064D01*
G54D12*X128600Y480900D02*Y462500D01*
G54D11*Y480900D02*X121400Y483500D01*
X86200D02*X121400D01*
X86200D02*Y459900D01*
X121400D01*
X128600Y462500D01*
X123000Y450000D02*Y430000D01*
X133000D01*
Y450000D02*Y430000D01*
X123000Y450000D02*X133000D01*
X123000Y440000D02*X133000D01*
Y450000D02*Y440000D01*
X113000Y450000D02*Y430000D01*
X123000D01*
Y450000D02*Y430000D01*
X113000Y450000D02*X123000D01*
X113000Y440000D02*X123000D01*
Y450000D02*Y440000D01*
X139400Y449300D02*X153300D01*
X139400D02*Y436500D01*
X153300D01*
Y449300D02*Y436500D01*
G54D24*X162362Y443850D02*Y443064D01*
X156852Y443850D02*Y443064D01*
G54D11*X149000Y472000D02*Y482000D01*
X139000Y472000D02*X149000D01*
X159000Y482000D02*X139000D01*
X159000Y452000D02*Y482000D01*
X139000Y452000D02*X159000D01*
X139000Y482000D02*Y452000D01*
X36000Y484500D02*Y483000D01*
X36500Y485000D02*X36000Y484500D01*
X36500Y485000D02*X39500D01*
X40000Y484500D01*
Y483000D01*
X36500Y481799D02*X39500D01*
X40000Y481299D01*
Y480299D01*
X39500Y479799D01*
X36500D02*X39500D01*
X36000Y480299D02*X36500Y479799D01*
X36000Y481299D02*Y480299D01*
X36500Y481799D02*X36000Y481299D01*
Y478598D02*X40000D01*
X39500D02*X40000D01*
X39500D02*X37000Y476098D01*
X36000D02*X40000D01*
X36000Y474897D02*X40000D01*
X39500D02*X40000D01*
X39500D02*X37000Y472397D01*
X36000D02*X40000D01*
X36000Y470696D02*Y469696D01*
Y470196D02*X40000D01*
X39000Y471196D02*X40000Y470196D01*
X77000Y484500D02*Y483000D01*
X77500Y485000D02*X77000Y484500D01*
X77500Y485000D02*X80500D01*
X81000Y484500D01*
Y483000D01*
X77500Y481799D02*X80500D01*
X81000Y481299D01*
Y480299D01*
X80500Y479799D01*
X77500D02*X80500D01*
X77000Y480299D02*X77500Y479799D01*
X77000Y481299D02*Y480299D01*
X77500Y481799D02*X77000Y481299D01*
Y478598D02*X81000D01*
X80500D02*X81000D01*
X80500D02*X78000Y476098D01*
X77000D02*X81000D01*
X77000Y474897D02*X81000D01*
X80500D02*X81000D01*
X80500D02*X78000Y472397D01*
X77000D02*X81000D01*
X80500Y471196D02*X81000Y470696D01*
Y469196D01*
X80500Y468696D01*
X79500D02*X80500D01*
X77000Y471196D02*X79500Y468696D01*
X77000Y471196D02*Y468696D01*
X79400Y429600D02*X83400D01*
X79400Y431100D02*X79900Y431600D01*
X82900D01*
X83400Y431100D02*X82900Y431600D01*
X83400Y431100D02*Y429100D01*
X79400Y431100D02*Y429100D01*
X83400Y434301D02*Y433301D01*
X79400Y433801D02*X83400D01*
X80400Y432801D02*X79400Y433801D01*
X104400Y436370D02*Y434370D01*
Y436370D02*X104900Y436870D01*
X105900D01*
X106400Y436370D02*X105900Y436870D01*
X106400Y436370D02*Y434870D01*
X104400D02*X108400D01*
X106400D02*X108400Y436870D01*
Y439571D02*Y438571D01*
X104400Y439071D02*X108400D01*
X105400Y438071D02*X104400Y439071D01*
X141200Y429700D02*X145200D01*
X141200Y431200D02*X141700Y431700D01*
X144700D01*
X145200Y431200D02*X144700Y431700D01*
X145200Y431200D02*Y429200D01*
X141200Y431200D02*Y429200D01*
X141700Y432901D02*X141200Y433401D01*
Y434401D02*Y433401D01*
Y434401D02*X141700Y434901D01*
X144700D01*
X145200Y434401D02*X144700Y434901D01*
X145200Y434401D02*Y433401D01*
X144700Y432901D02*X145200Y433401D01*
X143200Y434901D02*Y433401D01*
X158201Y430967D02*Y428967D01*
Y430967D02*X158701Y431467D01*
X159701D01*
X160201Y430967D02*X159701Y431467D01*
X160201Y430967D02*Y429467D01*
X158201D02*X162201D01*
X160201D02*X162201Y431467D01*
X158701Y432668D02*X158201Y433168D01*
Y434668D02*Y433168D01*
Y434668D02*X158701Y435168D01*
X159701D01*
X162201Y432668D02*X159701Y435168D01*
X162201D02*Y432668D01*
X88200Y456800D02*Y452800D01*
X89700Y456800D02*X90200Y456300D01*
Y453300D01*
X89700Y452800D02*X90200Y453300D01*
X87700Y452800D02*X89700D01*
X87700Y456800D02*X89700D01*
X91401Y456300D02*X91901Y456800D01*
X93401D01*
X93901Y456300D01*
Y455300D01*
X91401Y452800D02*X93901Y455300D01*
X91401Y452800D02*X93901D01*
X125000Y456000D02*X126500D01*
Y452500D01*
X126000Y452000D02*X126500Y452500D01*
X125500Y452000D02*X126000D01*
X125000Y452500D02*X125500Y452000D01*
X127701Y455500D02*X128201Y456000D01*
X129701D01*
X130201Y455500D01*
Y454500D01*
X127701Y452000D02*X130201Y454500D01*
X127701Y452000D02*X130201D01*
X115000Y456000D02*X116500D01*
Y452500D01*
X116000Y452000D02*X116500Y452500D01*
X115500Y452000D02*X116000D01*
X115000Y452500D02*X115500Y452000D01*
X118201D02*X119201D01*
X118701Y456000D02*Y452000D01*
X117701Y455000D02*X118701Y456000D01*
X160000Y481500D02*Y480000D01*
X160500Y482000D02*X160000Y481500D01*
X160500Y482000D02*X163500D01*
X164000Y481500D01*
Y480000D01*
X160500Y478799D02*X163500D01*
X164000Y478299D01*
Y477299D01*
X163500Y476799D01*
X160500D02*X163500D01*
X160000Y477299D02*X160500Y476799D01*
X160000Y478299D02*Y477299D01*
X160500Y478799D02*X160000Y478299D01*
Y475598D02*X164000D01*
X163500D02*X164000D01*
X163500D02*X161000Y473098D01*
X160000D02*X164000D01*
X160000Y471897D02*X164000D01*
X163500D02*X164000D01*
X163500D02*X161000Y469397D01*
X160000D02*X164000D01*
X163500Y468196D02*X164000Y467696D01*
Y466696D01*
X163500Y466196D01*
X160500D02*X163500D01*
X160000Y466696D02*X160500Y466196D01*
X160000Y467696D02*Y466696D01*
X160500Y468196D02*X160000Y467696D01*
X162000D02*Y466196D01*
M02*
