G04 start of page 9 for group -4014 idx -4014 *
G04 Title: (unknown), bottompaste *
G04 Creator: pcb 20091103 *
G04 CreationDate: Sat 19 Mar 2011 11:45:18 AM GMT UTC *
G04 For: gjhurlbu *
G04 Format: Gerber/RS-274X *
G04 PCB-Dimensions: 600000 500000 *
G04 PCB-Coordinate-Origin: lower left *
%MOIN*%
%FSLAX25Y25*%
%LNBACKPASTE*%
%ADD17R,0.0200X0.0200*%
%ADD18R,0.0512X0.0512*%
%ADD22R,0.0130X0.0130*%
%ADD23R,0.0150X0.0150*%
G54D18*X209000Y423000D02*Y422214D01*
X216086Y423000D02*Y422214D01*
X232086Y423000D02*Y422214D01*
X225000Y423000D02*Y422214D01*
X197000Y404000D02*X197786D01*
X197000Y396914D02*X197786D01*
G54D22*X206071Y399764D02*X210677D01*
X206071Y402323D02*X210677D01*
X206071Y404882D02*X210677D01*
X206071Y407441D02*X210677D01*
X206071Y410000D02*X210677D01*
X206071Y412559D02*X210677D01*
X206071Y415118D02*X210677D01*
X229299D02*X233905D01*
X229299Y412559D02*X233905D01*
X229299Y410000D02*X233905D01*
X229299Y407441D02*X233905D01*
X229299Y404882D02*X233905D01*
X229299Y402323D02*X233905D01*
X229299Y399764D02*X233905D01*
G54D23*X105100Y357000D02*Y355000D01*
X102500Y357000D02*Y355000D01*
X100000Y357000D02*Y355000D01*
Y364000D02*Y362000D01*
X102500Y364000D02*Y362000D01*
X105100Y364000D02*Y362000D01*
G54D18*X106607Y378543D02*X107393D01*
X106607Y371457D02*X107393D01*
X98607Y378543D02*X99393D01*
X98607Y371457D02*X99393D01*
G54D17*X118000Y404000D02*X124500D01*
X118000Y399000D02*X124500D01*
X118000Y394000D02*X124500D01*
X118000Y389000D02*X124500D01*
X97500D02*X104000D01*
X97500Y394000D02*X104000D01*
X97500Y399000D02*X104000D01*
X97500Y404000D02*X104000D01*
M02*
