G04 start of page 5 for group -4062 idx -4062 *
G04 Title: (unknown), soldermask *
G04 Creator: pcb 20091103 *
G04 CreationDate: Sun 20 Mar 2011 04:21:17 AM GMT UTC *
G04 For: gjhurlbu *
G04 Format: Gerber/RS-274X *
G04 PCB-Dimensions: 600000 500000 *
G04 PCB-Coordinate-Origin: lower left *
%MOIN*%
%FSLAX25Y25*%
%LNBACKMASK*%
%ADD12C,0.0200*%
%ADD19C,0.0660*%
%ADD22R,0.0230X0.0230*%
G54D12*G36*
X188700Y385300D02*Y378700D01*
X195300D01*
Y385300D01*
X188700D01*
G37*
G54D19*X192000Y372000D03*
Y362000D03*
Y352000D03*
Y342000D03*
Y332000D03*
G54D12*G36*
X170700Y375300D02*Y368700D01*
X177300D01*
Y375300D01*
X170700D01*
G37*
G54D19*X174000Y362000D03*
Y352000D03*
Y342000D03*
G54D12*G36*
X38700Y417300D02*Y410700D01*
X45300D01*
Y417300D01*
X38700D01*
G37*
G54D19*X52000Y414000D03*
X62000D03*
X72000D03*
X82000D03*
X92000D03*
X102000D03*
X112000D03*
G54D12*G36*
X38700Y305300D02*Y298700D01*
X45300D01*
Y305300D01*
X38700D01*
G37*
G54D19*X52000Y302000D03*
X62000D03*
X72000D03*
X82000D03*
X92000D03*
X102000D03*
X112000D03*
G54D22*X151236Y336378D02*Y331772D01*
X148677Y336378D02*Y331772D01*
X146118Y336378D02*Y331772D01*
X143559Y336378D02*Y331772D01*
X141000Y336378D02*Y331772D01*
X138441Y336378D02*Y331772D01*
X135882Y336378D02*Y331772D01*
Y359606D02*Y355000D01*
X138441Y359606D02*Y355000D01*
X141000Y359606D02*Y355000D01*
X143559Y359606D02*Y355000D01*
X146118Y359606D02*Y355000D01*
X148677Y359606D02*Y355000D01*
X151236Y359606D02*Y355000D01*
M02*
