G04 start of page 4 for group -4063 idx -4063 *
G04 Title: (unknown), componentmask *
G04 Creator: pcb 20091103 *
G04 CreationDate: Sat 19 Mar 2011 11:45:18 AM GMT UTC *
G04 For: gjhurlbu *
G04 Format: Gerber/RS-274X *
G04 PCB-Dimensions: 600000 500000 *
G04 PCB-Coordinate-Origin: lower left *
%MOIN*%
%FSLAX25Y25*%
%LNFRONTMASK*%
%ADD14C,0.0200*%
%ADD24C,0.0620*%
%ADD25C,0.1210*%
%ADD26C,0.0660*%
%ADD27R,0.0300X0.0300*%
%ADD28R,0.0572X0.0572*%
%ADD29R,0.0187X0.0187*%
G54D24*X70700Y409600D03*
Y399800D03*
Y382100D03*
G54D25*X60000Y370000D03*
G54D24*X81000Y409600D03*
G54D25*X82400Y421700D03*
X60000D03*
G54D24*X81000Y399800D03*
Y391900D03*
Y382100D03*
G54D25*X82400Y370000D03*
G54D14*G36*
X120700Y431300D02*Y424700D01*
X127300D01*
Y431300D01*
X120700D01*
G37*
G54D26*X124000Y418000D03*
X114000Y428000D03*
Y418000D03*
X104000Y428000D03*
Y418000D03*
G54D24*X70700Y391900D03*
G54D14*G36*
X193700Y375300D02*Y368700D01*
X200300D01*
Y375300D01*
X193700D01*
G37*
G54D26*X207000Y372000D03*
X217000D03*
X227000D03*
G54D27*X212500Y403000D02*Y396500D01*
X217500Y403000D02*Y396500D01*
X222500Y403000D02*Y396500D01*
X227500Y403000D02*Y396500D01*
G54D28*X237214Y414914D02*X238000D01*
G54D27*X217500Y423500D02*Y417000D01*
X212500Y423500D02*Y417000D01*
G54D28*X237214Y422000D02*X238000D01*
G54D27*X222500Y423500D02*Y417000D01*
X227500Y423500D02*Y417000D01*
G54D28*X94000Y427000D02*X94786D01*
X94000Y419914D02*X94786D01*
G54D27*X172000Y350500D02*X178500D01*
X172000Y355500D02*X178500D01*
X172000Y360500D02*X178500D01*
X172000Y365500D02*X178500D01*
X151500D02*X158000D01*
X151500Y360500D02*X158000D01*
X151500Y355500D02*X158000D01*
X151500Y350500D02*X158000D01*
G54D29*X180566Y395977D02*X184992D01*
X180566Y399126D02*X184992D01*
X180566Y402276D02*X184992D01*
X180566Y405425D02*X184992D01*
X180566Y408575D02*X184992D01*
X180566Y411725D02*X184992D01*
X180566Y414874D02*X184992D01*
X180566Y418024D02*X184992D01*
X152977Y390434D02*Y386008D01*
X156126Y390434D02*Y386008D01*
X159276Y390434D02*Y386008D01*
X162425Y390434D02*Y386008D01*
X165575Y390434D02*Y386008D01*
X168725Y390434D02*Y386008D01*
X171874Y390434D02*Y386008D01*
X175024Y390434D02*Y386008D01*
X175023Y427992D02*Y423566D01*
X171874Y427992D02*Y423566D01*
X168724Y427992D02*Y423566D01*
X165575Y427992D02*Y423566D01*
X162425Y427992D02*Y423566D01*
X159275Y427992D02*Y423566D01*
X156126Y427992D02*Y423566D01*
X152976Y427992D02*Y423566D01*
X143008Y418023D02*X147434D01*
X143008Y414874D02*X147434D01*
X143008Y411724D02*X147434D01*
X143008Y408575D02*X147434D01*
X143008Y405425D02*X147434D01*
X143008Y402275D02*X147434D01*
X143008Y399126D02*X147434D01*
X143008Y395976D02*X147434D01*
M02*
