G04 start of page 10 for group -4015 idx -4015 *
G04 Title: (unknown), toppaste *
G04 Creator: pcb 20091103 *
G04 CreationDate: Sat 19 Mar 2011 11:45:18 AM GMT UTC *
G04 For: gjhurlbu *
G04 Format: Gerber/RS-274X *
G04 PCB-Dimensions: 600000 500000 *
G04 PCB-Coordinate-Origin: lower left *
%MOIN*%
%FSLAX25Y25*%
%LNFRONTPASTE*%
%ADD17R,0.0200X0.0200*%
%ADD18R,0.0512X0.0512*%
%ADD19R,0.0157X0.0157*%
G54D17*X212500Y403000D02*Y396500D01*
X217500Y403000D02*Y396500D01*
X222500Y403000D02*Y396500D01*
X227500Y403000D02*Y396500D01*
Y423500D02*Y417000D01*
X222500Y423500D02*Y417000D01*
X217500Y423500D02*Y417000D01*
X212500Y423500D02*Y417000D01*
G54D18*X237214Y414914D02*X238000D01*
X237214Y422000D02*X238000D01*
X94000Y427000D02*X94786D01*
X94000Y419914D02*X94786D01*
G54D17*X172000Y350500D02*X178500D01*
X172000Y355500D02*X178500D01*
X172000Y360500D02*X178500D01*
X172000Y365500D02*X178500D01*
X151500D02*X158000D01*
X151500Y360500D02*X158000D01*
X151500Y355500D02*X158000D01*
X151500Y350500D02*X158000D01*
G54D19*X152977Y390434D02*Y386008D01*
X156126Y390434D02*Y386008D01*
X159276Y390434D02*Y386008D01*
X162425Y390434D02*Y386008D01*
X165575Y390434D02*Y386008D01*
X168725Y390434D02*Y386008D01*
X171874Y390434D02*Y386008D01*
X175024Y390434D02*Y386008D01*
X180566Y395977D02*X184992D01*
X180566Y399126D02*X184992D01*
X180566Y402276D02*X184992D01*
X180566Y405425D02*X184992D01*
X180566Y408575D02*X184992D01*
X180566Y411725D02*X184992D01*
X180566Y414874D02*X184992D01*
X180566Y418024D02*X184992D01*
X175023Y427992D02*Y423566D01*
X171874Y427992D02*Y423566D01*
X168724Y427992D02*Y423566D01*
X165575Y427992D02*Y423566D01*
X162425Y427992D02*Y423566D01*
X159275Y427992D02*Y423566D01*
X156126Y427992D02*Y423566D01*
X152976Y427992D02*Y423566D01*
X143008Y418023D02*X147434D01*
X143008Y414874D02*X147434D01*
X143008Y411724D02*X147434D01*
X143008Y408575D02*X147434D01*
X143008Y405425D02*X147434D01*
X143008Y402275D02*X147434D01*
X143008Y399126D02*X147434D01*
X143008Y395976D02*X147434D01*
M02*
