G04 start of page 5 for group -4062 idx -4062 *
G04 Title: (unknown), soldermask *
G04 Creator: pcb 20091103 *
G04 CreationDate: Sat 19 Mar 2011 11:45:18 AM GMT UTC *
G04 For: gjhurlbu *
G04 Format: Gerber/RS-274X *
G04 PCB-Dimensions: 600000 500000 *
G04 PCB-Coordinate-Origin: lower left *
%MOIN*%
%FSLAX25Y25*%
%LNBACKMASK*%
%ADD14C,0.0200*%
%ADD24C,0.0620*%
%ADD25C,0.1210*%
%ADD26C,0.0660*%
%ADD27R,0.0300X0.0300*%
%ADD28R,0.0572X0.0572*%
%ADD30R,0.0230X0.0230*%
%ADD31R,0.0210X0.0210*%
G54D24*X70700Y409600D03*
Y399800D03*
Y382100D03*
G54D25*X60000Y370000D03*
G54D24*X81000Y409600D03*
G54D25*X82400Y421700D03*
X60000D03*
G54D24*X81000Y399800D03*
Y391900D03*
Y382100D03*
G54D25*X82400Y370000D03*
G54D14*G36*
X120700Y431300D02*Y424700D01*
X127300D01*
Y431300D01*
X120700D01*
G37*
G54D26*X124000Y418000D03*
X114000Y428000D03*
Y418000D03*
X104000Y428000D03*
Y418000D03*
G54D24*X70700Y391900D03*
G54D14*G36*
X193700Y375300D02*Y368700D01*
X200300D01*
Y375300D01*
X193700D01*
G37*
G54D26*X207000Y372000D03*
X217000D03*
X227000D03*
G54D30*X206071Y399764D02*X210677D01*
X206071Y402323D02*X210677D01*
G54D28*X197000Y404000D02*X197786D01*
G54D30*X206071Y404882D02*X210677D01*
X206071Y407441D02*X210677D01*
X206071Y410000D02*X210677D01*
X206071Y412559D02*X210677D01*
X206071Y415118D02*X210677D01*
X229299Y410000D02*X233905D01*
X229299Y407441D02*X233905D01*
X229299Y404882D02*X233905D01*
X229299Y402323D02*X233905D01*
X229299Y399764D02*X233905D01*
G54D28*X197000Y396914D02*X197786D01*
G54D30*X229299Y415118D02*X233905D01*
X229299Y412559D02*X233905D01*
G54D28*X209000Y423000D02*Y422214D01*
X216086Y423000D02*Y422214D01*
X232086Y423000D02*Y422214D01*
X225000Y423000D02*Y422214D01*
X98607Y378543D02*X99393D01*
X98607Y371457D02*X99393D01*
X106607Y378543D02*X107393D01*
X106607Y371457D02*X107393D01*
G54D27*X118000Y404000D02*X124500D01*
X97500D02*X104000D01*
X118000Y399000D02*X124500D01*
X97500D02*X104000D01*
X118000Y394000D02*X124500D01*
X97500D02*X104000D01*
X118000Y389000D02*X124500D01*
X97500D02*X104000D01*
G54D31*X105100Y357000D02*Y355000D01*
X102500Y357000D02*Y355000D01*
X100000Y357000D02*Y355000D01*
Y364000D02*Y362000D01*
X102500Y364000D02*Y362000D01*
X105100Y364000D02*Y362000D01*
M02*
