G04 start of page 7 for group -4079 idx -4079 *
G04 Title: (unknown), topsilk *
G04 Creator: pcb 20091103 *
G04 CreationDate: Mon 21 Mar 2011 07:49:43 AM GMT UTC *
G04 For: gjhurlbu *
G04 Format: Gerber/RS-274X *
G04 PCB-Dimensions: 600000 500000 *
G04 PCB-Coordinate-Origin: lower left *
%MOIN*%
%FSLAX25Y25*%
%LNFRONTSILK*%
%ADD11C,0.0100*%
%ADD24C,0.0080*%
G54D11*X33000Y423000D02*X201000D01*
X33000D02*Y392000D01*
X108000D01*
Y324000D01*
X33000D01*
X201000Y293000D02*X33000D01*
X201000Y423000D02*Y293000D01*
X33000Y324000D02*Y293000D01*
X72000Y400500D02*Y397000D01*
Y400500D02*X72500Y401000D01*
X74000D01*
X74500Y400500D01*
Y397000D01*
X72000Y399000D02*X74500D01*
X76201D02*X77701D01*
X75701Y398500D02*X76201Y399000D01*
X75701Y398500D02*Y397500D01*
X76201Y397000D01*
X77701D01*
X79402Y399000D02*X80902D01*
X78902Y398500D02*X79402Y399000D01*
X78902Y398500D02*Y397500D01*
X79402Y397000D01*
X80902D01*
X82603D02*X84103D01*
X82103Y397500D02*X82603Y397000D01*
X82103Y398500D02*Y397500D01*
Y398500D02*X82603Y399000D01*
X83603D01*
X84103Y398500D01*
X82103Y398000D02*X84103D01*
Y398500D02*Y398000D01*
X85304Y401000D02*Y397500D01*
X85804Y397000D01*
X86805D02*X87305D01*
X92306Y401000D02*X92806Y400500D01*
X90806Y401000D02*X92306D01*
X90306Y400500D02*X90806Y401000D01*
X90306Y400500D02*Y399500D01*
X90806Y399000D01*
X92306D01*
X92806Y398500D01*
Y397500D01*
X92306Y397000D02*X92806Y397500D01*
X90806Y397000D02*X92306D01*
X90306Y397500D02*X90806Y397000D01*
X94507D02*X96007D01*
X94007Y397500D02*X94507Y397000D01*
X94007Y398500D02*Y397500D01*
Y398500D02*X94507Y399000D01*
X95507D01*
X96007Y398500D01*
X94007Y398000D02*X96007D01*
Y398500D02*Y398000D01*
X97708Y398500D02*Y397000D01*
Y398500D02*X98208Y399000D01*
X98708D01*
X99208Y398500D01*
Y397000D01*
X97208Y399000D02*X97708Y398500D01*
X100909Y397000D02*X102409D01*
X102909Y397500D01*
X102409Y398000D02*X102909Y397500D01*
X100909Y398000D02*X102409D01*
X100409Y398500D02*X100909Y398000D01*
X100409Y398500D02*X100909Y399000D01*
X102409D01*
X102909Y398500D01*
X100409Y397500D02*X100909Y397000D01*
X104110Y398500D02*Y397500D01*
Y398500D02*X104610Y399000D01*
X105610D01*
X106110Y398500D01*
Y397500D01*
X105610Y397000D02*X106110Y397500D01*
X104610Y397000D02*X105610D01*
X104110Y397500D02*X104610Y397000D01*
X107811Y398500D02*Y397000D01*
Y398500D02*X108311Y399000D01*
X109311D01*
X107311D02*X107811Y398500D01*
X58000Y403500D02*X58500Y403000D01*
X58000Y406500D02*X58500Y407000D01*
X58000Y406500D02*Y403500D01*
X60201Y405000D02*X61701D01*
X59701Y404500D02*X60201Y405000D01*
X59701Y404500D02*Y403500D01*
X60201Y403000D01*
X61701D01*
X62902Y407000D02*X63402Y406500D01*
Y403500D01*
X62902Y403000D02*X63402Y403500D01*
X66403Y406500D02*X66903Y407000D01*
X68403D01*
X68903Y406500D01*
Y405500D01*
X66403Y403000D02*X68903Y405500D01*
X66403Y403000D02*X68903D01*
X70104Y403500D02*X70604Y403000D01*
X70104Y406500D02*Y403500D01*
Y406500D02*X70604Y407000D01*
X71604D01*
X72104Y406500D01*
Y403500D01*
X71604Y403000D02*X72104Y403500D01*
X70604Y403000D02*X71604D01*
X70104Y404000D02*X72104Y406000D01*
X73805Y403000D02*X74805D01*
X74305Y407000D02*Y403000D01*
X73305Y406000D02*X74305Y407000D01*
X76506Y403000D02*X77506D01*
X77006Y407000D02*Y403000D01*
X76006Y406000D02*X77006Y407000D01*
X82507D02*X83007Y406500D01*
X81007Y407000D02*X82507D01*
X80507Y406500D02*X81007Y407000D01*
X80507Y406500D02*Y403500D01*
X81007Y403000D01*
X82507D01*
X83007Y403500D01*
Y404500D02*Y403500D01*
X82507Y405000D02*X83007Y404500D01*
X81507Y405000D02*X82507D01*
X85708D02*X86208Y404500D01*
X84708Y405000D02*X85708D01*
X84208Y404500D02*X84708Y405000D01*
X84208Y404500D02*Y403500D01*
X84708Y403000D01*
X86208Y405000D02*Y403500D01*
X86708Y403000D01*
X84708D02*X85708D01*
X86208Y403500D01*
X87909Y405000D02*Y404000D01*
X88909Y403000D01*
X89909Y404000D01*
Y405000D02*Y404000D01*
X91110Y406000D02*Y405500D01*
Y404500D02*Y403000D01*
X92611Y404500D02*Y403000D01*
Y404500D02*X93111Y405000D01*
X93611D01*
X94111Y404500D01*
Y403000D01*
X92111Y405000D02*X92611Y404500D01*
X97112Y407000D02*Y403000D01*
X99612Y407000D02*Y403000D01*
X97112Y405000D02*X99612D01*
X100813D02*Y403500D01*
X101313Y403000D01*
X102313D01*
X102813Y403500D01*
Y405000D02*Y403500D01*
X104514Y404500D02*Y403000D01*
Y404500D02*X105014Y405000D01*
X106014D01*
X104014D02*X104514Y404500D01*
X107215Y407000D02*Y403500D01*
X107715Y403000D01*
X108716Y407000D02*Y403000D01*
Y403500D02*X109216Y403000D01*
X110216D01*
X110716Y403500D01*
Y404500D02*Y403500D01*
X110216Y405000D02*X110716Y404500D01*
X109216Y405000D02*X110216D01*
X108716Y404500D02*X109216Y405000D01*
X111917D02*Y403500D01*
X112417Y403000D01*
X113417D01*
X113917Y403500D01*
Y405000D02*Y403500D01*
X115618Y407000D02*Y403500D01*
X116118Y403000D01*
X115118Y405500D02*X116118D01*
X93000Y315000D02*X95000D01*
X95500Y314500D01*
Y313500D01*
X95000Y313000D02*X95500Y313500D01*
X93500Y313000D02*X95000D01*
X93500Y315000D02*Y311000D01*
Y313000D02*X95500Y311000D01*
X97201D02*X98701D01*
X96701Y311500D02*X97201Y311000D01*
X96701Y312500D02*Y311500D01*
Y312500D02*X97201Y313000D01*
X98201D01*
X98701Y312500D01*
X96701Y312000D02*X98701D01*
Y312500D02*Y312000D01*
X99902Y313000D02*Y312000D01*
X100902Y311000D01*
X101902Y312000D01*
Y313000D02*Y312000D01*
X105403Y311000D02*X106403D01*
X105903Y315000D02*Y311000D01*
X104903Y314000D02*X105903Y315000D01*
X107604Y311000D02*X108104D01*
X109305Y311500D02*X109805Y311000D01*
X109305Y314500D02*Y311500D01*
Y314500D02*X109805Y315000D01*
X110805D01*
X111305Y314500D01*
Y311500D01*
X110805Y311000D02*X111305Y311500D01*
X109805Y311000D02*X110805D01*
X109305Y312000D02*X111305Y314000D01*
X187000Y387000D02*Y327000D01*
X197000D01*
Y387000D01*
X187000D01*
Y377000D02*X197000D01*
Y387000D01*
X157000Y393000D02*X197000D01*
Y403000D02*Y393000D01*
X157000Y403000D02*X197000D01*
X157000D02*Y393000D01*
X167000Y403000D02*Y393000D01*
X157000Y403000D02*X167000D01*
G54D24*X168852Y411850D02*Y411064D01*
X174362Y411850D02*Y411064D01*
X179638Y411936D02*Y411150D01*
X185148Y411936D02*Y411150D01*
G54D11*X136300Y406500D02*X150200D01*
Y419300D02*Y406500D01*
X136300Y419300D02*X150200D01*
X136300D02*Y406500D01*
Y390700D02*X150200D01*
Y403500D02*Y390700D01*
X136300Y403500D02*X150200D01*
X136300D02*Y390700D01*
X37000Y409000D02*X117000D01*
Y419000D02*Y409000D01*
X37000Y419000D02*X117000D01*
X37000D02*Y409000D01*
X47000Y419000D02*Y409000D01*
X37000Y419000D02*X47000D01*
X37000Y297000D02*X117000D01*
Y307000D02*Y297000D01*
X37000Y307000D02*X117000D01*
X37000D02*Y297000D01*
X47000Y307000D02*Y297000D01*
X37000Y307000D02*X47000D01*
X157000Y312000D02*X197000D01*
Y322000D02*Y312000D01*
X157000Y322000D02*X197000D01*
X157000D02*Y312000D01*
X167000Y322000D02*Y312000D01*
X157000Y322000D02*X167000D01*
X177000Y383000D02*Y331800D01*
X137600Y383000D02*X177000D01*
X137600Y331800D02*X177000D01*
X137600Y383000D02*Y331800D01*
X169000Y338000D02*Y335000D01*
X167500Y336500D02*X170500D01*
X145600Y338000D02*Y335000D01*
X138300Y312700D02*X152200D01*
Y325500D02*Y312700D01*
X138300Y325500D02*X152200D01*
X138300D02*Y312700D01*
Y297800D02*X152200D01*
Y310600D02*Y297800D01*
X138300Y310600D02*X152200D01*
X138300D02*Y297800D01*
G54D24*X185148Y304850D02*Y304064D01*
X179638Y304850D02*Y304064D01*
X175148Y304850D02*Y304064D01*
X169638Y304850D02*Y304064D01*
G54D11*X186636Y410936D02*X188636D01*
X189136Y410436D01*
Y409436D01*
X188636Y408936D02*X189136Y409436D01*
X187136Y408936D02*X188636D01*
X187136Y410936D02*Y406936D01*
Y408936D02*X189136Y406936D01*
X190337Y410436D02*X190837Y410936D01*
X192337D01*
X192837Y410436D01*
Y409436D01*
X190337Y406936D02*X192837Y409436D01*
X190337Y406936D02*X192837D01*
X181000Y385500D02*Y384000D01*
X181500Y386000D02*X181000Y385500D01*
X181500Y386000D02*X184500D01*
X185000Y385500D01*
Y384000D01*
X181500Y382799D02*X184500D01*
X185000Y382299D01*
Y381299D01*
X184500Y380799D01*
X181500D02*X184500D01*
X181000Y381299D02*X181500Y380799D01*
X181000Y382299D02*Y381299D01*
X181500Y382799D02*X181000Y382299D01*
Y379598D02*X185000D01*
X184500D02*X185000D01*
X184500D02*X182000Y377098D01*
X181000D02*X185000D01*
X181000Y375897D02*X185000D01*
X184500D02*X185000D01*
X184500D02*X182000Y373397D01*
X181000D02*X185000D01*
X184500Y372196D02*X185000Y371696D01*
Y370696D01*
X184500Y370196D01*
X181500D02*X184500D01*
X181000Y370696D02*X181500Y370196D01*
X181000Y371696D02*Y370696D01*
X181500Y372196D02*X181000Y371696D01*
X183000D02*Y370196D01*
X158500Y387000D02*X160000D01*
X158000Y387500D02*X158500Y387000D01*
X158000Y390500D02*Y387500D01*
Y390500D02*X158500Y391000D01*
X160000D01*
X161201Y390500D02*Y387500D01*
Y390500D02*X161701Y391000D01*
X162701D01*
X163201Y390500D01*
Y387500D01*
X162701Y387000D02*X163201Y387500D01*
X161701Y387000D02*X162701D01*
X161201Y387500D02*X161701Y387000D01*
X164402Y391000D02*Y387000D01*
Y391000D02*Y390500D01*
X166902Y388000D01*
Y391000D02*Y387000D01*
X168103Y391000D02*Y387000D01*
Y391000D02*Y390500D01*
X170603Y388000D01*
Y391000D02*Y387000D01*
X171804Y389000D02*X173804Y391000D01*
X171804Y389000D02*X174304D01*
X173804Y391000D02*Y387000D01*
X161329Y410479D02*X163329D01*
X163829Y409979D01*
Y408979D01*
X163329Y408479D02*X163829Y408979D01*
X161829Y408479D02*X163329D01*
X161829Y410479D02*Y406479D01*
Y408479D02*X163829Y406479D01*
X165530D02*X166530D01*
X166030Y410479D02*Y406479D01*
X165030Y409479D02*X166030Y410479D01*
X159500Y324000D02*X161000D01*
X159000Y324500D02*X159500Y324000D01*
X159000Y327500D02*Y324500D01*
Y327500D02*X159500Y328000D01*
X161000D01*
X162201Y327500D02*Y324500D01*
Y327500D02*X162701Y328000D01*
X163701D01*
X164201Y327500D01*
Y324500D01*
X163701Y324000D02*X164201Y324500D01*
X162701Y324000D02*X163701D01*
X162201Y324500D02*X162701Y324000D01*
X165402Y328000D02*Y324000D01*
Y328000D02*Y327500D01*
X167902Y325000D01*
Y328000D02*Y324000D01*
X169103Y328000D02*Y324000D01*
Y328000D02*Y327500D01*
X171603Y325000D01*
Y328000D02*Y324000D01*
X172804Y328000D02*X174804D01*
X172804D02*Y326000D01*
X173304Y326500D01*
X174304D01*
X174804Y326000D01*
Y324500D01*
X174304Y324000D02*X174804Y324500D01*
X173304Y324000D02*X174304D01*
X172804Y324500D02*X173304Y324000D01*
X38500Y403000D02*X40000D01*
X38000Y403500D02*X38500Y403000D01*
X38000Y406500D02*Y403500D01*
Y406500D02*X38500Y407000D01*
X40000D01*
X41201Y406500D02*Y403500D01*
Y406500D02*X41701Y407000D01*
X42701D01*
X43201Y406500D01*
Y403500D01*
X42701Y403000D02*X43201Y403500D01*
X41701Y403000D02*X42701D01*
X41201Y403500D02*X41701Y403000D01*
X44402Y407000D02*Y403000D01*
Y407000D02*Y406500D01*
X46902Y404000D01*
Y407000D02*Y403000D01*
X48103Y407000D02*Y403000D01*
Y407000D02*Y406500D01*
X50603Y404000D01*
Y407000D02*Y403000D01*
X52304D02*X53304D01*
X52804Y407000D02*Y403000D01*
X51804Y406000D02*X52804Y407000D01*
X37500Y309000D02*X39000D01*
X37000Y309500D02*X37500Y309000D01*
X37000Y312500D02*Y309500D01*
Y312500D02*X37500Y313000D01*
X39000D01*
X40201Y312500D02*Y309500D01*
Y312500D02*X40701Y313000D01*
X41701D01*
X42201Y312500D01*
Y309500D01*
X41701Y309000D02*X42201Y309500D01*
X40701Y309000D02*X41701D01*
X40201Y309500D02*X40701Y309000D01*
X43402Y313000D02*Y309000D01*
Y313000D02*Y312500D01*
X45902Y310000D01*
Y313000D02*Y309000D01*
X47103Y313000D02*Y309000D01*
Y313000D02*Y312500D01*
X49603Y310000D01*
Y313000D02*Y309000D01*
X50804Y312500D02*X51304Y313000D01*
X52804D01*
X53304Y312500D01*
Y311500D01*
X50804Y309000D02*X53304Y311500D01*
X50804Y309000D02*X53304D01*
X139000Y363000D02*Y361000D01*
X139500Y360500D01*
X140500D01*
X141000Y361000D02*X140500Y360500D01*
X141000Y362500D02*Y361000D01*
X139000Y362500D02*X143000D01*
Y363000D02*Y361000D01*
X142500Y360500D01*
X141500D02*X142500D01*
X141000Y361000D02*X141500Y360500D01*
X139000Y358799D02*Y357799D01*
Y358299D02*X143000D01*
X142000Y359299D02*X143000Y358299D01*
X128300Y414800D02*Y411800D01*
Y414800D02*X128800Y415300D01*
X129800D01*
X130300Y414800D01*
Y411800D01*
X129800Y411300D02*X130300Y411800D01*
X128800Y411300D02*X129800D01*
X128300Y411800D02*X128800Y411300D01*
X129300Y412300D02*X130300Y411300D01*
X132001D02*X133001D01*
X132501Y415300D02*Y411300D01*
X131501Y414300D02*X132501Y415300D01*
X128300Y398000D02*Y395000D01*
Y398000D02*X128800Y398500D01*
X129800D01*
X130300Y398000D01*
Y395000D01*
X129800Y394500D02*X130300Y395000D01*
X128800Y394500D02*X129800D01*
X128300Y395000D02*X128800Y394500D01*
X129300Y395500D02*X130300Y394500D01*
X131501Y398000D02*X132001Y398500D01*
X133501D01*
X134001Y398000D01*
Y397000D01*
X131501Y394500D02*X134001Y397000D01*
X131501Y394500D02*X134001D01*
X186722Y303364D02*X188722D01*
X189222Y302864D01*
Y301864D01*
X188722Y301364D02*X189222Y301864D01*
X187222Y301364D02*X188722D01*
X187222Y303364D02*Y299364D01*
Y301364D02*X189222Y299364D01*
X190423Y301364D02*X192423Y303364D01*
X190423Y301364D02*X192923D01*
X192423Y303364D02*Y299364D01*
X162122Y302850D02*X164122D01*
X164622Y302350D01*
Y301350D01*
X164122Y300850D02*X164622Y301350D01*
X162622Y300850D02*X164122D01*
X162622Y302850D02*Y298850D01*
Y300850D02*X164622Y298850D01*
X165823Y302350D02*X166323Y302850D01*
X167323D01*
X167823Y302350D01*
Y299350D01*
X167323Y298850D02*X167823Y299350D01*
X166323Y298850D02*X167323D01*
X165823Y299350D02*X166323Y298850D01*
Y300850D02*X167823D01*
X130300Y320000D02*Y317000D01*
Y320000D02*X130800Y320500D01*
X131800D01*
X132300Y320000D01*
Y317000D01*
X131800Y316500D02*X132300Y317000D01*
X130800Y316500D02*X131800D01*
X130300Y317000D02*X130800Y316500D01*
X131300Y317500D02*X132300Y316500D01*
X133501Y320000D02*X134001Y320500D01*
X135001D01*
X135501Y320000D01*
Y317000D01*
X135001Y316500D02*X135501Y317000D01*
X134001Y316500D02*X135001D01*
X133501Y317000D02*X134001Y316500D01*
Y318500D02*X135501D01*
X130300Y305100D02*Y302100D01*
Y305100D02*X130800Y305600D01*
X131800D01*
X132300Y305100D01*
Y302100D01*
X131800Y301600D02*X132300Y302100D01*
X130800Y301600D02*X131800D01*
X130300Y302100D02*X130800Y301600D01*
X131300Y302600D02*X132300Y301600D01*
X133501Y303600D02*X135501Y305600D01*
X133501Y303600D02*X136001D01*
X135501Y305600D02*Y301600D01*
M02*
