M48
INCH
T12C0.020
T18C0.038
%
T12
X015500Y041700
X019000Y041500
X017300Y036500
X015900Y036500
X014400Y036400
X015300Y034300
X016100Y034300
X016900Y034600
X016500Y038600
X013800Y038700
X015500Y032700
X019100Y030700
X013400Y031200
X013400Y032300
X013100Y034500
T18
X004200Y041400
X004200Y030200
X005200Y041400
X005200Y030200
X006200Y041400
X006200Y030200
X007200Y041400
X007200Y030200
X008200Y030200
X009200Y030200
X010200Y030200
X011200Y030200
X008200Y041400
X009200Y041400
X010200Y041400
X011200Y041400
X019200Y038200
X019200Y037200
X019200Y036200
X019200Y035200
X019200Y034200
X019200Y033200
X016200Y031700
X017200Y031700
X018200Y031700
X019200Y031700
X016200Y039800
X017200Y039800
X018200Y039800
X019200Y039800
M30
