G04 start of page 2 for group 0 idx 0 *
G04 Title: (unknown), component *
G04 Creator: pcb 20091103 *
G04 CreationDate: Mon 21 Mar 2011 07:49:43 AM GMT UTC *
G04 For: gjhurlbu *
G04 Format: Gerber/RS-274X *
G04 PCB-Dimensions: 600000 500000 *
G04 PCB-Coordinate-Origin: lower left *
%MOIN*%
%FSLAX25Y25*%
%LNFRONT*%
%ADD11C,0.0100*%
%ADD12C,0.0200*%
%ADD13C,0.0600*%
%ADD14C,0.0360*%
%ADD15R,0.0340X0.0340*%
%ADD16R,0.0512X0.0512*%
%ADD17R,0.0200X0.0200*%
%ADD18C,0.0380*%
G54D11*X147600Y416800D02*X154800D01*
X155000Y417000D01*
X171214Y415000D02*X181914D01*
X182000Y415086D01*
X189914D01*
X190000Y415000D01*
X182000Y398000D02*Y408000D01*
X159000D02*X171128D01*
X171214Y407914D01*
Y398786D01*
X172000Y398000D01*
X153800Y393200D02*X157000Y390000D01*
X181000D01*
X184000Y387000D01*
Y374000D01*
X186000Y372000D01*
X192000D01*
X147600Y401000D02*X152000D01*
X159000Y408000D01*
X147000Y409000D02*X145000D01*
X143000Y407000D01*
Y397200D01*
X147000Y393200D01*
X153800D01*
X138000Y391000D02*X139000Y392000D01*
Y396900D01*
X138800Y397100D01*
X133000Y413000D02*X138700D01*
X138800Y412900D01*
X138000Y387000D02*Y391000D01*
X131000Y345000D02*Y411000D01*
X133000Y413000D01*
X153600Y337700D02*Y342400D01*
X153000Y343000D01*
X161400Y337700D02*Y342600D01*
X161000Y343000D01*
X165000Y386000D02*Y350000D01*
X169000Y346000D01*
X183000Y330000D02*Y353000D01*
X192000Y362000D01*
X134000Y323000D02*Y383000D01*
X138000Y387000D01*
X62000Y302000D02*Y309000D01*
X64000Y311000D01*
X129000D01*
X52000Y302000D02*Y309000D01*
X58000Y315000D01*
X129000D01*
X133000Y319000D01*
X131000Y317000D02*X129000Y319000D01*
X133000D02*X140700D01*
X140800Y319100D01*
X149600Y323000D02*Y325600D01*
X151000Y327000D01*
X155000D01*
X129000Y311000D02*X136000Y304000D01*
X140600D01*
X140800Y304200D01*
X131000Y309000D02*X134000Y312000D01*
X129000Y319000D02*Y343000D01*
X131000Y345000D01*
X149600Y300300D02*X146700D01*
X149600Y308100D02*X171900D01*
X172000Y308000D01*
Y317000D01*
X146700Y300300D02*X145000Y302000D01*
Y311200D01*
X149000Y315200D01*
X153200D01*
X155000Y317000D01*
Y323000D01*
X156000Y324000D01*
X177000D01*
X183000Y330000D01*
X182000Y317000D02*Y308000D01*
X172000Y300914D02*X186914D01*
X187000Y301000D01*
X188000D01*
X191000Y304000D01*
Y307000D01*
G54D12*G36*
X39000Y417000D02*Y411000D01*
X45000D01*
Y417000D01*
X39000D01*
G37*
G36*
Y305000D02*Y299000D01*
X45000D01*
Y305000D01*
X39000D01*
G37*
G54D13*X52000Y414000D03*
Y302000D03*
X62000Y414000D03*
Y302000D03*
X72000Y414000D03*
Y302000D03*
X82000D03*
X92000D03*
X102000D03*
X112000D03*
X82000Y414000D03*
X92000D03*
X102000D03*
X112000D03*
G54D12*G36*
X189000Y385000D02*Y379000D01*
X195000D01*
Y385000D01*
X189000D01*
G37*
G54D13*X192000Y372000D03*
Y362000D03*
Y352000D03*
Y342000D03*
Y332000D03*
G54D12*G36*
X159000Y320000D02*Y314000D01*
X165000D01*
Y320000D01*
X159000D01*
G37*
G54D13*X172000Y317000D03*
X182000D03*
X192000D03*
G54D12*G36*
X159000Y401000D02*Y395000D01*
X165000D01*
Y401000D01*
X159000D01*
G37*
G54D13*X172000Y398000D03*
X182000D03*
X192000D03*
G54D14*X155000Y417000D03*
X190000Y415000D03*
X173000Y365000D03*
X159000D03*
X144000Y364000D03*
X153000Y343000D03*
X161000D03*
X169000Y346000D03*
X165000Y386000D03*
X138000Y387000D03*
X155000Y327000D03*
X191000Y307000D03*
X134000Y312000D03*
Y323000D03*
X131000Y345000D03*
G54D15*X147000Y393200D02*X147600D01*
X147000Y401000D02*X147600D01*
X147000Y409000D02*X147600D01*
X147000Y416800D02*X147600D01*
X138800Y412900D02*X139400D01*
X138800Y397100D02*X139400D01*
G54D16*X171214Y407914D02*X172000D01*
X171214Y415000D02*X172000D01*
X182000Y408000D02*X182786D01*
X182000Y415086D02*X182786D01*
G54D17*X161400Y337700D02*Y334600D01*
X153600Y337700D02*Y334600D01*
G54D16*X182000Y308000D02*X182786D01*
X182000Y300914D02*X182786D01*
X172000Y308000D02*X172786D01*
X172000Y300914D02*X172786D01*
G54D15*X149000Y315200D02*X149600D01*
X149000Y300300D02*X149600D01*
X149000Y308100D02*X149600D01*
X149000Y323000D02*X149600D01*
X140800Y319100D02*X141400D01*
X140800Y304200D02*X141400D01*
G54D18*G54D12*M02*
