G04 start of page 4 for group -4063 idx -4063 *
G04 Title: (unknown), componentmask *
G04 Creator: pcb 20091103 *
G04 CreationDate: Mon 21 Mar 2011 07:49:43 AM GMT UTC *
G04 For: gjhurlbu *
G04 Format: Gerber/RS-274X *
G04 PCB-Dimensions: 600000 500000 *
G04 PCB-Coordinate-Origin: lower left *
%MOIN*%
%FSLAX25Y25*%
%LNFRONTMASK*%
%ADD12C,0.0200*%
%ADD19C,0.0660*%
%ADD20R,0.0400X0.0400*%
%ADD21R,0.0572X0.0572*%
%ADD22R,0.0260X0.0260*%
G54D12*G36*
X38700Y417300D02*Y410700D01*
X45300D01*
Y417300D01*
X38700D01*
G37*
G36*
Y305300D02*Y298700D01*
X45300D01*
Y305300D01*
X38700D01*
G37*
G54D19*X52000Y414000D03*
Y302000D03*
X62000Y414000D03*
Y302000D03*
X72000Y414000D03*
Y302000D03*
X82000D03*
X92000D03*
X102000D03*
X112000D03*
X82000Y414000D03*
X92000D03*
X102000D03*
X112000D03*
G54D12*G36*
X188700Y385300D02*Y378700D01*
X195300D01*
Y385300D01*
X188700D01*
G37*
G54D19*X192000Y372000D03*
Y362000D03*
Y352000D03*
Y342000D03*
Y332000D03*
G54D12*G36*
X158700Y320300D02*Y313700D01*
X165300D01*
Y320300D01*
X158700D01*
G37*
G54D19*X172000Y317000D03*
X182000D03*
X192000D03*
G54D12*G36*
X158700Y401300D02*Y394700D01*
X165300D01*
Y401300D01*
X158700D01*
G37*
G54D19*X172000Y398000D03*
X182000D03*
X192000D03*
G54D20*X147000Y393200D02*X147600D01*
X147000Y401000D02*X147600D01*
X147000Y409000D02*X147600D01*
X147000Y416800D02*X147600D01*
X138800Y412900D02*X139400D01*
X138800Y397100D02*X139400D01*
G54D21*X171214Y407914D02*X172000D01*
X171214Y415000D02*X172000D01*
X182000Y408000D02*X182786D01*
X182000Y415086D02*X182786D01*
G54D22*X161400Y337700D02*Y334600D01*
X153600Y337700D02*Y334600D01*
G54D21*X182000Y308000D02*X182786D01*
X182000Y300914D02*X182786D01*
X172000Y308000D02*X172786D01*
X172000Y300914D02*X172786D01*
G54D20*X149000Y315200D02*X149600D01*
X149000Y300300D02*X149600D01*
X149000Y308100D02*X149600D01*
X149000Y323000D02*X149600D01*
X140800Y319100D02*X141400D01*
X140800Y304200D02*X141400D01*
M02*
