M48
INCH
T13C0.020
T16C0.036
T20C0.038
T21C0.091
%
T13
X017300Y040300
X017500Y036200
X017900Y035300
X017600Y038300
X017300Y034100
X018200Y038300
X017400Y032900
X016400Y040200
X016000Y040800
X017800Y033200
X017900Y033700
X008700Y032700
X012200Y035100
X012200Y034500
X012200Y033700
X011500Y034100
X004500Y032900
X004100Y037000
X007800Y037000
X007900Y036400
X005200Y037900
X011900Y036000
X012000Y036500
X011700Y035400
X011700Y037100
X011200Y037400
X010900Y037800
X008900Y038200
X008600Y037800
X012500Y036600
X013700Y036000
X014200Y036000
X012900Y037400
X014700Y036000
X016000Y035700
X015800Y038500
X014800Y038600
X016800Y038200
X016400Y037900
X013700Y034300
X014300Y033900
X013300Y033300
X012700Y032600
X013400Y032500
X015000Y031700
X015800Y034300
X015500Y033900
X015100Y034200
X014800Y033800
X016600Y033100
X013800Y033800
T16
X008830Y037220
X008830Y036240
X008830Y035450
X008830Y034470
X009860Y037220
X009860Y036240
X009860Y035450
X009860Y034470
T20
X008200Y041400
X009200Y041400
X010200Y041400
X011200Y041400
X006200Y041400
X007200Y041400
X009200Y030200
X010200Y030200
X011200Y030200
X004200Y030200
X005200Y030200
X006200Y030200
X007200Y030200
X008200Y030200
X004200Y041400
X005200Y041400
X015200Y040300
X015200Y039300
X014200Y040300
X014200Y039300
X013200Y040300
X013200Y039300
X019100Y038200
X019100Y037200
X019100Y036200
X019100Y035200
X019100Y034200
X019100Y033200
T21
X007760Y038430
X007760Y033260
X010000Y038430
X010000Y033260
M30
