G04 start of page 8 for group -4078 idx -4078 *
G04 Title: (unknown), bottomsilk *
G04 Creator: pcb 20091103 *
G04 CreationDate: Sun 20 Mar 2011 01:49:22 AM GMT UTC *
G04 For: gjhurlbu *
G04 Format: Gerber/RS-274X *
G04 PCB-Dimensions: 600000 500000 *
G04 PCB-Coordinate-Origin: lower left *
%MOIN*%
%FSLAX25Y25*%
%LNBACKSILK*%
%ADD11C,0.0100*%
%ADD30C,0.0080*%
G54D11*X62600Y374400D02*Y366400D01*
X74500D01*
Y374400D02*Y366400D01*
X62600Y374400D02*X74500D01*
G54D30*X51607Y375755D02*X52393D01*
X51607Y370245D02*X52393D01*
X51607Y368755D02*X52393D01*
X51607Y363245D02*X52393D01*
X84755Y316393D02*Y315607D01*
X79245Y316393D02*Y315607D01*
X39638Y316850D02*Y316064D01*
X45148Y316850D02*Y316064D01*
X59852Y316850D02*Y316064D01*
X65362Y316850D02*Y316064D01*
X49852Y316850D02*Y316064D01*
X55362Y316850D02*Y316064D01*
X68852D02*Y316850D01*
X74362Y316064D02*Y316850D01*
G54D11*X156000Y378000D02*Y365000D01*
Y360000D02*Y347000D01*
X137000Y378000D02*X156000D01*
X137000D02*Y347000D01*
X156000D01*
Y365000D02*G75*G03X156000Y360000I0J-2500D01*G01*
X65000Y376000D02*Y379500D01*
X65500Y380000D01*
X66500D01*
X67000Y379500D01*
Y376000D02*Y379500D01*
X68201Y376500D02*X68701Y376000D01*
X69701D01*
X70201Y376500D01*
Y379500D01*
X69701Y380000D02*X70201Y379500D01*
X68701Y380000D02*X69701D01*
X68201Y379500D02*X68701Y380000D01*
Y378000D02*X70201D01*
X55500Y382000D02*X57000D01*
X55000Y381500D02*X55500Y382000D01*
X55000Y378500D02*Y381500D01*
Y378500D02*X55500Y378000D01*
X57000D01*
X58701Y382000D02*X59701D01*
X59201Y378000D02*Y382000D01*
X58201Y379000D02*X59201Y378000D01*
X44393Y332457D02*Y334457D01*
X43893Y334957D01*
X42893D02*X43893D01*
X42393Y334457D02*X42893Y334957D01*
X42393Y332957D02*Y334457D01*
X40393Y332957D02*X44393D01*
X42393D02*X40393Y334957D01*
X44393Y337658D02*X43893Y338158D01*
X44393Y336658D02*Y337658D01*
X43893Y336158D02*X44393Y336658D01*
X40893Y336158D02*X43893D01*
X40893D02*X40393Y336658D01*
X42393Y337658D02*X41893Y338158D01*
X42393Y336158D02*Y337658D01*
X40393Y336658D02*Y337658D01*
X40893Y338158D01*
X41893D01*
X89000Y332000D02*Y334000D01*
X88500Y334500D01*
X87500D02*X88500D01*
X87000Y334000D02*X87500Y334500D01*
X87000Y332500D02*Y334000D01*
X85000Y332500D02*X89000D01*
X87000D02*X85000Y334500D01*
Y336201D02*Y337201D01*
Y336701D02*X89000D01*
X88000Y335701D02*X89000Y336701D01*
X48500Y362000D02*X50000D01*
X48000Y361500D02*X48500Y362000D01*
X48000Y358500D02*Y361500D01*
Y358500D02*X48500Y358000D01*
X50000D01*
X51201Y358500D02*X51701Y358000D01*
X53201D01*
X53701Y358500D01*
Y359500D01*
X51201Y362000D02*X53701Y359500D01*
X51201Y362000D02*X53701D01*
X53607Y332457D02*Y334457D01*
X53107Y334957D01*
X52107D02*X53107D01*
X51607Y334457D02*X52107Y334957D01*
X51607Y332957D02*Y334457D01*
X49607Y332957D02*X53607D01*
X51607D02*X49607Y334957D01*
X53607Y336158D02*Y338158D01*
X51607Y336158D02*X53607D01*
X51607D02*X52107Y336658D01*
Y337658D01*
X51607Y338158D01*
X50107D02*X51607D01*
X49607Y337658D02*X50107Y338158D01*
X49607Y336658D02*Y337658D01*
X50107Y336158D02*X49607Y336658D01*
X62607Y332457D02*Y334457D01*
X62107Y334957D01*
X61107D02*X62107D01*
X60607Y334457D02*X61107Y334957D01*
X60607Y332957D02*Y334457D01*
X58607Y332957D02*X62607D01*
X60607D02*X58607Y334957D01*
X60607Y336158D02*X62607Y338158D01*
X60607Y336158D02*Y338658D01*
X58607Y338158D02*X62607D01*
X70607Y332457D02*Y334457D01*
X70107Y334957D01*
X69107D02*X70107D01*
X68607Y334457D02*X69107Y334957D01*
X68607Y332957D02*Y334457D01*
X66607Y332957D02*X70607D01*
X68607D02*X66607Y334957D01*
X70107Y336158D02*X70607Y336658D01*
Y337658D01*
X70107Y338158D01*
X67107D02*X70107D01*
X66607Y337658D02*X67107Y338158D01*
X66607Y336658D02*Y337658D01*
X67107Y336158D02*X66607Y336658D01*
X68607D02*Y338158D01*
X148000Y360500D02*X151500D01*
X148000D02*X147500Y361000D01*
Y362000D01*
X148000Y362500D01*
X151500D01*
X147500Y364201D02*Y365201D01*
Y364701D02*X151500D01*
X150500Y363701D02*X151500Y364701D01*
M02*
