G04 start of page 4 for group -4063 idx -4063 *
G04 Title: (unknown), componentmask *
G04 Creator: pcb 20091103 *
G04 CreationDate: Sun 10 Apr 2011 10:44:47 AM GMT UTC *
G04 For: gjhurlbu *
G04 Format: Gerber/RS-274X *
G04 PCB-Dimensions: 600000 500000 *
G04 PCB-Coordinate-Origin: lower left *
%MOIN*%
%FSLAX25Y25*%
%LNFRONTMASK*%
%ADD12C,0.0200*%
%ADD23C,0.0660*%
%ADD24C,0.0620*%
%ADD25C,0.1210*%
%ADD26R,0.0572X0.0572*%
%ADD27R,0.0187X0.0187*%
%ADD28R,0.0300X0.0300*%
G54D12*G36*
X187700Y385300D02*Y378700D01*
X194300D01*
Y385300D01*
X187700D01*
G37*
G54D23*X191000Y372000D03*
G54D12*G36*
X148700Y406300D02*Y399700D01*
X155300D01*
Y406300D01*
X148700D01*
G37*
G54D23*X152000Y393000D03*
X142000Y403000D03*
Y393000D03*
X132000Y403000D03*
Y393000D03*
X72000Y302000D03*
X82000D03*
X92000D03*
X102000D03*
G54D12*G36*
X38700Y305300D02*Y298700D01*
X45300D01*
Y305300D01*
X38700D01*
G37*
G54D23*X52000Y302000D03*
X62000D03*
X112000D03*
X191000Y362000D03*
Y352000D03*
Y342000D03*
Y332000D03*
G54D24*X88300Y362400D03*
X98600D03*
Y354500D03*
Y344700D03*
G54D25*X100000Y332600D03*
X77600D03*
G54D24*X88300Y354500D03*
Y344700D03*
G54D12*G36*
X38700Y417300D02*Y410700D01*
X45300D01*
Y417300D01*
X38700D01*
G37*
G54D23*X52000Y414000D03*
X62000D03*
X72000D03*
X82000D03*
G54D25*X77600Y384300D03*
G54D23*X92000Y414000D03*
G54D24*X88300Y372200D03*
X98600D03*
G54D25*X100000Y384300D03*
G54D23*X102000Y414000D03*
X112000D03*
G54D26*X51000Y399000D02*Y398214D01*
X43914Y399000D02*Y398214D01*
G54D27*X164566Y337977D02*X168992D01*
X164566Y341126D02*X168992D01*
X164566Y344276D02*X168992D01*
X164566Y347425D02*X168992D01*
X164566Y350575D02*X168992D01*
X164566Y353725D02*X168992D01*
X164566Y356874D02*X168992D01*
X164566Y360024D02*X168992D01*
X159023Y369992D02*Y365566D01*
X155874Y369992D02*Y365566D01*
X152724Y369992D02*Y365566D01*
X149575Y369992D02*Y365566D01*
X146425Y369992D02*Y365566D01*
X143275Y369992D02*Y365566D01*
X140126Y369992D02*Y365566D01*
X136976Y369992D02*Y365566D01*
X127008Y360023D02*X131434D01*
X127008Y356874D02*X131434D01*
X127008Y353724D02*X131434D01*
X127008Y350575D02*X131434D01*
X127008Y347425D02*X131434D01*
X127008Y344275D02*X131434D01*
X127008Y341126D02*X131434D01*
X127008Y337976D02*X131434D01*
X136977Y332434D02*Y328008D01*
X140126Y332434D02*Y328008D01*
X143276Y332434D02*Y328008D01*
X146425Y332434D02*Y328008D01*
X149575Y332434D02*Y328008D01*
X152725Y332434D02*Y328008D01*
X155874Y332434D02*Y328008D01*
X159024Y332434D02*Y328008D01*
G54D28*X166000Y395000D02*Y388500D01*
Y415500D02*Y409000D01*
X171000Y395000D02*Y388500D01*
X176000Y395000D02*Y388500D01*
X181000Y395000D02*Y388500D01*
Y415500D02*Y409000D01*
X176000Y415500D02*Y409000D01*
X171000Y415500D02*Y409000D01*
M02*
