G04 start of page 11 for group -3984 idx -3984 *
G04 Title: (unknown), fab *
G04 Creator: pcb 20091103 *
G04 CreationDate: Sun 10 Apr 2011 10:44:47 AM GMT UTC *
G04 For: gjhurlbu *
G04 Format: Gerber/RS-274X *
G04 PCB-Dimensions: 600000 500000 *
G04 PCB-Coordinate-Origin: lower left *
%MOIN*%
%FSLAX25Y25*%
%LNFAB*%
%ADD11C,0.0100*%
%ADD30R,0.0080X0.0080*%
%ADD31C,0.0060*%
G54D30*X99200Y384300D02*G75*G03X100800Y384300I800J0D01*G01*
G75*G03X99200Y384300I-800J0D01*G01*
X76800D02*G75*G03X78400Y384300I800J0D01*G01*
G75*G03X76800Y384300I-800J0D01*G01*
X99200Y332600D02*G75*G03X100800Y332600I800J0D01*G01*
G75*G03X99200Y332600I-800J0D01*G01*
X76800D02*G75*G03X78400Y332600I800J0D01*G01*
G75*G03X76800Y332600I-800J0D01*G01*
X14200Y511250D02*G75*G03X15800Y511250I800J0D01*G01*
G75*G03X14200Y511250I-800J0D01*G01*
G54D31*X135000Y513500D02*Y512750D01*
X136500Y511250D01*
X138000Y512750D01*
Y513500D02*Y512750D01*
X136500Y511250D02*Y507500D01*
X139801Y510500D02*X142051D01*
X139801Y507500D02*X142801D01*
X139801Y513500D02*Y507500D01*
Y513500D02*X142801D01*
X147603D02*X148353Y512750D01*
X145353Y513500D02*X147603D01*
X144603Y512750D02*X145353Y513500D01*
X144603Y512750D02*Y511250D01*
X145353Y510500D01*
X147603D01*
X148353Y509750D01*
Y508250D01*
X147603Y507500D02*X148353Y508250D01*
X145353Y507500D02*X147603D01*
X144603Y508250D02*X145353Y507500D01*
X135000Y504249D02*X150154D01*
X98000Y510500D02*X101000Y513500D01*
X98000Y510500D02*X101750D01*
X101000Y513500D02*Y507500D01*
X98000Y504249D02*X103551D01*
X45000Y508250D02*X45750Y507500D01*
X45000Y512750D02*Y508250D01*
Y512750D02*X45750Y513500D01*
X47250D01*
X48000Y512750D01*
Y508250D01*
X47250Y507500D02*X48000Y508250D01*
X45750Y507500D02*X47250D01*
X45000Y509000D02*X48000Y512000D01*
X49801Y507500D02*X50551D01*
X52353Y508250D02*X53103Y507500D01*
X52353Y512750D02*Y508250D01*
Y512750D02*X53103Y513500D01*
X54603D01*
X55353Y512750D01*
Y508250D01*
X54603Y507500D02*X55353Y508250D01*
X53103Y507500D02*X54603D01*
X52353Y509000D02*X55353Y512000D01*
X57154Y507500D02*X60154Y510500D01*
Y512750D02*Y510500D01*
X59404Y513500D02*X60154Y512750D01*
X57904Y513500D02*X59404D01*
X57154Y512750D02*X57904Y513500D01*
X57154Y512750D02*Y511250D01*
X57904Y510500D01*
X60154D01*
X62706Y507500D02*X64206D01*
X63456Y513500D02*Y507500D01*
X61956Y512000D02*X63456Y513500D01*
X45000Y504249D02*X66007D01*
X150800Y404200D02*X153200Y401800D01*
X150800D02*X153200Y404200D01*
X150800Y394200D02*X153200Y391800D01*
X150800D02*X153200Y394200D01*
X140800Y404200D02*X143200Y401800D01*
X140800D02*X143200Y404200D01*
X140800Y394200D02*X143200Y391800D01*
X140800D02*X143200Y394200D01*
X130800Y404200D02*X133200Y401800D01*
X130800D02*X133200Y404200D01*
X130800Y394200D02*X133200Y391800D01*
X130800D02*X133200Y394200D01*
X40800Y415200D02*X43200Y412800D01*
X40800D02*X43200Y415200D01*
X50800D02*X53200Y412800D01*
X50800D02*X53200Y415200D01*
X60800D02*X63200Y412800D01*
X60800D02*X63200Y415200D01*
X70800D02*X73200Y412800D01*
X70800D02*X73200Y415200D01*
X80800D02*X83200Y412800D01*
X80800D02*X83200Y415200D01*
X90800D02*X93200Y412800D01*
X90800D02*X93200Y415200D01*
X100800D02*X103200Y412800D01*
X100800D02*X103200Y415200D01*
X110800D02*X113200Y412800D01*
X110800D02*X113200Y415200D01*
X189800Y383200D02*X192200Y380800D01*
X189800D02*X192200Y383200D01*
X189800Y373200D02*X192200Y370800D01*
X189800D02*X192200Y373200D01*
X189800Y363200D02*X192200Y360800D01*
X189800D02*X192200Y363200D01*
X189800Y353200D02*X192200Y350800D01*
X189800D02*X192200Y353200D01*
X189800Y343200D02*X192200Y340800D01*
X189800D02*X192200Y343200D01*
X189800Y333200D02*X192200Y330800D01*
X189800D02*X192200Y333200D01*
X40800Y303200D02*X43200Y300800D01*
X40800D02*X43200Y303200D01*
X50800D02*X53200Y300800D01*
X50800D02*X53200Y303200D01*
X60800D02*X63200Y300800D01*
X60800D02*X63200Y303200D01*
X70800D02*X73200Y300800D01*
X70800D02*X73200Y303200D01*
X80800D02*X83200Y300800D01*
X80800D02*X83200Y303200D01*
X90800D02*X93200Y300800D01*
X90800D02*X93200Y303200D01*
X100800D02*X103200Y300800D01*
X100800D02*X103200Y303200D01*
X110800D02*X113200Y300800D01*
X110800D02*X113200Y303200D01*
X13800Y527450D02*X16200Y525050D01*
X13800D02*X16200Y527450D01*
X135000Y528500D02*Y527750D01*
X136500Y526250D01*
X138000Y527750D01*
Y528500D02*Y527750D01*
X136500Y526250D02*Y522500D01*
X139801Y525500D02*X142051D01*
X139801Y522500D02*X142801D01*
X139801Y528500D02*Y522500D01*
Y528500D02*X142801D01*
X147603D02*X148353Y527750D01*
X145353Y528500D02*X147603D01*
X144603Y527750D02*X145353Y528500D01*
X144603Y527750D02*Y526250D01*
X145353Y525500D01*
X147603D01*
X148353Y524750D01*
Y523250D01*
X147603Y522500D02*X148353Y523250D01*
X145353Y522500D02*X147603D01*
X144603Y523250D02*X145353Y522500D01*
X135000Y519249D02*X150154D01*
X98000Y527750D02*X98750Y528500D01*
X101000D01*
X101750Y527750D01*
Y526250D01*
X98000Y522500D02*X101750Y526250D01*
X98000Y522500D02*X101750D01*
X103551Y523250D02*X104301Y522500D01*
X103551Y524750D02*Y523250D01*
Y524750D02*X104301Y525500D01*
X105801D01*
X106551Y524750D01*
Y523250D01*
X105801Y522500D02*X106551Y523250D01*
X104301Y522500D02*X105801D01*
X103551Y526250D02*X104301Y525500D01*
X103551Y527750D02*Y526250D01*
Y527750D02*X104301Y528500D01*
X105801D01*
X106551Y527750D01*
Y526250D01*
X105801Y525500D02*X106551Y526250D01*
X98000Y519249D02*X108353D01*
X45000Y523250D02*X45750Y522500D01*
X45000Y527750D02*Y523250D01*
Y527750D02*X45750Y528500D01*
X47250D01*
X48000Y527750D01*
Y523250D01*
X47250Y522500D02*X48000Y523250D01*
X45750Y522500D02*X47250D01*
X45000Y524000D02*X48000Y527000D01*
X49801Y522500D02*X50551D01*
X52353Y523250D02*X53103Y522500D01*
X52353Y527750D02*Y523250D01*
Y527750D02*X53103Y528500D01*
X54603D01*
X55353Y527750D01*
Y523250D01*
X54603Y522500D02*X55353Y523250D01*
X53103Y522500D02*X54603D01*
X52353Y524000D02*X55353Y527000D01*
X57154Y527750D02*X57904Y528500D01*
X59404D01*
X60154Y527750D01*
Y523250D01*
X59404Y522500D02*X60154Y523250D01*
X57904Y522500D02*X59404D01*
X57154Y523250D02*X57904Y522500D01*
Y525500D02*X60154D01*
X61956Y523250D02*X62706Y522500D01*
X61956Y524750D02*Y523250D01*
Y524750D02*X62706Y525500D01*
X64206D01*
X64956Y524750D01*
Y523250D01*
X64206Y522500D02*X64956Y523250D01*
X62706Y522500D02*X64206D01*
X61956Y526250D02*X62706Y525500D01*
X61956Y527750D02*Y526250D01*
Y527750D02*X62706Y528500D01*
X64206D01*
X64956Y527750D01*
Y526250D01*
X64206Y525500D02*X64956Y526250D01*
X45000Y519249D02*X66757D01*
X88300Y373800D02*Y370600D01*
X86700Y372200D02*X89900D01*
X88300Y364000D02*Y360800D01*
X86700Y362400D02*X89900D01*
X88300Y356100D02*Y352900D01*
X86700Y354500D02*X89900D01*
X88300Y346300D02*Y343100D01*
X86700Y344700D02*X89900D01*
X98600Y373800D02*Y370600D01*
X97000Y372200D02*X100200D01*
X98600Y364000D02*Y360800D01*
X97000Y362400D02*X100200D01*
X98600Y356100D02*Y352900D01*
X97000Y354500D02*X100200D01*
X98600Y346300D02*Y343100D01*
X97000Y344700D02*X100200D01*
X15000Y542850D02*Y539650D01*
X13400Y541250D02*X16600D01*
X135000Y543500D02*Y542750D01*
X136500Y541250D01*
X138000Y542750D01*
Y543500D02*Y542750D01*
X136500Y541250D02*Y537500D01*
X139801Y540500D02*X142051D01*
X139801Y537500D02*X142801D01*
X139801Y543500D02*Y537500D01*
Y543500D02*X142801D01*
X147603D02*X148353Y542750D01*
X145353Y543500D02*X147603D01*
X144603Y542750D02*X145353Y543500D01*
X144603Y542750D02*Y541250D01*
X145353Y540500D01*
X147603D01*
X148353Y539750D01*
Y538250D01*
X147603Y537500D02*X148353Y538250D01*
X145353Y537500D02*X147603D01*
X144603Y538250D02*X145353Y537500D01*
X135000Y534249D02*X150154D01*
X98000Y538250D02*X98750Y537500D01*
X98000Y539750D02*Y538250D01*
Y539750D02*X98750Y540500D01*
X100250D01*
X101000Y539750D01*
Y538250D01*
X100250Y537500D02*X101000Y538250D01*
X98750Y537500D02*X100250D01*
X98000Y541250D02*X98750Y540500D01*
X98000Y542750D02*Y541250D01*
Y542750D02*X98750Y543500D01*
X100250D01*
X101000Y542750D01*
Y541250D01*
X100250Y540500D02*X101000Y541250D01*
X98000Y534249D02*X102801D01*
X45000Y538250D02*X45750Y537500D01*
X45000Y542750D02*Y538250D01*
Y542750D02*X45750Y543500D01*
X47250D01*
X48000Y542750D01*
Y538250D01*
X47250Y537500D02*X48000Y538250D01*
X45750Y537500D02*X47250D01*
X45000Y539000D02*X48000Y542000D01*
X49801Y537500D02*X50551D01*
X52353Y538250D02*X53103Y537500D01*
X52353Y542750D02*Y538250D01*
Y542750D02*X53103Y543500D01*
X54603D01*
X55353Y542750D01*
Y538250D01*
X54603Y537500D02*X55353Y538250D01*
X53103Y537500D02*X54603D01*
X52353Y539000D02*X55353Y542000D01*
X57154Y542750D02*X57904Y543500D01*
X59404D01*
X60154Y542750D01*
Y538250D01*
X59404Y537500D02*X60154Y538250D01*
X57904Y537500D02*X59404D01*
X57154Y538250D02*X57904Y537500D01*
Y540500D02*X60154D01*
X64206Y543500D02*X64956Y542750D01*
X62706Y543500D02*X64206D01*
X61956Y542750D02*X62706Y543500D01*
X61956Y542750D02*Y538250D01*
X62706Y537500D01*
X64206Y540500D02*X64956Y539750D01*
X61956Y540500D02*X64206D01*
X62706Y537500D02*X64206D01*
X64956Y538250D01*
Y539750D02*Y538250D01*
X45000Y534249D02*X66757D01*
X57761Y355664D02*Y354064D01*
Y355664D02*X59147Y356464D01*
X57761Y355664D02*X56375Y356464D01*
X160000Y357000D02*Y355400D01*
Y357000D02*X161386Y357800D01*
X160000Y357000D02*X158614Y357800D01*
X130439Y327201D02*Y325601D01*
Y327201D02*X131825Y328001D01*
X130439Y327201D02*X129053Y328001D01*
X137000Y343000D02*Y341400D01*
Y343000D02*X138386Y343800D01*
X137000Y343000D02*X135614Y343800D01*
X87000Y327000D02*Y325400D01*
Y327000D02*X88386Y327800D01*
X87000Y327000D02*X85614Y327800D01*
X160648Y390832D02*Y389232D01*
Y390832D02*X162034Y391632D01*
X160648Y390832D02*X159262Y391632D01*
X51730Y376598D02*Y374998D01*
Y376598D02*X53116Y377398D01*
X51730Y376598D02*X50344Y377398D01*
X40730Y367598D02*Y365998D01*
Y367598D02*X42116Y368398D01*
X40730Y367598D02*X39344Y368398D01*
X173000Y403000D02*Y401400D01*
Y403000D02*X174386Y403800D01*
X173000Y403000D02*X171614Y403800D01*
X125507Y378913D02*Y377313D01*
Y378913D02*X126893Y379713D01*
X125507Y378913D02*X124121Y379713D01*
X122000Y345000D02*Y343400D01*
Y345000D02*X123386Y345800D01*
X122000Y345000D02*X120614Y345800D01*
X117008Y353840D02*Y352240D01*
Y353840D02*X118394Y354640D01*
X117008Y353840D02*X115622Y354640D01*
X128983Y373945D02*Y372345D01*
Y373945D02*X130369Y374745D01*
X128983Y373945D02*X127597Y374745D01*
X175314Y347542D02*Y345942D01*
Y347542D02*X176700Y348342D01*
X175314Y347542D02*X173928Y348342D01*
X184024Y358092D02*Y356492D01*
Y358092D02*X185410Y358892D01*
X184024Y358092D02*X182638Y358892D01*
X104226Y353933D02*Y352333D01*
Y353933D02*X105612Y354733D01*
X104226Y353933D02*X102840Y354733D01*
X157730Y338750D02*Y337150D01*
Y338750D02*X159116Y339550D01*
X157730Y338750D02*X156344Y339550D01*
X153884Y342047D02*Y340447D01*
Y342047D02*X155270Y342847D01*
X153884Y342047D02*X152498Y342847D01*
X150587Y338338D02*Y336738D01*
Y338338D02*X151973Y339138D01*
X150587Y338338D02*X149201Y339138D01*
X125450Y383883D02*Y382283D01*
Y383883D02*X126836Y384683D01*
X125450Y383883D02*X124064Y384683D01*
X141957Y359821D02*Y358221D01*
Y359821D02*X143343Y360621D01*
X141957Y359821D02*X140571Y360621D01*
X170897Y371935D02*Y370335D01*
Y371935D02*X172283Y372735D01*
X170897Y371935D02*X169511Y372735D01*
X115105Y337831D02*Y336231D01*
Y337831D02*X116491Y338631D01*
X115105Y337831D02*X113719Y338631D01*
X110640Y341036D02*Y339436D01*
Y341036D02*X112026Y341836D01*
X110640Y341036D02*X109254Y341836D01*
X133000Y333000D02*Y331400D01*
Y333000D02*X134386Y333800D01*
X133000Y333000D02*X131614Y333800D01*
X112043Y325769D02*Y324169D01*
Y325769D02*X113429Y326569D01*
X112043Y325769D02*X110657Y326569D01*
X137000Y360000D02*Y358400D01*
Y360000D02*X138386Y360800D01*
X137000Y360000D02*X135614Y360800D01*
X178000Y332000D02*Y330400D01*
Y332000D02*X179386Y332800D01*
X178000Y332000D02*X176614Y332800D01*
X176962Y353998D02*Y352398D01*
Y353998D02*X178348Y354798D01*
X176962Y353998D02*X175576Y354798D01*
X148742Y386332D02*Y384732D01*
Y386332D02*X150128Y387132D01*
X148742Y386332D02*X147356Y387132D01*
X174000Y329000D02*Y327400D01*
Y329000D02*X175386Y329800D01*
X174000Y329000D02*X172614Y329800D01*
X179000Y337000D02*Y335400D01*
Y337000D02*X180386Y337800D01*
X179000Y337000D02*X177614Y337800D01*
X176064Y375512D02*Y373912D01*
Y375512D02*X177450Y376312D01*
X176064Y375512D02*X174678Y376312D01*
X171056Y382826D02*Y381226D01*
Y382826D02*X172442Y383626D01*
X171056Y382826D02*X169670Y383626D01*
X48578Y355867D02*Y354267D01*
Y355867D02*X49964Y356667D01*
X48578Y355867D02*X47192Y356667D01*
X82524Y366941D02*Y365341D01*
Y366941D02*X83910Y367741D01*
X82524Y366941D02*X81138Y367741D01*
X159020Y386489D02*Y384889D01*
Y386489D02*X160406Y387289D01*
X159020Y386489D02*X157634Y387289D01*
X156692Y382840D02*Y381240D01*
Y382840D02*X158078Y383640D01*
X156692Y382840D02*X155306Y383640D01*
X176064Y382746D02*Y381146D01*
Y382746D02*X177450Y383546D01*
X176064Y382746D02*X174678Y383546D01*
X166047Y382746D02*Y381146D01*
Y382746D02*X167433Y383546D01*
X166047Y382746D02*X164661Y383546D01*
X173000Y341000D02*Y339400D01*
Y341000D02*X174386Y341800D01*
X173000Y341000D02*X171614Y341800D01*
X120194Y404027D02*Y402427D01*
Y404027D02*X121580Y404827D01*
X120194Y404027D02*X118808Y404827D01*
X147089Y359432D02*Y357832D01*
Y359432D02*X148475Y360232D01*
X147089Y359432D02*X145703Y360232D01*
X15000Y556250D02*Y554650D01*
Y556250D02*X16386Y557050D01*
X15000Y556250D02*X13614Y557050D01*
X135000Y558500D02*Y557750D01*
X136500Y556250D01*
X138000Y557750D01*
Y558500D02*Y557750D01*
X136500Y556250D02*Y552500D01*
X139801Y555500D02*X142051D01*
X139801Y552500D02*X142801D01*
X139801Y558500D02*Y552500D01*
Y558500D02*X142801D01*
X147603D02*X148353Y557750D01*
X145353Y558500D02*X147603D01*
X144603Y557750D02*X145353Y558500D01*
X144603Y557750D02*Y556250D01*
X145353Y555500D01*
X147603D01*
X148353Y554750D01*
Y553250D01*
X147603Y552500D02*X148353Y553250D01*
X145353Y552500D02*X147603D01*
X144603Y553250D02*X145353Y552500D01*
X135000Y549249D02*X150154D01*
X98000Y555500D02*X101000Y558500D01*
X98000Y555500D02*X101750D01*
X101000Y558500D02*Y552500D01*
X103551Y557750D02*X104301Y558500D01*
X105801D01*
X106551Y557750D01*
Y553250D01*
X105801Y552500D02*X106551Y553250D01*
X104301Y552500D02*X105801D01*
X103551Y553250D02*X104301Y552500D01*
Y555500D02*X106551D01*
X98000Y549249D02*X108353D01*
X45000Y553250D02*X45750Y552500D01*
X45000Y557750D02*Y553250D01*
Y557750D02*X45750Y558500D01*
X47250D01*
X48000Y557750D01*
Y553250D01*
X47250Y552500D02*X48000Y553250D01*
X45750Y552500D02*X47250D01*
X45000Y554000D02*X48000Y557000D01*
X49801Y552500D02*X50551D01*
X52353Y553250D02*X53103Y552500D01*
X52353Y557750D02*Y553250D01*
Y557750D02*X53103Y558500D01*
X54603D01*
X55353Y557750D01*
Y553250D01*
X54603Y552500D02*X55353Y553250D01*
X53103Y552500D02*X54603D01*
X52353Y554000D02*X55353Y557000D01*
X57154Y557750D02*X57904Y558500D01*
X60154D01*
X60904Y557750D01*
Y556250D01*
X57154Y552500D02*X60904Y556250D01*
X57154Y552500D02*X60904D01*
X62706Y553250D02*X63456Y552500D01*
X62706Y557750D02*Y553250D01*
Y557750D02*X63456Y558500D01*
X64956D01*
X65706Y557750D01*
Y553250D01*
X64956Y552500D02*X65706Y553250D01*
X63456Y552500D02*X64956D01*
X62706Y554000D02*X65706Y557000D01*
X45000Y549249D02*X67507D01*
X3000Y573500D02*X3750Y572750D01*
X750Y573500D02*X3000D01*
X0Y572750D02*X750Y573500D01*
X0Y572750D02*Y571250D01*
X750Y570500D01*
X3000D01*
X3750Y569750D01*
Y568250D01*
X3000Y567500D02*X3750Y568250D01*
X750Y567500D02*X3000D01*
X0Y568250D02*X750Y567500D01*
X5551Y570500D02*Y568250D01*
X6301Y567500D01*
X8551Y570500D02*Y566000D01*
X7801Y565250D02*X8551Y566000D01*
X6301Y565250D02*X7801D01*
X5551Y566000D02*X6301Y565250D01*
Y567500D02*X7801D01*
X8551Y568250D01*
X11103Y569750D02*Y567500D01*
Y569750D02*X11853Y570500D01*
X12603D01*
X13353Y569750D01*
Y567500D01*
Y569750D02*X14103Y570500D01*
X14853D01*
X15603Y569750D01*
Y567500D01*
X10353Y570500D02*X11103Y569750D01*
X17404Y573500D02*Y567500D01*
Y568250D02*X18154Y567500D01*
X19654D01*
X20404Y568250D01*
Y569750D02*Y568250D01*
X19654Y570500D02*X20404Y569750D01*
X18154Y570500D02*X19654D01*
X17404Y569750D02*X18154Y570500D01*
X22206Y569750D02*Y568250D01*
Y569750D02*X22956Y570500D01*
X24456D01*
X25206Y569750D01*
Y568250D01*
X24456Y567500D02*X25206Y568250D01*
X22956Y567500D02*X24456D01*
X22206Y568250D02*X22956Y567500D01*
X27007Y573500D02*Y568250D01*
X27757Y567500D01*
X41750Y573500D02*Y567500D01*
X44000Y573500D02*X44750Y572750D01*
Y568250D01*
X44000Y567500D02*X44750Y568250D01*
X41000Y567500D02*X44000D01*
X41000Y573500D02*X44000D01*
X46551Y572000D02*Y571250D01*
Y569750D02*Y567500D01*
X50303Y570500D02*X51053Y569750D01*
X48803Y570500D02*X50303D01*
X48053Y569750D02*X48803Y570500D01*
X48053Y569750D02*Y568250D01*
X48803Y567500D01*
X51053Y570500D02*Y568250D01*
X51803Y567500D01*
X48803D02*X50303D01*
X51053Y568250D01*
X54354Y569750D02*Y567500D01*
Y569750D02*X55104Y570500D01*
X55854D01*
X56604Y569750D01*
Y567500D01*
Y569750D02*X57354Y570500D01*
X58104D01*
X58854Y569750D01*
Y567500D01*
X53604Y570500D02*X54354Y569750D01*
X60656Y567500D02*X61406D01*
X65907Y568250D02*X66657Y567500D01*
X65907Y572750D02*X66657Y573500D01*
X65907Y572750D02*Y568250D01*
X68459Y573500D02*X69959D01*
X69209D02*Y567500D01*
X68459D02*X69959D01*
X72510Y569750D02*Y567500D01*
Y569750D02*X73260Y570500D01*
X74010D01*
X74760Y569750D01*
Y567500D01*
X71760Y570500D02*X72510Y569750D01*
X77312Y570500D02*X79562D01*
X76562Y569750D02*X77312Y570500D01*
X76562Y569750D02*Y568250D01*
X77312Y567500D01*
X79562D01*
X81363Y573500D02*Y567500D01*
Y569750D02*X82113Y570500D01*
X83613D01*
X84363Y569750D01*
Y567500D01*
X86165Y573500D02*X86915Y572750D01*
Y568250D01*
X86165Y567500D02*X86915Y568250D01*
X95750Y567500D02*X98000D01*
X95000Y568250D02*X95750Y567500D01*
X95000Y572750D02*Y568250D01*
Y572750D02*X95750Y573500D01*
X98000D01*
X99801Y569750D02*Y568250D01*
Y569750D02*X100551Y570500D01*
X102051D01*
X102801Y569750D01*
Y568250D01*
X102051Y567500D02*X102801Y568250D01*
X100551Y567500D02*X102051D01*
X99801Y568250D02*X100551Y567500D01*
X104603Y570500D02*Y568250D01*
X105353Y567500D01*
X106853D01*
X107603Y568250D01*
Y570500D02*Y568250D01*
X110154Y569750D02*Y567500D01*
Y569750D02*X110904Y570500D01*
X111654D01*
X112404Y569750D01*
Y567500D01*
X109404Y570500D02*X110154Y569750D01*
X114956Y573500D02*Y568250D01*
X115706Y567500D01*
X114206Y571250D02*X115706D01*
X130750Y573500D02*Y567500D01*
X130000Y573500D02*X133000D01*
X133750Y572750D01*
Y571250D01*
X133000Y570500D02*X133750Y571250D01*
X130750Y570500D02*X133000D01*
X135551Y573500D02*Y568250D01*
X136301Y567500D01*
X140053Y570500D02*X140803Y569750D01*
X138553Y570500D02*X140053D01*
X137803Y569750D02*X138553Y570500D01*
X137803Y569750D02*Y568250D01*
X138553Y567500D01*
X140803Y570500D02*Y568250D01*
X141553Y567500D01*
X138553D02*X140053D01*
X140803Y568250D01*
X144104Y573500D02*Y568250D01*
X144854Y567500D01*
X143354Y571250D02*X144854D01*
X147106Y567500D02*X149356D01*
X146356Y568250D02*X147106Y567500D01*
X146356Y569750D02*Y568250D01*
Y569750D02*X147106Y570500D01*
X148606D01*
X149356Y569750D01*
X146356Y569000D02*X149356D01*
Y569750D02*Y569000D01*
X154157Y573500D02*Y567500D01*
X153407D02*X154157Y568250D01*
X151907Y567500D02*X153407D01*
X151157Y568250D02*X151907Y567500D01*
X151157Y569750D02*Y568250D01*
Y569750D02*X151907Y570500D01*
X153407D01*
X154157Y569750D01*
X157459Y570500D02*Y569750D01*
Y568250D02*Y567500D01*
X155959Y572750D02*Y572000D01*
Y572750D02*X156709Y573500D01*
X158209D01*
X158959Y572750D01*
Y572000D01*
X157459Y570500D02*X158959Y572000D01*
X0Y588500D02*X3000D01*
X1500D02*Y582500D01*
X4801Y588500D02*Y582500D01*
Y584750D02*X5551Y585500D01*
X7051D01*
X7801Y584750D01*
Y582500D01*
X10353D02*X12603D01*
X9603Y583250D02*X10353Y582500D01*
X9603Y584750D02*Y583250D01*
Y584750D02*X10353Y585500D01*
X11853D01*
X12603Y584750D01*
X9603Y584000D02*X12603D01*
Y584750D02*Y584000D01*
X15154Y584750D02*Y582500D01*
Y584750D02*X15904Y585500D01*
X17404D01*
X14404D02*X15154Y584750D01*
X19956Y582500D02*X22206D01*
X19206Y583250D02*X19956Y582500D01*
X19206Y584750D02*Y583250D01*
Y584750D02*X19956Y585500D01*
X21456D01*
X22206Y584750D01*
X19206Y584000D02*X22206D01*
Y584750D02*Y584000D01*
X28957Y585500D02*X29707Y584750D01*
X27457Y585500D02*X28957D01*
X26707Y584750D02*X27457Y585500D01*
X26707Y584750D02*Y583250D01*
X27457Y582500D01*
X29707Y585500D02*Y583250D01*
X30457Y582500D01*
X27457D02*X28957D01*
X29707Y583250D01*
X33009Y584750D02*Y582500D01*
Y584750D02*X33759Y585500D01*
X35259D01*
X32259D02*X33009Y584750D01*
X37810Y582500D02*X40060D01*
X37060Y583250D02*X37810Y582500D01*
X37060Y584750D02*Y583250D01*
Y584750D02*X37810Y585500D01*
X39310D01*
X40060Y584750D01*
X37060Y584000D02*X40060D01*
Y584750D02*Y584000D01*
X44562Y585500D02*X47562Y588500D01*
X44562Y585500D02*X48312D01*
X47562Y588500D02*Y582500D01*
X55813Y588500D02*Y582500D01*
X55063D02*X55813Y583250D01*
X53563Y582500D02*X55063D01*
X52813Y583250D02*X53563Y582500D01*
X52813Y584750D02*Y583250D01*
Y584750D02*X53563Y585500D01*
X55063D01*
X55813Y584750D01*
X57615Y587000D02*Y586250D01*
Y584750D02*Y582500D01*
X59866Y587750D02*Y582500D01*
Y587750D02*X60616Y588500D01*
X61366D01*
X59116Y585500D02*X60616D01*
X63618Y587750D02*Y582500D01*
Y587750D02*X64368Y588500D01*
X65118D01*
X62868Y585500D02*X64368D01*
X67369Y582500D02*X69619D01*
X66619Y583250D02*X67369Y582500D01*
X66619Y584750D02*Y583250D01*
Y584750D02*X67369Y585500D01*
X68869D01*
X69619Y584750D01*
X66619Y584000D02*X69619D01*
Y584750D02*Y584000D01*
X72171Y584750D02*Y582500D01*
Y584750D02*X72921Y585500D01*
X74421D01*
X71421D02*X72171Y584750D01*
X76972Y582500D02*X79222D01*
X76222Y583250D02*X76972Y582500D01*
X76222Y584750D02*Y583250D01*
Y584750D02*X76972Y585500D01*
X78472D01*
X79222Y584750D01*
X76222Y584000D02*X79222D01*
Y584750D02*Y584000D01*
X81774Y584750D02*Y582500D01*
Y584750D02*X82524Y585500D01*
X83274D01*
X84024Y584750D01*
Y582500D01*
X81024Y585500D02*X81774Y584750D01*
X86575Y588500D02*Y583250D01*
X87325Y582500D01*
X85825Y586250D02*X87325D01*
X94527Y588500D02*Y582500D01*
X93777D02*X94527Y583250D01*
X92277Y582500D02*X93777D01*
X91527Y583250D02*X92277Y582500D01*
X91527Y584750D02*Y583250D01*
Y584750D02*X92277Y585500D01*
X93777D01*
X94527Y584750D01*
X97078D02*Y582500D01*
Y584750D02*X97828Y585500D01*
X99328D01*
X96328D02*X97078Y584750D01*
X101130Y587000D02*Y586250D01*
Y584750D02*Y582500D01*
X102631Y588500D02*Y583250D01*
X103381Y582500D01*
X104883Y588500D02*Y583250D01*
X105633Y582500D01*
X110584D02*X112834D01*
X113584Y583250D01*
X112834Y584000D02*X113584Y583250D01*
X110584Y584000D02*X112834D01*
X109834Y584750D02*X110584Y584000D01*
X109834Y584750D02*X110584Y585500D01*
X112834D01*
X113584Y584750D01*
X109834Y583250D02*X110584Y582500D01*
X115386Y587000D02*Y586250D01*
Y584750D02*Y582500D01*
X116887Y585500D02*X119887D01*
X116887Y582500D02*X119887Y585500D01*
X116887Y582500D02*X119887D01*
X122439D02*X124689D01*
X121689Y583250D02*X122439Y582500D01*
X121689Y584750D02*Y583250D01*
Y584750D02*X122439Y585500D01*
X123939D01*
X124689Y584750D01*
X121689Y584000D02*X124689D01*
Y584750D02*Y584000D01*
X127240Y582500D02*X129490D01*
X130240Y583250D01*
X129490Y584000D02*X130240Y583250D01*
X127240Y584000D02*X129490D01*
X126490Y584750D02*X127240Y584000D01*
X126490Y584750D02*X127240Y585500D01*
X129490D01*
X130240Y584750D01*
X126490Y583250D02*X127240Y582500D01*
X134742Y585500D02*Y583250D01*
X135492Y582500D01*
X136992D01*
X137742Y583250D01*
Y585500D02*Y583250D01*
X140293Y582500D02*X142543D01*
X143293Y583250D01*
X142543Y584000D02*X143293Y583250D01*
X140293Y584000D02*X142543D01*
X139543Y584750D02*X140293Y584000D01*
X139543Y584750D02*X140293Y585500D01*
X142543D01*
X143293Y584750D01*
X139543Y583250D02*X140293Y582500D01*
X145845D02*X148095D01*
X145095Y583250D02*X145845Y582500D01*
X145095Y584750D02*Y583250D01*
Y584750D02*X145845Y585500D01*
X147345D01*
X148095Y584750D01*
X145095Y584000D02*X148095D01*
Y584750D02*Y584000D01*
X152896Y588500D02*Y582500D01*
X152146D02*X152896Y583250D01*
X150646Y582500D02*X152146D01*
X149896Y583250D02*X150646Y582500D01*
X149896Y584750D02*Y583250D01*
Y584750D02*X150646Y585500D01*
X152146D01*
X152896Y584750D01*
X157398Y587000D02*Y586250D01*
Y584750D02*Y582500D01*
X159649Y584750D02*Y582500D01*
Y584750D02*X160399Y585500D01*
X161149D01*
X161899Y584750D01*
Y582500D01*
X158899Y585500D02*X159649Y584750D01*
X167151Y588500D02*Y583250D01*
X167901Y582500D01*
X166401Y586250D02*X167901D01*
X169402Y588500D02*Y582500D01*
Y584750D02*X170152Y585500D01*
X171652D01*
X172402Y584750D01*
Y582500D01*
X174204Y587000D02*Y586250D01*
Y584750D02*Y582500D01*
X176455D02*X178705D01*
X179455Y583250D01*
X178705Y584000D02*X179455Y583250D01*
X176455Y584000D02*X178705D01*
X175705Y584750D02*X176455Y584000D01*
X175705Y584750D02*X176455Y585500D01*
X178705D01*
X179455Y584750D01*
X175705Y583250D02*X176455Y582500D01*
X183957Y588500D02*Y583250D01*
X184707Y582500D01*
X188458Y585500D02*X189208Y584750D01*
X186958Y585500D02*X188458D01*
X186208Y584750D02*X186958Y585500D01*
X186208Y584750D02*Y583250D01*
X186958Y582500D01*
X189208Y585500D02*Y583250D01*
X189958Y582500D01*
X186958D02*X188458D01*
X189208Y583250D01*
X191760Y585500D02*Y583250D01*
X192510Y582500D01*
X194760Y585500D02*Y581000D01*
X194010Y580250D02*X194760Y581000D01*
X192510Y580250D02*X194010D01*
X191760Y581000D02*X192510Y580250D01*
Y582500D02*X194010D01*
X194760Y583250D01*
X196561Y584750D02*Y583250D01*
Y584750D02*X197311Y585500D01*
X198811D01*
X199561Y584750D01*
Y583250D01*
X198811Y582500D02*X199561Y583250D01*
X197311Y582500D02*X198811D01*
X196561Y583250D02*X197311Y582500D01*
X201363Y585500D02*Y583250D01*
X202113Y582500D01*
X203613D01*
X204363Y583250D01*
Y585500D02*Y583250D01*
X206914Y588500D02*Y583250D01*
X207664Y582500D01*
X206164Y586250D02*X207664D01*
X209166Y581000D02*X210666Y582500D01*
X215167Y583250D02*X215917Y582500D01*
X215167Y584750D02*Y583250D01*
Y584750D02*X215917Y585500D01*
X217417D01*
X218167Y584750D01*
Y583250D01*
X217417Y582500D02*X218167Y583250D01*
X215917Y582500D02*X217417D01*
X215167Y586250D02*X215917Y585500D01*
X215167Y587750D02*Y586250D01*
Y587750D02*X215917Y588500D01*
X217417D01*
X218167Y587750D01*
Y586250D01*
X217417Y585500D02*X218167Y586250D01*
X219969Y587750D02*X220719Y588500D01*
X222219D01*
X222969Y587750D01*
Y583250D01*
X222219Y582500D02*X222969Y583250D01*
X220719Y582500D02*X222219D01*
X219969Y583250D02*X220719Y582500D01*
Y585500D02*X222969D01*
X227470Y588500D02*Y582500D01*
Y584750D02*X228220Y585500D01*
X229720D01*
X230470Y584750D01*
Y582500D01*
X232272Y584750D02*Y583250D01*
Y584750D02*X233022Y585500D01*
X234522D01*
X235272Y584750D01*
Y583250D01*
X234522Y582500D02*X235272Y583250D01*
X233022Y582500D02*X234522D01*
X232272Y583250D02*X233022Y582500D01*
X237073Y588500D02*Y583250D01*
X237823Y582500D01*
X240075D02*X242325D01*
X239325Y583250D02*X240075Y582500D01*
X239325Y584750D02*Y583250D01*
Y584750D02*X240075Y585500D01*
X241575D01*
X242325Y584750D01*
X239325Y584000D02*X242325D01*
Y584750D02*Y584000D01*
X244876Y582500D02*X247126D01*
X247876Y583250D01*
X247126Y584000D02*X247876Y583250D01*
X244876Y584000D02*X247126D01*
X244126Y584750D02*X244876Y584000D01*
X244126Y584750D02*X244876Y585500D01*
X247126D01*
X247876Y584750D01*
X244126Y583250D02*X244876Y582500D01*
X253128Y588500D02*Y583250D01*
X253878Y582500D01*
X252378Y586250D02*X253878D01*
X255379Y584750D02*Y583250D01*
Y584750D02*X256129Y585500D01*
X257629D01*
X258379Y584750D01*
Y583250D01*
X257629Y582500D02*X258379Y583250D01*
X256129Y582500D02*X257629D01*
X255379Y583250D02*X256129Y582500D01*
X260931Y588500D02*Y583250D01*
X261681Y582500D01*
X260181Y586250D02*X261681D01*
X265432Y585500D02*X266182Y584750D01*
X263932Y585500D02*X265432D01*
X263182Y584750D02*X263932Y585500D01*
X263182Y584750D02*Y583250D01*
X263932Y582500D01*
X266182Y585500D02*Y583250D01*
X266932Y582500D01*
X263932D02*X265432D01*
X266182Y583250D01*
X268734Y588500D02*Y583250D01*
X269484Y582500D01*
G54D11*X0Y500000D02*X600000D01*
X0D02*Y0D01*
X600000Y500000D02*Y0D01*
X0D02*X600000D01*
G54D31*X200000Y513500D02*Y507500D01*
Y513500D02*X202250Y511250D01*
X204500Y513500D01*
Y507500D01*
X208551Y510500D02*X209301Y509750D01*
X207051Y510500D02*X208551D01*
X206301Y509750D02*X207051Y510500D01*
X206301Y509750D02*Y508250D01*
X207051Y507500D01*
X209301Y510500D02*Y508250D01*
X210051Y507500D01*
X207051D02*X208551D01*
X209301Y508250D01*
X211853Y510500D02*X214853Y507500D01*
X211853D02*X214853Y510500D01*
X216654Y512000D02*Y511250D01*
Y509750D02*Y507500D01*
X218906Y509750D02*Y507500D01*
Y509750D02*X219656Y510500D01*
X220406D01*
X221156Y509750D01*
Y507500D01*
Y509750D02*X221906Y510500D01*
X222656D01*
X223406Y509750D01*
Y507500D01*
X218156Y510500D02*X218906Y509750D01*
X225207Y510500D02*Y508250D01*
X225957Y507500D01*
X227457D01*
X228207Y508250D01*
Y510500D02*Y508250D01*
X230759Y509750D02*Y507500D01*
Y509750D02*X231509Y510500D01*
X232259D01*
X233009Y509750D01*
Y507500D01*
Y509750D02*X233759Y510500D01*
X234509D01*
X235259Y509750D01*
Y507500D01*
X230009Y510500D02*X230759Y509750D01*
X240510Y513500D02*Y507500D01*
X242760Y513500D02*X243510Y512750D01*
Y508250D01*
X242760Y507500D02*X243510Y508250D01*
X239760Y507500D02*X242760D01*
X239760Y513500D02*X242760D01*
X245312Y512000D02*Y511250D01*
Y509750D02*Y507500D01*
X247563Y509750D02*Y507500D01*
Y509750D02*X248313Y510500D01*
X249063D01*
X249813Y509750D01*
Y507500D01*
Y509750D02*X250563Y510500D01*
X251313D01*
X252063Y509750D01*
Y507500D01*
X246813Y510500D02*X247563Y509750D01*
X254615Y507500D02*X256865D01*
X253865Y508250D02*X254615Y507500D01*
X253865Y509750D02*Y508250D01*
Y509750D02*X254615Y510500D01*
X256115D01*
X256865Y509750D01*
X253865Y509000D02*X256865D01*
Y509750D02*Y509000D01*
X259416Y509750D02*Y507500D01*
Y509750D02*X260166Y510500D01*
X260916D01*
X261666Y509750D01*
Y507500D01*
X258666Y510500D02*X259416Y509750D01*
X264218Y507500D02*X266468D01*
X267218Y508250D01*
X266468Y509000D02*X267218Y508250D01*
X264218Y509000D02*X266468D01*
X263468Y509750D02*X264218Y509000D01*
X263468Y509750D02*X264218Y510500D01*
X266468D01*
X267218Y509750D01*
X263468Y508250D02*X264218Y507500D01*
X269019Y512000D02*Y511250D01*
Y509750D02*Y507500D01*
X270521Y509750D02*Y508250D01*
Y509750D02*X271271Y510500D01*
X272771D01*
X273521Y509750D01*
Y508250D01*
X272771Y507500D02*X273521Y508250D01*
X271271Y507500D02*X272771D01*
X270521Y508250D02*X271271Y507500D01*
X276072Y509750D02*Y507500D01*
Y509750D02*X276822Y510500D01*
X277572D01*
X278322Y509750D01*
Y507500D01*
X275322Y510500D02*X276072Y509750D01*
X280874Y507500D02*X283124D01*
X283874Y508250D01*
X283124Y509000D02*X283874Y508250D01*
X280874Y509000D02*X283124D01*
X280124Y509750D02*X280874Y509000D01*
X280124Y509750D02*X280874Y510500D01*
X283124D01*
X283874Y509750D01*
X280124Y508250D02*X280874Y507500D01*
X285675Y511250D02*X286425D01*
X285675Y509750D02*X286425D01*
X293177Y513500D02*X293927Y512750D01*
X291677Y513500D02*X293177D01*
X290927Y512750D02*X291677Y513500D01*
X290927Y512750D02*Y508250D01*
X291677Y507500D01*
X293177Y510500D02*X293927Y509750D01*
X290927Y510500D02*X293177D01*
X291677Y507500D02*X293177D01*
X293927Y508250D01*
Y509750D02*Y508250D01*
X295728D02*X296478Y507500D01*
X295728Y512750D02*Y508250D01*
Y512750D02*X296478Y513500D01*
X297978D01*
X298728Y512750D01*
Y508250D01*
X297978Y507500D02*X298728Y508250D01*
X296478Y507500D02*X297978D01*
X295728Y509000D02*X298728Y512000D01*
X300530Y508250D02*X301280Y507500D01*
X300530Y512750D02*Y508250D01*
Y512750D02*X301280Y513500D01*
X302780D01*
X303530Y512750D01*
Y508250D01*
X302780Y507500D02*X303530Y508250D01*
X301280Y507500D02*X302780D01*
X300530Y509000D02*X303530Y512000D01*
X305331Y508250D02*X306081Y507500D01*
X305331Y512750D02*Y508250D01*
Y512750D02*X306081Y513500D01*
X307581D01*
X308331Y512750D01*
Y508250D01*
X307581Y507500D02*X308331Y508250D01*
X306081Y507500D02*X307581D01*
X305331Y509000D02*X308331Y512000D01*
X313583Y509750D02*Y507500D01*
Y509750D02*X314333Y510500D01*
X315083D01*
X315833Y509750D01*
Y507500D01*
Y509750D02*X316583Y510500D01*
X317333D01*
X318083Y509750D01*
Y507500D01*
X312833Y510500D02*X313583Y509750D01*
X319884Y512000D02*Y511250D01*
Y509750D02*Y507500D01*
X321386Y513500D02*Y508250D01*
X322136Y507500D01*
X324387D02*X326637D01*
X327387Y508250D01*
X326637Y509000D02*X327387Y508250D01*
X324387Y509000D02*X326637D01*
X323637Y509750D02*X324387Y509000D01*
X323637Y509750D02*X324387Y510500D01*
X326637D01*
X327387Y509750D01*
X323637Y508250D02*X324387Y507500D01*
X331889Y510500D02*Y508250D01*
X332639Y507500D01*
X333389D01*
X334139Y508250D01*
Y510500D02*Y508250D01*
X334889Y507500D01*
X335639D01*
X336389Y508250D01*
Y510500D02*Y508250D01*
X338190Y512000D02*Y511250D01*
Y509750D02*Y507500D01*
X342692Y513500D02*Y507500D01*
X341942D02*X342692Y508250D01*
X340442Y507500D02*X341942D01*
X339692Y508250D02*X340442Y507500D01*
X339692Y509750D02*Y508250D01*
Y509750D02*X340442Y510500D01*
X341942D01*
X342692Y509750D01*
X345243Y507500D02*X347493D01*
X344493Y508250D02*X345243Y507500D01*
X344493Y509750D02*Y508250D01*
Y509750D02*X345243Y510500D01*
X346743D01*
X347493Y509750D01*
X344493Y509000D02*X347493D01*
Y509750D02*Y509000D01*
X349295Y506000D02*X350795Y507500D01*
X355296Y513500D02*X358296D01*
X355296D02*Y510500D01*
X356046Y511250D01*
X357546D01*
X358296Y510500D01*
Y508250D01*
X357546Y507500D02*X358296Y508250D01*
X356046Y507500D02*X357546D01*
X355296Y508250D02*X356046Y507500D01*
X360098Y508250D02*X360848Y507500D01*
X360098Y512750D02*Y508250D01*
Y512750D02*X360848Y513500D01*
X362348D01*
X363098Y512750D01*
Y508250D01*
X362348Y507500D02*X363098Y508250D01*
X360848Y507500D02*X362348D01*
X360098Y509000D02*X363098Y512000D01*
X364899Y508250D02*X365649Y507500D01*
X364899Y512750D02*Y508250D01*
Y512750D02*X365649Y513500D01*
X367149D01*
X367899Y512750D01*
Y508250D01*
X367149Y507500D02*X367899Y508250D01*
X365649Y507500D02*X367149D01*
X364899Y509000D02*X367899Y512000D01*
X369701Y508250D02*X370451Y507500D01*
X369701Y512750D02*Y508250D01*
Y512750D02*X370451Y513500D01*
X371951D01*
X372701Y512750D01*
Y508250D01*
X371951Y507500D02*X372701Y508250D01*
X370451Y507500D02*X371951D01*
X369701Y509000D02*X372701Y512000D01*
X377952Y509750D02*Y507500D01*
Y509750D02*X378702Y510500D01*
X379452D01*
X380202Y509750D01*
Y507500D01*
Y509750D02*X380952Y510500D01*
X381702D01*
X382452Y509750D01*
Y507500D01*
X377202Y510500D02*X377952Y509750D01*
X384254Y512000D02*Y511250D01*
Y509750D02*Y507500D01*
X385755Y513500D02*Y508250D01*
X386505Y507500D01*
X388757D02*X391007D01*
X391757Y508250D01*
X391007Y509000D02*X391757Y508250D01*
X388757Y509000D02*X391007D01*
X388007Y509750D02*X388757Y509000D01*
X388007Y509750D02*X388757Y510500D01*
X391007D01*
X391757Y509750D01*
X388007Y508250D02*X388757Y507500D01*
X396258Y513500D02*Y507500D01*
Y509750D02*X397008Y510500D01*
X398508D01*
X399258Y509750D01*
Y507500D01*
X401060Y512000D02*Y511250D01*
Y509750D02*Y507500D01*
X404811Y510500D02*X405561Y509750D01*
X403311Y510500D02*X404811D01*
X402561Y509750D02*X403311Y510500D01*
X402561Y509750D02*Y508250D01*
X403311Y507500D01*
X404811D01*
X405561Y508250D01*
X402561Y506000D02*X403311Y505250D01*
X404811D01*
X405561Y506000D01*
Y510500D02*Y506000D01*
X407363Y513500D02*Y507500D01*
Y509750D02*X408113Y510500D01*
X409613D01*
X410363Y509750D01*
Y507500D01*
X142226Y-9500D02*X145226D01*
X145976Y-8750D01*
Y-7250D02*Y-8750D01*
X145226Y-6500D02*X145976Y-7250D01*
X142976Y-6500D02*X145226D01*
X142976Y-3500D02*Y-9500D01*
X142226Y-3500D02*X145226D01*
X145976Y-4250D01*
Y-5750D01*
X145226Y-6500D02*X145976Y-5750D01*
X147777Y-7250D02*Y-8750D01*
Y-7250D02*X148527Y-6500D01*
X150027D01*
X150777Y-7250D01*
Y-8750D01*
X150027Y-9500D02*X150777Y-8750D01*
X148527Y-9500D02*X150027D01*
X147777Y-8750D02*X148527Y-9500D01*
X154829Y-6500D02*X155579Y-7250D01*
X153329Y-6500D02*X154829D01*
X152579Y-7250D02*X153329Y-6500D01*
X152579Y-7250D02*Y-8750D01*
X153329Y-9500D01*
X155579Y-6500D02*Y-8750D01*
X156329Y-9500D01*
X153329D02*X154829D01*
X155579Y-8750D01*
X158880Y-7250D02*Y-9500D01*
Y-7250D02*X159630Y-6500D01*
X161130D01*
X158130D02*X158880Y-7250D01*
X165932Y-3500D02*Y-9500D01*
X165182D02*X165932Y-8750D01*
X163682Y-9500D02*X165182D01*
X162932Y-8750D02*X163682Y-9500D01*
X162932Y-7250D02*Y-8750D01*
Y-7250D02*X163682Y-6500D01*
X165182D01*
X165932Y-7250D01*
X170433D02*Y-8750D01*
Y-7250D02*X171183Y-6500D01*
X172683D01*
X173433Y-7250D01*
Y-8750D01*
X172683Y-9500D02*X173433Y-8750D01*
X171183Y-9500D02*X172683D01*
X170433Y-8750D02*X171183Y-9500D01*
X175235Y-6500D02*Y-8750D01*
X175985Y-9500D01*
X177485D01*
X178235Y-8750D01*
Y-6500D02*Y-8750D01*
X180786Y-3500D02*Y-8750D01*
X181536Y-9500D01*
X180036Y-5750D02*X181536D01*
X183038Y-3500D02*Y-8750D01*
X183788Y-9500D01*
X185289Y-5000D02*Y-5750D01*
Y-7250D02*Y-9500D01*
X187541Y-7250D02*Y-9500D01*
Y-7250D02*X188291Y-6500D01*
X189041D01*
X189791Y-7250D01*
Y-9500D01*
X186791Y-6500D02*X187541Y-7250D01*
X192342Y-9500D02*X194592D01*
X191592Y-8750D02*X192342Y-9500D01*
X191592Y-7250D02*Y-8750D01*
Y-7250D02*X192342Y-6500D01*
X193842D01*
X194592Y-7250D01*
X191592Y-8000D02*X194592D01*
Y-7250D02*Y-8000D01*
X199094Y-5000D02*Y-5750D01*
Y-7250D02*Y-9500D01*
X201345D02*X203595D01*
X204345Y-8750D01*
X203595Y-8000D02*X204345Y-8750D01*
X201345Y-8000D02*X203595D01*
X200595Y-7250D02*X201345Y-8000D01*
X200595Y-7250D02*X201345Y-6500D01*
X203595D01*
X204345Y-7250D01*
X200595Y-8750D02*X201345Y-9500D01*
X209597Y-3500D02*Y-8750D01*
X210347Y-9500D01*
X208847Y-5750D02*X210347D01*
X211848Y-3500D02*Y-9500D01*
Y-7250D02*X212598Y-6500D01*
X214098D01*
X214848Y-7250D01*
Y-9500D01*
X217400D02*X219650D01*
X216650Y-8750D02*X217400Y-9500D01*
X216650Y-7250D02*Y-8750D01*
Y-7250D02*X217400Y-6500D01*
X218900D01*
X219650Y-7250D01*
X216650Y-8000D02*X219650D01*
Y-7250D02*Y-8000D01*
X224901Y-6500D02*X227151D01*
X224151Y-7250D02*X224901Y-6500D01*
X224151Y-7250D02*Y-8750D01*
X224901Y-9500D01*
X227151D01*
X229703D02*X231953D01*
X228953Y-8750D02*X229703Y-9500D01*
X228953Y-7250D02*Y-8750D01*
Y-7250D02*X229703Y-6500D01*
X231203D01*
X231953Y-7250D01*
X228953Y-8000D02*X231953D01*
Y-7250D02*Y-8000D01*
X234504Y-7250D02*Y-9500D01*
Y-7250D02*X235254Y-6500D01*
X236004D01*
X236754Y-7250D01*
Y-9500D01*
X233754Y-6500D02*X234504Y-7250D01*
X239306Y-3500D02*Y-8750D01*
X240056Y-9500D01*
X238556Y-5750D02*X240056D01*
X242307Y-9500D02*X244557D01*
X241557Y-8750D02*X242307Y-9500D01*
X241557Y-7250D02*Y-8750D01*
Y-7250D02*X242307Y-6500D01*
X243807D01*
X244557Y-7250D01*
X241557Y-8000D02*X244557D01*
Y-7250D02*Y-8000D01*
X247109Y-7250D02*Y-9500D01*
Y-7250D02*X247859Y-6500D01*
X249359D01*
X246359D02*X247109Y-7250D01*
X251160Y-3500D02*Y-8750D01*
X251910Y-9500D01*
X253412Y-5000D02*Y-5750D01*
Y-7250D02*Y-9500D01*
X255663Y-7250D02*Y-9500D01*
Y-7250D02*X256413Y-6500D01*
X257163D01*
X257913Y-7250D01*
Y-9500D01*
X254913Y-6500D02*X255663Y-7250D01*
X260465Y-9500D02*X262715D01*
X259715Y-8750D02*X260465Y-9500D01*
X259715Y-7250D02*Y-8750D01*
Y-7250D02*X260465Y-6500D01*
X261965D01*
X262715Y-7250D01*
X259715Y-8000D02*X262715D01*
Y-7250D02*Y-8000D01*
X267216Y-7250D02*Y-8750D01*
Y-7250D02*X267966Y-6500D01*
X269466D01*
X270216Y-7250D01*
Y-8750D01*
X269466Y-9500D02*X270216Y-8750D01*
X267966Y-9500D02*X269466D01*
X267216Y-8750D02*X267966Y-9500D01*
X272768Y-4250D02*Y-9500D01*
Y-4250D02*X273518Y-3500D01*
X274268D01*
X272018Y-6500D02*X273518D01*
X279219Y-3500D02*Y-8750D01*
X279969Y-9500D01*
X278469Y-5750D02*X279969D01*
X281471Y-3500D02*Y-9500D01*
Y-7250D02*X282221Y-6500D01*
X283721D01*
X284471Y-7250D01*
Y-9500D01*
X286272Y-5000D02*Y-5750D01*
Y-7250D02*Y-9500D01*
X288524D02*X290774D01*
X291524Y-8750D01*
X290774Y-8000D02*X291524Y-8750D01*
X288524Y-8000D02*X290774D01*
X287774Y-7250D02*X288524Y-8000D01*
X287774Y-7250D02*X288524Y-6500D01*
X290774D01*
X291524Y-7250D01*
X287774Y-8750D02*X288524Y-9500D01*
X296775D02*X298275D01*
X297525Y-3500D02*Y-9500D01*
X296025Y-5000D02*X297525Y-3500D01*
X300077Y-8750D02*X300827Y-9500D01*
X300077Y-4250D02*Y-8750D01*
Y-4250D02*X300827Y-3500D01*
X302327D01*
X303077Y-4250D01*
Y-8750D01*
X302327Y-9500D02*X303077Y-8750D01*
X300827Y-9500D02*X302327D01*
X300077Y-8000D02*X303077Y-5000D01*
X308328Y-7250D02*Y-9500D01*
Y-7250D02*X309078Y-6500D01*
X309828D01*
X310578Y-7250D01*
Y-9500D01*
Y-7250D02*X311328Y-6500D01*
X312078D01*
X312828Y-7250D01*
Y-9500D01*
X307578Y-6500D02*X308328Y-7250D01*
X314630Y-5000D02*Y-5750D01*
Y-7250D02*Y-9500D01*
X316131Y-3500D02*Y-8750D01*
X316881Y-9500D01*
X321833Y-7250D02*Y-9500D01*
Y-7250D02*X322583Y-6500D01*
X324083D01*
X321083D02*X321833Y-7250D01*
X326634Y-9500D02*X328884D01*
X325884Y-8750D02*X326634Y-9500D01*
X325884Y-7250D02*Y-8750D01*
Y-7250D02*X326634Y-6500D01*
X328134D01*
X328884Y-7250D01*
X325884Y-8000D02*X328884D01*
Y-7250D02*Y-8000D01*
X331436Y-6500D02*X333686D01*
X330686Y-7250D02*X331436Y-6500D01*
X330686Y-7250D02*Y-8750D01*
X331436Y-9500D01*
X333686D01*
X336237Y-3500D02*Y-8750D01*
X336987Y-9500D01*
X335487Y-5750D02*X336987D01*
X340739Y-6500D02*X341489Y-7250D01*
X339239Y-6500D02*X340739D01*
X338489Y-7250D02*X339239Y-6500D01*
X338489Y-7250D02*Y-8750D01*
X339239Y-9500D01*
X341489Y-6500D02*Y-8750D01*
X342239Y-9500D01*
X339239D02*X340739D01*
X341489Y-8750D01*
X344790Y-7250D02*Y-9500D01*
Y-7250D02*X345540Y-6500D01*
X346290D01*
X347040Y-7250D01*
Y-9500D01*
X344040Y-6500D02*X344790Y-7250D01*
X351092Y-6500D02*X351842Y-7250D01*
X349592Y-6500D02*X351092D01*
X348842Y-7250D02*X349592Y-6500D01*
X348842Y-7250D02*Y-8750D01*
X349592Y-9500D01*
X351092D01*
X351842Y-8750D01*
X348842Y-11000D02*X349592Y-11750D01*
X351092D01*
X351842Y-11000D01*
Y-6500D02*Y-11000D01*
X353643Y-3500D02*Y-8750D01*
X354393Y-9500D01*
X356645D02*X358895D01*
X355895Y-8750D02*X356645Y-9500D01*
X355895Y-7250D02*Y-8750D01*
Y-7250D02*X356645Y-6500D01*
X358145D01*
X358895Y-7250D01*
X355895Y-8000D02*X358895D01*
Y-7250D02*Y-8000D01*
X363396Y-6500D02*X366396D01*
X370898Y-8750D02*X371648Y-9500D01*
X370898Y-4250D02*Y-8750D01*
Y-4250D02*X371648Y-3500D01*
X373148D01*
X373898Y-4250D01*
Y-8750D01*
X373148Y-9500D02*X373898Y-8750D01*
X371648Y-9500D02*X373148D01*
X370898Y-8000D02*X373898Y-5000D01*
X375699Y-11000D02*X377199Y-9500D01*
X379001Y-8750D02*X379751Y-9500D01*
X379001Y-4250D02*Y-8750D01*
Y-4250D02*X379751Y-3500D01*
X381251D01*
X382001Y-4250D01*
Y-8750D01*
X381251Y-9500D02*X382001Y-8750D01*
X379751Y-9500D02*X381251D01*
X379001Y-8000D02*X382001Y-5000D01*
X387252Y-3500D02*Y-8750D01*
X388002Y-9500D01*
X386502Y-5750D02*X388002D01*
X389504Y-7250D02*Y-8750D01*
Y-7250D02*X390254Y-6500D01*
X391754D01*
X392504Y-7250D01*
Y-8750D01*
X391754Y-9500D02*X392504Y-8750D01*
X390254Y-9500D02*X391754D01*
X389504Y-8750D02*X390254Y-9500D01*
X399255Y-3500D02*X400005Y-4250D01*
X397755Y-3500D02*X399255D01*
X397005Y-4250D02*X397755Y-3500D01*
X397005Y-4250D02*Y-8750D01*
X397755Y-9500D01*
X399255Y-6500D02*X400005Y-7250D01*
X397005Y-6500D02*X399255D01*
X397755Y-9500D02*X399255D01*
X400005Y-8750D01*
Y-7250D02*Y-8750D01*
X401807D02*X402557Y-9500D01*
X401807Y-4250D02*Y-8750D01*
Y-4250D02*X402557Y-3500D01*
X404057D01*
X404807Y-4250D01*
Y-8750D01*
X404057Y-9500D02*X404807Y-8750D01*
X402557Y-9500D02*X404057D01*
X401807Y-8000D02*X404807Y-5000D01*
X406608Y-8750D02*X407358Y-9500D01*
X406608Y-4250D02*Y-8750D01*
Y-4250D02*X407358Y-3500D01*
X408858D01*
X409608Y-4250D01*
Y-8750D01*
X408858Y-9500D02*X409608Y-8750D01*
X407358Y-9500D02*X408858D01*
X406608Y-8000D02*X409608Y-5000D01*
X411410Y-8750D02*X412160Y-9500D01*
X411410Y-4250D02*Y-8750D01*
Y-4250D02*X412160Y-3500D01*
X413660D01*
X414410Y-4250D01*
Y-8750D01*
X413660Y-9500D02*X414410Y-8750D01*
X412160Y-9500D02*X413660D01*
X411410Y-8000D02*X414410Y-5000D01*
X416211Y-11000D02*X417711Y-9500D01*
X419513Y-3500D02*X422513D01*
X419513D02*Y-6500D01*
X420263Y-5750D01*
X421763D01*
X422513Y-6500D01*
Y-8750D01*
X421763Y-9500D02*X422513Y-8750D01*
X420263Y-9500D02*X421763D01*
X419513Y-8750D02*X420263Y-9500D01*
X424314Y-8750D02*X425064Y-9500D01*
X424314Y-4250D02*Y-8750D01*
Y-4250D02*X425064Y-3500D01*
X426564D01*
X427314Y-4250D01*
Y-8750D01*
X426564Y-9500D02*X427314Y-8750D01*
X425064Y-9500D02*X426564D01*
X424314Y-8000D02*X427314Y-5000D01*
X429116Y-8750D02*X429866Y-9500D01*
X429116Y-4250D02*Y-8750D01*
Y-4250D02*X429866Y-3500D01*
X431366D01*
X432116Y-4250D01*
Y-8750D01*
X431366Y-9500D02*X432116Y-8750D01*
X429866Y-9500D02*X431366D01*
X429116Y-8000D02*X432116Y-5000D01*
X433917Y-8750D02*X434667Y-9500D01*
X433917Y-4250D02*Y-8750D01*
Y-4250D02*X434667Y-3500D01*
X436167D01*
X436917Y-4250D01*
Y-8750D01*
X436167Y-9500D02*X436917Y-8750D01*
X434667Y-9500D02*X436167D01*
X433917Y-8000D02*X436917Y-5000D01*
X442169Y-7250D02*Y-9500D01*
Y-7250D02*X442919Y-6500D01*
X443669D01*
X444419Y-7250D01*
Y-9500D01*
Y-7250D02*X445169Y-6500D01*
X445919D01*
X446669Y-7250D01*
Y-9500D01*
X441419Y-6500D02*X442169Y-7250D01*
X448470Y-5000D02*Y-5750D01*
Y-7250D02*Y-9500D01*
X449972Y-3500D02*Y-8750D01*
X450722Y-9500D01*
X452973D02*X455223D01*
X455973Y-8750D01*
X455223Y-8000D02*X455973Y-8750D01*
X452973Y-8000D02*X455223D01*
X452223Y-7250D02*X452973Y-8000D01*
X452223Y-7250D02*X452973Y-6500D01*
X455223D01*
X455973Y-7250D01*
X452223Y-8750D02*X452973Y-9500D01*
X200750Y528500D02*Y522500D01*
X203000Y528500D02*X203750Y527750D01*
Y523250D01*
X203000Y522500D02*X203750Y523250D01*
X200000Y522500D02*X203000D01*
X200000Y528500D02*X203000D01*
X207801Y525500D02*X208551Y524750D01*
X206301Y525500D02*X207801D01*
X205551Y524750D02*X206301Y525500D01*
X205551Y524750D02*Y523250D01*
X206301Y522500D01*
X208551Y525500D02*Y523250D01*
X209301Y522500D01*
X206301D02*X207801D01*
X208551Y523250D01*
X211853Y528500D02*Y523250D01*
X212603Y522500D01*
X211103Y526250D02*X212603D01*
X214854Y522500D02*X217104D01*
X214104Y523250D02*X214854Y522500D01*
X214104Y524750D02*Y523250D01*
Y524750D02*X214854Y525500D01*
X216354D01*
X217104Y524750D01*
X214104Y524000D02*X217104D01*
Y524750D02*Y524000D01*
X218906Y526250D02*X219656D01*
X218906Y524750D02*X219656D01*
X227157Y528500D02*X227907Y527750D01*
X224907Y528500D02*X227157D01*
X224157Y527750D02*X224907Y528500D01*
X224157Y527750D02*Y526250D01*
X224907Y525500D01*
X227157D01*
X227907Y524750D01*
Y523250D01*
X227157Y522500D02*X227907Y523250D01*
X224907Y522500D02*X227157D01*
X224157Y523250D02*X224907Y522500D01*
X229709Y525500D02*Y523250D01*
X230459Y522500D01*
X231959D01*
X232709Y523250D01*
Y525500D02*Y523250D01*
X235260Y524750D02*Y522500D01*
Y524750D02*X236010Y525500D01*
X236760D01*
X237510Y524750D01*
Y522500D01*
X234510Y525500D02*X235260Y524750D01*
X242762Y522500D02*X244262D01*
X243512Y528500D02*Y522500D01*
X242012Y527000D02*X243512Y528500D01*
X246063Y523250D02*X246813Y522500D01*
X246063Y527750D02*Y523250D01*
Y527750D02*X246813Y528500D01*
X248313D01*
X249063Y527750D01*
Y523250D01*
X248313Y522500D02*X249063Y523250D01*
X246813Y522500D02*X248313D01*
X246063Y524000D02*X249063Y527000D01*
X253565Y527750D02*Y522500D01*
Y527750D02*X254315Y528500D01*
X256565D01*
X257315Y527750D01*
Y522500D01*
X253565Y525500D02*X257315D01*
X259866Y524750D02*Y520250D01*
X259116Y525500D02*X259866Y524750D01*
X260616Y525500D01*
X262116D01*
X262866Y524750D01*
Y523250D01*
X262116Y522500D02*X262866Y523250D01*
X260616Y522500D02*X262116D01*
X259866Y523250D02*X260616Y522500D01*
X265418Y524750D02*Y522500D01*
Y524750D02*X266168Y525500D01*
X267668D01*
X264668D02*X265418Y524750D01*
X272169Y527750D02*X272919Y528500D01*
X275169D01*
X275919Y527750D01*
Y526250D01*
X272169Y522500D02*X275919Y526250D01*
X272169Y522500D02*X275919D01*
X277721Y523250D02*X278471Y522500D01*
X277721Y527750D02*Y523250D01*
Y527750D02*X278471Y528500D01*
X279971D01*
X280721Y527750D01*
Y523250D01*
X279971Y522500D02*X280721Y523250D01*
X278471Y522500D02*X279971D01*
X277721Y524000D02*X280721Y527000D01*
X283272Y522500D02*X284772D01*
X284022Y528500D02*Y522500D01*
X282522Y527000D02*X284022Y528500D01*
X287324Y522500D02*X288824D01*
X288074Y528500D02*Y522500D01*
X286574Y527000D02*X288074Y528500D01*
X294075Y522500D02*X295575D01*
X294825Y528500D02*Y522500D01*
X293325Y527000D02*X294825Y528500D01*
X297377Y523250D02*X298127Y522500D01*
X297377Y527750D02*Y523250D01*
Y527750D02*X298127Y528500D01*
X299627D01*
X300377Y527750D01*
Y523250D01*
X299627Y522500D02*X300377Y523250D01*
X298127Y522500D02*X299627D01*
X297377Y524000D02*X300377Y527000D01*
X302178Y526250D02*X302928D01*
X302178Y524750D02*X302928D01*
X304730Y525500D02*X307730Y528500D01*
X304730Y525500D02*X308480D01*
X307730Y528500D02*Y522500D01*
X310281Y525500D02*X313281Y528500D01*
X310281Y525500D02*X314031D01*
X313281Y528500D02*Y522500D01*
X315833Y526250D02*X316583D01*
X315833Y524750D02*X316583D01*
X318384Y525500D02*X321384Y528500D01*
X318384Y525500D02*X322134D01*
X321384Y528500D02*Y522500D01*
X323936D02*X327686Y526250D01*
Y528500D02*Y526250D01*
X323936Y528500D02*X327686D01*
X332187Y527750D02*Y522500D01*
Y527750D02*X332937Y528500D01*
X335187D01*
X335937Y527750D01*
Y522500D01*
X332187Y525500D02*X335937D01*
X337739Y528500D02*Y522500D01*
Y528500D02*X339989Y526250D01*
X342239Y528500D01*
Y522500D01*
X349740Y528500D02*X350490Y527750D01*
X347490Y528500D02*X349740D01*
X346740Y527750D02*X347490Y528500D01*
X346740Y527750D02*Y523250D01*
X347490Y522500D01*
X349740D01*
X350490Y523250D01*
Y524750D02*Y523250D01*
X349740Y525500D02*X350490Y524750D01*
X348240Y525500D02*X349740D01*
X352292Y528500D02*Y522500D01*
Y528500D02*X354542Y526250D01*
X356792Y528500D01*
Y522500D01*
X358593Y528500D02*X361593D01*
X360093D02*Y522500D01*
X366095Y528500D02*Y523250D01*
X366845Y522500D01*
X368345D01*
X369095Y523250D01*
Y528500D02*Y523250D01*
X370896Y528500D02*X373896D01*
X372396D02*Y522500D01*
X376448D02*X378698D01*
X375698Y523250D02*X376448Y522500D01*
X375698Y527750D02*Y523250D01*
Y527750D02*X376448Y528500D01*
X378698D01*
X200000Y542750D02*Y537500D01*
Y542750D02*X200750Y543500D01*
X203000D01*
X203750Y542750D01*
Y537500D01*
X200000Y540500D02*X203750D01*
X205551D02*Y538250D01*
X206301Y537500D01*
X207801D01*
X208551Y538250D01*
Y540500D02*Y538250D01*
X211103Y543500D02*Y538250D01*
X211853Y537500D01*
X210353Y541250D02*X211853D01*
X213354Y543500D02*Y537500D01*
Y539750D02*X214104Y540500D01*
X215604D01*
X216354Y539750D01*
Y537500D01*
X218156Y539750D02*Y538250D01*
Y539750D02*X218906Y540500D01*
X220406D01*
X221156Y539750D01*
Y538250D01*
X220406Y537500D02*X221156Y538250D01*
X218906Y537500D02*X220406D01*
X218156Y538250D02*X218906Y537500D01*
X223707Y539750D02*Y537500D01*
Y539750D02*X224457Y540500D01*
X225957D01*
X222957D02*X223707Y539750D01*
X227759Y541250D02*X228509D01*
X227759Y539750D02*X228509D01*
X236010Y543500D02*X236760Y542750D01*
X233760Y543500D02*X236010D01*
X233010Y542750D02*X233760Y543500D01*
X233010Y542750D02*Y538250D01*
X233760Y537500D01*
X236010D01*
X236760Y538250D01*
Y539750D02*Y538250D01*
X236010Y540500D02*X236760Y539750D01*
X234510Y540500D02*X236010D01*
X240812D02*X241562Y539750D01*
X239312Y540500D02*X240812D01*
X238562Y539750D02*X239312Y540500D01*
X238562Y539750D02*Y538250D01*
X239312Y537500D01*
X241562Y540500D02*Y538250D01*
X242312Y537500D01*
X239312D02*X240812D01*
X241562Y538250D01*
X244113Y540500D02*Y539000D01*
X245613Y537500D01*
X247113Y539000D01*
Y540500D02*Y539000D01*
X248915Y542000D02*Y541250D01*
Y539750D02*Y537500D01*
X251166Y539750D02*Y537500D01*
Y539750D02*X251916Y540500D01*
X252666D01*
X253416Y539750D01*
Y537500D01*
X250416Y540500D02*X251166Y539750D01*
X257918Y543500D02*Y537500D01*
X261668Y543500D02*Y537500D01*
X257918Y540500D02*X261668D01*
X263469D02*Y538250D01*
X264219Y537500D01*
X265719D01*
X266469Y538250D01*
Y540500D02*Y538250D01*
X269021Y539750D02*Y537500D01*
Y539750D02*X269771Y540500D01*
X271271D01*
X268271D02*X269021Y539750D01*
X273072Y543500D02*Y538250D01*
X273822Y537500D01*
X275324Y543500D02*Y537500D01*
Y538250D02*X276074Y537500D01*
X277574D01*
X278324Y538250D01*
Y539750D02*Y538250D01*
X277574Y540500D02*X278324Y539750D01*
X276074Y540500D02*X277574D01*
X275324Y539750D02*X276074Y540500D01*
X280125D02*Y538250D01*
X280875Y537500D01*
X282375D01*
X283125Y538250D01*
Y540500D02*Y538250D01*
X285677Y543500D02*Y538250D01*
X286427Y537500D01*
X284927Y541250D02*X286427D01*
X200000Y558500D02*X203000D01*
X201500D02*Y552500D01*
X204801Y557000D02*Y556250D01*
Y554750D02*Y552500D01*
X207053Y558500D02*Y553250D01*
X207803Y552500D01*
X206303Y556250D02*X207803D01*
X209304Y558500D02*Y553250D01*
X210054Y552500D01*
X212306D02*X214556D01*
X211556Y553250D02*X212306Y552500D01*
X211556Y554750D02*Y553250D01*
Y554750D02*X212306Y555500D01*
X213806D01*
X214556Y554750D01*
X211556Y554000D02*X214556D01*
Y554750D02*Y554000D01*
X216357Y556250D02*X217107D01*
X216357Y554750D02*X217107D01*
X221609Y553250D02*X222359Y552500D01*
X221609Y557750D02*X222359Y558500D01*
X221609Y557750D02*Y553250D01*
X224160Y555500D02*Y553250D01*
X224910Y552500D01*
X226410D01*
X227160Y553250D01*
Y555500D02*Y553250D01*
X229712Y554750D02*Y552500D01*
Y554750D02*X230462Y555500D01*
X231212D01*
X231962Y554750D01*
Y552500D01*
X228962Y555500D02*X229712Y554750D01*
X233763Y558500D02*Y552500D01*
Y554750D02*X236013Y552500D01*
X233763Y554750D02*X235263Y556250D01*
X238565Y554750D02*Y552500D01*
Y554750D02*X239315Y555500D01*
X240065D01*
X240815Y554750D01*
Y552500D01*
X237815Y555500D02*X238565Y554750D01*
X242616D02*Y553250D01*
Y554750D02*X243366Y555500D01*
X244866D01*
X245616Y554750D01*
Y553250D01*
X244866Y552500D02*X245616Y553250D01*
X243366Y552500D02*X244866D01*
X242616Y553250D02*X243366Y552500D01*
X247418Y555500D02*Y553250D01*
X248168Y552500D01*
X248918D01*
X249668Y553250D01*
Y555500D02*Y553250D01*
X250418Y552500D01*
X251168D01*
X251918Y553250D01*
Y555500D02*Y553250D01*
X254469Y554750D02*Y552500D01*
Y554750D02*X255219Y555500D01*
X255969D01*
X256719Y554750D01*
Y552500D01*
X253719Y555500D02*X254469Y554750D01*
X258521Y558500D02*X259271Y557750D01*
Y553250D01*
X258521Y552500D02*X259271Y553250D01*
X263772Y555500D02*X266772D01*
X271274Y558500D02*Y552500D01*
Y558500D02*X274274D01*
X271274Y555500D02*X273524D01*
X278325D02*X279075Y554750D01*
X276825Y555500D02*X278325D01*
X276075Y554750D02*X276825Y555500D01*
X276075Y554750D02*Y553250D01*
X276825Y552500D01*
X279075Y555500D02*Y553250D01*
X279825Y552500D01*
X276825D02*X278325D01*
X279075Y553250D01*
X281627Y558500D02*Y552500D01*
Y553250D02*X282377Y552500D01*
X283877D01*
X284627Y553250D01*
Y554750D02*Y553250D01*
X283877Y555500D02*X284627Y554750D01*
X282377Y555500D02*X283877D01*
X281627Y554750D02*X282377Y555500D01*
X287178Y554750D02*Y552500D01*
Y554750D02*X287928Y555500D01*
X289428D01*
X286428D02*X287178Y554750D01*
X291230Y557000D02*Y556250D01*
Y554750D02*Y552500D01*
X293481Y555500D02*X295731D01*
X292731Y554750D02*X293481Y555500D01*
X292731Y554750D02*Y553250D01*
X293481Y552500D01*
X295731D01*
X299783Y555500D02*X300533Y554750D01*
X298283Y555500D02*X299783D01*
X297533Y554750D02*X298283Y555500D01*
X297533Y554750D02*Y553250D01*
X298283Y552500D01*
X300533Y555500D02*Y553250D01*
X301283Y552500D01*
X298283D02*X299783D01*
X300533Y553250D01*
X303834Y558500D02*Y553250D01*
X304584Y552500D01*
X303084Y556250D02*X304584D01*
X306086Y557000D02*Y556250D01*
Y554750D02*Y552500D01*
X307587Y554750D02*Y553250D01*
Y554750D02*X308337Y555500D01*
X309837D01*
X310587Y554750D01*
Y553250D01*
X309837Y552500D02*X310587Y553250D01*
X308337Y552500D02*X309837D01*
X307587Y553250D02*X308337Y552500D01*
X313139Y554750D02*Y552500D01*
Y554750D02*X313889Y555500D01*
X314639D01*
X315389Y554750D01*
Y552500D01*
X312389Y555500D02*X313139Y554750D01*
X320640Y558500D02*Y552500D01*
X322890Y558500D02*X323640Y557750D01*
Y553250D01*
X322890Y552500D02*X323640Y553250D01*
X319890Y552500D02*X322890D01*
X319890Y558500D02*X322890D01*
X326192Y554750D02*Y552500D01*
Y554750D02*X326942Y555500D01*
X328442D01*
X325442D02*X326192Y554750D01*
X332493Y555500D02*X333243Y554750D01*
X330993Y555500D02*X332493D01*
X330243Y554750D02*X330993Y555500D01*
X330243Y554750D02*Y553250D01*
X330993Y552500D01*
X333243Y555500D02*Y553250D01*
X333993Y552500D01*
X330993D02*X332493D01*
X333243Y553250D01*
X335795Y555500D02*Y553250D01*
X336545Y552500D01*
X337295D01*
X338045Y553250D01*
Y555500D02*Y553250D01*
X338795Y552500D01*
X339545D01*
X340295Y553250D01*
Y555500D02*Y553250D01*
X342096Y557000D02*Y556250D01*
Y554750D02*Y552500D01*
X344348Y554750D02*Y552500D01*
Y554750D02*X345098Y555500D01*
X345848D01*
X346598Y554750D01*
Y552500D01*
X343598Y555500D02*X344348Y554750D01*
X350649Y555500D02*X351399Y554750D01*
X349149Y555500D02*X350649D01*
X348399Y554750D02*X349149Y555500D01*
X348399Y554750D02*Y553250D01*
X349149Y552500D01*
X350649D01*
X351399Y553250D01*
X348399Y551000D02*X349149Y550250D01*
X350649D01*
X351399Y551000D01*
Y555500D02*Y551000D01*
M02*
