G04 start of page 7 for group -4079 idx -4079 *
G04 Title: (unknown), topsilk *
G04 Creator: pcb 20091103 *
G04 CreationDate: Sun 10 Apr 2011 10:44:47 AM GMT UTC *
G04 For: gjhurlbu *
G04 Format: Gerber/RS-274X *
G04 PCB-Dimensions: 600000 500000 *
G04 PCB-Coordinate-Origin: lower left *
%MOIN*%
%FSLAX25Y25*%
%LNFRONTSILK*%
%ADD11C,0.0100*%
%ADD29C,0.0080*%
G54D11*X33000Y293000D02*Y423000D01*
X201000D01*
Y293000D01*
X33000D01*
X136000Y301000D02*X136500Y300500D01*
X134500Y301000D02*X136000D01*
X134000Y300500D02*X134500Y301000D01*
X134000Y300500D02*Y299500D01*
X134500Y299000D01*
X136000D01*
X136500Y298500D01*
Y297500D01*
X136000Y297000D02*X136500Y297500D01*
X134500Y297000D02*X136000D01*
X134000Y297500D02*X134500Y297000D01*
X138201D02*X139701D01*
X137701Y297500D02*X138201Y297000D01*
X137701Y298500D02*Y297500D01*
Y298500D02*X138201Y299000D01*
X139201D01*
X139701Y298500D01*
X137701Y298000D02*X139701D01*
Y298500D02*Y298000D01*
X141402Y298500D02*Y297000D01*
Y298500D02*X141902Y299000D01*
X142402D01*
X142902Y298500D01*
Y297000D01*
X140902Y299000D02*X141402Y298500D01*
X144603Y297000D02*X146103D01*
X146603Y297500D01*
X146103Y298000D02*X146603Y297500D01*
X144603Y298000D02*X146103D01*
X144103Y298500D02*X144603Y298000D01*
X144103Y298500D02*X144603Y299000D01*
X146103D01*
X146603Y298500D01*
X144103Y297500D02*X144603Y297000D01*
X147804Y298500D02*Y297500D01*
Y298500D02*X148304Y299000D01*
X149304D01*
X149804Y298500D01*
Y297500D01*
X149304Y297000D02*X149804Y297500D01*
X148304Y297000D02*X149304D01*
X147804Y297500D02*X148304Y297000D01*
X151505Y298500D02*Y297000D01*
Y298500D02*X152005Y299000D01*
X153005D01*
X151005D02*X151505Y298500D01*
X156006Y297000D02*X158006D01*
X158506Y297500D01*
Y298500D02*Y297500D01*
X158006Y299000D02*X158506Y298500D01*
X156506Y299000D02*X158006D01*
X156506Y301000D02*Y297000D01*
X156006Y301000D02*X158006D01*
X158506Y300500D01*
Y299500D01*
X158006Y299000D02*X158506Y299500D01*
X161207Y299000D02*X161707Y298500D01*
X160207Y299000D02*X161207D01*
X159707Y298500D02*X160207Y299000D01*
X159707Y298500D02*Y297500D01*
X160207Y297000D01*
X161707Y299000D02*Y297500D01*
X162207Y297000D01*
X160207D02*X161207D01*
X161707Y297500D01*
X163908Y297000D02*X165408D01*
X165908Y297500D01*
X165408Y298000D02*X165908Y297500D01*
X163908Y298000D02*X165408D01*
X163408Y298500D02*X163908Y298000D01*
X163408Y298500D02*X163908Y299000D01*
X165408D01*
X165908Y298500D01*
X163408Y297500D02*X163908Y297000D01*
X167609D02*X169109D01*
X167109Y297500D02*X167609Y297000D01*
X167109Y298500D02*Y297500D01*
Y298500D02*X167609Y299000D01*
X168609D01*
X169109Y298500D01*
X167109Y298000D02*X169109D01*
Y298500D02*Y298000D01*
X134000Y303500D02*X134500Y303000D01*
X134000Y306500D02*X134500Y307000D01*
X134000Y306500D02*Y303500D01*
X136201Y305000D02*X137701D01*
X135701Y304500D02*X136201Y305000D01*
X135701Y304500D02*Y303500D01*
X136201Y303000D01*
X137701D01*
X138902Y307000D02*X139402Y306500D01*
Y303500D01*
X138902Y303000D02*X139402Y303500D01*
X142403Y306500D02*X142903Y307000D01*
X144403D01*
X144903Y306500D01*
Y305500D01*
X142403Y303000D02*X144903Y305500D01*
X142403Y303000D02*X144903D01*
X146104Y303500D02*X146604Y303000D01*
X146104Y306500D02*Y303500D01*
Y306500D02*X146604Y307000D01*
X147604D01*
X148104Y306500D01*
Y303500D01*
X147604Y303000D02*X148104Y303500D01*
X146604Y303000D02*X147604D01*
X146104Y304000D02*X148104Y306000D01*
X149805Y303000D02*X150805D01*
X150305Y307000D02*Y303000D01*
X149305Y306000D02*X150305Y307000D01*
X152506Y303000D02*X153506D01*
X153006Y307000D02*Y303000D01*
X152006Y306000D02*X153006Y307000D01*
X158507D02*X159007Y306500D01*
X157007Y307000D02*X158507D01*
X156507Y306500D02*X157007Y307000D01*
X156507Y306500D02*Y303500D01*
X157007Y303000D01*
X158507D01*
X159007Y303500D01*
Y304500D02*Y303500D01*
X158507Y305000D02*X159007Y304500D01*
X157507Y305000D02*X158507D01*
X161708D02*X162208Y304500D01*
X160708Y305000D02*X161708D01*
X160208Y304500D02*X160708Y305000D01*
X160208Y304500D02*Y303500D01*
X160708Y303000D01*
X162208Y305000D02*Y303500D01*
X162708Y303000D01*
X160708D02*X161708D01*
X162208Y303500D01*
X163909Y305000D02*Y304000D01*
X164909Y303000D01*
X165909Y304000D01*
Y305000D02*Y304000D01*
X167110Y306000D02*Y305500D01*
Y304500D02*Y303000D01*
X168611Y304500D02*Y303000D01*
Y304500D02*X169111Y305000D01*
X169611D01*
X170111Y304500D01*
Y303000D01*
X168111Y305000D02*X168611Y304500D01*
X173112Y307000D02*Y303000D01*
X175612Y307000D02*Y303000D01*
X173112Y305000D02*X175612D01*
X176813D02*Y303500D01*
X177313Y303000D01*
X178313D01*
X178813Y303500D01*
Y305000D02*Y303500D01*
X180514Y304500D02*Y303000D01*
Y304500D02*X181014Y305000D01*
X182014D01*
X180014D02*X180514Y304500D01*
X183215Y307000D02*Y303500D01*
X183715Y303000D01*
X184716Y307000D02*Y303000D01*
Y303500D02*X185216Y303000D01*
X186216D01*
X186716Y303500D01*
Y304500D02*Y303500D01*
X186216Y305000D02*X186716Y304500D01*
X185216Y305000D02*X186216D01*
X184716Y304500D02*X185216Y305000D01*
X187917D02*Y303500D01*
X188417Y303000D01*
X189417D01*
X189917Y303500D01*
Y305000D02*Y303500D01*
X191618Y307000D02*Y303500D01*
X192118Y303000D01*
X191118Y305500D02*X192118D01*
X177000Y316000D02*X179000D01*
X179500Y315500D01*
Y314500D01*
X179000Y314000D02*X179500Y314500D01*
X177500Y314000D02*X179000D01*
X177500Y316000D02*Y312000D01*
Y314000D02*X179500Y312000D01*
X181201D02*X182701D01*
X180701Y312500D02*X181201Y312000D01*
X180701Y313500D02*Y312500D01*
Y313500D02*X181201Y314000D01*
X182201D01*
X182701Y313500D01*
X180701Y313000D02*X182701D01*
Y313500D02*Y313000D01*
X183902Y314000D02*Y313000D01*
X184902Y312000D01*
X185902Y313000D01*
Y314000D02*Y313000D01*
X188903Y315500D02*X189403Y316000D01*
X190903D01*
X191403Y315500D01*
Y314500D01*
X188903Y312000D02*X191403Y314500D01*
X188903Y312000D02*X191403D01*
X192604D02*X193104D01*
X194305Y312500D02*X194805Y312000D01*
X194305Y315500D02*Y312500D01*
Y315500D02*X194805Y316000D01*
X195805D01*
X196305Y315500D01*
Y312500D01*
X195805Y312000D02*X196305Y312500D01*
X194805Y312000D02*X195805D01*
X194305Y313000D02*X196305Y315000D01*
X196000Y377000D02*Y387000D01*
X186000Y377000D02*X196000D01*
Y387000D02*X186000D01*
X196000Y327000D02*Y387000D01*
X186000Y327000D02*X196000D01*
X186000Y387000D02*Y327000D01*
G54D29*X161379Y338521D02*X158479Y335621D01*
X161379Y362379D02*Y338521D01*
X134621Y362379D02*X161379D01*
X134621D02*Y335621D01*
X158479D01*
X159479Y338521D02*G75*G03X159479Y338521I-1000J0D01*G01*
G54D11*X37000Y307000D02*X47000D01*
Y297000D01*
X37000Y307000D02*Y297000D01*
Y307000D02*X117000D01*
Y297000D01*
X37000D02*X117000D01*
X164000Y417500D02*Y404500D01*
Y399500D02*Y386500D01*
Y417500D02*X183000D01*
Y386500D01*
X164000D02*X183000D01*
X164000Y399500D02*G75*G03X164000Y404500I0J2500D01*G01*
X37000Y419000D02*X47000D01*
Y409000D01*
X37000Y419000D02*Y409000D01*
Y419000D02*X117000D01*
Y409000D01*
X37000D02*X117000D01*
X37071Y387000D02*Y329914D01*
X104000D01*
Y387000D02*Y329914D01*
X37071Y387000D02*X104000D01*
G54D29*X47064Y401362D02*X47850D01*
X47064Y395852D02*X47850D01*
G54D11*X147000Y398000D02*X157000D01*
X147000Y408000D02*Y398000D01*
X157000Y408000D02*Y388000D01*
X127000D02*X157000D01*
X127000Y408000D02*Y388000D01*
Y408000D02*X157000D01*
X191000Y405500D02*Y404000D01*
X191500Y406000D02*X191000Y405500D01*
X191500Y406000D02*X194500D01*
X195000Y405500D01*
Y404000D01*
X191500Y402799D02*X194500D01*
X195000Y402299D01*
Y401299D01*
X194500Y400799D01*
X191500D02*X194500D01*
X191000Y401299D02*X191500Y400799D01*
X191000Y402299D02*Y401299D01*
X191500Y402799D02*X191000Y402299D01*
Y399598D02*X195000D01*
X194500D02*X195000D01*
X194500D02*X192000Y397098D01*
X191000D02*X195000D01*
X191000Y395897D02*X195000D01*
X194500D02*X195000D01*
X194500D02*X192000Y393397D01*
X191000D02*X195000D01*
X193000Y392196D02*X195000Y390196D01*
X193000Y392196D02*Y389696D01*
X191000Y390196D02*X195000D01*
X145000Y350000D02*Y346500D01*
X145500Y346000D01*
X146500D01*
X147000Y346500D01*
Y350000D02*Y346500D01*
X148201Y348000D02*X150201Y350000D01*
X148201Y348000D02*X150701D01*
X150201Y350000D02*Y346000D01*
X171000Y404500D02*X174500D01*
X171000D02*X170500Y404000D01*
Y403000D01*
X171000Y402500D01*
X174500D01*
X174000Y401299D02*X174500Y400799D01*
Y399299D01*
X174000Y398799D01*
X173000D02*X174000D01*
X170500Y401299D02*X173000Y398799D01*
X170500Y401299D02*Y398799D01*
X38500Y309000D02*X40000D01*
X38000Y309500D02*X38500Y309000D01*
X38000Y312500D02*Y309500D01*
Y312500D02*X38500Y313000D01*
X40000D01*
X41201Y312500D02*Y309500D01*
Y312500D02*X41701Y313000D01*
X42701D01*
X43201Y312500D01*
Y309500D01*
X42701Y309000D02*X43201Y309500D01*
X41701Y309000D02*X42701D01*
X41201Y309500D02*X41701Y309000D01*
X44402Y313000D02*Y309000D01*
Y313000D02*Y312500D01*
X46902Y310000D01*
Y313000D02*Y309000D01*
X48103Y313000D02*Y309000D01*
Y313000D02*Y312500D01*
X50603Y310000D01*
Y313000D02*Y309000D01*
X51804Y313000D02*X53804D01*
X51804D02*Y311000D01*
X52304Y311500D01*
X53304D01*
X53804Y311000D01*
Y309500D01*
X53304Y309000D02*X53804Y309500D01*
X52304Y309000D02*X53304D01*
X51804Y309500D02*X52304Y309000D01*
X38500Y403000D02*X40000D01*
X38000Y403500D02*X38500Y403000D01*
X38000Y406500D02*Y403500D01*
Y406500D02*X38500Y407000D01*
X40000D01*
X41201Y406500D02*Y403500D01*
Y406500D02*X41701Y407000D01*
X42701D01*
X43201Y406500D01*
Y403500D01*
X42701Y403000D02*X43201Y403500D01*
X41701Y403000D02*X42701D01*
X41201Y403500D02*X41701Y403000D01*
X44402Y407000D02*Y403000D01*
Y407000D02*Y406500D01*
X46902Y404000D01*
Y407000D02*Y403000D01*
X48103Y407000D02*Y403000D01*
Y407000D02*Y406500D01*
X50603Y404000D01*
Y407000D02*Y403000D01*
X51804Y406500D02*X52304Y407000D01*
X53304D01*
X53804Y406500D01*
Y403500D01*
X53304Y403000D02*X53804Y403500D01*
X52304Y403000D02*X53304D01*
X51804Y403500D02*X52304Y403000D01*
Y405000D02*X53804D01*
X66000Y366500D02*Y365000D01*
X66500Y367000D02*X66000Y366500D01*
X66500Y367000D02*X69500D01*
X70000Y366500D01*
Y365000D01*
X66500Y363799D02*X69500D01*
X70000Y363299D01*
Y362299D01*
X69500Y361799D01*
X66500D02*X69500D01*
X66000Y362299D02*X66500Y361799D01*
X66000Y363299D02*Y362299D01*
X66500Y363799D02*X66000Y363299D01*
Y360598D02*X70000D01*
X69500D02*X70000D01*
X69500D02*X67000Y358098D01*
X66000D02*X70000D01*
X66000Y356897D02*X70000D01*
X69500D02*X70000D01*
X69500D02*X67000Y354397D01*
X66000D02*X70000D01*
X66000Y352696D02*Y351696D01*
Y352196D02*X70000D01*
X69000Y353196D02*X70000Y352196D01*
X44543Y394393D02*X46543D01*
X47043Y393893D01*
Y392893D01*
X46543Y392393D02*X47043Y392893D01*
X45043Y392393D02*X46543D01*
X45043Y394393D02*Y390393D01*
Y392393D02*X47043Y390393D01*
X48244Y393893D02*X48744Y394393D01*
X50244D01*
X50744Y393893D01*
Y392893D01*
X48244Y390393D02*X50744Y392893D01*
X48244Y390393D02*X50744D01*
X128500Y410000D02*X130000D01*
X128000Y410500D02*X128500Y410000D01*
X128000Y413500D02*Y410500D01*
Y413500D02*X128500Y414000D01*
X130000D01*
X131201Y413500D02*Y410500D01*
Y413500D02*X131701Y414000D01*
X132701D01*
X133201Y413500D01*
Y410500D01*
X132701Y410000D02*X133201Y410500D01*
X131701Y410000D02*X132701D01*
X131201Y410500D02*X131701Y410000D01*
X134402Y414000D02*Y410000D01*
Y414000D02*Y413500D01*
X136902Y411000D01*
Y414000D02*Y410000D01*
X138103Y414000D02*Y410000D01*
Y414000D02*Y413500D01*
X140603Y411000D01*
Y414000D02*Y410000D01*
X141804Y413500D02*X142304Y414000D01*
X143804D01*
X144304Y413500D01*
Y412500D01*
X141804Y410000D02*X144304Y412500D01*
X141804Y410000D02*X144304D01*
M02*
