G04 start of page 2 for group 0 idx 0 *
G04 Title: (unknown), component *
G04 Creator: pcb 20091103 *
G04 CreationDate: Sun 10 Apr 2011 10:44:47 AM GMT UTC *
G04 For: gjhurlbu *
G04 Format: Gerber/RS-274X *
G04 PCB-Dimensions: 600000 500000 *
G04 PCB-Coordinate-Origin: lower left *
%MOIN*%
%FSLAX25Y25*%
%LNFRONT*%
%ADD11C,0.0100*%
%ADD12C,0.0200*%
%ADD13C,0.0600*%
%ADD14C,0.0560*%
%ADD15C,0.1150*%
%ADD16C,0.0360*%
%ADD17R,0.0512X0.0512*%
%ADD18R,0.0157X0.0157*%
%ADD19R,0.0200X0.0200*%
%ADD20C,0.0380*%
%ADD21C,0.0910*%
G54D11*X103000Y413000D02*X102000Y414000D01*
X51000Y413000D02*X52000Y414000D01*
Y413000D02*X51000D01*
X52000Y413540D02*Y414000D01*
Y413540D02*Y413000D01*
Y414000D02*Y413540D01*
X44000Y398914D02*X43914Y399000D01*
Y398914D02*X44000D01*
X52000Y397214D02*X51000Y398214D01*
X51035Y397214D01*
X52000D01*
X51035D02*X51000Y398965D01*
X51035Y387932D02*Y397214D01*
X43914Y405086D02*Y399000D01*
X43869Y389376D02*Y398169D01*
X43914Y398214D01*
Y405086D02*X42000Y407000D01*
X51000Y399000D02*Y404513D01*
X42000Y407000D02*Y414000D01*
X51000Y404513D02*X52460Y405973D01*
X52000Y413540D01*
X52420Y353092D02*Y365972D01*
X43914Y389688D02*Y360531D01*
X48578Y355867D01*
X57761Y355664D02*Y370567D01*
X51884Y376752D02*X51730Y376598D01*
X98000Y354000D02*X97000D01*
X98000D02*X97000D01*
X98600Y354500D02*Y354225D01*
Y354500D02*Y354225D01*
Y354500D02*Y354225D01*
X98387Y354479D02*X98388D01*
X107453Y363544D01*
X98600Y354225D02*Y354000D01*
Y354225D02*Y354000D01*
X98036D02*X98000D01*
X98036D02*X98000D01*
X98273D02*X98036D01*
X98273D02*X98036D01*
X98273D02*X98036D01*
X98600Y354225D02*X98273Y354000D01*
X98600D02*X98273D01*
X98600D02*X98273D01*
X102857Y349648D02*X72406D01*
X72690Y349611D02*X56091D01*
X52466Y353236D01*
X87829Y362058D02*X87592D01*
X88300Y362400D02*Y362058D01*
Y362400D02*Y362058D01*
X87829D01*
X87592D01*
X88300D02*X87829D01*
X52420Y365972D02*X48187Y370205D01*
Y384862D01*
X51035Y387710D01*
X57761Y370567D02*X51730Y376598D01*
X104751Y376752D02*X51884D01*
X132000Y362000D02*X134000Y360000D01*
X133000D02*X134000D01*
X132000Y384000D02*X137000Y389000D01*
X132000Y384000D02*Y362000D01*
X136976Y370000D02*X137000D01*
X136898Y380890D02*Y369686D01*
X134000Y360000D02*X137000D01*
X131000D02*X133000D01*
X131000D02*X133000D01*
X132079Y362045D02*Y361566D01*
X130721Y360208D01*
X131998D01*
X132531Y360741D01*
X126000Y403000D02*X132000D01*
X124000Y401000D02*X126000Y403000D01*
X124000Y392000D02*Y401000D01*
X137000Y398000D02*X142000Y403000D01*
X120194Y404027D02*Y392195D01*
X129000Y374000D02*Y387000D01*
X125893Y378910D02*X126087Y379104D01*
X125317Y383750D02*X125450Y383883D01*
X129000Y387000D02*X124000Y392000D01*
X137000Y389000D02*Y398000D01*
X140126Y370000D02*X140000D01*
X143070Y370019D02*Y377117D01*
X140355Y370070D02*Y377945D01*
X143108Y387100D02*X136898Y380890D01*
X127008Y341000D02*X115000D01*
X127008Y338000D02*X128000Y337976D01*
X127008Y338000D02*X128000Y337976D01*
Y341126D02*X127008Y341000D01*
X128000Y341126D01*
X115105Y340984D02*X110692D01*
X110640Y341036D01*
X127589Y337869D02*X115143D01*
X115105Y337831D01*
X125293Y353769D02*X117231D01*
X117000Y354000D01*
X122661Y350564D02*X103773D01*
X102857Y349648D01*
X141950Y341752D02*Y359930D01*
X141957Y359821D02*Y360051D01*
X127007Y356892D02*X107925D01*
X107529Y363544D02*X122895Y378910D01*
X125893D01*
X98387Y362392D02*X119745Y383750D01*
X125317D01*
X120194Y392195D02*X104751Y376752D01*
X107925Y356892D02*X104459Y353426D01*
X107453Y363544D02*X107529D01*
X143276Y328008D02*Y322276D01*
X141000Y320000D01*
X140126Y328008D02*Y324126D01*
X133000Y333000D02*Y332000D01*
X127008Y337976D02*Y338000D01*
Y341126D02*Y341000D01*
X132776Y332776D02*X133000Y333000D01*
X130439Y327201D02*X130440D01*
X133684Y323956D02*X130439Y327201D01*
X133641Y323956D02*X136175D01*
X137020Y324801D01*
Y328313D01*
X137064Y328357D01*
X127008Y350575D02*X122425D01*
X127008Y344275D02*X122725D01*
X122000Y345000D01*
X127008Y353724D02*X125276D01*
X78000Y315000D02*X72000Y309000D01*
Y302000D01*
X65000Y317000D02*X62000Y314000D01*
X58000Y320000D02*X52000Y314000D01*
X62000D02*Y302000D01*
X52000Y314000D02*Y302000D01*
X42000Y316000D02*Y302000D01*
X82000Y308000D02*Y302000D01*
X92000D02*Y307000D01*
X96000Y311000D01*
X102000Y302000D02*Y307000D01*
X104000Y309000D01*
X87000Y313000D02*X82000Y308000D01*
X144000Y317000D02*X65000D01*
X141000Y320000D02*X58000D01*
X148000Y315000D02*X78000D01*
X137786Y322000D02*X48786D01*
X48000D02*X42000Y316000D01*
X154000Y313000D02*X87000D01*
X96000Y311000D02*X165000D01*
X166000Y409000D02*Y405000D01*
X168000Y403000D01*
X171000Y409000D02*Y405000D01*
X173000Y403000D01*
X176000Y406000D02*X173000Y403000D01*
X179000D01*
X181000Y405000D01*
Y409000D01*
X176000D02*Y406000D01*
X168000Y403000D02*X173000D01*
X159020Y386489D02*X148489D01*
X155874Y370000D02*X156000D01*
X159023D02*X159000D01*
X159052Y371378D02*X159529Y371855D01*
X155951D02*X157700Y373604D01*
X157541Y373525D02*X159290Y375274D01*
X152724Y370000D02*X153000D01*
X152453Y373843D02*X155951Y377341D01*
X155952D01*
X157621Y379010D01*
X154517Y380665D02*X156692Y382840D01*
X143070Y377117D02*X146618Y380665D01*
X154517D01*
X140355Y377945D02*X148742Y386332D01*
X167000Y367000D02*X179000D01*
X184000Y362000D01*
X160000Y360000D02*X167000Y367000D01*
X168992Y360024D02*Y360000D01*
D03*
X173000D01*
X166365Y368914D02*X187914D01*
X191000Y372000D01*
X159529Y371855D02*X170817D01*
X170897Y371935D01*
X176000Y388500D02*Y383000D01*
X181000Y388500D02*Y384000D01*
X166000Y388500D02*Y384448D01*
X171000Y388500D02*Y382882D01*
X171056Y382826D01*
X168671Y375274D02*X175189D01*
X159290D02*X169545D01*
X175189D02*X175507Y374956D01*
X157621Y379010D02*X180118D01*
X181072Y379964D01*
Y385211D01*
X146000Y365000D02*Y365566D01*
X146425D01*
Y366000D02*X146000D01*
Y365566D02*Y365000D01*
Y366000D02*Y365566D01*
X150000Y365000D02*Y364000D01*
X146000Y365000D02*X151000Y360000D01*
X152000Y362000D02*X149000Y365000D01*
X149575D02*X149000D01*
X149575D02*X150000D01*
X149575Y365566D02*Y365000D01*
Y365566D02*Y365000D01*
X158813Y361998D02*X159370D01*
X165968Y368596D01*
X166047D01*
X166365Y368914D01*
X159052Y369947D02*Y371378D01*
X155951Y369788D02*Y371855D01*
X152453Y369947D02*Y373843D01*
X143000Y387000D02*X147000Y391000D01*
Y398000D01*
X152000Y403000D01*
X160648Y390832D02*Y399378D01*
X157054Y402972D01*
X152028D01*
X152000Y403000D01*
X131434Y347425D02*X134575D01*
X136000Y346000D01*
Y344000D01*
X137000Y343000D01*
X180000Y357000D02*X185000Y352000D01*
X191000D01*
X184000Y362000D02*X191000D01*
X182211Y359905D02*X184024Y358092D01*
X168992Y357000D02*X180000D01*
X168992D03*
X172704Y359905D02*X182211D01*
X172704Y353861D02*X176825D01*
X176962Y353998D01*
X152000Y362000D02*X159000D01*
X151000Y360000D02*X160000D01*
X131000D02*Y360023D01*
X160066Y356934D02*X160000Y357000D01*
X160615Y346234D02*X147000Y359849D01*
X174000Y329000D02*X170000D01*
X168445Y344108D02*X171880D01*
X175314Y347542D01*
X172429Y350427D02*X175314Y347542D01*
X165423Y338063D02*X162264D01*
X160615Y339712D01*
Y346234D01*
X168445Y350427D02*X172429D01*
X165148Y347404D02*X162814D01*
X160066Y350152D01*
Y356934D01*
X158967Y332156D02*Y337513D01*
X157730Y338750D01*
X155670Y332568D02*Y336140D01*
X153884Y337926D01*
Y342047D01*
X152922Y331744D02*Y336003D01*
X150587Y338338D01*
X149495Y332505D02*Y334208D01*
X149173Y334530D01*
X149172D01*
X141950Y341752D01*
X150000Y328000D02*Y317000D01*
X148000Y315000D01*
X146425Y328008D02*Y319425D01*
X144000Y317000D01*
X149575Y328000D02*X150000D01*
X140000Y324000D02*X138214Y322000D01*
X159024Y332000D02*X159000D01*
X112043Y325769D02*Y325862D01*
X118957Y332776D01*
X132776D01*
X104000Y309000D02*X174000D01*
X168992Y347425D02*Y347000D01*
Y341126D02*Y341000D01*
X168000Y347425D02*X168992Y347000D01*
X168000Y347425D01*
X168992Y341000D02*X168000Y341126D01*
X168992Y341000D02*X168000Y341126D01*
X173000Y341000D02*X168992D01*
X164566Y353725D02*Y354000D01*
X163000D01*
X165000Y353725D02*X164566Y354000D01*
X165000Y353725D01*
X163000Y354000D02*X160000Y357000D01*
X146559Y360000D02*X147000D01*
Y359849D02*X146559Y360000D01*
X147000Y359849D02*Y358500D01*
Y360000D02*Y359849D01*
X168992Y356874D02*Y357000D01*
Y353725D02*Y354000D01*
X173000D02*X168992D01*
X170000Y329000D02*X154000Y313000D01*
X165000Y311000D02*X178000Y324000D01*
Y332000D01*
X174000Y309000D02*X182000Y317000D01*
Y334000D01*
X179000Y337000D01*
G54D12*G36*
X188000Y385000D02*Y379000D01*
X194000D01*
Y385000D01*
X188000D01*
G37*
G54D13*X191000Y372000D03*
G54D12*G36*
X149000Y406000D02*Y400000D01*
X155000D01*
Y406000D01*
X149000D01*
G37*
G54D13*X152000Y393000D03*
X142000Y403000D03*
Y393000D03*
X132000Y403000D03*
Y393000D03*
X72000Y302000D03*
X82000D03*
X92000D03*
X102000D03*
G54D12*G36*
X39000Y305000D02*Y299000D01*
X45000D01*
Y305000D01*
X39000D01*
G37*
G54D13*X52000Y302000D03*
X62000D03*
X112000D03*
X191000Y362000D03*
Y352000D03*
Y342000D03*
Y332000D03*
G54D14*X88300Y362400D03*
X98600D03*
Y354500D03*
Y344700D03*
G54D15*X100000Y332600D03*
X77600D03*
G54D14*X88300Y354500D03*
Y344700D03*
G54D12*G36*
X39000Y417000D02*Y411000D01*
X45000D01*
Y417000D01*
X39000D01*
G37*
G54D13*X52000Y414000D03*
X62000D03*
X72000D03*
X82000D03*
G54D15*X77600Y384300D03*
G54D13*X92000Y414000D03*
G54D14*X88300Y372200D03*
X98600D03*
G54D15*X100000Y384300D03*
G54D13*X102000Y414000D03*
X112000D03*
G54D16*X173000Y403000D03*
X171056Y382826D03*
X137000Y360000D03*
X141957Y359821D03*
X147089Y359432D03*
X156692Y382840D03*
X159020Y386489D03*
X160648Y390832D03*
X184024Y358092D03*
X170897Y371935D03*
X176064Y375512D03*
Y382746D03*
X166047D03*
X148742Y386332D03*
X133000Y333000D03*
X128983Y373945D03*
X125450Y383883D03*
X125507Y378913D03*
X120194Y404027D03*
X130439Y327201D03*
X87000Y327000D03*
X122000Y345000D03*
X110640Y341036D03*
X115105Y337831D03*
X112043Y325769D03*
X40730Y367598D03*
X51730Y376598D03*
X82524Y366941D03*
X48578Y355867D03*
X57761Y355664D03*
X104226Y353933D03*
X117008Y353840D03*
X137000Y343000D03*
X153884Y342047D03*
X150587Y338338D03*
X173000Y341000D03*
X179000Y337000D03*
X160000Y357000D03*
X176962Y353998D03*
X175314Y347542D03*
X157730Y338750D03*
X174000Y329000D03*
X178000Y332000D03*
G54D17*X51000Y399000D02*Y398214D01*
X43914Y399000D02*Y398214D01*
G54D18*X164566Y337977D02*X168992D01*
X164566Y341126D02*X168992D01*
X164566Y344276D02*X168992D01*
X164566Y347425D02*X168992D01*
X164566Y350575D02*X168992D01*
X164566Y353725D02*X168992D01*
X164566Y356874D02*X168992D01*
X164566Y360024D02*X168992D01*
X159023Y369992D02*Y365566D01*
X155874Y369992D02*Y365566D01*
X152724Y369992D02*Y365566D01*
X149575Y369992D02*Y365566D01*
X146425Y369992D02*Y365566D01*
X143275Y369992D02*Y365566D01*
X140126Y369992D02*Y365566D01*
X136976Y369992D02*Y365566D01*
X127008Y360023D02*X131434D01*
X127008Y356874D02*X131434D01*
X127008Y353724D02*X131434D01*
X127008Y350575D02*X131434D01*
X127008Y347425D02*X131434D01*
X127008Y344275D02*X131434D01*
X127008Y341126D02*X131434D01*
X127008Y337976D02*X131434D01*
X136977Y332434D02*Y328008D01*
X140126Y332434D02*Y328008D01*
X143276Y332434D02*Y328008D01*
X146425Y332434D02*Y328008D01*
X149575Y332434D02*Y328008D01*
X152725Y332434D02*Y328008D01*
X155874Y332434D02*Y328008D01*
X159024Y332434D02*Y328008D01*
G54D19*X166000Y395000D02*Y388500D01*
Y415500D02*Y409000D01*
X171000Y395000D02*Y388500D01*
X176000Y395000D02*Y388500D01*
X181000Y395000D02*Y388500D01*
Y415500D02*Y409000D01*
X176000Y415500D02*Y409000D01*
X171000Y415500D02*Y409000D01*
G54D20*G54D16*G54D21*G54D16*G54D20*G54D21*G54D20*G54D16*G54D21*G54D20*G54D12*M02*
