M48
INCH
T12C0.020
T16C0.036
T20C0.038
T21C0.091
%
T12
X017300Y040300
X017105Y038282
X013700Y036000
X014195Y035982
X014708Y035943
X015669Y038284
X015902Y038648
X016064Y039083
X018402Y035809
X017089Y037193
X017606Y037551
X017606Y038274
X016604Y038274
X014874Y038633
X013300Y033300
X012898Y037394
X012545Y038388
X012550Y037891
X012019Y040402
X013043Y032720
X008700Y032700
X012200Y034500
X011064Y034103
X011510Y033783
X011204Y032576
X004073Y036759
X005173Y037659
X008252Y036694
X004857Y035586
X005776Y035566
X010422Y035393
X011700Y035384
X013700Y034300
X015388Y034204
X015058Y033833
X017300Y034100
X017900Y033700
X016000Y035700
X017696Y035399
X017531Y034754
X015773Y033875
X017400Y032900
X017800Y033200
T16
X008830Y036240
X009860Y036240
X009860Y035450
X009860Y034470
X008830Y035450
X008830Y034470
X008830Y037220
X009860Y037220
T20
X019100Y038200
X019100Y037200
X015200Y040300
X015200Y039300
X014200Y040300
X014200Y039300
X013200Y040300
X013200Y039300
X007200Y030200
X008200Y030200
X009200Y030200
X010200Y030200
X004200Y030200
X005200Y030200
X006200Y030200
X011200Y030200
X019100Y036200
X019100Y035200
X019100Y034200
X019100Y033200
X004200Y041400
X005200Y041400
X006200Y041400
X007200Y041400
X008200Y041400
X009200Y041400
X010200Y041400
X011200Y041400
T21
X010000Y033260
X007760Y033260
X007760Y038430
X010000Y038430
M30
