G04 start of page 10 for group -4015 idx -4015 *
G04 Title: (unknown), toppaste *
G04 Creator: pcb 20091103 *
G04 CreationDate: Sun 10 Apr 2011 10:44:47 AM GMT UTC *
G04 For: gjhurlbu *
G04 Format: Gerber/RS-274X *
G04 PCB-Dimensions: 600000 500000 *
G04 PCB-Coordinate-Origin: lower left *
%MOIN*%
%FSLAX25Y25*%
%LNFRONTPASTE*%
%ADD17R,0.0512X0.0512*%
%ADD18R,0.0157X0.0157*%
%ADD19R,0.0200X0.0200*%
G54D17*X51000Y399000D02*Y398214D01*
X43914Y399000D02*Y398214D01*
G54D19*X166000Y395000D02*Y388500D01*
X171000Y395000D02*Y388500D01*
X176000Y395000D02*Y388500D01*
X181000Y395000D02*Y388500D01*
Y415500D02*Y409000D01*
X176000Y415500D02*Y409000D01*
X171000Y415500D02*Y409000D01*
X166000Y415500D02*Y409000D01*
G54D18*X164566Y337977D02*X168992D01*
X164566Y341126D02*X168992D01*
X164566Y344276D02*X168992D01*
X164566Y347425D02*X168992D01*
X164566Y350575D02*X168992D01*
X164566Y353725D02*X168992D01*
X164566Y356874D02*X168992D01*
X164566Y360024D02*X168992D01*
X159023Y369992D02*Y365566D01*
X155874Y369992D02*Y365566D01*
X152724Y369992D02*Y365566D01*
X149575Y369992D02*Y365566D01*
X146425Y369992D02*Y365566D01*
X143275Y369992D02*Y365566D01*
X140126Y369992D02*Y365566D01*
X136976Y369992D02*Y365566D01*
X127008Y360023D02*X131434D01*
X127008Y356874D02*X131434D01*
X127008Y353724D02*X131434D01*
X127008Y350575D02*X131434D01*
X127008Y347425D02*X131434D01*
X127008Y344275D02*X131434D01*
X127008Y341126D02*X131434D01*
X127008Y337976D02*X131434D01*
X136977Y332434D02*Y328008D01*
X140126Y332434D02*Y328008D01*
X143276Y332434D02*Y328008D01*
X146425Y332434D02*Y328008D01*
X149575Y332434D02*Y328008D01*
X152725Y332434D02*Y328008D01*
X155874Y332434D02*Y328008D01*
X159024Y332434D02*Y328008D01*
M02*
