G04 start of page 5 for group -4062 idx -4062 *
G04 Title: (unknown), soldermask *
G04 Creator: pcb 20091103 *
G04 CreationDate: Sun 10 Apr 2011 10:44:47 AM GMT UTC *
G04 For: gjhurlbu *
G04 Format: Gerber/RS-274X *
G04 PCB-Dimensions: 600000 500000 *
G04 PCB-Coordinate-Origin: lower left *
%MOIN*%
%FSLAX25Y25*%
%LNBACKMASK*%
%ADD12C,0.0200*%
%ADD23C,0.0660*%
%ADD24C,0.0620*%
%ADD25C,0.1210*%
%ADD26R,0.0572X0.0572*%
%ADD28R,0.0300X0.0300*%
G54D12*G36*
X187700Y385300D02*Y378700D01*
X194300D01*
Y385300D01*
X187700D01*
G37*
G54D23*X191000Y372000D03*
G54D12*G36*
X148700Y406300D02*Y399700D01*
X155300D01*
Y406300D01*
X148700D01*
G37*
G54D23*X152000Y393000D03*
X142000Y403000D03*
Y393000D03*
X132000Y403000D03*
Y393000D03*
X72000Y302000D03*
X82000D03*
X92000D03*
X102000D03*
G54D12*G36*
X38700Y305300D02*Y298700D01*
X45300D01*
Y305300D01*
X38700D01*
G37*
G54D23*X52000Y302000D03*
X62000D03*
X112000D03*
X191000Y362000D03*
Y352000D03*
Y342000D03*
Y332000D03*
G54D24*X88300Y362400D03*
X98600D03*
Y354500D03*
Y344700D03*
G54D25*X100000Y332600D03*
X77600D03*
G54D24*X88300Y354500D03*
Y344700D03*
G54D12*G36*
X38700Y417300D02*Y410700D01*
X45300D01*
Y417300D01*
X38700D01*
G37*
G54D23*X52000Y414000D03*
X62000D03*
X72000D03*
X82000D03*
G54D25*X77600Y384300D03*
G54D23*X92000Y414000D03*
G54D24*X88300Y372200D03*
X98600D03*
G54D25*X100000Y384300D03*
G54D23*X102000Y414000D03*
X112000D03*
G54D26*X42000Y312914D02*X42786D01*
X42000Y320000D02*X42786D01*
X52214Y312914D02*X53000D01*
X62214D02*X63000D01*
X81607Y312457D02*X82393D01*
X71214Y312914D02*X72000D01*
X52214Y320000D02*X53000D01*
X62214D02*X63000D01*
X81607Y319543D02*X82393D01*
X71214Y320000D02*X72000D01*
G54D28*X74835Y370686D02*X76435D01*
X74835Y366786D02*X76435D01*
X74835Y362886D02*X76435D01*
X66635D02*X68235D01*
X66635Y366786D02*X68235D01*
X66635Y370686D02*X68235D01*
G54D26*X48187Y370991D02*Y370205D01*
X55273Y370991D02*Y370205D01*
X48187Y363991D02*Y363205D01*
X55273Y363991D02*Y363205D01*
G54D28*X139000Y376000D02*Y369500D01*
X144000Y376000D02*Y369500D01*
X149000Y376000D02*Y369500D01*
X154000Y355500D02*Y349000D01*
Y376000D02*Y369500D01*
X149000Y355500D02*Y349000D01*
X144000Y355500D02*Y349000D01*
X139000Y355500D02*Y349000D01*
M02*
