G04 start of page 3 for group 1 idx 1 *
G04 Title: (unknown), solder *
G04 Creator: pcb 20091103 *
G04 CreationDate: Mon 21 Mar 2011 05:54:21 AM GMT UTC *
G04 For: gjhurlbu *
G04 Format: Gerber/RS-274X *
G04 PCB-Dimensions: 600000 500000 *
G04 PCB-Coordinate-Origin: lower left *
%MOIN*%
%FSLAX25Y25*%
%LNBACK*%
%ADD11C,0.0100*%
%ADD12C,0.0200*%
%ADD13C,0.0600*%
%ADD14C,0.0360*%
%ADD17C,0.0380*%
%ADD18R,0.0512X0.0512*%
G54D12*G36*
X120113Y462500D02*X122500D01*
Y410000D01*
X120113D01*
Y418860D01*
X120208Y418882D01*
X120329Y418933D01*
X120438Y419005D01*
X120534Y419094D01*
X120613Y419198D01*
X120672Y419315D01*
X120814Y419722D01*
X120917Y420142D01*
X120979Y420569D01*
X121000Y421000D01*
X120979Y421432D01*
X120917Y421859D01*
X120814Y422279D01*
X120672Y422686D01*
X120671D01*
X120612Y422802D01*
X120533Y422907D01*
X120437Y422996D01*
X120328Y423067D01*
X120207Y423118D01*
X120113Y423139D01*
Y428344D01*
X120397Y428750D01*
X120729Y429461D01*
X120932Y430219D01*
X121000Y431000D01*
X120932Y431781D01*
X120729Y432539D01*
X120397Y433250D01*
X120113Y433656D01*
Y438344D01*
X120397Y438750D01*
X120729Y439461D01*
X120932Y440219D01*
X121000Y441000D01*
X120932Y441781D01*
X120729Y442539D01*
X120397Y443250D01*
X120113Y443656D01*
Y446637D01*
X120250Y446701D01*
X120464Y446851D01*
X120649Y447036D01*
X120799Y447250D01*
X120910Y447487D01*
X120977Y447740D01*
X121000Y448000D01*
Y454000D01*
X120977Y454260D01*
X120910Y454513D01*
X120799Y454750D01*
X120649Y454964D01*
X120464Y455149D01*
X120250Y455299D01*
X120113Y455363D01*
Y462500D01*
G37*
G36*
Y443656D02*X119947Y443893D01*
X119393Y444447D01*
X118750Y444897D01*
X118039Y445229D01*
X117281Y445432D01*
X116500Y445500D01*
Y446500D01*
X119500D01*
X119760Y446523D01*
X120013Y446590D01*
X120113Y446637D01*
Y443656D01*
G37*
G36*
Y433656D02*X119947Y433893D01*
X119393Y434447D01*
X118750Y434897D01*
X118039Y435229D01*
X117281Y435432D01*
X116500Y435500D01*
Y436500D01*
X117281Y436568D01*
X118039Y436771D01*
X118750Y437103D01*
X119393Y437553D01*
X119947Y438107D01*
X120113Y438344D01*
Y433656D01*
G37*
G36*
Y410000D02*X116500D01*
Y416500D01*
X116931Y416521D01*
X117358Y416583D01*
X117778Y416686D01*
X118185Y416828D01*
Y416829D01*
X118301Y416888D01*
X118406Y416967D01*
X118495Y417063D01*
X118566Y417172D01*
X118617Y417293D01*
X118646Y417420D01*
X118653Y417550D01*
X118637Y417680D01*
X118599Y417805D01*
X118540Y417921D01*
X118461Y418026D01*
X118365Y418115D01*
X118256Y418186D01*
X118135Y418237D01*
X118008Y418266D01*
X117878Y418273D01*
X117748Y418257D01*
X117623Y418219D01*
X117352Y418124D01*
X117072Y418056D01*
X116787Y418014D01*
X116500Y418000D01*
Y424000D01*
X116787Y423987D01*
X117072Y423945D01*
X117352Y423877D01*
X117623Y423782D01*
Y423781D01*
X117748Y423743D01*
X117878Y423727D01*
X118009Y423734D01*
X118136Y423763D01*
X118257Y423814D01*
X118366Y423886D01*
X118462Y423975D01*
X118541Y424079D01*
X118600Y424196D01*
X118638Y424321D01*
X118654Y424451D01*
X118647Y424582D01*
X118618Y424709D01*
X118567Y424830D01*
X118495Y424939D01*
X118406Y425035D01*
X118302Y425114D01*
X118185Y425173D01*
X117778Y425315D01*
X117358Y425418D01*
X116931Y425480D01*
X116500Y425500D01*
Y426500D01*
X117281Y426568D01*
X118039Y426771D01*
X118750Y427103D01*
X119393Y427553D01*
X119947Y428107D01*
X120113Y428344D01*
Y423139D01*
X120080Y423147D01*
X119950Y423154D01*
X119820Y423138D01*
X119695Y423100D01*
X119579Y423041D01*
X119474Y422962D01*
X119385Y422866D01*
X119314Y422757D01*
X119263Y422636D01*
X119234Y422509D01*
X119227Y422379D01*
X119243Y422249D01*
X119281Y422124D01*
X119376Y421853D01*
X119444Y421573D01*
X119486Y421288D01*
X119500Y421000D01*
X119486Y420713D01*
X119444Y420428D01*
X119376Y420148D01*
X119281Y419877D01*
X119280D01*
X119242Y419752D01*
X119226Y419622D01*
X119233Y419491D01*
X119262Y419364D01*
X119313Y419243D01*
X119385Y419134D01*
X119474Y419038D01*
X119578Y418959D01*
X119695Y418900D01*
X119820Y418862D01*
X119950Y418846D01*
X120081Y418853D01*
X120113Y418860D01*
Y410000D01*
G37*
G36*
X116500Y462500D02*X120113D01*
Y455363D01*
X120013Y455410D01*
X119760Y455477D01*
X119500Y455500D01*
X116500D01*
Y462500D01*
G37*
G36*
X112887Y438344D02*X113053Y438107D01*
X113607Y437553D01*
X114250Y437103D01*
X114961Y436771D01*
X115719Y436568D01*
X116500Y436500D01*
Y435500D01*
X115719Y435432D01*
X114961Y435229D01*
X114250Y434897D01*
X113607Y434447D01*
X113053Y433893D01*
X112887Y433656D01*
Y438344D01*
G37*
G36*
X116500Y410000D02*X112887D01*
Y418861D01*
X112919Y418854D01*
X113049Y418847D01*
X113179Y418863D01*
X113304Y418901D01*
X113420Y418960D01*
X113525Y419039D01*
X113614Y419135D01*
X113685Y419244D01*
X113736Y419365D01*
X113765Y419492D01*
X113772Y419622D01*
X113756Y419752D01*
X113718Y419877D01*
X113623Y420148D01*
X113555Y420428D01*
X113513Y420713D01*
X113500Y421001D01*
X113513Y421288D01*
X113546Y421510D01*
X113555Y421573D01*
X113623Y421853D01*
X113718Y422124D01*
X113719D01*
X113757Y422249D01*
X113773Y422379D01*
X113766Y422510D01*
X113737Y422637D01*
X113686Y422758D01*
X113614Y422867D01*
X113525Y422963D01*
X113421Y423042D01*
X113304Y423101D01*
X113179Y423139D01*
X113049Y423155D01*
X112918Y423148D01*
X112887Y423141D01*
Y428344D01*
X113053Y428107D01*
X113607Y427553D01*
X114250Y427103D01*
X114961Y426771D01*
X115719Y426568D01*
X116500Y426500D01*
Y425500D01*
X116068Y425480D01*
X115641Y425418D01*
X115221Y425315D01*
X114814Y425173D01*
Y425172D01*
X114698Y425113D01*
X114593Y425034D01*
X114504Y424938D01*
X114433Y424829D01*
X114382Y424708D01*
X114353Y424581D01*
X114346Y424451D01*
X114362Y424321D01*
X114400Y424196D01*
X114459Y424080D01*
X114538Y423975D01*
X114634Y423886D01*
X114743Y423815D01*
X114864Y423764D01*
X114991Y423735D01*
X115121Y423728D01*
X115251Y423744D01*
X115376Y423782D01*
X115647Y423877D01*
X115927Y423945D01*
X116212Y423987D01*
X116500Y424000D01*
Y418000D01*
X116499D01*
X116212Y418014D01*
X115927Y418056D01*
X115647Y418124D01*
X115376Y418219D01*
Y418220D01*
X115251Y418258D01*
X115121Y418274D01*
X114990Y418267D01*
X114863Y418238D01*
X114742Y418187D01*
X114633Y418115D01*
X114537Y418026D01*
X114458Y417922D01*
X114399Y417805D01*
X114361Y417680D01*
X114345Y417550D01*
X114352Y417419D01*
X114381Y417292D01*
X114432Y417171D01*
X114504Y417062D01*
X114593Y416966D01*
X114697Y416887D01*
X114814Y416828D01*
X115221Y416686D01*
X115641Y416583D01*
X116068Y416521D01*
X116499Y416500D01*
X116500D01*
Y410000D01*
G37*
G36*
X112887D02*X103250D01*
Y421957D01*
X103302Y421966D01*
X103353Y421984D01*
X103427Y422004D01*
X103492Y422035D01*
X103548Y422055D01*
X103599Y422085D01*
X103664Y422115D01*
X103725Y422157D01*
X103774Y422186D01*
X103818Y422223D01*
X103878Y422265D01*
X103930Y422317D01*
X103974Y422354D01*
X105560Y423940D01*
X105561Y423939D01*
X105608Y423995D01*
X105649Y424036D01*
X105682Y424083D01*
X105729Y424139D01*
X105766Y424203D01*
X105799Y424250D01*
X105825Y424305D01*
X105860Y424366D01*
X105882Y424428D01*
X105910Y424487D01*
X105927Y424551D01*
X105949Y424612D01*
X105961Y424681D01*
X105977Y424740D01*
X105982Y424796D01*
X105995Y424869D01*
Y424943D01*
X106000Y425000D01*
Y431145D01*
X106300Y431355D01*
X106645Y431700D01*
X106925Y432100D01*
X107131Y432542D01*
X107257Y433014D01*
X107300Y433500D01*
X107257Y433986D01*
X107131Y434458D01*
X106925Y434900D01*
X106645Y435300D01*
X106300Y435645D01*
X105900Y435925D01*
X105458Y436131D01*
X104986Y436257D01*
X104500Y436300D01*
X104014Y436257D01*
X103542Y436131D01*
X103250Y435995D01*
Y439500D01*
X112261D01*
X112271Y439461D01*
X112603Y438750D01*
X112887Y438344D01*
Y433656D01*
X112603Y433250D01*
X112271Y432539D01*
X112068Y431781D01*
X112000Y431000D01*
X112068Y430219D01*
X112271Y429461D01*
X112603Y428750D01*
X112887Y428344D01*
Y423141D01*
X112791Y423119D01*
X112670Y423068D01*
X112561Y422996D01*
X112465Y422907D01*
X112386Y422803D01*
X112327Y422686D01*
X112185Y422279D01*
X112082Y421859D01*
X112031Y421510D01*
X112020Y421432D01*
X112000Y421001D01*
X112020Y420569D01*
X112082Y420142D01*
X112185Y419722D01*
X112327Y419315D01*
X112328D01*
X112387Y419199D01*
X112466Y419094D01*
X112562Y419005D01*
X112671Y418934D01*
X112792Y418883D01*
X112887Y418861D01*
Y410000D01*
G37*
G36*
X103250Y462500D02*X116500D01*
Y455500D01*
X113500D01*
X113240Y455477D01*
X112987Y455410D01*
X112750Y455299D01*
X112536Y455149D01*
X112351Y454964D01*
X112201Y454750D01*
X112090Y454513D01*
X112023Y454260D01*
X112000Y454000D01*
Y448000D01*
X112023Y447740D01*
X112090Y447487D01*
X112201Y447250D01*
X112351Y447036D01*
X112536Y446851D01*
X112750Y446701D01*
X112987Y446590D01*
X113240Y446523D01*
X113500Y446500D01*
X116500D01*
Y445500D01*
X115719Y445432D01*
X114961Y445229D01*
X114250Y444897D01*
X113607Y444447D01*
X113053Y443893D01*
X112603Y443250D01*
X112271Y442539D01*
X112261Y442500D01*
X103250D01*
Y453065D01*
X103281Y453068D01*
X104039Y453271D01*
X104750Y453603D01*
X105393Y454053D01*
X105947Y454607D01*
X106397Y455250D01*
X106729Y455961D01*
X106932Y456719D01*
X107000Y457500D01*
X106932Y458281D01*
X106729Y459039D01*
X106397Y459750D01*
X105947Y460393D01*
X105393Y460947D01*
X104750Y461397D01*
X104039Y461729D01*
X103281Y461932D01*
X103250Y461935D01*
Y462500D01*
G37*
G36*
X91000Y430200D02*X91244Y430211D01*
X91486Y430243D01*
X91724Y430296D01*
X91957Y430369D01*
X92036Y430406D01*
X92107Y430456D01*
X92141Y430489D01*
X92152Y430500D01*
X93655D01*
Y428286D01*
X93645Y428300D01*
X93300Y428645D01*
X92900Y428925D01*
X92458Y429131D01*
X91986Y429257D01*
X91500Y429300D01*
X91014Y429257D01*
X91000Y429253D01*
Y430200D01*
G37*
G36*
X103250Y435995D02*X103100Y435925D01*
X102700Y435645D01*
X102355Y435300D01*
X102075Y434900D01*
X101869Y434458D01*
X101743Y433986D01*
X101700Y433500D01*
X101743Y433014D01*
X101869Y432542D01*
X102075Y432100D01*
X102355Y431700D01*
X102700Y431355D01*
X103000Y431145D01*
Y425622D01*
X102292Y424914D01*
X101559D01*
Y425973D01*
X101544Y426147D01*
X101499Y426315D01*
X101425Y426473D01*
X101325Y426616D01*
X101202Y426739D01*
X101059Y426839D01*
X100901Y426913D01*
X100737Y426957D01*
X100901Y427001D01*
X101059Y427075D01*
X101202Y427175D01*
X101325Y427298D01*
X101425Y427441D01*
X101499Y427599D01*
X101544Y427767D01*
X101559Y427941D01*
Y433059D01*
X101544Y433233D01*
X101499Y433401D01*
X101425Y433559D01*
X101325Y433702D01*
X101202Y433825D01*
X101059Y433925D01*
X100901Y433999D01*
X100733Y434044D01*
X100559Y434059D01*
X94655D01*
X94481Y434044D01*
X94313Y433999D01*
X94155Y433925D01*
X94012Y433825D01*
X93889Y433702D01*
X93789Y433559D01*
X93761Y433500D01*
X93754D01*
X93752Y433510D01*
X93704Y433725D01*
X93631Y433958D01*
X93594Y434037D01*
X93544Y434108D01*
X93483Y434170D01*
X93411Y434220D01*
X93332Y434257D01*
X93248Y434280D01*
X93161Y434287D01*
X93074Y434280D01*
X92990Y434257D01*
X92911Y434220D01*
X92840Y434170D01*
X92778Y434109D01*
X92728Y434037D01*
X92691Y433958D01*
X92668Y433874D01*
X92661Y433787D01*
X92668Y433700D01*
X92691Y433616D01*
X92724Y433510D01*
X92727Y433500D01*
X92621D01*
X92061Y434060D01*
X91861Y434228D01*
X91634Y434359D01*
X91389Y434448D01*
X91131Y434494D01*
X91000D01*
Y434800D01*
X91156Y434794D01*
X91312Y434773D01*
X91465Y434739D01*
X91615Y434692D01*
X91699Y434669D01*
X91786Y434662D01*
X91873Y434669D01*
X91957Y434692D01*
X92036Y434729D01*
X92108Y434779D01*
X92169Y434841D01*
X92219Y434912D01*
X92256Y434991D01*
X92279Y435075D01*
X92286Y435162D01*
X92279Y435249D01*
X92256Y435333D01*
X92219Y435412D01*
X92169Y435484D01*
X92107Y435545D01*
X92036Y435595D01*
X91957Y435632D01*
X91724Y435705D01*
X91486Y435758D01*
X91244Y435790D01*
X91000Y435800D01*
Y438880D01*
X91620Y439500D01*
X103250D01*
Y435995D01*
G37*
G36*
X91000Y434494D02*X90870D01*
X90613Y434449D01*
X90367Y434360D01*
X90140Y434229D01*
X89940Y434061D01*
X89772Y433861D01*
X89641Y433634D01*
X89552Y433389D01*
X89506Y433131D01*
Y432870D01*
X89551Y432613D01*
X89640Y432367D01*
X89771Y432140D01*
X89939Y431940D01*
X90641Y431238D01*
X90534Y431262D01*
X90384Y431309D01*
X90300Y431332D01*
X90213Y431339D01*
X90126Y431332D01*
X90042Y431309D01*
X89963Y431272D01*
X89891Y431222D01*
X89830Y431160D01*
X89780Y431089D01*
X89743Y431010D01*
X89720Y430926D01*
X89713Y430839D01*
X89720Y430752D01*
X89743Y430668D01*
X89780Y430589D01*
X89830Y430517D01*
X89892Y430456D01*
X89963Y430406D01*
X90042Y430369D01*
X90275Y430296D01*
X90513Y430243D01*
X90755Y430211D01*
X90999Y430200D01*
X91000D01*
Y429253D01*
X90896Y429225D01*
X88500Y431621D01*
Y431847D01*
X88516Y431831D01*
X88588Y431781D01*
X88667Y431744D01*
X88751Y431721D01*
X88838Y431714D01*
X88925Y431721D01*
X89009Y431744D01*
X89088Y431781D01*
X89159Y431831D01*
X89221Y431892D01*
X89271Y431964D01*
X89308Y432043D01*
X89331Y432127D01*
X89338Y432214D01*
X89331Y432301D01*
X89308Y432385D01*
X89261Y432535D01*
X89227Y432688D01*
X89206Y432844D01*
X89200Y433001D01*
X89206Y433157D01*
X89227Y433313D01*
X89261Y433466D01*
X89308Y433616D01*
X89331Y433700D01*
X89338Y433787D01*
X89331Y433874D01*
X89308Y433958D01*
X89271Y434037D01*
X89221Y434109D01*
X89159Y434170D01*
X89088Y434220D01*
X89009Y434257D01*
X88925Y434280D01*
X88838Y434287D01*
X88751Y434280D01*
X88667Y434257D01*
X88588Y434220D01*
X88516Y434170D01*
X88500Y434154D01*
Y436380D01*
X91000Y438880D01*
Y435800D01*
X90755Y435790D01*
X90513Y435758D01*
X90275Y435705D01*
X90042Y435632D01*
X89963Y435595D01*
X89892Y435545D01*
X89830Y435484D01*
X89780Y435412D01*
X89743Y435333D01*
X89720Y435249D01*
X89713Y435162D01*
X89720Y435075D01*
X89743Y434991D01*
X89780Y434912D01*
X89830Y434841D01*
X89891Y434779D01*
X89963Y434729D01*
X90042Y434692D01*
X90126Y434669D01*
X90213Y434662D01*
X90300Y434669D01*
X90384Y434692D01*
X90534Y434739D01*
X90687Y434773D01*
X90843Y434794D01*
X91000Y434800D01*
Y434494D01*
G37*
G36*
X66769Y439326D02*X66772Y439313D01*
X66793Y439157D01*
X66800Y439000D01*
X66793Y438844D01*
X66772Y438688D01*
X66769Y438674D01*
Y439326D01*
G37*
G36*
X71231Y452663D02*X71300Y452669D01*
X71384Y452692D01*
X71534Y452739D01*
X71641Y452763D01*
X71231Y452353D01*
Y452663D01*
G37*
G36*
X95231Y419855D02*X97000D01*
X96700Y419645D01*
X96355Y419300D01*
X96075Y418900D01*
X95869Y418458D01*
X95743Y417986D01*
X95700Y417500D01*
X95743Y417014D01*
X95869Y416542D01*
X96075Y416100D01*
X96355Y415700D01*
X96700Y415355D01*
X97100Y415075D01*
X97542Y414869D01*
X98014Y414743D01*
X98500Y414700D01*
X98986Y414743D01*
X99458Y414869D01*
X99900Y415075D01*
X100300Y415355D01*
X100645Y415700D01*
X100925Y416100D01*
X101131Y416542D01*
X101257Y417014D01*
X101300Y417500D01*
X101257Y417986D01*
X101131Y418458D01*
X100925Y418900D01*
X100645Y419300D01*
X100300Y419645D01*
X100000Y419855D01*
X100559D01*
X100733Y419870D01*
X100901Y419915D01*
X101059Y419989D01*
X101202Y420089D01*
X101325Y420212D01*
X101425Y420355D01*
X101499Y420513D01*
X101544Y420681D01*
X101559Y420855D01*
Y421914D01*
X102914D01*
X102994Y421921D01*
X103045D01*
X103098Y421930D01*
X103174Y421937D01*
X103248Y421957D01*
X103250D01*
Y410000D01*
X95231D01*
Y411720D01*
X95248Y411721D01*
X95332Y411744D01*
X95411Y411781D01*
X95483Y411831D01*
X95544Y411893D01*
X95594Y411964D01*
X95631Y412043D01*
X95704Y412276D01*
X95757Y412514D01*
X95789Y412756D01*
X95800Y413000D01*
X95789Y413245D01*
X95757Y413487D01*
X95704Y413725D01*
X95631Y413958D01*
X95594Y414037D01*
X95544Y414108D01*
X95483Y414170D01*
X95411Y414220D01*
X95332Y414257D01*
X95248Y414280D01*
X95231Y414281D01*
Y419855D01*
G37*
G36*
X93000Y424145D02*X93300Y424355D01*
X93645Y424700D01*
X93655Y424714D01*
Y420855D01*
X93670Y420681D01*
X93715Y420513D01*
X93789Y420355D01*
X93889Y420212D01*
X94012Y420089D01*
X94155Y419989D01*
X94313Y419915D01*
X94481Y419870D01*
X94655Y419855D01*
X95231D01*
Y414281D01*
X95161Y414287D01*
X95074Y414280D01*
X94990Y414257D01*
X94911Y414220D01*
X94840Y414170D01*
X94778Y414109D01*
X94728Y414037D01*
X94691Y413958D01*
X94668Y413874D01*
X94661Y413787D01*
X94668Y413700D01*
X94691Y413616D01*
X94738Y413466D01*
X94772Y413313D01*
X94793Y413157D01*
X94800Y413000D01*
X94793Y412844D01*
X94772Y412688D01*
X94738Y412535D01*
X94691Y412385D01*
X94668Y412301D01*
X94661Y412214D01*
X94668Y412127D01*
X94691Y412043D01*
X94728Y411964D01*
X94778Y411892D01*
X94840Y411831D01*
X94911Y411781D01*
X94990Y411744D01*
X95074Y411721D01*
X95161Y411714D01*
X95231Y411720D01*
Y410000D01*
X93000D01*
Y410200D01*
X93244Y410211D01*
X93486Y410243D01*
X93724Y410296D01*
X93957Y410369D01*
X94036Y410406D01*
X94107Y410456D01*
X94169Y410517D01*
X94219Y410589D01*
X94256Y410668D01*
X94279Y410752D01*
X94286Y410839D01*
X94279Y410926D01*
X94256Y411010D01*
X94219Y411089D01*
X94169Y411160D01*
X94108Y411222D01*
X94036Y411272D01*
X93957Y411309D01*
X93873Y411332D01*
X93786Y411339D01*
X93699Y411332D01*
X93615Y411309D01*
X93465Y411262D01*
X93312Y411228D01*
X93156Y411207D01*
X93000Y411200D01*
Y414800D01*
X93156Y414794D01*
X93312Y414773D01*
X93465Y414739D01*
X93615Y414692D01*
X93699Y414669D01*
X93786Y414662D01*
X93873Y414669D01*
X93957Y414692D01*
X94036Y414729D01*
X94108Y414779D01*
X94169Y414841D01*
X94219Y414912D01*
X94256Y414991D01*
X94279Y415075D01*
X94286Y415162D01*
X94279Y415249D01*
X94256Y415333D01*
X94219Y415412D01*
X94169Y415484D01*
X94107Y415545D01*
X94036Y415595D01*
X93957Y415632D01*
X93724Y415705D01*
X93486Y415758D01*
X93244Y415790D01*
X93000Y415800D01*
Y424145D01*
G37*
G36*
X90769Y423808D02*X91014Y423743D01*
X91500Y423700D01*
X91986Y423743D01*
X92458Y423869D01*
X92900Y424075D01*
X93000Y424145D01*
Y415800D01*
X92755Y415790D01*
X92513Y415758D01*
X92275Y415705D01*
X92042Y415632D01*
X91963Y415595D01*
X91892Y415545D01*
X91830Y415484D01*
X91780Y415412D01*
X91743Y415333D01*
X91720Y415249D01*
X91713Y415162D01*
X91720Y415075D01*
X91743Y414991D01*
X91780Y414912D01*
X91830Y414841D01*
X91891Y414779D01*
X91963Y414729D01*
X92042Y414692D01*
X92126Y414669D01*
X92213Y414662D01*
X92300Y414669D01*
X92384Y414692D01*
X92534Y414739D01*
X92687Y414773D01*
X92843Y414794D01*
X93000Y414800D01*
Y411200D01*
X92999D01*
X92843Y411207D01*
X92687Y411228D01*
X92534Y411262D01*
X92384Y411309D01*
X92300Y411332D01*
X92213Y411339D01*
X92126Y411332D01*
X92042Y411309D01*
X91963Y411272D01*
X91891Y411222D01*
X91830Y411160D01*
X91780Y411089D01*
X91743Y411010D01*
X91720Y410926D01*
X91713Y410839D01*
X91720Y410752D01*
X91743Y410668D01*
X91780Y410589D01*
X91830Y410517D01*
X91892Y410456D01*
X91963Y410406D01*
X92042Y410369D01*
X92275Y410296D01*
X92513Y410243D01*
X92755Y410211D01*
X92999Y410200D01*
X93000D01*
Y410000D01*
X90769D01*
Y411720D01*
X90838Y411714D01*
X90925Y411721D01*
X91009Y411744D01*
X91088Y411781D01*
X91159Y411831D01*
X91221Y411892D01*
X91271Y411964D01*
X91308Y412043D01*
X91331Y412127D01*
X91338Y412214D01*
X91331Y412301D01*
X91308Y412385D01*
X91261Y412535D01*
X91227Y412688D01*
X91206Y412844D01*
X91200Y413001D01*
X91206Y413157D01*
X91227Y413313D01*
X91261Y413466D01*
X91308Y413616D01*
X91331Y413700D01*
X91338Y413787D01*
X91331Y413874D01*
X91308Y413958D01*
X91271Y414037D01*
X91221Y414109D01*
X91159Y414170D01*
X91088Y414220D01*
X91009Y414257D01*
X90925Y414280D01*
X90838Y414287D01*
X90769Y414281D01*
Y423808D01*
G37*
G36*
X86000Y429879D02*X88775Y427104D01*
X88743Y426986D01*
X88700Y426500D01*
X88743Y426014D01*
X88869Y425542D01*
X89075Y425100D01*
X89355Y424700D01*
X89700Y424355D01*
X90100Y424075D01*
X90542Y423869D01*
X90769Y423808D01*
Y414281D01*
X90751Y414280D01*
X90667Y414257D01*
X90588Y414220D01*
X90516Y414170D01*
X90455Y414108D01*
X90405Y414037D01*
X90368Y413958D01*
X90295Y413725D01*
X90242Y413487D01*
X90210Y413245D01*
X90200Y413001D01*
X90210Y412756D01*
X90242Y412514D01*
X90295Y412276D01*
X90368Y412043D01*
X90405Y411964D01*
X90455Y411893D01*
X90516Y411831D01*
X90588Y411781D01*
X90667Y411744D01*
X90751Y411721D01*
X90769Y411720D01*
Y410000D01*
X86000D01*
Y429879D01*
G37*
G36*
X88231Y462500D02*X103250D01*
Y461935D01*
X102500Y462000D01*
X101719Y461932D01*
X100961Y461729D01*
X100250Y461397D01*
X99607Y460947D01*
X99053Y460393D01*
X98603Y459750D01*
X98271Y459039D01*
X98068Y458281D01*
X98000Y457500D01*
X98068Y456719D01*
X98271Y455961D01*
X98603Y455250D01*
X99053Y454607D01*
X99607Y454053D01*
X100250Y453603D01*
X100961Y453271D01*
X101719Y453068D01*
X102500Y453000D01*
X103250Y453065D01*
Y442500D01*
X91000D01*
X90943Y442495D01*
X90869D01*
X90798Y442482D01*
X90740Y442477D01*
X90681Y442461D01*
X90612Y442449D01*
X90549Y442426D01*
X90487Y442410D01*
X90429Y442383D01*
X90366Y442360D01*
X90306Y442325D01*
X90250Y442299D01*
X90202Y442265D01*
X90139Y442229D01*
X90082Y442181D01*
X90036Y442149D01*
X89995Y442108D01*
X89939Y442061D01*
X88231Y440353D01*
Y448720D01*
X88248Y448721D01*
X88332Y448744D01*
X88411Y448781D01*
X88483Y448831D01*
X88544Y448893D01*
X88594Y448964D01*
X88631Y449043D01*
X88704Y449276D01*
X88757Y449514D01*
X88789Y449756D01*
X88800Y450000D01*
X88789Y450245D01*
X88757Y450487D01*
X88704Y450725D01*
X88631Y450958D01*
X88594Y451037D01*
X88544Y451108D01*
X88483Y451170D01*
X88411Y451220D01*
X88332Y451257D01*
X88248Y451280D01*
X88231Y451281D01*
Y453707D01*
X88351Y453536D01*
X88536Y453351D01*
X88750Y453201D01*
X88987Y453090D01*
X89240Y453023D01*
X89500Y453000D01*
X95500D01*
X95760Y453023D01*
X96013Y453090D01*
X96250Y453201D01*
X96464Y453351D01*
X96649Y453536D01*
X96799Y453750D01*
X96910Y453987D01*
X96977Y454240D01*
X97000Y454500D01*
Y460500D01*
X96977Y460760D01*
X96910Y461013D01*
X96799Y461250D01*
X96649Y461464D01*
X96464Y461649D01*
X96250Y461799D01*
X96013Y461910D01*
X95760Y461977D01*
X95500Y462000D01*
X89500D01*
X89240Y461977D01*
X88987Y461910D01*
X88750Y461799D01*
X88536Y461649D01*
X88351Y461464D01*
X88231Y461293D01*
Y462500D01*
G37*
G36*
Y440353D02*X86000Y438122D01*
Y447200D01*
X86244Y447211D01*
X86486Y447243D01*
X86724Y447296D01*
X86957Y447369D01*
X87036Y447406D01*
X87107Y447456D01*
X87169Y447517D01*
X87219Y447589D01*
X87256Y447668D01*
X87279Y447752D01*
X87286Y447839D01*
X87279Y447926D01*
X87256Y448010D01*
X87219Y448089D01*
X87169Y448160D01*
X87108Y448222D01*
X87036Y448272D01*
X86957Y448309D01*
X86873Y448332D01*
X86786Y448339D01*
X86699Y448332D01*
X86615Y448309D01*
X86465Y448262D01*
X86312Y448228D01*
X86156Y448207D01*
X86000Y448200D01*
Y451800D01*
X86156Y451794D01*
X86312Y451773D01*
X86465Y451739D01*
X86615Y451692D01*
X86699Y451669D01*
X86786Y451662D01*
X86873Y451669D01*
X86957Y451692D01*
X87036Y451729D01*
X87108Y451779D01*
X87169Y451841D01*
X87219Y451912D01*
X87256Y451991D01*
X87279Y452075D01*
X87286Y452162D01*
X87279Y452249D01*
X87256Y452333D01*
X87219Y452412D01*
X87169Y452484D01*
X87107Y452545D01*
X87036Y452595D01*
X86957Y452632D01*
X86724Y452705D01*
X86486Y452758D01*
X86244Y452790D01*
X86000Y452800D01*
Y454603D01*
X86044Y454767D01*
X86059Y454941D01*
Y456000D01*
X88000D01*
Y454500D01*
X88023Y454240D01*
X88090Y453987D01*
X88201Y453750D01*
X88231Y453707D01*
Y451281D01*
X88161Y451287D01*
X88074Y451280D01*
X87990Y451257D01*
X87911Y451220D01*
X87840Y451170D01*
X87778Y451109D01*
X87728Y451037D01*
X87691Y450958D01*
X87668Y450874D01*
X87661Y450787D01*
X87668Y450700D01*
X87691Y450616D01*
X87738Y450466D01*
X87772Y450313D01*
X87793Y450157D01*
X87800Y450000D01*
X87793Y449844D01*
X87772Y449688D01*
X87738Y449535D01*
X87691Y449385D01*
X87668Y449301D01*
X87661Y449214D01*
X87668Y449127D01*
X87691Y449043D01*
X87728Y448964D01*
X87778Y448892D01*
X87840Y448831D01*
X87911Y448781D01*
X87990Y448744D01*
X88074Y448721D01*
X88161Y448714D01*
X88231Y448720D01*
Y440353D01*
G37*
G36*
X86000Y462500D02*X88231D01*
Y461293D01*
X88201Y461250D01*
X88090Y461013D01*
X88023Y460760D01*
X88000Y460500D01*
Y459000D01*
X86059D01*
Y460845D01*
X86044Y461019D01*
X86000Y461183D01*
Y462500D01*
G37*
G36*
X78231Y453978D02*X78315Y454001D01*
X78473Y454075D01*
X78616Y454175D01*
X78739Y454298D01*
X78839Y454441D01*
X78913Y454599D01*
X78957Y454763D01*
X79001Y454599D01*
X79075Y454441D01*
X79175Y454298D01*
X79298Y454175D01*
X79441Y454075D01*
X79599Y454001D01*
X79767Y453956D01*
X79941Y453941D01*
X81500D01*
Y452622D01*
X81378Y452500D01*
X81355D01*
X81145Y452800D01*
X80800Y453145D01*
X80400Y453425D01*
X79958Y453631D01*
X79486Y453757D01*
X79000Y453800D01*
X78514Y453757D01*
X78231Y453681D01*
Y453978D01*
G37*
G36*
X86000Y438122D02*X85939Y438061D01*
X85940Y438060D01*
X85903Y438016D01*
X85851Y437964D01*
X85809Y437904D01*
X85772Y437860D01*
X85743Y437810D01*
X85701Y437750D01*
X85671Y437686D01*
X85641Y437634D01*
X85622Y437581D01*
X85590Y437513D01*
X85570Y437437D01*
X85552Y437388D01*
X85542Y437333D01*
X85523Y437260D01*
X85516Y437185D01*
X85507Y437131D01*
Y437079D01*
X85500Y437000D01*
Y431000D01*
X85506Y430932D01*
Y430870D01*
X85517Y430807D01*
X85523Y430740D01*
X85540Y430676D01*
X85551Y430613D01*
X85572Y430555D01*
X85590Y430487D01*
X85619Y430425D01*
X85640Y430367D01*
X85673Y430310D01*
X85701Y430250D01*
X85738Y430197D01*
X85771Y430140D01*
X85814Y430089D01*
X85851Y430036D01*
X85897Y429990D01*
X85939Y429940D01*
X86000Y429879D01*
Y410000D01*
X78231D01*
Y421720D01*
X78248Y421721D01*
X78332Y421744D01*
X78411Y421781D01*
X78483Y421831D01*
X78544Y421893D01*
X78594Y421964D01*
X78631Y422043D01*
X78704Y422276D01*
X78757Y422514D01*
X78789Y422756D01*
X78800Y423000D01*
X78789Y423245D01*
X78757Y423487D01*
X78704Y423725D01*
X78631Y423958D01*
X78594Y424037D01*
X78544Y424108D01*
X78483Y424170D01*
X78411Y424220D01*
X78332Y424257D01*
X78248Y424280D01*
X78231Y424281D01*
Y448319D01*
X78514Y448243D01*
X79000Y448200D01*
X79486Y448243D01*
X79958Y448369D01*
X80400Y448575D01*
X80800Y448855D01*
X81145Y449200D01*
X81355Y449500D01*
X82000D01*
X82080Y449507D01*
X82131D01*
X82184Y449516D01*
X82260Y449523D01*
X82330Y449542D01*
X82388Y449552D01*
X82439Y449570D01*
X82513Y449590D01*
X82579Y449621D01*
X82634Y449641D01*
X82684Y449670D01*
X82750Y449701D01*
X82811Y449743D01*
X82860Y449772D01*
X82904Y449809D01*
X82964Y449851D01*
X83016Y449903D01*
X83060Y449940D01*
X83203Y450083D01*
X83200Y450001D01*
X83210Y449756D01*
X83242Y449514D01*
X83295Y449276D01*
X83368Y449043D01*
X83405Y448964D01*
X83455Y448893D01*
X83516Y448831D01*
X83588Y448781D01*
X83667Y448744D01*
X83751Y448721D01*
X83838Y448714D01*
X83925Y448721D01*
X84009Y448744D01*
X84088Y448781D01*
X84159Y448831D01*
X84221Y448892D01*
X84271Y448964D01*
X84308Y449043D01*
X84331Y449127D01*
X84338Y449214D01*
X84331Y449301D01*
X84308Y449385D01*
X84261Y449535D01*
X84227Y449688D01*
X84206Y449844D01*
X84200Y450001D01*
X84206Y450157D01*
X84227Y450313D01*
X84261Y450466D01*
X84308Y450616D01*
X84331Y450700D01*
X84338Y450787D01*
X84331Y450874D01*
X84308Y450958D01*
X84271Y451037D01*
X84221Y451109D01*
X84211Y451118D01*
X84229Y451139D01*
X84265Y451201D01*
X84299Y451250D01*
X84324Y451304D01*
X84360Y451366D01*
X84383Y451430D01*
X84410Y451487D01*
X84427Y451550D01*
X84449Y451612D01*
X84461Y451681D01*
X84477Y451740D01*
X84482Y451796D01*
X84495Y451869D01*
Y451943D01*
X84500Y452000D01*
Y453941D01*
X85059D01*
X85233Y453956D01*
X85401Y454001D01*
X85559Y454075D01*
X85702Y454175D01*
X85825Y454298D01*
X85925Y454441D01*
X85999Y454599D01*
X86000Y454603D01*
Y452800D01*
X85755Y452790D01*
X85513Y452758D01*
X85275Y452705D01*
X85042Y452632D01*
X84963Y452595D01*
X84892Y452545D01*
X84830Y452484D01*
X84780Y452412D01*
X84743Y452333D01*
X84720Y452249D01*
X84713Y452162D01*
X84720Y452075D01*
X84743Y451991D01*
X84780Y451912D01*
X84830Y451841D01*
X84891Y451779D01*
X84963Y451729D01*
X85042Y451692D01*
X85126Y451669D01*
X85213Y451662D01*
X85300Y451669D01*
X85384Y451692D01*
X85534Y451739D01*
X85687Y451773D01*
X85843Y451794D01*
X86000Y451800D01*
Y448200D01*
X85999D01*
X85843Y448207D01*
X85687Y448228D01*
X85534Y448262D01*
X85384Y448309D01*
X85300Y448332D01*
X85213Y448339D01*
X85126Y448332D01*
X85042Y448309D01*
X84963Y448272D01*
X84891Y448222D01*
X84830Y448160D01*
X84780Y448089D01*
X84743Y448010D01*
X84720Y447926D01*
X84713Y447839D01*
X84720Y447752D01*
X84743Y447668D01*
X84780Y447589D01*
X84830Y447517D01*
X84892Y447456D01*
X84963Y447406D01*
X85042Y447369D01*
X85275Y447296D01*
X85513Y447243D01*
X85755Y447211D01*
X85999Y447200D01*
X86000D01*
Y438122D01*
G37*
G36*
X78231Y410000D02*X76000D01*
Y420200D01*
X76244Y420211D01*
X76486Y420243D01*
X76724Y420296D01*
X76957Y420369D01*
X77036Y420406D01*
X77107Y420456D01*
X77169Y420517D01*
X77219Y420589D01*
X77256Y420668D01*
X77279Y420752D01*
X77286Y420839D01*
X77279Y420926D01*
X77256Y421010D01*
X77219Y421089D01*
X77169Y421160D01*
X77108Y421222D01*
X77036Y421272D01*
X76957Y421309D01*
X76873Y421332D01*
X76786Y421339D01*
X76699Y421332D01*
X76615Y421309D01*
X76465Y421262D01*
X76312Y421228D01*
X76156Y421207D01*
X76000Y421200D01*
Y424800D01*
X76156Y424794D01*
X76312Y424773D01*
X76465Y424739D01*
X76615Y424692D01*
X76699Y424669D01*
X76786Y424662D01*
X76873Y424669D01*
X76957Y424692D01*
X77036Y424729D01*
X77108Y424779D01*
X77169Y424841D01*
X77219Y424912D01*
X77256Y424991D01*
X77279Y425075D01*
X77286Y425162D01*
X77279Y425249D01*
X77256Y425333D01*
X77219Y425412D01*
X77169Y425484D01*
X77107Y425545D01*
X77036Y425595D01*
X76957Y425632D01*
X76724Y425705D01*
X76486Y425758D01*
X76244Y425790D01*
X76000Y425800D01*
Y452880D01*
X76474Y453354D01*
X76475Y453353D01*
X76522Y453409D01*
X76563Y453450D01*
X76595Y453496D01*
X76643Y453553D01*
X76679Y453616D01*
X76713Y453664D01*
X76739Y453720D01*
X76774Y453780D01*
X76797Y453843D01*
X76824Y453901D01*
X76835Y453941D01*
X77973D01*
X78147Y453956D01*
X78231Y453978D01*
Y453681D01*
X78042Y453631D01*
X77600Y453425D01*
X77200Y453145D01*
X76855Y452800D01*
X76575Y452400D01*
X76369Y451958D01*
X76243Y451486D01*
X76200Y451000D01*
X76243Y450514D01*
X76369Y450042D01*
X76575Y449600D01*
X76855Y449200D01*
X77200Y448855D01*
X77600Y448575D01*
X78042Y448369D01*
X78231Y448319D01*
Y424281D01*
X78161Y424287D01*
X78074Y424280D01*
X77990Y424257D01*
X77911Y424220D01*
X77840Y424170D01*
X77778Y424109D01*
X77728Y424037D01*
X77691Y423958D01*
X77668Y423874D01*
X77661Y423787D01*
X77668Y423700D01*
X77691Y423616D01*
X77738Y423466D01*
X77772Y423313D01*
X77793Y423157D01*
X77800Y423000D01*
X77793Y422844D01*
X77772Y422688D01*
X77738Y422535D01*
X77691Y422385D01*
X77668Y422301D01*
X77661Y422214D01*
X77668Y422127D01*
X77691Y422043D01*
X77728Y421964D01*
X77778Y421892D01*
X77840Y421831D01*
X77911Y421781D01*
X77990Y421744D01*
X78074Y421721D01*
X78161Y421714D01*
X78231Y421720D01*
Y410000D01*
G37*
G36*
X76000D02*X73769D01*
Y421720D01*
X73838Y421714D01*
X73925Y421721D01*
X74009Y421744D01*
X74088Y421781D01*
X74159Y421831D01*
X74221Y421892D01*
X74271Y421964D01*
X74308Y422043D01*
X74331Y422127D01*
X74338Y422214D01*
X74331Y422301D01*
X74308Y422385D01*
X74261Y422535D01*
X74227Y422688D01*
X74206Y422844D01*
X74200Y423001D01*
X74206Y423157D01*
X74227Y423313D01*
X74261Y423466D01*
X74308Y423616D01*
X74331Y423700D01*
X74338Y423787D01*
X74331Y423874D01*
X74308Y423958D01*
X74271Y424037D01*
X74221Y424109D01*
X74159Y424170D01*
X74088Y424220D01*
X74009Y424257D01*
X73925Y424280D01*
X73838Y424287D01*
X73769Y424281D01*
Y449905D01*
X73778Y449892D01*
X73840Y449831D01*
X73911Y449781D01*
X73990Y449744D01*
X74074Y449721D01*
X74161Y449714D01*
X74248Y449721D01*
X74332Y449744D01*
X74411Y449781D01*
X74483Y449831D01*
X74544Y449893D01*
X74594Y449964D01*
X74631Y450043D01*
X74704Y450276D01*
X74757Y450514D01*
X74789Y450756D01*
X74800Y451000D01*
X74789Y451245D01*
X74757Y451487D01*
X74730Y451610D01*
X76000Y452880D01*
Y425800D01*
X75755Y425790D01*
X75513Y425758D01*
X75275Y425705D01*
X75042Y425632D01*
X74963Y425595D01*
X74892Y425545D01*
X74830Y425484D01*
X74780Y425412D01*
X74743Y425333D01*
X74720Y425249D01*
X74713Y425162D01*
X74720Y425075D01*
X74743Y424991D01*
X74780Y424912D01*
X74830Y424841D01*
X74891Y424779D01*
X74963Y424729D01*
X75042Y424692D01*
X75126Y424669D01*
X75213Y424662D01*
X75300Y424669D01*
X75384Y424692D01*
X75534Y424739D01*
X75687Y424773D01*
X75843Y424794D01*
X76000Y424800D01*
Y421200D01*
X75999D01*
X75843Y421207D01*
X75687Y421228D01*
X75534Y421262D01*
X75384Y421309D01*
X75300Y421332D01*
X75213Y421339D01*
X75126Y421332D01*
X75042Y421309D01*
X74963Y421272D01*
X74891Y421222D01*
X74830Y421160D01*
X74780Y421089D01*
X74743Y421010D01*
X74720Y420926D01*
X74713Y420839D01*
X74720Y420752D01*
X74743Y420668D01*
X74780Y420589D01*
X74830Y420517D01*
X74892Y420456D01*
X74963Y420406D01*
X75042Y420369D01*
X75275Y420296D01*
X75513Y420243D01*
X75755Y420211D01*
X75999Y420200D01*
X76000D01*
Y410000D01*
G37*
G36*
X73769D02*X71231D01*
Y423720D01*
X71248Y423721D01*
X71332Y423744D01*
X71411Y423781D01*
X71483Y423831D01*
X71544Y423893D01*
X71594Y423964D01*
X71631Y424043D01*
X71704Y424276D01*
X71757Y424514D01*
X71789Y424756D01*
X71800Y425000D01*
X71789Y425245D01*
X71757Y425487D01*
X71704Y425725D01*
X71631Y425958D01*
X71594Y426037D01*
X71544Y426108D01*
X71483Y426170D01*
X71411Y426220D01*
X71332Y426257D01*
X71248Y426280D01*
X71231Y426281D01*
Y448310D01*
X71275Y448296D01*
X71513Y448243D01*
X71755Y448211D01*
X71999Y448200D01*
X72244Y448211D01*
X72486Y448243D01*
X72724Y448296D01*
X72957Y448369D01*
X73036Y448406D01*
X73107Y448456D01*
X73169Y448517D01*
X73219Y448589D01*
X73256Y448668D01*
X73279Y448752D01*
X73286Y448839D01*
X73279Y448926D01*
X73256Y449010D01*
X73219Y449089D01*
X73169Y449160D01*
X73108Y449222D01*
X73036Y449272D01*
X72957Y449309D01*
X72873Y449332D01*
X72786Y449339D01*
X72699Y449332D01*
X72615Y449309D01*
X72465Y449262D01*
X72312Y449228D01*
X72156Y449207D01*
X71999Y449200D01*
X71843Y449207D01*
X71687Y449228D01*
X71534Y449262D01*
X71384Y449309D01*
X71300Y449332D01*
X71231Y449338D01*
Y449719D01*
X71366Y449641D01*
X71612Y449552D01*
X71869Y449507D01*
X72131D01*
X72388Y449552D01*
X72634Y449641D01*
X72860Y449772D01*
X73060Y449940D01*
X73762Y450642D01*
X73738Y450535D01*
X73691Y450385D01*
X73668Y450301D01*
X73661Y450214D01*
X73668Y450127D01*
X73691Y450043D01*
X73728Y449964D01*
X73769Y449905D01*
Y424281D01*
X73751Y424280D01*
X73667Y424257D01*
X73588Y424220D01*
X73516Y424170D01*
X73455Y424108D01*
X73405Y424037D01*
X73368Y423958D01*
X73295Y423725D01*
X73242Y423487D01*
X73210Y423245D01*
X73200Y423001D01*
X73210Y422756D01*
X73242Y422514D01*
X73295Y422276D01*
X73368Y422043D01*
X73405Y421964D01*
X73455Y421893D01*
X73516Y421831D01*
X73588Y421781D01*
X73667Y421744D01*
X73751Y421721D01*
X73769Y421720D01*
Y410000D01*
G37*
G36*
X71231Y462500D02*X86000D01*
Y461183D01*
X85999Y461187D01*
X85925Y461345D01*
X85825Y461488D01*
X85702Y461611D01*
X85559Y461711D01*
X85401Y461785D01*
X85233Y461830D01*
X85059Y461845D01*
X79941D01*
X79767Y461830D01*
X79599Y461785D01*
X79441Y461711D01*
X79298Y461611D01*
X79175Y461488D01*
X79075Y461345D01*
X79001Y461187D01*
X78957Y461023D01*
X78913Y461187D01*
X78839Y461345D01*
X78739Y461488D01*
X78616Y461611D01*
X78473Y461711D01*
X78315Y461785D01*
X78147Y461830D01*
X77973Y461845D01*
X72855D01*
X72681Y461830D01*
X72513Y461785D01*
X72355Y461711D01*
X72212Y461611D01*
X72089Y461488D01*
X71989Y461345D01*
X71915Y461187D01*
X71870Y461019D01*
X71855Y460845D01*
Y454941D01*
X71870Y454767D01*
X71915Y454599D01*
X71989Y454441D01*
X72089Y454298D01*
X72212Y454175D01*
X72355Y454075D01*
X72513Y454001D01*
X72681Y453956D01*
X72822Y453944D01*
X72609Y453731D01*
X72486Y453758D01*
X72244Y453790D01*
X72000Y453800D01*
X71755Y453790D01*
X71513Y453758D01*
X71275Y453705D01*
X71231Y453691D01*
Y462500D01*
G37*
G36*
X69769D02*X71231D01*
Y453691D01*
X71042Y453632D01*
X70963Y453595D01*
X70892Y453545D01*
X70830Y453484D01*
X70780Y453412D01*
X70743Y453333D01*
X70720Y453249D01*
X70713Y453162D01*
X70720Y453075D01*
X70743Y452991D01*
X70780Y452912D01*
X70830Y452841D01*
X70891Y452779D01*
X70963Y452729D01*
X71042Y452692D01*
X71126Y452669D01*
X71213Y452662D01*
X71231Y452663D01*
Y452353D01*
X70939Y452061D01*
X70940Y452060D01*
X70772Y451860D01*
X70641Y451634D01*
X70552Y451388D01*
X70507Y451131D01*
Y450869D01*
X70552Y450612D01*
X70641Y450366D01*
X70772Y450140D01*
X70940Y449940D01*
X71140Y449772D01*
X71231Y449719D01*
Y449338D01*
X71213Y449339D01*
X71126Y449332D01*
X71042Y449309D01*
X70963Y449272D01*
X70891Y449222D01*
X70830Y449160D01*
X70780Y449089D01*
X70743Y449010D01*
X70720Y448926D01*
X70713Y448839D01*
X70720Y448752D01*
X70743Y448668D01*
X70780Y448589D01*
X70830Y448517D01*
X70892Y448456D01*
X70963Y448406D01*
X71042Y448369D01*
X71231Y448310D01*
Y426281D01*
X71161Y426287D01*
X71074Y426280D01*
X70990Y426257D01*
X70911Y426220D01*
X70840Y426170D01*
X70778Y426109D01*
X70728Y426037D01*
X70691Y425958D01*
X70668Y425874D01*
X70661Y425787D01*
X70668Y425700D01*
X70691Y425616D01*
X70738Y425466D01*
X70772Y425313D01*
X70793Y425157D01*
X70800Y425000D01*
X70793Y424844D01*
X70772Y424688D01*
X70738Y424535D01*
X70691Y424385D01*
X70668Y424301D01*
X70661Y424214D01*
X70668Y424127D01*
X70691Y424043D01*
X70728Y423964D01*
X70778Y423892D01*
X70840Y423831D01*
X70911Y423781D01*
X70990Y423744D01*
X71074Y423721D01*
X71161Y423714D01*
X71231Y423720D01*
Y410000D01*
X69769D01*
Y422310D01*
X69957Y422369D01*
X70036Y422406D01*
X70107Y422456D01*
X70169Y422517D01*
X70219Y422589D01*
X70256Y422668D01*
X70279Y422752D01*
X70286Y422839D01*
X70279Y422926D01*
X70256Y423010D01*
X70219Y423089D01*
X70169Y423160D01*
X70108Y423222D01*
X70036Y423272D01*
X69957Y423309D01*
X69873Y423332D01*
X69786Y423339D01*
X69769Y423338D01*
Y426663D01*
X69786Y426662D01*
X69873Y426669D01*
X69957Y426692D01*
X70036Y426729D01*
X70108Y426779D01*
X70169Y426841D01*
X70219Y426912D01*
X70256Y426991D01*
X70279Y427075D01*
X70286Y427162D01*
X70279Y427249D01*
X70256Y427333D01*
X70219Y427412D01*
X70169Y427484D01*
X70107Y427545D01*
X70036Y427595D01*
X69957Y427632D01*
X69769Y427691D01*
Y449720D01*
X69838Y449714D01*
X69925Y449721D01*
X70009Y449744D01*
X70088Y449781D01*
X70159Y449831D01*
X70221Y449892D01*
X70271Y449964D01*
X70308Y450043D01*
X70331Y450127D01*
X70338Y450214D01*
X70331Y450301D01*
X70308Y450385D01*
X70261Y450535D01*
X70227Y450688D01*
X70206Y450844D01*
X70200Y451001D01*
X70206Y451157D01*
X70227Y451313D01*
X70261Y451466D01*
X70308Y451616D01*
X70331Y451700D01*
X70338Y451787D01*
X70331Y451874D01*
X70308Y451958D01*
X70271Y452037D01*
X70221Y452109D01*
X70159Y452170D01*
X70088Y452220D01*
X70009Y452257D01*
X69925Y452280D01*
X69838Y452287D01*
X69769Y452281D01*
Y462500D01*
G37*
G36*
Y423338D02*X69699Y423332D01*
X69615Y423309D01*
X69465Y423262D01*
X69312Y423228D01*
X69156Y423207D01*
X69000Y423200D01*
Y426800D01*
X69156Y426794D01*
X69312Y426773D01*
X69465Y426739D01*
X69615Y426692D01*
X69699Y426669D01*
X69769Y426663D01*
Y423338D01*
G37*
G36*
Y410000D02*X69000D01*
Y422200D01*
X69244Y422211D01*
X69486Y422243D01*
X69724Y422296D01*
X69769Y422310D01*
Y410000D01*
G37*
G36*
X69000Y462500D02*X69769D01*
Y452281D01*
X69751Y452280D01*
X69667Y452257D01*
X69588Y452220D01*
X69516Y452170D01*
X69455Y452108D01*
X69405Y452037D01*
X69368Y451958D01*
X69295Y451725D01*
X69242Y451487D01*
X69210Y451245D01*
X69200Y451001D01*
X69210Y450756D01*
X69242Y450514D01*
X69295Y450276D01*
X69368Y450043D01*
X69405Y449964D01*
X69455Y449893D01*
X69516Y449831D01*
X69588Y449781D01*
X69667Y449744D01*
X69751Y449721D01*
X69769Y449720D01*
Y427691D01*
X69724Y427705D01*
X69486Y427758D01*
X69244Y427790D01*
X69000Y427800D01*
Y462500D01*
G37*
G36*
X66769D02*X69000D01*
Y427800D01*
X68755Y427790D01*
X68513Y427758D01*
X68275Y427705D01*
X68042Y427632D01*
X67963Y427595D01*
X67892Y427545D01*
X67830Y427484D01*
X67780Y427412D01*
X67743Y427333D01*
X67720Y427249D01*
X67713Y427162D01*
X67720Y427075D01*
X67743Y426991D01*
X67780Y426912D01*
X67830Y426841D01*
X67891Y426779D01*
X67963Y426729D01*
X68042Y426692D01*
X68126Y426669D01*
X68213Y426662D01*
X68300Y426669D01*
X68384Y426692D01*
X68534Y426739D01*
X68687Y426773D01*
X68843Y426794D01*
X69000Y426800D01*
Y423200D01*
X68999D01*
X68843Y423207D01*
X68687Y423228D01*
X68534Y423262D01*
X68384Y423309D01*
X68300Y423332D01*
X68213Y423339D01*
X68126Y423332D01*
X68042Y423309D01*
X67963Y423272D01*
X67891Y423222D01*
X67830Y423160D01*
X67780Y423089D01*
X67743Y423010D01*
X67720Y422926D01*
X67713Y422839D01*
X67720Y422752D01*
X67743Y422668D01*
X67780Y422589D01*
X67830Y422517D01*
X67892Y422456D01*
X67963Y422406D01*
X68042Y422369D01*
X68275Y422296D01*
X68513Y422243D01*
X68755Y422211D01*
X68999Y422200D01*
X69000D01*
Y410000D01*
X66769D01*
Y423720D01*
X66838Y423714D01*
X66925Y423721D01*
X67009Y423744D01*
X67088Y423781D01*
X67159Y423831D01*
X67221Y423892D01*
X67271Y423964D01*
X67308Y424043D01*
X67331Y424127D01*
X67338Y424214D01*
X67331Y424301D01*
X67308Y424385D01*
X67261Y424535D01*
X67227Y424688D01*
X67206Y424844D01*
X67200Y425001D01*
X67206Y425157D01*
X67227Y425313D01*
X67261Y425466D01*
X67308Y425616D01*
X67331Y425700D01*
X67338Y425787D01*
X67331Y425874D01*
X67308Y425958D01*
X67271Y426037D01*
X67221Y426109D01*
X67159Y426170D01*
X67088Y426220D01*
X67009Y426257D01*
X66925Y426280D01*
X66838Y426287D01*
X66769Y426281D01*
Y437905D01*
X66778Y437892D01*
X66840Y437831D01*
X66911Y437781D01*
X66990Y437744D01*
X67074Y437721D01*
X67161Y437714D01*
X67248Y437721D01*
X67332Y437744D01*
X67411Y437781D01*
X67483Y437831D01*
X67544Y437893D01*
X67594Y437964D01*
X67631Y438043D01*
X67704Y438276D01*
X67757Y438514D01*
X67789Y438756D01*
X67800Y439000D01*
X67789Y439245D01*
X67757Y439487D01*
X67704Y439725D01*
X67631Y439958D01*
X67594Y440037D01*
X67544Y440108D01*
X67483Y440170D01*
X67411Y440220D01*
X67332Y440257D01*
X67248Y440280D01*
X67161Y440287D01*
X67074Y440280D01*
X66990Y440257D01*
X66911Y440220D01*
X66840Y440170D01*
X66778Y440109D01*
X66769Y440096D01*
Y462500D01*
G37*
G36*
X65000D02*X66769D01*
Y440096D01*
X66728Y440037D01*
X66691Y439958D01*
X66668Y439874D01*
X66661Y439787D01*
X66668Y439700D01*
X66691Y439616D01*
X66738Y439466D01*
X66769Y439326D01*
Y438674D01*
X66738Y438535D01*
X66691Y438385D01*
X66668Y438301D01*
X66661Y438214D01*
X66668Y438127D01*
X66691Y438043D01*
X66728Y437964D01*
X66769Y437905D01*
Y426281D01*
X66751Y426280D01*
X66667Y426257D01*
X66588Y426220D01*
X66516Y426170D01*
X66455Y426108D01*
X66405Y426037D01*
X66368Y425958D01*
X66295Y425725D01*
X66242Y425487D01*
X66210Y425245D01*
X66200Y425001D01*
X66210Y424756D01*
X66242Y424514D01*
X66295Y424276D01*
X66368Y424043D01*
X66405Y423964D01*
X66455Y423893D01*
X66516Y423831D01*
X66588Y423781D01*
X66667Y423744D01*
X66751Y423721D01*
X66769Y423720D01*
Y410000D01*
X65000D01*
Y436200D01*
X65244Y436211D01*
X65486Y436243D01*
X65724Y436296D01*
X65957Y436369D01*
X66036Y436406D01*
X66107Y436456D01*
X66169Y436517D01*
X66219Y436589D01*
X66256Y436668D01*
X66279Y436752D01*
X66286Y436839D01*
X66279Y436926D01*
X66256Y437010D01*
X66219Y437089D01*
X66169Y437160D01*
X66108Y437222D01*
X66036Y437272D01*
X65957Y437309D01*
X65873Y437332D01*
X65786Y437339D01*
X65699Y437332D01*
X65615Y437309D01*
X65465Y437262D01*
X65312Y437228D01*
X65156Y437207D01*
X65000Y437200D01*
Y440800D01*
X65156Y440794D01*
X65312Y440773D01*
X65465Y440739D01*
X65615Y440692D01*
X65699Y440669D01*
X65786Y440662D01*
X65873Y440669D01*
X65957Y440692D01*
X66036Y440729D01*
X66108Y440779D01*
X66169Y440841D01*
X66219Y440912D01*
X66256Y440991D01*
X66279Y441075D01*
X66286Y441162D01*
X66279Y441249D01*
X66256Y441333D01*
X66219Y441412D01*
X66169Y441484D01*
X66107Y441545D01*
X66036Y441595D01*
X65957Y441632D01*
X65724Y441705D01*
X65486Y441758D01*
X65244Y441790D01*
X65000Y441800D01*
Y462500D01*
G37*
G36*
X62500Y410000D02*Y437847D01*
X62516Y437831D01*
X62588Y437781D01*
X62667Y437744D01*
X62751Y437721D01*
X62838Y437714D01*
X62925Y437721D01*
X63009Y437744D01*
X63088Y437781D01*
X63159Y437831D01*
X63221Y437892D01*
X63271Y437964D01*
X63308Y438043D01*
X63331Y438127D01*
X63338Y438214D01*
X63331Y438301D01*
X63308Y438385D01*
X63261Y438535D01*
X63227Y438688D01*
X63206Y438844D01*
X63200Y439001D01*
X63206Y439157D01*
X63227Y439313D01*
X63261Y439466D01*
X63308Y439616D01*
X63331Y439700D01*
X63338Y439787D01*
X63331Y439874D01*
X63308Y439958D01*
X63271Y440037D01*
X63221Y440109D01*
X63159Y440170D01*
X63088Y440220D01*
X63009Y440257D01*
X62925Y440280D01*
X62838Y440287D01*
X62751Y440280D01*
X62667Y440257D01*
X62588Y440220D01*
X62516Y440170D01*
X62500Y440154D01*
Y462500D01*
X65000D01*
Y441800D01*
X64755Y441790D01*
X64513Y441758D01*
X64275Y441705D01*
X64042Y441632D01*
X63963Y441595D01*
X63892Y441545D01*
X63830Y441484D01*
X63780Y441412D01*
X63743Y441333D01*
X63720Y441249D01*
X63713Y441162D01*
X63720Y441075D01*
X63743Y440991D01*
X63780Y440912D01*
X63830Y440841D01*
X63891Y440779D01*
X63963Y440729D01*
X64042Y440692D01*
X64126Y440669D01*
X64213Y440662D01*
X64300Y440669D01*
X64384Y440692D01*
X64534Y440739D01*
X64687Y440773D01*
X64843Y440794D01*
X65000Y440800D01*
Y437200D01*
X64999D01*
X64843Y437207D01*
X64687Y437228D01*
X64534Y437262D01*
X64384Y437309D01*
X64300Y437332D01*
X64213Y437339D01*
X64126Y437332D01*
X64042Y437309D01*
X63963Y437272D01*
X63891Y437222D01*
X63830Y437160D01*
X63780Y437089D01*
X63743Y437010D01*
X63720Y436926D01*
X63713Y436839D01*
X63720Y436752D01*
X63743Y436668D01*
X63780Y436589D01*
X63830Y436517D01*
X63892Y436456D01*
X63963Y436406D01*
X64042Y436369D01*
X64275Y436296D01*
X64513Y436243D01*
X64755Y436211D01*
X64999Y436200D01*
X65000D01*
Y410000D01*
X62500D01*
G37*
G54D11*X79000Y451000D02*X82000D01*
X83000Y452000D01*
X75414Y457500D02*Y454414D01*
X92500Y457500D02*X83286D01*
X82500Y458286D01*
X83000Y452000D02*Y457000D01*
X82500Y457500D01*
X75414Y454414D02*X72000Y451000D01*
X96286Y432000D02*X97500Y430786D01*
X98500Y417500D02*Y422914D01*
X98000Y423414D01*
X102914D01*
X104500Y425000D01*
Y433500D01*
X96286Y432000D02*X92000D01*
X91000Y441000D02*X116500D01*
X92000Y432000D02*X91000Y433000D01*
X91500Y426500D02*X87000Y431000D01*
Y437000D01*
X91000Y441000D01*
G54D12*G36*
X89500Y460500D02*Y454500D01*
X95500D01*
Y460500D01*
X89500D01*
G37*
G54D13*X102500Y457500D03*
G54D12*G36*
X113500Y454000D02*Y448000D01*
X119500D01*
Y454000D01*
X113500D01*
G37*
G54D13*X116500Y441000D03*
Y431000D03*
Y421000D03*
G54D14*X65000Y439000D03*
X79000Y451000D03*
X72000D03*
X86000Y450000D03*
X93000Y413000D03*
X91000Y433000D03*
X91500Y426500D03*
X76000Y423000D03*
X69000Y425000D03*
X98500Y417500D03*
X104500Y433500D03*
G54D18*X97214Y430500D02*X98000D01*
X97214Y423414D02*X98000D01*
X75414Y458286D02*Y457500D01*
X82500Y458286D02*Y457500D01*
G54D17*G54D12*M02*
