G04 start of page 10 for group -4015 idx -4015 *
G04 Title: (unknown), toppaste *
G04 Creator: pcb 20091103 *
G04 CreationDate: Sun 13 Mar 2011 09:43:22 AM GMT UTC *
G04 For: gjhurlbu *
G04 Format: Gerber/RS-274X *
G04 PCB-Dimensions: 600000 500000 *
G04 PCB-Coordinate-Origin: lower left *
%MOIN*%
%FSLAX25Y25*%
%LNFRONTPASTE*%
%ADD15R,0.0200X0.0200*%
G54D15*X101642Y432557D02*X108142D01*
X101642Y437557D02*X108142D01*
X101642Y442557D02*X108142D01*
X101642Y447557D02*X108142D01*
X81142D02*X87642D01*
X81142Y442557D02*X87642D01*
X81142Y437557D02*X87642D01*
X81142Y432557D02*X87642D01*
X81500Y419000D02*X88000D01*
X81500Y414000D02*X88000D01*
X81500Y409000D02*X88000D01*
X81500Y404000D02*X88000D01*
X81500Y399000D02*X88000D01*
X81500Y394000D02*X88000D01*
X81500Y389000D02*X88000D01*
X102000D02*X108500D01*
X102000Y394000D02*X108500D01*
X102000Y399000D02*X108500D01*
X102000Y404000D02*X108500D01*
X102000Y409000D02*X108500D01*
X102000Y414000D02*X108500D01*
X102000Y419000D02*X108500D01*
M02*
