G04 start of page 4 for group -4063 idx -4063 *
G04 Title: (unknown), componentmask *
G04 Creator: pcb 20091103 *
G04 CreationDate: Sun 13 Mar 2011 09:43:22 AM GMT UTC *
G04 For: gjhurlbu *
G04 Format: Gerber/RS-274X *
G04 PCB-Dimensions: 600000 500000 *
G04 PCB-Coordinate-Origin: lower left *
%MOIN*%
%FSLAX25Y25*%
%LNFRONTMASK*%
%ADD20C,0.0620*%
%ADD21C,0.1210*%
%ADD22R,0.0300X0.0300*%
G54D20*X59254Y398422D03*
Y388622D03*
X69554Y406322D03*
Y398422D03*
Y388622D03*
X59254Y416122D03*
Y406322D03*
X69554Y416122D03*
G54D21*X70954Y428222D03*
X48554D03*
X70954Y376522D03*
X48554D03*
G54D22*X102000Y399000D02*X108500D01*
X102000Y404000D02*X108500D01*
X102000Y409000D02*X108500D01*
X102000Y414000D02*X108500D01*
X102000Y419000D02*X108500D01*
X101642Y432557D02*X108142D01*
X101642Y437557D02*X108142D01*
X101642Y442557D02*X108142D01*
X101642Y447557D02*X108142D01*
X81500Y404000D02*X88000D01*
X81500Y399000D02*X88000D01*
X81500Y394000D02*X88000D01*
X81500Y389000D02*X88000D01*
X81500Y419000D02*X88000D01*
X81500Y414000D02*X88000D01*
X81500Y409000D02*X88000D01*
X102000Y389000D02*X108500D01*
X102000Y394000D02*X108500D01*
X81142Y447557D02*X87642D01*
X81142Y442557D02*X87642D01*
X81142Y437557D02*X87642D01*
X81142Y432557D02*X87642D01*
M02*
