G04 start of page 3 for group 1 idx 1 *
G04 Title: (unknown), solder *
G04 Creator: pcb 20091103 *
G04 CreationDate: Sun 13 Mar 2011 09:43:22 AM GMT UTC *
G04 For: gjhurlbu *
G04 Format: Gerber/RS-274X *
G04 PCB-Dimensions: 600000 500000 *
G04 PCB-Coordinate-Origin: lower left *
%MOIN*%
%FSLAX25Y25*%
%LNBACK*%
%ADD11C,0.0100*%
%ADD12C,0.0560*%
%ADD13C,0.1150*%
%ADD14C,0.0360*%
%ADD15R,0.0200X0.0200*%
%ADD16C,0.0910*%
%ADD17C,0.0200*%
%ADD18R,0.0590X0.0590*%
%ADD19R,0.0150X0.0150*%
G54D17*G36*
X80225Y437947D02*X81000D01*
Y427355D01*
X80700Y427145D01*
X80355Y426800D01*
X80225Y426614D01*
Y437947D01*
G37*
G36*
X106231Y458000D02*X126000D01*
Y365000D01*
X106231D01*
Y423720D01*
X106248Y423721D01*
X106332Y423744D01*
X106411Y423781D01*
X106483Y423831D01*
X106544Y423893D01*
X106594Y423964D01*
X106631Y424043D01*
X106704Y424276D01*
X106757Y424514D01*
X106789Y424756D01*
X106800Y425000D01*
X106789Y425245D01*
X106757Y425487D01*
X106704Y425725D01*
X106631Y425958D01*
X106594Y426037D01*
X106544Y426108D01*
X106483Y426170D01*
X106411Y426220D01*
X106332Y426257D01*
X106248Y426280D01*
X106231Y426281D01*
Y458000D01*
G37*
G36*
X104000D02*X106231D01*
Y426281D01*
X106161Y426287D01*
X106074Y426280D01*
X105990Y426257D01*
X105911Y426220D01*
X105840Y426170D01*
X105778Y426109D01*
X105728Y426037D01*
X105691Y425958D01*
X105668Y425874D01*
X105661Y425787D01*
X105668Y425700D01*
X105691Y425616D01*
X105738Y425466D01*
X105772Y425313D01*
X105793Y425157D01*
X105800Y425000D01*
X105793Y424844D01*
X105772Y424688D01*
X105738Y424535D01*
X105691Y424385D01*
X105668Y424301D01*
X105661Y424214D01*
X105668Y424127D01*
X105691Y424043D01*
X105728Y423964D01*
X105778Y423892D01*
X105840Y423831D01*
X105911Y423781D01*
X105990Y423744D01*
X106074Y423721D01*
X106161Y423714D01*
X106231Y423720D01*
Y365000D01*
X104000D01*
Y422200D01*
X104244Y422211D01*
X104486Y422243D01*
X104724Y422296D01*
X104957Y422369D01*
X105036Y422406D01*
X105107Y422456D01*
X105169Y422517D01*
X105219Y422589D01*
X105256Y422668D01*
X105279Y422752D01*
X105286Y422839D01*
X105279Y422926D01*
X105256Y423010D01*
X105219Y423089D01*
X105169Y423160D01*
X105108Y423222D01*
X105036Y423272D01*
X104957Y423309D01*
X104873Y423332D01*
X104786Y423339D01*
X104699Y423332D01*
X104615Y423309D01*
X104465Y423262D01*
X104358Y423238D01*
X105060Y423940D01*
X105061Y423939D01*
X105229Y424139D01*
X105360Y424366D01*
X105449Y424612D01*
X105495Y424869D01*
Y425131D01*
X105449Y425388D01*
X105360Y425634D01*
X105229Y425861D01*
X105061Y426061D01*
X104861Y426229D01*
X104634Y426360D01*
X104388Y426449D01*
X104131Y426495D01*
X104000D01*
Y426800D01*
X104156Y426794D01*
X104312Y426773D01*
X104465Y426739D01*
X104615Y426692D01*
X104699Y426669D01*
X104786Y426662D01*
X104873Y426669D01*
X104957Y426692D01*
X105036Y426729D01*
X105108Y426779D01*
X105169Y426841D01*
X105219Y426912D01*
X105256Y426991D01*
X105279Y427075D01*
X105286Y427162D01*
X105279Y427249D01*
X105256Y427333D01*
X105219Y427412D01*
X105169Y427484D01*
X105107Y427545D01*
X105036Y427595D01*
X104957Y427632D01*
X104724Y427705D01*
X104486Y427758D01*
X104244Y427790D01*
X104000Y427800D01*
Y458000D01*
G37*
G36*
Y365000D02*X80225D01*
Y382197D01*
X80982Y381440D01*
X81032Y381398D01*
X81078Y381352D01*
X81131Y381315D01*
X81182Y381272D01*
X81239Y381239D01*
X81292Y381202D01*
X81352Y381174D01*
X81409Y381141D01*
X81467Y381120D01*
X81529Y381091D01*
X81597Y381073D01*
X81655Y381052D01*
X81718Y381041D01*
X81782Y381024D01*
X81849Y381018D01*
X81912Y381007D01*
X81974D01*
X82042Y381001D01*
X90881D01*
X90961Y381008D01*
X91012D01*
X91065Y381017D01*
X91141Y381024D01*
X91215Y381044D01*
X91269Y381053D01*
X91320Y381071D01*
X91394Y381091D01*
X91459Y381122D01*
X91515Y381142D01*
X91566Y381172D01*
X91631Y381202D01*
X91692Y381244D01*
X91741Y381273D01*
X91785Y381310D01*
X91845Y381352D01*
X91897Y381404D01*
X91941Y381441D01*
X95976Y385476D01*
X95977Y385475D01*
X96024Y385531D01*
X96065Y385572D01*
X96097Y385618D01*
X96145Y385675D01*
X96181Y385738D01*
X96215Y385786D01*
X96241Y385842D01*
X96276Y385902D01*
X96299Y385965D01*
X96326Y386023D01*
X96342Y386085D01*
X96365Y386148D01*
X96377Y386217D01*
X96393Y386276D01*
X96398Y386334D01*
X96411Y386405D01*
Y386479D01*
X96416Y386536D01*
Y390726D01*
X96433Y390750D01*
X96470Y390829D01*
X96492Y390913D01*
X96500Y391000D01*
Y399500D01*
X96492Y399587D01*
X96470Y399671D01*
X96433Y399750D01*
X96383Y399821D01*
X96321Y399883D01*
X96250Y399933D01*
X96171Y399970D01*
X96087Y399992D01*
X96000Y400000D01*
X94287D01*
X94667Y400266D01*
X95012Y400611D01*
X95177Y400847D01*
X98331D01*
X98500Y400678D01*
Y391000D01*
X98508Y390913D01*
X98530Y390829D01*
X98567Y390750D01*
X98617Y390679D01*
X98679Y390617D01*
X98750Y390567D01*
X98829Y390530D01*
X98913Y390508D01*
X99000Y390500D01*
X101000D01*
X101087Y390508D01*
X101171Y390530D01*
X101250Y390567D01*
X101321Y390617D01*
X101383Y390679D01*
X101433Y390750D01*
X101470Y390829D01*
X101492Y390913D01*
X101500Y391000D01*
Y401299D01*
X101494Y401367D01*
Y401430D01*
X101483Y401492D01*
X101477Y401559D01*
X101459Y401628D01*
X101448Y401688D01*
X101429Y401740D01*
X101410Y401812D01*
X101378Y401879D01*
X101359Y401933D01*
X101329Y401985D01*
X101299Y402049D01*
X101259Y402105D01*
X101228Y402160D01*
X101187Y402209D01*
X101149Y402263D01*
X101102Y402310D01*
X101060Y402360D01*
X100013Y403407D01*
X99963Y403449D01*
X99916Y403496D01*
X99862Y403534D01*
X99813Y403575D01*
X99758Y403606D01*
X99702Y403646D01*
X99638Y403676D01*
X99586Y403706D01*
X99532Y403725D01*
X99465Y403757D01*
X99393Y403776D01*
X99341Y403795D01*
X99281Y403806D01*
X99212Y403824D01*
X99145Y403830D01*
X99083Y403841D01*
X99020D01*
X98952Y403847D01*
X95267D01*
X95012Y404211D01*
X94667Y404556D01*
X94267Y404836D01*
X93825Y405042D01*
X93353Y405168D01*
X92867Y405211D01*
X92381Y405168D01*
X91909Y405042D01*
X91467Y404836D01*
X91067Y404556D01*
X90722Y404211D01*
X90442Y403811D01*
X90236Y403369D01*
X90110Y402897D01*
X90067Y402411D01*
X90110Y401925D01*
X90236Y401453D01*
X90442Y401011D01*
X90722Y400611D01*
X91067Y400266D01*
X91467Y399986D01*
X91909Y399780D01*
X92381Y399654D01*
X92867Y399611D01*
X93353Y399654D01*
X93546Y399706D01*
X93530Y399671D01*
X93508Y399587D01*
X93500Y399500D01*
Y392407D01*
X93486Y392355D01*
X93468Y392304D01*
X93459Y392250D01*
X93439Y392176D01*
X93432Y392100D01*
X93423Y392047D01*
Y391995D01*
X93416Y391916D01*
Y387158D01*
X90259Y384001D01*
X87931D01*
X87940Y384005D01*
X87992Y384024D01*
X88043Y384053D01*
X88108Y384084D01*
X88166Y384125D01*
X88218Y384155D01*
X88262Y384192D01*
X88322Y384234D01*
X88374Y384286D01*
X88418Y384323D01*
X90980Y386885D01*
X90981Y386884D01*
X91028Y386940D01*
X91069Y386981D01*
X91101Y387027D01*
X91149Y387084D01*
X91185Y387147D01*
X91219Y387195D01*
X91245Y387251D01*
X91280Y387311D01*
X91303Y387374D01*
X91330Y387432D01*
X91346Y387494D01*
X91369Y387557D01*
X91381Y387626D01*
X91397Y387685D01*
X91402Y387743D01*
X91415Y387814D01*
Y387888D01*
X91420Y387945D01*
Y390732D01*
X91433Y390750D01*
X91470Y390829D01*
X91492Y390913D01*
X91500Y391000D01*
Y399500D01*
X91492Y399587D01*
X91470Y399671D01*
X91433Y399750D01*
X91383Y399821D01*
X91321Y399883D01*
X91250Y399933D01*
X91171Y399970D01*
X91087Y399992D01*
X91000Y400000D01*
X89000D01*
X88913Y399992D01*
X88829Y399970D01*
X88750Y399933D01*
X88679Y399883D01*
X88617Y399821D01*
X88567Y399750D01*
X88530Y399671D01*
X88508Y399587D01*
X88500Y399500D01*
Y392395D01*
X88490Y392357D01*
X88472Y392308D01*
X88462Y392253D01*
X88443Y392180D01*
X88436Y392105D01*
X88427Y392051D01*
Y391999D01*
X88420Y391920D01*
Y388567D01*
X86736Y386883D01*
X83495D01*
X80225Y390153D01*
Y403133D01*
X80419Y402939D01*
X80469Y402897D01*
X80515Y402851D01*
X80558Y402821D01*
X83500Y399879D01*
Y391000D01*
X83508Y390913D01*
X83530Y390829D01*
X83567Y390750D01*
X83617Y390679D01*
X83679Y390617D01*
X83750Y390567D01*
X83829Y390530D01*
X83913Y390508D01*
X84000Y390500D01*
X86000D01*
X86087Y390508D01*
X86171Y390530D01*
X86250Y390567D01*
X86321Y390617D01*
X86383Y390679D01*
X86433Y390750D01*
X86470Y390829D01*
X86492Y390913D01*
X86500Y391000D01*
Y400415D01*
X86494Y400483D01*
Y400546D01*
X86483Y400608D01*
X86477Y400675D01*
X86459Y400744D01*
X86448Y400804D01*
X86429Y400856D01*
X86410Y400928D01*
X86378Y400995D01*
X86359Y401049D01*
X86329Y401101D01*
X86301Y401162D01*
X86283Y401210D01*
X86252Y401264D01*
X86223Y401326D01*
X86184Y401382D01*
X86152Y401437D01*
X86111Y401486D01*
X86073Y401540D01*
X86026Y401587D01*
X85984Y401637D01*
X82561Y405060D01*
X82511Y405102D01*
X82464Y405149D01*
X82421Y405179D01*
X80225Y407375D01*
Y420566D01*
X81910Y422271D01*
X82014Y422243D01*
X82500Y422200D01*
X82986Y422243D01*
X83458Y422369D01*
X83563Y422418D01*
X83552Y422388D01*
X83542Y422333D01*
X83523Y422260D01*
X83516Y422184D01*
X83507Y422131D01*
Y422079D01*
X83500Y422000D01*
Y411500D01*
X83508Y411413D01*
X83530Y411329D01*
X83567Y411250D01*
X83617Y411179D01*
X83679Y411117D01*
X83750Y411067D01*
X83829Y411030D01*
X83913Y411008D01*
X84000Y411000D01*
X86000D01*
X86087Y411008D01*
X86171Y411030D01*
X86250Y411067D01*
X86321Y411117D01*
X86383Y411179D01*
X86433Y411250D01*
X86470Y411329D01*
X86492Y411413D01*
X86500Y411500D01*
Y421380D01*
X87395Y422275D01*
X87514Y422243D01*
X88000Y422200D01*
X88486Y422243D01*
X88522Y422253D01*
X88516Y422181D01*
X88507Y422131D01*
Y422081D01*
X88500Y422000D01*
Y411500D01*
X88508Y411413D01*
X88530Y411329D01*
X88567Y411250D01*
X88617Y411179D01*
X88679Y411117D01*
X88750Y411067D01*
X88829Y411030D01*
X88913Y411008D01*
X89000Y411000D01*
X91000D01*
X91087Y411008D01*
X91171Y411030D01*
X91250Y411067D01*
X91321Y411117D01*
X91383Y411179D01*
X91433Y411250D01*
X91470Y411329D01*
X91492Y411413D01*
X91500Y411500D01*
Y421380D01*
X92395Y422275D01*
X92514Y422243D01*
X93000Y422200D01*
X93486Y422243D01*
X93958Y422369D01*
X94400Y422575D01*
X94577Y422699D01*
X93939Y422061D01*
X93940Y422060D01*
X93903Y422016D01*
X93851Y421964D01*
X93809Y421904D01*
X93772Y421860D01*
X93743Y421810D01*
X93701Y421750D01*
X93671Y421686D01*
X93641Y421634D01*
X93622Y421581D01*
X93590Y421513D01*
X93570Y421437D01*
X93552Y421388D01*
X93542Y421333D01*
X93523Y421260D01*
X93516Y421185D01*
X93507Y421131D01*
Y421079D01*
X93500Y421000D01*
Y411500D01*
X93508Y411413D01*
X93530Y411329D01*
X93567Y411250D01*
X93617Y411179D01*
X93679Y411117D01*
X93750Y411067D01*
X93829Y411030D01*
X93913Y411008D01*
X94000Y411000D01*
X96000D01*
X96087Y411008D01*
X96171Y411030D01*
X96250Y411067D01*
X96321Y411117D01*
X96383Y411179D01*
X96433Y411250D01*
X96470Y411329D01*
X96492Y411413D01*
X96500Y411500D01*
Y420380D01*
X98351Y422231D01*
X98486Y422243D01*
X98958Y422369D01*
X99400Y422575D01*
X99577Y422699D01*
X98939Y422061D01*
X98940Y422060D01*
X98902Y422015D01*
X98851Y421964D01*
X98809Y421905D01*
X98772Y421860D01*
X98744Y421811D01*
X98701Y421750D01*
X98671Y421685D01*
X98641Y421634D01*
X98622Y421581D01*
X98590Y421513D01*
X98570Y421437D01*
X98552Y421388D01*
X98542Y421333D01*
X98523Y421260D01*
X98516Y421184D01*
X98507Y421131D01*
Y421081D01*
X98500Y421000D01*
Y411500D01*
X98508Y411413D01*
X98530Y411329D01*
X98567Y411250D01*
X98617Y411179D01*
X98679Y411117D01*
X98750Y411067D01*
X98829Y411030D01*
X98913Y411008D01*
X99000Y411000D01*
X101000D01*
X101087Y411008D01*
X101171Y411030D01*
X101250Y411067D01*
X101321Y411117D01*
X101383Y411179D01*
X101433Y411250D01*
X101470Y411329D01*
X101492Y411413D01*
X101500Y411500D01*
Y420380D01*
X103390Y422270D01*
X103513Y422243D01*
X103755Y422211D01*
X103999Y422200D01*
X104000D01*
Y365000D01*
G37*
G36*
X80225Y458000D02*X104000D01*
Y427800D01*
X103755Y427790D01*
X103513Y427758D01*
X103275Y427705D01*
X103042Y427632D01*
X102963Y427595D01*
X102892Y427545D01*
X102830Y427484D01*
X102780Y427412D01*
X102743Y427333D01*
X102720Y427249D01*
X102713Y427162D01*
X102720Y427075D01*
X102743Y426991D01*
X102780Y426912D01*
X102830Y426841D01*
X102891Y426779D01*
X102963Y426729D01*
X103042Y426692D01*
X103126Y426669D01*
X103213Y426662D01*
X103300Y426669D01*
X103384Y426692D01*
X103534Y426739D01*
X103687Y426773D01*
X103843Y426794D01*
X104000Y426800D01*
Y426495D01*
X103869D01*
X103612Y426449D01*
X103366Y426360D01*
X103139Y426229D01*
X102939Y426061D01*
X102237Y425359D01*
X102261Y425466D01*
X102308Y425616D01*
X102331Y425700D01*
X102338Y425787D01*
X102331Y425874D01*
X102308Y425958D01*
X102271Y426037D01*
X102221Y426109D01*
X102159Y426170D01*
X102088Y426220D01*
X102009Y426257D01*
X101925Y426280D01*
X101838Y426287D01*
X101751Y426280D01*
X101667Y426257D01*
X101588Y426220D01*
X101516Y426170D01*
X101455Y426108D01*
X101405Y426037D01*
X101368Y425958D01*
X101295Y425725D01*
X101242Y425487D01*
X101210Y425245D01*
X101200Y425001D01*
X101210Y424756D01*
X101242Y424514D01*
X101269Y424391D01*
X100301Y423423D01*
X100425Y423600D01*
X100631Y424042D01*
X100757Y424514D01*
X100800Y425000D01*
X100757Y425486D01*
X100631Y425958D01*
X100425Y426400D01*
X100145Y426800D01*
X99800Y427145D01*
X99400Y427425D01*
X98958Y427631D01*
X98486Y427757D01*
X98000Y427800D01*
X97514Y427757D01*
X97042Y427631D01*
X96600Y427425D01*
X96200Y427145D01*
X95855Y426800D01*
X95575Y426400D01*
X95500Y426239D01*
X95425Y426400D01*
X95145Y426800D01*
X94800Y427145D01*
X94400Y427425D01*
X93958Y427631D01*
X93486Y427757D01*
X93000Y427800D01*
X92514Y427757D01*
X92042Y427631D01*
X91600Y427425D01*
X91200Y427145D01*
X90855Y426800D01*
X90575Y426400D01*
X90500Y426239D01*
X90425Y426400D01*
X90145Y426800D01*
X89800Y427145D01*
X89400Y427425D01*
X88958Y427631D01*
X88486Y427757D01*
X88000Y427800D01*
X87514Y427757D01*
X87042Y427631D01*
X86600Y427425D01*
X86200Y427145D01*
X85855Y426800D01*
X85575Y426400D01*
X85369Y425958D01*
X85250Y425512D01*
X85131Y425958D01*
X84925Y426400D01*
X84645Y426800D01*
X84300Y427145D01*
X84000Y427355D01*
Y437947D01*
X86347D01*
X86521Y437962D01*
X86689Y438007D01*
X86847Y438081D01*
X86990Y438181D01*
X87113Y438304D01*
X87213Y438447D01*
X87287Y438605D01*
X87332Y438773D01*
X87347Y438947D01*
Y444853D01*
X87332Y445027D01*
X87287Y445195D01*
X87213Y445353D01*
X87113Y445496D01*
X86990Y445619D01*
X86847Y445719D01*
X86689Y445793D01*
X86525Y445837D01*
X86689Y445881D01*
X86847Y445955D01*
X86990Y446055D01*
X87113Y446178D01*
X87213Y446321D01*
X87287Y446479D01*
X87332Y446647D01*
X87347Y446821D01*
Y452727D01*
X87332Y452901D01*
X87287Y453069D01*
X87213Y453227D01*
X87113Y453370D01*
X86990Y453493D01*
X86847Y453593D01*
X86689Y453667D01*
X86521Y453712D01*
X86347Y453727D01*
X80225D01*
Y458000D01*
G37*
G36*
Y407375D02*X79964Y407636D01*
X79764Y407804D01*
X79688Y407848D01*
X79058Y408478D01*
Y419385D01*
X80225Y420566D01*
Y407375D01*
G37*
G36*
X70954Y391234D02*X71025Y391253D01*
X71144Y391309D01*
X71151Y391314D01*
X71181Y391296D01*
X71207Y391278D01*
X72218Y390267D01*
X72212Y390258D01*
X72159Y390139D01*
X72127Y390012D01*
X72118Y389882D01*
X72132Y389752D01*
X72168Y389626D01*
X72247Y389388D01*
X72304Y389145D01*
X72340Y388897D01*
X72353Y388647D01*
X72344Y388397D01*
X72313Y388148D01*
X72260Y387904D01*
X72185Y387665D01*
X72184Y387664D01*
X72150Y387538D01*
X72139Y387407D01*
X72150Y387277D01*
X72184Y387151D01*
X72240Y387032D01*
X72315Y386925D01*
X72407Y386833D01*
X72514Y386758D01*
X72633Y386703D01*
X72759Y386669D01*
X72890Y386658D01*
X73020Y386669D01*
X73146Y386703D01*
X73265Y386759D01*
X73372Y386834D01*
X73464Y386926D01*
X73539Y387033D01*
X73594Y387152D01*
X73709Y387519D01*
X73791Y387894D01*
X73839Y388276D01*
X73852Y388633D01*
X74999Y387486D01*
X75015Y387463D01*
X75048Y387406D01*
X75091Y387355D01*
X75128Y387302D01*
X75174Y387256D01*
X75216Y387206D01*
X80225Y382197D01*
Y365000D01*
X70954D01*
Y369272D01*
X72213Y369382D01*
X73434Y369709D01*
X74579Y370243D01*
X75614Y370968D01*
X76508Y371862D01*
X77233Y372897D01*
X77767Y374042D01*
X78094Y375263D01*
X78204Y376522D01*
X78094Y377781D01*
X77767Y379002D01*
X77233Y380147D01*
X76508Y381182D01*
X75614Y382076D01*
X74579Y382801D01*
X73434Y383335D01*
X72213Y383662D01*
X70954Y383772D01*
Y384561D01*
X71094Y384608D01*
X71095D01*
X71212Y384665D01*
X71318Y384742D01*
X71409Y384836D01*
X71482Y384945D01*
X71535Y385064D01*
X71567Y385191D01*
X71576Y385321D01*
X71562Y385451D01*
X71526Y385577D01*
X71469Y385694D01*
X71392Y385800D01*
X71298Y385891D01*
X71189Y385964D01*
X71070Y386017D01*
X70954Y386046D01*
Y391234D01*
G37*
G36*
Y412062D02*X71025Y412081D01*
X71704Y412398D01*
X72318Y412828D01*
X72848Y413358D01*
X73278Y413972D01*
X73595Y414651D01*
X73789Y415375D01*
X73854Y416122D01*
X73789Y416869D01*
X73595Y417593D01*
X73278Y418272D01*
X72848Y418886D01*
X72318Y419416D01*
X71704Y419846D01*
X71025Y420163D01*
X70954Y420182D01*
Y420972D01*
X72213Y421082D01*
X73434Y421409D01*
X74579Y421943D01*
X75614Y422668D01*
X76508Y423562D01*
X77233Y424597D01*
X77767Y425742D01*
X78094Y426963D01*
X78204Y428222D01*
X78094Y429481D01*
X77767Y430702D01*
X77233Y431847D01*
X76508Y432882D01*
X75614Y433776D01*
X74579Y434501D01*
X73434Y435035D01*
X72213Y435362D01*
X70954Y435472D01*
Y439650D01*
X73750D01*
X74010Y439673D01*
X74263Y439740D01*
X74500Y439851D01*
X74714Y440001D01*
X74899Y440186D01*
X75049Y440400D01*
X75096Y440500D01*
X79047D01*
Y438947D01*
X79062Y438773D01*
X79107Y438605D01*
X79181Y438447D01*
X79281Y438304D01*
X79404Y438181D01*
X79547Y438081D01*
X79705Y438007D01*
X79873Y437962D01*
X80047Y437947D01*
X80225D01*
Y426614D01*
X80075Y426400D01*
X79869Y425958D01*
X79743Y425486D01*
X79700Y425000D01*
X79743Y424514D01*
X79778Y424381D01*
X77700Y422278D01*
X77594Y422217D01*
X77394Y422049D01*
X76497Y421152D01*
X76498Y421151D01*
X76461Y421107D01*
X76409Y421055D01*
X76367Y420995D01*
X76330Y420951D01*
X76301Y420902D01*
X76259Y420841D01*
X76229Y420776D01*
X76199Y420725D01*
X76179Y420669D01*
X76148Y420604D01*
X76128Y420530D01*
X76110Y420479D01*
X76101Y420425D01*
X76081Y420351D01*
X76074Y420275D01*
X76065Y420222D01*
Y420172D01*
X76058Y420091D01*
Y407857D01*
X76064Y407789D01*
Y407727D01*
X76075Y407664D01*
X76081Y407597D01*
X76098Y407533D01*
X76109Y407470D01*
X76130Y407412D01*
X76148Y407344D01*
X76177Y407282D01*
X76198Y407224D01*
X76231Y407167D01*
X76259Y407107D01*
X76296Y407054D01*
X76329Y406997D01*
X76372Y406946D01*
X76409Y406893D01*
X76455Y406847D01*
X76497Y406797D01*
X77754Y405540D01*
X77883Y405356D01*
X78068Y405171D01*
X78282Y405021D01*
X78385Y404973D01*
X80225Y403133D01*
Y390153D01*
X76945Y393433D01*
Y400499D01*
X76939Y400567D01*
Y400630D01*
X76928Y400692D01*
X76922Y400759D01*
X76904Y400828D01*
X76893Y400888D01*
X76874Y400940D01*
X76855Y401012D01*
X76823Y401079D01*
X76804Y401133D01*
X76774Y401185D01*
X76744Y401249D01*
X76704Y401305D01*
X76673Y401360D01*
X76632Y401409D01*
X76594Y401463D01*
X76547Y401510D01*
X76505Y401560D01*
X73474Y404591D01*
X73595Y404851D01*
X73789Y405575D01*
X73854Y406322D01*
X73789Y407069D01*
X73595Y407793D01*
X73278Y408472D01*
X72848Y409086D01*
X72318Y409616D01*
X71704Y410046D01*
X71025Y410363D01*
X70954Y410382D01*
Y412062D01*
G37*
G36*
X75500Y458000D02*X80225D01*
Y453727D01*
X80047D01*
X79873Y453712D01*
X79705Y453667D01*
X79547Y453593D01*
X79404Y453493D01*
X79281Y453370D01*
X79181Y453227D01*
X79107Y453069D01*
X79062Y452901D01*
X79047Y452727D01*
Y451274D01*
X78747D01*
X78230Y451791D01*
X78257Y451914D01*
X78289Y452156D01*
X78300Y452400D01*
X78289Y452645D01*
X78257Y452887D01*
X78204Y453125D01*
X78131Y453358D01*
X78094Y453437D01*
X78044Y453508D01*
X77983Y453570D01*
X77911Y453620D01*
X77832Y453657D01*
X77748Y453680D01*
X77661Y453687D01*
X77574Y453680D01*
X77490Y453657D01*
X77411Y453620D01*
X77340Y453570D01*
X77278Y453509D01*
X77228Y453437D01*
X77191Y453358D01*
X77168Y453274D01*
X77161Y453187D01*
X77168Y453100D01*
X77191Y453016D01*
X77238Y452866D01*
X77262Y452759D01*
X76561Y453460D01*
X76511Y453502D01*
X76464Y453549D01*
X76410Y453587D01*
X76361Y453628D01*
X76306Y453659D01*
X76250Y453699D01*
X76186Y453729D01*
X76134Y453759D01*
X76080Y453778D01*
X76013Y453810D01*
X75941Y453829D01*
X75889Y453848D01*
X75829Y453859D01*
X75760Y453877D01*
X75693Y453883D01*
X75631Y453894D01*
X75568D01*
X75500Y453900D01*
Y454200D01*
X75656Y454194D01*
X75812Y454173D01*
X75965Y454139D01*
X76115Y454092D01*
X76199Y454069D01*
X76286Y454062D01*
X76373Y454069D01*
X76457Y454092D01*
X76536Y454129D01*
X76608Y454179D01*
X76669Y454241D01*
X76719Y454312D01*
X76756Y454391D01*
X76779Y454475D01*
X76786Y454562D01*
X76779Y454649D01*
X76756Y454733D01*
X76719Y454812D01*
X76669Y454884D01*
X76607Y454945D01*
X76536Y454995D01*
X76457Y455032D01*
X76224Y455105D01*
X75986Y455158D01*
X75744Y455190D01*
X75500Y455200D01*
Y458000D01*
G37*
G36*
X70954D02*X75500D01*
Y455200D01*
X75255Y455190D01*
X75013Y455158D01*
X74775Y455105D01*
X74542Y455032D01*
X74463Y454995D01*
X74392Y454945D01*
X74330Y454884D01*
X74280Y454812D01*
X74243Y454733D01*
X74220Y454649D01*
X74213Y454562D01*
X74220Y454475D01*
X74243Y454391D01*
X74280Y454312D01*
X74330Y454241D01*
X74391Y454179D01*
X74463Y454129D01*
X74542Y454092D01*
X74626Y454069D01*
X74713Y454062D01*
X74800Y454069D01*
X74884Y454092D01*
X75034Y454139D01*
X75187Y454173D01*
X75343Y454194D01*
X75500Y454200D01*
Y453900D01*
X71500D01*
X71443Y453895D01*
X71369D01*
X71298Y453882D01*
X71240Y453877D01*
X71181Y453861D01*
X71112Y453849D01*
X71049Y453826D01*
X70987Y453810D01*
X70954Y453795D01*
Y458000D01*
G37*
G36*
Y420182D02*X70301Y420357D01*
X69554Y420422D01*
X68807Y420357D01*
X68083Y420163D01*
X67404Y419846D01*
X66790Y419416D01*
X66260Y418886D01*
X65830Y418272D01*
X65527Y417622D01*
X63281D01*
X62978Y418272D01*
X62548Y418886D01*
X62018Y419416D01*
X61404Y419846D01*
X60754Y420149D01*
Y440034D01*
X61120Y440400D01*
X61951D01*
X62101Y440186D01*
X62286Y440001D01*
X62500Y439851D01*
X62737Y439740D01*
X62990Y439673D01*
X63250Y439650D01*
X66750D01*
X67010Y439673D01*
X67263Y439740D01*
X67500Y439851D01*
X67714Y440001D01*
X67899Y440186D01*
X68049Y440400D01*
X68051Y440404D01*
X68080Y440407D01*
X68131D01*
X68184Y440416D01*
X68260Y440423D01*
X68334Y440443D01*
X68388Y440452D01*
X68439Y440470D01*
X68513Y440490D01*
X68578Y440521D01*
X68634Y440541D01*
X68685Y440571D01*
X68750Y440601D01*
X68811Y440643D01*
X68835Y440657D01*
X68840Y440637D01*
X68951Y440400D01*
X69101Y440186D01*
X69286Y440001D01*
X69500Y439851D01*
X69737Y439740D01*
X69990Y439673D01*
X70250Y439650D01*
X70954D01*
Y435472D01*
X69695Y435362D01*
X68474Y435035D01*
X67329Y434501D01*
X66294Y433776D01*
X65400Y432882D01*
X64675Y431847D01*
X64141Y430702D01*
X63814Y429481D01*
X63704Y428222D01*
X63814Y426963D01*
X64141Y425742D01*
X64675Y424597D01*
X65400Y423562D01*
X66294Y422668D01*
X67329Y421943D01*
X68474Y421409D01*
X69695Y421082D01*
X70954Y420972D01*
Y420182D01*
G37*
G36*
X66122Y371140D02*X66294Y370968D01*
X67329Y370243D01*
X68474Y369709D01*
X69695Y369382D01*
X70954Y369272D01*
Y365000D01*
X66122D01*
Y371140D01*
G37*
G36*
Y395855D02*X66260Y395658D01*
X66790Y395128D01*
X67404Y394698D01*
X68083Y394381D01*
X68197Y394351D01*
X68228Y394297D01*
X68255Y394239D01*
X68292Y394187D01*
X68325Y394129D01*
X68368Y394078D01*
X68405Y394025D01*
X68451Y393979D01*
X68493Y393929D01*
X69501Y392921D01*
X69132Y392902D01*
X68751Y392847D01*
X68377Y392759D01*
X68013Y392637D01*
X68012D01*
X67895Y392580D01*
X67789Y392503D01*
X67698Y392409D01*
X67625Y392300D01*
X67572Y392181D01*
X67540Y392054D01*
X67531Y391924D01*
X67545Y391794D01*
X67581Y391668D01*
X67638Y391551D01*
X67715Y391445D01*
X67809Y391354D01*
X67918Y391281D01*
X68037Y391228D01*
X68164Y391196D01*
X68294Y391187D01*
X68424Y391201D01*
X68550Y391237D01*
X68788Y391316D01*
X69031Y391373D01*
X69279Y391409D01*
X69529Y391422D01*
X69779Y391413D01*
X70028Y391382D01*
X70272Y391329D01*
X70511Y391254D01*
X70512Y391253D01*
X70638Y391219D01*
X70769Y391208D01*
X70899Y391219D01*
X70954Y391234D01*
Y386046D01*
X70943Y386049D01*
X70813Y386058D01*
X70683Y386044D01*
X70557Y386008D01*
X70319Y385929D01*
X70076Y385872D01*
X69828Y385836D01*
X69578Y385823D01*
X69328Y385832D01*
X69079Y385863D01*
X68835Y385916D01*
X68596Y385991D01*
X68595Y385992D01*
X68469Y386026D01*
X68338Y386037D01*
X68208Y386026D01*
X68082Y385992D01*
X67963Y385936D01*
X67856Y385861D01*
X67764Y385769D01*
X67689Y385662D01*
X67634Y385543D01*
X67600Y385417D01*
X67589Y385286D01*
X67600Y385156D01*
X67634Y385030D01*
X67690Y384911D01*
X67765Y384804D01*
X67857Y384712D01*
X67964Y384637D01*
X68083Y384582D01*
X68450Y384467D01*
X68825Y384385D01*
X69207Y384337D01*
X69591Y384323D01*
X69975Y384343D01*
X70356Y384398D01*
X70730Y384486D01*
X70954Y384561D01*
Y383772D01*
X69695Y383662D01*
X68474Y383335D01*
X67329Y382801D01*
X66294Y382076D01*
X66122Y381904D01*
Y386609D01*
X66252Y386600D01*
X66382Y386614D01*
X66508Y386650D01*
X66625Y386707D01*
X66731Y386784D01*
X66822Y386878D01*
X66895Y386987D01*
X66948Y387106D01*
X66980Y387233D01*
X66989Y387363D01*
X66975Y387493D01*
X66939Y387619D01*
X66860Y387857D01*
X66803Y388100D01*
X66767Y388348D01*
X66754Y388598D01*
X66763Y388848D01*
X66794Y389097D01*
X66847Y389341D01*
X66922Y389580D01*
X66923Y389581D01*
X66957Y389707D01*
X66968Y389838D01*
X66957Y389968D01*
X66923Y390094D01*
X66867Y390213D01*
X66792Y390320D01*
X66700Y390412D01*
X66593Y390487D01*
X66474Y390542D01*
X66348Y390576D01*
X66217Y390587D01*
X66122Y390579D01*
Y395855D01*
G37*
G36*
Y413555D02*X66260Y413358D01*
X66790Y412828D01*
X67404Y412398D01*
X68083Y412081D01*
X68807Y411887D01*
X69554Y411822D01*
X70301Y411887D01*
X70954Y412062D01*
Y410382D01*
X70301Y410557D01*
X69554Y410622D01*
X68807Y410557D01*
X68083Y410363D01*
X67404Y410046D01*
X66790Y409616D01*
X66260Y409086D01*
X66122Y408889D01*
Y413555D01*
G37*
G36*
Y458000D02*X70954D01*
Y453795D01*
X70929Y453783D01*
X70866Y453760D01*
X70806Y453725D01*
X70750Y453699D01*
X70702Y453665D01*
X70639Y453629D01*
X70582Y453581D01*
X70536Y453549D01*
X70495Y453508D01*
X70439Y453461D01*
X66439Y449461D01*
X66440Y449460D01*
X66403Y449416D01*
X66351Y449364D01*
X66309Y449304D01*
X66272Y449260D01*
X66266Y449250D01*
X66122D01*
Y458000D01*
G37*
G36*
X62686Y395855D02*X62978Y396272D01*
X63281Y396922D01*
X65527D01*
X65830Y396272D01*
X66122Y395855D01*
Y390579D01*
X66087Y390576D01*
X65961Y390542D01*
X65842Y390486D01*
X65735Y390411D01*
X65643Y390319D01*
X65568Y390212D01*
X65513Y390093D01*
X65398Y389726D01*
X65316Y389351D01*
X65268Y388969D01*
X65254Y388585D01*
X65274Y388201D01*
X65329Y387820D01*
X65417Y387446D01*
X65539Y387082D01*
Y387081D01*
X65596Y386964D01*
X65673Y386858D01*
X65767Y386767D01*
X65876Y386694D01*
X65995Y386641D01*
X66122Y386609D01*
Y381904D01*
X65400Y381182D01*
X64675Y380147D01*
X64141Y379002D01*
X63814Y377781D01*
X63704Y376522D01*
X63814Y375263D01*
X64141Y374042D01*
X64675Y372897D01*
X65400Y371862D01*
X66122Y371140D01*
Y365000D01*
X62686D01*
Y386666D01*
X62720Y386669D01*
X62846Y386703D01*
X62965Y386759D01*
X63072Y386834D01*
X63164Y386926D01*
X63239Y387033D01*
X63294Y387152D01*
X63409Y387519D01*
X63491Y387894D01*
X63539Y388276D01*
X63553Y388660D01*
X63533Y389044D01*
X63478Y389425D01*
X63390Y389799D01*
X63268Y390163D01*
Y390164D01*
X63211Y390281D01*
X63134Y390387D01*
X63040Y390478D01*
X62931Y390551D01*
X62812Y390604D01*
X62686Y390636D01*
Y395855D01*
G37*
G36*
X59283Y394125D02*X60001Y394187D01*
X60725Y394381D01*
X61404Y394698D01*
X62018Y395128D01*
X62548Y395658D01*
X62686Y395855D01*
Y390636D01*
X62685D01*
X62555Y390645D01*
X62425Y390631D01*
X62299Y390595D01*
X62182Y390538D01*
X62076Y390461D01*
X61985Y390367D01*
X61912Y390258D01*
X61859Y390139D01*
X61827Y390012D01*
X61818Y389882D01*
X61832Y389752D01*
X61868Y389626D01*
X61947Y389388D01*
X62004Y389145D01*
X62040Y388897D01*
X62053Y388647D01*
X62044Y388397D01*
X62013Y388148D01*
X61960Y387904D01*
X61885Y387665D01*
X61884Y387664D01*
X61850Y387538D01*
X61839Y387407D01*
X61850Y387277D01*
X61884Y387151D01*
X61940Y387032D01*
X62015Y386925D01*
X62107Y386833D01*
X62214Y386758D01*
X62333Y386703D01*
X62459Y386669D01*
X62590Y386658D01*
X62686Y386666D01*
Y365000D01*
X59283D01*
Y384323D01*
X59291D01*
X59675Y384343D01*
X60056Y384398D01*
X60430Y384486D01*
X60794Y384608D01*
X60795D01*
X60912Y384665D01*
X61018Y384742D01*
X61109Y384836D01*
X61182Y384945D01*
X61235Y385064D01*
X61267Y385191D01*
X61276Y385321D01*
X61262Y385451D01*
X61226Y385577D01*
X61169Y385694D01*
X61092Y385800D01*
X60998Y385891D01*
X60889Y385964D01*
X60770Y386017D01*
X60643Y386049D01*
X60513Y386058D01*
X60383Y386044D01*
X60257Y386008D01*
X60019Y385929D01*
X59776Y385872D01*
X59528Y385836D01*
X59283Y385823D01*
Y391420D01*
X59479Y391413D01*
X59728Y391382D01*
X59972Y391329D01*
X60211Y391254D01*
X60212Y391253D01*
X60338Y391219D01*
X60469Y391208D01*
X60599Y391219D01*
X60725Y391253D01*
X60844Y391309D01*
X60951Y391384D01*
X61043Y391476D01*
X61118Y391583D01*
X61173Y391702D01*
X61207Y391828D01*
X61218Y391959D01*
X61207Y392089D01*
X61173Y392215D01*
X61117Y392334D01*
X61042Y392441D01*
X60950Y392533D01*
X60843Y392608D01*
X60724Y392663D01*
X60357Y392778D01*
X59982Y392860D01*
X59600Y392908D01*
X59283Y392920D01*
Y394125D01*
G37*
G36*
Y411825D02*X60001Y411887D01*
X60725Y412081D01*
X61404Y412398D01*
X62018Y412828D01*
X62548Y413358D01*
X62978Y413972D01*
X63281Y414622D01*
X65527D01*
X65830Y413972D01*
X66122Y413555D01*
Y408889D01*
X65830Y408472D01*
X65527Y407822D01*
X63281D01*
X62978Y408472D01*
X62548Y409086D01*
X62018Y409616D01*
X61404Y410046D01*
X60725Y410363D01*
X60001Y410557D01*
X59283Y410619D01*
Y411825D01*
G37*
G36*
Y458000D02*X66122D01*
Y449250D01*
X63250D01*
X62990Y449227D01*
X62737Y449160D01*
X62500Y449049D01*
X62286Y448899D01*
X62101Y448714D01*
X61951Y448500D01*
X61840Y448263D01*
X61773Y448010D01*
X61750Y447750D01*
Y446250D01*
X61773Y445990D01*
X61837Y445750D01*
X61773Y445510D01*
X61750Y445250D01*
Y443750D01*
X61773Y443490D01*
X61797Y443400D01*
X60500D01*
X60443Y443395D01*
X60369D01*
X60298Y443382D01*
X60240Y443377D01*
X60181Y443361D01*
X60112Y443349D01*
X60049Y443326D01*
X59987Y443310D01*
X59929Y443283D01*
X59866Y443260D01*
X59806Y443225D01*
X59750Y443199D01*
X59702Y443165D01*
X59639Y443129D01*
X59582Y443081D01*
X59536Y443049D01*
X59495Y443008D01*
X59439Y442961D01*
X59283Y442805D01*
Y458000D01*
G37*
G36*
X55822Y395855D02*X55960Y395658D01*
X56490Y395128D01*
X57104Y394698D01*
X57783Y394381D01*
X58507Y394187D01*
X59254Y394122D01*
X59283Y394125D01*
Y392920D01*
X59216Y392922D01*
X58832Y392902D01*
X58451Y392847D01*
X58077Y392759D01*
X57713Y392637D01*
X57712D01*
X57595Y392580D01*
X57489Y392503D01*
X57398Y392409D01*
X57325Y392300D01*
X57272Y392181D01*
X57240Y392054D01*
X57231Y391924D01*
X57245Y391794D01*
X57281Y391668D01*
X57338Y391551D01*
X57415Y391445D01*
X57509Y391354D01*
X57618Y391281D01*
X57737Y391228D01*
X57864Y391196D01*
X57994Y391187D01*
X58124Y391201D01*
X58250Y391237D01*
X58488Y391316D01*
X58731Y391373D01*
X58979Y391409D01*
X59229Y391422D01*
X59283Y391420D01*
Y385823D01*
X59278D01*
X59028Y385832D01*
X58779Y385863D01*
X58535Y385916D01*
X58296Y385991D01*
X58295Y385992D01*
X58169Y386026D01*
X58038Y386037D01*
X57908Y386026D01*
X57782Y385992D01*
X57663Y385936D01*
X57556Y385861D01*
X57464Y385769D01*
X57389Y385662D01*
X57334Y385543D01*
X57300Y385417D01*
X57289Y385286D01*
X57300Y385156D01*
X57334Y385030D01*
X57390Y384911D01*
X57465Y384804D01*
X57557Y384712D01*
X57664Y384637D01*
X57783Y384582D01*
X58150Y384467D01*
X58525Y384385D01*
X58907Y384337D01*
X59283Y384323D01*
Y365000D01*
X55822D01*
Y386609D01*
X55952Y386600D01*
X56082Y386614D01*
X56208Y386650D01*
X56325Y386707D01*
X56431Y386784D01*
X56522Y386878D01*
X56595Y386987D01*
X56648Y387106D01*
X56680Y387233D01*
X56689Y387363D01*
X56675Y387493D01*
X56639Y387619D01*
X56560Y387857D01*
X56503Y388100D01*
X56467Y388348D01*
X56454Y388598D01*
X56463Y388848D01*
X56494Y389097D01*
X56547Y389341D01*
X56622Y389580D01*
X56623Y389581D01*
X56657Y389707D01*
X56668Y389838D01*
X56657Y389968D01*
X56623Y390094D01*
X56567Y390213D01*
X56492Y390320D01*
X56400Y390412D01*
X56293Y390487D01*
X56174Y390542D01*
X56048Y390576D01*
X55917Y390587D01*
X55822Y390579D01*
Y395855D01*
G37*
G36*
Y403755D02*X55960Y403558D01*
X56490Y403028D01*
X57104Y402598D01*
X57588Y402372D01*
X57104Y402146D01*
X56490Y401716D01*
X55960Y401186D01*
X55822Y400989D01*
Y403755D01*
G37*
G36*
Y413555D02*X55960Y413358D01*
X56490Y412828D01*
X57104Y412398D01*
X57783Y412081D01*
X58507Y411887D01*
X59254Y411822D01*
X59283Y411825D01*
Y410619D01*
X59254Y410622D01*
X58507Y410557D01*
X57783Y410363D01*
X57104Y410046D01*
X56490Y409616D01*
X55960Y409086D01*
X55822Y408889D01*
Y413555D01*
G37*
G36*
Y458000D02*X59283D01*
Y442805D01*
X58193Y441715D01*
X58194Y441714D01*
X58157Y441670D01*
X58105Y441618D01*
X58063Y441558D01*
X58026Y441514D01*
X57997Y441464D01*
X57955Y441404D01*
X57925Y441340D01*
X57895Y441288D01*
X57876Y441235D01*
X57844Y441167D01*
X57824Y441091D01*
X57806Y441042D01*
X57796Y440987D01*
X57777Y440914D01*
X57770Y440839D01*
X57761Y440785D01*
Y440733D01*
X57754Y440654D01*
Y420149D01*
X57104Y419846D01*
X56490Y419416D01*
X55960Y418886D01*
X55822Y418689D01*
Y458000D01*
G37*
G36*
X48554D02*X55822D01*
Y418689D01*
X55530Y418272D01*
X55213Y417593D01*
X55019Y416869D01*
X54954Y416122D01*
X55019Y415375D01*
X55213Y414651D01*
X55530Y413972D01*
X55822Y413555D01*
Y408889D01*
X55530Y408472D01*
X55213Y407793D01*
X55019Y407069D01*
X54954Y406322D01*
X55019Y405575D01*
X55213Y404851D01*
X55530Y404172D01*
X55822Y403755D01*
Y400989D01*
X55530Y400572D01*
X55213Y399893D01*
X55019Y399169D01*
X54954Y398422D01*
X55019Y397675D01*
X55213Y396951D01*
X55530Y396272D01*
X55822Y395855D01*
Y390579D01*
X55787Y390576D01*
X55661Y390542D01*
X55542Y390486D01*
X55435Y390411D01*
X55343Y390319D01*
X55268Y390212D01*
X55213Y390093D01*
X55098Y389726D01*
X55016Y389351D01*
X54968Y388969D01*
X54954Y388585D01*
X54974Y388201D01*
X55029Y387820D01*
X55117Y387446D01*
X55239Y387082D01*
Y387081D01*
X55296Y386964D01*
X55373Y386858D01*
X55467Y386767D01*
X55576Y386694D01*
X55695Y386641D01*
X55822Y386609D01*
Y365000D01*
X48554D01*
Y369272D01*
X49813Y369382D01*
X51034Y369709D01*
X52179Y370243D01*
X53214Y370968D01*
X54108Y371862D01*
X54833Y372897D01*
X55367Y374042D01*
X55694Y375263D01*
X55804Y376522D01*
X55694Y377781D01*
X55367Y379002D01*
X54833Y380147D01*
X54108Y381182D01*
X53214Y382076D01*
X52179Y382801D01*
X51034Y383335D01*
X49813Y383662D01*
X48554Y383772D01*
Y420972D01*
X49813Y421082D01*
X51034Y421409D01*
X52179Y421943D01*
X53214Y422668D01*
X54108Y423562D01*
X54833Y424597D01*
X55367Y425742D01*
X55694Y426963D01*
X55804Y428222D01*
X55694Y429481D01*
X55367Y430702D01*
X54833Y431847D01*
X54108Y432882D01*
X53214Y433776D01*
X52179Y434501D01*
X51034Y435035D01*
X49813Y435362D01*
X48554Y435472D01*
Y458000D01*
G37*
G36*
X35000Y365000D02*Y458000D01*
X48554D01*
Y435472D01*
X47295Y435362D01*
X46074Y435035D01*
X44929Y434501D01*
X43894Y433776D01*
X43000Y432882D01*
X42275Y431847D01*
X41741Y430702D01*
X41414Y429481D01*
X41304Y428222D01*
X41414Y426963D01*
X41741Y425742D01*
X42275Y424597D01*
X43000Y423562D01*
X43894Y422668D01*
X44929Y421943D01*
X46074Y421409D01*
X47295Y421082D01*
X48554Y420972D01*
Y383772D01*
X47295Y383662D01*
X46074Y383335D01*
X44929Y382801D01*
X43894Y382076D01*
X43000Y381182D01*
X42275Y380147D01*
X41741Y379002D01*
X41414Y377781D01*
X41304Y376522D01*
X41414Y375263D01*
X41741Y374042D01*
X42275Y372897D01*
X43000Y371862D01*
X43894Y370968D01*
X44929Y370243D01*
X46074Y369709D01*
X47295Y369382D01*
X48554Y369272D01*
Y365000D01*
X35000D01*
G37*
G36*
X70470Y449250D02*X72120Y450900D01*
X74879D01*
X75141Y450638D01*
X75034Y450662D01*
X74884Y450709D01*
X74800Y450732D01*
X74713Y450739D01*
X74626Y450732D01*
X74542Y450709D01*
X74463Y450672D01*
X74391Y450622D01*
X74330Y450560D01*
X74280Y450489D01*
X74243Y450410D01*
X74220Y450326D01*
X74213Y450239D01*
X74220Y450152D01*
X74243Y450068D01*
X74280Y449989D01*
X74330Y449917D01*
X74392Y449856D01*
X74463Y449806D01*
X74542Y449769D01*
X74775Y449696D01*
X75013Y449643D01*
X75255Y449611D01*
X75499Y449600D01*
X75744Y449611D01*
X75986Y449643D01*
X76109Y449670D01*
X77066Y448713D01*
X77116Y448671D01*
X77162Y448625D01*
X77215Y448588D01*
X77266Y448545D01*
X77323Y448512D01*
X77376Y448475D01*
X77436Y448447D01*
X77493Y448414D01*
X77551Y448393D01*
X77613Y448364D01*
X77681Y448346D01*
X77739Y448325D01*
X77802Y448314D01*
X77866Y448297D01*
X77933Y448291D01*
X77996Y448280D01*
X78058D01*
X78126Y448274D01*
X79047D01*
Y446821D01*
X79062Y446647D01*
X79107Y446479D01*
X79181Y446321D01*
X79281Y446178D01*
X79404Y446055D01*
X79547Y445955D01*
X79705Y445881D01*
X79869Y445837D01*
X79705Y445793D01*
X79547Y445719D01*
X79404Y445619D01*
X79281Y445496D01*
X79181Y445353D01*
X79107Y445195D01*
X79062Y445027D01*
X79047Y444853D01*
Y443500D01*
X75228D01*
X75250Y443750D01*
Y445250D01*
X75227Y445510D01*
X75163Y445750D01*
X75227Y445990D01*
X75250Y446250D01*
Y447750D01*
X75227Y448010D01*
X75160Y448263D01*
X75049Y448500D01*
X74899Y448714D01*
X74714Y448899D01*
X74500Y449049D01*
X74263Y449160D01*
X74010Y449227D01*
X73750Y449250D01*
X70470D01*
G37*
G36*
X65527Y404822D02*X65830Y404172D01*
X66260Y403558D01*
X66790Y403028D01*
X67404Y402598D01*
X67888Y402372D01*
X67404Y402146D01*
X66790Y401716D01*
X66260Y401186D01*
X65830Y400572D01*
X65527Y399922D01*
X63281D01*
X62978Y400572D01*
X62548Y401186D01*
X62018Y401716D01*
X61404Y402146D01*
X60920Y402372D01*
X61404Y402598D01*
X62018Y403028D01*
X62548Y403558D01*
X62978Y404172D01*
X63281Y404822D01*
X65527D01*
G37*
G36*
X71858Y394806D02*X72318Y395128D01*
X72848Y395658D01*
X73278Y396272D01*
X73595Y396951D01*
X73789Y397675D01*
X73854Y398422D01*
X73789Y399169D01*
X73595Y399893D01*
X73302Y400521D01*
X73945Y399878D01*
Y392812D01*
X73948Y392779D01*
X73110Y393617D01*
X73060Y393659D01*
X73013Y393706D01*
X72959Y393744D01*
X72910Y393785D01*
X72856Y393816D01*
X72829Y393835D01*
X71858Y394806D01*
G37*
G36*
X95301Y423423D02*X95425Y423600D01*
X95500Y423761D01*
X95544Y423666D01*
X95301Y423423D01*
G37*
G36*
X71653Y402170D02*X71220Y402372D01*
X71377Y402446D01*
X71653Y402170D01*
G37*
G36*
X85208Y424330D02*X85250Y424488D01*
X85274Y424396D01*
X85208Y424330D01*
G37*
G54D11*X72049Y392557D02*X76277Y388329D01*
Y388266D01*
X82042Y382501D01*
X81479Y404000D02*X78903Y406576D01*
X79032Y406320D02*Y406383D01*
X94916Y391916D02*X95000Y392000D01*
X94916Y386536D02*Y391916D01*
X89920Y387945D02*Y391920D01*
X90000Y392000D01*
X92931Y402347D02*X92867Y402411D01*
X75445Y400499D02*Y392812D01*
X85000Y392000D02*Y400415D01*
X84924Y400491D01*
Y400576D01*
X81500Y404000D01*
X81479D01*
X75445Y392812D02*X82874Y385383D01*
X82042Y382501D02*X90881D01*
X94916Y386536D01*
X82874Y385383D02*X87358D01*
X89920Y387945D01*
X77558Y420000D02*X82500Y425000D01*
X77558Y420091D02*X78455Y420988D01*
X59254Y416122D02*Y440654D01*
X77558Y420000D02*Y420091D01*
X59254Y440654D02*X60500Y441900D01*
X66000D01*
X82500Y425000D02*Y441500D01*
X73000Y442000D02*X83000D01*
X66000Y441900D02*X68000D01*
X95000Y421000D02*Y419000D01*
X85000D02*Y422000D01*
X88000Y425000D01*
X90000Y419000D02*Y422000D01*
X93000Y425000D01*
X69622Y406322D02*X75445Y400499D01*
X100000Y398500D02*Y401299D01*
X98952Y402347D01*
X92931D01*
X79032Y406383D02*X77558Y407857D01*
Y420000D01*
X98000Y424000D02*X95000Y421000D01*
X104000Y425000D02*X100000Y421000D01*
X98000Y425000D02*Y424000D01*
X100000Y421000D02*Y419000D01*
X69554Y416122D02*X59254D01*
Y398422D02*X69554D01*
Y394989D01*
X71986Y392557D01*
X72049D01*
X59254Y406322D02*X69554D01*
X69622D02*X69554D01*
X69622D01*
X67500Y447000D02*Y447400D01*
Y447000D02*Y447400D01*
X66000Y447000D02*X67500D01*
X66000Y444500D02*X66600D01*
X67500Y445400D01*
Y447000D01*
X68000Y441900D02*X70500Y444400D01*
X72000Y441900D02*X73000Y442000D01*
Y441900D02*Y442000D01*
X72000Y441900D01*
X70500Y444400D02*X72900Y444500D01*
X82500Y441500D02*X83000Y442000D01*
Y449774D02*X78126D01*
X75500Y452400D01*
X83000Y442000D02*Y441900D01*
X83394D01*
X67500Y448400D02*X71500Y452400D01*
X75500D01*
X67500Y447400D02*Y448400D01*
G54D12*X59254Y398422D03*
Y388622D03*
X69554Y406322D03*
Y398422D03*
Y388622D03*
X59254Y416122D03*
Y406322D03*
X69554Y416122D03*
G54D13*X70954Y428222D03*
X48554D03*
X70954Y376522D03*
X48554D03*
G54D14*X75500Y452400D03*
X82500Y425000D03*
X92867Y402411D03*
X104000Y425000D03*
X88000D03*
X93000D03*
X98000D03*
G54D15*X100000Y419000D02*Y412500D01*
X90000Y398500D02*Y392000D01*
X85000Y398500D02*Y392000D01*
Y419000D02*Y412500D01*
X90000Y419000D02*Y412500D01*
X95000Y419000D02*Y412500D01*
X100000Y398500D02*Y392000D01*
X95000Y398500D02*Y392000D01*
G54D18*X83000Y449774D02*X83394D01*
X83000Y441900D02*X83394D01*
G54D19*X64000D02*X66000D01*
X64000Y444500D02*X66000D01*
X64000Y447000D02*X66000D01*
X71000D02*X73000D01*
X71000Y444500D02*X73000D01*
X71000Y441900D02*X73000D01*
G54D14*G54D16*G54D17*M02*
