G04 start of page 11 for group -3984 idx -3984 *
G04 Title: (unknown), fab *
G04 Creator: pcb 20091103 *
G04 CreationDate: Sun 13 Mar 2011 09:43:22 AM GMT UTC *
G04 For: gjhurlbu *
G04 Format: Gerber/RS-274X *
G04 PCB-Dimensions: 600000 500000 *
G04 PCB-Coordinate-Origin: lower left *
%MOIN*%
%FSLAX25Y25*%
%LNFAB*%
%ADD11C,0.0100*%
%ADD17C,0.0200*%
%ADD25C,0.0060*%
G54D17*G36*
X69754Y429988D02*X72719Y427022D01*
X72153Y426457D01*
X69188Y429423D01*
X69754Y429988D01*
G37*
G36*
X69188Y427022D02*X72153Y429988D01*
X72719Y429423D01*
X69754Y426457D01*
X69188Y427022D01*
G37*
G36*
X47354Y429988D02*X50319Y427022D01*
X49753Y426457D01*
X46788Y429423D01*
X47354Y429988D01*
G37*
G36*
X46788Y427022D02*X49753Y429988D01*
X50319Y429423D01*
X47354Y426457D01*
X46788Y427022D01*
G37*
G36*
X69754Y378288D02*X72719Y375322D01*
X72153Y374757D01*
X69188Y377723D01*
X69754Y378288D01*
G37*
G36*
X69188Y375322D02*X72153Y378288D01*
X72719Y377723D01*
X69754Y374757D01*
X69188Y375322D01*
G37*
G36*
X47354Y378288D02*X50319Y375322D01*
X49753Y374757D01*
X46788Y377723D01*
X47354Y378288D01*
G37*
G36*
X46788Y375322D02*X49753Y378288D01*
X50319Y377723D01*
X47354Y374757D01*
X46788Y375322D01*
G37*
G36*
X13800Y528015D02*X16765Y525049D01*
X16199Y524484D01*
X13234Y527450D01*
X13800Y528015D01*
G37*
G36*
X13234Y525049D02*X16199Y528015D01*
X16765Y527450D01*
X13800Y524484D01*
X13234Y525049D01*
G37*
G54D25*X135000Y528500D02*Y527750D01*
X136500Y526250D01*
X138000Y527750D01*
Y528500D02*Y527750D01*
X136500Y526250D02*Y522500D01*
X139801Y525500D02*X142051D01*
X139801Y522500D02*X142801D01*
X139801Y528500D02*Y522500D01*
Y528500D02*X142801D01*
X147603D02*X148353Y527750D01*
X145353Y528500D02*X147603D01*
X144603Y527750D02*X145353Y528500D01*
X144603Y527750D02*Y526250D01*
X145353Y525500D01*
X147603D01*
X148353Y524750D01*
Y523250D01*
X147603Y522500D02*X148353Y523250D01*
X145353Y522500D02*X147603D01*
X144603Y523250D02*X145353Y522500D01*
X135000Y519249D02*X150154D01*
X98000Y525500D02*X101000Y528500D01*
X98000Y525500D02*X101750D01*
X101000Y528500D02*Y522500D01*
X98000Y519249D02*X103551D01*
X45000Y523250D02*X45750Y522500D01*
X45000Y527750D02*Y523250D01*
Y527750D02*X45750Y528500D01*
X47250D01*
X48000Y527750D01*
Y523250D01*
X47250Y522500D02*X48000Y523250D01*
X45750Y522500D02*X47250D01*
X45000Y524000D02*X48000Y527000D01*
X49801Y522500D02*X50551D01*
X52353Y523250D02*X53103Y522500D01*
X52353Y527750D02*Y523250D01*
Y527750D02*X53103Y528500D01*
X54603D01*
X55353Y527750D01*
Y523250D01*
X54603Y522500D02*X55353Y523250D01*
X53103Y522500D02*X54603D01*
X52353Y524000D02*X55353Y527000D01*
X57154Y522500D02*X60154Y525500D01*
Y527750D02*Y525500D01*
X59404Y528500D02*X60154Y527750D01*
X57904Y528500D02*X59404D01*
X57154Y527750D02*X57904Y528500D01*
X57154Y527750D02*Y526250D01*
X57904Y525500D01*
X60154D01*
X62706Y522500D02*X64206D01*
X63456Y528500D02*Y522500D01*
X61956Y527000D02*X63456Y528500D01*
X45000Y519249D02*X66007D01*
X59254Y417722D02*Y414522D01*
X57654Y416122D02*X60854D01*
X59254Y407922D02*Y404722D01*
X57654Y406322D02*X60854D01*
X59254Y400022D02*Y396822D01*
X57654Y398422D02*X60854D01*
X59254Y390222D02*Y387022D01*
X57654Y388622D02*X60854D01*
X69554Y417722D02*Y414522D01*
X67954Y416122D02*X71154D01*
X69554Y407922D02*Y404722D01*
X67954Y406322D02*X71154D01*
X69554Y400022D02*Y396822D01*
X67954Y398422D02*X71154D01*
X69554Y390222D02*Y387022D01*
X67954Y388622D02*X71154D01*
X15000Y542850D02*Y539650D01*
X13400Y541250D02*X16600D01*
X135000Y543500D02*Y542750D01*
X136500Y541250D01*
X138000Y542750D01*
Y543500D02*Y542750D01*
X136500Y541250D02*Y537500D01*
X139801Y540500D02*X142051D01*
X139801Y537500D02*X142801D01*
X139801Y543500D02*Y537500D01*
Y543500D02*X142801D01*
X147603D02*X148353Y542750D01*
X145353Y543500D02*X147603D01*
X144603Y542750D02*X145353Y543500D01*
X144603Y542750D02*Y541250D01*
X145353Y540500D01*
X147603D01*
X148353Y539750D01*
Y538250D01*
X147603Y537500D02*X148353Y538250D01*
X145353Y537500D02*X147603D01*
X144603Y538250D02*X145353Y537500D01*
X135000Y534249D02*X150154D01*
X98000Y538250D02*X98750Y537500D01*
X98000Y539750D02*Y538250D01*
Y539750D02*X98750Y540500D01*
X100250D01*
X101000Y539750D01*
Y538250D01*
X100250Y537500D02*X101000Y538250D01*
X98750Y537500D02*X100250D01*
X98000Y541250D02*X98750Y540500D01*
X98000Y542750D02*Y541250D01*
Y542750D02*X98750Y543500D01*
X100250D01*
X101000Y542750D01*
Y541250D01*
X100250Y540500D02*X101000Y541250D01*
X98000Y534249D02*X102801D01*
X45000Y538250D02*X45750Y537500D01*
X45000Y542750D02*Y538250D01*
Y542750D02*X45750Y543500D01*
X47250D01*
X48000Y542750D01*
Y538250D01*
X47250Y537500D02*X48000Y538250D01*
X45750Y537500D02*X47250D01*
X45000Y539000D02*X48000Y542000D01*
X49801Y537500D02*X50551D01*
X52353Y538250D02*X53103Y537500D01*
X52353Y542750D02*Y538250D01*
Y542750D02*X53103Y543500D01*
X54603D01*
X55353Y542750D01*
Y538250D01*
X54603Y537500D02*X55353Y538250D01*
X53103Y537500D02*X54603D01*
X52353Y539000D02*X55353Y542000D01*
X57154Y542750D02*X57904Y543500D01*
X59404D01*
X60154Y542750D01*
Y538250D01*
X59404Y537500D02*X60154Y538250D01*
X57904Y537500D02*X59404D01*
X57154Y538250D02*X57904Y537500D01*
Y540500D02*X60154D01*
X64206Y543500D02*X64956Y542750D01*
X62706Y543500D02*X64206D01*
X61956Y542750D02*X62706Y543500D01*
X61956Y542750D02*Y538250D01*
X62706Y537500D01*
X64206Y540500D02*X64956Y539750D01*
X61956Y540500D02*X64206D01*
X62706Y537500D02*X64206D01*
X64956Y538250D01*
Y539750D02*Y538250D01*
X45000Y534249D02*X66757D01*
X82500Y425000D02*Y423400D01*
Y425000D02*X83886Y425800D01*
X82500Y425000D02*X81114Y425800D01*
X92867Y402411D02*Y400811D01*
Y402411D02*X94253Y403211D01*
X92867Y402411D02*X91481Y403211D01*
X104000Y425000D02*Y423400D01*
Y425000D02*X105386Y425800D01*
X104000Y425000D02*X102614Y425800D01*
X88000Y425000D02*Y423400D01*
Y425000D02*X89386Y425800D01*
X88000Y425000D02*X86614Y425800D01*
X93000Y425000D02*Y423400D01*
Y425000D02*X94386Y425800D01*
X93000Y425000D02*X91614Y425800D01*
X98000Y425000D02*Y423400D01*
Y425000D02*X99386Y425800D01*
X98000Y425000D02*X96614Y425800D01*
X75500Y452400D02*Y450800D01*
Y452400D02*X76886Y453200D01*
X75500Y452400D02*X74114Y453200D01*
X15000Y556250D02*Y554650D01*
Y556250D02*X16386Y557050D01*
X15000Y556250D02*X13614Y557050D01*
X135000Y558500D02*Y557750D01*
X136500Y556250D01*
X138000Y557750D01*
Y558500D02*Y557750D01*
X136500Y556250D02*Y552500D01*
X139801Y555500D02*X142051D01*
X139801Y552500D02*X142801D01*
X139801Y558500D02*Y552500D01*
Y558500D02*X142801D01*
X147603D02*X148353Y557750D01*
X145353Y558500D02*X147603D01*
X144603Y557750D02*X145353Y558500D01*
X144603Y557750D02*Y556250D01*
X145353Y555500D01*
X147603D01*
X148353Y554750D01*
Y553250D01*
X147603Y552500D02*X148353Y553250D01*
X145353Y552500D02*X147603D01*
X144603Y553250D02*X145353Y552500D01*
X135000Y549249D02*X150154D01*
X98000Y552500D02*X101750Y556250D01*
Y558500D02*Y556250D01*
X98000Y558500D02*X101750D01*
X98000Y549249D02*X103551D01*
X45000Y553250D02*X45750Y552500D01*
X45000Y557750D02*Y553250D01*
Y557750D02*X45750Y558500D01*
X47250D01*
X48000Y557750D01*
Y553250D01*
X47250Y552500D02*X48000Y553250D01*
X45750Y552500D02*X47250D01*
X45000Y554000D02*X48000Y557000D01*
X49801Y552500D02*X50551D01*
X52353Y553250D02*X53103Y552500D01*
X52353Y557750D02*Y553250D01*
Y557750D02*X53103Y558500D01*
X54603D01*
X55353Y557750D01*
Y553250D01*
X54603Y552500D02*X55353Y553250D01*
X53103Y552500D02*X54603D01*
X52353Y554000D02*X55353Y557000D01*
X57154Y557750D02*X57904Y558500D01*
X60154D01*
X60904Y557750D01*
Y556250D01*
X57154Y552500D02*X60904Y556250D01*
X57154Y552500D02*X60904D01*
X62706Y553250D02*X63456Y552500D01*
X62706Y557750D02*Y553250D01*
Y557750D02*X63456Y558500D01*
X64956D01*
X65706Y557750D01*
Y553250D01*
X64956Y552500D02*X65706Y553250D01*
X63456Y552500D02*X64956D01*
X62706Y554000D02*X65706Y557000D01*
X45000Y549249D02*X67507D01*
X3000Y573500D02*X3750Y572750D01*
X750Y573500D02*X3000D01*
X0Y572750D02*X750Y573500D01*
X0Y572750D02*Y571250D01*
X750Y570500D01*
X3000D01*
X3750Y569750D01*
Y568250D01*
X3000Y567500D02*X3750Y568250D01*
X750Y567500D02*X3000D01*
X0Y568250D02*X750Y567500D01*
X5551Y570500D02*Y568250D01*
X6301Y567500D01*
X8551Y570500D02*Y566000D01*
X7801Y565250D02*X8551Y566000D01*
X6301Y565250D02*X7801D01*
X5551Y566000D02*X6301Y565250D01*
Y567500D02*X7801D01*
X8551Y568250D01*
X11103Y569750D02*Y567500D01*
Y569750D02*X11853Y570500D01*
X12603D01*
X13353Y569750D01*
Y567500D01*
Y569750D02*X14103Y570500D01*
X14853D01*
X15603Y569750D01*
Y567500D01*
X10353Y570500D02*X11103Y569750D01*
X17404Y573500D02*Y567500D01*
Y568250D02*X18154Y567500D01*
X19654D01*
X20404Y568250D01*
Y569750D02*Y568250D01*
X19654Y570500D02*X20404Y569750D01*
X18154Y570500D02*X19654D01*
X17404Y569750D02*X18154Y570500D01*
X22206Y569750D02*Y568250D01*
Y569750D02*X22956Y570500D01*
X24456D01*
X25206Y569750D01*
Y568250D01*
X24456Y567500D02*X25206Y568250D01*
X22956Y567500D02*X24456D01*
X22206Y568250D02*X22956Y567500D01*
X27007Y573500D02*Y568250D01*
X27757Y567500D01*
X41750Y573500D02*Y567500D01*
X44000Y573500D02*X44750Y572750D01*
Y568250D01*
X44000Y567500D02*X44750Y568250D01*
X41000Y567500D02*X44000D01*
X41000Y573500D02*X44000D01*
X46551Y572000D02*Y571250D01*
Y569750D02*Y567500D01*
X50303Y570500D02*X51053Y569750D01*
X48803Y570500D02*X50303D01*
X48053Y569750D02*X48803Y570500D01*
X48053Y569750D02*Y568250D01*
X48803Y567500D01*
X51053Y570500D02*Y568250D01*
X51803Y567500D01*
X48803D02*X50303D01*
X51053Y568250D01*
X54354Y569750D02*Y567500D01*
Y569750D02*X55104Y570500D01*
X55854D01*
X56604Y569750D01*
Y567500D01*
Y569750D02*X57354Y570500D01*
X58104D01*
X58854Y569750D01*
Y567500D01*
X53604Y570500D02*X54354Y569750D01*
X60656Y567500D02*X61406D01*
X65907Y568250D02*X66657Y567500D01*
X65907Y572750D02*X66657Y573500D01*
X65907Y572750D02*Y568250D01*
X68459Y573500D02*X69959D01*
X69209D02*Y567500D01*
X68459D02*X69959D01*
X72510Y569750D02*Y567500D01*
Y569750D02*X73260Y570500D01*
X74010D01*
X74760Y569750D01*
Y567500D01*
X71760Y570500D02*X72510Y569750D01*
X77312Y570500D02*X79562D01*
X76562Y569750D02*X77312Y570500D01*
X76562Y569750D02*Y568250D01*
X77312Y567500D01*
X79562D01*
X81363Y573500D02*Y567500D01*
Y569750D02*X82113Y570500D01*
X83613D01*
X84363Y569750D01*
Y567500D01*
X86165Y573500D02*X86915Y572750D01*
Y568250D01*
X86165Y567500D02*X86915Y568250D01*
X95750Y567500D02*X98000D01*
X95000Y568250D02*X95750Y567500D01*
X95000Y572750D02*Y568250D01*
Y572750D02*X95750Y573500D01*
X98000D01*
X99801Y569750D02*Y568250D01*
Y569750D02*X100551Y570500D01*
X102051D01*
X102801Y569750D01*
Y568250D01*
X102051Y567500D02*X102801Y568250D01*
X100551Y567500D02*X102051D01*
X99801Y568250D02*X100551Y567500D01*
X104603Y570500D02*Y568250D01*
X105353Y567500D01*
X106853D01*
X107603Y568250D01*
Y570500D02*Y568250D01*
X110154Y569750D02*Y567500D01*
Y569750D02*X110904Y570500D01*
X111654D01*
X112404Y569750D01*
Y567500D01*
X109404Y570500D02*X110154Y569750D01*
X114956Y573500D02*Y568250D01*
X115706Y567500D01*
X114206Y571250D02*X115706D01*
X130750Y573500D02*Y567500D01*
X130000Y573500D02*X133000D01*
X133750Y572750D01*
Y571250D01*
X133000Y570500D02*X133750Y571250D01*
X130750Y570500D02*X133000D01*
X135551Y573500D02*Y568250D01*
X136301Y567500D01*
X140053Y570500D02*X140803Y569750D01*
X138553Y570500D02*X140053D01*
X137803Y569750D02*X138553Y570500D01*
X137803Y569750D02*Y568250D01*
X138553Y567500D01*
X140803Y570500D02*Y568250D01*
X141553Y567500D01*
X138553D02*X140053D01*
X140803Y568250D01*
X144104Y573500D02*Y568250D01*
X144854Y567500D01*
X143354Y571250D02*X144854D01*
X147106Y567500D02*X149356D01*
X146356Y568250D02*X147106Y567500D01*
X146356Y569750D02*Y568250D01*
Y569750D02*X147106Y570500D01*
X148606D01*
X149356Y569750D01*
X146356Y569000D02*X149356D01*
Y569750D02*Y569000D01*
X154157Y573500D02*Y567500D01*
X153407D02*X154157Y568250D01*
X151907Y567500D02*X153407D01*
X151157Y568250D02*X151907Y567500D01*
X151157Y569750D02*Y568250D01*
Y569750D02*X151907Y570500D01*
X153407D01*
X154157Y569750D01*
X157459Y570500D02*Y569750D01*
Y568250D02*Y567500D01*
X155959Y572750D02*Y572000D01*
Y572750D02*X156709Y573500D01*
X158209D01*
X158959Y572750D01*
Y572000D01*
X157459Y570500D02*X158959Y572000D01*
X0Y588500D02*X3000D01*
X1500D02*Y582500D01*
X4801Y588500D02*Y582500D01*
Y584750D02*X5551Y585500D01*
X7051D01*
X7801Y584750D01*
Y582500D01*
X10353D02*X12603D01*
X9603Y583250D02*X10353Y582500D01*
X9603Y584750D02*Y583250D01*
Y584750D02*X10353Y585500D01*
X11853D01*
X12603Y584750D01*
X9603Y584000D02*X12603D01*
Y584750D02*Y584000D01*
X15154Y584750D02*Y582500D01*
Y584750D02*X15904Y585500D01*
X17404D01*
X14404D02*X15154Y584750D01*
X19956Y582500D02*X22206D01*
X19206Y583250D02*X19956Y582500D01*
X19206Y584750D02*Y583250D01*
Y584750D02*X19956Y585500D01*
X21456D01*
X22206Y584750D01*
X19206Y584000D02*X22206D01*
Y584750D02*Y584000D01*
X28957Y585500D02*X29707Y584750D01*
X27457Y585500D02*X28957D01*
X26707Y584750D02*X27457Y585500D01*
X26707Y584750D02*Y583250D01*
X27457Y582500D01*
X29707Y585500D02*Y583250D01*
X30457Y582500D01*
X27457D02*X28957D01*
X29707Y583250D01*
X33009Y584750D02*Y582500D01*
Y584750D02*X33759Y585500D01*
X35259D01*
X32259D02*X33009Y584750D01*
X37810Y582500D02*X40060D01*
X37060Y583250D02*X37810Y582500D01*
X37060Y584750D02*Y583250D01*
Y584750D02*X37810Y585500D01*
X39310D01*
X40060Y584750D01*
X37060Y584000D02*X40060D01*
Y584750D02*Y584000D01*
X44562Y587750D02*X45312Y588500D01*
X46812D01*
X47562Y587750D01*
Y583250D01*
X46812Y582500D02*X47562Y583250D01*
X45312Y582500D02*X46812D01*
X44562Y583250D02*X45312Y582500D01*
Y585500D02*X47562D01*
X55063Y588500D02*Y582500D01*
X54313D02*X55063Y583250D01*
X52813Y582500D02*X54313D01*
X52063Y583250D02*X52813Y582500D01*
X52063Y584750D02*Y583250D01*
Y584750D02*X52813Y585500D01*
X54313D01*
X55063Y584750D01*
X56865Y587000D02*Y586250D01*
Y584750D02*Y582500D01*
X59116Y587750D02*Y582500D01*
Y587750D02*X59866Y588500D01*
X60616D01*
X58366Y585500D02*X59866D01*
X62868Y587750D02*Y582500D01*
Y587750D02*X63618Y588500D01*
X64368D01*
X62118Y585500D02*X63618D01*
X66619Y582500D02*X68869D01*
X65869Y583250D02*X66619Y582500D01*
X65869Y584750D02*Y583250D01*
Y584750D02*X66619Y585500D01*
X68119D01*
X68869Y584750D01*
X65869Y584000D02*X68869D01*
Y584750D02*Y584000D01*
X71421Y584750D02*Y582500D01*
Y584750D02*X72171Y585500D01*
X73671D01*
X70671D02*X71421Y584750D01*
X76222Y582500D02*X78472D01*
X75472Y583250D02*X76222Y582500D01*
X75472Y584750D02*Y583250D01*
Y584750D02*X76222Y585500D01*
X77722D01*
X78472Y584750D01*
X75472Y584000D02*X78472D01*
Y584750D02*Y584000D01*
X81024Y584750D02*Y582500D01*
Y584750D02*X81774Y585500D01*
X82524D01*
X83274Y584750D01*
Y582500D01*
X80274Y585500D02*X81024Y584750D01*
X85825Y588500D02*Y583250D01*
X86575Y582500D01*
X85075Y586250D02*X86575D01*
X93777Y588500D02*Y582500D01*
X93027D02*X93777Y583250D01*
X91527Y582500D02*X93027D01*
X90777Y583250D02*X91527Y582500D01*
X90777Y584750D02*Y583250D01*
Y584750D02*X91527Y585500D01*
X93027D01*
X93777Y584750D01*
X96328D02*Y582500D01*
Y584750D02*X97078Y585500D01*
X98578D01*
X95578D02*X96328Y584750D01*
X100380Y587000D02*Y586250D01*
Y584750D02*Y582500D01*
X101881Y588500D02*Y583250D01*
X102631Y582500D01*
X104133Y588500D02*Y583250D01*
X104883Y582500D01*
X109834D02*X112084D01*
X112834Y583250D01*
X112084Y584000D02*X112834Y583250D01*
X109834Y584000D02*X112084D01*
X109084Y584750D02*X109834Y584000D01*
X109084Y584750D02*X109834Y585500D01*
X112084D01*
X112834Y584750D01*
X109084Y583250D02*X109834Y582500D01*
X114636Y587000D02*Y586250D01*
Y584750D02*Y582500D01*
X116137Y585500D02*X119137D01*
X116137Y582500D02*X119137Y585500D01*
X116137Y582500D02*X119137D01*
X121689D02*X123939D01*
X120939Y583250D02*X121689Y582500D01*
X120939Y584750D02*Y583250D01*
Y584750D02*X121689Y585500D01*
X123189D01*
X123939Y584750D01*
X120939Y584000D02*X123939D01*
Y584750D02*Y584000D01*
X126490Y582500D02*X128740D01*
X129490Y583250D01*
X128740Y584000D02*X129490Y583250D01*
X126490Y584000D02*X128740D01*
X125740Y584750D02*X126490Y584000D01*
X125740Y584750D02*X126490Y585500D01*
X128740D01*
X129490Y584750D01*
X125740Y583250D02*X126490Y582500D01*
X133992Y585500D02*Y583250D01*
X134742Y582500D01*
X136242D01*
X136992Y583250D01*
Y585500D02*Y583250D01*
X139543Y582500D02*X141793D01*
X142543Y583250D01*
X141793Y584000D02*X142543Y583250D01*
X139543Y584000D02*X141793D01*
X138793Y584750D02*X139543Y584000D01*
X138793Y584750D02*X139543Y585500D01*
X141793D01*
X142543Y584750D01*
X138793Y583250D02*X139543Y582500D01*
X145095D02*X147345D01*
X144345Y583250D02*X145095Y582500D01*
X144345Y584750D02*Y583250D01*
Y584750D02*X145095Y585500D01*
X146595D01*
X147345Y584750D01*
X144345Y584000D02*X147345D01*
Y584750D02*Y584000D01*
X152146Y588500D02*Y582500D01*
X151396D02*X152146Y583250D01*
X149896Y582500D02*X151396D01*
X149146Y583250D02*X149896Y582500D01*
X149146Y584750D02*Y583250D01*
Y584750D02*X149896Y585500D01*
X151396D01*
X152146Y584750D01*
X156648Y587000D02*Y586250D01*
Y584750D02*Y582500D01*
X158899Y584750D02*Y582500D01*
Y584750D02*X159649Y585500D01*
X160399D01*
X161149Y584750D01*
Y582500D01*
X158149Y585500D02*X158899Y584750D01*
X166401Y588500D02*Y583250D01*
X167151Y582500D01*
X165651Y586250D02*X167151D01*
X168652Y588500D02*Y582500D01*
Y584750D02*X169402Y585500D01*
X170902D01*
X171652Y584750D01*
Y582500D01*
X173454Y587000D02*Y586250D01*
Y584750D02*Y582500D01*
X175705D02*X177955D01*
X178705Y583250D01*
X177955Y584000D02*X178705Y583250D01*
X175705Y584000D02*X177955D01*
X174955Y584750D02*X175705Y584000D01*
X174955Y584750D02*X175705Y585500D01*
X177955D01*
X178705Y584750D01*
X174955Y583250D02*X175705Y582500D01*
X183207Y588500D02*Y583250D01*
X183957Y582500D01*
X187708Y585500D02*X188458Y584750D01*
X186208Y585500D02*X187708D01*
X185458Y584750D02*X186208Y585500D01*
X185458Y584750D02*Y583250D01*
X186208Y582500D01*
X188458Y585500D02*Y583250D01*
X189208Y582500D01*
X186208D02*X187708D01*
X188458Y583250D01*
X191010Y585500D02*Y583250D01*
X191760Y582500D01*
X194010Y585500D02*Y581000D01*
X193260Y580250D02*X194010Y581000D01*
X191760Y580250D02*X193260D01*
X191010Y581000D02*X191760Y580250D01*
Y582500D02*X193260D01*
X194010Y583250D01*
X195811Y584750D02*Y583250D01*
Y584750D02*X196561Y585500D01*
X198061D01*
X198811Y584750D01*
Y583250D01*
X198061Y582500D02*X198811Y583250D01*
X196561Y582500D02*X198061D01*
X195811Y583250D02*X196561Y582500D01*
X200613Y585500D02*Y583250D01*
X201363Y582500D01*
X202863D01*
X203613Y583250D01*
Y585500D02*Y583250D01*
X206164Y588500D02*Y583250D01*
X206914Y582500D01*
X205414Y586250D02*X206914D01*
X208416Y581000D02*X209916Y582500D01*
X215167D02*X216667D01*
X215917Y588500D02*Y582500D01*
X214417Y587000D02*X215917Y588500D01*
X218469Y582500D02*X221469Y585500D01*
Y587750D02*Y585500D01*
X220719Y588500D02*X221469Y587750D01*
X219219Y588500D02*X220719D01*
X218469Y587750D02*X219219Y588500D01*
X218469Y587750D02*Y586250D01*
X219219Y585500D01*
X221469D01*
X225970Y588500D02*Y582500D01*
Y584750D02*X226720Y585500D01*
X228220D01*
X228970Y584750D01*
Y582500D01*
X230772Y584750D02*Y583250D01*
Y584750D02*X231522Y585500D01*
X233022D01*
X233772Y584750D01*
Y583250D01*
X233022Y582500D02*X233772Y583250D01*
X231522Y582500D02*X233022D01*
X230772Y583250D02*X231522Y582500D01*
X235573Y588500D02*Y583250D01*
X236323Y582500D01*
X238575D02*X240825D01*
X237825Y583250D02*X238575Y582500D01*
X237825Y584750D02*Y583250D01*
Y584750D02*X238575Y585500D01*
X240075D01*
X240825Y584750D01*
X237825Y584000D02*X240825D01*
Y584750D02*Y584000D01*
X243376Y582500D02*X245626D01*
X246376Y583250D01*
X245626Y584000D02*X246376Y583250D01*
X243376Y584000D02*X245626D01*
X242626Y584750D02*X243376Y584000D01*
X242626Y584750D02*X243376Y585500D01*
X245626D01*
X246376Y584750D01*
X242626Y583250D02*X243376Y582500D01*
X251628Y588500D02*Y583250D01*
X252378Y582500D01*
X250878Y586250D02*X252378D01*
X253879Y584750D02*Y583250D01*
Y584750D02*X254629Y585500D01*
X256129D01*
X256879Y584750D01*
Y583250D01*
X256129Y582500D02*X256879Y583250D01*
X254629Y582500D02*X256129D01*
X253879Y583250D02*X254629Y582500D01*
X259431Y588500D02*Y583250D01*
X260181Y582500D01*
X258681Y586250D02*X260181D01*
X263932Y585500D02*X264682Y584750D01*
X262432Y585500D02*X263932D01*
X261682Y584750D02*X262432Y585500D01*
X261682Y584750D02*Y583250D01*
X262432Y582500D01*
X264682Y585500D02*Y583250D01*
X265432Y582500D01*
X262432D02*X263932D01*
X264682Y583250D01*
X267234Y588500D02*Y583250D01*
X267984Y582500D01*
G54D11*X0Y500000D02*X600000D01*
X0D02*Y0D01*
X600000Y500000D02*Y0D01*
X0D02*X600000D01*
G54D25*X200000Y513500D02*Y507500D01*
Y513500D02*X202250Y511250D01*
X204500Y513500D01*
Y507500D01*
X208551Y510500D02*X209301Y509750D01*
X207051Y510500D02*X208551D01*
X206301Y509750D02*X207051Y510500D01*
X206301Y509750D02*Y508250D01*
X207051Y507500D01*
X209301Y510500D02*Y508250D01*
X210051Y507500D01*
X207051D02*X208551D01*
X209301Y508250D01*
X211853Y510500D02*X214853Y507500D01*
X211853D02*X214853Y510500D01*
X216654Y512000D02*Y511250D01*
Y509750D02*Y507500D01*
X218906Y509750D02*Y507500D01*
Y509750D02*X219656Y510500D01*
X220406D01*
X221156Y509750D01*
Y507500D01*
Y509750D02*X221906Y510500D01*
X222656D01*
X223406Y509750D01*
Y507500D01*
X218156Y510500D02*X218906Y509750D01*
X225207Y510500D02*Y508250D01*
X225957Y507500D01*
X227457D01*
X228207Y508250D01*
Y510500D02*Y508250D01*
X230759Y509750D02*Y507500D01*
Y509750D02*X231509Y510500D01*
X232259D01*
X233009Y509750D01*
Y507500D01*
Y509750D02*X233759Y510500D01*
X234509D01*
X235259Y509750D01*
Y507500D01*
X230009Y510500D02*X230759Y509750D01*
X240510Y513500D02*Y507500D01*
X242760Y513500D02*X243510Y512750D01*
Y508250D01*
X242760Y507500D02*X243510Y508250D01*
X239760Y507500D02*X242760D01*
X239760Y513500D02*X242760D01*
X245312Y512000D02*Y511250D01*
Y509750D02*Y507500D01*
X247563Y509750D02*Y507500D01*
Y509750D02*X248313Y510500D01*
X249063D01*
X249813Y509750D01*
Y507500D01*
Y509750D02*X250563Y510500D01*
X251313D01*
X252063Y509750D01*
Y507500D01*
X246813Y510500D02*X247563Y509750D01*
X254615Y507500D02*X256865D01*
X253865Y508250D02*X254615Y507500D01*
X253865Y509750D02*Y508250D01*
Y509750D02*X254615Y510500D01*
X256115D01*
X256865Y509750D01*
X253865Y509000D02*X256865D01*
Y509750D02*Y509000D01*
X259416Y509750D02*Y507500D01*
Y509750D02*X260166Y510500D01*
X260916D01*
X261666Y509750D01*
Y507500D01*
X258666Y510500D02*X259416Y509750D01*
X264218Y507500D02*X266468D01*
X267218Y508250D01*
X266468Y509000D02*X267218Y508250D01*
X264218Y509000D02*X266468D01*
X263468Y509750D02*X264218Y509000D01*
X263468Y509750D02*X264218Y510500D01*
X266468D01*
X267218Y509750D01*
X263468Y508250D02*X264218Y507500D01*
X269019Y512000D02*Y511250D01*
Y509750D02*Y507500D01*
X270521Y509750D02*Y508250D01*
Y509750D02*X271271Y510500D01*
X272771D01*
X273521Y509750D01*
Y508250D01*
X272771Y507500D02*X273521Y508250D01*
X271271Y507500D02*X272771D01*
X270521Y508250D02*X271271Y507500D01*
X276072Y509750D02*Y507500D01*
Y509750D02*X276822Y510500D01*
X277572D01*
X278322Y509750D01*
Y507500D01*
X275322Y510500D02*X276072Y509750D01*
X280874Y507500D02*X283124D01*
X283874Y508250D01*
X283124Y509000D02*X283874Y508250D01*
X280874Y509000D02*X283124D01*
X280124Y509750D02*X280874Y509000D01*
X280124Y509750D02*X280874Y510500D01*
X283124D01*
X283874Y509750D01*
X280124Y508250D02*X280874Y507500D01*
X285675Y511250D02*X286425D01*
X285675Y509750D02*X286425D01*
X293177Y513500D02*X293927Y512750D01*
X291677Y513500D02*X293177D01*
X290927Y512750D02*X291677Y513500D01*
X290927Y512750D02*Y508250D01*
X291677Y507500D01*
X293177Y510500D02*X293927Y509750D01*
X290927Y510500D02*X293177D01*
X291677Y507500D02*X293177D01*
X293927Y508250D01*
Y509750D02*Y508250D01*
X295728D02*X296478Y507500D01*
X295728Y512750D02*Y508250D01*
Y512750D02*X296478Y513500D01*
X297978D01*
X298728Y512750D01*
Y508250D01*
X297978Y507500D02*X298728Y508250D01*
X296478Y507500D02*X297978D01*
X295728Y509000D02*X298728Y512000D01*
X300530Y508250D02*X301280Y507500D01*
X300530Y512750D02*Y508250D01*
Y512750D02*X301280Y513500D01*
X302780D01*
X303530Y512750D01*
Y508250D01*
X302780Y507500D02*X303530Y508250D01*
X301280Y507500D02*X302780D01*
X300530Y509000D02*X303530Y512000D01*
X305331Y508250D02*X306081Y507500D01*
X305331Y512750D02*Y508250D01*
Y512750D02*X306081Y513500D01*
X307581D01*
X308331Y512750D01*
Y508250D01*
X307581Y507500D02*X308331Y508250D01*
X306081Y507500D02*X307581D01*
X305331Y509000D02*X308331Y512000D01*
X313583Y509750D02*Y507500D01*
Y509750D02*X314333Y510500D01*
X315083D01*
X315833Y509750D01*
Y507500D01*
Y509750D02*X316583Y510500D01*
X317333D01*
X318083Y509750D01*
Y507500D01*
X312833Y510500D02*X313583Y509750D01*
X319884Y512000D02*Y511250D01*
Y509750D02*Y507500D01*
X321386Y513500D02*Y508250D01*
X322136Y507500D01*
X324387D02*X326637D01*
X327387Y508250D01*
X326637Y509000D02*X327387Y508250D01*
X324387Y509000D02*X326637D01*
X323637Y509750D02*X324387Y509000D01*
X323637Y509750D02*X324387Y510500D01*
X326637D01*
X327387Y509750D01*
X323637Y508250D02*X324387Y507500D01*
X331889Y510500D02*Y508250D01*
X332639Y507500D01*
X333389D01*
X334139Y508250D01*
Y510500D02*Y508250D01*
X334889Y507500D01*
X335639D01*
X336389Y508250D01*
Y510500D02*Y508250D01*
X338190Y512000D02*Y511250D01*
Y509750D02*Y507500D01*
X342692Y513500D02*Y507500D01*
X341942D02*X342692Y508250D01*
X340442Y507500D02*X341942D01*
X339692Y508250D02*X340442Y507500D01*
X339692Y509750D02*Y508250D01*
Y509750D02*X340442Y510500D01*
X341942D01*
X342692Y509750D01*
X345243Y507500D02*X347493D01*
X344493Y508250D02*X345243Y507500D01*
X344493Y509750D02*Y508250D01*
Y509750D02*X345243Y510500D01*
X346743D01*
X347493Y509750D01*
X344493Y509000D02*X347493D01*
Y509750D02*Y509000D01*
X349295Y506000D02*X350795Y507500D01*
X355296Y513500D02*X358296D01*
X355296D02*Y510500D01*
X356046Y511250D01*
X357546D01*
X358296Y510500D01*
Y508250D01*
X357546Y507500D02*X358296Y508250D01*
X356046Y507500D02*X357546D01*
X355296Y508250D02*X356046Y507500D01*
X360098Y508250D02*X360848Y507500D01*
X360098Y512750D02*Y508250D01*
Y512750D02*X360848Y513500D01*
X362348D01*
X363098Y512750D01*
Y508250D01*
X362348Y507500D02*X363098Y508250D01*
X360848Y507500D02*X362348D01*
X360098Y509000D02*X363098Y512000D01*
X364899Y508250D02*X365649Y507500D01*
X364899Y512750D02*Y508250D01*
Y512750D02*X365649Y513500D01*
X367149D01*
X367899Y512750D01*
Y508250D01*
X367149Y507500D02*X367899Y508250D01*
X365649Y507500D02*X367149D01*
X364899Y509000D02*X367899Y512000D01*
X369701Y508250D02*X370451Y507500D01*
X369701Y512750D02*Y508250D01*
Y512750D02*X370451Y513500D01*
X371951D01*
X372701Y512750D01*
Y508250D01*
X371951Y507500D02*X372701Y508250D01*
X370451Y507500D02*X371951D01*
X369701Y509000D02*X372701Y512000D01*
X377952Y509750D02*Y507500D01*
Y509750D02*X378702Y510500D01*
X379452D01*
X380202Y509750D01*
Y507500D01*
Y509750D02*X380952Y510500D01*
X381702D01*
X382452Y509750D01*
Y507500D01*
X377202Y510500D02*X377952Y509750D01*
X384254Y512000D02*Y511250D01*
Y509750D02*Y507500D01*
X385755Y513500D02*Y508250D01*
X386505Y507500D01*
X388757D02*X391007D01*
X391757Y508250D01*
X391007Y509000D02*X391757Y508250D01*
X388757Y509000D02*X391007D01*
X388007Y509750D02*X388757Y509000D01*
X388007Y509750D02*X388757Y510500D01*
X391007D01*
X391757Y509750D01*
X388007Y508250D02*X388757Y507500D01*
X396258Y513500D02*Y507500D01*
Y509750D02*X397008Y510500D01*
X398508D01*
X399258Y509750D01*
Y507500D01*
X401060Y512000D02*Y511250D01*
Y509750D02*Y507500D01*
X404811Y510500D02*X405561Y509750D01*
X403311Y510500D02*X404811D01*
X402561Y509750D02*X403311Y510500D01*
X402561Y509750D02*Y508250D01*
X403311Y507500D01*
X404811D01*
X405561Y508250D01*
X402561Y506000D02*X403311Y505250D01*
X404811D01*
X405561Y506000D01*
Y510500D02*Y506000D01*
X407363Y513500D02*Y507500D01*
Y509750D02*X408113Y510500D01*
X409613D01*
X410363Y509750D01*
Y507500D01*
X142226Y-9500D02*X145226D01*
X145976Y-8750D01*
Y-7250D02*Y-8750D01*
X145226Y-6500D02*X145976Y-7250D01*
X142976Y-6500D02*X145226D01*
X142976Y-3500D02*Y-9500D01*
X142226Y-3500D02*X145226D01*
X145976Y-4250D01*
Y-5750D01*
X145226Y-6500D02*X145976Y-5750D01*
X147777Y-7250D02*Y-8750D01*
Y-7250D02*X148527Y-6500D01*
X150027D01*
X150777Y-7250D01*
Y-8750D01*
X150027Y-9500D02*X150777Y-8750D01*
X148527Y-9500D02*X150027D01*
X147777Y-8750D02*X148527Y-9500D01*
X154829Y-6500D02*X155579Y-7250D01*
X153329Y-6500D02*X154829D01*
X152579Y-7250D02*X153329Y-6500D01*
X152579Y-7250D02*Y-8750D01*
X153329Y-9500D01*
X155579Y-6500D02*Y-8750D01*
X156329Y-9500D01*
X153329D02*X154829D01*
X155579Y-8750D01*
X158880Y-7250D02*Y-9500D01*
Y-7250D02*X159630Y-6500D01*
X161130D01*
X158130D02*X158880Y-7250D01*
X165932Y-3500D02*Y-9500D01*
X165182D02*X165932Y-8750D01*
X163682Y-9500D02*X165182D01*
X162932Y-8750D02*X163682Y-9500D01*
X162932Y-7250D02*Y-8750D01*
Y-7250D02*X163682Y-6500D01*
X165182D01*
X165932Y-7250D01*
X170433D02*Y-8750D01*
Y-7250D02*X171183Y-6500D01*
X172683D01*
X173433Y-7250D01*
Y-8750D01*
X172683Y-9500D02*X173433Y-8750D01*
X171183Y-9500D02*X172683D01*
X170433Y-8750D02*X171183Y-9500D01*
X175235Y-6500D02*Y-8750D01*
X175985Y-9500D01*
X177485D01*
X178235Y-8750D01*
Y-6500D02*Y-8750D01*
X180786Y-3500D02*Y-8750D01*
X181536Y-9500D01*
X180036Y-5750D02*X181536D01*
X183038Y-3500D02*Y-8750D01*
X183788Y-9500D01*
X185289Y-5000D02*Y-5750D01*
Y-7250D02*Y-9500D01*
X187541Y-7250D02*Y-9500D01*
Y-7250D02*X188291Y-6500D01*
X189041D01*
X189791Y-7250D01*
Y-9500D01*
X186791Y-6500D02*X187541Y-7250D01*
X192342Y-9500D02*X194592D01*
X191592Y-8750D02*X192342Y-9500D01*
X191592Y-7250D02*Y-8750D01*
Y-7250D02*X192342Y-6500D01*
X193842D01*
X194592Y-7250D01*
X191592Y-8000D02*X194592D01*
Y-7250D02*Y-8000D01*
X199094Y-5000D02*Y-5750D01*
Y-7250D02*Y-9500D01*
X201345D02*X203595D01*
X204345Y-8750D01*
X203595Y-8000D02*X204345Y-8750D01*
X201345Y-8000D02*X203595D01*
X200595Y-7250D02*X201345Y-8000D01*
X200595Y-7250D02*X201345Y-6500D01*
X203595D01*
X204345Y-7250D01*
X200595Y-8750D02*X201345Y-9500D01*
X209597Y-3500D02*Y-8750D01*
X210347Y-9500D01*
X208847Y-5750D02*X210347D01*
X211848Y-3500D02*Y-9500D01*
Y-7250D02*X212598Y-6500D01*
X214098D01*
X214848Y-7250D01*
Y-9500D01*
X217400D02*X219650D01*
X216650Y-8750D02*X217400Y-9500D01*
X216650Y-7250D02*Y-8750D01*
Y-7250D02*X217400Y-6500D01*
X218900D01*
X219650Y-7250D01*
X216650Y-8000D02*X219650D01*
Y-7250D02*Y-8000D01*
X224901Y-6500D02*X227151D01*
X224151Y-7250D02*X224901Y-6500D01*
X224151Y-7250D02*Y-8750D01*
X224901Y-9500D01*
X227151D01*
X229703D02*X231953D01*
X228953Y-8750D02*X229703Y-9500D01*
X228953Y-7250D02*Y-8750D01*
Y-7250D02*X229703Y-6500D01*
X231203D01*
X231953Y-7250D01*
X228953Y-8000D02*X231953D01*
Y-7250D02*Y-8000D01*
X234504Y-7250D02*Y-9500D01*
Y-7250D02*X235254Y-6500D01*
X236004D01*
X236754Y-7250D01*
Y-9500D01*
X233754Y-6500D02*X234504Y-7250D01*
X239306Y-3500D02*Y-8750D01*
X240056Y-9500D01*
X238556Y-5750D02*X240056D01*
X242307Y-9500D02*X244557D01*
X241557Y-8750D02*X242307Y-9500D01*
X241557Y-7250D02*Y-8750D01*
Y-7250D02*X242307Y-6500D01*
X243807D01*
X244557Y-7250D01*
X241557Y-8000D02*X244557D01*
Y-7250D02*Y-8000D01*
X247109Y-7250D02*Y-9500D01*
Y-7250D02*X247859Y-6500D01*
X249359D01*
X246359D02*X247109Y-7250D01*
X251160Y-3500D02*Y-8750D01*
X251910Y-9500D01*
X253412Y-5000D02*Y-5750D01*
Y-7250D02*Y-9500D01*
X255663Y-7250D02*Y-9500D01*
Y-7250D02*X256413Y-6500D01*
X257163D01*
X257913Y-7250D01*
Y-9500D01*
X254913Y-6500D02*X255663Y-7250D01*
X260465Y-9500D02*X262715D01*
X259715Y-8750D02*X260465Y-9500D01*
X259715Y-7250D02*Y-8750D01*
Y-7250D02*X260465Y-6500D01*
X261965D01*
X262715Y-7250D01*
X259715Y-8000D02*X262715D01*
Y-7250D02*Y-8000D01*
X267216Y-7250D02*Y-8750D01*
Y-7250D02*X267966Y-6500D01*
X269466D01*
X270216Y-7250D01*
Y-8750D01*
X269466Y-9500D02*X270216Y-8750D01*
X267966Y-9500D02*X269466D01*
X267216Y-8750D02*X267966Y-9500D01*
X272768Y-4250D02*Y-9500D01*
Y-4250D02*X273518Y-3500D01*
X274268D01*
X272018Y-6500D02*X273518D01*
X279219Y-3500D02*Y-8750D01*
X279969Y-9500D01*
X278469Y-5750D02*X279969D01*
X281471Y-3500D02*Y-9500D01*
Y-7250D02*X282221Y-6500D01*
X283721D01*
X284471Y-7250D01*
Y-9500D01*
X286272Y-5000D02*Y-5750D01*
Y-7250D02*Y-9500D01*
X288524D02*X290774D01*
X291524Y-8750D01*
X290774Y-8000D02*X291524Y-8750D01*
X288524Y-8000D02*X290774D01*
X287774Y-7250D02*X288524Y-8000D01*
X287774Y-7250D02*X288524Y-6500D01*
X290774D01*
X291524Y-7250D01*
X287774Y-8750D02*X288524Y-9500D01*
X296775D02*X298275D01*
X297525Y-3500D02*Y-9500D01*
X296025Y-5000D02*X297525Y-3500D01*
X300077Y-8750D02*X300827Y-9500D01*
X300077Y-4250D02*Y-8750D01*
Y-4250D02*X300827Y-3500D01*
X302327D01*
X303077Y-4250D01*
Y-8750D01*
X302327Y-9500D02*X303077Y-8750D01*
X300827Y-9500D02*X302327D01*
X300077Y-8000D02*X303077Y-5000D01*
X308328Y-7250D02*Y-9500D01*
Y-7250D02*X309078Y-6500D01*
X309828D01*
X310578Y-7250D01*
Y-9500D01*
Y-7250D02*X311328Y-6500D01*
X312078D01*
X312828Y-7250D01*
Y-9500D01*
X307578Y-6500D02*X308328Y-7250D01*
X314630Y-5000D02*Y-5750D01*
Y-7250D02*Y-9500D01*
X316131Y-3500D02*Y-8750D01*
X316881Y-9500D01*
X321833Y-7250D02*Y-9500D01*
Y-7250D02*X322583Y-6500D01*
X324083D01*
X321083D02*X321833Y-7250D01*
X326634Y-9500D02*X328884D01*
X325884Y-8750D02*X326634Y-9500D01*
X325884Y-7250D02*Y-8750D01*
Y-7250D02*X326634Y-6500D01*
X328134D01*
X328884Y-7250D01*
X325884Y-8000D02*X328884D01*
Y-7250D02*Y-8000D01*
X331436Y-6500D02*X333686D01*
X330686Y-7250D02*X331436Y-6500D01*
X330686Y-7250D02*Y-8750D01*
X331436Y-9500D01*
X333686D01*
X336237Y-3500D02*Y-8750D01*
X336987Y-9500D01*
X335487Y-5750D02*X336987D01*
X340739Y-6500D02*X341489Y-7250D01*
X339239Y-6500D02*X340739D01*
X338489Y-7250D02*X339239Y-6500D01*
X338489Y-7250D02*Y-8750D01*
X339239Y-9500D01*
X341489Y-6500D02*Y-8750D01*
X342239Y-9500D01*
X339239D02*X340739D01*
X341489Y-8750D01*
X344790Y-7250D02*Y-9500D01*
Y-7250D02*X345540Y-6500D01*
X346290D01*
X347040Y-7250D01*
Y-9500D01*
X344040Y-6500D02*X344790Y-7250D01*
X351092Y-6500D02*X351842Y-7250D01*
X349592Y-6500D02*X351092D01*
X348842Y-7250D02*X349592Y-6500D01*
X348842Y-7250D02*Y-8750D01*
X349592Y-9500D01*
X351092D01*
X351842Y-8750D01*
X348842Y-11000D02*X349592Y-11750D01*
X351092D01*
X351842Y-11000D01*
Y-6500D02*Y-11000D01*
X353643Y-3500D02*Y-8750D01*
X354393Y-9500D01*
X356645D02*X358895D01*
X355895Y-8750D02*X356645Y-9500D01*
X355895Y-7250D02*Y-8750D01*
Y-7250D02*X356645Y-6500D01*
X358145D01*
X358895Y-7250D01*
X355895Y-8000D02*X358895D01*
Y-7250D02*Y-8000D01*
X363396Y-6500D02*X366396D01*
X370898Y-8750D02*X371648Y-9500D01*
X370898Y-4250D02*Y-8750D01*
Y-4250D02*X371648Y-3500D01*
X373148D01*
X373898Y-4250D01*
Y-8750D01*
X373148Y-9500D02*X373898Y-8750D01*
X371648Y-9500D02*X373148D01*
X370898Y-8000D02*X373898Y-5000D01*
X375699Y-11000D02*X377199Y-9500D01*
X379001Y-8750D02*X379751Y-9500D01*
X379001Y-4250D02*Y-8750D01*
Y-4250D02*X379751Y-3500D01*
X381251D01*
X382001Y-4250D01*
Y-8750D01*
X381251Y-9500D02*X382001Y-8750D01*
X379751Y-9500D02*X381251D01*
X379001Y-8000D02*X382001Y-5000D01*
X387252Y-3500D02*Y-8750D01*
X388002Y-9500D01*
X386502Y-5750D02*X388002D01*
X389504Y-7250D02*Y-8750D01*
Y-7250D02*X390254Y-6500D01*
X391754D01*
X392504Y-7250D01*
Y-8750D01*
X391754Y-9500D02*X392504Y-8750D01*
X390254Y-9500D02*X391754D01*
X389504Y-8750D02*X390254Y-9500D01*
X399255Y-3500D02*X400005Y-4250D01*
X397755Y-3500D02*X399255D01*
X397005Y-4250D02*X397755Y-3500D01*
X397005Y-4250D02*Y-8750D01*
X397755Y-9500D01*
X399255Y-6500D02*X400005Y-7250D01*
X397005Y-6500D02*X399255D01*
X397755Y-9500D02*X399255D01*
X400005Y-8750D01*
Y-7250D02*Y-8750D01*
X401807D02*X402557Y-9500D01*
X401807Y-4250D02*Y-8750D01*
Y-4250D02*X402557Y-3500D01*
X404057D01*
X404807Y-4250D01*
Y-8750D01*
X404057Y-9500D02*X404807Y-8750D01*
X402557Y-9500D02*X404057D01*
X401807Y-8000D02*X404807Y-5000D01*
X406608Y-8750D02*X407358Y-9500D01*
X406608Y-4250D02*Y-8750D01*
Y-4250D02*X407358Y-3500D01*
X408858D01*
X409608Y-4250D01*
Y-8750D01*
X408858Y-9500D02*X409608Y-8750D01*
X407358Y-9500D02*X408858D01*
X406608Y-8000D02*X409608Y-5000D01*
X411410Y-8750D02*X412160Y-9500D01*
X411410Y-4250D02*Y-8750D01*
Y-4250D02*X412160Y-3500D01*
X413660D01*
X414410Y-4250D01*
Y-8750D01*
X413660Y-9500D02*X414410Y-8750D01*
X412160Y-9500D02*X413660D01*
X411410Y-8000D02*X414410Y-5000D01*
X416211Y-11000D02*X417711Y-9500D01*
X419513Y-3500D02*X422513D01*
X419513D02*Y-6500D01*
X420263Y-5750D01*
X421763D01*
X422513Y-6500D01*
Y-8750D01*
X421763Y-9500D02*X422513Y-8750D01*
X420263Y-9500D02*X421763D01*
X419513Y-8750D02*X420263Y-9500D01*
X424314Y-8750D02*X425064Y-9500D01*
X424314Y-4250D02*Y-8750D01*
Y-4250D02*X425064Y-3500D01*
X426564D01*
X427314Y-4250D01*
Y-8750D01*
X426564Y-9500D02*X427314Y-8750D01*
X425064Y-9500D02*X426564D01*
X424314Y-8000D02*X427314Y-5000D01*
X429116Y-8750D02*X429866Y-9500D01*
X429116Y-4250D02*Y-8750D01*
Y-4250D02*X429866Y-3500D01*
X431366D01*
X432116Y-4250D01*
Y-8750D01*
X431366Y-9500D02*X432116Y-8750D01*
X429866Y-9500D02*X431366D01*
X429116Y-8000D02*X432116Y-5000D01*
X433917Y-8750D02*X434667Y-9500D01*
X433917Y-4250D02*Y-8750D01*
Y-4250D02*X434667Y-3500D01*
X436167D01*
X436917Y-4250D01*
Y-8750D01*
X436167Y-9500D02*X436917Y-8750D01*
X434667Y-9500D02*X436167D01*
X433917Y-8000D02*X436917Y-5000D01*
X442169Y-7250D02*Y-9500D01*
Y-7250D02*X442919Y-6500D01*
X443669D01*
X444419Y-7250D01*
Y-9500D01*
Y-7250D02*X445169Y-6500D01*
X445919D01*
X446669Y-7250D01*
Y-9500D01*
X441419Y-6500D02*X442169Y-7250D01*
X448470Y-5000D02*Y-5750D01*
Y-7250D02*Y-9500D01*
X449972Y-3500D02*Y-8750D01*
X450722Y-9500D01*
X452973D02*X455223D01*
X455973Y-8750D01*
X455223Y-8000D02*X455973Y-8750D01*
X452973Y-8000D02*X455223D01*
X452223Y-7250D02*X452973Y-8000D01*
X452223Y-7250D02*X452973Y-6500D01*
X455223D01*
X455973Y-7250D01*
X452223Y-8750D02*X452973Y-9500D01*
X200750Y528500D02*Y522500D01*
X203000Y528500D02*X203750Y527750D01*
Y523250D01*
X203000Y522500D02*X203750Y523250D01*
X200000Y522500D02*X203000D01*
X200000Y528500D02*X203000D01*
X207801Y525500D02*X208551Y524750D01*
X206301Y525500D02*X207801D01*
X205551Y524750D02*X206301Y525500D01*
X205551Y524750D02*Y523250D01*
X206301Y522500D01*
X208551Y525500D02*Y523250D01*
X209301Y522500D01*
X206301D02*X207801D01*
X208551Y523250D01*
X211853Y528500D02*Y523250D01*
X212603Y522500D01*
X211103Y526250D02*X212603D01*
X214854Y522500D02*X217104D01*
X214104Y523250D02*X214854Y522500D01*
X214104Y524750D02*Y523250D01*
Y524750D02*X214854Y525500D01*
X216354D01*
X217104Y524750D01*
X214104Y524000D02*X217104D01*
Y524750D02*Y524000D01*
X218906Y526250D02*X219656D01*
X218906Y524750D02*X219656D01*
X227157Y528500D02*X227907Y527750D01*
X224907Y528500D02*X227157D01*
X224157Y527750D02*X224907Y528500D01*
X224157Y527750D02*Y526250D01*
X224907Y525500D01*
X227157D01*
X227907Y524750D01*
Y523250D01*
X227157Y522500D02*X227907Y523250D01*
X224907Y522500D02*X227157D01*
X224157Y523250D02*X224907Y522500D01*
X229709Y525500D02*Y523250D01*
X230459Y522500D01*
X231959D01*
X232709Y523250D01*
Y525500D02*Y523250D01*
X235260Y524750D02*Y522500D01*
Y524750D02*X236010Y525500D01*
X236760D01*
X237510Y524750D01*
Y522500D01*
X234510Y525500D02*X235260Y524750D01*
X242762Y522500D02*X244262D01*
X243512Y528500D02*Y522500D01*
X242012Y527000D02*X243512Y528500D01*
X246063Y527750D02*X246813Y528500D01*
X248313D01*
X249063Y527750D01*
Y523250D01*
X248313Y522500D02*X249063Y523250D01*
X246813Y522500D02*X248313D01*
X246063Y523250D02*X246813Y522500D01*
Y525500D02*X249063D01*
X253565Y528500D02*Y522500D01*
Y528500D02*X255815Y526250D01*
X258065Y528500D01*
Y522500D01*
X262116Y525500D02*X262866Y524750D01*
X260616Y525500D02*X262116D01*
X259866Y524750D02*X260616Y525500D01*
X259866Y524750D02*Y523250D01*
X260616Y522500D01*
X262866Y525500D02*Y523250D01*
X263616Y522500D01*
X260616D02*X262116D01*
X262866Y523250D01*
X266168Y524750D02*Y522500D01*
Y524750D02*X266918Y525500D01*
X268418D01*
X265418D02*X266168Y524750D01*
X272919Y527750D02*X273669Y528500D01*
X275919D01*
X276669Y527750D01*
Y526250D01*
X272919Y522500D02*X276669Y526250D01*
X272919Y522500D02*X276669D01*
X278471Y523250D02*X279221Y522500D01*
X278471Y527750D02*Y523250D01*
Y527750D02*X279221Y528500D01*
X280721D01*
X281471Y527750D01*
Y523250D01*
X280721Y522500D02*X281471Y523250D01*
X279221Y522500D02*X280721D01*
X278471Y524000D02*X281471Y527000D01*
X284022Y522500D02*X285522D01*
X284772Y528500D02*Y522500D01*
X283272Y527000D02*X284772Y528500D01*
X288074Y522500D02*X289574D01*
X288824Y528500D02*Y522500D01*
X287324Y527000D02*X288824Y528500D01*
X294075Y523250D02*X294825Y522500D01*
X294075Y527750D02*Y523250D01*
Y527750D02*X294825Y528500D01*
X296325D01*
X297075Y527750D01*
Y523250D01*
X296325Y522500D02*X297075Y523250D01*
X294825Y522500D02*X296325D01*
X294075Y524000D02*X297075Y527000D01*
X298877Y522500D02*X301877Y525500D01*
Y527750D02*Y525500D01*
X301127Y528500D02*X301877Y527750D01*
X299627Y528500D02*X301127D01*
X298877Y527750D02*X299627Y528500D01*
X298877Y527750D02*Y526250D01*
X299627Y525500D01*
X301877D01*
X303678Y526250D02*X304428D01*
X303678Y524750D02*X304428D01*
X306230Y525500D02*X309230Y528500D01*
X306230Y525500D02*X309980D01*
X309230Y528500D02*Y522500D01*
X311781Y527750D02*X312531Y528500D01*
X314031D01*
X314781Y527750D01*
Y523250D01*
X314031Y522500D02*X314781Y523250D01*
X312531Y522500D02*X314031D01*
X311781Y523250D02*X312531Y522500D01*
Y525500D02*X314781D01*
X316583Y526250D02*X317333D01*
X316583Y524750D02*X317333D01*
X319134Y527750D02*X319884Y528500D01*
X322134D01*
X322884Y527750D01*
Y526250D01*
X319134Y522500D02*X322884Y526250D01*
X319134Y522500D02*X322884D01*
X324686Y527750D02*X325436Y528500D01*
X327686D01*
X328436Y527750D01*
Y526250D01*
X324686Y522500D02*X328436Y526250D01*
X324686Y522500D02*X328436D01*
X332937Y527750D02*Y522500D01*
Y527750D02*X333687Y528500D01*
X335937D01*
X336687Y527750D01*
Y522500D01*
X332937Y525500D02*X336687D01*
X338489Y528500D02*Y522500D01*
Y528500D02*X340739Y526250D01*
X342989Y528500D01*
Y522500D01*
X350490Y528500D02*X351240Y527750D01*
X348240Y528500D02*X350490D01*
X347490Y527750D02*X348240Y528500D01*
X347490Y527750D02*Y523250D01*
X348240Y522500D01*
X350490D01*
X351240Y523250D01*
Y524750D02*Y523250D01*
X350490Y525500D02*X351240Y524750D01*
X348990Y525500D02*X350490D01*
X353042Y528500D02*Y522500D01*
Y528500D02*X355292Y526250D01*
X357542Y528500D01*
Y522500D01*
X359343Y528500D02*X362343D01*
X360843D02*Y522500D01*
X366845Y528500D02*Y523250D01*
X367595Y522500D01*
X369095D01*
X369845Y523250D01*
Y528500D02*Y523250D01*
X371646Y528500D02*X374646D01*
X373146D02*Y522500D01*
X377198D02*X379448D01*
X376448Y523250D02*X377198Y522500D01*
X376448Y527750D02*Y523250D01*
Y527750D02*X377198Y528500D01*
X379448D01*
X200000Y542750D02*Y537500D01*
Y542750D02*X200750Y543500D01*
X203000D01*
X203750Y542750D01*
Y537500D01*
X200000Y540500D02*X203750D01*
X205551D02*Y538250D01*
X206301Y537500D01*
X207801D01*
X208551Y538250D01*
Y540500D02*Y538250D01*
X211103Y543500D02*Y538250D01*
X211853Y537500D01*
X210353Y541250D02*X211853D01*
X213354Y543500D02*Y537500D01*
Y539750D02*X214104Y540500D01*
X215604D01*
X216354Y539750D01*
Y537500D01*
X218156Y539750D02*Y538250D01*
Y539750D02*X218906Y540500D01*
X220406D01*
X221156Y539750D01*
Y538250D01*
X220406Y537500D02*X221156Y538250D01*
X218906Y537500D02*X220406D01*
X218156Y538250D02*X218906Y537500D01*
X223707Y539750D02*Y537500D01*
Y539750D02*X224457Y540500D01*
X225957D01*
X222957D02*X223707Y539750D01*
X227759Y541250D02*X228509D01*
X227759Y539750D02*X228509D01*
X236010Y543500D02*X236760Y542750D01*
X233760Y543500D02*X236010D01*
X233010Y542750D02*X233760Y543500D01*
X233010Y542750D02*Y538250D01*
X233760Y537500D01*
X236010D01*
X236760Y538250D01*
Y539750D02*Y538250D01*
X236010Y540500D02*X236760Y539750D01*
X234510Y540500D02*X236010D01*
X240812D02*X241562Y539750D01*
X239312Y540500D02*X240812D01*
X238562Y539750D02*X239312Y540500D01*
X238562Y539750D02*Y538250D01*
X239312Y537500D01*
X241562Y540500D02*Y538250D01*
X242312Y537500D01*
X239312D02*X240812D01*
X241562Y538250D01*
X244113Y540500D02*Y539000D01*
X245613Y537500D01*
X247113Y539000D01*
Y540500D02*Y539000D01*
X248915Y542000D02*Y541250D01*
Y539750D02*Y537500D01*
X251166Y539750D02*Y537500D01*
Y539750D02*X251916Y540500D01*
X252666D01*
X253416Y539750D01*
Y537500D01*
X250416Y540500D02*X251166Y539750D01*
X257918Y543500D02*Y537500D01*
X261668Y543500D02*Y537500D01*
X257918Y540500D02*X261668D01*
X263469D02*Y538250D01*
X264219Y537500D01*
X265719D01*
X266469Y538250D01*
Y540500D02*Y538250D01*
X269021Y539750D02*Y537500D01*
Y539750D02*X269771Y540500D01*
X271271D01*
X268271D02*X269021Y539750D01*
X273072Y543500D02*Y538250D01*
X273822Y537500D01*
X275324Y543500D02*Y537500D01*
Y538250D02*X276074Y537500D01*
X277574D01*
X278324Y538250D01*
Y539750D02*Y538250D01*
X277574Y540500D02*X278324Y539750D01*
X276074Y540500D02*X277574D01*
X275324Y539750D02*X276074Y540500D01*
X280125D02*Y538250D01*
X280875Y537500D01*
X282375D01*
X283125Y538250D01*
Y540500D02*Y538250D01*
X285677Y543500D02*Y538250D01*
X286427Y537500D01*
X284927Y541250D02*X286427D01*
X200000Y558500D02*X203000D01*
X201500D02*Y552500D01*
X204801Y557000D02*Y556250D01*
Y554750D02*Y552500D01*
X207053Y558500D02*Y553250D01*
X207803Y552500D01*
X206303Y556250D02*X207803D01*
X209304Y558500D02*Y553250D01*
X210054Y552500D01*
X212306D02*X214556D01*
X211556Y553250D02*X212306Y552500D01*
X211556Y554750D02*Y553250D01*
Y554750D02*X212306Y555500D01*
X213806D01*
X214556Y554750D01*
X211556Y554000D02*X214556D01*
Y554750D02*Y554000D01*
X216357Y556250D02*X217107D01*
X216357Y554750D02*X217107D01*
X221609Y553250D02*X222359Y552500D01*
X221609Y557750D02*X222359Y558500D01*
X221609Y557750D02*Y553250D01*
X224160Y555500D02*Y553250D01*
X224910Y552500D01*
X226410D01*
X227160Y553250D01*
Y555500D02*Y553250D01*
X229712Y554750D02*Y552500D01*
Y554750D02*X230462Y555500D01*
X231212D01*
X231962Y554750D01*
Y552500D01*
X228962Y555500D02*X229712Y554750D01*
X233763Y558500D02*Y552500D01*
Y554750D02*X236013Y552500D01*
X233763Y554750D02*X235263Y556250D01*
X238565Y554750D02*Y552500D01*
Y554750D02*X239315Y555500D01*
X240065D01*
X240815Y554750D01*
Y552500D01*
X237815Y555500D02*X238565Y554750D01*
X242616D02*Y553250D01*
Y554750D02*X243366Y555500D01*
X244866D01*
X245616Y554750D01*
Y553250D01*
X244866Y552500D02*X245616Y553250D01*
X243366Y552500D02*X244866D01*
X242616Y553250D02*X243366Y552500D01*
X247418Y555500D02*Y553250D01*
X248168Y552500D01*
X248918D01*
X249668Y553250D01*
Y555500D02*Y553250D01*
X250418Y552500D01*
X251168D01*
X251918Y553250D01*
Y555500D02*Y553250D01*
X254469Y554750D02*Y552500D01*
Y554750D02*X255219Y555500D01*
X255969D01*
X256719Y554750D01*
Y552500D01*
X253719Y555500D02*X254469Y554750D01*
X258521Y558500D02*X259271Y557750D01*
Y553250D01*
X258521Y552500D02*X259271Y553250D01*
X263772Y555500D02*X266772D01*
X271274Y558500D02*Y552500D01*
Y558500D02*X274274D01*
X271274Y555500D02*X273524D01*
X278325D02*X279075Y554750D01*
X276825Y555500D02*X278325D01*
X276075Y554750D02*X276825Y555500D01*
X276075Y554750D02*Y553250D01*
X276825Y552500D01*
X279075Y555500D02*Y553250D01*
X279825Y552500D01*
X276825D02*X278325D01*
X279075Y553250D01*
X281627Y558500D02*Y552500D01*
Y553250D02*X282377Y552500D01*
X283877D01*
X284627Y553250D01*
Y554750D02*Y553250D01*
X283877Y555500D02*X284627Y554750D01*
X282377Y555500D02*X283877D01*
X281627Y554750D02*X282377Y555500D01*
X287178Y554750D02*Y552500D01*
Y554750D02*X287928Y555500D01*
X289428D01*
X286428D02*X287178Y554750D01*
X291230Y557000D02*Y556250D01*
Y554750D02*Y552500D01*
X293481Y555500D02*X295731D01*
X292731Y554750D02*X293481Y555500D01*
X292731Y554750D02*Y553250D01*
X293481Y552500D01*
X295731D01*
X299783Y555500D02*X300533Y554750D01*
X298283Y555500D02*X299783D01*
X297533Y554750D02*X298283Y555500D01*
X297533Y554750D02*Y553250D01*
X298283Y552500D01*
X300533Y555500D02*Y553250D01*
X301283Y552500D01*
X298283D02*X299783D01*
X300533Y553250D01*
X303834Y558500D02*Y553250D01*
X304584Y552500D01*
X303084Y556250D02*X304584D01*
X306086Y557000D02*Y556250D01*
Y554750D02*Y552500D01*
X307587Y554750D02*Y553250D01*
Y554750D02*X308337Y555500D01*
X309837D01*
X310587Y554750D01*
Y553250D01*
X309837Y552500D02*X310587Y553250D01*
X308337Y552500D02*X309837D01*
X307587Y553250D02*X308337Y552500D01*
X313139Y554750D02*Y552500D01*
Y554750D02*X313889Y555500D01*
X314639D01*
X315389Y554750D01*
Y552500D01*
X312389Y555500D02*X313139Y554750D01*
X320640Y558500D02*Y552500D01*
X322890Y558500D02*X323640Y557750D01*
Y553250D01*
X322890Y552500D02*X323640Y553250D01*
X319890Y552500D02*X322890D01*
X319890Y558500D02*X322890D01*
X326192Y554750D02*Y552500D01*
Y554750D02*X326942Y555500D01*
X328442D01*
X325442D02*X326192Y554750D01*
X332493Y555500D02*X333243Y554750D01*
X330993Y555500D02*X332493D01*
X330243Y554750D02*X330993Y555500D01*
X330243Y554750D02*Y553250D01*
X330993Y552500D01*
X333243Y555500D02*Y553250D01*
X333993Y552500D01*
X330993D02*X332493D01*
X333243Y553250D01*
X335795Y555500D02*Y553250D01*
X336545Y552500D01*
X337295D01*
X338045Y553250D01*
Y555500D02*Y553250D01*
X338795Y552500D01*
X339545D01*
X340295Y553250D01*
Y555500D02*Y553250D01*
X342096Y557000D02*Y556250D01*
Y554750D02*Y552500D01*
X344348Y554750D02*Y552500D01*
Y554750D02*X345098Y555500D01*
X345848D01*
X346598Y554750D01*
Y552500D01*
X343598Y555500D02*X344348Y554750D01*
X350649Y555500D02*X351399Y554750D01*
X349149Y555500D02*X350649D01*
X348399Y554750D02*X349149Y555500D01*
X348399Y554750D02*Y553250D01*
X349149Y552500D01*
X350649D01*
X351399Y553250D01*
X348399Y551000D02*X349149Y550250D01*
X350649D01*
X351399Y551000D01*
Y555500D02*Y551000D01*
M02*
