G04 start of page 5 for group -4062 idx -4062 *
G04 Title: (unknown), soldermask *
G04 Creator: pcb 20091103 *
G04 CreationDate: Sun 13 Mar 2011 09:43:22 AM GMT UTC *
G04 For: gjhurlbu *
G04 Format: Gerber/RS-274X *
G04 PCB-Dimensions: 600000 500000 *
G04 PCB-Coordinate-Origin: lower left *
%MOIN*%
%FSLAX25Y25*%
%LNBACKMASK*%
%ADD20C,0.0620*%
%ADD21C,0.1210*%
%ADD22R,0.0300X0.0300*%
%ADD23R,0.0650X0.0650*%
%ADD24R,0.0210X0.0210*%
G54D20*X59254Y398422D03*
Y388622D03*
X69554Y406322D03*
Y398422D03*
Y388622D03*
X59254Y416122D03*
Y406322D03*
X69554Y416122D03*
G54D21*X70954Y428222D03*
X48554D03*
X70954Y376522D03*
X48554D03*
G54D22*X100000Y419000D02*Y412500D01*
X90000Y398500D02*Y392000D01*
X85000Y398500D02*Y392000D01*
Y419000D02*Y412500D01*
X90000Y419000D02*Y412500D01*
X95000Y419000D02*Y412500D01*
X100000Y398500D02*Y392000D01*
X95000Y398500D02*Y392000D01*
G54D23*X83000Y449774D02*X83394D01*
X83000Y441900D02*X83394D01*
G54D24*X64000D02*X66000D01*
X64000Y444500D02*X66000D01*
X64000Y447000D02*X66000D01*
X71000D02*X73000D01*
X71000Y444500D02*X73000D01*
X71000Y441900D02*X73000D01*
M02*
