G04 start of page 5 for group -4062 idx -4062 *
G04 Title: (unknown), soldermask *
G04 Creator: pcb 20091103 *
G04 CreationDate: Mon 21 Mar 2011 07:49:43 AM GMT UTC *
G04 For: gjhurlbu *
G04 Format: Gerber/RS-274X *
G04 PCB-Dimensions: 600000 500000 *
G04 PCB-Coordinate-Origin: lower left *
%MOIN*%
%FSLAX25Y25*%
%LNBACKMASK*%
%ADD12C,0.0200*%
%ADD19C,0.0660*%
%ADD23R,0.0300X0.0300*%
G54D12*G36*
X38700Y417300D02*Y410700D01*
X45300D01*
Y417300D01*
X38700D01*
G37*
G36*
Y305300D02*Y298700D01*
X45300D01*
Y305300D01*
X38700D01*
G37*
G54D19*X52000Y414000D03*
Y302000D03*
X62000Y414000D03*
Y302000D03*
X72000Y414000D03*
Y302000D03*
X82000D03*
X92000D03*
X102000D03*
X112000D03*
X82000Y414000D03*
X92000D03*
X102000D03*
X112000D03*
G54D12*G36*
X188700Y385300D02*Y378700D01*
X195300D01*
Y385300D01*
X188700D01*
G37*
G54D19*X192000Y372000D03*
Y362000D03*
Y352000D03*
Y342000D03*
Y332000D03*
G54D12*G36*
X158700Y320300D02*Y313700D01*
X165300D01*
Y320300D01*
X158700D01*
G37*
G54D19*X172000Y317000D03*
X182000D03*
X192000D03*
G54D12*G36*
X158700Y401300D02*Y394700D01*
X165300D01*
Y401300D01*
X158700D01*
G37*
G54D19*X172000Y398000D03*
X182000D03*
X192000D03*
G54D23*X173500Y357500D02*Y351000D01*
X168500Y357500D02*Y351000D01*
X163500Y357500D02*Y351000D01*
X158500Y357500D02*Y351000D01*
X153500Y357500D02*Y351000D01*
X138500Y378000D02*Y371500D01*
Y357500D02*Y351000D01*
X143500Y378000D02*Y371500D01*
Y357500D02*Y351000D01*
X148500Y378000D02*Y371500D01*
Y357500D02*Y351000D01*
X153500Y378000D02*Y371500D01*
X158500Y378000D02*Y371500D01*
X163500Y378000D02*Y371500D01*
X168500Y378000D02*Y371500D01*
X173500Y378000D02*Y371500D01*
M02*
