G04 start of page 3 for group 1 idx 1 *
G04 Title: (unknown), solder *
G04 Creator: pcb 20091103 *
G04 CreationDate: Mon 21 Mar 2011 07:49:43 AM GMT UTC *
G04 For: gjhurlbu *
G04 Format: Gerber/RS-274X *
G04 PCB-Dimensions: 600000 500000 *
G04 PCB-Coordinate-Origin: lower left *
%MOIN*%
%FSLAX25Y25*%
%LNBACK*%
%ADD11C,0.0100*%
%ADD12C,0.0200*%
%ADD13C,0.0600*%
%ADD14C,0.0360*%
%ADD17R,0.0200X0.0200*%
%ADD18C,0.0380*%
G54D12*G36*
X169350Y366529D02*X170269Y365610D01*
X170242Y365487D01*
X170210Y365245D01*
X170200Y365001D01*
X170210Y364756D01*
X170242Y364514D01*
X170269Y364391D01*
X169350Y363472D01*
Y366529D01*
G37*
G36*
X188387Y306003D02*X188575Y305600D01*
X188855Y305200D01*
X189200Y304855D01*
X189600Y304575D01*
X190042Y304369D01*
X190514Y304243D01*
X191000Y304200D01*
X191486Y304243D01*
X191958Y304369D01*
X192400Y304575D01*
X192800Y304855D01*
X193145Y305200D01*
X193425Y305600D01*
X193631Y306042D01*
X193757Y306514D01*
X193769Y306649D01*
X199000Y311880D01*
Y295000D01*
X188387D01*
Y306003D01*
G37*
G36*
X192000Y337500D02*X192781Y337568D01*
X193539Y337771D01*
X194250Y338103D01*
X194893Y338553D01*
X195447Y339107D01*
X195897Y339750D01*
X196229Y340461D01*
X196432Y341219D01*
X196500Y342000D01*
Y332000D01*
X196479Y332432D01*
X196417Y332859D01*
X196314Y333279D01*
X196172Y333686D01*
X196171D01*
X196112Y333802D01*
X196033Y333907D01*
X195937Y333996D01*
X195828Y334067D01*
X195707Y334118D01*
X195580Y334147D01*
X195450Y334154D01*
X195320Y334138D01*
X195195Y334100D01*
X195079Y334041D01*
X194974Y333962D01*
X194885Y333866D01*
X194814Y333757D01*
X194763Y333636D01*
X194734Y333509D01*
X194727Y333379D01*
X194743Y333249D01*
X194781Y333124D01*
X194876Y332853D01*
X194944Y332573D01*
X194986Y332288D01*
X195000Y332000D01*
X194986Y331713D01*
X194944Y331428D01*
X194876Y331148D01*
X194781Y330877D01*
X194780D01*
X194742Y330752D01*
X194726Y330622D01*
X194733Y330491D01*
X194762Y330364D01*
X194813Y330243D01*
X194885Y330134D01*
X194974Y330038D01*
X195078Y329959D01*
X195195Y329900D01*
X195320Y329862D01*
X195450Y329846D01*
X195581Y329853D01*
X195708Y329882D01*
X195829Y329933D01*
X195938Y330005D01*
X196034Y330094D01*
X196113Y330198D01*
X196172Y330315D01*
X196314Y330722D01*
X196417Y331142D01*
X196479Y331569D01*
X196500Y332000D01*
Y317000D01*
X196479Y317432D01*
X196417Y317859D01*
X196314Y318279D01*
X196172Y318686D01*
X196171D01*
X196112Y318802D01*
X196033Y318907D01*
X195937Y318996D01*
X195828Y319067D01*
X195707Y319118D01*
X195580Y319147D01*
X195450Y319154D01*
X195320Y319138D01*
X195195Y319100D01*
X195079Y319041D01*
X194974Y318962D01*
X194885Y318866D01*
X194814Y318757D01*
X194763Y318636D01*
X194734Y318509D01*
X194727Y318379D01*
X194743Y318249D01*
X194781Y318124D01*
X194876Y317853D01*
X194944Y317573D01*
X194986Y317288D01*
X195000Y317000D01*
X194986Y316713D01*
X194944Y316428D01*
X194876Y316148D01*
X194781Y315877D01*
X194780D01*
X194742Y315752D01*
X194726Y315622D01*
X194733Y315491D01*
X194762Y315364D01*
X194813Y315243D01*
X194885Y315134D01*
X194974Y315038D01*
X195078Y314959D01*
X195195Y314900D01*
X195320Y314862D01*
X195450Y314846D01*
X195581Y314853D01*
X195708Y314882D01*
X195829Y314933D01*
X195938Y315005D01*
X196034Y315094D01*
X196113Y315198D01*
X196172Y315315D01*
X196314Y315722D01*
X196417Y316142D01*
X196479Y316569D01*
X196500Y317000D01*
Y313622D01*
X192334Y309456D01*
X192000Y309611D01*
Y312500D01*
X192431Y312521D01*
X192858Y312583D01*
X193278Y312686D01*
X193685Y312828D01*
Y312829D01*
X193801Y312888D01*
X193906Y312967D01*
X193995Y313063D01*
X194066Y313172D01*
X194117Y313293D01*
X194146Y313420D01*
X194153Y313550D01*
X194137Y313680D01*
X194099Y313805D01*
X194040Y313921D01*
X193961Y314026D01*
X193865Y314115D01*
X193756Y314186D01*
X193635Y314237D01*
X193508Y314266D01*
X193378Y314273D01*
X193248Y314257D01*
X193123Y314219D01*
X192852Y314124D01*
X192572Y314056D01*
X192287Y314014D01*
X192000Y314000D01*
Y320000D01*
X192287Y319987D01*
X192572Y319945D01*
X192852Y319877D01*
X193123Y319782D01*
Y319781D01*
X193248Y319743D01*
X193378Y319727D01*
X193509Y319734D01*
X193636Y319763D01*
X193757Y319814D01*
X193866Y319886D01*
X193962Y319975D01*
X194041Y320079D01*
X194100Y320196D01*
X194138Y320321D01*
X194154Y320451D01*
X194147Y320582D01*
X194118Y320709D01*
X194067Y320830D01*
X193995Y320939D01*
X193906Y321035D01*
X193802Y321114D01*
X193685Y321173D01*
X193278Y321315D01*
X192858Y321418D01*
X192431Y321480D01*
X192000Y321500D01*
Y327500D01*
X192431Y327521D01*
X192858Y327583D01*
X193278Y327686D01*
X193685Y327828D01*
Y327829D01*
X193801Y327888D01*
X193906Y327967D01*
X193995Y328063D01*
X194066Y328172D01*
X194117Y328293D01*
X194146Y328420D01*
X194153Y328550D01*
X194137Y328680D01*
X194099Y328805D01*
X194040Y328921D01*
X193961Y329026D01*
X193865Y329115D01*
X193756Y329186D01*
X193635Y329237D01*
X193508Y329266D01*
X193378Y329273D01*
X193248Y329257D01*
X193123Y329219D01*
X192852Y329124D01*
X192572Y329056D01*
X192287Y329014D01*
X192000Y329000D01*
Y335000D01*
X192287Y334987D01*
X192572Y334945D01*
X192852Y334877D01*
X193123Y334782D01*
Y334781D01*
X193248Y334743D01*
X193378Y334727D01*
X193509Y334734D01*
X193636Y334763D01*
X193757Y334814D01*
X193866Y334886D01*
X193962Y334975D01*
X194041Y335079D01*
X194100Y335196D01*
X194138Y335321D01*
X194154Y335451D01*
X194147Y335582D01*
X194118Y335709D01*
X194067Y335830D01*
X193995Y335939D01*
X193906Y336035D01*
X193802Y336114D01*
X193685Y336173D01*
X193278Y336315D01*
X192858Y336418D01*
X192431Y336480D01*
X192000Y336500D01*
Y337500D01*
G37*
G36*
X188387Y339344D02*X188553Y339107D01*
X189107Y338553D01*
X189750Y338103D01*
X190461Y337771D01*
X191219Y337568D01*
X192000Y337500D01*
Y336500D01*
X191568Y336480D01*
X191141Y336418D01*
X190721Y336315D01*
X190314Y336173D01*
Y336172D01*
X190198Y336113D01*
X190093Y336034D01*
X190004Y335938D01*
X189933Y335829D01*
X189882Y335708D01*
X189853Y335581D01*
X189846Y335451D01*
X189862Y335321D01*
X189900Y335196D01*
X189959Y335080D01*
X190038Y334975D01*
X190134Y334886D01*
X190243Y334815D01*
X190364Y334764D01*
X190491Y334735D01*
X190621Y334728D01*
X190751Y334744D01*
X190876Y334782D01*
X191147Y334877D01*
X191427Y334945D01*
X191712Y334987D01*
X192000Y335000D01*
Y329000D01*
X191999D01*
X191712Y329014D01*
X191427Y329056D01*
X191147Y329124D01*
X190876Y329219D01*
Y329220D01*
X190751Y329258D01*
X190621Y329274D01*
X190490Y329267D01*
X190363Y329238D01*
X190242Y329187D01*
X190133Y329115D01*
X190037Y329026D01*
X189958Y328922D01*
X189899Y328805D01*
X189861Y328680D01*
X189845Y328550D01*
X189852Y328419D01*
X189881Y328292D01*
X189932Y328171D01*
X190004Y328062D01*
X190093Y327966D01*
X190197Y327887D01*
X190314Y327828D01*
X190721Y327686D01*
X191141Y327583D01*
X191568Y327521D01*
X191999Y327500D01*
X192000D01*
Y321500D01*
X191568Y321480D01*
X191141Y321418D01*
X190721Y321315D01*
X190314Y321173D01*
Y321172D01*
X190198Y321113D01*
X190093Y321034D01*
X190004Y320938D01*
X189933Y320829D01*
X189882Y320708D01*
X189853Y320581D01*
X189846Y320451D01*
X189862Y320321D01*
X189900Y320196D01*
X189959Y320080D01*
X190038Y319975D01*
X190134Y319886D01*
X190243Y319815D01*
X190364Y319764D01*
X190491Y319735D01*
X190621Y319728D01*
X190751Y319744D01*
X190876Y319782D01*
X191147Y319877D01*
X191427Y319945D01*
X191712Y319987D01*
X192000Y320000D01*
Y314000D01*
X191999D01*
X191712Y314014D01*
X191427Y314056D01*
X191147Y314124D01*
X190876Y314219D01*
Y314220D01*
X190751Y314258D01*
X190621Y314274D01*
X190490Y314267D01*
X190363Y314238D01*
X190242Y314187D01*
X190133Y314115D01*
X190037Y314026D01*
X189958Y313922D01*
X189899Y313805D01*
X189861Y313680D01*
X189845Y313550D01*
X189852Y313419D01*
X189881Y313292D01*
X189932Y313171D01*
X190004Y313062D01*
X190093Y312966D01*
X190197Y312887D01*
X190314Y312828D01*
X190721Y312686D01*
X191141Y312583D01*
X191568Y312521D01*
X191999Y312500D01*
X192000D01*
Y309611D01*
X191958Y309631D01*
X191486Y309757D01*
X191000Y309800D01*
X190514Y309757D01*
X190042Y309631D01*
X189600Y309425D01*
X189200Y309145D01*
X188855Y308800D01*
X188575Y308400D01*
X188387Y307997D01*
Y314861D01*
X188419Y314854D01*
X188549Y314847D01*
X188679Y314863D01*
X188804Y314901D01*
X188920Y314960D01*
X189025Y315039D01*
X189114Y315135D01*
X189185Y315244D01*
X189236Y315365D01*
X189265Y315492D01*
X189272Y315622D01*
X189256Y315752D01*
X189218Y315877D01*
X189123Y316148D01*
X189055Y316428D01*
X189013Y316713D01*
X189000Y317001D01*
X189013Y317288D01*
X189055Y317573D01*
X189123Y317853D01*
X189218Y318124D01*
X189219D01*
X189257Y318249D01*
X189273Y318379D01*
X189266Y318510D01*
X189237Y318637D01*
X189186Y318758D01*
X189114Y318867D01*
X189025Y318963D01*
X188921Y319042D01*
X188804Y319101D01*
X188679Y319139D01*
X188549Y319155D01*
X188418Y319148D01*
X188387Y319141D01*
Y329861D01*
X188419Y329854D01*
X188549Y329847D01*
X188679Y329863D01*
X188804Y329901D01*
X188920Y329960D01*
X189025Y330039D01*
X189114Y330135D01*
X189185Y330244D01*
X189236Y330365D01*
X189265Y330492D01*
X189272Y330622D01*
X189256Y330752D01*
X189218Y330877D01*
X189123Y331148D01*
X189055Y331428D01*
X189013Y331713D01*
X189000Y332001D01*
X189013Y332288D01*
X189055Y332573D01*
X189123Y332853D01*
X189218Y333124D01*
X189219D01*
X189257Y333249D01*
X189273Y333379D01*
X189266Y333510D01*
X189237Y333637D01*
X189186Y333758D01*
X189114Y333867D01*
X189025Y333963D01*
X188921Y334042D01*
X188804Y334101D01*
X188679Y334139D01*
X188549Y334155D01*
X188418Y334148D01*
X188387Y334141D01*
Y339344D01*
G37*
G36*
Y349344D02*X188553Y349107D01*
X189107Y348553D01*
X189750Y348103D01*
X190461Y347771D01*
X191219Y347568D01*
X192000Y347500D01*
X192781Y347568D01*
X193539Y347771D01*
X194250Y348103D01*
X194893Y348553D01*
X195447Y349107D01*
X195897Y349750D01*
X196229Y350461D01*
X196432Y351219D01*
X196500Y352000D01*
Y342000D01*
X196432Y342781D01*
X196229Y343539D01*
X195897Y344250D01*
X195447Y344893D01*
X194893Y345447D01*
X194250Y345897D01*
X193539Y346229D01*
X192781Y346432D01*
X192000Y346500D01*
X191219Y346432D01*
X190461Y346229D01*
X189750Y345897D01*
X189107Y345447D01*
X188553Y344893D01*
X188387Y344656D01*
Y349344D01*
G37*
G36*
Y359344D02*X188553Y359107D01*
X189107Y358553D01*
X189750Y358103D01*
X190461Y357771D01*
X191219Y357568D01*
X192000Y357500D01*
X192781Y357568D01*
X193539Y357771D01*
X194250Y358103D01*
X194893Y358553D01*
X195447Y359107D01*
X195897Y359750D01*
X196229Y360461D01*
X196432Y361219D01*
X196500Y362000D01*
Y352000D01*
X196432Y352781D01*
X196229Y353539D01*
X195897Y354250D01*
X195447Y354893D01*
X194893Y355447D01*
X194250Y355897D01*
X193539Y356229D01*
X192781Y356432D01*
X192000Y356500D01*
X191219Y356432D01*
X190461Y356229D01*
X189750Y355897D01*
X189107Y355447D01*
X188553Y354893D01*
X188387Y354656D01*
Y359344D01*
G37*
G36*
Y369344D02*X188553Y369107D01*
X189107Y368553D01*
X189750Y368103D01*
X190461Y367771D01*
X191219Y367568D01*
X192000Y367500D01*
X192781Y367568D01*
X193539Y367771D01*
X194250Y368103D01*
X194893Y368553D01*
X195447Y369107D01*
X195897Y369750D01*
X196229Y370461D01*
X196432Y371219D01*
X196500Y372000D01*
Y362000D01*
X196432Y362781D01*
X196229Y363539D01*
X195897Y364250D01*
X195447Y364893D01*
X194893Y365447D01*
X194250Y365897D01*
X193539Y366229D01*
X192781Y366432D01*
X192000Y366500D01*
X191219Y366432D01*
X190461Y366229D01*
X189750Y365897D01*
X189107Y365447D01*
X188553Y364893D01*
X188387Y364656D01*
Y369344D01*
G37*
G36*
Y377637D02*X188487Y377590D01*
X188740Y377523D01*
X189000Y377500D01*
X195000D01*
X195260Y377523D01*
X195513Y377590D01*
X195750Y377701D01*
X195964Y377851D01*
X196149Y378036D01*
X196299Y378250D01*
X196410Y378487D01*
X196477Y378740D01*
X196500Y379000D01*
Y372000D01*
X196432Y372781D01*
X196229Y373539D01*
X195897Y374250D01*
X195447Y374893D01*
X194893Y375447D01*
X194250Y375897D01*
X193539Y376229D01*
X192781Y376432D01*
X192000Y376500D01*
X191219Y376432D01*
X190461Y376229D01*
X189750Y375897D01*
X189107Y375447D01*
X188553Y374893D01*
X188387Y374656D01*
Y377637D01*
G37*
G36*
X175231Y380500D02*X187500D01*
Y379000D01*
X187523Y378740D01*
X187590Y378487D01*
X187701Y378250D01*
X187851Y378036D01*
X188036Y377851D01*
X188250Y377701D01*
X188387Y377637D01*
Y374656D01*
X188103Y374250D01*
X187771Y373539D01*
X187568Y372781D01*
X187500Y372000D01*
X187568Y371219D01*
X187771Y370461D01*
X188103Y369750D01*
X188387Y369344D01*
Y364656D01*
X188103Y364250D01*
X187771Y363539D01*
X187568Y362781D01*
X187500Y362000D01*
X187568Y361219D01*
X187771Y360461D01*
X188103Y359750D01*
X188387Y359344D01*
Y354656D01*
X188103Y354250D01*
X187771Y353539D01*
X187568Y352781D01*
X187500Y352000D01*
X187568Y351219D01*
X187771Y350461D01*
X188103Y349750D01*
X188387Y349344D01*
Y344656D01*
X188103Y344250D01*
X187771Y343539D01*
X187568Y342781D01*
X187500Y342000D01*
X187568Y341219D01*
X187771Y340461D01*
X188103Y339750D01*
X188387Y339344D01*
Y334141D01*
X188291Y334119D01*
X188170Y334068D01*
X188061Y333996D01*
X187965Y333907D01*
X187886Y333803D01*
X187827Y333686D01*
X187685Y333279D01*
X187582Y332859D01*
X187520Y332432D01*
X187500Y332001D01*
X187520Y331569D01*
X187582Y331142D01*
X187685Y330722D01*
X187827Y330315D01*
X187828D01*
X187887Y330199D01*
X187966Y330094D01*
X188062Y330005D01*
X188171Y329934D01*
X188292Y329883D01*
X188387Y329861D01*
Y319141D01*
X188291Y319119D01*
X188170Y319068D01*
X188061Y318996D01*
X187965Y318907D01*
X187886Y318803D01*
X187827Y318686D01*
X187685Y318279D01*
X187582Y317859D01*
X187520Y317432D01*
X187500Y317001D01*
X187520Y316569D01*
X187582Y316142D01*
X187685Y315722D01*
X187827Y315315D01*
X187828D01*
X187887Y315199D01*
X187966Y315094D01*
X188062Y315005D01*
X188171Y314934D01*
X188292Y314883D01*
X188387Y314861D01*
Y307997D01*
X188369Y307958D01*
X188243Y307486D01*
X188200Y307000D01*
X188243Y306514D01*
X188369Y306042D01*
X188387Y306003D01*
Y295000D01*
X175231D01*
Y308111D01*
X180072Y312952D01*
X180461Y312771D01*
X181219Y312568D01*
X182000Y312500D01*
X182781Y312568D01*
X183539Y312771D01*
X184250Y313103D01*
X184893Y313553D01*
X185447Y314107D01*
X185897Y314750D01*
X186229Y315461D01*
X186432Y316219D01*
X186500Y317000D01*
X186432Y317781D01*
X186229Y318539D01*
X185897Y319250D01*
X185447Y319893D01*
X184893Y320447D01*
X184250Y320897D01*
X183539Y321229D01*
X182781Y321432D01*
X182000Y321500D01*
X181219Y321432D01*
X180461Y321229D01*
X179750Y320897D01*
X179107Y320447D01*
X178553Y319893D01*
X178103Y319250D01*
X177771Y318539D01*
X177568Y317781D01*
X177500Y317000D01*
X177568Y316219D01*
X177771Y315461D01*
X177952Y315074D01*
X175231Y312353D01*
Y313891D01*
X175447Y314107D01*
X175897Y314750D01*
X176229Y315461D01*
X176432Y316219D01*
X176500Y317000D01*
X176432Y317781D01*
X176229Y318539D01*
X175897Y319250D01*
X175447Y319893D01*
X175231Y320109D01*
Y363720D01*
X175248Y363721D01*
X175332Y363744D01*
X175411Y363781D01*
X175483Y363831D01*
X175544Y363893D01*
X175594Y363964D01*
X175631Y364043D01*
X175704Y364276D01*
X175757Y364514D01*
X175789Y364756D01*
X175800Y365000D01*
X175789Y365245D01*
X175757Y365487D01*
X175704Y365725D01*
X175631Y365958D01*
X175594Y366037D01*
X175544Y366108D01*
X175483Y366170D01*
X175411Y366220D01*
X175332Y366257D01*
X175248Y366280D01*
X175231Y366281D01*
Y380500D01*
G37*
G36*
Y312353D02*X172378Y309500D01*
X169350D01*
Y313383D01*
X169750Y313103D01*
X170461Y312771D01*
X171219Y312568D01*
X172000Y312500D01*
X172781Y312568D01*
X173539Y312771D01*
X174250Y313103D01*
X174893Y313553D01*
X175231Y313891D01*
Y312353D01*
G37*
G36*
Y295000D02*X169350D01*
Y306500D01*
X173000D01*
X173080Y306507D01*
X173131D01*
X173184Y306516D01*
X173260Y306523D01*
X173334Y306543D01*
X173388Y306552D01*
X173439Y306570D01*
X173513Y306590D01*
X173578Y306621D01*
X173634Y306641D01*
X173685Y306671D01*
X173750Y306701D01*
X173811Y306743D01*
X173860Y306772D01*
X173904Y306809D01*
X173964Y306851D01*
X174016Y306903D01*
X174060Y306940D01*
X175231Y308111D01*
Y295000D01*
G37*
G36*
X169350Y380500D02*X175231D01*
Y366281D01*
X175161Y366287D01*
X175074Y366280D01*
X174990Y366257D01*
X174911Y366220D01*
X174840Y366170D01*
X174778Y366109D01*
X174728Y366037D01*
X174691Y365958D01*
X174668Y365874D01*
X174661Y365787D01*
X174668Y365700D01*
X174691Y365616D01*
X174738Y365466D01*
X174772Y365313D01*
X174793Y365157D01*
X174800Y365000D01*
X174793Y364844D01*
X174772Y364688D01*
X174738Y364535D01*
X174691Y364385D01*
X174668Y364301D01*
X174661Y364214D01*
X174668Y364127D01*
X174691Y364043D01*
X174728Y363964D01*
X174778Y363892D01*
X174840Y363831D01*
X174911Y363781D01*
X174990Y363744D01*
X175074Y363721D01*
X175161Y363714D01*
X175231Y363720D01*
Y320109D01*
X174893Y320447D01*
X174250Y320897D01*
X173539Y321229D01*
X172781Y321432D01*
X172000Y321500D01*
X171219Y321432D01*
X170461Y321229D01*
X169750Y320897D01*
X169350Y320617D01*
Y327230D01*
X170060Y327940D01*
X170061Y327939D01*
X170108Y327995D01*
X170149Y328036D01*
X170182Y328083D01*
X170229Y328139D01*
X170266Y328203D01*
X170299Y328250D01*
X170325Y328305D01*
X170360Y328366D01*
X170383Y328429D01*
X170410Y328487D01*
X170426Y328549D01*
X170449Y328612D01*
X170461Y328681D01*
X170477Y328740D01*
X170482Y328798D01*
X170495Y328869D01*
Y328943D01*
X170500Y329000D01*
Y343645D01*
X170800Y343855D01*
X171145Y344200D01*
X171425Y344600D01*
X171631Y345042D01*
X171757Y345514D01*
X171800Y346000D01*
X171757Y346486D01*
X171631Y346958D01*
X171425Y347400D01*
X171145Y347800D01*
X170800Y348145D01*
X170400Y348425D01*
X169958Y348631D01*
X169486Y348757D01*
X169350Y348769D01*
Y349500D01*
X169500D01*
X169587Y349508D01*
X169671Y349530D01*
X169750Y349567D01*
X169821Y349617D01*
X169883Y349679D01*
X169933Y349750D01*
X169970Y349829D01*
X169992Y349913D01*
X170000Y350000D01*
Y356880D01*
X170060Y356940D01*
X170061Y356939D01*
X170108Y356995D01*
X170149Y357036D01*
X170181Y357082D01*
X170229Y357139D01*
X170265Y357202D01*
X170299Y357250D01*
X170325Y357306D01*
X170360Y357366D01*
X170383Y357429D01*
X170410Y357487D01*
X170426Y357549D01*
X170449Y357612D01*
X170461Y357681D01*
X170477Y357740D01*
X170482Y357798D01*
X170495Y357869D01*
Y357943D01*
X170500Y358000D01*
Y360379D01*
X172000Y358879D01*
Y350000D01*
X172008Y349913D01*
X172030Y349829D01*
X172067Y349750D01*
X172117Y349679D01*
X172179Y349617D01*
X172250Y349567D01*
X172329Y349530D01*
X172413Y349508D01*
X172500Y349500D01*
X174500D01*
X174587Y349508D01*
X174671Y349530D01*
X174750Y349567D01*
X174821Y349617D01*
X174883Y349679D01*
X174933Y349750D01*
X174970Y349829D01*
X174992Y349913D01*
X175000Y350000D01*
Y359500D01*
X174994Y359568D01*
Y359631D01*
X174983Y359693D01*
X174977Y359760D01*
X174959Y359829D01*
X174948Y359889D01*
X174929Y359941D01*
X174910Y360013D01*
X174878Y360080D01*
X174859Y360134D01*
X174829Y360186D01*
X174799Y360250D01*
X174759Y360306D01*
X174728Y360361D01*
X174687Y360410D01*
X174649Y360464D01*
X174602Y360511D01*
X174560Y360561D01*
X172917Y362204D01*
X172999Y362200D01*
X173244Y362211D01*
X173486Y362243D01*
X173724Y362296D01*
X173957Y362369D01*
X174036Y362406D01*
X174107Y362456D01*
X174169Y362517D01*
X174219Y362589D01*
X174256Y362668D01*
X174279Y362752D01*
X174286Y362839D01*
X174279Y362926D01*
X174256Y363010D01*
X174219Y363089D01*
X174169Y363160D01*
X174108Y363222D01*
X174036Y363272D01*
X173957Y363309D01*
X173873Y363332D01*
X173786Y363339D01*
X173699Y363332D01*
X173615Y363309D01*
X173465Y363262D01*
X173358Y363238D01*
X174060Y363940D01*
X174061Y363939D01*
X174229Y364139D01*
X174360Y364366D01*
X174449Y364612D01*
X174495Y364869D01*
Y365131D01*
X174449Y365388D01*
X174360Y365634D01*
X174229Y365861D01*
X174061Y366061D01*
X174055Y366066D01*
X173358Y366763D01*
X173465Y366739D01*
X173615Y366692D01*
X173699Y366669D01*
X173786Y366662D01*
X173873Y366669D01*
X173957Y366692D01*
X174036Y366729D01*
X174108Y366779D01*
X174169Y366841D01*
X174219Y366912D01*
X174256Y366991D01*
X174279Y367075D01*
X174286Y367162D01*
X174279Y367249D01*
X174256Y367333D01*
X174219Y367412D01*
X174169Y367484D01*
X174107Y367545D01*
X174036Y367595D01*
X173957Y367632D01*
X173801Y367681D01*
X174560Y368440D01*
X174561Y368439D01*
X174608Y368495D01*
X174649Y368536D01*
X174681Y368582D01*
X174729Y368639D01*
X174765Y368702D01*
X174799Y368750D01*
X174825Y368806D01*
X174860Y368866D01*
X174883Y368929D01*
X174910Y368987D01*
X174926Y369049D01*
X174949Y369112D01*
X174961Y369181D01*
X174977Y369240D01*
X174982Y369298D01*
X174995Y369369D01*
Y369443D01*
X175000Y369500D01*
Y379000D01*
X174992Y379087D01*
X174970Y379171D01*
X174933Y379250D01*
X174883Y379321D01*
X174821Y379383D01*
X174750Y379433D01*
X174671Y379470D01*
X174587Y379492D01*
X174500Y379500D01*
X172500D01*
X172413Y379492D01*
X172329Y379470D01*
X172250Y379433D01*
X172179Y379383D01*
X172117Y379321D01*
X172067Y379250D01*
X172030Y379171D01*
X172008Y379087D01*
X172000Y379000D01*
Y370122D01*
X171000Y369122D01*
X170500Y369621D01*
Y371000D01*
X170494Y371068D01*
Y371131D01*
X170483Y371193D01*
X170477Y371260D01*
X170459Y371329D01*
X170448Y371389D01*
X170429Y371441D01*
X170410Y371513D01*
X170378Y371580D01*
X170359Y371634D01*
X170329Y371686D01*
X170299Y371750D01*
X170259Y371806D01*
X170228Y371861D01*
X170187Y371910D01*
X170149Y371964D01*
X170102Y372011D01*
X170060Y372061D01*
X170000Y372121D01*
Y379000D01*
X169992Y379087D01*
X169970Y379171D01*
X169933Y379250D01*
X169883Y379321D01*
X169821Y379383D01*
X169750Y379433D01*
X169671Y379470D01*
X169587Y379492D01*
X169500Y379500D01*
X169350D01*
Y380500D01*
G37*
G36*
X161250Y306500D02*X169350D01*
Y295000D01*
X161250D01*
Y306500D01*
G37*
G36*
Y312500D02*X165000D01*
X165260Y312523D01*
X165513Y312590D01*
X165750Y312701D01*
X165964Y312851D01*
X166149Y313036D01*
X166299Y313250D01*
X166410Y313487D01*
X166477Y313740D01*
X166500Y314000D01*
Y320000D01*
X166477Y320260D01*
X166410Y320513D01*
X166299Y320750D01*
X166149Y320964D01*
X165964Y321149D01*
X165750Y321299D01*
X165513Y321410D01*
X165260Y321477D01*
X165000Y321500D01*
X163620D01*
X169350Y327230D01*
Y320617D01*
X169107Y320447D01*
X168553Y319893D01*
X168103Y319250D01*
X167771Y318539D01*
X167568Y317781D01*
X167500Y317000D01*
X167568Y316219D01*
X167771Y315461D01*
X168103Y314750D01*
X168553Y314107D01*
X169107Y313553D01*
X169350Y313383D01*
Y309500D01*
X161250D01*
Y312500D01*
G37*
G36*
Y380500D02*X169350D01*
Y379500D01*
X167500D01*
X167413Y379492D01*
X167329Y379470D01*
X167250Y379433D01*
X167179Y379383D01*
X167117Y379321D01*
X167067Y379250D01*
X167030Y379171D01*
X167008Y379087D01*
X167000Y379000D01*
Y370500D01*
X167008Y370413D01*
X167030Y370329D01*
X167067Y370250D01*
X167117Y370179D01*
X167179Y370117D01*
X167250Y370067D01*
X167329Y370030D01*
X167413Y370008D01*
X167500Y370000D01*
Y369000D01*
X167506Y368932D01*
Y368870D01*
X167517Y368807D01*
X167523Y368740D01*
X167540Y368676D01*
X167551Y368613D01*
X167572Y368555D01*
X167590Y368487D01*
X167619Y368425D01*
X167640Y368367D01*
X167673Y368310D01*
X167701Y368250D01*
X167738Y368197D01*
X167771Y368140D01*
X167814Y368089D01*
X167851Y368036D01*
X167897Y367990D01*
X167939Y367940D01*
X169350Y366529D01*
Y363472D01*
X167939Y362061D01*
X167940Y362060D01*
X167903Y362016D01*
X167851Y361964D01*
X167809Y361904D01*
X167772Y361860D01*
X167743Y361811D01*
X167701Y361750D01*
X167671Y361685D01*
X167641Y361634D01*
X167621Y361578D01*
X167590Y361513D01*
X167570Y361439D01*
X167552Y361388D01*
X167543Y361334D01*
X167523Y361260D01*
X167516Y361184D01*
X167507Y361131D01*
Y361081D01*
X167500Y361000D01*
Y359000D01*
X167413Y358992D01*
X167329Y358970D01*
X167250Y358933D01*
X167179Y358883D01*
X167117Y358821D01*
X167067Y358750D01*
X167030Y358671D01*
X167008Y358587D01*
X167000Y358500D01*
Y350000D01*
X167008Y349913D01*
X167030Y349829D01*
X167067Y349750D01*
X167117Y349679D01*
X167179Y349617D01*
X167250Y349567D01*
X167329Y349530D01*
X167413Y349508D01*
X167500Y349500D01*
X169350D01*
Y348769D01*
X169000Y348800D01*
X168514Y348757D01*
X168042Y348631D01*
X167600Y348425D01*
X167200Y348145D01*
X166855Y347800D01*
X166575Y347400D01*
X166369Y346958D01*
X166243Y346486D01*
X166200Y346000D01*
X166243Y345514D01*
X166369Y345042D01*
X166575Y344600D01*
X166855Y344200D01*
X167200Y343855D01*
X167500Y343645D01*
Y329622D01*
X161250Y323372D01*
Y340222D01*
X161486Y340243D01*
X161958Y340369D01*
X162400Y340575D01*
X162800Y340855D01*
X163145Y341200D01*
X163425Y341600D01*
X163631Y342042D01*
X163757Y342514D01*
X163800Y343000D01*
X163757Y343486D01*
X163631Y343958D01*
X163425Y344400D01*
X163145Y344800D01*
X162800Y345145D01*
X162400Y345425D01*
X161958Y345631D01*
X161486Y345757D01*
X161250Y345778D01*
Y359131D01*
X161999Y359880D01*
X162500Y359379D01*
Y359000D01*
X162413Y358992D01*
X162329Y358970D01*
X162250Y358933D01*
X162179Y358883D01*
X162117Y358821D01*
X162067Y358750D01*
X162030Y358671D01*
X162008Y358587D01*
X162000Y358500D01*
Y350000D01*
X162008Y349913D01*
X162030Y349829D01*
X162067Y349750D01*
X162117Y349679D01*
X162179Y349617D01*
X162250Y349567D01*
X162329Y349530D01*
X162413Y349508D01*
X162500Y349500D01*
X164500D01*
X164587Y349508D01*
X164671Y349530D01*
X164750Y349567D01*
X164821Y349617D01*
X164883Y349679D01*
X164933Y349750D01*
X164970Y349829D01*
X164992Y349913D01*
X165000Y350000D01*
Y356880D01*
X165060Y356940D01*
X165061Y356939D01*
X165108Y356995D01*
X165149Y357036D01*
X165181Y357082D01*
X165229Y357139D01*
X165265Y357202D01*
X165299Y357250D01*
X165325Y357306D01*
X165360Y357366D01*
X165383Y357429D01*
X165410Y357487D01*
X165426Y357549D01*
X165449Y357612D01*
X165461Y357681D01*
X165477Y357740D01*
X165482Y357798D01*
X165495Y357869D01*
Y357943D01*
X165500Y358000D01*
Y360000D01*
X165494Y360068D01*
Y360131D01*
X165483Y360194D01*
X165477Y360260D01*
X165459Y360329D01*
X165448Y360389D01*
X165429Y360441D01*
X165410Y360513D01*
X165379Y360580D01*
X165359Y360634D01*
X165329Y360686D01*
X165299Y360750D01*
X165260Y360806D01*
X165228Y360861D01*
X165187Y360909D01*
X165149Y360964D01*
X165102Y361011D01*
X165060Y361061D01*
X163066Y363055D01*
X163061Y363061D01*
X163055Y363066D01*
X161730Y364391D01*
X161757Y364514D01*
X161789Y364756D01*
X161800Y365000D01*
X161789Y365245D01*
X161757Y365487D01*
X161730Y365610D01*
X164060Y367940D01*
X164061Y367939D01*
X164108Y367995D01*
X164149Y368036D01*
X164182Y368083D01*
X164229Y368139D01*
X164266Y368203D01*
X164299Y368250D01*
X164325Y368305D01*
X164360Y368366D01*
X164382Y368428D01*
X164410Y368487D01*
X164427Y368551D01*
X164449Y368612D01*
X164461Y368681D01*
X164477Y368740D01*
X164482Y368796D01*
X164495Y368869D01*
Y368943D01*
X164500Y369000D01*
Y370000D01*
X164587Y370008D01*
X164671Y370030D01*
X164750Y370067D01*
X164821Y370117D01*
X164883Y370179D01*
X164933Y370250D01*
X164970Y370329D01*
X164992Y370413D01*
X165000Y370500D01*
Y379000D01*
X164992Y379087D01*
X164970Y379171D01*
X164933Y379250D01*
X164883Y379321D01*
X164821Y379383D01*
X164750Y379433D01*
X164671Y379470D01*
X164587Y379492D01*
X164500Y379500D01*
X162500D01*
X162413Y379492D01*
X162329Y379470D01*
X162250Y379433D01*
X162179Y379383D01*
X162117Y379321D01*
X162067Y379250D01*
X162030Y379171D01*
X162008Y379087D01*
X162000Y379000D01*
Y372122D01*
X161939Y372061D01*
X161940Y372060D01*
X161903Y372016D01*
X161851Y371964D01*
X161809Y371904D01*
X161772Y371860D01*
X161743Y371810D01*
X161701Y371750D01*
X161671Y371686D01*
X161641Y371634D01*
X161622Y371581D01*
X161590Y371513D01*
X161570Y371437D01*
X161552Y371388D01*
X161542Y371333D01*
X161523Y371260D01*
X161516Y371185D01*
X161507Y371131D01*
Y371079D01*
X161500Y371000D01*
Y369621D01*
X161250Y369871D01*
Y380500D01*
G37*
G36*
Y387629D02*X162275Y386604D01*
X162243Y386486D01*
X162200Y386000D01*
X162243Y385514D01*
X162369Y385042D01*
X162575Y384600D01*
X162855Y384200D01*
X163200Y383855D01*
X163600Y383575D01*
X163761Y383500D01*
X161250D01*
Y387629D01*
G37*
G36*
X156769Y306520D02*X156807Y306517D01*
X156870Y306506D01*
X156932D01*
X157000Y306500D01*
X161250D01*
Y295000D01*
X156769D01*
Y306520D01*
G37*
G36*
Y345110D02*X158275Y343604D01*
X158243Y343486D01*
X158200Y343000D01*
X158243Y342514D01*
X158369Y342042D01*
X158575Y341600D01*
X158855Y341200D01*
X159200Y340855D01*
X159600Y340575D01*
X160042Y340369D01*
X160514Y340243D01*
X161000Y340200D01*
X161250Y340222D01*
Y323372D01*
X160939Y323061D01*
X160940Y323060D01*
X160903Y323016D01*
X160851Y322964D01*
X160809Y322904D01*
X160772Y322860D01*
X160743Y322811D01*
X160701Y322750D01*
X160671Y322685D01*
X160641Y322634D01*
X160621Y322578D01*
X160590Y322513D01*
X160570Y322439D01*
X160552Y322388D01*
X160543Y322334D01*
X160523Y322260D01*
X160516Y322184D01*
X160507Y322131D01*
Y322081D01*
X160500Y322000D01*
Y321500D01*
X159000D01*
X158740Y321477D01*
X158487Y321410D01*
X158250Y321299D01*
X158036Y321149D01*
X157851Y320964D01*
X157701Y320750D01*
X157590Y320513D01*
X157523Y320260D01*
X157500Y320000D01*
Y314000D01*
X157523Y313740D01*
X157590Y313487D01*
X157701Y313250D01*
X157851Y313036D01*
X158036Y312851D01*
X158250Y312701D01*
X158487Y312590D01*
X158740Y312523D01*
X159000Y312500D01*
X161250D01*
Y309500D01*
X157621D01*
X156769Y310352D01*
Y324833D01*
X156800Y324855D01*
X157145Y325200D01*
X157425Y325600D01*
X157631Y326042D01*
X157757Y326514D01*
X157800Y327000D01*
X157757Y327486D01*
X157631Y327958D01*
X157425Y328400D01*
X157145Y328800D01*
X156800Y329145D01*
X156769Y329167D01*
Y345110D01*
G37*
G36*
Y380500D02*X161250D01*
Y369871D01*
X160000Y371121D01*
Y379000D01*
X159992Y379087D01*
X159970Y379171D01*
X159933Y379250D01*
X159883Y379321D01*
X159821Y379383D01*
X159750Y379433D01*
X159671Y379470D01*
X159587Y379492D01*
X159500Y379500D01*
X157500D01*
X157413Y379492D01*
X157329Y379470D01*
X157250Y379433D01*
X157179Y379383D01*
X157117Y379321D01*
X157067Y379250D01*
X157030Y379171D01*
X157008Y379087D01*
X157000Y379000D01*
Y370500D01*
X157006Y370432D01*
Y370370D01*
X157017Y370307D01*
X157023Y370240D01*
X157040Y370176D01*
X157051Y370113D01*
X157072Y370055D01*
X157090Y369987D01*
X157119Y369925D01*
X157140Y369867D01*
X157173Y369810D01*
X157201Y369750D01*
X157238Y369697D01*
X157271Y369640D01*
X157314Y369589D01*
X157351Y369536D01*
X157397Y369490D01*
X157439Y369440D01*
X159082Y367797D01*
X159000Y367800D01*
X158755Y367790D01*
X158513Y367758D01*
X158275Y367705D01*
X158042Y367632D01*
X157963Y367595D01*
X157892Y367545D01*
X157830Y367484D01*
X157780Y367412D01*
X157743Y367333D01*
X157720Y367249D01*
X157713Y367162D01*
X157720Y367075D01*
X157743Y366991D01*
X157780Y366912D01*
X157830Y366841D01*
X157891Y366779D01*
X157963Y366729D01*
X158042Y366692D01*
X158126Y366669D01*
X158213Y366662D01*
X158300Y366669D01*
X158384Y366692D01*
X158534Y366739D01*
X158641Y366763D01*
X157939Y366061D01*
X157940Y366060D01*
X157772Y365861D01*
X157641Y365634D01*
X157552Y365389D01*
X157506Y365131D01*
Y364870D01*
X157551Y364613D01*
X157640Y364367D01*
X157771Y364140D01*
X157939Y363940D01*
X158641Y363238D01*
X158534Y363262D01*
X158384Y363309D01*
X158300Y363332D01*
X158213Y363339D01*
X158126Y363332D01*
X158042Y363309D01*
X157963Y363272D01*
X157891Y363222D01*
X157830Y363160D01*
X157780Y363089D01*
X157743Y363010D01*
X157720Y362926D01*
X157713Y362839D01*
X157720Y362752D01*
X157743Y362668D01*
X157780Y362589D01*
X157830Y362517D01*
X157892Y362456D01*
X157963Y362406D01*
X158042Y362369D01*
X158275Y362296D01*
X158513Y362243D01*
X158755Y362211D01*
X158999Y362200D01*
X159244Y362211D01*
X159486Y362243D01*
X159609Y362270D01*
X159878Y362001D01*
X157439Y359561D01*
X157440Y359560D01*
X157403Y359516D01*
X157351Y359464D01*
X157309Y359404D01*
X157272Y359360D01*
X157243Y359310D01*
X157201Y359250D01*
X157171Y359186D01*
X157141Y359134D01*
X157122Y359081D01*
X157090Y359013D01*
X157070Y358937D01*
X157052Y358888D01*
X157042Y358833D01*
X157023Y358760D01*
X157016Y358685D01*
X157007Y358631D01*
Y358579D01*
X157000Y358500D01*
Y350000D01*
X157008Y349913D01*
X157030Y349829D01*
X157067Y349750D01*
X157117Y349679D01*
X157179Y349617D01*
X157250Y349567D01*
X157329Y349530D01*
X157413Y349508D01*
X157500Y349500D01*
X159500D01*
X159587Y349508D01*
X159671Y349530D01*
X159750Y349567D01*
X159821Y349617D01*
X159883Y349679D01*
X159933Y349750D01*
X159970Y349829D01*
X159992Y349913D01*
X160000Y350000D01*
Y357880D01*
X161250Y359131D01*
Y345778D01*
X161000Y345800D01*
X160514Y345757D01*
X160396Y345725D01*
X158061Y348060D01*
X158011Y348102D01*
X157964Y348149D01*
X157910Y348187D01*
X157861Y348228D01*
X157803Y348262D01*
X157750Y348299D01*
X157687Y348329D01*
X157634Y348359D01*
X157575Y348381D01*
X157513Y348410D01*
X157442Y348429D01*
X157389Y348448D01*
X157329Y348459D01*
X157260Y348477D01*
X157193Y348483D01*
X157131Y348494D01*
X157068D01*
X157000Y348500D01*
X156769D01*
Y363720D01*
X156838Y363714D01*
X156925Y363721D01*
X157009Y363744D01*
X157088Y363781D01*
X157159Y363831D01*
X157221Y363892D01*
X157271Y363964D01*
X157308Y364043D01*
X157331Y364127D01*
X157338Y364214D01*
X157331Y364301D01*
X157308Y364385D01*
X157261Y364535D01*
X157227Y364688D01*
X157206Y364844D01*
X157200Y365001D01*
X157206Y365157D01*
X157227Y365313D01*
X157261Y365466D01*
X157308Y365616D01*
X157331Y365700D01*
X157338Y365787D01*
X157331Y365874D01*
X157308Y365958D01*
X157271Y366037D01*
X157221Y366109D01*
X157159Y366170D01*
X157088Y366220D01*
X157009Y366257D01*
X156925Y366280D01*
X156838Y366287D01*
X156769Y366281D01*
Y380500D01*
G37*
G36*
Y404500D02*X159379D01*
X160500Y403379D01*
Y402500D01*
X159000D01*
X158740Y402477D01*
X158487Y402410D01*
X158250Y402299D01*
X158036Y402149D01*
X157851Y401964D01*
X157701Y401750D01*
X157590Y401513D01*
X157523Y401260D01*
X157500Y401000D01*
Y395000D01*
X157523Y394740D01*
X157590Y394487D01*
X157701Y394250D01*
X157851Y394036D01*
X158036Y393851D01*
X158250Y393701D01*
X158487Y393590D01*
X158740Y393523D01*
X159000Y393500D01*
X160500D01*
Y389000D01*
X160506Y388932D01*
Y388870D01*
X160517Y388807D01*
X160523Y388740D01*
X160540Y388676D01*
X160551Y388613D01*
X160572Y388555D01*
X160590Y388487D01*
X160619Y388425D01*
X160640Y388367D01*
X160673Y388310D01*
X160701Y388250D01*
X160738Y388197D01*
X160771Y388140D01*
X160814Y388089D01*
X160851Y388036D01*
X160897Y387990D01*
X160939Y387940D01*
X161250Y387629D01*
Y383500D01*
X156769D01*
Y404500D01*
G37*
G36*
Y310352D02*X156500Y310621D01*
Y324645D01*
X156769Y324833D01*
Y310352D01*
G37*
G36*
X153000Y325055D02*X153200Y324855D01*
X153500Y324645D01*
Y310000D01*
X153506Y309932D01*
Y309870D01*
X153517Y309807D01*
X153523Y309740D01*
X153540Y309676D01*
X153551Y309613D01*
X153572Y309555D01*
X153590Y309487D01*
X153619Y309425D01*
X153640Y309367D01*
X153673Y309310D01*
X153701Y309250D01*
X153738Y309197D01*
X153771Y309140D01*
X153814Y309089D01*
X153851Y309036D01*
X153897Y308990D01*
X153939Y308940D01*
X155940Y306939D01*
X155990Y306897D01*
X156036Y306851D01*
X156089Y306814D01*
X156140Y306771D01*
X156197Y306738D01*
X156250Y306701D01*
X156310Y306673D01*
X156367Y306640D01*
X156425Y306619D01*
X156487Y306590D01*
X156555Y306572D01*
X156613Y306551D01*
X156676Y306540D01*
X156740Y306523D01*
X156769Y306520D01*
Y295000D01*
X153000D01*
Y325055D01*
G37*
G36*
X155231Y345500D02*X156379D01*
X156769Y345110D01*
Y329167D01*
X156400Y329425D01*
X155958Y329631D01*
X155486Y329757D01*
X155231Y329780D01*
Y341720D01*
X155248Y341721D01*
X155332Y341744D01*
X155411Y341781D01*
X155483Y341831D01*
X155544Y341893D01*
X155594Y341964D01*
X155631Y342043D01*
X155704Y342276D01*
X155757Y342514D01*
X155789Y342756D01*
X155800Y343000D01*
X155789Y343245D01*
X155757Y343487D01*
X155704Y343725D01*
X155631Y343958D01*
X155594Y344037D01*
X155544Y344108D01*
X155483Y344170D01*
X155411Y344220D01*
X155332Y344257D01*
X155248Y344280D01*
X155231Y344281D01*
Y345500D01*
G37*
G36*
X153000Y346879D02*X153940Y345939D01*
X153990Y345897D01*
X154036Y345851D01*
X154089Y345814D01*
X154140Y345771D01*
X154197Y345738D01*
X154250Y345701D01*
X154310Y345673D01*
X154367Y345640D01*
X154425Y345619D01*
X154487Y345590D01*
X154555Y345572D01*
X154613Y345551D01*
X154676Y345540D01*
X154740Y345523D01*
X154807Y345517D01*
X154870Y345506D01*
X154932D01*
X155000Y345500D01*
X155231D01*
Y344281D01*
X155161Y344287D01*
X155074Y344280D01*
X154990Y344257D01*
X154911Y344220D01*
X154840Y344170D01*
X154778Y344109D01*
X154728Y344037D01*
X154691Y343958D01*
X154668Y343874D01*
X154661Y343787D01*
X154668Y343700D01*
X154691Y343616D01*
X154738Y343466D01*
X154772Y343313D01*
X154793Y343157D01*
X154800Y343000D01*
X154793Y342844D01*
X154772Y342688D01*
X154738Y342535D01*
X154691Y342385D01*
X154668Y342301D01*
X154661Y342214D01*
X154668Y342127D01*
X154691Y342043D01*
X154728Y341964D01*
X154778Y341892D01*
X154840Y341831D01*
X154911Y341781D01*
X154990Y341744D01*
X155074Y341721D01*
X155161Y341714D01*
X155231Y341720D01*
Y329780D01*
X155000Y329800D01*
X154514Y329757D01*
X154042Y329631D01*
X153600Y329425D01*
X153200Y329145D01*
X153000Y328945D01*
Y340200D01*
X153244Y340211D01*
X153486Y340243D01*
X153724Y340296D01*
X153957Y340369D01*
X154036Y340406D01*
X154107Y340456D01*
X154169Y340517D01*
X154219Y340589D01*
X154256Y340668D01*
X154279Y340752D01*
X154286Y340839D01*
X154279Y340926D01*
X154256Y341010D01*
X154219Y341089D01*
X154169Y341160D01*
X154108Y341222D01*
X154036Y341272D01*
X153957Y341309D01*
X153873Y341332D01*
X153786Y341339D01*
X153699Y341332D01*
X153615Y341309D01*
X153465Y341262D01*
X153312Y341228D01*
X153156Y341207D01*
X153000Y341200D01*
Y344800D01*
X153156Y344794D01*
X153312Y344773D01*
X153465Y344739D01*
X153615Y344692D01*
X153699Y344669D01*
X153786Y344662D01*
X153873Y344669D01*
X153957Y344692D01*
X154036Y344729D01*
X154108Y344779D01*
X154169Y344841D01*
X154219Y344912D01*
X154256Y344991D01*
X154279Y345075D01*
X154286Y345162D01*
X154279Y345249D01*
X154256Y345333D01*
X154219Y345412D01*
X154169Y345484D01*
X154164Y345489D01*
X154107Y345545D01*
X154036Y345595D01*
X153957Y345632D01*
X153724Y345705D01*
X153486Y345758D01*
X153244Y345790D01*
X153000Y345800D01*
Y346879D01*
G37*
G36*
Y370000D02*X154500D01*
X154587Y370008D01*
X154671Y370030D01*
X154750Y370067D01*
X154821Y370117D01*
X154883Y370179D01*
X154933Y370250D01*
X154970Y370329D01*
X154992Y370413D01*
X155000Y370500D01*
Y379880D01*
X155620Y380500D01*
X156769D01*
Y366281D01*
X156751Y366280D01*
X156667Y366257D01*
X156588Y366220D01*
X156516Y366170D01*
X156455Y366108D01*
X156405Y366037D01*
X156368Y365958D01*
X156295Y365725D01*
X156242Y365487D01*
X156210Y365245D01*
X156200Y365001D01*
X156210Y364756D01*
X156242Y364514D01*
X156295Y364276D01*
X156368Y364043D01*
X156405Y363964D01*
X156455Y363893D01*
X156516Y363831D01*
X156588Y363781D01*
X156667Y363744D01*
X156751Y363721D01*
X156769Y363720D01*
Y348500D01*
X155621D01*
X154608Y349513D01*
X154671Y349530D01*
X154750Y349567D01*
X154821Y349617D01*
X154883Y349679D01*
X154933Y349750D01*
X154970Y349829D01*
X154992Y349913D01*
X155000Y350000D01*
Y358500D01*
X154992Y358587D01*
X154970Y358671D01*
X154933Y358750D01*
X154883Y358821D01*
X154821Y358883D01*
X154750Y358933D01*
X154671Y358970D01*
X154587Y358992D01*
X154500Y359000D01*
X153000D01*
Y370000D01*
G37*
G36*
Y404500D02*X156769D01*
Y383500D01*
X155000D01*
X154943Y383495D01*
X154869D01*
X154798Y383482D01*
X154740Y383477D01*
X154681Y383461D01*
X154612Y383449D01*
X154549Y383426D01*
X154487Y383410D01*
X154429Y383383D01*
X154366Y383360D01*
X154306Y383325D01*
X154250Y383299D01*
X154202Y383265D01*
X154139Y383229D01*
X154082Y383181D01*
X154036Y383149D01*
X153995Y383108D01*
X153939Y383061D01*
X153000Y382122D01*
Y404500D01*
G37*
G36*
X148500D02*X153000D01*
Y382122D01*
X152439Y381561D01*
X152440Y381560D01*
X152403Y381516D01*
X152351Y381464D01*
X152309Y381404D01*
X152272Y381360D01*
X152243Y381310D01*
X152201Y381250D01*
X152171Y381186D01*
X152141Y381134D01*
X152122Y381081D01*
X152090Y381013D01*
X152070Y380937D01*
X152052Y380888D01*
X152042Y380833D01*
X152023Y380760D01*
X152016Y380685D01*
X152007Y380631D01*
Y380579D01*
X152000Y380500D01*
Y370500D01*
X152008Y370413D01*
X152030Y370329D01*
X152067Y370250D01*
X152117Y370179D01*
X152179Y370117D01*
X152250Y370067D01*
X152329Y370030D01*
X152413Y370008D01*
X152500Y370000D01*
X153000D01*
Y359000D01*
X152500D01*
X152413Y358992D01*
X152329Y358970D01*
X152250Y358933D01*
X152179Y358883D01*
X152117Y358821D01*
X152067Y358750D01*
X152030Y358671D01*
X152008Y358587D01*
X152000Y358500D01*
Y351622D01*
X151939Y351561D01*
X151940Y351560D01*
X151903Y351516D01*
X151851Y351464D01*
X151809Y351404D01*
X151772Y351360D01*
X151743Y351310D01*
X151701Y351250D01*
X151671Y351186D01*
X151641Y351134D01*
X151622Y351081D01*
X151590Y351013D01*
X151570Y350937D01*
X151552Y350888D01*
X151542Y350833D01*
X151523Y350760D01*
X151516Y350685D01*
X151507Y350631D01*
Y350579D01*
X151500Y350500D01*
Y349000D01*
X151506Y348932D01*
Y348870D01*
X151517Y348807D01*
X151523Y348740D01*
X151540Y348676D01*
X151551Y348613D01*
X151572Y348555D01*
X151590Y348487D01*
X151619Y348425D01*
X151640Y348367D01*
X151673Y348310D01*
X151701Y348250D01*
X151738Y348197D01*
X151771Y348140D01*
X151814Y348089D01*
X151851Y348036D01*
X151897Y347990D01*
X151939Y347940D01*
X153000Y346879D01*
Y345800D01*
X152755Y345790D01*
X152513Y345758D01*
X152490Y345753D01*
X152275Y345705D01*
X152042Y345632D01*
X151963Y345595D01*
X151892Y345545D01*
X151830Y345484D01*
X151780Y345412D01*
X151743Y345333D01*
X151720Y345249D01*
X151713Y345162D01*
X151720Y345075D01*
X151743Y344991D01*
X151780Y344912D01*
X151830Y344841D01*
X151891Y344779D01*
X151963Y344729D01*
X152042Y344692D01*
X152126Y344669D01*
X152213Y344662D01*
X152300Y344669D01*
X152384Y344692D01*
X152534Y344739D01*
X152687Y344773D01*
X152843Y344794D01*
X153000Y344800D01*
Y341200D01*
X152999D01*
X152843Y341207D01*
X152687Y341228D01*
X152534Y341262D01*
X152384Y341309D01*
X152300Y341332D01*
X152213Y341339D01*
X152126Y341332D01*
X152042Y341309D01*
X151963Y341272D01*
X151891Y341222D01*
X151830Y341160D01*
X151780Y341089D01*
X151743Y341010D01*
X151720Y340926D01*
X151713Y340839D01*
X151720Y340752D01*
X151743Y340668D01*
X151780Y340589D01*
X151830Y340517D01*
X151892Y340456D01*
X151963Y340406D01*
X152042Y340369D01*
X152275Y340296D01*
X152513Y340243D01*
X152755Y340211D01*
X152999Y340200D01*
X153000D01*
Y328945D01*
X152855Y328800D01*
X152575Y328400D01*
X152369Y327958D01*
X152243Y327486D01*
X152200Y327000D01*
X152243Y326514D01*
X152369Y326042D01*
X152575Y325600D01*
X152855Y325200D01*
X153000Y325055D01*
Y295000D01*
X148500D01*
Y341380D01*
X150060Y342940D01*
X150061Y342939D01*
X150108Y342995D01*
X150149Y343036D01*
X150183Y343085D01*
X150185Y343087D01*
X150194Y343098D01*
X150204Y343110D01*
X150200Y343001D01*
X150210Y342756D01*
X150242Y342514D01*
X150295Y342276D01*
X150368Y342043D01*
X150405Y341964D01*
X150455Y341893D01*
X150516Y341831D01*
X150588Y341781D01*
X150667Y341744D01*
X150751Y341721D01*
X150838Y341714D01*
X150925Y341721D01*
X151009Y341744D01*
X151088Y341781D01*
X151159Y341831D01*
X151221Y341892D01*
X151271Y341964D01*
X151308Y342043D01*
X151331Y342127D01*
X151338Y342214D01*
X151331Y342301D01*
X151308Y342385D01*
X151261Y342535D01*
X151227Y342688D01*
X151206Y342844D01*
X151200Y343001D01*
X151206Y343157D01*
X151227Y343313D01*
X151261Y343466D01*
X151308Y343616D01*
X151331Y343700D01*
X151338Y343787D01*
X151331Y343874D01*
X151308Y343958D01*
X151271Y344037D01*
X151221Y344109D01*
X151159Y344170D01*
X151088Y344220D01*
X151009Y344257D01*
X150925Y344280D01*
X150838Y344287D01*
X150751Y344280D01*
X150667Y344257D01*
X150588Y344220D01*
X150516Y344170D01*
X150500Y344154D01*
Y350500D01*
X150494Y350568D01*
Y350631D01*
X150483Y350693D01*
X150477Y350760D01*
X150459Y350829D01*
X150448Y350889D01*
X150429Y350941D01*
X150410Y351013D01*
X150378Y351080D01*
X150359Y351134D01*
X150329Y351186D01*
X150299Y351250D01*
X150259Y351306D01*
X150228Y351361D01*
X150187Y351410D01*
X150149Y351464D01*
X150102Y351511D01*
X150060Y351561D01*
X150000Y351621D01*
Y358500D01*
X149992Y358587D01*
X149970Y358671D01*
X149933Y358750D01*
X149883Y358821D01*
X149821Y358883D01*
X149750Y358933D01*
X149671Y358970D01*
X149587Y358992D01*
X149500Y359000D01*
X148500D01*
Y370000D01*
X149500D01*
X149587Y370008D01*
X149671Y370030D01*
X149750Y370067D01*
X149821Y370117D01*
X149883Y370179D01*
X149933Y370250D01*
X149970Y370329D01*
X149992Y370413D01*
X150000Y370500D01*
Y379000D01*
X149992Y379087D01*
X149970Y379171D01*
X149933Y379250D01*
X149883Y379321D01*
X149821Y379383D01*
X149750Y379433D01*
X149671Y379470D01*
X149587Y379492D01*
X149500Y379500D01*
X148500D01*
Y404500D01*
G37*
G36*
Y295000D02*X144750D01*
Y337630D01*
X148500Y341380D01*
Y295000D01*
G37*
G36*
X144750Y404500D02*X148500D01*
Y379500D01*
X147500D01*
X147413Y379492D01*
X147329Y379470D01*
X147250Y379433D01*
X147179Y379383D01*
X147117Y379321D01*
X147067Y379250D01*
X147030Y379171D01*
X147008Y379087D01*
X147000Y379000D01*
Y370500D01*
X147008Y370413D01*
X147030Y370329D01*
X147067Y370250D01*
X147117Y370179D01*
X147179Y370117D01*
X147250Y370067D01*
X147329Y370030D01*
X147413Y370008D01*
X147500Y370000D01*
X148500D01*
Y359000D01*
X147500D01*
X147413Y358992D01*
X147329Y358970D01*
X147250Y358933D01*
X147179Y358883D01*
X147117Y358821D01*
X147067Y358750D01*
X147030Y358671D01*
X147008Y358587D01*
X147000Y358500D01*
Y350000D01*
X147008Y349913D01*
X147030Y349829D01*
X147067Y349750D01*
X147117Y349679D01*
X147179Y349617D01*
X147250Y349567D01*
X147329Y349530D01*
X147413Y349508D01*
X147500Y349500D01*
Y344622D01*
X144750Y341872D01*
Y349567D01*
X144821Y349617D01*
X144883Y349679D01*
X144933Y349750D01*
X144970Y349829D01*
X144992Y349913D01*
X145000Y350000D01*
Y357880D01*
X147060Y359940D01*
X147061Y359939D01*
X147108Y359995D01*
X147149Y360036D01*
X147182Y360083D01*
X147229Y360139D01*
X147266Y360203D01*
X147299Y360250D01*
X147325Y360305D01*
X147360Y360366D01*
X147382Y360428D01*
X147410Y360487D01*
X147427Y360551D01*
X147449Y360612D01*
X147461Y360681D01*
X147477Y360740D01*
X147482Y360796D01*
X147495Y360869D01*
Y360943D01*
X147500Y361000D01*
Y362000D01*
X147494Y362068D01*
Y362131D01*
X147483Y362193D01*
X147477Y362260D01*
X147459Y362329D01*
X147448Y362389D01*
X147429Y362441D01*
X147410Y362513D01*
X147378Y362580D01*
X147359Y362634D01*
X147329Y362686D01*
X147299Y362750D01*
X147259Y362806D01*
X147228Y362861D01*
X147187Y362910D01*
X147149Y362964D01*
X147102Y363011D01*
X147060Y363061D01*
X146730Y363391D01*
X146757Y363514D01*
X146789Y363756D01*
X146800Y364000D01*
X146789Y364245D01*
X146757Y364487D01*
X146704Y364725D01*
X146631Y364958D01*
X146594Y365037D01*
X146544Y365108D01*
X146483Y365170D01*
X146411Y365220D01*
X146332Y365257D01*
X146248Y365280D01*
X146161Y365287D01*
X146074Y365280D01*
X145990Y365257D01*
X145911Y365220D01*
X145840Y365170D01*
X145778Y365109D01*
X145728Y365037D01*
X145691Y364958D01*
X145668Y364874D01*
X145661Y364787D01*
X145668Y364700D01*
X145691Y364616D01*
X145738Y364466D01*
X145762Y364359D01*
X145061Y365060D01*
X144861Y365228D01*
X144750Y365292D01*
Y365665D01*
X144786Y365662D01*
X144873Y365669D01*
X144957Y365692D01*
X145036Y365729D01*
X145108Y365779D01*
X145169Y365841D01*
X145219Y365912D01*
X145256Y365991D01*
X145279Y366075D01*
X145286Y366162D01*
X145279Y366249D01*
X145256Y366333D01*
X145219Y366412D01*
X145169Y366484D01*
X145107Y366545D01*
X145036Y366595D01*
X144957Y366632D01*
X144750Y366697D01*
Y370067D01*
X144821Y370117D01*
X144883Y370179D01*
X144933Y370250D01*
X144970Y370329D01*
X144992Y370413D01*
X145000Y370500D01*
Y379000D01*
X144992Y379087D01*
X144970Y379171D01*
X144933Y379250D01*
X144883Y379321D01*
X144821Y379383D01*
X144750Y379433D01*
Y404500D01*
G37*
G36*
Y295000D02*X138000D01*
Y330880D01*
X144750Y337630D01*
Y295000D01*
G37*
G36*
X141769Y404500D02*X144750D01*
Y379433D01*
X144671Y379470D01*
X144587Y379492D01*
X144500Y379500D01*
X142500D01*
X142413Y379492D01*
X142329Y379470D01*
X142250Y379433D01*
X142179Y379383D01*
X142117Y379321D01*
X142067Y379250D01*
X142030Y379171D01*
X142008Y379087D01*
X142000Y379000D01*
Y370500D01*
X142008Y370413D01*
X142030Y370329D01*
X142067Y370250D01*
X142117Y370179D01*
X142179Y370117D01*
X142250Y370067D01*
X142329Y370030D01*
X142413Y370008D01*
X142500Y370000D01*
X144500D01*
X144587Y370008D01*
X144671Y370030D01*
X144750Y370067D01*
Y366697D01*
X144724Y366705D01*
X144486Y366758D01*
X144244Y366790D01*
X144000Y366800D01*
X143755Y366790D01*
X143513Y366758D01*
X143275Y366705D01*
X143042Y366632D01*
X142963Y366595D01*
X142892Y366545D01*
X142830Y366484D01*
X142780Y366412D01*
X142743Y366333D01*
X142720Y366249D01*
X142713Y366162D01*
X142720Y366075D01*
X142743Y365991D01*
X142780Y365912D01*
X142830Y365841D01*
X142891Y365779D01*
X142963Y365729D01*
X143042Y365692D01*
X143126Y365669D01*
X143213Y365662D01*
X143300Y365669D01*
X143384Y365692D01*
X143534Y365739D01*
X143687Y365773D01*
X143843Y365794D01*
X144000Y365800D01*
X144156Y365794D01*
X144312Y365773D01*
X144465Y365739D01*
X144615Y365692D01*
X144699Y365669D01*
X144750Y365665D01*
Y365292D01*
X144634Y365359D01*
X144389Y365448D01*
X144131Y365494D01*
X143870D01*
X143613Y365449D01*
X143367Y365360D01*
X143140Y365229D01*
X142940Y365061D01*
X142772Y364861D01*
X142641Y364634D01*
X142552Y364389D01*
X142506Y364131D01*
Y363870D01*
X142551Y363613D01*
X142640Y363367D01*
X142771Y363140D01*
X142939Y362940D01*
X143641Y362238D01*
X143534Y362262D01*
X143384Y362309D01*
X143300Y362332D01*
X143213Y362339D01*
X143126Y362332D01*
X143042Y362309D01*
X142963Y362272D01*
X142891Y362222D01*
X142830Y362160D01*
X142780Y362089D01*
X142743Y362010D01*
X142720Y361926D01*
X142713Y361839D01*
X142720Y361752D01*
X142743Y361668D01*
X142780Y361589D01*
X142830Y361517D01*
X142892Y361456D01*
X142963Y361406D01*
X143042Y361369D01*
X143275Y361296D01*
X143513Y361243D01*
X143755Y361211D01*
X143999Y361200D01*
X144082Y361204D01*
X142439Y359561D01*
X142440Y359560D01*
X142403Y359516D01*
X142351Y359464D01*
X142309Y359404D01*
X142272Y359360D01*
X142243Y359310D01*
X142201Y359250D01*
X142171Y359186D01*
X142141Y359134D01*
X142122Y359081D01*
X142090Y359013D01*
X142070Y358937D01*
X142052Y358888D01*
X142042Y358833D01*
X142023Y358760D01*
X142016Y358685D01*
X142007Y358631D01*
Y358579D01*
X142000Y358500D01*
Y350000D01*
X142008Y349913D01*
X142030Y349829D01*
X142067Y349750D01*
X142117Y349679D01*
X142179Y349617D01*
X142250Y349567D01*
X142329Y349530D01*
X142413Y349508D01*
X142500Y349500D01*
X144500D01*
X144587Y349508D01*
X144671Y349530D01*
X144750Y349567D01*
Y341872D01*
X141769Y338891D01*
Y362720D01*
X141838Y362714D01*
X141925Y362721D01*
X142009Y362744D01*
X142088Y362781D01*
X142159Y362831D01*
X142221Y362892D01*
X142271Y362964D01*
X142308Y363043D01*
X142331Y363127D01*
X142338Y363214D01*
X142331Y363301D01*
X142308Y363385D01*
X142261Y363535D01*
X142227Y363688D01*
X142206Y363844D01*
X142200Y364001D01*
X142206Y364157D01*
X142227Y364313D01*
X142261Y364466D01*
X142308Y364616D01*
X142331Y364700D01*
X142338Y364787D01*
X142331Y364874D01*
X142308Y364958D01*
X142271Y365037D01*
X142221Y365109D01*
X142159Y365170D01*
X142088Y365220D01*
X142009Y365257D01*
X141925Y365280D01*
X141838Y365287D01*
X141769Y365281D01*
Y404500D01*
G37*
G36*
X138000D02*X141769D01*
Y365281D01*
X141751Y365280D01*
X141667Y365257D01*
X141588Y365220D01*
X141516Y365170D01*
X141455Y365108D01*
X141405Y365037D01*
X141368Y364958D01*
X141295Y364725D01*
X141242Y364487D01*
X141210Y364245D01*
X141200Y364001D01*
X141210Y363756D01*
X141242Y363514D01*
X141295Y363276D01*
X141368Y363043D01*
X141405Y362964D01*
X141455Y362893D01*
X141516Y362831D01*
X141588Y362781D01*
X141667Y362744D01*
X141751Y362721D01*
X141769Y362720D01*
Y338891D01*
X138000Y335122D01*
Y344880D01*
X140060Y346940D01*
X140061Y346939D01*
X140108Y346995D01*
X140149Y347036D01*
X140182Y347083D01*
X140229Y347139D01*
X140266Y347203D01*
X140299Y347250D01*
X140325Y347305D01*
X140360Y347366D01*
X140382Y347428D01*
X140410Y347487D01*
X140427Y347551D01*
X140449Y347612D01*
X140461Y347681D01*
X140477Y347740D01*
X140482Y347796D01*
X140495Y347869D01*
Y347943D01*
X140500Y348000D01*
Y350500D01*
X140494Y350568D01*
Y350631D01*
X140483Y350693D01*
X140477Y350760D01*
X140459Y350829D01*
X140448Y350889D01*
X140429Y350941D01*
X140410Y351013D01*
X140378Y351080D01*
X140359Y351134D01*
X140329Y351186D01*
X140299Y351250D01*
X140259Y351306D01*
X140228Y351361D01*
X140187Y351410D01*
X140149Y351464D01*
X140102Y351511D01*
X140060Y351561D01*
X140000Y351621D01*
Y358500D01*
X139992Y358587D01*
X139970Y358671D01*
X139933Y358750D01*
X139883Y358821D01*
X139821Y358883D01*
X139750Y358933D01*
X139671Y358970D01*
X139587Y358992D01*
X139500Y359000D01*
X138000D01*
Y370000D01*
X139500D01*
X139587Y370008D01*
X139671Y370030D01*
X139750Y370067D01*
X139821Y370117D01*
X139883Y370179D01*
X139933Y370250D01*
X139970Y370329D01*
X139992Y370413D01*
X140000Y370500D01*
Y377380D01*
X140060Y377440D01*
X140061Y377439D01*
X140108Y377495D01*
X140149Y377536D01*
X140181Y377582D01*
X140229Y377639D01*
X140265Y377702D01*
X140299Y377750D01*
X140325Y377806D01*
X140360Y377866D01*
X140383Y377929D01*
X140410Y377987D01*
X140426Y378049D01*
X140449Y378112D01*
X140461Y378181D01*
X140477Y378240D01*
X140482Y378298D01*
X140495Y378369D01*
Y378443D01*
X140500Y378500D01*
Y383000D01*
X140494Y383068D01*
Y383131D01*
X140483Y383194D01*
X140477Y383260D01*
X140459Y383329D01*
X140448Y383389D01*
X140429Y383441D01*
X140410Y383513D01*
X140379Y383580D01*
X140359Y383634D01*
X140329Y383686D01*
X140299Y383750D01*
X140260Y383806D01*
X140228Y383861D01*
X140187Y383909D01*
X140149Y383964D01*
X140102Y384011D01*
X140060Y384061D01*
X140000Y384121D01*
Y385055D01*
X140145Y385200D01*
X140425Y385600D01*
X140631Y386042D01*
X140757Y386514D01*
X140800Y387000D01*
X140757Y387486D01*
X140631Y387958D01*
X140425Y388400D01*
X140145Y388800D01*
X139800Y389145D01*
X139400Y389425D01*
X138958Y389631D01*
X138486Y389757D01*
X138000Y389800D01*
Y404500D01*
G37*
G36*
Y335122D02*X134350Y331472D01*
Y343500D01*
X136000D01*
X136080Y343507D01*
X136131D01*
X136184Y343516D01*
X136260Y343523D01*
X136334Y343543D01*
X136388Y343552D01*
X136439Y343570D01*
X136513Y343590D01*
X136578Y343621D01*
X136634Y343641D01*
X136685Y343671D01*
X136750Y343701D01*
X136811Y343743D01*
X136860Y343772D01*
X136904Y343809D01*
X136964Y343851D01*
X137016Y343903D01*
X137060Y343940D01*
X138000Y344880D01*
Y335122D01*
G37*
G36*
Y295000D02*X134350D01*
Y309231D01*
X134486Y309243D01*
X134958Y309369D01*
X135400Y309575D01*
X135800Y309855D01*
X136145Y310200D01*
X136425Y310600D01*
X136631Y311042D01*
X136757Y311514D01*
X136800Y312000D01*
X136757Y312486D01*
X136631Y312958D01*
X136425Y313400D01*
X136145Y313800D01*
X135800Y314145D01*
X135500Y314355D01*
Y320645D01*
X135800Y320855D01*
X136145Y321200D01*
X136425Y321600D01*
X136631Y322042D01*
X136757Y322514D01*
X136800Y323000D01*
X136757Y323486D01*
X136631Y323958D01*
X136425Y324400D01*
X136145Y324800D01*
X135800Y325145D01*
X135400Y325425D01*
X134958Y325631D01*
X134486Y325757D01*
X134350Y325769D01*
Y327230D01*
X138000Y330880D01*
Y295000D01*
G37*
G36*
X134350Y404500D02*X138000D01*
Y389800D01*
X137514Y389757D01*
X137042Y389631D01*
X136600Y389425D01*
X136200Y389145D01*
X135855Y388800D01*
X135575Y388400D01*
X135369Y387958D01*
X135243Y387486D01*
X135200Y387000D01*
X135243Y386514D01*
X135369Y386042D01*
X135575Y385600D01*
X135855Y385200D01*
X136200Y384855D01*
X136500Y384645D01*
Y384000D01*
X136506Y383932D01*
Y383870D01*
X136517Y383807D01*
X136523Y383740D01*
X136540Y383676D01*
X136551Y383613D01*
X136572Y383555D01*
X136590Y383487D01*
X136619Y383425D01*
X136640Y383367D01*
X136673Y383310D01*
X136701Y383250D01*
X136738Y383197D01*
X136771Y383140D01*
X136814Y383089D01*
X136851Y383036D01*
X136897Y382990D01*
X136939Y382940D01*
X137000Y382879D01*
Y370500D01*
X137008Y370413D01*
X137030Y370329D01*
X137067Y370250D01*
X137117Y370179D01*
X137179Y370117D01*
X137250Y370067D01*
X137329Y370030D01*
X137413Y370008D01*
X137500Y370000D01*
X138000D01*
Y359000D01*
X137500D01*
X137413Y358992D01*
X137329Y358970D01*
X137250Y358933D01*
X137179Y358883D01*
X137117Y358821D01*
X137067Y358750D01*
X137030Y358671D01*
X137008Y358587D01*
X137000Y358500D01*
Y350000D01*
X137008Y349913D01*
X137030Y349829D01*
X137067Y349750D01*
X137117Y349679D01*
X137179Y349617D01*
X137250Y349567D01*
X137329Y349530D01*
X137413Y349508D01*
X137500Y349500D01*
Y348622D01*
X135378Y346500D01*
X134350D01*
Y404500D01*
G37*
G36*
X191999Y410880D02*X196500Y406379D01*
Y398000D01*
X196490Y398206D01*
X196479Y398432D01*
X196417Y398859D01*
X196314Y399279D01*
X196172Y399686D01*
X196171D01*
X196112Y399802D01*
X196033Y399907D01*
X195937Y399996D01*
X195828Y400067D01*
X195707Y400118D01*
X195580Y400147D01*
X195450Y400154D01*
X195320Y400138D01*
X195195Y400100D01*
X195079Y400041D01*
X194974Y399962D01*
X194885Y399866D01*
X194814Y399757D01*
X194763Y399636D01*
X194734Y399509D01*
X194727Y399379D01*
X194743Y399249D01*
X194781Y399124D01*
X194876Y398853D01*
X194944Y398573D01*
X194986Y398288D01*
X195000Y398000D01*
X194986Y397713D01*
X194944Y397428D01*
X194876Y397148D01*
X194781Y396877D01*
X194780D01*
X194742Y396752D01*
X194726Y396622D01*
X194733Y396491D01*
X194762Y396364D01*
X194813Y396243D01*
X194885Y396134D01*
X194974Y396038D01*
X195078Y395959D01*
X195195Y395900D01*
X195320Y395862D01*
X195450Y395846D01*
X195581Y395853D01*
X195708Y395882D01*
X195829Y395933D01*
X195938Y396005D01*
X196034Y396094D01*
X196113Y396198D01*
X196172Y396315D01*
X196314Y396722D01*
X196417Y397142D01*
X196479Y397569D01*
X196500Y398000D01*
Y388622D01*
X194378Y386500D01*
X191999D01*
Y393500D01*
X192431Y393521D01*
X192858Y393583D01*
X193278Y393686D01*
X193685Y393828D01*
Y393829D01*
X193801Y393888D01*
X193906Y393967D01*
X193995Y394063D01*
X194066Y394172D01*
X194117Y394293D01*
X194146Y394420D01*
X194153Y394550D01*
X194137Y394680D01*
X194099Y394805D01*
X194040Y394921D01*
X193961Y395026D01*
X193865Y395115D01*
X193756Y395186D01*
X193635Y395237D01*
X193508Y395266D01*
X193378Y395273D01*
X193248Y395257D01*
X193123Y395219D01*
X192852Y395124D01*
X192572Y395056D01*
X192287Y395014D01*
X191999Y395000D01*
Y401000D01*
X192000D01*
X192287Y400987D01*
X192572Y400945D01*
X192852Y400877D01*
X193123Y400782D01*
Y400781D01*
X193248Y400743D01*
X193378Y400727D01*
X193509Y400734D01*
X193636Y400763D01*
X193757Y400814D01*
X193866Y400886D01*
X193962Y400975D01*
X194041Y401079D01*
X194100Y401196D01*
X194138Y401321D01*
X194154Y401451D01*
X194147Y401582D01*
X194118Y401709D01*
X194067Y401830D01*
X193995Y401939D01*
X193906Y402035D01*
X193802Y402114D01*
X193685Y402173D01*
X193278Y402315D01*
X192858Y402418D01*
X192431Y402480D01*
X192000Y402500D01*
X191999D01*
Y410880D01*
G37*
G36*
X199000Y421000D02*Y408121D01*
X192725Y414396D01*
X192757Y414514D01*
X192800Y415000D01*
X192757Y415486D01*
X192631Y415958D01*
X192425Y416400D01*
X192145Y416800D01*
X191999Y416946D01*
Y421000D01*
X199000D01*
G37*
G36*
X188387Y412724D02*X188600Y412575D01*
X189042Y412369D01*
X189514Y412243D01*
X190000Y412200D01*
X190486Y412243D01*
X190604Y412275D01*
X191999Y410880D01*
Y402500D01*
X191568Y402480D01*
X191141Y402418D01*
X190721Y402315D01*
X190314Y402173D01*
Y402172D01*
X190198Y402113D01*
X190093Y402034D01*
X190004Y401938D01*
X189933Y401829D01*
X189882Y401708D01*
X189853Y401581D01*
X189846Y401451D01*
X189862Y401321D01*
X189900Y401196D01*
X189959Y401080D01*
X190038Y400975D01*
X190134Y400886D01*
X190243Y400815D01*
X190364Y400764D01*
X190491Y400735D01*
X190621Y400728D01*
X190751Y400744D01*
X190876Y400782D01*
X191147Y400877D01*
X191427Y400945D01*
X191712Y400987D01*
X191999Y401000D01*
Y395000D01*
X191712Y395014D01*
X191427Y395056D01*
X191147Y395124D01*
X190876Y395219D01*
Y395220D01*
X190751Y395258D01*
X190621Y395274D01*
X190490Y395267D01*
X190363Y395238D01*
X190242Y395187D01*
X190133Y395115D01*
X190037Y395026D01*
X189958Y394922D01*
X189899Y394805D01*
X189861Y394680D01*
X189845Y394550D01*
X189852Y394419D01*
X189881Y394292D01*
X189932Y394171D01*
X190004Y394062D01*
X190093Y393966D01*
X190197Y393887D01*
X190314Y393828D01*
X190721Y393686D01*
X191141Y393583D01*
X191568Y393521D01*
X191999Y393500D01*
Y386500D01*
X189000D01*
X188740Y386477D01*
X188487Y386410D01*
X188387Y386363D01*
Y395861D01*
X188419Y395854D01*
X188549Y395847D01*
X188679Y395863D01*
X188804Y395901D01*
X188920Y395960D01*
X189025Y396039D01*
X189114Y396135D01*
X189185Y396244D01*
X189236Y396365D01*
X189265Y396492D01*
X189272Y396622D01*
X189256Y396752D01*
X189218Y396877D01*
X189123Y397148D01*
X189055Y397428D01*
X189013Y397713D01*
X189000Y398001D01*
X189013Y398288D01*
X189055Y398573D01*
X189123Y398853D01*
X189218Y399124D01*
X189219D01*
X189257Y399249D01*
X189273Y399379D01*
X189266Y399510D01*
X189237Y399637D01*
X189186Y399758D01*
X189114Y399867D01*
X189025Y399963D01*
X188921Y400042D01*
X188804Y400101D01*
X188679Y400139D01*
X188549Y400155D01*
X188418Y400148D01*
X188387Y400141D01*
Y412724D01*
G37*
G36*
X191999Y416946D02*X191800Y417145D01*
X191400Y417425D01*
X190958Y417631D01*
X190486Y417757D01*
X190000Y417800D01*
X189514Y417757D01*
X189042Y417631D01*
X188600Y417425D01*
X188387Y417276D01*
Y421000D01*
X191999D01*
Y416946D01*
G37*
G36*
X188387Y417276D02*X188200Y417145D01*
X187855Y416800D01*
X187575Y416400D01*
X187369Y415958D01*
X187243Y415486D01*
X187200Y415000D01*
X187243Y414514D01*
X187369Y414042D01*
X187575Y413600D01*
X187855Y413200D01*
X188200Y412855D01*
X188387Y412724D01*
Y400141D01*
X188291Y400119D01*
X188170Y400068D01*
X188061Y399996D01*
X187965Y399907D01*
X187886Y399803D01*
X187827Y399686D01*
X187685Y399279D01*
X187582Y398859D01*
X187520Y398432D01*
X187500Y398001D01*
X187520Y397569D01*
X187582Y397142D01*
X187685Y396722D01*
X187827Y396315D01*
X187828D01*
X187887Y396199D01*
X187966Y396094D01*
X188062Y396005D01*
X188171Y395934D01*
X188292Y395883D01*
X188387Y395861D01*
Y386363D01*
X188250Y386299D01*
X188036Y386149D01*
X187851Y385964D01*
X187701Y385750D01*
X187590Y385513D01*
X187523Y385260D01*
X187500Y385000D01*
Y383500D01*
X169350D01*
Y394383D01*
X169750Y394103D01*
X170461Y393771D01*
X171219Y393568D01*
X172000Y393500D01*
X172781Y393568D01*
X173539Y393771D01*
X174250Y394103D01*
X174893Y394553D01*
X175447Y395107D01*
X175897Y395750D01*
X176229Y396461D01*
X176432Y397219D01*
X176500Y398000D01*
X176432Y398781D01*
X176229Y399539D01*
X175897Y400250D01*
X175447Y400893D01*
X174893Y401447D01*
X174250Y401897D01*
X173539Y402229D01*
X172781Y402432D01*
X172000Y402500D01*
X171219Y402432D01*
X170461Y402229D01*
X169750Y401897D01*
X169350Y401617D01*
Y415500D01*
X179465D01*
X180500Y414465D01*
Y402239D01*
X180461Y402229D01*
X179750Y401897D01*
X179107Y401447D01*
X178553Y400893D01*
X178103Y400250D01*
X177771Y399539D01*
X177568Y398781D01*
X177500Y398000D01*
X177568Y397219D01*
X177771Y396461D01*
X178103Y395750D01*
X178553Y395107D01*
X179107Y394553D01*
X179750Y394103D01*
X180461Y393771D01*
X181219Y393568D01*
X182000Y393500D01*
X182781Y393568D01*
X183539Y393771D01*
X184250Y394103D01*
X184893Y394553D01*
X185447Y395107D01*
X185897Y395750D01*
X186229Y396461D01*
X186432Y397219D01*
X186500Y398000D01*
X186432Y398781D01*
X186229Y399539D01*
X185897Y400250D01*
X185447Y400893D01*
X184893Y401447D01*
X184250Y401897D01*
X183539Y402229D01*
X183500Y402239D01*
Y415086D01*
X183494Y415154D01*
Y415217D01*
X183483Y415280D01*
X183477Y415346D01*
X183459Y415415D01*
X183448Y415475D01*
X183429Y415527D01*
X183410Y415599D01*
X183379Y415666D01*
X183359Y415720D01*
X183329Y415772D01*
X183299Y415836D01*
X183260Y415892D01*
X183228Y415947D01*
X183187Y415995D01*
X183149Y416050D01*
X183102Y416097D01*
X183060Y416147D01*
X181147Y418060D01*
X181096Y418103D01*
X181050Y418149D01*
X180995Y418188D01*
X180947Y418228D01*
X180891Y418261D01*
X180836Y418299D01*
X180773Y418329D01*
X180720Y418359D01*
X180667Y418378D01*
X180599Y418410D01*
X180526Y418429D01*
X180475Y418448D01*
X180415Y418459D01*
X180346Y418477D01*
X180279Y418483D01*
X180217Y418494D01*
X180154D01*
X180086Y418500D01*
X169350D01*
Y421000D01*
X188387D01*
Y417276D01*
G37*
G36*
X169350Y383500D02*X166239D01*
X166400Y383575D01*
X166800Y383855D01*
X167145Y384200D01*
X167425Y384600D01*
X167631Y385042D01*
X167757Y385514D01*
X167800Y386000D01*
X167757Y386486D01*
X167631Y386958D01*
X167425Y387400D01*
X167145Y387800D01*
X166800Y388145D01*
X166400Y388425D01*
X165958Y388631D01*
X165486Y388757D01*
X165000Y388800D01*
X164514Y388757D01*
X164396Y388725D01*
X163500Y389621D01*
Y393500D01*
X165000D01*
X165260Y393523D01*
X165513Y393590D01*
X165750Y393701D01*
X165964Y393851D01*
X166149Y394036D01*
X166299Y394250D01*
X166410Y394487D01*
X166477Y394740D01*
X166500Y395000D01*
Y401000D01*
X166477Y401260D01*
X166410Y401513D01*
X166299Y401750D01*
X166149Y401964D01*
X165964Y402149D01*
X165750Y402299D01*
X165513Y402410D01*
X165260Y402477D01*
X165000Y402500D01*
X163500D01*
Y404000D01*
X163494Y404068D01*
Y404131D01*
X163483Y404194D01*
X163477Y404260D01*
X163459Y404329D01*
X163448Y404389D01*
X163429Y404441D01*
X163410Y404513D01*
X163379Y404580D01*
X163359Y404634D01*
X163329Y404686D01*
X163299Y404750D01*
X163260Y404806D01*
X163228Y404861D01*
X163187Y404909D01*
X163149Y404964D01*
X163102Y405011D01*
X163060Y405061D01*
X161061Y407060D01*
X161011Y407102D01*
X160964Y407149D01*
X160914Y407184D01*
X160861Y407228D01*
X160806Y407260D01*
X160750Y407299D01*
X160686Y407329D01*
X160634Y407359D01*
X160580Y407379D01*
X160513Y407410D01*
X160442Y407429D01*
X160389Y407448D01*
X160329Y407459D01*
X160260Y407477D01*
X160194Y407483D01*
X160131Y407494D01*
X160068D01*
X160000Y407500D01*
X134350D01*
Y421000D01*
X169350D01*
Y418500D01*
X157355D01*
X157145Y418800D01*
X156800Y419145D01*
X156400Y419425D01*
X155958Y419631D01*
X155486Y419757D01*
X155000Y419800D01*
X154514Y419757D01*
X154042Y419631D01*
X153600Y419425D01*
X153200Y419145D01*
X152855Y418800D01*
X152575Y418400D01*
X152369Y417958D01*
X152243Y417486D01*
X152200Y417000D01*
X152243Y416514D01*
X152369Y416042D01*
X152575Y415600D01*
X152855Y415200D01*
X153200Y414855D01*
X153600Y414575D01*
X154042Y414369D01*
X154514Y414243D01*
X155000Y414200D01*
X155486Y414243D01*
X155958Y414369D01*
X156400Y414575D01*
X156800Y414855D01*
X157145Y415200D01*
X157355Y415500D01*
X169350D01*
Y401617D01*
X169107Y401447D01*
X168553Y400893D01*
X168103Y400250D01*
X167771Y399539D01*
X167568Y398781D01*
X167500Y398000D01*
X167568Y397219D01*
X167771Y396461D01*
X168103Y395750D01*
X168553Y395107D01*
X169107Y394553D01*
X169350Y394383D01*
Y383500D01*
G37*
G36*
X134350Y325769D02*X134000Y325800D01*
X133514Y325757D01*
X133042Y325631D01*
X132600Y325425D01*
X132417Y325297D01*
X134350Y327230D01*
Y325769D01*
G37*
G36*
X108387Y310500D02*X117000D01*
X117080Y310507D01*
X117131D01*
X117184Y310516D01*
X117260Y310523D01*
X117329Y310542D01*
X117388Y310552D01*
X117439Y310570D01*
X117513Y310590D01*
X117576Y310620D01*
X117634Y310641D01*
X117689Y310673D01*
X117750Y310701D01*
X117811Y310743D01*
X117860Y310772D01*
X117904Y310809D01*
X117964Y310851D01*
X118016Y310903D01*
X118060Y310940D01*
X131703Y324583D01*
X131575Y324400D01*
X131369Y323958D01*
X131243Y323486D01*
X131200Y323000D01*
X131243Y322514D01*
X131369Y322042D01*
X131575Y321600D01*
X131855Y321200D01*
X132200Y320855D01*
X132500Y320645D01*
Y314355D01*
X132200Y314145D01*
X131855Y313800D01*
X131575Y313400D01*
X131369Y312958D01*
X131243Y312486D01*
X131200Y312000D01*
X131243Y311514D01*
X131369Y311042D01*
X131575Y310600D01*
X131855Y310200D01*
X132200Y309855D01*
X132600Y309575D01*
X133042Y309369D01*
X133514Y309243D01*
X134000Y309200D01*
X134350Y309231D01*
Y295000D01*
X108387D01*
Y299344D01*
X108553Y299107D01*
X109107Y298553D01*
X109750Y298103D01*
X110461Y297771D01*
X111219Y297568D01*
X112000Y297500D01*
X112781Y297568D01*
X113539Y297771D01*
X114250Y298103D01*
X114893Y298553D01*
X115447Y299107D01*
X115897Y299750D01*
X116229Y300461D01*
X116432Y301219D01*
X116500Y302000D01*
X116432Y302781D01*
X116229Y303539D01*
X115897Y304250D01*
X115447Y304893D01*
X114893Y305447D01*
X114250Y305897D01*
X113539Y306229D01*
X112781Y306432D01*
X112000Y306500D01*
X111219Y306432D01*
X110461Y306229D01*
X109750Y305897D01*
X109107Y305447D01*
X108553Y304893D01*
X108387Y304656D01*
Y310500D01*
G37*
G36*
Y404500D02*X134350D01*
Y346500D01*
X133355D01*
X133145Y346800D01*
X132800Y347145D01*
X132400Y347425D01*
X131958Y347631D01*
X131486Y347757D01*
X131000Y347800D01*
X130514Y347757D01*
X130042Y347631D01*
X129600Y347425D01*
X129200Y347145D01*
X128855Y346800D01*
X128575Y346400D01*
X128369Y345958D01*
X128243Y345486D01*
X128200Y345000D01*
X128243Y344514D01*
X128369Y344042D01*
X128575Y343600D01*
X128855Y343200D01*
X129200Y342855D01*
X129600Y342575D01*
X130042Y342369D01*
X130514Y342243D01*
X131000Y342200D01*
X131486Y342243D01*
X131958Y342369D01*
X132400Y342575D01*
X132800Y342855D01*
X133145Y343200D01*
X133355Y343500D01*
X134350D01*
Y331472D01*
X116378Y313500D01*
X108387D01*
Y322000D01*
X111000D01*
Y394000D01*
X108387D01*
Y404500D01*
G37*
G36*
X134350Y407500D02*X115613D01*
Y411860D01*
X115708Y411882D01*
X115829Y411933D01*
X115938Y412005D01*
X116034Y412094D01*
X116113Y412198D01*
X116172Y412315D01*
X116314Y412722D01*
X116417Y413142D01*
X116479Y413569D01*
X116500Y414000D01*
X116479Y414432D01*
X116417Y414859D01*
X116314Y415279D01*
X116172Y415686D01*
X116171D01*
X116112Y415802D01*
X116033Y415907D01*
X115937Y415996D01*
X115828Y416067D01*
X115707Y416118D01*
X115613Y416139D01*
Y421000D01*
X134350D01*
Y407500D01*
G37*
G36*
X115613D02*X112000D01*
Y409500D01*
X112431Y409521D01*
X112858Y409583D01*
X113278Y409686D01*
X113685Y409828D01*
Y409829D01*
X113801Y409888D01*
X113906Y409967D01*
X113995Y410063D01*
X114066Y410172D01*
X114117Y410293D01*
X114146Y410420D01*
X114153Y410550D01*
X114137Y410680D01*
X114099Y410805D01*
X114040Y410921D01*
X113961Y411026D01*
X113865Y411115D01*
X113756Y411186D01*
X113635Y411237D01*
X113508Y411266D01*
X113378Y411273D01*
X113248Y411257D01*
X113123Y411219D01*
X112852Y411124D01*
X112572Y411056D01*
X112287Y411014D01*
X112000Y411000D01*
Y417000D01*
X112287Y416987D01*
X112572Y416945D01*
X112852Y416877D01*
X113123Y416782D01*
Y416781D01*
X113248Y416743D01*
X113378Y416727D01*
X113509Y416734D01*
X113636Y416763D01*
X113757Y416814D01*
X113866Y416886D01*
X113962Y416975D01*
X114041Y417079D01*
X114100Y417196D01*
X114138Y417321D01*
X114154Y417451D01*
X114147Y417582D01*
X114118Y417709D01*
X114067Y417830D01*
X113995Y417939D01*
X113906Y418035D01*
X113802Y418114D01*
X113685Y418173D01*
X113278Y418315D01*
X112858Y418418D01*
X112431Y418480D01*
X112000Y418500D01*
Y421000D01*
X115613D01*
Y416139D01*
X115580Y416147D01*
X115450Y416154D01*
X115320Y416138D01*
X115195Y416100D01*
X115079Y416041D01*
X114974Y415962D01*
X114885Y415866D01*
X114814Y415757D01*
X114763Y415636D01*
X114734Y415509D01*
X114727Y415379D01*
X114743Y415249D01*
X114781Y415124D01*
X114876Y414853D01*
X114944Y414573D01*
X114986Y414288D01*
X115000Y414000D01*
X114986Y413713D01*
X114944Y413428D01*
X114876Y413148D01*
X114781Y412877D01*
X114780D01*
X114742Y412752D01*
X114726Y412622D01*
X114733Y412491D01*
X114762Y412364D01*
X114813Y412243D01*
X114885Y412134D01*
X114974Y412038D01*
X115078Y411959D01*
X115195Y411900D01*
X115320Y411862D01*
X115450Y411846D01*
X115581Y411853D01*
X115613Y411860D01*
Y407500D01*
G37*
G36*
X112000D02*X108387D01*
Y411861D01*
X108419Y411854D01*
X108549Y411847D01*
X108679Y411863D01*
X108804Y411901D01*
X108920Y411960D01*
X109025Y412039D01*
X109114Y412135D01*
X109185Y412244D01*
X109236Y412365D01*
X109265Y412492D01*
X109272Y412622D01*
X109256Y412752D01*
X109218Y412877D01*
X109123Y413148D01*
X109055Y413428D01*
X109013Y413713D01*
X109000Y414001D01*
X109013Y414288D01*
X109055Y414573D01*
X109123Y414853D01*
X109218Y415124D01*
X109219D01*
X109257Y415249D01*
X109273Y415379D01*
X109266Y415510D01*
X109237Y415637D01*
X109186Y415758D01*
X109114Y415867D01*
X109025Y415963D01*
X108921Y416042D01*
X108804Y416101D01*
X108679Y416139D01*
X108549Y416155D01*
X108418Y416148D01*
X108387Y416141D01*
Y421000D01*
X112000D01*
Y418500D01*
X111568Y418480D01*
X111141Y418418D01*
X110721Y418315D01*
X110314Y418173D01*
Y418172D01*
X110198Y418113D01*
X110093Y418034D01*
X110004Y417938D01*
X109933Y417829D01*
X109882Y417708D01*
X109853Y417581D01*
X109846Y417451D01*
X109862Y417321D01*
X109900Y417196D01*
X109959Y417080D01*
X110038Y416975D01*
X110134Y416886D01*
X110243Y416815D01*
X110364Y416764D01*
X110491Y416735D01*
X110621Y416728D01*
X110751Y416744D01*
X110876Y416782D01*
X111147Y416877D01*
X111427Y416945D01*
X111712Y416987D01*
X112000Y417000D01*
Y411000D01*
X111999D01*
X111712Y411014D01*
X111427Y411056D01*
X111147Y411124D01*
X110876Y411219D01*
Y411220D01*
X110751Y411258D01*
X110621Y411274D01*
X110490Y411267D01*
X110363Y411238D01*
X110242Y411187D01*
X110133Y411115D01*
X110037Y411026D01*
X109958Y410922D01*
X109899Y410805D01*
X109861Y410680D01*
X109845Y410550D01*
X109852Y410419D01*
X109881Y410292D01*
X109932Y410171D01*
X110004Y410062D01*
X110093Y409966D01*
X110197Y409887D01*
X110314Y409828D01*
X110721Y409686D01*
X111141Y409583D01*
X111568Y409521D01*
X111999Y409500D01*
X112000D01*
Y407500D01*
G37*
G36*
X102000Y310500D02*X108387D01*
Y304656D01*
X108103Y304250D01*
X107771Y303539D01*
X107568Y302781D01*
X107500Y302000D01*
X107568Y301219D01*
X107771Y300461D01*
X108103Y299750D01*
X108387Y299344D01*
Y295000D01*
X102000D01*
Y297500D01*
X102781Y297568D01*
X103539Y297771D01*
X104250Y298103D01*
X104893Y298553D01*
X105447Y299107D01*
X105897Y299750D01*
X106229Y300461D01*
X106432Y301219D01*
X106500Y302000D01*
X106432Y302781D01*
X106229Y303539D01*
X105897Y304250D01*
X105447Y304893D01*
X104893Y305447D01*
X104250Y305897D01*
X103539Y306229D01*
X102781Y306432D01*
X102000Y306500D01*
Y310500D01*
G37*
G36*
X108387Y313500D02*X102000D01*
Y322000D01*
X108387D01*
Y313500D01*
G37*
G36*
X92000Y310500D02*X102000D01*
Y306500D01*
X101219Y306432D01*
X100461Y306229D01*
X99750Y305897D01*
X99107Y305447D01*
X98553Y304893D01*
X98103Y304250D01*
X97771Y303539D01*
X97568Y302781D01*
X97500Y302000D01*
X97568Y301219D01*
X97771Y300461D01*
X98103Y299750D01*
X98553Y299107D01*
X99107Y298553D01*
X99750Y298103D01*
X100461Y297771D01*
X101219Y297568D01*
X102000Y297500D01*
Y295000D01*
X92000D01*
Y297500D01*
X92781Y297568D01*
X93539Y297771D01*
X94250Y298103D01*
X94893Y298553D01*
X95447Y299107D01*
X95897Y299750D01*
X96229Y300461D01*
X96432Y301219D01*
X96500Y302000D01*
X96432Y302781D01*
X96229Y303539D01*
X95897Y304250D01*
X95447Y304893D01*
X94893Y305447D01*
X94250Y305897D01*
X93539Y306229D01*
X92781Y306432D01*
X92000Y306500D01*
Y310500D01*
G37*
G36*
X82000D02*X92000D01*
Y306500D01*
X91219Y306432D01*
X90461Y306229D01*
X89750Y305897D01*
X89107Y305447D01*
X88553Y304893D01*
X88103Y304250D01*
X87771Y303539D01*
X87568Y302781D01*
X87500Y302000D01*
X87568Y301219D01*
X87771Y300461D01*
X88103Y299750D01*
X88553Y299107D01*
X89107Y298553D01*
X89750Y298103D01*
X90461Y297771D01*
X91219Y297568D01*
X92000Y297500D01*
Y295000D01*
X82000D01*
Y297500D01*
X82781Y297568D01*
X83539Y297771D01*
X84250Y298103D01*
X84893Y298553D01*
X85447Y299107D01*
X85897Y299750D01*
X86229Y300461D01*
X86432Y301219D01*
X86500Y302000D01*
X86432Y302781D01*
X86229Y303539D01*
X85897Y304250D01*
X85447Y304893D01*
X84893Y305447D01*
X84250Y305897D01*
X83539Y306229D01*
X82781Y306432D01*
X82000Y306500D01*
Y310500D01*
G37*
G36*
X102000Y313500D02*X82000D01*
Y322000D01*
X102000D01*
Y313500D01*
G37*
G36*
X82000D02*X76000D01*
X75943Y313495D01*
X75869D01*
X75798Y313482D01*
X75740Y313477D01*
X75681Y313461D01*
X75612Y313449D01*
X75549Y313426D01*
X75487Y313410D01*
X75429Y313383D01*
X75366Y313360D01*
X75306Y313325D01*
X75250Y313299D01*
X75202Y313265D01*
X75139Y313229D01*
X75082Y313181D01*
X75036Y313149D01*
X74995Y313108D01*
X74939Y313061D01*
X70939Y309061D01*
X70940Y309060D01*
X70903Y309016D01*
X70851Y308964D01*
X70809Y308904D01*
X70772Y308860D01*
X70743Y308810D01*
X70701Y308750D01*
X70671Y308686D01*
X70641Y308634D01*
X70622Y308581D01*
X70590Y308513D01*
X70570Y308437D01*
X70552Y308388D01*
X70542Y308333D01*
X70523Y308260D01*
X70516Y308185D01*
X70507Y308131D01*
Y308079D01*
X70500Y308000D01*
Y306239D01*
X70461Y306229D01*
X69750Y305897D01*
X69107Y305447D01*
X68553Y304893D01*
X68103Y304250D01*
X67771Y303539D01*
X67568Y302781D01*
X67500Y302000D01*
X67568Y301219D01*
X67771Y300461D01*
X68103Y299750D01*
X68553Y299107D01*
X69107Y298553D01*
X69750Y298103D01*
X70461Y297771D01*
X71219Y297568D01*
X72000Y297500D01*
X72781Y297568D01*
X73539Y297771D01*
X74250Y298103D01*
X74893Y298553D01*
X75447Y299107D01*
X75897Y299750D01*
X76229Y300461D01*
X76432Y301219D01*
X76500Y302000D01*
X76432Y302781D01*
X76229Y303539D01*
X75897Y304250D01*
X75447Y304893D01*
X74893Y305447D01*
X74250Y305897D01*
X73539Y306229D01*
X73500Y306239D01*
Y307380D01*
X76620Y310500D01*
X82000D01*
Y306500D01*
X81219Y306432D01*
X80461Y306229D01*
X79750Y305897D01*
X79107Y305447D01*
X78553Y304893D01*
X78103Y304250D01*
X77771Y303539D01*
X77568Y302781D01*
X77500Y302000D01*
X77568Y301219D01*
X77771Y300461D01*
X78103Y299750D01*
X78553Y299107D01*
X79107Y298553D01*
X79750Y298103D01*
X80461Y297771D01*
X81219Y297568D01*
X82000Y297500D01*
Y295000D01*
X62000D01*
Y297500D01*
X62781Y297568D01*
X63539Y297771D01*
X64250Y298103D01*
X64893Y298553D01*
X65447Y299107D01*
X65897Y299750D01*
X66229Y300461D01*
X66432Y301219D01*
X66500Y302000D01*
X66432Y302781D01*
X66229Y303539D01*
X65897Y304250D01*
X65447Y304893D01*
X64893Y305447D01*
X64250Y305897D01*
X63539Y306229D01*
X62781Y306432D01*
X62000Y306500D01*
Y322000D01*
X82000D01*
Y313500D01*
G37*
G36*
X62000Y295000D02*X52000D01*
Y297500D01*
X52781Y297568D01*
X53539Y297771D01*
X54250Y298103D01*
X54893Y298553D01*
X55447Y299107D01*
X55897Y299750D01*
X56229Y300461D01*
X56432Y301219D01*
X56500Y302000D01*
X56432Y302781D01*
X56229Y303539D01*
X55897Y304250D01*
X55447Y304893D01*
X54893Y305447D01*
X54250Y305897D01*
X53539Y306229D01*
X52781Y306432D01*
X52000Y306500D01*
Y322000D01*
X62000D01*
Y306500D01*
X61219Y306432D01*
X60461Y306229D01*
X59750Y305897D01*
X59107Y305447D01*
X58553Y304893D01*
X58103Y304250D01*
X57771Y303539D01*
X57568Y302781D01*
X57500Y302000D01*
X57568Y301219D01*
X57771Y300461D01*
X58103Y299750D01*
X58553Y299107D01*
X59107Y298553D01*
X59750Y298103D01*
X60461Y297771D01*
X61219Y297568D01*
X62000Y297500D01*
Y295000D01*
G37*
G36*
X52000D02*X42000D01*
Y297500D01*
X45000D01*
X45260Y297523D01*
X45513Y297590D01*
X45750Y297701D01*
X45964Y297851D01*
X46149Y298036D01*
X46299Y298250D01*
X46410Y298487D01*
X46477Y298740D01*
X46500Y299000D01*
Y305000D01*
X46477Y305260D01*
X46410Y305513D01*
X46299Y305750D01*
X46149Y305964D01*
X45964Y306149D01*
X45750Y306299D01*
X45513Y306410D01*
X45260Y306477D01*
X45000Y306500D01*
X42000D01*
Y322000D01*
X52000D01*
Y306500D01*
X51219Y306432D01*
X50461Y306229D01*
X49750Y305897D01*
X49107Y305447D01*
X48553Y304893D01*
X48103Y304250D01*
X47771Y303539D01*
X47568Y302781D01*
X47500Y302000D01*
X47568Y301219D01*
X47771Y300461D01*
X48103Y299750D01*
X48553Y299107D01*
X49107Y298553D01*
X49750Y298103D01*
X50461Y297771D01*
X51219Y297568D01*
X52000Y297500D01*
Y295000D01*
G37*
G36*
X42000D02*X35000D01*
Y322000D01*
X42000D01*
Y306500D01*
X39000D01*
X38740Y306477D01*
X38487Y306410D01*
X38250Y306299D01*
X38036Y306149D01*
X37851Y305964D01*
X37701Y305750D01*
X37590Y305513D01*
X37523Y305260D01*
X37500Y305000D01*
Y299000D01*
X37523Y298740D01*
X37590Y298487D01*
X37701Y298250D01*
X37851Y298036D01*
X38036Y297851D01*
X38250Y297701D01*
X38487Y297590D01*
X38740Y297523D01*
X39000Y297500D01*
X42000D01*
Y295000D01*
G37*
G36*
X102000Y404500D02*X108387D01*
Y394000D01*
X102000D01*
Y404500D01*
G37*
G36*
X108387Y407500D02*X102000D01*
Y409500D01*
X102781Y409568D01*
X103539Y409771D01*
X104250Y410103D01*
X104893Y410553D01*
X105447Y411107D01*
X105897Y411750D01*
X106229Y412461D01*
X106432Y413219D01*
X106500Y414000D01*
X106432Y414781D01*
X106229Y415539D01*
X105897Y416250D01*
X105447Y416893D01*
X104893Y417447D01*
X104250Y417897D01*
X103539Y418229D01*
X102781Y418432D01*
X102000Y418500D01*
Y421000D01*
X108387D01*
Y416141D01*
X108291Y416119D01*
X108170Y416068D01*
X108061Y415996D01*
X107965Y415907D01*
X107886Y415803D01*
X107827Y415686D01*
X107685Y415279D01*
X107582Y414859D01*
X107520Y414432D01*
X107500Y414001D01*
X107520Y413569D01*
X107582Y413142D01*
X107685Y412722D01*
X107827Y412315D01*
X107828D01*
X107887Y412199D01*
X107966Y412094D01*
X108062Y412005D01*
X108171Y411934D01*
X108292Y411883D01*
X108387Y411861D01*
Y407500D01*
G37*
G36*
X82000Y404500D02*X102000D01*
Y394000D01*
X82000D01*
Y404500D01*
G37*
G36*
X102000Y407500D02*X92000D01*
Y409500D01*
X92781Y409568D01*
X93539Y409771D01*
X94250Y410103D01*
X94893Y410553D01*
X95447Y411107D01*
X95897Y411750D01*
X96229Y412461D01*
X96432Y413219D01*
X96500Y414000D01*
X96432Y414781D01*
X96229Y415539D01*
X95897Y416250D01*
X95447Y416893D01*
X94893Y417447D01*
X94250Y417897D01*
X93539Y418229D01*
X92781Y418432D01*
X92000Y418500D01*
Y421000D01*
X102000D01*
Y418500D01*
X101219Y418432D01*
X100461Y418229D01*
X99750Y417897D01*
X99107Y417447D01*
X98553Y416893D01*
X98103Y416250D01*
X97771Y415539D01*
X97568Y414781D01*
X97500Y414000D01*
X97568Y413219D01*
X97771Y412461D01*
X98103Y411750D01*
X98553Y411107D01*
X99107Y410553D01*
X99750Y410103D01*
X100461Y409771D01*
X101219Y409568D01*
X102000Y409500D01*
Y407500D01*
G37*
G36*
X92000D02*X82000D01*
Y409500D01*
X82781Y409568D01*
X83539Y409771D01*
X84250Y410103D01*
X84893Y410553D01*
X85447Y411107D01*
X85897Y411750D01*
X86229Y412461D01*
X86432Y413219D01*
X86500Y414000D01*
X86432Y414781D01*
X86229Y415539D01*
X85897Y416250D01*
X85447Y416893D01*
X84893Y417447D01*
X84250Y417897D01*
X83539Y418229D01*
X82781Y418432D01*
X82000Y418500D01*
Y421000D01*
X92000D01*
Y418500D01*
X91219Y418432D01*
X90461Y418229D01*
X89750Y417897D01*
X89107Y417447D01*
X88553Y416893D01*
X88103Y416250D01*
X87771Y415539D01*
X87568Y414781D01*
X87500Y414000D01*
X87568Y413219D01*
X87771Y412461D01*
X88103Y411750D01*
X88553Y411107D01*
X89107Y410553D01*
X89750Y410103D01*
X90461Y409771D01*
X91219Y409568D01*
X92000Y409500D01*
Y407500D01*
G37*
G36*
X72000Y404500D02*X82000D01*
Y394000D01*
X72000D01*
Y404500D01*
G37*
G36*
X82000Y407500D02*X72000D01*
Y409500D01*
X72781Y409568D01*
X73539Y409771D01*
X74250Y410103D01*
X74893Y410553D01*
X75447Y411107D01*
X75897Y411750D01*
X76229Y412461D01*
X76432Y413219D01*
X76500Y414000D01*
X76432Y414781D01*
X76229Y415539D01*
X75897Y416250D01*
X75447Y416893D01*
X74893Y417447D01*
X74250Y417897D01*
X73539Y418229D01*
X72781Y418432D01*
X72000Y418500D01*
Y421000D01*
X82000D01*
Y418500D01*
X81219Y418432D01*
X80461Y418229D01*
X79750Y417897D01*
X79107Y417447D01*
X78553Y416893D01*
X78103Y416250D01*
X77771Y415539D01*
X77568Y414781D01*
X77500Y414000D01*
X77568Y413219D01*
X77771Y412461D01*
X78103Y411750D01*
X78553Y411107D01*
X79107Y410553D01*
X79750Y410103D01*
X80461Y409771D01*
X81219Y409568D01*
X82000Y409500D01*
Y407500D01*
G37*
G36*
X62000Y404500D02*X72000D01*
Y394000D01*
X62000D01*
Y404500D01*
G37*
G36*
X72000Y407500D02*X62000D01*
Y409500D01*
X62781Y409568D01*
X63539Y409771D01*
X64250Y410103D01*
X64893Y410553D01*
X65447Y411107D01*
X65897Y411750D01*
X66229Y412461D01*
X66432Y413219D01*
X66500Y414000D01*
X66432Y414781D01*
X66229Y415539D01*
X65897Y416250D01*
X65447Y416893D01*
X64893Y417447D01*
X64250Y417897D01*
X63539Y418229D01*
X62781Y418432D01*
X62000Y418500D01*
Y421000D01*
X72000D01*
Y418500D01*
X71219Y418432D01*
X70461Y418229D01*
X69750Y417897D01*
X69107Y417447D01*
X68553Y416893D01*
X68103Y416250D01*
X67771Y415539D01*
X67568Y414781D01*
X67500Y414000D01*
X67568Y413219D01*
X67771Y412461D01*
X68103Y411750D01*
X68553Y411107D01*
X69107Y410553D01*
X69750Y410103D01*
X70461Y409771D01*
X71219Y409568D01*
X72000Y409500D01*
Y407500D01*
G37*
G36*
X52000Y404500D02*X62000D01*
Y394000D01*
X52000D01*
Y404500D01*
G37*
G36*
X62000Y407500D02*X52000D01*
Y409500D01*
X52781Y409568D01*
X53539Y409771D01*
X54250Y410103D01*
X54893Y410553D01*
X55447Y411107D01*
X55897Y411750D01*
X56229Y412461D01*
X56432Y413219D01*
X56500Y414000D01*
X56432Y414781D01*
X56229Y415539D01*
X55897Y416250D01*
X55447Y416893D01*
X54893Y417447D01*
X54250Y417897D01*
X53539Y418229D01*
X52781Y418432D01*
X52000Y418500D01*
Y421000D01*
X62000D01*
Y418500D01*
X61219Y418432D01*
X60461Y418229D01*
X59750Y417897D01*
X59107Y417447D01*
X58553Y416893D01*
X58103Y416250D01*
X57771Y415539D01*
X57568Y414781D01*
X57500Y414000D01*
X57568Y413219D01*
X57771Y412461D01*
X58103Y411750D01*
X58553Y411107D01*
X59107Y410553D01*
X59750Y410103D01*
X60461Y409771D01*
X61219Y409568D01*
X62000Y409500D01*
Y407500D01*
G37*
G36*
X52000D02*X44621D01*
X43500Y408621D01*
Y409500D01*
X45000D01*
X45260Y409523D01*
X45513Y409590D01*
X45750Y409701D01*
X45964Y409851D01*
X46149Y410036D01*
X46299Y410250D01*
X46410Y410487D01*
X46477Y410740D01*
X46500Y411000D01*
Y417000D01*
X46477Y417260D01*
X46410Y417513D01*
X46299Y417750D01*
X46149Y417964D01*
X45964Y418149D01*
X45750Y418299D01*
X45513Y418410D01*
X45260Y418477D01*
X45000Y418500D01*
X39000D01*
X38740Y418477D01*
X38487Y418410D01*
X38250Y418299D01*
X38036Y418149D01*
X37851Y417964D01*
X37701Y417750D01*
X37590Y417513D01*
X37523Y417260D01*
X37500Y417000D01*
Y411000D01*
X37523Y410740D01*
X37590Y410487D01*
X37701Y410250D01*
X37851Y410036D01*
X38036Y409851D01*
X38250Y409701D01*
X38487Y409590D01*
X38740Y409523D01*
X39000Y409500D01*
X40500D01*
Y408000D01*
X40506Y407932D01*
Y407870D01*
X40517Y407807D01*
X40523Y407740D01*
X40540Y407676D01*
X40551Y407613D01*
X40572Y407555D01*
X40590Y407487D01*
X40619Y407425D01*
X40640Y407367D01*
X40673Y407310D01*
X40701Y407250D01*
X40738Y407197D01*
X40771Y407140D01*
X40814Y407089D01*
X40851Y407036D01*
X40897Y406990D01*
X40939Y406940D01*
X42940Y404939D01*
X42990Y404897D01*
X43036Y404851D01*
X43090Y404813D01*
X43140Y404771D01*
X43197Y404738D01*
X43250Y404701D01*
X43311Y404672D01*
X43367Y404640D01*
X43424Y404619D01*
X43487Y404590D01*
X43555Y404572D01*
X43613Y404551D01*
X43675Y404540D01*
X43740Y404523D01*
X43807Y404517D01*
X43870Y404506D01*
X43932D01*
X44000Y404500D01*
X52000D01*
Y394000D01*
X35000D01*
Y421000D01*
X52000D01*
Y418500D01*
X51219Y418432D01*
X50461Y418229D01*
X49750Y417897D01*
X49107Y417447D01*
X48553Y416893D01*
X48103Y416250D01*
X47771Y415539D01*
X47568Y414781D01*
X47500Y414000D01*
X47568Y413219D01*
X47771Y412461D01*
X48103Y411750D01*
X48553Y411107D01*
X49107Y410553D01*
X49750Y410103D01*
X50461Y409771D01*
X51219Y409568D01*
X52000Y409500D01*
Y407500D01*
G37*
G54D11*X143500Y357500D02*Y358500D01*
X146000Y361000D01*
Y362000D01*
X144000Y364000D01*
X138500Y378000D02*Y386500D01*
X139000Y383000D02*Y378500D01*
X138500Y378000D01*
X155000Y417000D02*X180086D01*
X182000Y415086D01*
Y398000D01*
X160000Y406000D02*X162000Y404000D01*
X155000Y382000D02*X192000D01*
X42000Y414000D02*Y408000D01*
X44000Y406000D01*
X160000D01*
X190000Y415000D02*X198000Y407000D01*
Y388000D02*X192000Y382000D01*
X198000Y386000D02*X197000Y387000D01*
X198000Y388000D01*
Y407000D02*Y385000D01*
X162000Y404000D02*Y389000D01*
X165000Y386000D01*
X138500Y386500D02*X138000Y387000D01*
Y384000D01*
X139000Y383000D01*
X153000Y349000D02*Y350500D01*
X149000Y344000D02*Y350500D01*
X155000Y327000D02*Y310000D01*
X157000Y308000D01*
X72000Y302000D02*Y308000D01*
X76000Y312000D01*
X117000D01*
X149000Y344000D01*
X134000Y312000D02*Y323000D01*
X131000Y345000D02*X136000D01*
X139000Y348000D01*
Y350500D01*
X138500Y351000D01*
X158500Y357500D02*Y358500D01*
X162000Y362000D01*
X164000Y360000D02*Y358000D01*
X163500Y357500D01*
X162000Y362000D02*X159000Y365000D01*
X164000Y360000D01*
X159000Y365000D02*X163000Y369000D01*
Y371000D01*
X163500Y371500D01*
X158500D02*Y370500D01*
X153500Y378000D02*Y380500D01*
X155000Y382000D01*
X158500Y370500D02*X161000Y368000D01*
X173000Y365000D02*X169000Y361000D01*
Y358000D01*
X173000Y365000D02*X169000Y369000D01*
Y371000D01*
X168500Y371500D01*
X173500D02*Y369500D01*
X171000Y367000D01*
X169000Y358000D02*X168500Y357500D01*
X173500D02*Y359500D01*
X171000Y362000D01*
X161000Y343000D02*X157000Y347000D01*
X155000D01*
X153000Y349000D01*
Y350500D02*X153500Y351000D01*
X149000Y350500D02*X148500Y351000D01*
X169000Y346000D02*Y329000D01*
X162000Y322000D01*
Y317000D01*
X157000Y308000D02*X173000D01*
X182000Y317000D01*
X191000Y307000D02*X192000D01*
X198000Y313000D01*
Y386000D01*
G54D12*G36*
X39000Y417000D02*Y411000D01*
X45000D01*
Y417000D01*
X39000D01*
G37*
G36*
Y305000D02*Y299000D01*
X45000D01*
Y305000D01*
X39000D01*
G37*
G54D13*X52000Y414000D03*
Y302000D03*
X62000Y414000D03*
Y302000D03*
X72000Y414000D03*
Y302000D03*
X82000D03*
X92000D03*
X102000D03*
X112000D03*
X82000Y414000D03*
X92000D03*
X102000D03*
X112000D03*
G54D12*G36*
X189000Y385000D02*Y379000D01*
X195000D01*
Y385000D01*
X189000D01*
G37*
G54D13*X192000Y372000D03*
Y362000D03*
Y352000D03*
Y342000D03*
Y332000D03*
G54D12*G36*
X159000Y320000D02*Y314000D01*
X165000D01*
Y320000D01*
X159000D01*
G37*
G54D13*X172000Y317000D03*
X182000D03*
X192000D03*
G54D12*G36*
X159000Y401000D02*Y395000D01*
X165000D01*
Y401000D01*
X159000D01*
G37*
G54D13*X172000Y398000D03*
X182000D03*
X192000D03*
G54D14*X155000Y417000D03*
X190000Y415000D03*
X173000Y365000D03*
X159000D03*
X144000Y364000D03*
X153000Y343000D03*
X161000D03*
X169000Y346000D03*
X165000Y386000D03*
X138000Y387000D03*
X155000Y327000D03*
X191000Y307000D03*
X134000Y312000D03*
Y323000D03*
X131000Y345000D03*
G54D17*X173500Y357500D02*Y351000D01*
X168500Y357500D02*Y351000D01*
X163500Y357500D02*Y351000D01*
X158500Y357500D02*Y351000D01*
X153500Y357500D02*Y351000D01*
X138500Y378000D02*Y371500D01*
Y357500D02*Y351000D01*
X143500Y378000D02*Y371500D01*
Y357500D02*Y351000D01*
X148500Y378000D02*Y371500D01*
Y357500D02*Y351000D01*
X153500Y378000D02*Y371500D01*
X158500Y378000D02*Y371500D01*
X163500Y378000D02*Y371500D01*
X168500Y378000D02*Y371500D01*
X173500Y378000D02*Y371500D01*
G54D18*G54D12*M02*
