G04 start of page 2 for group 0 idx 0 *
G04 Title: (unknown), component *
G04 Creator: pcb 20091103 *
G04 CreationDate: Mon 21 Mar 2011 05:54:21 AM GMT UTC *
G04 For: gjhurlbu *
G04 Format: Gerber/RS-274X *
G04 PCB-Dimensions: 600000 500000 *
G04 PCB-Coordinate-Origin: lower left *
%MOIN*%
%FSLAX25Y25*%
%LNFRONT*%
%ADD11C,0.0100*%
%ADD12C,0.0200*%
%ADD13C,0.0600*%
%ADD14C,0.0360*%
%ADD15R,0.0146X0.0146*%
%ADD16R,0.0150X0.0150*%
%ADD17C,0.0380*%
G54D11*X102500Y457500D02*X110000D01*
X102500Y451500D02*Y457500D01*
X115500Y420000D02*X116500Y421000D01*
X110000Y457500D02*X116500Y451000D01*
X110000Y430500D02*X116000D01*
X116500Y431000D01*
X109000Y429500D02*X110000Y430500D01*
X104500Y433500D02*Y448000D01*
X107500Y451000D01*
X116500D01*
X85500Y415000D02*Y412500D01*
Y424000D02*Y426000D01*
Y412500D02*X86000Y412000D01*
X92000D01*
X93000Y413000D01*
X88100Y417000D02*Y418900D01*
X88000Y419000D01*
X88100Y424000D02*Y425600D01*
X84000Y419000D02*X97000D01*
X98500Y417500D01*
X85629Y433662D02*X90338D01*
X91000Y433000D01*
X85500Y426000D02*X89000Y429500D01*
X88100Y425600D02*X89000Y426500D01*
X91500D01*
X89000Y429500D02*X109000D01*
X85629Y438779D02*X89779D01*
X85629Y436221D02*X88721D01*
X90000Y437500D01*
X89779Y438779D02*X102500Y451500D01*
X90000Y437500D02*Y439000D01*
X73662Y449338D02*X72000Y451000D01*
X73000Y450000D02*X72000Y451000D01*
X75000Y450000D02*X73000D01*
X79000Y451000D02*Y445850D01*
X78779Y445629D01*
X73662D02*Y449338D01*
X76221Y445629D02*Y448779D01*
X75000Y450000D01*
X81338Y445629D02*Y447338D01*
X69371Y441338D02*X66338D01*
X66000Y441000D01*
Y440000D01*
X65000Y439000D01*
X69150D01*
X67779Y436221D02*X65000Y439000D01*
X69150D02*X69371Y438779D01*
Y436221D02*X67779D01*
X69371Y433662D02*X67162D01*
X65000Y431500D01*
X81338Y447338D02*X83000Y449000D01*
X85000D01*
X86000Y450000D01*
X90000Y446000D01*
Y442000D01*
X89000Y441000D01*
X85967D01*
X85629Y441338D01*
X76221Y429371D02*Y427221D01*
X76000Y427000D01*
X75500D01*
X78779Y429371D02*Y426779D01*
X75000Y419500D02*X79500D01*
X80500Y420500D01*
X83000Y417000D02*Y418000D01*
X84000Y419000D01*
X80500Y420500D02*Y421900D01*
X80400Y422000D01*
X78779Y426779D02*X77000Y425000D01*
Y424000D01*
X76000Y423000D01*
X81338Y429371D02*Y427662D01*
X83000Y426000D01*
Y424000D01*
X73662Y429371D02*Y427662D01*
X75500Y427000D02*X72500Y424000D01*
X73662Y427662D02*X73162D01*
X72500Y427000D01*
Y424000D02*Y422000D01*
X75000Y419500D01*
X72500Y427000D02*X71000D01*
X69000Y425000D01*
X65000Y431500D02*Y423500D01*
X77000Y411500D01*
X79500D01*
X80000Y412000D01*
Y414600D01*
X80400Y415000D01*
G54D12*G36*
X89500Y460500D02*Y454500D01*
X95500D01*
Y460500D01*
X89500D01*
G37*
G54D13*X102500Y457500D03*
G54D12*G36*
X113500Y454000D02*Y448000D01*
X119500D01*
Y454000D01*
X113500D01*
G37*
G54D13*X116500Y441000D03*
Y431000D03*
Y421000D03*
G54D14*X65000Y439000D03*
X79000Y451000D03*
X72000D03*
X86000Y450000D03*
X93000Y413000D03*
X91000Y433000D03*
X91500Y426500D03*
X76000Y423000D03*
X69000Y425000D03*
X98500Y417500D03*
X104500Y433500D03*
G54D15*X73662Y431457D02*Y429371D01*
X76221Y431457D02*Y429371D01*
X78779Y431457D02*Y429371D01*
X81338Y431457D02*Y429371D01*
X83543Y433662D02*X85629D01*
X83543Y436221D02*X85629D01*
X83543Y438779D02*X85629D01*
X83543Y441338D02*X85629D01*
G54D16*X88100Y424000D02*Y422000D01*
Y417000D02*Y415000D01*
X85500Y424000D02*Y422000D01*
X83000Y424000D02*Y422000D01*
X80400Y424000D02*Y422000D01*
Y417000D02*Y415000D01*
X83000Y417000D02*Y415000D01*
X85500Y417000D02*Y415000D01*
G54D15*X81338Y445629D02*Y443543D01*
X78779Y445629D02*Y443543D01*
X76221Y445629D02*Y443543D01*
X69371Y436221D02*X71457D01*
X69371Y433662D02*X71457D01*
X73662Y445629D02*Y443543D01*
X69371Y441338D02*X71457D01*
X69371Y438779D02*X71457D01*
G54D12*G36*
X73367Y441633D02*Y433366D01*
X81634D01*
Y441633D01*
X73367D01*
G37*
G54D17*G54D12*M02*
