G04 start of page 8 for group -4078 idx -4078 *
G04 Title: (unknown), bottomsilk *
G04 Creator: pcb 20091103 *
G04 CreationDate: Mon 21 Mar 2011 05:54:21 AM GMT UTC *
G04 For: gjhurlbu *
G04 Format: Gerber/RS-274X *
G04 PCB-Dimensions: 600000 500000 *
G04 PCB-Coordinate-Origin: lower left *
%MOIN*%
%FSLAX25Y25*%
%LNBACKSILK*%
%ADD11C,0.0100*%
%ADD23C,0.0080*%
G54D23*X78564Y460648D02*X79350D01*
X78564Y455138D02*X79350D01*
X100362Y427350D02*Y426564D01*
X94852Y427350D02*Y426564D01*
G54D11*X75764Y449636D02*X77764D01*
X78264Y450136D01*
Y451136D01*
X77764Y451636D02*X78264Y451136D01*
X76264Y451636D02*X77764D01*
X76264Y449636D02*Y453636D01*
Y451636D02*X78264Y453636D01*
X79965D02*X80965D01*
X80465Y449636D02*Y453636D01*
X79465Y450636D02*X80465Y449636D01*
X93393Y426757D02*Y428257D01*
X92893Y428757D02*X93393Y428257D01*
X89893Y428757D02*X92893D01*
X89893D02*X89393Y428257D01*
Y426757D02*Y428257D01*
X93393Y424056D02*Y425056D01*
X89393Y424556D02*X93393D01*
X90393Y425556D02*X89393Y424556D01*
M02*
