G04 start of page 7 for group -4079 idx -4079 *
G04 Title: (unknown), topsilk *
G04 Creator: pcb 20091103 *
G04 CreationDate: Mon 21 Mar 2011 05:54:21 AM GMT UTC *
G04 For: gjhurlbu *
G04 Format: Gerber/RS-274X *
G04 PCB-Dimensions: 600000 500000 *
G04 PCB-Coordinate-Origin: lower left *
%MOIN*%
%FSLAX25Y25*%
%LNFRONTSILK*%
%ADD11C,0.0100*%
G54D11*X22500Y407500D02*X125000D01*
X60000Y465000D02*Y407500D01*
X22500Y465000D02*X125000D01*
Y407500D02*Y465000D01*
X32500Y415000D02*X15000D01*
Y457500D02*X32500D01*
X15000D02*X22500Y465000D01*
X15000Y415000D02*X22500Y407500D01*
X32500Y415000D02*G75*G03X52500Y435000I0J20000D01*G01*
G75*G03X30000Y457500I-22500J0D01*G01*
X27000Y463500D02*X29000D01*
X29500Y463000D01*
Y462000D01*
X29000Y461500D02*X29500Y462000D01*
X27500Y461500D02*X29000D01*
X27500Y463500D02*Y459500D01*
Y461500D02*X29500Y459500D01*
X31201D02*X32701D01*
X30701Y460000D02*X31201Y459500D01*
X30701Y461000D02*Y460000D01*
Y461000D02*X31201Y461500D01*
X32201D01*
X32701Y461000D01*
X30701Y460500D02*X32701D01*
Y461000D02*Y460500D01*
X33902Y461500D02*Y460500D01*
X34902Y459500D01*
X35902Y460500D01*
Y461500D02*Y460500D01*
X39403Y459500D02*X40403D01*
X39903Y463500D02*Y459500D01*
X38903Y462500D02*X39903Y463500D01*
X41604Y459500D02*X42104D01*
X43305Y460000D02*X43805Y459500D01*
X43305Y463000D02*Y460000D01*
Y463000D02*X43805Y463500D01*
X44805D01*
X45305Y463000D01*
Y460000D01*
X44805Y459500D02*X45305Y460000D01*
X43805Y459500D02*X44805D01*
X43305Y460500D02*X45305Y462500D01*
X25000Y409500D02*X25500Y409000D01*
X25000Y412500D02*X25500Y413000D01*
X25000Y412500D02*Y409500D01*
X27201Y411000D02*X28701D01*
X26701Y410500D02*X27201Y411000D01*
X26701Y410500D02*Y409500D01*
X27201Y409000D01*
X28701D01*
X29902Y413000D02*X30402Y412500D01*
Y409500D01*
X29902Y409000D02*X30402Y409500D01*
X33403Y412500D02*X33903Y413000D01*
X35403D01*
X35903Y412500D01*
Y411500D01*
X33403Y409000D02*X35903Y411500D01*
X33403Y409000D02*X35903D01*
X37104Y409500D02*X37604Y409000D01*
X37104Y412500D02*Y409500D01*
Y412500D02*X37604Y413000D01*
X38604D01*
X39104Y412500D01*
Y409500D01*
X38604Y409000D02*X39104Y409500D01*
X37604Y409000D02*X38604D01*
X37104Y410000D02*X39104Y412000D01*
X40805Y409000D02*X41805D01*
X41305Y413000D02*Y409000D01*
X40305Y412000D02*X41305Y413000D01*
X43506Y409000D02*X44506D01*
X44006Y413000D02*Y409000D01*
X43006Y412000D02*X44006Y413000D01*
X49507D02*X50007Y412500D01*
X48007Y413000D02*X49507D01*
X47507Y412500D02*X48007Y413000D01*
X47507Y412500D02*Y409500D01*
X48007Y409000D01*
X49507D01*
X50007Y409500D01*
Y410500D02*Y409500D01*
X49507Y411000D02*X50007Y410500D01*
X48507Y411000D02*X49507D01*
X51208Y413000D02*X52708D01*
Y409500D01*
X52208Y409000D02*X52708Y409500D01*
X51708Y409000D02*X52208D01*
X51208Y409500D02*X51708Y409000D01*
X53909Y413000D02*Y409000D01*
X56409Y413000D02*Y409000D01*
X53909Y411000D02*X56409D01*
X27000Y463500D02*X29000D01*
X29500Y463000D01*
Y462000D01*
X29000Y461500D02*X29500Y462000D01*
X27500Y461500D02*X29000D01*
X27500Y463500D02*Y459500D01*
Y461500D02*X29500Y459500D01*
X31201D02*X32701D01*
X30701Y460000D02*X31201Y459500D01*
X30701Y461000D02*Y460000D01*
Y461000D02*X31201Y461500D01*
X32201D01*
X32701Y461000D01*
X30701Y460500D02*X32701D01*
Y461000D02*Y460500D01*
X33902Y461500D02*Y460500D01*
X34902Y459500D01*
X35902Y460500D01*
Y461500D02*Y460500D01*
X39403Y459500D02*X40403D01*
X39903Y463500D02*Y459500D01*
X38903Y462500D02*X39903Y463500D01*
X41604Y459500D02*X42104D01*
X43305Y460000D02*X43805Y459500D01*
X43305Y463000D02*Y460000D01*
Y463000D02*X43805Y463500D01*
X44805D01*
X45305Y463000D01*
Y460000D01*
X44805Y459500D02*X45305Y460000D01*
X43805Y459500D02*X44805D01*
X43305Y460500D02*X45305Y462500D01*
X54500Y457000D02*X58000D01*
X58500Y456500D01*
Y455000D01*
X58000Y454500D01*
X54500D02*X58000D01*
X56500Y457000D02*Y454500D01*
Y452799D02*Y451299D01*
X56000Y453299D02*X56500Y452799D01*
X55000Y453299D02*X56000D01*
X55000D02*X54500Y452799D01*
Y451299D01*
X56500Y449598D02*Y448098D01*
X56000Y450098D02*X56500Y449598D01*
X55000Y450098D02*X56000D01*
X55000D02*X54500Y449598D01*
Y448098D01*
Y446397D02*Y444897D01*
X55000Y446897D02*X54500Y446397D01*
X55000Y446897D02*X56000D01*
X56500Y446397D01*
Y445397D01*
X56000Y444897D01*
X55500Y446897D02*Y444897D01*
X56000D01*
X55000Y443696D02*X58500D01*
X55000D02*X54500Y443196D01*
Y442195D02*Y441695D01*
X58500Y438694D02*Y436694D01*
X58000Y436194D01*
X57000D02*X58000D01*
X56500Y436694D02*X57000Y436194D01*
X56500Y438194D02*Y436694D01*
X54500Y438194D02*X58500D01*
X56500D02*X54500Y436194D01*
Y434493D02*Y432993D01*
X55000Y434993D02*X54500Y434493D01*
X55000Y434993D02*X56000D01*
X56500Y434493D01*
Y433493D01*
X56000Y432993D01*
X55500Y434993D02*Y432993D01*
X56000D01*
X54500Y431292D02*X56000D01*
X56500Y430792D01*
Y430292D01*
X56000Y429792D01*
X54500D02*X56000D01*
X56500Y429292D01*
Y428792D01*
X56000Y428292D01*
X54500D02*X56000D01*
X56500Y431792D02*X56000Y431292D01*
X55000Y427091D02*X56000D01*
X56500Y426591D01*
Y425591D01*
X56000Y425091D01*
X55000D02*X56000D01*
X54500Y425591D02*X55000Y425091D01*
X54500Y426591D02*Y425591D01*
X55000Y427091D02*X54500Y426591D01*
X55000Y423390D02*X58500D01*
X55000D02*X54500Y422890D01*
X57000Y423890D02*Y422890D01*
X54500Y421389D02*Y419889D01*
X55000Y421889D02*X54500Y421389D01*
X55000Y421889D02*X56000D01*
X56500Y421389D01*
Y420389D01*
X56000Y419889D01*
X55500Y421889D02*Y419889D01*
X56000D01*
X87358Y447358D02*X88858Y448858D01*
X67642Y447358D02*Y427642D01*
Y447358D02*X87358D01*
Y427642D01*
X67642D02*X87358D01*
X87500Y462500D02*X97500D01*
Y452500D01*
X87500Y462500D02*Y452500D01*
Y462500D02*X107500D01*
Y452500D01*
X87500D02*X107500D01*
X121500Y446000D02*Y456000D01*
X111500Y446000D02*X121500D01*
Y456000D02*X111500D01*
X121500Y416000D02*Y456000D01*
X111500Y416000D02*X121500D01*
X111500Y456000D02*Y416000D01*
X89500Y425500D02*Y413600D01*
X78900Y425500D02*X89500D01*
X78900D02*Y413600D01*
X89500D01*
Y425500D02*X90500Y426500D01*
X90408Y440358D02*X93908D01*
X90408D02*X89908Y439858D01*
Y438858D01*
X90408Y438358D01*
X93908D01*
X89908Y436657D02*Y435657D01*
Y436157D02*X93908D01*
X92908Y437157D02*X93908Y436157D01*
X95000Y450000D02*X96500D01*
Y446500D01*
X96000Y446000D02*X96500Y446500D01*
X95500Y446000D02*X96000D01*
X95000Y446500D02*X95500Y446000D01*
X98201D02*X99201D01*
X98701Y450000D02*Y446000D01*
X97701Y449000D02*X98701Y450000D01*
X91800Y422900D02*X95300D01*
X91800D02*X91300Y422400D01*
Y421400D01*
X91800Y420900D01*
X95300D01*
X94800Y419699D02*X95300Y419199D01*
Y417699D01*
X94800Y417199D01*
X93800D02*X94800D01*
X91300Y419699D02*X93800Y417199D01*
X91300Y419699D02*Y417199D01*
X105000Y450500D02*Y449000D01*
X105500Y451000D02*X105000Y450500D01*
X105500Y451000D02*X108500D01*
X109000Y450500D01*
Y449000D01*
X105500Y447799D02*X108500D01*
X109000Y447299D01*
Y446299D01*
X108500Y445799D01*
X105500D02*X108500D01*
X105000Y446299D02*X105500Y445799D01*
X105000Y447299D02*Y446299D01*
X105500Y447799D02*X105000Y447299D01*
Y444598D02*X109000D01*
X108500D02*X109000D01*
X108500D02*X106000Y442098D01*
X105000D02*X109000D01*
X105000Y440897D02*X109000D01*
X108500D02*X109000D01*
X108500D02*X106000Y438397D01*
X105000D02*X109000D01*
X105000Y436696D02*Y435696D01*
Y436196D02*X109000D01*
X108000Y437196D02*X109000Y436196D01*
M02*
