G04 start of page 3 for group 1 idx 1 *
G04 Title: (unknown), solder *
G04 Creator: pcb 20091103 *
G04 CreationDate: Mon 14 Mar 2011 05:58:12 AM GMT UTC *
G04 For: gjhurlbu *
G04 Format: Gerber/RS-274X *
G04 PCB-Dimensions: 600000 500000 *
G04 PCB-Coordinate-Origin: lower left *
%MOIN*%
%FSLAX25Y25*%
%LNBACK*%
%ADD11C,0.0100*%
%ADD12C,0.0200*%
%ADD13C,0.0600*%
%ADD14C,0.0560*%
%ADD15C,0.1150*%
%ADD16C,0.0360*%
%ADD18R,0.0200X0.0200*%
%ADD20C,0.0380*%
%ADD21C,0.0910*%
%ADD22R,0.0590X0.0590*%
G54D12*G36*
X241500Y413000D02*X251000D01*
Y373000D01*
X241500D01*
Y387950D01*
X242759Y388060D01*
X243980Y388387D01*
X245125Y388921D01*
X246160Y389646D01*
X247054Y390540D01*
X247779Y391575D01*
X248313Y392720D01*
X248640Y393941D01*
X248750Y395200D01*
X248640Y396459D01*
X248313Y397680D01*
X247779Y398825D01*
X247054Y399860D01*
X246160Y400754D01*
X245125Y401479D01*
X243980Y402013D01*
X242759Y402340D01*
X241500Y402450D01*
Y413000D01*
G37*
G36*
X234232D02*X241500D01*
Y402450D01*
X240241Y402340D01*
X239020Y402013D01*
X237875Y401479D01*
X236840Y400754D01*
X235946Y399860D01*
X235221Y398825D01*
X234687Y397680D01*
X234360Y396459D01*
X234250Y395200D01*
X234360Y393941D01*
X234687Y392720D01*
X235221Y391575D01*
X235946Y390540D01*
X236840Y389646D01*
X237875Y388921D01*
X239020Y388387D01*
X240241Y388060D01*
X241500Y387950D01*
Y373000D01*
X234232D01*
Y405344D01*
X234266Y405347D01*
X234392Y405381D01*
X234511Y405437D01*
X234618Y405512D01*
X234710Y405604D01*
X234785Y405711D01*
X234840Y405830D01*
X234955Y406197D01*
X235037Y406572D01*
X235085Y406954D01*
X235099Y407338D01*
X235079Y407722D01*
X235024Y408103D01*
X234936Y408477D01*
X234814Y408841D01*
Y408842D01*
X234757Y408959D01*
X234680Y409065D01*
X234586Y409156D01*
X234477Y409229D01*
X234358Y409282D01*
X234232Y409314D01*
Y413000D01*
G37*
G36*
X230829Y412803D02*X231547Y412865D01*
X232051Y413000D01*
X234232D01*
Y409314D01*
X234231D01*
X234101Y409323D01*
X233971Y409309D01*
X233845Y409273D01*
X233728Y409216D01*
X233622Y409139D01*
X233531Y409045D01*
X233458Y408936D01*
X233405Y408817D01*
X233373Y408690D01*
X233364Y408560D01*
X233378Y408430D01*
X233414Y408304D01*
X233493Y408066D01*
X233550Y407823D01*
X233586Y407575D01*
X233599Y407325D01*
X233590Y407075D01*
X233559Y406826D01*
X233506Y406582D01*
X233431Y406343D01*
X233430Y406342D01*
X233396Y406216D01*
X233385Y406085D01*
X233396Y405955D01*
X233430Y405829D01*
X233486Y405710D01*
X233561Y405603D01*
X233653Y405511D01*
X233760Y405436D01*
X233879Y405381D01*
X234005Y405347D01*
X234136Y405336D01*
X234232Y405344D01*
Y373000D01*
X230829D01*
Y403001D01*
X230837D01*
X231221Y403021D01*
X231602Y403076D01*
X231976Y403164D01*
X232340Y403286D01*
X232341D01*
X232458Y403343D01*
X232564Y403420D01*
X232655Y403514D01*
X232728Y403623D01*
X232781Y403742D01*
X232813Y403869D01*
X232822Y403999D01*
X232808Y404129D01*
X232772Y404255D01*
X232715Y404372D01*
X232638Y404478D01*
X232544Y404569D01*
X232435Y404642D01*
X232316Y404695D01*
X232189Y404727D01*
X232059Y404736D01*
X231929Y404722D01*
X231803Y404686D01*
X231565Y404607D01*
X231322Y404550D01*
X231074Y404514D01*
X230829Y404501D01*
Y410098D01*
X231025Y410091D01*
X231274Y410060D01*
X231518Y410007D01*
X231757Y409932D01*
X231758Y409931D01*
X231884Y409897D01*
X232015Y409886D01*
X232145Y409897D01*
X232271Y409931D01*
X232390Y409987D01*
X232497Y410062D01*
X232589Y410154D01*
X232664Y410261D01*
X232719Y410380D01*
X232753Y410506D01*
X232764Y410637D01*
X232753Y410767D01*
X232719Y410893D01*
X232663Y411012D01*
X232588Y411119D01*
X232496Y411211D01*
X232389Y411286D01*
X232270Y411341D01*
X231903Y411456D01*
X231528Y411538D01*
X231146Y411586D01*
X230829Y411598D01*
Y412803D01*
G37*
G36*
X227368Y413000D02*X229549D01*
X230053Y412865D01*
X230800Y412800D01*
X230829Y412803D01*
Y411598D01*
X230762Y411600D01*
X230378Y411580D01*
X229997Y411525D01*
X229623Y411437D01*
X229259Y411315D01*
X229258D01*
X229141Y411258D01*
X229035Y411181D01*
X228944Y411087D01*
X228871Y410978D01*
X228818Y410859D01*
X228786Y410732D01*
X228777Y410602D01*
X228791Y410472D01*
X228827Y410346D01*
X228884Y410229D01*
X228961Y410123D01*
X229055Y410032D01*
X229164Y409959D01*
X229283Y409906D01*
X229410Y409874D01*
X229540Y409865D01*
X229670Y409879D01*
X229796Y409915D01*
X230034Y409994D01*
X230277Y410051D01*
X230525Y410087D01*
X230775Y410100D01*
X230829Y410098D01*
Y404501D01*
X230824D01*
X230574Y404510D01*
X230325Y404541D01*
X230081Y404594D01*
X229842Y404669D01*
X229841Y404670D01*
X229715Y404704D01*
X229584Y404715D01*
X229454Y404704D01*
X229328Y404670D01*
X229209Y404614D01*
X229102Y404539D01*
X229010Y404447D01*
X228935Y404340D01*
X228880Y404221D01*
X228846Y404095D01*
X228835Y403964D01*
X228846Y403834D01*
X228880Y403708D01*
X228936Y403589D01*
X229011Y403482D01*
X229103Y403390D01*
X229210Y403315D01*
X229329Y403260D01*
X229696Y403145D01*
X230071Y403063D01*
X230453Y403015D01*
X230829Y403001D01*
Y373000D01*
X227368D01*
Y405287D01*
X227498Y405278D01*
X227628Y405292D01*
X227754Y405328D01*
X227871Y405385D01*
X227977Y405462D01*
X228068Y405556D01*
X228141Y405665D01*
X228194Y405784D01*
X228226Y405911D01*
X228235Y406041D01*
X228221Y406171D01*
X228185Y406297D01*
X228106Y406535D01*
X228049Y406778D01*
X228013Y407026D01*
X228000Y407276D01*
X228009Y407526D01*
X228040Y407775D01*
X228093Y408019D01*
X228168Y408258D01*
X228169Y408259D01*
X228203Y408385D01*
X228214Y408516D01*
X228203Y408646D01*
X228169Y408772D01*
X228113Y408891D01*
X228038Y408998D01*
X227946Y409090D01*
X227839Y409165D01*
X227720Y409220D01*
X227594Y409254D01*
X227463Y409265D01*
X227368Y409257D01*
Y413000D01*
G37*
G36*
X223932D02*X227368D01*
Y409257D01*
X227333Y409254D01*
X227207Y409220D01*
X227088Y409164D01*
X226981Y409089D01*
X226889Y408997D01*
X226814Y408890D01*
X226759Y408771D01*
X226644Y408404D01*
X226562Y408029D01*
X226514Y407647D01*
X226500Y407263D01*
X226520Y406879D01*
X226575Y406498D01*
X226663Y406124D01*
X226785Y405760D01*
Y405759D01*
X226842Y405642D01*
X226919Y405536D01*
X227013Y405445D01*
X227122Y405372D01*
X227241Y405319D01*
X227368Y405287D01*
Y373000D01*
X223932D01*
Y389818D01*
X224654Y390540D01*
X225379Y391575D01*
X225913Y392720D01*
X226240Y393941D01*
X226350Y395200D01*
X226240Y396459D01*
X225913Y397680D01*
X225379Y398825D01*
X224654Y399860D01*
X223932Y400582D01*
Y405344D01*
X223966Y405347D01*
X224092Y405381D01*
X224211Y405437D01*
X224318Y405512D01*
X224410Y405604D01*
X224485Y405711D01*
X224540Y405830D01*
X224655Y406197D01*
X224737Y406572D01*
X224785Y406954D01*
X224799Y407338D01*
X224779Y407722D01*
X224724Y408103D01*
X224636Y408477D01*
X224514Y408841D01*
Y408842D01*
X224457Y408959D01*
X224380Y409065D01*
X224286Y409156D01*
X224177Y409229D01*
X224058Y409282D01*
X223932Y409314D01*
Y413000D01*
G37*
G36*
Y373000D02*X220529D01*
Y388106D01*
X221580Y388387D01*
X222725Y388921D01*
X223760Y389646D01*
X223932Y389818D01*
Y373000D01*
G37*
G36*
X220529Y412803D02*X221247Y412865D01*
X221751Y413000D01*
X223932D01*
Y409314D01*
X223931D01*
X223801Y409323D01*
X223671Y409309D01*
X223545Y409273D01*
X223428Y409216D01*
X223322Y409139D01*
X223231Y409045D01*
X223158Y408936D01*
X223105Y408817D01*
X223073Y408690D01*
X223064Y408560D01*
X223078Y408430D01*
X223114Y408304D01*
X223193Y408066D01*
X223250Y407823D01*
X223286Y407575D01*
X223299Y407325D01*
X223290Y407075D01*
X223259Y406826D01*
X223206Y406582D01*
X223131Y406343D01*
X223130Y406342D01*
X223096Y406216D01*
X223085Y406085D01*
X223096Y405955D01*
X223130Y405829D01*
X223186Y405710D01*
X223261Y405603D01*
X223353Y405511D01*
X223460Y405436D01*
X223579Y405381D01*
X223705Y405347D01*
X223836Y405336D01*
X223932Y405344D01*
Y400582D01*
X223760Y400754D01*
X222725Y401479D01*
X221580Y402013D01*
X220529Y402294D01*
Y403001D01*
X220537D01*
X220921Y403021D01*
X221302Y403076D01*
X221676Y403164D01*
X222040Y403286D01*
X222041D01*
X222158Y403343D01*
X222264Y403420D01*
X222355Y403514D01*
X222428Y403623D01*
X222481Y403742D01*
X222513Y403869D01*
X222522Y403999D01*
X222508Y404129D01*
X222472Y404255D01*
X222415Y404372D01*
X222338Y404478D01*
X222244Y404569D01*
X222135Y404642D01*
X222016Y404695D01*
X221889Y404727D01*
X221759Y404736D01*
X221629Y404722D01*
X221503Y404686D01*
X221265Y404607D01*
X221022Y404550D01*
X220774Y404514D01*
X220529Y404501D01*
Y410098D01*
X220725Y410091D01*
X220974Y410060D01*
X221218Y410007D01*
X221457Y409932D01*
X221458Y409931D01*
X221584Y409897D01*
X221715Y409886D01*
X221845Y409897D01*
X221971Y409931D01*
X222090Y409987D01*
X222197Y410062D01*
X222289Y410154D01*
X222364Y410261D01*
X222419Y410380D01*
X222453Y410506D01*
X222464Y410637D01*
X222453Y410767D01*
X222419Y410893D01*
X222363Y411012D01*
X222288Y411119D01*
X222196Y411211D01*
X222089Y411286D01*
X221970Y411341D01*
X221603Y411456D01*
X221228Y411538D01*
X220846Y411586D01*
X220529Y411598D01*
Y412803D01*
G37*
G36*
X217068Y388267D02*X217841Y388060D01*
X219100Y387950D01*
X220359Y388060D01*
X220529Y388106D01*
Y373000D01*
X217068D01*
Y388267D01*
G37*
G36*
Y413000D02*X219249D01*
X219753Y412865D01*
X220500Y412800D01*
X220529Y412803D01*
Y411598D01*
X220462Y411600D01*
X220078Y411580D01*
X219697Y411525D01*
X219323Y411437D01*
X218959Y411315D01*
X218958D01*
X218841Y411258D01*
X218735Y411181D01*
X218644Y411087D01*
X218571Y410978D01*
X218518Y410859D01*
X218486Y410732D01*
X218477Y410602D01*
X218491Y410472D01*
X218527Y410346D01*
X218584Y410229D01*
X218661Y410123D01*
X218755Y410032D01*
X218864Y409959D01*
X218983Y409906D01*
X219110Y409874D01*
X219240Y409865D01*
X219370Y409879D01*
X219496Y409915D01*
X219734Y409994D01*
X219977Y410051D01*
X220225Y410087D01*
X220475Y410100D01*
X220529Y410098D01*
Y404501D01*
X220524D01*
X220274Y404510D01*
X220025Y404541D01*
X219781Y404594D01*
X219542Y404669D01*
X219541Y404670D01*
X219415Y404704D01*
X219284Y404715D01*
X219154Y404704D01*
X219028Y404670D01*
X218909Y404614D01*
X218802Y404539D01*
X218710Y404447D01*
X218635Y404340D01*
X218580Y404221D01*
X218546Y404095D01*
X218535Y403964D01*
X218546Y403834D01*
X218580Y403708D01*
X218636Y403589D01*
X218711Y403482D01*
X218803Y403390D01*
X218910Y403315D01*
X219029Y403260D01*
X219396Y403145D01*
X219771Y403063D01*
X220153Y403015D01*
X220529Y403001D01*
Y402294D01*
X220359Y402340D01*
X219100Y402450D01*
X217841Y402340D01*
X217068Y402133D01*
Y405287D01*
X217198Y405278D01*
X217328Y405292D01*
X217454Y405328D01*
X217571Y405385D01*
X217677Y405462D01*
X217768Y405556D01*
X217841Y405665D01*
X217894Y405784D01*
X217926Y405911D01*
X217935Y406041D01*
X217921Y406171D01*
X217885Y406297D01*
X217806Y406535D01*
X217749Y406778D01*
X217713Y407026D01*
X217700Y407276D01*
X217709Y407526D01*
X217740Y407775D01*
X217793Y408019D01*
X217868Y408258D01*
X217869Y408259D01*
X217903Y408385D01*
X217914Y408516D01*
X217903Y408646D01*
X217869Y408772D01*
X217813Y408891D01*
X217738Y408998D01*
X217646Y409090D01*
X217539Y409165D01*
X217420Y409220D01*
X217294Y409254D01*
X217163Y409265D01*
X217068Y409257D01*
Y413000D01*
G37*
G36*
X73613Y395000D02*X75000D01*
Y382000D01*
X207000D01*
Y413000D01*
X217068D01*
Y409257D01*
X217033Y409254D01*
X216907Y409220D01*
X216788Y409164D01*
X216681Y409089D01*
X216589Y408997D01*
X216514Y408890D01*
X216459Y408771D01*
X216344Y408404D01*
X216262Y408029D01*
X216214Y407647D01*
X216200Y407263D01*
X216220Y406879D01*
X216275Y406498D01*
X216363Y406124D01*
X216485Y405760D01*
Y405759D01*
X216542Y405642D01*
X216619Y405536D01*
X216713Y405445D01*
X216822Y405372D01*
X216941Y405319D01*
X217068Y405287D01*
Y402133D01*
X216620Y402013D01*
X215475Y401479D01*
X214440Y400754D01*
X213546Y399860D01*
X212821Y398825D01*
X212287Y397680D01*
X211960Y396459D01*
X211850Y395200D01*
X211960Y393941D01*
X212287Y392720D01*
X212821Y391575D01*
X213546Y390540D01*
X214440Y389646D01*
X215475Y388921D01*
X216620Y388387D01*
X217068Y388267D01*
Y373000D01*
X73613D01*
Y387860D01*
X73708Y387882D01*
X73829Y387933D01*
X73938Y388005D01*
X74034Y388094D01*
X74113Y388198D01*
X74172Y388315D01*
X74314Y388722D01*
X74417Y389142D01*
X74479Y389569D01*
X74500Y390000D01*
X74479Y390432D01*
X74417Y390859D01*
X74314Y391279D01*
X74172Y391686D01*
X74171D01*
X74112Y391802D01*
X74033Y391907D01*
X73937Y391996D01*
X73828Y392067D01*
X73707Y392118D01*
X73613Y392139D01*
Y395000D01*
G37*
G36*
X69999D02*X73613D01*
Y392139D01*
X73580Y392147D01*
X73450Y392154D01*
X73320Y392138D01*
X73195Y392100D01*
X73079Y392041D01*
X72974Y391962D01*
X72885Y391866D01*
X72814Y391757D01*
X72763Y391636D01*
X72734Y391509D01*
X72727Y391379D01*
X72743Y391249D01*
X72781Y391124D01*
X72876Y390853D01*
X72944Y390573D01*
X72986Y390288D01*
X73000Y390000D01*
X72986Y389713D01*
X72944Y389428D01*
X72876Y389148D01*
X72781Y388877D01*
X72780D01*
X72742Y388752D01*
X72726Y388622D01*
X72733Y388491D01*
X72762Y388364D01*
X72813Y388243D01*
X72885Y388134D01*
X72974Y388038D01*
X73078Y387959D01*
X73195Y387900D01*
X73320Y387862D01*
X73450Y387846D01*
X73581Y387853D01*
X73613Y387860D01*
Y373000D01*
X69999D01*
Y385500D01*
X70431Y385521D01*
X70858Y385583D01*
X71278Y385686D01*
X71685Y385828D01*
Y385829D01*
X71801Y385888D01*
X71906Y385967D01*
X71995Y386063D01*
X72066Y386172D01*
X72117Y386293D01*
X72146Y386420D01*
X72153Y386550D01*
X72137Y386680D01*
X72099Y386805D01*
X72040Y386921D01*
X71961Y387026D01*
X71865Y387115D01*
X71756Y387186D01*
X71635Y387237D01*
X71508Y387266D01*
X71378Y387273D01*
X71248Y387257D01*
X71123Y387219D01*
X70852Y387124D01*
X70572Y387056D01*
X70287Y387014D01*
X69999Y387000D01*
Y393000D01*
X70000D01*
X70287Y392987D01*
X70572Y392945D01*
X70852Y392877D01*
X71123Y392782D01*
Y392781D01*
X71248Y392743D01*
X71378Y392727D01*
X71509Y392734D01*
X71636Y392763D01*
X71757Y392814D01*
X71866Y392886D01*
X71962Y392975D01*
X72041Y393079D01*
X72100Y393196D01*
X72138Y393321D01*
X72154Y393451D01*
X72147Y393582D01*
X72118Y393709D01*
X72067Y393830D01*
X71995Y393939D01*
X71906Y394035D01*
X71802Y394114D01*
X71685Y394173D01*
X71278Y394315D01*
X70858Y394418D01*
X70431Y394480D01*
X70000Y394500D01*
X69999D01*
Y395000D01*
G37*
G36*
X66387D02*X69999D01*
Y394500D01*
X69568Y394480D01*
X69141Y394418D01*
X68721Y394315D01*
X68314Y394173D01*
Y394172D01*
X68198Y394113D01*
X68093Y394034D01*
X68004Y393938D01*
X67933Y393829D01*
X67882Y393708D01*
X67853Y393581D01*
X67846Y393451D01*
X67862Y393321D01*
X67900Y393196D01*
X67959Y393080D01*
X68038Y392975D01*
X68134Y392886D01*
X68243Y392815D01*
X68364Y392764D01*
X68491Y392735D01*
X68621Y392728D01*
X68751Y392744D01*
X68876Y392782D01*
X69147Y392877D01*
X69427Y392945D01*
X69712Y392987D01*
X69999Y393000D01*
Y387000D01*
X69712Y387014D01*
X69427Y387056D01*
X69147Y387124D01*
X68876Y387219D01*
Y387220D01*
X68751Y387258D01*
X68621Y387274D01*
X68490Y387267D01*
X68363Y387238D01*
X68242Y387187D01*
X68133Y387115D01*
X68037Y387026D01*
X67958Y386922D01*
X67899Y386805D01*
X67861Y386680D01*
X67845Y386550D01*
X67852Y386419D01*
X67881Y386292D01*
X67932Y386171D01*
X68004Y386062D01*
X68093Y385966D01*
X68197Y385887D01*
X68314Y385828D01*
X68721Y385686D01*
X69141Y385583D01*
X69568Y385521D01*
X69999Y385500D01*
Y373000D01*
X66387D01*
Y387861D01*
X66419Y387854D01*
X66549Y387847D01*
X66679Y387863D01*
X66804Y387901D01*
X66920Y387960D01*
X67025Y388039D01*
X67114Y388135D01*
X67185Y388244D01*
X67236Y388365D01*
X67265Y388492D01*
X67272Y388622D01*
X67256Y388752D01*
X67218Y388877D01*
X67123Y389148D01*
X67055Y389428D01*
X67013Y389713D01*
X67000Y390001D01*
X67013Y390288D01*
X67055Y390573D01*
X67123Y390853D01*
X67218Y391124D01*
X67219D01*
X67257Y391249D01*
X67273Y391379D01*
X67266Y391510D01*
X67237Y391637D01*
X67186Y391758D01*
X67114Y391867D01*
X67025Y391963D01*
X66921Y392042D01*
X66804Y392101D01*
X66679Y392139D01*
X66549Y392155D01*
X66418Y392148D01*
X66387Y392141D01*
Y395000D01*
G37*
G36*
X63613D02*X66387D01*
Y392141D01*
X66291Y392119D01*
X66170Y392068D01*
X66061Y391996D01*
X65965Y391907D01*
X65886Y391803D01*
X65827Y391686D01*
X65685Y391279D01*
X65582Y390859D01*
X65520Y390432D01*
X65500Y390001D01*
X65520Y389569D01*
X65582Y389142D01*
X65685Y388722D01*
X65827Y388315D01*
X65828D01*
X65887Y388199D01*
X65966Y388094D01*
X66062Y388005D01*
X66171Y387934D01*
X66292Y387883D01*
X66387Y387861D01*
Y373000D01*
X63613D01*
Y387860D01*
X63708Y387882D01*
X63829Y387933D01*
X63938Y388005D01*
X64034Y388094D01*
X64113Y388198D01*
X64172Y388315D01*
X64314Y388722D01*
X64417Y389142D01*
X64479Y389569D01*
X64500Y390000D01*
X64479Y390432D01*
X64417Y390859D01*
X64314Y391279D01*
X64172Y391686D01*
X64171D01*
X64112Y391802D01*
X64033Y391907D01*
X63937Y391996D01*
X63828Y392067D01*
X63707Y392118D01*
X63613Y392139D01*
Y395000D01*
G37*
G36*
X59999D02*X63613D01*
Y392139D01*
X63580Y392147D01*
X63450Y392154D01*
X63320Y392138D01*
X63195Y392100D01*
X63079Y392041D01*
X62974Y391962D01*
X62885Y391866D01*
X62814Y391757D01*
X62763Y391636D01*
X62734Y391509D01*
X62727Y391379D01*
X62743Y391249D01*
X62781Y391124D01*
X62876Y390853D01*
X62944Y390573D01*
X62986Y390288D01*
X63000Y390000D01*
X62986Y389713D01*
X62944Y389428D01*
X62876Y389148D01*
X62781Y388877D01*
X62780D01*
X62742Y388752D01*
X62726Y388622D01*
X62733Y388491D01*
X62762Y388364D01*
X62813Y388243D01*
X62885Y388134D01*
X62974Y388038D01*
X63078Y387959D01*
X63195Y387900D01*
X63320Y387862D01*
X63450Y387846D01*
X63581Y387853D01*
X63613Y387860D01*
Y373000D01*
X59999D01*
Y385500D01*
X60431Y385521D01*
X60858Y385583D01*
X61278Y385686D01*
X61685Y385828D01*
Y385829D01*
X61801Y385888D01*
X61906Y385967D01*
X61995Y386063D01*
X62066Y386172D01*
X62117Y386293D01*
X62146Y386420D01*
X62153Y386550D01*
X62137Y386680D01*
X62099Y386805D01*
X62040Y386921D01*
X61961Y387026D01*
X61865Y387115D01*
X61756Y387186D01*
X61635Y387237D01*
X61508Y387266D01*
X61378Y387273D01*
X61248Y387257D01*
X61123Y387219D01*
X60852Y387124D01*
X60572Y387056D01*
X60287Y387014D01*
X59999Y387000D01*
Y393000D01*
X60000D01*
X60287Y392987D01*
X60572Y392945D01*
X60852Y392877D01*
X61123Y392782D01*
Y392781D01*
X61248Y392743D01*
X61378Y392727D01*
X61509Y392734D01*
X61636Y392763D01*
X61757Y392814D01*
X61866Y392886D01*
X61962Y392975D01*
X62041Y393079D01*
X62100Y393196D01*
X62138Y393321D01*
X62154Y393451D01*
X62147Y393582D01*
X62118Y393709D01*
X62067Y393830D01*
X61995Y393939D01*
X61906Y394035D01*
X61802Y394114D01*
X61685Y394173D01*
X61278Y394315D01*
X60858Y394418D01*
X60431Y394480D01*
X60000Y394500D01*
X59999D01*
Y395000D01*
G37*
G36*
X56000Y373000D02*Y388062D01*
X56062Y388005D01*
X56171Y387934D01*
X56292Y387883D01*
X56419Y387854D01*
X56549Y387847D01*
X56679Y387863D01*
X56804Y387901D01*
X56920Y387960D01*
X57025Y388039D01*
X57114Y388135D01*
X57185Y388244D01*
X57236Y388365D01*
X57265Y388492D01*
X57272Y388622D01*
X57256Y388752D01*
X57218Y388877D01*
X57123Y389148D01*
X57055Y389428D01*
X57013Y389713D01*
X57000Y390001D01*
X57013Y390288D01*
X57055Y390573D01*
X57123Y390853D01*
X57218Y391124D01*
X57219D01*
X57257Y391249D01*
X57273Y391379D01*
X57266Y391510D01*
X57237Y391637D01*
X57186Y391758D01*
X57114Y391867D01*
X57025Y391963D01*
X56921Y392042D01*
X56804Y392101D01*
X56679Y392139D01*
X56549Y392155D01*
X56418Y392148D01*
X56291Y392119D01*
X56170Y392068D01*
X56061Y391996D01*
X56000Y391939D01*
Y395000D01*
X59999D01*
Y394500D01*
X59568Y394480D01*
X59141Y394418D01*
X58721Y394315D01*
X58314Y394173D01*
Y394172D01*
X58198Y394113D01*
X58093Y394034D01*
X58004Y393938D01*
X57933Y393829D01*
X57882Y393708D01*
X57853Y393581D01*
X57846Y393451D01*
X57862Y393321D01*
X57900Y393196D01*
X57959Y393080D01*
X58038Y392975D01*
X58134Y392886D01*
X58243Y392815D01*
X58364Y392764D01*
X58491Y392735D01*
X58621Y392728D01*
X58751Y392744D01*
X58876Y392782D01*
X59147Y392877D01*
X59427Y392945D01*
X59712Y392987D01*
X59999Y393000D01*
Y387000D01*
X59712Y387014D01*
X59427Y387056D01*
X59147Y387124D01*
X58876Y387219D01*
Y387220D01*
X58751Y387258D01*
X58621Y387274D01*
X58490Y387267D01*
X58363Y387238D01*
X58242Y387187D01*
X58133Y387115D01*
X58037Y387026D01*
X57958Y386922D01*
X57899Y386805D01*
X57861Y386680D01*
X57845Y386550D01*
X57852Y386419D01*
X57881Y386292D01*
X57932Y386171D01*
X58004Y386062D01*
X58093Y385966D01*
X58197Y385887D01*
X58314Y385828D01*
X58721Y385686D01*
X59141Y385583D01*
X59568Y385521D01*
X59999Y385500D01*
Y373000D01*
X56000D01*
G37*
G36*
X241500Y480000D02*X251000D01*
Y416000D01*
X241500D01*
Y439650D01*
X242759Y439760D01*
X243980Y440087D01*
X245125Y440621D01*
X246160Y441346D01*
X247054Y442240D01*
X247779Y443275D01*
X248313Y444420D01*
X248640Y445641D01*
X248750Y446900D01*
X248640Y448159D01*
X248313Y449380D01*
X247779Y450525D01*
X247054Y451560D01*
X246160Y452454D01*
X245125Y453179D01*
X243980Y453713D01*
X242759Y454040D01*
X241500Y454150D01*
Y480000D01*
G37*
G36*
X106231Y423475D02*X106281Y423404D01*
X106404Y423281D01*
X106547Y423181D01*
X106705Y423107D01*
X106869Y423063D01*
X106705Y423019D01*
X106547Y422945D01*
X106404Y422845D01*
X106281Y422722D01*
X106231Y422651D01*
Y423475D01*
G37*
G36*
Y435648D02*X106940Y434939D01*
X106990Y434897D01*
X107036Y434851D01*
X107089Y434814D01*
X107140Y434771D01*
X107197Y434738D01*
X107250Y434701D01*
X107310Y434673D01*
X107367Y434640D01*
X107425Y434619D01*
X107487Y434590D01*
X107555Y434572D01*
X107608Y434553D01*
X107855Y434200D01*
X108200Y433855D01*
X108500Y433645D01*
Y430953D01*
X107047D01*
X106873Y430938D01*
X106705Y430893D01*
X106547Y430819D01*
X106404Y430719D01*
X106281Y430596D01*
X106231Y430524D01*
Y432720D01*
X106248Y432721D01*
X106332Y432744D01*
X106411Y432781D01*
X106483Y432831D01*
X106544Y432893D01*
X106594Y432964D01*
X106631Y433043D01*
X106704Y433276D01*
X106757Y433514D01*
X106789Y433756D01*
X106800Y434000D01*
X106789Y434245D01*
X106757Y434487D01*
X106704Y434725D01*
X106631Y434958D01*
X106594Y435037D01*
X106544Y435108D01*
X106483Y435170D01*
X106411Y435220D01*
X106332Y435257D01*
X106248Y435280D01*
X106231Y435281D01*
Y435648D01*
G37*
G36*
X103000Y437500D02*X104379D01*
X106231Y435648D01*
Y435281D01*
X106161Y435287D01*
X106074Y435280D01*
X105990Y435257D01*
X105911Y435220D01*
X105840Y435170D01*
X105778Y435109D01*
X105728Y435037D01*
X105691Y434958D01*
X105668Y434874D01*
X105661Y434787D01*
X105668Y434700D01*
X105691Y434616D01*
X105738Y434466D01*
X105772Y434313D01*
X105793Y434157D01*
X105800Y434000D01*
X105793Y433844D01*
X105772Y433688D01*
X105738Y433535D01*
X105691Y433385D01*
X105668Y433301D01*
X105661Y433214D01*
X105668Y433127D01*
X105691Y433043D01*
X105728Y432964D01*
X105778Y432892D01*
X105840Y432831D01*
X105911Y432781D01*
X105990Y432744D01*
X106074Y432721D01*
X106161Y432714D01*
X106231Y432720D01*
Y430524D01*
X106181Y430453D01*
X106107Y430295D01*
X106062Y430127D01*
X106047Y429953D01*
Y424047D01*
X106062Y423873D01*
X106107Y423705D01*
X106181Y423547D01*
X106231Y423475D01*
Y422651D01*
X106181Y422579D01*
X106107Y422421D01*
X106062Y422253D01*
X106047Y422079D01*
Y420500D01*
X103000D01*
Y420800D01*
X103156Y420794D01*
X103312Y420773D01*
X103465Y420739D01*
X103615Y420692D01*
X103699Y420669D01*
X103786Y420662D01*
X103873Y420669D01*
X103957Y420692D01*
X104036Y420729D01*
X104108Y420779D01*
X104169Y420841D01*
X104219Y420912D01*
X104256Y420991D01*
X104279Y421075D01*
X104286Y421162D01*
X104279Y421249D01*
X104256Y421333D01*
X104219Y421412D01*
X104169Y421484D01*
X104107Y421545D01*
X104036Y421595D01*
X103957Y421632D01*
X103724Y421705D01*
X103486Y421758D01*
X103244Y421790D01*
X103000Y421800D01*
Y431389D01*
X103042Y431369D01*
X103275Y431296D01*
X103513Y431243D01*
X103755Y431211D01*
X103999Y431200D01*
X104244Y431211D01*
X104486Y431243D01*
X104724Y431296D01*
X104957Y431369D01*
X105036Y431406D01*
X105107Y431456D01*
X105169Y431517D01*
X105219Y431589D01*
X105256Y431668D01*
X105279Y431752D01*
X105286Y431839D01*
X105279Y431926D01*
X105256Y432010D01*
X105219Y432089D01*
X105169Y432160D01*
X105108Y432222D01*
X105036Y432272D01*
X104957Y432309D01*
X104873Y432332D01*
X104786Y432339D01*
X104699Y432332D01*
X104615Y432309D01*
X104465Y432262D01*
X104312Y432228D01*
X104156Y432207D01*
X103999Y432200D01*
X103843Y432207D01*
X103687Y432228D01*
X103534Y432262D01*
X103384Y432309D01*
X103300Y432332D01*
X103213Y432339D01*
X103126Y432332D01*
X103042Y432309D01*
X103000Y432289D01*
Y435712D01*
X103042Y435692D01*
X103126Y435669D01*
X103213Y435662D01*
X103300Y435669D01*
X103384Y435692D01*
X103534Y435739D01*
X103687Y435773D01*
X103843Y435794D01*
X104000Y435800D01*
X104156Y435794D01*
X104312Y435773D01*
X104465Y435739D01*
X104615Y435692D01*
X104699Y435669D01*
X104786Y435662D01*
X104873Y435669D01*
X104957Y435692D01*
X105036Y435729D01*
X105108Y435779D01*
X105169Y435841D01*
X105219Y435912D01*
X105256Y435991D01*
X105279Y436075D01*
X105286Y436162D01*
X105279Y436249D01*
X105256Y436333D01*
X105219Y436412D01*
X105169Y436484D01*
X105107Y436545D01*
X105036Y436595D01*
X104957Y436632D01*
X104724Y436705D01*
X104486Y436758D01*
X104244Y436790D01*
X104000Y436800D01*
X103755Y436790D01*
X103513Y436758D01*
X103275Y436705D01*
X103042Y436632D01*
X103000Y436612D01*
Y437500D01*
G37*
G36*
X191250Y414500D02*X197247D01*
X197275Y414397D01*
X193953Y411075D01*
Y412347D01*
X193938Y412521D01*
X193893Y412689D01*
X193819Y412847D01*
X193719Y412990D01*
X193596Y413113D01*
X193453Y413213D01*
X193295Y413287D01*
X193127Y413332D01*
X192953Y413347D01*
X191250D01*
Y414500D01*
G37*
G36*
Y434820D02*X191600Y434575D01*
X192042Y434369D01*
X192514Y434243D01*
X193000Y434200D01*
X193486Y434243D01*
X193958Y434369D01*
X194400Y434575D01*
X194800Y434855D01*
X195145Y435200D01*
X195355Y435500D01*
X195379D01*
X196500Y434379D01*
Y433622D01*
X195378Y432500D01*
X191250D01*
Y434820D01*
G37*
G36*
Y419500D02*X206379D01*
X209879Y416000D01*
X205000D01*
Y385000D01*
X191250D01*
Y393820D01*
X191600Y393575D01*
X192042Y393369D01*
X192514Y393243D01*
X193000Y393200D01*
X193486Y393243D01*
X193958Y393369D01*
X194400Y393575D01*
X194800Y393855D01*
X195145Y394200D01*
X195425Y394600D01*
X195631Y395042D01*
X195757Y395514D01*
X195800Y396000D01*
X195757Y396486D01*
X195631Y396958D01*
X195425Y397400D01*
X195145Y397800D01*
X194800Y398145D01*
X194400Y398425D01*
X193958Y398631D01*
X193486Y398757D01*
X193000Y398800D01*
X192514Y398757D01*
X192042Y398631D01*
X191600Y398425D01*
X191250Y398180D01*
Y405047D01*
X192953D01*
X193127Y405062D01*
X193295Y405107D01*
X193453Y405181D01*
X193596Y405281D01*
X193719Y405404D01*
X193819Y405547D01*
X193893Y405705D01*
X193938Y405873D01*
X193953Y406047D01*
Y407894D01*
X194394D01*
X194475Y407901D01*
X194525D01*
X194578Y407910D01*
X194654Y407917D01*
X194728Y407937D01*
X194782Y407946D01*
X194833Y407964D01*
X194907Y407984D01*
X194972Y408015D01*
X195028Y408035D01*
X195079Y408065D01*
X195144Y408095D01*
X195205Y408137D01*
X195254Y408166D01*
X195298Y408203D01*
X195358Y408245D01*
X195410Y408297D01*
X195454Y408334D01*
X199395Y412275D01*
X199514Y412243D01*
X200000Y412200D01*
X200486Y412243D01*
X200958Y412369D01*
X201400Y412575D01*
X201800Y412855D01*
X202145Y413200D01*
X202425Y413600D01*
X202631Y414042D01*
X202757Y414514D01*
X202800Y415000D01*
X202757Y415486D01*
X202631Y415958D01*
X202425Y416400D01*
X202145Y416800D01*
X201800Y417145D01*
X201400Y417425D01*
X200958Y417631D01*
X200486Y417757D01*
X200000Y417800D01*
X199514Y417757D01*
X199042Y417631D01*
X198761Y417500D01*
X191250D01*
Y419500D01*
G37*
G36*
Y424500D02*X216244D01*
X216265Y424253D01*
X216459Y423529D01*
X216776Y422850D01*
X217206Y422236D01*
X217736Y421706D01*
X218350Y421276D01*
X218834Y421050D01*
X218350Y420824D01*
X217736Y420394D01*
X217206Y419864D01*
X216776Y419250D01*
X216459Y418571D01*
X216440Y418500D01*
X211621D01*
X208061Y422060D01*
X208011Y422102D01*
X207964Y422149D01*
X207909Y422187D01*
X207861Y422228D01*
X207806Y422260D01*
X207750Y422299D01*
X207686Y422329D01*
X207634Y422359D01*
X207580Y422379D01*
X207513Y422410D01*
X207441Y422429D01*
X207389Y422448D01*
X207329Y422459D01*
X207260Y422477D01*
X207194Y422483D01*
X207131Y422494D01*
X207068D01*
X207000Y422500D01*
X191250D01*
Y424500D01*
G37*
G36*
X234232Y480000D02*X241500D01*
Y454150D01*
X240241Y454040D01*
X239020Y453713D01*
X237875Y453179D01*
X236840Y452454D01*
X235946Y451560D01*
X235221Y450525D01*
X234687Y449380D01*
X234360Y448159D01*
X234250Y446900D01*
X234360Y445641D01*
X234687Y444420D01*
X235221Y443275D01*
X235946Y442240D01*
X236840Y441346D01*
X237875Y440621D01*
X239020Y440087D01*
X240241Y439760D01*
X241500Y439650D01*
Y416000D01*
X234940D01*
X235035Y416353D01*
X235100Y417100D01*
X235035Y417847D01*
X234841Y418571D01*
X234524Y419250D01*
X234232Y419667D01*
Y422433D01*
X234524Y422850D01*
X234841Y423529D01*
X235035Y424253D01*
X235100Y425000D01*
X235035Y425747D01*
X234841Y426471D01*
X234524Y427150D01*
X234232Y427567D01*
Y432844D01*
X234266Y432847D01*
X234392Y432881D01*
X234511Y432937D01*
X234618Y433012D01*
X234710Y433104D01*
X234785Y433211D01*
X234840Y433330D01*
X234955Y433697D01*
X235037Y434072D01*
X235085Y434454D01*
X235099Y434838D01*
X235079Y435222D01*
X235024Y435603D01*
X234936Y435977D01*
X234814Y436341D01*
Y436342D01*
X234757Y436459D01*
X234680Y436565D01*
X234586Y436656D01*
X234477Y436729D01*
X234358Y436782D01*
X234232Y436814D01*
Y480000D01*
G37*
G36*
Y419667D02*X234094Y419864D01*
X233564Y420394D01*
X232950Y420824D01*
X232466Y421050D01*
X232950Y421276D01*
X233564Y421706D01*
X234094Y422236D01*
X234232Y422433D01*
Y419667D01*
G37*
G36*
X230829Y480000D02*X234232D01*
Y436814D01*
X234231D01*
X234101Y436823D01*
X233971Y436809D01*
X233845Y436773D01*
X233728Y436716D01*
X233622Y436639D01*
X233531Y436545D01*
X233458Y436436D01*
X233405Y436317D01*
X233373Y436190D01*
X233364Y436060D01*
X233378Y435930D01*
X233414Y435804D01*
X233493Y435566D01*
X233550Y435323D01*
X233586Y435075D01*
X233599Y434825D01*
X233590Y434575D01*
X233559Y434326D01*
X233506Y434082D01*
X233431Y433843D01*
X233430Y433842D01*
X233396Y433716D01*
X233385Y433585D01*
X233396Y433455D01*
X233430Y433329D01*
X233486Y433210D01*
X233561Y433103D01*
X233653Y433011D01*
X233760Y432936D01*
X233879Y432881D01*
X234005Y432847D01*
X234136Y432836D01*
X234232Y432844D01*
Y427567D01*
X234094Y427764D01*
X233564Y428294D01*
X232950Y428724D01*
X232271Y429041D01*
X231547Y429235D01*
X230829Y429297D01*
Y430501D01*
X230837D01*
X231221Y430521D01*
X231602Y430576D01*
X231976Y430664D01*
X232340Y430786D01*
X232341D01*
X232458Y430843D01*
X232564Y430920D01*
X232655Y431014D01*
X232728Y431123D01*
X232781Y431242D01*
X232813Y431369D01*
X232822Y431499D01*
X232808Y431629D01*
X232772Y431755D01*
X232715Y431872D01*
X232638Y431978D01*
X232544Y432069D01*
X232435Y432142D01*
X232316Y432195D01*
X232189Y432227D01*
X232059Y432236D01*
X231929Y432222D01*
X231803Y432186D01*
X231565Y432107D01*
X231322Y432050D01*
X231074Y432014D01*
X230829Y432001D01*
Y437598D01*
X231025Y437591D01*
X231274Y437560D01*
X231518Y437507D01*
X231757Y437432D01*
X231758Y437431D01*
X231884Y437397D01*
X232015Y437386D01*
X232145Y437397D01*
X232271Y437431D01*
X232390Y437487D01*
X232497Y437562D01*
X232589Y437654D01*
X232664Y437761D01*
X232719Y437880D01*
X232753Y438006D01*
X232764Y438137D01*
X232753Y438267D01*
X232719Y438393D01*
X232663Y438512D01*
X232588Y438619D01*
X232496Y438711D01*
X232389Y438786D01*
X232270Y438841D01*
X231903Y438956D01*
X231528Y439038D01*
X231146Y439086D01*
X230829Y439098D01*
Y480000D01*
G37*
G36*
X227368D02*X230829D01*
Y439098D01*
X230762Y439100D01*
X230378Y439080D01*
X229997Y439025D01*
X229623Y438937D01*
X229259Y438815D01*
X229258D01*
X229141Y438758D01*
X229035Y438681D01*
X228944Y438587D01*
X228871Y438478D01*
X228818Y438359D01*
X228786Y438232D01*
X228777Y438102D01*
X228791Y437972D01*
X228827Y437846D01*
X228884Y437729D01*
X228961Y437623D01*
X229055Y437532D01*
X229164Y437459D01*
X229283Y437406D01*
X229410Y437374D01*
X229540Y437365D01*
X229670Y437379D01*
X229796Y437415D01*
X230034Y437494D01*
X230277Y437551D01*
X230525Y437587D01*
X230775Y437600D01*
X230829Y437598D01*
Y432001D01*
X230824D01*
X230574Y432010D01*
X230325Y432041D01*
X230081Y432094D01*
X229842Y432169D01*
X229841Y432170D01*
X229715Y432204D01*
X229584Y432215D01*
X229454Y432204D01*
X229328Y432170D01*
X229209Y432114D01*
X229102Y432039D01*
X229010Y431947D01*
X228935Y431840D01*
X228880Y431721D01*
X228846Y431595D01*
X228835Y431464D01*
X228846Y431334D01*
X228880Y431208D01*
X228936Y431089D01*
X229011Y430982D01*
X229103Y430890D01*
X229210Y430815D01*
X229329Y430760D01*
X229696Y430645D01*
X230071Y430563D01*
X230453Y430515D01*
X230829Y430501D01*
Y429297D01*
X230800Y429300D01*
X230053Y429235D01*
X229329Y429041D01*
X228650Y428724D01*
X228036Y428294D01*
X227506Y427764D01*
X227368Y427567D01*
Y432787D01*
X227498Y432778D01*
X227628Y432792D01*
X227754Y432828D01*
X227871Y432885D01*
X227977Y432962D01*
X228068Y433056D01*
X228141Y433165D01*
X228194Y433284D01*
X228226Y433411D01*
X228235Y433541D01*
X228221Y433671D01*
X228185Y433797D01*
X228106Y434035D01*
X228049Y434278D01*
X228013Y434526D01*
X228000Y434776D01*
X228009Y435026D01*
X228040Y435275D01*
X228093Y435519D01*
X228168Y435758D01*
X228169Y435759D01*
X228203Y435885D01*
X228214Y436016D01*
X228203Y436146D01*
X228169Y436272D01*
X228113Y436391D01*
X228038Y436498D01*
X227946Y436590D01*
X227839Y436665D01*
X227720Y436720D01*
X227594Y436754D01*
X227463Y436765D01*
X227368Y436757D01*
Y480000D01*
G37*
G36*
X223932D02*X227368D01*
Y436757D01*
X227333Y436754D01*
X227207Y436720D01*
X227088Y436664D01*
X226981Y436589D01*
X226889Y436497D01*
X226814Y436390D01*
X226759Y436271D01*
X226644Y435904D01*
X226562Y435529D01*
X226514Y435147D01*
X226500Y434763D01*
X226520Y434379D01*
X226575Y433998D01*
X226663Y433624D01*
X226785Y433260D01*
Y433259D01*
X226842Y433142D01*
X226919Y433036D01*
X227013Y432945D01*
X227122Y432872D01*
X227241Y432819D01*
X227368Y432787D01*
Y427567D01*
X227076Y427150D01*
X226773Y426500D01*
X224527D01*
X224224Y427150D01*
X223932Y427567D01*
Y432844D01*
X223966Y432847D01*
X224092Y432881D01*
X224211Y432937D01*
X224318Y433012D01*
X224410Y433104D01*
X224485Y433211D01*
X224540Y433330D01*
X224655Y433697D01*
X224737Y434072D01*
X224785Y434454D01*
X224799Y434838D01*
X224779Y435222D01*
X224724Y435603D01*
X224636Y435977D01*
X224514Y436341D01*
Y436342D01*
X224457Y436459D01*
X224380Y436565D01*
X224286Y436656D01*
X224177Y436729D01*
X224058Y436782D01*
X223932Y436814D01*
Y441518D01*
X224654Y442240D01*
X225379Y443275D01*
X225913Y444420D01*
X226240Y445641D01*
X226350Y446900D01*
X226240Y448159D01*
X225913Y449380D01*
X225379Y450525D01*
X224654Y451560D01*
X223932Y452282D01*
Y480000D01*
G37*
G36*
Y427567D02*X223794Y427764D01*
X223264Y428294D01*
X222650Y428724D01*
X221971Y429041D01*
X221247Y429235D01*
X220529Y429297D01*
Y430501D01*
X220537D01*
X220921Y430521D01*
X221302Y430576D01*
X221676Y430664D01*
X222040Y430786D01*
X222041D01*
X222158Y430843D01*
X222264Y430920D01*
X222355Y431014D01*
X222428Y431123D01*
X222481Y431242D01*
X222513Y431369D01*
X222522Y431499D01*
X222508Y431629D01*
X222472Y431755D01*
X222415Y431872D01*
X222338Y431978D01*
X222244Y432069D01*
X222135Y432142D01*
X222016Y432195D01*
X221889Y432227D01*
X221759Y432236D01*
X221629Y432222D01*
X221503Y432186D01*
X221265Y432107D01*
X221022Y432050D01*
X220774Y432014D01*
X220529Y432001D01*
Y437598D01*
X220725Y437591D01*
X220974Y437560D01*
X221218Y437507D01*
X221457Y437432D01*
X221458Y437431D01*
X221584Y437397D01*
X221715Y437386D01*
X221845Y437397D01*
X221971Y437431D01*
X222090Y437487D01*
X222197Y437562D01*
X222289Y437654D01*
X222364Y437761D01*
X222419Y437880D01*
X222453Y438006D01*
X222464Y438137D01*
X222453Y438267D01*
X222419Y438393D01*
X222363Y438512D01*
X222288Y438619D01*
X222196Y438711D01*
X222089Y438786D01*
X221970Y438841D01*
X221603Y438956D01*
X221228Y439038D01*
X220846Y439086D01*
X220529Y439098D01*
Y439806D01*
X221580Y440087D01*
X222725Y440621D01*
X223760Y441346D01*
X223932Y441518D01*
Y436814D01*
X223931D01*
X223801Y436823D01*
X223671Y436809D01*
X223545Y436773D01*
X223428Y436716D01*
X223322Y436639D01*
X223231Y436545D01*
X223158Y436436D01*
X223105Y436317D01*
X223073Y436190D01*
X223064Y436060D01*
X223078Y435930D01*
X223114Y435804D01*
X223193Y435566D01*
X223250Y435323D01*
X223286Y435075D01*
X223299Y434825D01*
X223290Y434575D01*
X223259Y434326D01*
X223206Y434082D01*
X223131Y433843D01*
X223130Y433842D01*
X223096Y433716D01*
X223085Y433585D01*
X223096Y433455D01*
X223130Y433329D01*
X223186Y433210D01*
X223261Y433103D01*
X223353Y433011D01*
X223460Y432936D01*
X223579Y432881D01*
X223705Y432847D01*
X223836Y432836D01*
X223932Y432844D01*
Y427567D01*
G37*
G36*
X220529Y480000D02*X223932D01*
Y452282D01*
X223760Y452454D01*
X222725Y453179D01*
X221580Y453713D01*
X220529Y453994D01*
Y480000D01*
G37*
G36*
Y429297D02*X220500Y429300D01*
X219753Y429235D01*
X219029Y429041D01*
X218350Y428724D01*
X217736Y428294D01*
X217206Y427764D01*
X217068Y427567D01*
Y432787D01*
X217198Y432778D01*
X217328Y432792D01*
X217454Y432828D01*
X217571Y432885D01*
X217677Y432962D01*
X217768Y433056D01*
X217841Y433165D01*
X217894Y433284D01*
X217926Y433411D01*
X217935Y433541D01*
X217921Y433671D01*
X217885Y433797D01*
X217806Y434035D01*
X217749Y434278D01*
X217713Y434526D01*
X217700Y434776D01*
X217709Y435026D01*
X217740Y435275D01*
X217793Y435519D01*
X217868Y435758D01*
X217869Y435759D01*
X217903Y435885D01*
X217914Y436016D01*
X217903Y436146D01*
X217869Y436272D01*
X217813Y436391D01*
X217738Y436498D01*
X217646Y436590D01*
X217539Y436665D01*
X217420Y436720D01*
X217294Y436754D01*
X217163Y436765D01*
X217068Y436757D01*
Y439967D01*
X217841Y439760D01*
X219100Y439650D01*
X220359Y439760D01*
X220529Y439806D01*
Y439098D01*
X220462Y439100D01*
X220078Y439080D01*
X219697Y439025D01*
X219323Y438937D01*
X218959Y438815D01*
X218958D01*
X218841Y438758D01*
X218735Y438681D01*
X218644Y438587D01*
X218571Y438478D01*
X218518Y438359D01*
X218486Y438232D01*
X218477Y438102D01*
X218491Y437972D01*
X218527Y437846D01*
X218584Y437729D01*
X218661Y437623D01*
X218755Y437532D01*
X218864Y437459D01*
X218983Y437406D01*
X219110Y437374D01*
X219240Y437365D01*
X219370Y437379D01*
X219496Y437415D01*
X219734Y437494D01*
X219977Y437551D01*
X220225Y437587D01*
X220475Y437600D01*
X220529Y437598D01*
Y432001D01*
X220524D01*
X220274Y432010D01*
X220025Y432041D01*
X219781Y432094D01*
X219542Y432169D01*
X219541Y432170D01*
X219415Y432204D01*
X219284Y432215D01*
X219154Y432204D01*
X219028Y432170D01*
X218909Y432114D01*
X218802Y432039D01*
X218710Y431947D01*
X218635Y431840D01*
X218580Y431721D01*
X218546Y431595D01*
X218535Y431464D01*
X218546Y431334D01*
X218580Y431208D01*
X218636Y431089D01*
X218711Y430982D01*
X218803Y430890D01*
X218910Y430815D01*
X219029Y430760D01*
X219396Y430645D01*
X219771Y430563D01*
X220153Y430515D01*
X220529Y430501D01*
Y429297D01*
G37*
G36*
X217068Y427567D02*X217021Y427500D01*
X213231D01*
Y442690D01*
X213546Y442240D01*
X214440Y441346D01*
X215475Y440621D01*
X216620Y440087D01*
X217068Y439967D01*
Y436757D01*
X217033Y436754D01*
X216907Y436720D01*
X216788Y436664D01*
X216681Y436589D01*
X216589Y436497D01*
X216514Y436390D01*
X216459Y436271D01*
X216344Y435904D01*
X216262Y435529D01*
X216214Y435147D01*
X216200Y434763D01*
X216220Y434379D01*
X216275Y433998D01*
X216363Y433624D01*
X216485Y433260D01*
Y433259D01*
X216542Y433142D01*
X216619Y433036D01*
X216713Y432945D01*
X216822Y432872D01*
X216941Y432819D01*
X217068Y432787D01*
Y427567D01*
G37*
G36*
X213231Y480000D02*X220529D01*
Y453994D01*
X220359Y454040D01*
X219100Y454150D01*
X217841Y454040D01*
X216620Y453713D01*
X215475Y453179D01*
X214440Y452454D01*
X213546Y451560D01*
X213231Y451110D01*
Y461720D01*
X213248Y461721D01*
X213332Y461744D01*
X213411Y461781D01*
X213483Y461831D01*
X213544Y461893D01*
X213594Y461964D01*
X213631Y462043D01*
X213704Y462276D01*
X213757Y462514D01*
X213789Y462756D01*
X213800Y463000D01*
X213789Y463245D01*
X213757Y463487D01*
X213704Y463725D01*
X213631Y463958D01*
X213594Y464037D01*
X213544Y464108D01*
X213483Y464170D01*
X213411Y464220D01*
X213332Y464257D01*
X213248Y464280D01*
X213231Y464281D01*
Y480000D01*
G37*
G36*
X211000D02*X213231D01*
Y464281D01*
X213161Y464287D01*
X213074Y464280D01*
X212990Y464257D01*
X212911Y464220D01*
X212840Y464170D01*
X212778Y464109D01*
X212728Y464037D01*
X212691Y463958D01*
X212668Y463874D01*
X212661Y463787D01*
X212668Y463700D01*
X212691Y463616D01*
X212738Y463466D01*
X212772Y463313D01*
X212793Y463157D01*
X212800Y463000D01*
X212793Y462844D01*
X212772Y462688D01*
X212738Y462535D01*
X212691Y462385D01*
X212668Y462301D01*
X212661Y462214D01*
X212668Y462127D01*
X212691Y462043D01*
X212728Y461964D01*
X212778Y461892D01*
X212840Y461831D01*
X212911Y461781D01*
X212990Y461744D01*
X213074Y461721D01*
X213161Y461714D01*
X213231Y461720D01*
Y451110D01*
X212821Y450525D01*
X212287Y449380D01*
X211960Y448159D01*
X211850Y446900D01*
X211960Y445641D01*
X212287Y444420D01*
X212821Y443275D01*
X213231Y442690D01*
Y427500D01*
X211000D01*
Y460200D01*
X211244Y460211D01*
X211486Y460243D01*
X211724Y460296D01*
X211957Y460369D01*
X212036Y460406D01*
X212107Y460456D01*
X212169Y460517D01*
X212219Y460589D01*
X212256Y460668D01*
X212279Y460752D01*
X212286Y460839D01*
X212279Y460926D01*
X212256Y461010D01*
X212219Y461089D01*
X212169Y461160D01*
X212108Y461222D01*
X212036Y461272D01*
X211957Y461309D01*
X211873Y461332D01*
X211786Y461339D01*
X211699Y461332D01*
X211615Y461309D01*
X211465Y461262D01*
X211312Y461228D01*
X211156Y461207D01*
X211000Y461200D01*
Y464800D01*
X211156Y464794D01*
X211312Y464773D01*
X211465Y464739D01*
X211615Y464692D01*
X211699Y464669D01*
X211786Y464662D01*
X211873Y464669D01*
X211957Y464692D01*
X212036Y464729D01*
X212108Y464779D01*
X212169Y464841D01*
X212219Y464912D01*
X212256Y464991D01*
X212279Y465075D01*
X212286Y465162D01*
X212279Y465249D01*
X212256Y465333D01*
X212219Y465412D01*
X212169Y465484D01*
X212107Y465545D01*
X212036Y465595D01*
X211957Y465632D01*
X211724Y465705D01*
X211486Y465758D01*
X211244Y465790D01*
X211000Y465800D01*
Y480000D01*
G37*
G36*
X208769D02*X211000D01*
Y465800D01*
X210755Y465790D01*
X210513Y465758D01*
X210275Y465705D01*
X210042Y465632D01*
X209963Y465595D01*
X209892Y465545D01*
X209830Y465484D01*
X209780Y465412D01*
X209743Y465333D01*
X209720Y465249D01*
X209713Y465162D01*
X209720Y465075D01*
X209743Y464991D01*
X209780Y464912D01*
X209830Y464841D01*
X209891Y464779D01*
X209963Y464729D01*
X210042Y464692D01*
X210126Y464669D01*
X210213Y464662D01*
X210300Y464669D01*
X210384Y464692D01*
X210534Y464739D01*
X210687Y464773D01*
X210843Y464794D01*
X211000Y464800D01*
Y461200D01*
X210999D01*
X210843Y461207D01*
X210687Y461228D01*
X210534Y461262D01*
X210384Y461309D01*
X210300Y461332D01*
X210213Y461339D01*
X210126Y461332D01*
X210042Y461309D01*
X209963Y461272D01*
X209891Y461222D01*
X209830Y461160D01*
X209780Y461089D01*
X209743Y461010D01*
X209720Y460926D01*
X209713Y460839D01*
X209720Y460752D01*
X209743Y460668D01*
X209780Y460589D01*
X209830Y460517D01*
X209892Y460456D01*
X209963Y460406D01*
X210042Y460369D01*
X210275Y460296D01*
X210513Y460243D01*
X210755Y460211D01*
X210999Y460200D01*
X211000D01*
Y427500D01*
X208769D01*
Y437319D01*
X208958Y437369D01*
X209400Y437575D01*
X209800Y437855D01*
X210145Y438200D01*
X210425Y438600D01*
X210631Y439042D01*
X210757Y439514D01*
X210800Y440000D01*
X210757Y440486D01*
X210631Y440958D01*
X210425Y441400D01*
X210145Y441800D01*
X209800Y442145D01*
X209500Y442355D01*
Y451000D01*
X209494Y451068D01*
Y451131D01*
X209483Y451193D01*
X209477Y451260D01*
X209459Y451329D01*
X209448Y451389D01*
X209429Y451441D01*
X209410Y451513D01*
X209378Y451580D01*
X209359Y451634D01*
X209329Y451686D01*
X209299Y451750D01*
X209259Y451806D01*
X209228Y451861D01*
X209187Y451910D01*
X209149Y451964D01*
X209102Y452011D01*
X209060Y452061D01*
X208769Y452352D01*
Y461720D01*
X208838Y461714D01*
X208925Y461721D01*
X209009Y461744D01*
X209088Y461781D01*
X209159Y461831D01*
X209221Y461892D01*
X209271Y461964D01*
X209308Y462043D01*
X209331Y462127D01*
X209338Y462214D01*
X209331Y462301D01*
X209308Y462385D01*
X209261Y462535D01*
X209227Y462688D01*
X209206Y462844D01*
X209200Y463001D01*
X209206Y463157D01*
X209227Y463313D01*
X209261Y463466D01*
X209308Y463616D01*
X209331Y463700D01*
X209338Y463787D01*
X209331Y463874D01*
X209308Y463958D01*
X209271Y464037D01*
X209221Y464109D01*
X209159Y464170D01*
X209088Y464220D01*
X209009Y464257D01*
X208925Y464280D01*
X208838Y464287D01*
X208769Y464281D01*
Y480000D01*
G37*
G36*
Y427500D02*X191250D01*
Y429500D01*
X196000D01*
X196081Y429507D01*
X196131D01*
X196184Y429516D01*
X196260Y429523D01*
X196334Y429543D01*
X196388Y429552D01*
X196439Y429570D01*
X196513Y429590D01*
X196578Y429621D01*
X196634Y429641D01*
X196685Y429671D01*
X196750Y429701D01*
X196811Y429743D01*
X196860Y429772D01*
X196904Y429809D01*
X196964Y429851D01*
X197016Y429903D01*
X197060Y429940D01*
X199060Y431940D01*
X199061Y431939D01*
X199108Y431995D01*
X199149Y432036D01*
X199182Y432083D01*
X199229Y432139D01*
X199266Y432203D01*
X199299Y432250D01*
X199325Y432305D01*
X199360Y432366D01*
X199382Y432428D01*
X199410Y432487D01*
X199427Y432551D01*
X199449Y432612D01*
X199461Y432681D01*
X199477Y432740D01*
X199482Y432796D01*
X199495Y432869D01*
Y432943D01*
X199500Y433000D01*
Y435000D01*
X199494Y435068D01*
Y435131D01*
X199483Y435193D01*
X199477Y435260D01*
X199459Y435329D01*
X199448Y435389D01*
X199429Y435441D01*
X199410Y435513D01*
X199378Y435580D01*
X199359Y435634D01*
X199329Y435686D01*
X199299Y435750D01*
X199259Y435806D01*
X199228Y435861D01*
X199187Y435910D01*
X199149Y435964D01*
X199102Y436011D01*
X199060Y436061D01*
X197061Y438060D01*
X197011Y438102D01*
X196964Y438149D01*
X196910Y438187D01*
X196861Y438228D01*
X196806Y438259D01*
X196750Y438299D01*
X196686Y438329D01*
X196634Y438359D01*
X196580Y438378D01*
X196513Y438410D01*
X196441Y438429D01*
X196389Y438448D01*
X196329Y438459D01*
X196260Y438477D01*
X196193Y438483D01*
X196131Y438494D01*
X196068D01*
X196000Y438500D01*
X195355D01*
X195145Y438800D01*
X194800Y439145D01*
X194400Y439425D01*
X193958Y439631D01*
X193486Y439757D01*
X193000Y439800D01*
X192514Y439757D01*
X192042Y439631D01*
X191600Y439425D01*
X191250Y439180D01*
Y470629D01*
X191500Y470379D01*
Y466000D01*
X191506Y465932D01*
Y465870D01*
X191517Y465807D01*
X191523Y465740D01*
X191540Y465676D01*
X191551Y465613D01*
X191572Y465555D01*
X191590Y465487D01*
X191619Y465425D01*
X191640Y465367D01*
X191673Y465310D01*
X191701Y465250D01*
X191738Y465197D01*
X191771Y465140D01*
X191814Y465089D01*
X191851Y465036D01*
X191897Y464990D01*
X191939Y464940D01*
X206500Y450379D01*
Y442355D01*
X206200Y442145D01*
X205855Y441800D01*
X205575Y441400D01*
X205369Y440958D01*
X205243Y440486D01*
X205200Y440000D01*
X205243Y439514D01*
X205369Y439042D01*
X205575Y438600D01*
X205855Y438200D01*
X206200Y437855D01*
X206600Y437575D01*
X207042Y437369D01*
X207514Y437243D01*
X208000Y437200D01*
X208486Y437243D01*
X208769Y437319D01*
Y427500D01*
G37*
G36*
X191250Y480000D02*X208769D01*
Y464281D01*
X208751Y464280D01*
X208667Y464257D01*
X208588Y464220D01*
X208516Y464170D01*
X208455Y464108D01*
X208405Y464037D01*
X208368Y463958D01*
X208295Y463725D01*
X208242Y463487D01*
X208210Y463245D01*
X208200Y463001D01*
X208210Y462756D01*
X208242Y462514D01*
X208295Y462276D01*
X208368Y462043D01*
X208405Y461964D01*
X208455Y461893D01*
X208516Y461831D01*
X208588Y461781D01*
X208667Y461744D01*
X208751Y461721D01*
X208769Y461720D01*
Y452352D01*
X194500Y466621D01*
Y471000D01*
X194494Y471068D01*
Y471131D01*
X194483Y471193D01*
X194477Y471260D01*
X194459Y471329D01*
X194448Y471389D01*
X194429Y471441D01*
X194410Y471513D01*
X194378Y471580D01*
X194359Y471634D01*
X194329Y471686D01*
X194299Y471750D01*
X194259Y471806D01*
X194228Y471861D01*
X194187Y471910D01*
X194149Y471964D01*
X194102Y472011D01*
X194060Y472061D01*
X191725Y474396D01*
X191757Y474514D01*
X191800Y475000D01*
X191757Y475486D01*
X191631Y475958D01*
X191425Y476400D01*
X191250Y476650D01*
Y480000D01*
G37*
G36*
Y385000D02*X161231D01*
Y395648D01*
X161940Y394939D01*
X161990Y394897D01*
X162036Y394851D01*
X162089Y394814D01*
X162140Y394771D01*
X162197Y394738D01*
X162250Y394701D01*
X162310Y394673D01*
X162367Y394640D01*
X162425Y394619D01*
X162487Y394590D01*
X162555Y394572D01*
X162613Y394551D01*
X162676Y394540D01*
X162740Y394523D01*
X162807Y394517D01*
X162870Y394506D01*
X162932D01*
X163000Y394500D01*
X190645D01*
X190855Y394200D01*
X191200Y393855D01*
X191250Y393820D01*
Y385000D01*
G37*
G36*
X173000Y406507D02*X173131D01*
X173388Y406552D01*
X173634Y406641D01*
X173860Y406772D01*
X174060Y406940D01*
X174596Y407476D01*
X174720D01*
X174691Y407385D01*
X174668Y407301D01*
X174661Y407214D01*
X174668Y407127D01*
X174691Y407043D01*
X174728Y406964D01*
X174778Y406892D01*
X174840Y406831D01*
X174911Y406781D01*
X174990Y406744D01*
X175074Y406721D01*
X175161Y406714D01*
X175248Y406721D01*
X175332Y406744D01*
X175411Y406781D01*
X175483Y406831D01*
X175544Y406893D01*
X175594Y406964D01*
X175631Y407043D01*
X175704Y407276D01*
X175749Y407476D01*
X178173D01*
Y406047D01*
X178188Y405873D01*
X178233Y405705D01*
X178307Y405547D01*
X178407Y405404D01*
X178530Y405281D01*
X178673Y405181D01*
X178831Y405107D01*
X178999Y405062D01*
X179173Y405047D01*
X185079D01*
X185253Y405062D01*
X185421Y405107D01*
X185579Y405181D01*
X185722Y405281D01*
X185845Y405404D01*
X185945Y405547D01*
X186019Y405705D01*
X186063Y405869D01*
X186107Y405705D01*
X186181Y405547D01*
X186281Y405404D01*
X186404Y405281D01*
X186547Y405181D01*
X186705Y405107D01*
X186873Y405062D01*
X187047Y405047D01*
X191250D01*
Y398180D01*
X191200Y398145D01*
X190855Y397800D01*
X190645Y397500D01*
X173000D01*
Y405200D01*
X173244Y405211D01*
X173486Y405243D01*
X173724Y405296D01*
X173957Y405369D01*
X174036Y405406D01*
X174107Y405456D01*
X174169Y405517D01*
X174219Y405589D01*
X174256Y405668D01*
X174279Y405752D01*
X174286Y405839D01*
X174279Y405926D01*
X174256Y406010D01*
X174219Y406089D01*
X174169Y406160D01*
X174108Y406222D01*
X174036Y406272D01*
X173957Y406309D01*
X173873Y406332D01*
X173786Y406339D01*
X173699Y406332D01*
X173615Y406309D01*
X173465Y406262D01*
X173312Y406228D01*
X173156Y406207D01*
X173000Y406200D01*
Y406507D01*
G37*
G36*
Y480000D02*X191250D01*
Y476650D01*
X191145Y476800D01*
X190800Y477145D01*
X190400Y477425D01*
X189958Y477631D01*
X189486Y477757D01*
X189000Y477800D01*
X188514Y477757D01*
X188042Y477631D01*
X187600Y477425D01*
X187200Y477145D01*
X186855Y476800D01*
X186575Y476400D01*
X186369Y475958D01*
X186243Y475486D01*
X186200Y475000D01*
X186243Y474514D01*
X186369Y474042D01*
X186575Y473600D01*
X186855Y473200D01*
X187200Y472855D01*
X187600Y472575D01*
X188042Y472369D01*
X188514Y472243D01*
X189000Y472200D01*
X189486Y472243D01*
X189604Y472275D01*
X191250Y470629D01*
Y439180D01*
X191200Y439145D01*
X190855Y438800D01*
X190575Y438400D01*
X190369Y437958D01*
X190243Y437486D01*
X190200Y437000D01*
X190243Y436514D01*
X190369Y436042D01*
X190575Y435600D01*
X190855Y435200D01*
X191200Y434855D01*
X191250Y434820D01*
Y432500D01*
X183500D01*
X183413Y432492D01*
X183329Y432470D01*
X183250Y432433D01*
X183179Y432383D01*
X183117Y432321D01*
X183067Y432250D01*
X183030Y432171D01*
X183008Y432087D01*
X183000Y432000D01*
Y430000D01*
X183008Y429913D01*
X183030Y429829D01*
X183067Y429750D01*
X183117Y429679D01*
X183179Y429617D01*
X183250Y429567D01*
X183329Y429530D01*
X183413Y429508D01*
X183500Y429500D01*
X191250D01*
Y427500D01*
X183500D01*
X183413Y427492D01*
X183329Y427470D01*
X183250Y427433D01*
X183179Y427383D01*
X183117Y427321D01*
X183067Y427250D01*
X183030Y427171D01*
X183008Y427087D01*
X183000Y427000D01*
Y425000D01*
X183008Y424913D01*
X183030Y424829D01*
X183067Y424750D01*
X183117Y424679D01*
X183179Y424617D01*
X183250Y424567D01*
X183329Y424530D01*
X183413Y424508D01*
X183500Y424500D01*
X191250D01*
Y422500D01*
X183500D01*
X183413Y422492D01*
X183329Y422470D01*
X183250Y422433D01*
X183179Y422383D01*
X183117Y422321D01*
X183067Y422250D01*
X183030Y422171D01*
X183008Y422087D01*
X183000Y422000D01*
Y420000D01*
X183008Y419913D01*
X183030Y419829D01*
X183067Y419750D01*
X183117Y419679D01*
X183179Y419617D01*
X183250Y419567D01*
X183329Y419530D01*
X183413Y419508D01*
X183500Y419500D01*
X191250D01*
Y417500D01*
X183500D01*
X183413Y417492D01*
X183329Y417470D01*
X183250Y417433D01*
X183179Y417383D01*
X183117Y417321D01*
X183067Y417250D01*
X183030Y417171D01*
X183008Y417087D01*
X183000Y417000D01*
Y415000D01*
X183008Y414913D01*
X183030Y414829D01*
X183067Y414750D01*
X183117Y414679D01*
X183179Y414617D01*
X183250Y414567D01*
X183329Y414530D01*
X183413Y414508D01*
X183500Y414500D01*
X191250D01*
Y413347D01*
X187047D01*
X186873Y413332D01*
X186705Y413287D01*
X186547Y413213D01*
X186404Y413113D01*
X186281Y412990D01*
X186181Y412847D01*
X186107Y412689D01*
X186063Y412525D01*
X186019Y412689D01*
X185945Y412847D01*
X185845Y412990D01*
X185722Y413113D01*
X185579Y413213D01*
X185421Y413287D01*
X185253Y413332D01*
X185079Y413347D01*
X179173D01*
X178999Y413332D01*
X178831Y413287D01*
X178673Y413213D01*
X178530Y413113D01*
X178407Y412990D01*
X178307Y412847D01*
X178233Y412689D01*
X178188Y412521D01*
X178173Y412347D01*
Y410476D01*
X174175D01*
X174169Y410484D01*
X174107Y410545D01*
X174036Y410595D01*
X173957Y410632D01*
X173724Y410705D01*
X173486Y410758D01*
X173244Y410790D01*
X173000Y410800D01*
Y480000D01*
G37*
G36*
X170769D02*X173000D01*
Y410800D01*
X172755Y410790D01*
X172513Y410758D01*
X172275Y410705D01*
X172042Y410632D01*
X171963Y410595D01*
X171892Y410545D01*
X171830Y410484D01*
X171780Y410412D01*
X171743Y410333D01*
X171720Y410249D01*
X171713Y410162D01*
X171720Y410075D01*
X171743Y409991D01*
X171780Y409912D01*
X171830Y409841D01*
X171891Y409779D01*
X171963Y409729D01*
X172042Y409692D01*
X172126Y409669D01*
X172213Y409662D01*
X172300Y409669D01*
X172384Y409692D01*
X172534Y409739D01*
X172641Y409763D01*
X171939Y409061D01*
X171940Y409060D01*
X171772Y408860D01*
X171641Y408634D01*
X171552Y408388D01*
X171507Y408131D01*
Y407869D01*
X171552Y407612D01*
X171641Y407366D01*
X171772Y407140D01*
X171940Y406940D01*
X172140Y406772D01*
X172366Y406641D01*
X172612Y406552D01*
X172869Y406507D01*
X173000D01*
Y406200D01*
X172999D01*
X172843Y406207D01*
X172687Y406228D01*
X172534Y406262D01*
X172384Y406309D01*
X172300Y406332D01*
X172213Y406339D01*
X172126Y406332D01*
X172042Y406309D01*
X171963Y406272D01*
X171891Y406222D01*
X171830Y406160D01*
X171780Y406089D01*
X171743Y406010D01*
X171720Y405926D01*
X171713Y405839D01*
X171720Y405752D01*
X171743Y405668D01*
X171780Y405589D01*
X171830Y405517D01*
X171892Y405456D01*
X171963Y405406D01*
X172042Y405369D01*
X172275Y405296D01*
X172513Y405243D01*
X172755Y405211D01*
X172999Y405200D01*
X173000D01*
Y397500D01*
X170769D01*
Y406720D01*
X170838Y406714D01*
X170925Y406721D01*
X171009Y406744D01*
X171088Y406781D01*
X171159Y406831D01*
X171221Y406892D01*
X171271Y406964D01*
X171308Y407043D01*
X171331Y407127D01*
X171338Y407214D01*
X171331Y407301D01*
X171308Y407385D01*
X171261Y407535D01*
X171227Y407688D01*
X171206Y407844D01*
X171200Y408001D01*
X171206Y408157D01*
X171227Y408313D01*
X171261Y408466D01*
X171308Y408616D01*
X171331Y408700D01*
X171338Y408787D01*
X171331Y408874D01*
X171308Y408958D01*
X171271Y409037D01*
X171221Y409109D01*
X171159Y409170D01*
X171088Y409220D01*
X171009Y409257D01*
X170925Y409280D01*
X170838Y409287D01*
X170769Y409281D01*
Y414500D01*
X171500D01*
X171587Y414508D01*
X171671Y414530D01*
X171750Y414567D01*
X171821Y414617D01*
X171883Y414679D01*
X171933Y414750D01*
X171970Y414829D01*
X171992Y414913D01*
X172000Y415000D01*
Y417000D01*
X171992Y417087D01*
X171970Y417171D01*
X171933Y417250D01*
X171883Y417321D01*
X171821Y417383D01*
X171750Y417433D01*
X171671Y417470D01*
X171587Y417492D01*
X171500Y417500D01*
X170769D01*
Y419500D01*
X171500D01*
X171587Y419508D01*
X171671Y419530D01*
X171750Y419567D01*
X171821Y419617D01*
X171883Y419679D01*
X171933Y419750D01*
X171970Y419829D01*
X171992Y419913D01*
X172000Y420000D01*
Y422000D01*
X171992Y422087D01*
X171970Y422171D01*
X171933Y422250D01*
X171883Y422321D01*
X171821Y422383D01*
X171750Y422433D01*
X171671Y422470D01*
X171587Y422492D01*
X171500Y422500D01*
X170769D01*
Y424500D01*
X171500D01*
X171587Y424508D01*
X171671Y424530D01*
X171750Y424567D01*
X171821Y424617D01*
X171883Y424679D01*
X171933Y424750D01*
X171970Y424829D01*
X171992Y424913D01*
X172000Y425000D01*
Y427000D01*
X171992Y427087D01*
X171970Y427171D01*
X171933Y427250D01*
X171883Y427321D01*
X171821Y427383D01*
X171750Y427433D01*
X171671Y427470D01*
X171587Y427492D01*
X171500Y427500D01*
X170769D01*
Y429500D01*
X171500D01*
X171587Y429508D01*
X171671Y429530D01*
X171750Y429567D01*
X171821Y429617D01*
X171883Y429679D01*
X171933Y429750D01*
X171970Y429829D01*
X171992Y429913D01*
X172000Y430000D01*
Y432000D01*
X171992Y432087D01*
X171970Y432171D01*
X171933Y432250D01*
X171883Y432321D01*
X171821Y432383D01*
X171750Y432433D01*
X171671Y432470D01*
X171587Y432492D01*
X171500Y432500D01*
X170769D01*
Y480000D01*
G37*
G36*
Y427500D02*X161231D01*
Y429500D01*
X170769D01*
Y427500D01*
G37*
G36*
Y422500D02*X161231D01*
Y424500D01*
X170769D01*
Y422500D01*
G37*
G36*
Y417500D02*X161231D01*
Y419500D01*
X170769D01*
Y417500D01*
G37*
G36*
Y397500D02*X163621D01*
X161231Y399890D01*
Y414500D01*
X170769D01*
Y409281D01*
X170751Y409280D01*
X170667Y409257D01*
X170588Y409220D01*
X170516Y409170D01*
X170455Y409108D01*
X170405Y409037D01*
X170368Y408958D01*
X170295Y408725D01*
X170242Y408487D01*
X170210Y408245D01*
X170200Y408001D01*
X170210Y407756D01*
X170242Y407514D01*
X170295Y407276D01*
X170368Y407043D01*
X170405Y406964D01*
X170455Y406893D01*
X170516Y406831D01*
X170588Y406781D01*
X170667Y406744D01*
X170751Y406721D01*
X170769Y406720D01*
Y397500D01*
G37*
G36*
X161231Y480000D02*X170769D01*
Y432500D01*
X161231D01*
Y436720D01*
X161248Y436721D01*
X161332Y436744D01*
X161411Y436781D01*
X161483Y436831D01*
X161544Y436893D01*
X161594Y436964D01*
X161631Y437043D01*
X161704Y437276D01*
X161757Y437514D01*
X161789Y437756D01*
X161800Y438000D01*
X161789Y438245D01*
X161757Y438487D01*
X161704Y438725D01*
X161631Y438958D01*
X161594Y439037D01*
X161544Y439108D01*
X161483Y439170D01*
X161411Y439220D01*
X161332Y439257D01*
X161248Y439280D01*
X161231Y439281D01*
Y480000D01*
G37*
G36*
Y427500D02*X159000D01*
Y429500D01*
X161231D01*
Y427500D01*
G37*
G36*
Y422500D02*X159000D01*
Y424500D01*
X161231D01*
Y422500D01*
G37*
G36*
Y417500D02*X159000D01*
Y419500D01*
X161231D01*
Y417500D01*
G37*
G36*
Y399890D02*X159000Y402121D01*
Y414500D01*
X161231D01*
Y399890D01*
G37*
G36*
Y385000D02*X159000D01*
Y397879D01*
X161231Y395648D01*
Y385000D01*
G37*
G36*
X159000Y480000D02*X161231D01*
Y439281D01*
X161161Y439287D01*
X161074Y439280D01*
X160990Y439257D01*
X160911Y439220D01*
X160840Y439170D01*
X160778Y439109D01*
X160728Y439037D01*
X160691Y438958D01*
X160668Y438874D01*
X160661Y438787D01*
X160668Y438700D01*
X160691Y438616D01*
X160738Y438466D01*
X160772Y438313D01*
X160793Y438157D01*
X160800Y438000D01*
X160793Y437844D01*
X160772Y437688D01*
X160738Y437535D01*
X160691Y437385D01*
X160668Y437301D01*
X160661Y437214D01*
X160668Y437127D01*
X160691Y437043D01*
X160728Y436964D01*
X160778Y436892D01*
X160840Y436831D01*
X160911Y436781D01*
X160990Y436744D01*
X161074Y436721D01*
X161161Y436714D01*
X161231Y436720D01*
Y432500D01*
X159621D01*
X159000Y433121D01*
Y435200D01*
X159244Y435211D01*
X159486Y435243D01*
X159724Y435296D01*
X159957Y435369D01*
X160036Y435406D01*
X160107Y435456D01*
X160169Y435517D01*
X160219Y435589D01*
X160256Y435668D01*
X160279Y435752D01*
X160286Y435839D01*
X160279Y435926D01*
X160256Y436010D01*
X160219Y436089D01*
X160169Y436160D01*
X160108Y436222D01*
X160036Y436272D01*
X159957Y436309D01*
X159873Y436332D01*
X159786Y436339D01*
X159699Y436332D01*
X159615Y436309D01*
X159465Y436262D01*
X159358Y436238D01*
X160060Y436940D01*
X160061Y436939D01*
X160229Y437139D01*
X160360Y437366D01*
X160449Y437612D01*
X160495Y437869D01*
Y438131D01*
X160449Y438388D01*
X160360Y438634D01*
X160229Y438861D01*
X160061Y439061D01*
X159861Y439229D01*
X159634Y439360D01*
X159388Y439449D01*
X159131Y439495D01*
X159000D01*
Y439800D01*
X159156Y439794D01*
X159312Y439773D01*
X159465Y439739D01*
X159615Y439692D01*
X159699Y439669D01*
X159786Y439662D01*
X159873Y439669D01*
X159957Y439692D01*
X160036Y439729D01*
X160108Y439779D01*
X160169Y439841D01*
X160219Y439912D01*
X160256Y439991D01*
X160279Y440075D01*
X160286Y440162D01*
X160279Y440249D01*
X160256Y440333D01*
X160219Y440412D01*
X160169Y440484D01*
X160107Y440545D01*
X160036Y440595D01*
X159957Y440632D01*
X159724Y440705D01*
X159486Y440758D01*
X159244Y440790D01*
X159000Y440800D01*
Y480000D01*
G37*
G36*
Y422500D02*X153621D01*
X152500Y423621D01*
Y423645D01*
X152800Y423855D01*
X153145Y424200D01*
X153425Y424600D01*
X153500Y424761D01*
X153575Y424600D01*
X153855Y424200D01*
X154200Y423855D01*
X154600Y423575D01*
X155042Y423369D01*
X155514Y423243D01*
X156000Y423200D01*
X156486Y423243D01*
X156958Y423369D01*
X157400Y423575D01*
X157800Y423855D01*
X158145Y424200D01*
X158355Y424500D01*
X159000D01*
Y422500D01*
G37*
G36*
Y417500D02*X150621D01*
X147500Y420621D01*
Y423645D01*
X147800Y423855D01*
X148145Y424200D01*
X148425Y424600D01*
X148500Y424761D01*
X148575Y424600D01*
X148855Y424200D01*
X149200Y423855D01*
X149500Y423645D01*
Y423000D01*
X149506Y422932D01*
Y422870D01*
X149517Y422807D01*
X149523Y422740D01*
X149540Y422676D01*
X149551Y422613D01*
X149572Y422555D01*
X149590Y422487D01*
X149619Y422425D01*
X149640Y422367D01*
X149673Y422310D01*
X149701Y422250D01*
X149738Y422197D01*
X149771Y422140D01*
X149814Y422089D01*
X149851Y422036D01*
X149897Y421990D01*
X149939Y421940D01*
X151940Y419939D01*
X151990Y419897D01*
X152036Y419851D01*
X152089Y419814D01*
X152140Y419771D01*
X152197Y419738D01*
X152250Y419701D01*
X152310Y419673D01*
X152367Y419640D01*
X152425Y419619D01*
X152487Y419590D01*
X152555Y419572D01*
X152613Y419551D01*
X152676Y419540D01*
X152740Y419523D01*
X152807Y419517D01*
X152870Y419506D01*
X152932D01*
X153000Y419500D01*
X159000D01*
Y417500D01*
G37*
G36*
X158500Y435246D02*X158513Y435243D01*
X158755Y435211D01*
X158999Y435200D01*
X159000D01*
Y433121D01*
X158500Y433621D01*
Y435246D01*
G37*
G36*
X159000Y385000D02*X103000D01*
Y402389D01*
X103400Y402575D01*
X103800Y402855D01*
X104145Y403200D01*
X104425Y403600D01*
X104631Y404042D01*
X104757Y404514D01*
X104800Y405000D01*
X104757Y405486D01*
X104631Y405958D01*
X104425Y406400D01*
X104145Y406800D01*
X103800Y407145D01*
X103400Y407425D01*
X103000Y407611D01*
Y416200D01*
X103244Y416211D01*
X103486Y416243D01*
X103724Y416296D01*
X103957Y416369D01*
X104036Y416406D01*
X104107Y416456D01*
X104169Y416517D01*
X104219Y416589D01*
X104256Y416668D01*
X104279Y416752D01*
X104286Y416839D01*
X104279Y416926D01*
X104256Y417010D01*
X104219Y417089D01*
X104169Y417160D01*
X104108Y417222D01*
X104036Y417272D01*
X103957Y417309D01*
X103873Y417332D01*
X103786Y417339D01*
X103699Y417332D01*
X103615Y417309D01*
X103465Y417262D01*
X103312Y417228D01*
X103156Y417207D01*
X103000Y417200D01*
Y417500D01*
X106047D01*
Y416173D01*
X106062Y415999D01*
X106107Y415831D01*
X106181Y415673D01*
X106281Y415530D01*
X106404Y415407D01*
X106547Y415307D01*
X106705Y415233D01*
X106873Y415188D01*
X107047Y415173D01*
X113347D01*
X113521Y415188D01*
X113689Y415233D01*
X113847Y415307D01*
X113990Y415407D01*
X114113Y415530D01*
X114213Y415673D01*
X114287Y415831D01*
X114332Y415999D01*
X114347Y416173D01*
Y422079D01*
X114332Y422253D01*
X114287Y422421D01*
X114213Y422579D01*
X114113Y422722D01*
X113990Y422845D01*
X113847Y422945D01*
X113689Y423019D01*
X113525Y423063D01*
X113689Y423107D01*
X113847Y423181D01*
X113990Y423281D01*
X114113Y423404D01*
X114213Y423547D01*
X114287Y423705D01*
X114332Y423873D01*
X114347Y424047D01*
Y429953D01*
X114332Y430127D01*
X114287Y430295D01*
X114213Y430453D01*
X114113Y430596D01*
X113990Y430719D01*
X113847Y430819D01*
X113689Y430893D01*
X113521Y430938D01*
X113347Y430953D01*
X111500D01*
Y433645D01*
X111800Y433855D01*
X112145Y434200D01*
X112425Y434600D01*
X112631Y435042D01*
X112757Y435514D01*
X112800Y436000D01*
X112757Y436486D01*
X112631Y436958D01*
X112425Y437400D01*
X112145Y437800D01*
X111800Y438145D01*
X111400Y438425D01*
X110958Y438631D01*
X110486Y438757D01*
X110000Y438800D01*
X109514Y438757D01*
X109042Y438631D01*
X108600Y438425D01*
X108200Y438145D01*
X108088Y438033D01*
X106061Y440060D01*
X106011Y440102D01*
X105964Y440149D01*
X105909Y440187D01*
X105861Y440228D01*
X105806Y440260D01*
X105750Y440299D01*
X105686Y440329D01*
X105634Y440359D01*
X105580Y440379D01*
X105513Y440410D01*
X105441Y440429D01*
X105389Y440448D01*
X105329Y440459D01*
X105260Y440477D01*
X105194Y440483D01*
X105131Y440494D01*
X105068D01*
X105000Y440500D01*
X103000D01*
Y447879D01*
X147500Y403379D01*
Y403000D01*
X147506Y402932D01*
Y402870D01*
X147517Y402807D01*
X147523Y402740D01*
X147540Y402676D01*
X147551Y402613D01*
X147572Y402555D01*
X147590Y402487D01*
X147619Y402425D01*
X147640Y402367D01*
X147673Y402310D01*
X147701Y402250D01*
X147738Y402197D01*
X147771Y402140D01*
X147814Y402089D01*
X147851Y402036D01*
X147897Y401990D01*
X147939Y401940D01*
X149275Y400604D01*
X149243Y400486D01*
X149200Y400000D01*
X149243Y399514D01*
X149369Y399042D01*
X149575Y398600D01*
X149855Y398200D01*
X150200Y397855D01*
X150600Y397575D01*
X151042Y397369D01*
X151514Y397243D01*
X152000Y397200D01*
X152486Y397243D01*
X152958Y397369D01*
X153400Y397575D01*
X153800Y397855D01*
X154145Y398200D01*
X154425Y398600D01*
X154631Y399042D01*
X154757Y399514D01*
X154800Y400000D01*
X154757Y400486D01*
X154631Y400958D01*
X154425Y401400D01*
X154145Y401800D01*
X153800Y402145D01*
X153400Y402425D01*
X152958Y402631D01*
X152486Y402757D01*
X152000Y402800D01*
X151514Y402757D01*
X151396Y402725D01*
X150500Y403621D01*
Y404000D01*
X150494Y404068D01*
Y404131D01*
X150483Y404194D01*
X150477Y404260D01*
X150459Y404328D01*
X150448Y404389D01*
X150429Y404440D01*
X150410Y404513D01*
X150378Y404580D01*
X150359Y404634D01*
X150330Y404684D01*
X150299Y404750D01*
X150259Y404806D01*
X150228Y404861D01*
X150187Y404910D01*
X150149Y404964D01*
X150102Y405011D01*
X150060Y405061D01*
X103000Y452121D01*
Y453879D01*
X159000Y397879D01*
Y385000D01*
G37*
G36*
X119231Y480000D02*X159000D01*
Y440800D01*
X158755Y440790D01*
X158513Y440758D01*
X158275Y440705D01*
X158042Y440632D01*
X157963Y440595D01*
X157892Y440545D01*
X157830Y440484D01*
X157780Y440412D01*
X157743Y440333D01*
X157720Y440249D01*
X157713Y440162D01*
X157720Y440075D01*
X157743Y439991D01*
X157780Y439912D01*
X157830Y439841D01*
X157891Y439779D01*
X157963Y439729D01*
X158042Y439692D01*
X158126Y439669D01*
X158213Y439662D01*
X158300Y439669D01*
X158384Y439692D01*
X158534Y439739D01*
X158687Y439773D01*
X158843Y439794D01*
X159000Y439800D01*
Y439495D01*
X158869D01*
X158612Y439449D01*
X158366Y439360D01*
X158139Y439229D01*
X157939Y439061D01*
X157237Y438359D01*
X157261Y438466D01*
X157308Y438616D01*
X157331Y438700D01*
X157338Y438787D01*
X157331Y438874D01*
X157308Y438958D01*
X157271Y439037D01*
X157221Y439109D01*
X157159Y439170D01*
X157088Y439220D01*
X157009Y439257D01*
X156925Y439280D01*
X156838Y439287D01*
X156751Y439280D01*
X156667Y439257D01*
X156588Y439220D01*
X156516Y439170D01*
X156455Y439108D01*
X156405Y439037D01*
X156368Y438958D01*
X156295Y438725D01*
X156242Y438487D01*
X156210Y438245D01*
X156200Y438001D01*
X156210Y437756D01*
X156242Y437514D01*
X156269Y437391D01*
X155939Y437061D01*
X155940Y437060D01*
X155903Y437016D01*
X155851Y436964D01*
X155809Y436904D01*
X155772Y436860D01*
X155743Y436810D01*
X155701Y436750D01*
X155671Y436686D01*
X155641Y436634D01*
X155622Y436581D01*
X155590Y436513D01*
X155570Y436437D01*
X155552Y436388D01*
X155542Y436333D01*
X155523Y436260D01*
X155516Y436185D01*
X155507Y436131D01*
Y436079D01*
X155500Y436000D01*
Y433000D01*
X155506Y432932D01*
Y432870D01*
X155517Y432807D01*
X155523Y432740D01*
X155540Y432676D01*
X155551Y432613D01*
X155572Y432555D01*
X155590Y432487D01*
X155619Y432425D01*
X155640Y432367D01*
X155673Y432310D01*
X155701Y432250D01*
X155738Y432197D01*
X155771Y432140D01*
X155814Y432089D01*
X155851Y432036D01*
X155897Y431990D01*
X155939Y431940D01*
X157940Y429939D01*
X157990Y429897D01*
X158036Y429851D01*
X158089Y429814D01*
X158140Y429771D01*
X158197Y429738D01*
X158250Y429701D01*
X158310Y429673D01*
X158367Y429640D01*
X158425Y429619D01*
X158487Y429590D01*
X158555Y429572D01*
X158613Y429551D01*
X158676Y429540D01*
X158740Y429523D01*
X158807Y429517D01*
X158870Y429506D01*
X158932D01*
X159000Y429500D01*
Y427500D01*
X158355D01*
X158145Y427800D01*
X157800Y428145D01*
X157400Y428425D01*
X156958Y428631D01*
X156486Y428757D01*
X156000Y428800D01*
X155514Y428757D01*
X155042Y428631D01*
X154600Y428425D01*
X154200Y428145D01*
X153855Y427800D01*
X153575Y427400D01*
X153500Y427239D01*
X153425Y427400D01*
X153145Y427800D01*
X152800Y428145D01*
X152400Y428425D01*
X151958Y428631D01*
X151486Y428757D01*
X151000Y428800D01*
X150514Y428757D01*
X150042Y428631D01*
X149600Y428425D01*
X149200Y428145D01*
X148855Y427800D01*
X148575Y427400D01*
X148500Y427239D01*
X148425Y427400D01*
X148145Y427800D01*
X147800Y428145D01*
X147400Y428425D01*
X146958Y428631D01*
X146486Y428757D01*
X146000Y428800D01*
X145514Y428757D01*
X145042Y428631D01*
X144600Y428425D01*
X144200Y428145D01*
X143855Y427800D01*
X143575Y427400D01*
X143369Y426958D01*
X143243Y426486D01*
X143200Y426000D01*
X143243Y425514D01*
X143369Y425042D01*
X143575Y424600D01*
X143855Y424200D01*
X144200Y423855D01*
X144500Y423645D01*
Y420000D01*
X144506Y419932D01*
Y419870D01*
X144517Y419807D01*
X144523Y419740D01*
X144540Y419676D01*
X144551Y419613D01*
X144572Y419555D01*
X144590Y419487D01*
X144619Y419425D01*
X144640Y419367D01*
X144673Y419310D01*
X144701Y419250D01*
X144738Y419197D01*
X144771Y419140D01*
X144814Y419089D01*
X144851Y419036D01*
X144897Y418990D01*
X144939Y418940D01*
X148940Y414939D01*
X148990Y414897D01*
X149036Y414851D01*
X149089Y414814D01*
X149140Y414771D01*
X149197Y414738D01*
X149250Y414701D01*
X149310Y414673D01*
X149367Y414640D01*
X149425Y414619D01*
X149487Y414590D01*
X149555Y414572D01*
X149613Y414551D01*
X149676Y414540D01*
X149740Y414523D01*
X149807Y414517D01*
X149870Y414506D01*
X149932D01*
X150000Y414500D01*
X159000D01*
Y402121D01*
X119231Y441890D01*
Y450720D01*
X119248Y450721D01*
X119332Y450744D01*
X119411Y450781D01*
X119483Y450831D01*
X119544Y450893D01*
X119594Y450964D01*
X119631Y451043D01*
X119704Y451276D01*
X119757Y451514D01*
X119789Y451756D01*
X119800Y452000D01*
X119789Y452245D01*
X119757Y452487D01*
X119704Y452725D01*
X119631Y452958D01*
X119594Y453037D01*
X119544Y453108D01*
X119483Y453170D01*
X119411Y453220D01*
X119332Y453257D01*
X119248Y453280D01*
X119231Y453281D01*
Y480000D01*
G37*
G36*
X117000D02*X119231D01*
Y453281D01*
X119161Y453287D01*
X119074Y453280D01*
X118990Y453257D01*
X118911Y453220D01*
X118840Y453170D01*
X118778Y453109D01*
X118728Y453037D01*
X118691Y452958D01*
X118668Y452874D01*
X118661Y452787D01*
X118668Y452700D01*
X118691Y452616D01*
X118738Y452466D01*
X118772Y452313D01*
X118793Y452157D01*
X118800Y452000D01*
X118793Y451844D01*
X118772Y451688D01*
X118738Y451535D01*
X118691Y451385D01*
X118668Y451301D01*
X118661Y451214D01*
X118668Y451127D01*
X118691Y451043D01*
X118728Y450964D01*
X118778Y450892D01*
X118840Y450831D01*
X118911Y450781D01*
X118990Y450744D01*
X119074Y450721D01*
X119161Y450714D01*
X119231Y450720D01*
Y441890D01*
X117000Y444121D01*
Y449200D01*
X117244Y449211D01*
X117486Y449243D01*
X117724Y449296D01*
X117957Y449369D01*
X118036Y449406D01*
X118107Y449456D01*
X118169Y449517D01*
X118219Y449589D01*
X118256Y449668D01*
X118279Y449752D01*
X118286Y449839D01*
X118279Y449926D01*
X118256Y450010D01*
X118219Y450089D01*
X118169Y450160D01*
X118108Y450222D01*
X118036Y450272D01*
X117957Y450309D01*
X117873Y450332D01*
X117786Y450339D01*
X117699Y450332D01*
X117615Y450309D01*
X117465Y450262D01*
X117312Y450228D01*
X117156Y450207D01*
X117000Y450200D01*
Y453800D01*
X117156Y453794D01*
X117312Y453773D01*
X117465Y453739D01*
X117615Y453692D01*
X117699Y453669D01*
X117786Y453662D01*
X117873Y453669D01*
X117957Y453692D01*
X118036Y453729D01*
X118108Y453779D01*
X118169Y453841D01*
X118219Y453912D01*
X118256Y453991D01*
X118279Y454075D01*
X118286Y454162D01*
X118279Y454249D01*
X118256Y454333D01*
X118219Y454412D01*
X118169Y454484D01*
X118107Y454545D01*
X118036Y454595D01*
X117957Y454632D01*
X117724Y454705D01*
X117486Y454758D01*
X117244Y454790D01*
X117000Y454800D01*
Y480000D01*
G37*
G36*
X114769D02*X117000D01*
Y454800D01*
X116755Y454790D01*
X116513Y454758D01*
X116275Y454705D01*
X116042Y454632D01*
X115963Y454595D01*
X115892Y454545D01*
X115830Y454484D01*
X115780Y454412D01*
X115743Y454333D01*
X115720Y454249D01*
X115713Y454162D01*
X115720Y454075D01*
X115743Y453991D01*
X115780Y453912D01*
X115830Y453841D01*
X115891Y453779D01*
X115963Y453729D01*
X116042Y453692D01*
X116126Y453669D01*
X116213Y453662D01*
X116300Y453669D01*
X116384Y453692D01*
X116534Y453739D01*
X116687Y453773D01*
X116843Y453794D01*
X117000Y453800D01*
Y450200D01*
X116999D01*
X116843Y450207D01*
X116687Y450228D01*
X116534Y450262D01*
X116384Y450309D01*
X116300Y450332D01*
X116213Y450339D01*
X116126Y450332D01*
X116042Y450309D01*
X115963Y450272D01*
X115891Y450222D01*
X115830Y450160D01*
X115780Y450089D01*
X115743Y450010D01*
X115720Y449926D01*
X115713Y449839D01*
X115720Y449752D01*
X115743Y449668D01*
X115780Y449589D01*
X115830Y449517D01*
X115892Y449456D01*
X115963Y449406D01*
X116042Y449369D01*
X116275Y449296D01*
X116513Y449243D01*
X116755Y449211D01*
X116999Y449200D01*
X117000D01*
Y444121D01*
X114769Y446352D01*
Y450720D01*
X114838Y450714D01*
X114925Y450721D01*
X115009Y450744D01*
X115088Y450781D01*
X115159Y450831D01*
X115221Y450892D01*
X115271Y450964D01*
X115308Y451043D01*
X115331Y451127D01*
X115338Y451214D01*
X115331Y451301D01*
X115308Y451385D01*
X115261Y451535D01*
X115227Y451688D01*
X115206Y451844D01*
X115200Y452001D01*
X115206Y452157D01*
X115227Y452313D01*
X115261Y452466D01*
X115308Y452616D01*
X115331Y452700D01*
X115338Y452787D01*
X115331Y452874D01*
X115308Y452958D01*
X115271Y453037D01*
X115221Y453109D01*
X115159Y453170D01*
X115088Y453220D01*
X115009Y453257D01*
X114925Y453280D01*
X114838Y453287D01*
X114769Y453281D01*
Y480000D01*
G37*
G36*
X103000D02*X114769D01*
Y453281D01*
X114751Y453280D01*
X114667Y453257D01*
X114588Y453220D01*
X114516Y453170D01*
X114455Y453108D01*
X114405Y453037D01*
X114368Y452958D01*
X114295Y452725D01*
X114242Y452487D01*
X114210Y452245D01*
X114200Y452001D01*
X114210Y451756D01*
X114242Y451514D01*
X114295Y451276D01*
X114368Y451043D01*
X114405Y450964D01*
X114455Y450893D01*
X114516Y450831D01*
X114588Y450781D01*
X114667Y450744D01*
X114751Y450721D01*
X114769Y450720D01*
Y446352D01*
X103000Y458121D01*
Y480000D01*
G37*
G36*
Y452121D02*X100769Y454352D01*
Y456110D01*
X103000Y453879D01*
Y452121D01*
G37*
G36*
Y440500D02*X100769D01*
Y450110D01*
X103000Y447879D01*
Y440500D01*
G37*
G36*
X101769Y418153D02*X101851Y418036D01*
X102036Y417851D01*
X102250Y417701D01*
X102487Y417590D01*
X102740Y417523D01*
X103000Y417500D01*
Y417200D01*
X102999D01*
X102843Y417207D01*
X102687Y417228D01*
X102534Y417262D01*
X102384Y417309D01*
X102300Y417332D01*
X102213Y417339D01*
X102126Y417332D01*
X102042Y417309D01*
X101963Y417272D01*
X101891Y417222D01*
X101830Y417160D01*
X101780Y417089D01*
X101769Y417066D01*
Y418153D01*
G37*
G36*
Y420935D02*X101780Y420912D01*
X101830Y420841D01*
X101891Y420779D01*
X101963Y420729D01*
X102042Y420692D01*
X102126Y420669D01*
X102213Y420662D01*
X102300Y420669D01*
X102384Y420692D01*
X102534Y420739D01*
X102687Y420773D01*
X102843Y420794D01*
X103000Y420800D01*
Y420500D01*
X102740Y420477D01*
X102487Y420410D01*
X102250Y420299D01*
X102036Y420149D01*
X101851Y419964D01*
X101769Y419847D01*
Y420935D01*
G37*
G36*
Y437500D02*X103000D01*
Y436612D01*
X102963Y436595D01*
X102892Y436545D01*
X102830Y436484D01*
X102780Y436412D01*
X102743Y436333D01*
X102720Y436249D01*
X102713Y436162D01*
X102720Y436075D01*
X102743Y435991D01*
X102780Y435912D01*
X102830Y435841D01*
X102891Y435779D01*
X102963Y435729D01*
X103000Y435712D01*
Y432289D01*
X102963Y432272D01*
X102891Y432222D01*
X102830Y432160D01*
X102780Y432089D01*
X102743Y432010D01*
X102720Y431926D01*
X102713Y431839D01*
X102720Y431752D01*
X102743Y431668D01*
X102780Y431589D01*
X102830Y431517D01*
X102892Y431456D01*
X102963Y431406D01*
X103000Y431389D01*
Y421800D01*
X102755Y421790D01*
X102513Y421758D01*
X102275Y421705D01*
X102042Y421632D01*
X101963Y421595D01*
X101892Y421545D01*
X101830Y421484D01*
X101780Y421412D01*
X101769Y421389D01*
Y432720D01*
X101838Y432714D01*
X101925Y432721D01*
X102009Y432744D01*
X102088Y432781D01*
X102159Y432831D01*
X102221Y432892D01*
X102271Y432964D01*
X102308Y433043D01*
X102331Y433127D01*
X102338Y433214D01*
X102331Y433301D01*
X102308Y433385D01*
X102261Y433535D01*
X102227Y433688D01*
X102206Y433844D01*
X102200Y434001D01*
X102206Y434157D01*
X102227Y434313D01*
X102261Y434466D01*
X102308Y434616D01*
X102331Y434700D01*
X102338Y434787D01*
X102331Y434874D01*
X102308Y434958D01*
X102271Y435037D01*
X102221Y435109D01*
X102159Y435170D01*
X102088Y435220D01*
X102009Y435257D01*
X101925Y435280D01*
X101838Y435287D01*
X101769Y435281D01*
Y437500D01*
G37*
G36*
X103000Y407611D02*X102958Y407631D01*
X102486Y407757D01*
X102000Y407800D01*
X101769Y407780D01*
Y416612D01*
X101780Y416589D01*
X101830Y416517D01*
X101892Y416456D01*
X101963Y416406D01*
X102042Y416369D01*
X102275Y416296D01*
X102513Y416243D01*
X102755Y416211D01*
X102999Y416200D01*
X103000D01*
Y407611D01*
G37*
G36*
X101769Y407780D02*X101514Y407757D01*
X101396Y407725D01*
X100769Y408352D01*
Y417720D01*
X100838Y417714D01*
X100925Y417721D01*
X101009Y417744D01*
X101088Y417781D01*
X101159Y417831D01*
X101221Y417892D01*
X101271Y417964D01*
X101308Y418043D01*
X101331Y418127D01*
X101338Y418214D01*
X101331Y418301D01*
X101308Y418385D01*
X101261Y418535D01*
X101227Y418688D01*
X101206Y418844D01*
X101200Y419001D01*
X101206Y419157D01*
X101227Y419313D01*
X101261Y419466D01*
X101308Y419616D01*
X101331Y419700D01*
X101338Y419787D01*
X101331Y419874D01*
X101308Y419958D01*
X101271Y420037D01*
X101221Y420109D01*
X101159Y420170D01*
X101088Y420220D01*
X101009Y420257D01*
X100925Y420280D01*
X100838Y420287D01*
X100769Y420281D01*
Y437500D01*
X101769D01*
Y435281D01*
X101751Y435280D01*
X101667Y435257D01*
X101588Y435220D01*
X101516Y435170D01*
X101455Y435108D01*
X101405Y435037D01*
X101368Y434958D01*
X101295Y434725D01*
X101242Y434487D01*
X101210Y434245D01*
X101200Y434001D01*
X101210Y433756D01*
X101242Y433514D01*
X101295Y433276D01*
X101368Y433043D01*
X101405Y432964D01*
X101455Y432893D01*
X101516Y432831D01*
X101588Y432781D01*
X101667Y432744D01*
X101751Y432721D01*
X101769Y432720D01*
Y421389D01*
X101743Y421333D01*
X101720Y421249D01*
X101713Y421162D01*
X101720Y421075D01*
X101743Y420991D01*
X101769Y420935D01*
Y419847D01*
X101701Y419750D01*
X101590Y419513D01*
X101523Y419260D01*
X101500Y419000D01*
X101523Y418740D01*
X101590Y418487D01*
X101701Y418250D01*
X101769Y418153D01*
Y417066D01*
X101743Y417010D01*
X101720Y416926D01*
X101713Y416839D01*
X101720Y416752D01*
X101743Y416668D01*
X101769Y416612D01*
Y407780D01*
G37*
G36*
X103000Y385000D02*X100769D01*
Y402496D01*
X101042Y402369D01*
X101514Y402243D01*
X102000Y402200D01*
X102486Y402243D01*
X102958Y402369D01*
X103000Y402389D01*
Y385000D01*
G37*
G36*
X100769Y480000D02*X103000D01*
Y458121D01*
X100769Y460352D01*
Y480000D01*
G37*
G36*
Y454352D02*X89924Y465197D01*
Y466955D01*
X100769Y456110D01*
Y454352D01*
G37*
G36*
Y440500D02*X89924D01*
Y460955D01*
X100769Y450110D01*
Y440500D01*
G37*
G36*
Y408352D02*X89924Y419197D01*
Y437500D01*
X100769D01*
Y420281D01*
X100751Y420280D01*
X100667Y420257D01*
X100588Y420220D01*
X100516Y420170D01*
X100455Y420108D01*
X100405Y420037D01*
X100368Y419958D01*
X100295Y419725D01*
X100242Y419487D01*
X100210Y419245D01*
X100200Y419001D01*
X100210Y418756D01*
X100242Y418514D01*
X100295Y418276D01*
X100368Y418043D01*
X100405Y417964D01*
X100455Y417893D01*
X100516Y417831D01*
X100588Y417781D01*
X100667Y417744D01*
X100751Y417721D01*
X100769Y417720D01*
Y408352D01*
G37*
G36*
Y385000D02*X89924D01*
Y414955D01*
X99275Y405604D01*
X99243Y405486D01*
X99200Y405000D01*
X99243Y404514D01*
X99369Y404042D01*
X99575Y403600D01*
X99855Y403200D01*
X100200Y402855D01*
X100600Y402575D01*
X100769Y402496D01*
Y385000D01*
G37*
G36*
X89924Y480000D02*X100769D01*
Y460352D01*
X89924Y471197D01*
Y480000D01*
G37*
G36*
Y465197D02*X89061Y466060D01*
X89010Y466103D01*
X88964Y466149D01*
X88909Y466188D01*
X88861Y466228D01*
X88805Y466261D01*
X88750Y466299D01*
X88687Y466329D01*
X88634Y466359D01*
X88581Y466378D01*
X88513Y466410D01*
X88440Y466429D01*
X88389Y466448D01*
X88329Y466459D01*
X88260Y466477D01*
X88193Y466483D01*
X88131Y466494D01*
X88068D01*
X88000Y466500D01*
X84413D01*
X84477Y466740D01*
X84500Y467000D01*
Y472379D01*
X89924Y466955D01*
Y465197D01*
G37*
G36*
X83750Y417540D02*X83897Y417750D01*
X84229Y418461D01*
X84432Y419219D01*
X84500Y420000D01*
X84464Y420415D01*
X89924Y414955D01*
Y385000D01*
X83750D01*
Y387750D01*
X83880Y387761D01*
X84007Y387795D01*
X84125Y387850D01*
X84232Y387925D01*
X84325Y388018D01*
X84400Y388125D01*
X84455Y388243D01*
X84489Y388370D01*
X84500Y388500D01*
Y391500D01*
X84489Y391630D01*
X84455Y391757D01*
X84400Y391875D01*
X84325Y391982D01*
X84232Y392075D01*
X84125Y392150D01*
X84007Y392205D01*
X83880Y392239D01*
X83750Y392250D01*
Y397540D01*
X83897Y397750D01*
X84229Y398461D01*
X84432Y399219D01*
X84500Y400000D01*
X84432Y400781D01*
X84229Y401539D01*
X83897Y402250D01*
X83750Y402460D01*
Y407540D01*
X83897Y407750D01*
X84229Y408461D01*
X84432Y409219D01*
X84500Y410000D01*
X84432Y410781D01*
X84229Y411539D01*
X83897Y412250D01*
X83750Y412460D01*
Y417540D01*
G37*
G36*
Y402460D02*X83447Y402893D01*
X82893Y403447D01*
X82250Y403897D01*
X81539Y404229D01*
X80781Y404432D01*
X80000Y404500D01*
Y405500D01*
X80781Y405568D01*
X81539Y405771D01*
X82250Y406103D01*
X82893Y406553D01*
X83447Y407107D01*
X83750Y407540D01*
Y402460D01*
G37*
G36*
Y385000D02*X80000D01*
Y385500D01*
X81500D01*
X81630Y385511D01*
X81757Y385545D01*
X81875Y385600D01*
X81982Y385675D01*
X82075Y385768D01*
X82150Y385875D01*
X82205Y385993D01*
X82239Y386120D01*
X82250Y386250D01*
X82239Y386380D01*
X82205Y386507D01*
X82150Y386625D01*
X82075Y386732D01*
X81982Y386825D01*
X81875Y386900D01*
X81757Y386955D01*
X81630Y386989D01*
X81500Y387000D01*
X80000D01*
Y393000D01*
X81500D01*
X81630Y393011D01*
X81757Y393045D01*
X81875Y393100D01*
X81982Y393175D01*
X82075Y393268D01*
X82150Y393375D01*
X82205Y393493D01*
X82239Y393620D01*
X82250Y393750D01*
X82239Y393880D01*
X82205Y394007D01*
X82150Y394125D01*
X82075Y394232D01*
X81982Y394325D01*
X81875Y394400D01*
X81757Y394455D01*
X81630Y394489D01*
X81500Y394500D01*
X80000D01*
Y395500D01*
X80781Y395568D01*
X81539Y395771D01*
X82250Y396103D01*
X82893Y396553D01*
X83447Y397107D01*
X83750Y397540D01*
Y392250D01*
X83620Y392239D01*
X83493Y392205D01*
X83375Y392150D01*
X83268Y392075D01*
X83175Y391982D01*
X83100Y391875D01*
X83045Y391757D01*
X83011Y391630D01*
X83000Y391500D01*
Y388500D01*
X83011Y388370D01*
X83045Y388243D01*
X83100Y388125D01*
X83175Y388018D01*
X83268Y387925D01*
X83375Y387850D01*
X83493Y387795D01*
X83620Y387761D01*
X83750Y387750D01*
Y385000D01*
G37*
G36*
X80000Y415500D02*X80781Y415568D01*
X81539Y415771D01*
X82250Y416103D01*
X82893Y416553D01*
X83447Y417107D01*
X83750Y417540D01*
Y412460D01*
X83447Y412893D01*
X82893Y413447D01*
X82250Y413897D01*
X81539Y414229D01*
X80781Y414432D01*
X80000Y414500D01*
Y415500D01*
G37*
G36*
Y435500D02*X80781Y435568D01*
X81539Y435771D01*
X82250Y436103D01*
X82893Y436553D01*
X83447Y437107D01*
X83722Y437500D01*
X89924D01*
Y419197D01*
X83061Y426060D01*
X83011Y426102D01*
X82964Y426149D01*
X82909Y426187D01*
X82861Y426228D01*
X82806Y426260D01*
X82750Y426299D01*
X82686Y426329D01*
X82634Y426359D01*
X82622Y426364D01*
X82893Y426553D01*
X83447Y427107D01*
X83897Y427750D01*
X84229Y428461D01*
X84432Y429219D01*
X84500Y430000D01*
X84432Y430781D01*
X84229Y431539D01*
X83897Y432250D01*
X83447Y432893D01*
X82893Y433447D01*
X82250Y433897D01*
X81539Y434229D01*
X80781Y434432D01*
X80000Y434500D01*
Y435500D01*
G37*
G36*
Y455500D02*X80781Y455568D01*
X81539Y455771D01*
X82250Y456103D01*
X82893Y456553D01*
X83447Y457107D01*
X83897Y457750D01*
X84229Y458461D01*
X84432Y459219D01*
X84500Y460000D01*
X84432Y460781D01*
X84229Y461539D01*
X83897Y462250D01*
X83447Y462893D01*
X82893Y463447D01*
X82817Y463500D01*
X87379D01*
X89924Y460955D01*
Y440500D01*
X84456D01*
X84432Y440781D01*
X84229Y441539D01*
X83897Y442250D01*
X83447Y442893D01*
X82893Y443447D01*
X82250Y443897D01*
X81539Y444229D01*
X80781Y444432D01*
X80000Y444500D01*
Y455500D01*
G37*
G36*
Y480000D02*X89924D01*
Y471197D01*
X85061Y476060D01*
X85011Y476102D01*
X84964Y476149D01*
X84909Y476187D01*
X84861Y476228D01*
X84806Y476260D01*
X84750Y476299D01*
X84686Y476329D01*
X84634Y476359D01*
X84580Y476379D01*
X84513Y476410D01*
X84441Y476429D01*
X84389Y476448D01*
X84329Y476459D01*
X84260Y476477D01*
X84194Y476483D01*
X84131Y476494D01*
X84068D01*
X84000Y476500D01*
X80000D01*
Y480000D01*
G37*
G36*
Y385000D02*X77000D01*
Y396660D01*
X77107Y396553D01*
X77750Y396103D01*
X78461Y395771D01*
X79219Y395568D01*
X80000Y395500D01*
Y394500D01*
X78500D01*
X78370Y394489D01*
X78243Y394455D01*
X78125Y394400D01*
X78018Y394325D01*
X77925Y394232D01*
X77850Y394125D01*
X77795Y394007D01*
X77761Y393880D01*
X77750Y393750D01*
X77761Y393620D01*
X77795Y393493D01*
X77850Y393375D01*
X77925Y393268D01*
X78018Y393175D01*
X78125Y393100D01*
X78243Y393045D01*
X78370Y393011D01*
X78500Y393000D01*
X80000D01*
Y387000D01*
X78500D01*
X78370Y386989D01*
X78243Y386955D01*
X78125Y386900D01*
X78018Y386825D01*
X77925Y386732D01*
X77850Y386625D01*
X77795Y386507D01*
X77761Y386380D01*
X77750Y386250D01*
X77761Y386120D01*
X77795Y385993D01*
X77850Y385875D01*
X77925Y385768D01*
X78018Y385675D01*
X78125Y385600D01*
X78243Y385545D01*
X78370Y385511D01*
X78500Y385500D01*
X80000D01*
Y385000D01*
G37*
G36*
X70000Y425500D02*X73000D01*
X73260Y425523D01*
X73336Y425543D01*
X74940Y423939D01*
X74990Y423897D01*
X75036Y423851D01*
X75089Y423814D01*
X75140Y423771D01*
X75197Y423738D01*
X75250Y423701D01*
X75310Y423673D01*
X75367Y423640D01*
X75425Y423619D01*
X75487Y423590D01*
X75555Y423572D01*
X75613Y423551D01*
X75676Y423540D01*
X75740Y423523D01*
X75807Y423517D01*
X75870Y423506D01*
X75932D01*
X76000Y423500D01*
X77183D01*
X77107Y423447D01*
X76553Y422893D01*
X76103Y422250D01*
X75771Y421539D01*
X75568Y420781D01*
X75500Y420000D01*
X75568Y419219D01*
X75771Y418461D01*
X76103Y417750D01*
X76553Y417107D01*
X77107Y416553D01*
X77750Y416103D01*
X78461Y415771D01*
X79219Y415568D01*
X80000Y415500D01*
Y414500D01*
X79219Y414432D01*
X78461Y414229D01*
X77750Y413897D01*
X77107Y413447D01*
X76553Y412893D01*
X76103Y412250D01*
X75771Y411539D01*
X75568Y410781D01*
X75500Y410000D01*
X75568Y409219D01*
X75771Y408461D01*
X76103Y407750D01*
X76553Y407107D01*
X77107Y406553D01*
X77750Y406103D01*
X78461Y405771D01*
X79219Y405568D01*
X80000Y405500D01*
Y404500D01*
X79219Y404432D01*
X78461Y404229D01*
X77750Y403897D01*
X77107Y403447D01*
X76553Y402893D01*
X76103Y402250D01*
X75771Y401539D01*
X75568Y400781D01*
X75500Y400000D01*
X75568Y399219D01*
X75771Y398461D01*
X76103Y397750D01*
X76553Y397107D01*
X76660Y397000D01*
X73340D01*
X73447Y397107D01*
X73897Y397750D01*
X74229Y398461D01*
X74432Y399219D01*
X74500Y400000D01*
X74432Y400781D01*
X74229Y401539D01*
X73897Y402250D01*
X73447Y402893D01*
X72893Y403447D01*
X72250Y403897D01*
X71539Y404229D01*
X70781Y404432D01*
X70000Y404500D01*
Y405500D01*
X70781Y405568D01*
X71539Y405771D01*
X72250Y406103D01*
X72893Y406553D01*
X73447Y407107D01*
X73897Y407750D01*
X74229Y408461D01*
X74432Y409219D01*
X74500Y410000D01*
X74432Y410781D01*
X74229Y411539D01*
X73897Y412250D01*
X73447Y412893D01*
X72893Y413447D01*
X72250Y413897D01*
X71539Y414229D01*
X70781Y414432D01*
X70000Y414500D01*
Y415500D01*
X70781Y415568D01*
X71539Y415771D01*
X72250Y416103D01*
X72893Y416553D01*
X73447Y417107D01*
X73897Y417750D01*
X74229Y418461D01*
X74432Y419219D01*
X74500Y420000D01*
X74432Y420781D01*
X74229Y421539D01*
X73897Y422250D01*
X73447Y422893D01*
X72893Y423447D01*
X72250Y423897D01*
X71539Y424229D01*
X70781Y424432D01*
X70000Y424500D01*
Y425500D01*
G37*
G36*
Y435500D02*X70781Y435568D01*
X71539Y435771D01*
X72250Y436103D01*
X72893Y436553D01*
X73447Y437107D01*
X73897Y437750D01*
X74229Y438461D01*
X74239Y438500D01*
X75761D01*
X75771Y438461D01*
X76103Y437750D01*
X76553Y437107D01*
X77107Y436553D01*
X77750Y436103D01*
X78461Y435771D01*
X79219Y435568D01*
X80000Y435500D01*
Y434500D01*
X79219Y434432D01*
X78461Y434229D01*
X77750Y433897D01*
X77107Y433447D01*
X76553Y432893D01*
X76103Y432250D01*
X75771Y431539D01*
X75568Y430781D01*
X75500Y430000D01*
X75568Y429219D01*
X75771Y428461D01*
X76103Y427750D01*
X76553Y427107D01*
X77107Y426553D01*
X77183Y426500D01*
X76621D01*
X74500Y428621D01*
Y433000D01*
X74477Y433260D01*
X74410Y433513D01*
X74299Y433750D01*
X74149Y433964D01*
X73964Y434149D01*
X73750Y434299D01*
X73513Y434410D01*
X73260Y434477D01*
X73000Y434500D01*
X70000D01*
Y435500D01*
G37*
G36*
Y465500D02*X70781Y465568D01*
X71539Y465771D01*
X71927Y465952D01*
X73940Y463939D01*
X73990Y463897D01*
X74036Y463851D01*
X74089Y463814D01*
X74140Y463771D01*
X74197Y463738D01*
X74250Y463701D01*
X74310Y463673D01*
X74367Y463640D01*
X74425Y463619D01*
X74487Y463590D01*
X74555Y463572D01*
X74613Y463551D01*
X74676Y463540D01*
X74740Y463523D01*
X74807Y463517D01*
X74870Y463506D01*
X74932D01*
X75000Y463500D01*
X77183D01*
X77107Y463447D01*
X76553Y462893D01*
X76103Y462250D01*
X75771Y461539D01*
X75568Y460781D01*
X75500Y460000D01*
X75568Y459219D01*
X75771Y458461D01*
X76103Y457750D01*
X76553Y457107D01*
X77107Y456553D01*
X77750Y456103D01*
X78461Y455771D01*
X79219Y455568D01*
X80000Y455500D01*
Y444500D01*
X79219Y444432D01*
X78461Y444229D01*
X77750Y443897D01*
X77107Y443447D01*
X76553Y442893D01*
X76103Y442250D01*
X75771Y441539D01*
X75761Y441500D01*
X74239D01*
X74229Y441539D01*
X73897Y442250D01*
X73447Y442893D01*
X72893Y443447D01*
X72250Y443897D01*
X71539Y444229D01*
X70781Y444432D01*
X70000Y444500D01*
Y455500D01*
X70781Y455568D01*
X71539Y455771D01*
X72250Y456103D01*
X72893Y456553D01*
X73447Y457107D01*
X73897Y457750D01*
X74229Y458461D01*
X74432Y459219D01*
X74500Y460000D01*
X74432Y460781D01*
X74229Y461539D01*
X73897Y462250D01*
X73447Y462893D01*
X72893Y463447D01*
X72250Y463897D01*
X71539Y464229D01*
X70781Y464432D01*
X70000Y464500D01*
Y465500D01*
G37*
G36*
Y480000D02*X80000D01*
Y476500D01*
X70000D01*
Y480000D01*
G37*
G36*
X53750Y387900D02*X53829Y387933D01*
X53938Y388005D01*
X54000Y388062D01*
Y373000D01*
X53750D01*
Y387900D01*
G37*
G36*
X63613Y467344D02*X63897Y467750D01*
X64229Y468461D01*
X64432Y469219D01*
X64500Y470000D01*
X64432Y470781D01*
X64229Y471539D01*
X64048Y471928D01*
X65620Y473500D01*
X67183D01*
X67107Y473447D01*
X66553Y472893D01*
X66103Y472250D01*
X65771Y471539D01*
X65568Y470781D01*
X65500Y470000D01*
X65568Y469219D01*
X65771Y468461D01*
X66103Y467750D01*
X66553Y467107D01*
X67107Y466553D01*
X67750Y466103D01*
X68461Y465771D01*
X69219Y465568D01*
X70000Y465500D01*
Y464500D01*
X69219Y464432D01*
X68461Y464229D01*
X67750Y463897D01*
X67107Y463447D01*
X66553Y462893D01*
X66103Y462250D01*
X65771Y461539D01*
X65568Y460781D01*
X65500Y460000D01*
X65568Y459219D01*
X65771Y458461D01*
X66103Y457750D01*
X66553Y457107D01*
X67107Y456553D01*
X67750Y456103D01*
X68461Y455771D01*
X69219Y455568D01*
X70000Y455500D01*
Y444500D01*
X69219Y444432D01*
X68461Y444229D01*
X67750Y443897D01*
X67107Y443447D01*
X66553Y442893D01*
X66103Y442250D01*
X65771Y441539D01*
X65568Y440781D01*
X65500Y440000D01*
X65568Y439219D01*
X65771Y438461D01*
X66103Y437750D01*
X66553Y437107D01*
X67107Y436553D01*
X67750Y436103D01*
X68461Y435771D01*
X69219Y435568D01*
X70000Y435500D01*
Y434500D01*
X67000D01*
X66740Y434477D01*
X66487Y434410D01*
X66250Y434299D01*
X66036Y434149D01*
X65851Y433964D01*
X65701Y433750D01*
X65590Y433513D01*
X65523Y433260D01*
X65500Y433000D01*
Y427000D01*
X65523Y426740D01*
X65590Y426487D01*
X65701Y426250D01*
X65851Y426036D01*
X66036Y425851D01*
X66250Y425701D01*
X66487Y425590D01*
X66740Y425523D01*
X67000Y425500D01*
X70000D01*
Y424500D01*
X69219Y424432D01*
X68461Y424229D01*
X67750Y423897D01*
X67107Y423447D01*
X66553Y422893D01*
X66103Y422250D01*
X65771Y421539D01*
X65568Y420781D01*
X65500Y420000D01*
X65568Y419219D01*
X65771Y418461D01*
X66103Y417750D01*
X66553Y417107D01*
X67107Y416553D01*
X67750Y416103D01*
X68461Y415771D01*
X69219Y415568D01*
X70000Y415500D01*
Y414500D01*
X69219Y414432D01*
X68461Y414229D01*
X67750Y413897D01*
X67107Y413447D01*
X66553Y412893D01*
X66103Y412250D01*
X65771Y411539D01*
X65568Y410781D01*
X65500Y410000D01*
X65568Y409219D01*
X65771Y408461D01*
X66103Y407750D01*
X66553Y407107D01*
X67107Y406553D01*
X67750Y406103D01*
X68461Y405771D01*
X69219Y405568D01*
X70000Y405500D01*
Y404500D01*
X69219Y404432D01*
X68461Y404229D01*
X67750Y403897D01*
X67107Y403447D01*
X66553Y402893D01*
X66103Y402250D01*
X65771Y401539D01*
X65568Y400781D01*
X65500Y400000D01*
X65568Y399219D01*
X65771Y398461D01*
X66103Y397750D01*
X66553Y397107D01*
X66660Y397000D01*
X63613D01*
Y437344D01*
X63897Y437750D01*
X64229Y438461D01*
X64432Y439219D01*
X64500Y440000D01*
X64432Y440781D01*
X64229Y441539D01*
X63897Y442250D01*
X63613Y442656D01*
Y457860D01*
X63708Y457882D01*
X63829Y457933D01*
X63938Y458005D01*
X64034Y458094D01*
X64113Y458198D01*
X64172Y458315D01*
X64314Y458722D01*
X64417Y459142D01*
X64479Y459569D01*
X64500Y460000D01*
X64479Y460432D01*
X64417Y460859D01*
X64314Y461279D01*
X64172Y461686D01*
X64171D01*
X64112Y461802D01*
X64033Y461907D01*
X63937Y461996D01*
X63828Y462067D01*
X63707Y462118D01*
X63613Y462139D01*
Y467344D01*
G37*
G36*
Y397000D02*X60000D01*
Y435500D01*
X60781Y435568D01*
X61539Y435771D01*
X62250Y436103D01*
X62893Y436553D01*
X63447Y437107D01*
X63613Y437344D01*
Y397000D01*
G37*
G36*
X60000Y465500D02*X60781Y465568D01*
X61539Y465771D01*
X62250Y466103D01*
X62893Y466553D01*
X63447Y467107D01*
X63613Y467344D01*
Y462139D01*
X63580Y462147D01*
X63450Y462154D01*
X63320Y462138D01*
X63195Y462100D01*
X63079Y462041D01*
X62974Y461962D01*
X62885Y461866D01*
X62814Y461757D01*
X62763Y461636D01*
X62734Y461509D01*
X62727Y461379D01*
X62743Y461249D01*
X62781Y461124D01*
X62876Y460853D01*
X62944Y460573D01*
X62986Y460288D01*
X63000Y460000D01*
X62986Y459713D01*
X62944Y459428D01*
X62876Y459148D01*
X62781Y458877D01*
X62780D01*
X62742Y458752D01*
X62726Y458622D01*
X62733Y458491D01*
X62762Y458364D01*
X62813Y458243D01*
X62885Y458134D01*
X62974Y458038D01*
X63078Y457959D01*
X63195Y457900D01*
X63320Y457862D01*
X63450Y457846D01*
X63581Y457853D01*
X63613Y457860D01*
Y442656D01*
X63447Y442893D01*
X62893Y443447D01*
X62250Y443897D01*
X61539Y444229D01*
X60781Y444432D01*
X60000Y444500D01*
Y455500D01*
X60431Y455521D01*
X60858Y455583D01*
X61278Y455686D01*
X61685Y455828D01*
Y455829D01*
X61801Y455888D01*
X61906Y455967D01*
X61995Y456063D01*
X62066Y456172D01*
X62117Y456293D01*
X62146Y456420D01*
X62153Y456550D01*
X62137Y456680D01*
X62099Y456805D01*
X62040Y456921D01*
X61961Y457026D01*
X61865Y457115D01*
X61756Y457186D01*
X61635Y457237D01*
X61508Y457266D01*
X61378Y457273D01*
X61248Y457257D01*
X61123Y457219D01*
X60852Y457124D01*
X60572Y457056D01*
X60287Y457014D01*
X60000Y457000D01*
Y463000D01*
X60287Y462987D01*
X60572Y462945D01*
X60852Y462877D01*
X61123Y462782D01*
Y462781D01*
X61248Y462743D01*
X61378Y462727D01*
X61509Y462734D01*
X61636Y462763D01*
X61757Y462814D01*
X61866Y462886D01*
X61962Y462975D01*
X62041Y463079D01*
X62100Y463196D01*
X62138Y463321D01*
X62154Y463451D01*
X62147Y463582D01*
X62118Y463709D01*
X62067Y463830D01*
X61995Y463939D01*
X61906Y464035D01*
X61802Y464114D01*
X61685Y464173D01*
X61278Y464315D01*
X60858Y464418D01*
X60431Y464480D01*
X60000Y464500D01*
Y465500D01*
G37*
G36*
Y480000D02*X70000D01*
Y476500D01*
X65000D01*
X64943Y476495D01*
X64869D01*
X64798Y476482D01*
X64740Y476477D01*
X64681Y476461D01*
X64612Y476449D01*
X64549Y476426D01*
X64487Y476410D01*
X64429Y476383D01*
X64366Y476360D01*
X64306Y476325D01*
X64250Y476299D01*
X64202Y476265D01*
X64139Y476229D01*
X64082Y476181D01*
X64036Y476149D01*
X63995Y476108D01*
X63939Y476061D01*
X61926Y474048D01*
X61539Y474229D01*
X60781Y474432D01*
X60000Y474500D01*
Y480000D01*
G37*
G36*
X56387Y437344D02*X56553Y437107D01*
X57107Y436553D01*
X57750Y436103D01*
X58461Y435771D01*
X59219Y435568D01*
X60000Y435500D01*
Y397000D01*
X56387D01*
Y437344D01*
G37*
G36*
Y467344D02*X56553Y467107D01*
X57107Y466553D01*
X57750Y466103D01*
X58461Y465771D01*
X59219Y465568D01*
X60000Y465500D01*
Y464500D01*
X59568Y464480D01*
X59141Y464418D01*
X58721Y464315D01*
X58314Y464173D01*
Y464172D01*
X58198Y464113D01*
X58093Y464034D01*
X58004Y463938D01*
X57933Y463829D01*
X57882Y463708D01*
X57853Y463581D01*
X57846Y463451D01*
X57862Y463321D01*
X57900Y463196D01*
X57959Y463080D01*
X58038Y462975D01*
X58134Y462886D01*
X58243Y462815D01*
X58364Y462764D01*
X58491Y462735D01*
X58621Y462728D01*
X58751Y462744D01*
X58876Y462782D01*
X59147Y462877D01*
X59427Y462945D01*
X59712Y462987D01*
X60000Y463000D01*
Y457000D01*
X59999D01*
X59712Y457014D01*
X59427Y457056D01*
X59147Y457124D01*
X58876Y457219D01*
Y457220D01*
X58751Y457258D01*
X58621Y457274D01*
X58490Y457267D01*
X58363Y457238D01*
X58242Y457187D01*
X58133Y457115D01*
X58037Y457026D01*
X57958Y456922D01*
X57899Y456805D01*
X57861Y456680D01*
X57845Y456550D01*
X57852Y456419D01*
X57881Y456292D01*
X57932Y456171D01*
X58004Y456062D01*
X58093Y455966D01*
X58197Y455887D01*
X58314Y455828D01*
X58721Y455686D01*
X59141Y455583D01*
X59568Y455521D01*
X59999Y455500D01*
X60000D01*
Y444500D01*
X59219Y444432D01*
X58461Y444229D01*
X57750Y443897D01*
X57107Y443447D01*
X56553Y442893D01*
X56387Y442656D01*
Y457861D01*
X56419Y457854D01*
X56549Y457847D01*
X56679Y457863D01*
X56804Y457901D01*
X56920Y457960D01*
X57025Y458039D01*
X57114Y458135D01*
X57185Y458244D01*
X57236Y458365D01*
X57265Y458492D01*
X57272Y458622D01*
X57256Y458752D01*
X57218Y458877D01*
X57123Y459148D01*
X57055Y459428D01*
X57013Y459713D01*
X57000Y460001D01*
X57013Y460288D01*
X57055Y460573D01*
X57123Y460853D01*
X57218Y461124D01*
X57219D01*
X57257Y461249D01*
X57273Y461379D01*
X57266Y461510D01*
X57237Y461637D01*
X57186Y461758D01*
X57114Y461867D01*
X57025Y461963D01*
X56921Y462042D01*
X56804Y462101D01*
X56679Y462139D01*
X56549Y462155D01*
X56418Y462148D01*
X56387Y462141D01*
Y467344D01*
G37*
G36*
Y480000D02*X60000D01*
Y474500D01*
X59219Y474432D01*
X58461Y474229D01*
X57750Y473897D01*
X57107Y473447D01*
X56553Y472893D01*
X56387Y472656D01*
Y480000D01*
G37*
G36*
X54000Y397000D02*Y391938D01*
X53937Y391996D01*
X53828Y392067D01*
X53750Y392100D01*
Y437750D01*
X53880Y437761D01*
X54007Y437795D01*
X54125Y437850D01*
X54232Y437925D01*
X54325Y438018D01*
X54400Y438125D01*
X54455Y438243D01*
X54489Y438370D01*
X54500Y438500D01*
Y441500D01*
X54489Y441630D01*
X54455Y441757D01*
X54400Y441875D01*
X54325Y441982D01*
X54232Y442075D01*
X54125Y442150D01*
X54007Y442205D01*
X53880Y442239D01*
X53750Y442250D01*
Y480000D01*
X56387D01*
Y472656D01*
X56103Y472250D01*
X55771Y471539D01*
X55568Y470781D01*
X55500Y470000D01*
X55568Y469219D01*
X55771Y468461D01*
X56103Y467750D01*
X56387Y467344D01*
Y462141D01*
X56291Y462119D01*
X56170Y462068D01*
X56061Y461996D01*
X55965Y461907D01*
X55886Y461803D01*
X55827Y461686D01*
X55685Y461279D01*
X55582Y460859D01*
X55520Y460432D01*
X55500Y460001D01*
X55520Y459569D01*
X55582Y459142D01*
X55685Y458722D01*
X55827Y458315D01*
X55828D01*
X55887Y458199D01*
X55966Y458094D01*
X56062Y458005D01*
X56171Y457934D01*
X56292Y457883D01*
X56387Y457861D01*
Y442656D01*
X56103Y442250D01*
X55771Y441539D01*
X55568Y440781D01*
X55500Y440000D01*
X55568Y439219D01*
X55771Y438461D01*
X56103Y437750D01*
X56387Y437344D01*
Y397000D01*
X54000D01*
G37*
G36*
X53750Y392100D02*X53707Y392118D01*
X53580Y392147D01*
X53450Y392154D01*
X53320Y392138D01*
X53195Y392100D01*
X53079Y392041D01*
X52974Y391962D01*
X52885Y391866D01*
X52814Y391757D01*
X52763Y391636D01*
X52734Y391509D01*
X52727Y391379D01*
X52743Y391249D01*
X52781Y391124D01*
X52876Y390853D01*
X52944Y390573D01*
X52986Y390288D01*
X53000Y390000D01*
X52986Y389713D01*
X52944Y389428D01*
X52876Y389148D01*
X52781Y388877D01*
X52780D01*
X52742Y388752D01*
X52726Y388622D01*
X52733Y388491D01*
X52762Y388364D01*
X52813Y388243D01*
X52885Y388134D01*
X52974Y388038D01*
X53078Y387959D01*
X53195Y387900D01*
X53320Y387862D01*
X53450Y387846D01*
X53581Y387853D01*
X53708Y387882D01*
X53750Y387900D01*
Y373000D01*
X50000D01*
Y385500D01*
X50431Y385521D01*
X50858Y385583D01*
X51278Y385686D01*
X51685Y385828D01*
Y385829D01*
X51801Y385888D01*
X51906Y385967D01*
X51995Y386063D01*
X52066Y386172D01*
X52117Y386293D01*
X52146Y386420D01*
X52153Y386550D01*
X52137Y386680D01*
X52099Y386805D01*
X52040Y386921D01*
X51961Y387026D01*
X51865Y387115D01*
X51756Y387186D01*
X51635Y387237D01*
X51508Y387266D01*
X51378Y387273D01*
X51248Y387257D01*
X51123Y387219D01*
X50852Y387124D01*
X50572Y387056D01*
X50287Y387014D01*
X50000Y387000D01*
Y393000D01*
X50287Y392987D01*
X50572Y392945D01*
X50852Y392877D01*
X51123Y392782D01*
Y392781D01*
X51248Y392743D01*
X51378Y392727D01*
X51509Y392734D01*
X51636Y392763D01*
X51757Y392814D01*
X51866Y392886D01*
X51962Y392975D01*
X52041Y393079D01*
X52100Y393196D01*
X52138Y393321D01*
X52154Y393451D01*
X52147Y393582D01*
X52118Y393709D01*
X52067Y393830D01*
X51995Y393939D01*
X51906Y394035D01*
X51802Y394114D01*
X51685Y394173D01*
X51278Y394315D01*
X50858Y394418D01*
X50431Y394480D01*
X50000Y394500D01*
Y435500D01*
X51500D01*
X51630Y435511D01*
X51757Y435545D01*
X51875Y435600D01*
X51982Y435675D01*
X52075Y435768D01*
X52150Y435875D01*
X52205Y435993D01*
X52239Y436120D01*
X52250Y436250D01*
X52239Y436380D01*
X52205Y436507D01*
X52150Y436625D01*
X52075Y436732D01*
X51982Y436825D01*
X51875Y436900D01*
X51757Y436955D01*
X51630Y436989D01*
X51500Y437000D01*
X50000D01*
Y443000D01*
X51500D01*
X51630Y443011D01*
X51757Y443045D01*
X51875Y443100D01*
X51982Y443175D01*
X52075Y443268D01*
X52150Y443375D01*
X52205Y443493D01*
X52239Y443620D01*
X52250Y443750D01*
X52239Y443880D01*
X52205Y444007D01*
X52150Y444125D01*
X52075Y444232D01*
X51982Y444325D01*
X51875Y444400D01*
X51757Y444455D01*
X51630Y444489D01*
X51500Y444500D01*
X50000D01*
Y480000D01*
X53750D01*
Y442250D01*
X53620Y442239D01*
X53493Y442205D01*
X53375Y442150D01*
X53268Y442075D01*
X53175Y441982D01*
X53100Y441875D01*
X53045Y441757D01*
X53011Y441630D01*
X53000Y441500D01*
Y438500D01*
X53011Y438370D01*
X53045Y438243D01*
X53100Y438125D01*
X53175Y438018D01*
X53268Y437925D01*
X53375Y437850D01*
X53493Y437795D01*
X53620Y437761D01*
X53750Y437750D01*
Y392100D01*
G37*
G36*
X50000Y373000D02*X46387D01*
Y387861D01*
X46419Y387854D01*
X46549Y387847D01*
X46679Y387863D01*
X46804Y387901D01*
X46920Y387960D01*
X47025Y388039D01*
X47114Y388135D01*
X47185Y388244D01*
X47236Y388365D01*
X47265Y388492D01*
X47272Y388622D01*
X47256Y388752D01*
X47218Y388877D01*
X47123Y389148D01*
X47055Y389428D01*
X47013Y389713D01*
X47000Y390001D01*
X47013Y390288D01*
X47055Y390573D01*
X47123Y390853D01*
X47218Y391124D01*
X47219D01*
X47257Y391249D01*
X47273Y391379D01*
X47266Y391510D01*
X47237Y391637D01*
X47186Y391758D01*
X47114Y391867D01*
X47025Y391963D01*
X46921Y392042D01*
X46804Y392101D01*
X46679Y392139D01*
X46549Y392155D01*
X46418Y392148D01*
X46387Y392141D01*
Y437763D01*
X46507Y437795D01*
X46625Y437850D01*
X46732Y437925D01*
X46825Y438018D01*
X46900Y438125D01*
X46955Y438243D01*
X46989Y438370D01*
X47000Y438500D01*
Y441500D01*
X46989Y441630D01*
X46955Y441757D01*
X46900Y441875D01*
X46825Y441982D01*
X46732Y442075D01*
X46625Y442150D01*
X46507Y442205D01*
X46387Y442237D01*
Y480000D01*
X50000D01*
Y444500D01*
X48500D01*
X48370Y444489D01*
X48243Y444455D01*
X48125Y444400D01*
X48018Y444325D01*
X47925Y444232D01*
X47850Y444125D01*
X47795Y444007D01*
X47761Y443880D01*
X47750Y443750D01*
X47761Y443620D01*
X47795Y443493D01*
X47850Y443375D01*
X47925Y443268D01*
X48018Y443175D01*
X48125Y443100D01*
X48243Y443045D01*
X48370Y443011D01*
X48500Y443000D01*
X50000D01*
Y437000D01*
X48500D01*
X48370Y436989D01*
X48243Y436955D01*
X48125Y436900D01*
X48018Y436825D01*
X47925Y436732D01*
X47850Y436625D01*
X47795Y436507D01*
X47761Y436380D01*
X47750Y436250D01*
X47761Y436120D01*
X47795Y435993D01*
X47850Y435875D01*
X47925Y435768D01*
X48018Y435675D01*
X48125Y435600D01*
X48243Y435545D01*
X48370Y435511D01*
X48500Y435500D01*
X50000D01*
Y394500D01*
X49568Y394480D01*
X49141Y394418D01*
X48721Y394315D01*
X48314Y394173D01*
Y394172D01*
X48198Y394113D01*
X48093Y394034D01*
X48004Y393938D01*
X47933Y393829D01*
X47882Y393708D01*
X47853Y393581D01*
X47846Y393451D01*
X47862Y393321D01*
X47900Y393196D01*
X47959Y393080D01*
X48038Y392975D01*
X48134Y392886D01*
X48243Y392815D01*
X48364Y392764D01*
X48491Y392735D01*
X48621Y392728D01*
X48751Y392744D01*
X48876Y392782D01*
X49147Y392877D01*
X49427Y392945D01*
X49712Y392987D01*
X50000Y393000D01*
Y387000D01*
X49999D01*
X49712Y387014D01*
X49427Y387056D01*
X49147Y387124D01*
X48876Y387219D01*
Y387220D01*
X48751Y387258D01*
X48621Y387274D01*
X48490Y387267D01*
X48363Y387238D01*
X48242Y387187D01*
X48133Y387115D01*
X48037Y387026D01*
X47958Y386922D01*
X47899Y386805D01*
X47861Y386680D01*
X47845Y386550D01*
X47852Y386419D01*
X47881Y386292D01*
X47932Y386171D01*
X48004Y386062D01*
X48093Y385966D01*
X48197Y385887D01*
X48314Y385828D01*
X48721Y385686D01*
X49141Y385583D01*
X49568Y385521D01*
X49999Y385500D01*
X50000D01*
Y373000D01*
G37*
G36*
X46387D02*X42000D01*
Y480000D01*
X46387D01*
Y442237D01*
X46380Y442239D01*
X46250Y442250D01*
X46120Y442239D01*
X45993Y442205D01*
X45875Y442150D01*
X45768Y442075D01*
X45675Y441982D01*
X45600Y441875D01*
X45545Y441757D01*
X45511Y441630D01*
X45500Y441500D01*
Y438500D01*
X45511Y438370D01*
X45545Y438243D01*
X45600Y438125D01*
X45675Y438018D01*
X45768Y437925D01*
X45875Y437850D01*
X45993Y437795D01*
X46120Y437761D01*
X46250Y437750D01*
X46380Y437761D01*
X46387Y437763D01*
Y392141D01*
X46291Y392119D01*
X46170Y392068D01*
X46061Y391996D01*
X45965Y391907D01*
X45886Y391803D01*
X45827Y391686D01*
X45685Y391279D01*
X45582Y390859D01*
X45520Y390432D01*
X45500Y390001D01*
X45520Y389569D01*
X45582Y389142D01*
X45685Y388722D01*
X45827Y388315D01*
X45828D01*
X45887Y388199D01*
X45966Y388094D01*
X46062Y388005D01*
X46171Y387934D01*
X46292Y387883D01*
X46387Y387861D01*
Y373000D01*
G37*
G54D11*X164000Y426000D02*X156000D01*
X164000Y421000D02*X153000D01*
X164000Y431000D02*X159000D01*
X146000Y420000D02*Y426000D01*
X164000Y416000D02*X150000D01*
X146000Y420000D01*
X153000Y421000D02*X151000Y423000D01*
Y426000D01*
X219500D02*X220500Y425000D01*
X230800D02*X220500D01*
X211000Y417000D02*X220400D01*
X220500Y417100D01*
X230800D02*X220500D01*
X191000Y426000D02*X219500D01*
X191000Y421000D02*X207000D01*
X211000Y417000D01*
X191000Y416000D02*X199000D01*
X200000Y415000D01*
X191000Y431000D02*X196000D01*
X163000Y396000D02*X193000D01*
X190000Y409394D02*X194394D01*
X200000Y415000D01*
X181346Y408976D02*X173976D01*
X173000Y408000D01*
X196000Y431000D02*X198000Y433000D01*
Y435000D01*
X208000Y440000D02*Y451000D01*
X193000Y466000D01*
Y471000D01*
X189000Y475000D01*
X198000Y435000D02*X196000Y437000D01*
X193000D01*
X70000Y430000D02*X71000D01*
X75000Y465000D02*X70000Y470000D01*
X60000D02*X65000Y475000D01*
X84000D01*
X70000Y440000D02*X80000D01*
X81000Y439000D02*X80000Y440000D01*
X71000Y430000D02*X76000Y425000D01*
X82000D01*
X88000Y465000D02*X75000D01*
X82000Y425000D02*X102000Y405000D01*
X105000Y439000D02*X81000D01*
X84000Y475000D02*X163000Y396000D01*
X149000Y404000D02*X88000Y465000D01*
X149000Y404000D02*Y403000D01*
X152000Y400000D01*
X159000Y431000D02*X157000Y433000D01*
Y436000D01*
X159000Y438000D01*
X110000Y436000D02*X108000D01*
X105000Y439000D01*
X110000Y436000D02*Y427000D01*
X103000Y419000D02*X109874D01*
X110000Y419126D01*
G54D12*G36*
X47000Y443000D02*Y437000D01*
X53000D01*
Y443000D01*
X47000D01*
G37*
G54D13*X60000Y440000D03*
X70000D03*
X80000D03*
G54D12*G36*
X67000Y433000D02*Y427000D01*
X73000D01*
Y433000D01*
X67000D01*
G37*
G54D13*X80000Y430000D03*
X70000Y420000D03*
Y410000D03*
Y400000D03*
Y390000D03*
X60000D03*
X80000Y420000D03*
Y410000D03*
Y400000D03*
G54D12*G36*
X77000Y393000D02*Y387000D01*
X83000D01*
Y393000D01*
X77000D01*
G37*
G54D13*X50000Y390000D03*
G54D12*G36*
X77000Y473000D02*Y467000D01*
X83000D01*
Y473000D01*
X77000D01*
G37*
G54D13*X80000Y460000D03*
X70000Y470000D03*
Y460000D03*
X60000Y470000D03*
Y460000D03*
G54D14*X230800Y407300D03*
Y417100D03*
X220500Y407300D03*
X230800Y425000D03*
Y434800D03*
X220500Y417100D03*
Y425000D03*
Y434800D03*
G54D15*X219100Y395200D03*
X241500D03*
X219100Y446900D03*
X241500D03*
G54D16*X193000Y396000D03*
X200000Y415000D03*
X193000Y437000D03*
X156000Y426000D03*
X151000D03*
X146000D03*
X159000Y438000D03*
X102000Y405000D03*
X104000Y434000D03*
X110000Y436000D03*
X103000Y419000D03*
X152000Y400000D03*
X173000Y408000D03*
X211000Y463000D03*
X208000Y440000D03*
X189000Y475000D03*
X117000Y452000D03*
G54D22*X110000Y419126D02*X110394D01*
X110000Y427000D02*X110394D01*
G54D18*X164000Y416000D02*X170500D01*
X184500D02*X191000D01*
X164000Y421000D02*X170500D01*
X184500D02*X191000D01*
X164000Y426000D02*X170500D01*
X164000Y431000D02*X170500D01*
X184500D02*X191000D01*
X184500Y426000D02*X191000D01*
G54D22*X182126Y409394D02*Y409000D01*
X190000Y409394D02*Y409000D01*
G54D20*G54D16*G54D21*G54D12*M02*
