G04 start of page 5 for group -4062 idx -4062 *
G04 Title: (unknown), soldermask *
G04 Creator: pcb 20091103 *
G04 CreationDate: Mon 14 Mar 2011 05:58:12 AM GMT UTC *
G04 For: gjhurlbu *
G04 Format: Gerber/RS-274X *
G04 PCB-Dimensions: 600000 500000 *
G04 PCB-Coordinate-Origin: lower left *
%MOIN*%
%FSLAX25Y25*%
%LNBACKMASK*%
%ADD12C,0.0200*%
%ADD23C,0.0660*%
%ADD24C,0.0620*%
%ADD25C,0.1210*%
%ADD27R,0.0300X0.0300*%
%ADD29R,0.0650X0.0650*%
G54D12*G36*
X46700Y443300D02*Y436700D01*
X53300D01*
Y443300D01*
X46700D01*
G37*
G54D23*X60000Y440000D03*
X70000D03*
X80000D03*
G54D12*G36*
X66700Y433300D02*Y426700D01*
X73300D01*
Y433300D01*
X66700D01*
G37*
G54D23*X80000Y430000D03*
X70000Y420000D03*
Y410000D03*
Y400000D03*
Y390000D03*
X60000D03*
X80000Y420000D03*
Y410000D03*
Y400000D03*
G54D12*G36*
X76700Y393300D02*Y386700D01*
X83300D01*
Y393300D01*
X76700D01*
G37*
G54D23*X50000Y390000D03*
G54D12*G36*
X76700Y473300D02*Y466700D01*
X83300D01*
Y473300D01*
X76700D01*
G37*
G54D23*X80000Y460000D03*
X70000Y470000D03*
Y460000D03*
X60000Y470000D03*
Y460000D03*
G54D24*X230800Y407300D03*
Y417100D03*
X220500Y407300D03*
X230800Y425000D03*
Y434800D03*
X220500Y417100D03*
Y425000D03*
Y434800D03*
G54D25*X219100Y395200D03*
X241500D03*
X219100Y446900D03*
X241500D03*
G54D29*X110000Y419126D02*X110394D01*
X110000Y427000D02*X110394D01*
G54D27*X164000Y416000D02*X170500D01*
X184500D02*X191000D01*
X164000Y421000D02*X170500D01*
X184500D02*X191000D01*
X164000Y426000D02*X170500D01*
X164000Y431000D02*X170500D01*
X184500D02*X191000D01*
X184500Y426000D02*X191000D01*
G54D29*X182126Y409394D02*Y409000D01*
X190000Y409394D02*Y409000D01*
M02*
