G04 start of page 10 for group -4015 idx -4015 *
G04 Title: (unknown), toppaste *
G04 Creator: pcb 20091103 *
G04 CreationDate: Mon 14 Mar 2011 05:58:12 AM GMT UTC *
G04 For: gjhurlbu *
G04 Format: Gerber/RS-274X *
G04 PCB-Dimensions: 600000 500000 *
G04 PCB-Coordinate-Origin: lower left *
%MOIN*%
%FSLAX25Y25*%
%LNFRONTPASTE*%
%ADD17R,0.0157X0.0157*%
%ADD18R,0.0200X0.0200*%
%ADD19R,0.0512X0.0512*%
G54D19*X188000Y465786D02*Y465000D01*
X180914Y465786D02*Y465000D01*
X201914Y447786D02*Y447000D01*
X209000Y447786D02*Y447000D01*
X193000Y406000D02*Y405214D01*
X200086Y406000D02*Y405214D01*
G54D17*X127378Y389654D02*Y385228D01*
X130527Y389654D02*Y385228D01*
X133677Y389654D02*Y385228D01*
X136826Y389654D02*Y385228D01*
X139976Y389654D02*Y385228D01*
X143126Y389654D02*Y385228D01*
X146275Y389654D02*Y385228D01*
X149425Y389654D02*Y385228D01*
X152574Y389654D02*Y385228D01*
X155724Y389654D02*Y385228D01*
X158874Y389654D02*Y385228D01*
X162023Y389654D02*Y385228D01*
X165173Y389654D02*Y385228D01*
X168322Y389654D02*Y385228D01*
X171472Y389654D02*Y385228D01*
X174622Y389654D02*Y385228D01*
X181346Y396378D02*X185772D01*
X181346Y399527D02*X185772D01*
X181346Y402677D02*X185772D01*
X181346Y405826D02*X185772D01*
X181346Y408976D02*X185772D01*
X181346Y412126D02*X185772D01*
X181346Y415275D02*X185772D01*
X181346Y418425D02*X185772D01*
X181346Y421574D02*X185772D01*
X181346Y424724D02*X185772D01*
X181346Y427874D02*X185772D01*
X181346Y431023D02*X185772D01*
X181346Y434173D02*X185772D01*
X181346Y437322D02*X185772D01*
X181346Y440472D02*X185772D01*
X181346Y443622D02*X185772D01*
X174622Y454772D02*Y450346D01*
X171473Y454772D02*Y450346D01*
X168323Y454772D02*Y450346D01*
X165174Y454772D02*Y450346D01*
X162024Y454772D02*Y450346D01*
X158874Y454772D02*Y450346D01*
X155725Y454772D02*Y450346D01*
X152575Y454772D02*Y450346D01*
X149426Y454772D02*Y450346D01*
X146276Y454772D02*Y450346D01*
X143126Y454772D02*Y450346D01*
X139977Y454772D02*Y450346D01*
X136827Y454772D02*Y450346D01*
X133678Y454772D02*Y450346D01*
X130528Y454772D02*Y450346D01*
X127378Y454772D02*Y450346D01*
X116228Y443622D02*X120654D01*
X116228Y440473D02*X120654D01*
X116228Y437323D02*X120654D01*
X116228Y434174D02*X120654D01*
X116228Y431024D02*X120654D01*
X116228Y427874D02*X120654D01*
X116228Y424725D02*X120654D01*
X116228Y421575D02*X120654D01*
X116228Y418426D02*X120654D01*
X116228Y415276D02*X120654D01*
X116228Y412126D02*X120654D01*
X116228Y408977D02*X120654D01*
X116228Y405827D02*X120654D01*
X116228Y402678D02*X120654D01*
X116228Y399528D02*X120654D01*
X116228Y396378D02*X120654D01*
G54D18*X197500Y472000D02*X204000D01*
X197500Y467000D02*X204000D01*
X197500Y462000D02*X204000D01*
X197500Y457000D02*X204000D01*
X218000D02*X224500D01*
X218000Y462000D02*X224500D01*
X218000Y467000D02*X224500D01*
X218000Y472000D02*X224500D01*
M02*
