G04 start of page 7 for group -4079 idx -4079 *
G04 Title: (unknown), topsilk *
G04 Creator: pcb 20091103 *
G04 CreationDate: Sun 20 Mar 2011 04:21:17 AM GMT UTC *
G04 For: gjhurlbu *
G04 Format: Gerber/RS-274X *
G04 PCB-Dimensions: 600000 500000 *
G04 PCB-Coordinate-Origin: lower left *
%MOIN*%
%FSLAX25Y25*%
%LNFRONTSILK*%
%ADD11C,0.0100*%
%ADD23C,0.0080*%
G54D11*X33000Y423000D02*X201000D01*
X33000D02*Y392000D01*
X108000D01*
Y324000D01*
X33000D01*
X201000Y293000D02*X33000D01*
X201000Y423000D02*Y293000D01*
X33000Y324000D02*Y293000D01*
X134000Y301000D02*Y297000D01*
Y301000D02*X135500Y299500D01*
X137000Y301000D01*
Y297000D01*
X139701Y299000D02*X140201Y298500D01*
X138701Y299000D02*X139701D01*
X138201Y298500D02*X138701Y299000D01*
X138201Y298500D02*Y297500D01*
X138701Y297000D01*
X140201Y299000D02*Y297500D01*
X140701Y297000D01*
X138701D02*X139701D01*
X140201Y297500D01*
X142402Y297000D02*X143902D01*
X144402Y297500D01*
X143902Y298000D02*X144402Y297500D01*
X142402Y298000D02*X143902D01*
X141902Y298500D02*X142402Y298000D01*
X141902Y298500D02*X142402Y299000D01*
X143902D01*
X144402Y298500D01*
X141902Y297500D02*X142402Y297000D01*
X146103D02*X147603D01*
X148103Y297500D01*
X147603Y298000D02*X148103Y297500D01*
X146103Y298000D02*X147603D01*
X145603Y298500D02*X146103Y298000D01*
X145603Y298500D02*X146103Y299000D01*
X147603D01*
X148103Y298500D01*
X145603Y297500D02*X146103Y297000D01*
X153104Y301000D02*X153604Y300500D01*
X151604Y301000D02*X153104D01*
X151104Y300500D02*X151604Y301000D01*
X151104Y300500D02*Y299500D01*
X151604Y299000D01*
X153104D01*
X153604Y298500D01*
Y297500D01*
X153104Y297000D02*X153604Y297500D01*
X151604Y297000D02*X153104D01*
X151104Y297500D02*X151604Y297000D01*
X155305D02*X156805D01*
X154805Y297500D02*X155305Y297000D01*
X154805Y298500D02*Y297500D01*
Y298500D02*X155305Y299000D01*
X156305D01*
X156805Y298500D01*
X154805Y298000D02*X156805D01*
Y298500D02*Y298000D01*
X158506Y298500D02*Y297000D01*
Y298500D02*X159006Y299000D01*
X159506D01*
X160006Y298500D01*
Y297000D01*
X158006Y299000D02*X158506Y298500D01*
X161707Y297000D02*X163207D01*
X163707Y297500D01*
X163207Y298000D02*X163707Y297500D01*
X161707Y298000D02*X163207D01*
X161207Y298500D02*X161707Y298000D01*
X161207Y298500D02*X161707Y299000D01*
X163207D01*
X163707Y298500D01*
X161207Y297500D02*X161707Y297000D01*
X164908Y298500D02*Y297500D01*
Y298500D02*X165408Y299000D01*
X166408D01*
X166908Y298500D01*
Y297500D01*
X166408Y297000D02*X166908Y297500D01*
X165408Y297000D02*X166408D01*
X164908Y297500D02*X165408Y297000D01*
X168609Y298500D02*Y297000D01*
Y298500D02*X169109Y299000D01*
X170109D01*
X168109D02*X168609Y298500D01*
X134000Y303500D02*X134500Y303000D01*
X134000Y306500D02*X134500Y307000D01*
X134000Y306500D02*Y303500D01*
X136201Y305000D02*X137701D01*
X135701Y304500D02*X136201Y305000D01*
X135701Y304500D02*Y303500D01*
X136201Y303000D01*
X137701D01*
X138902Y307000D02*X139402Y306500D01*
Y303500D01*
X138902Y303000D02*X139402Y303500D01*
X142403Y306500D02*X142903Y307000D01*
X144403D01*
X144903Y306500D01*
Y305500D01*
X142403Y303000D02*X144903Y305500D01*
X142403Y303000D02*X144903D01*
X146104Y303500D02*X146604Y303000D01*
X146104Y306500D02*Y303500D01*
Y306500D02*X146604Y307000D01*
X147604D01*
X148104Y306500D01*
Y303500D01*
X147604Y303000D02*X148104Y303500D01*
X146604Y303000D02*X147604D01*
X146104Y304000D02*X148104Y306000D01*
X149805Y303000D02*X150805D01*
X150305Y307000D02*Y303000D01*
X149305Y306000D02*X150305Y307000D01*
X152506Y303000D02*X153506D01*
X153006Y307000D02*Y303000D01*
X152006Y306000D02*X153006Y307000D01*
X158507D02*X159007Y306500D01*
X157007Y307000D02*X158507D01*
X156507Y306500D02*X157007Y307000D01*
X156507Y306500D02*Y303500D01*
X157007Y303000D01*
X158507D01*
X159007Y303500D01*
Y304500D02*Y303500D01*
X158507Y305000D02*X159007Y304500D01*
X157507Y305000D02*X158507D01*
X161708D02*X162208Y304500D01*
X160708Y305000D02*X161708D01*
X160208Y304500D02*X160708Y305000D01*
X160208Y304500D02*Y303500D01*
X160708Y303000D01*
X162208Y305000D02*Y303500D01*
X162708Y303000D01*
X160708D02*X161708D01*
X162208Y303500D01*
X163909Y305000D02*Y304000D01*
X164909Y303000D01*
X165909Y304000D01*
Y305000D02*Y304000D01*
X167110Y306000D02*Y305500D01*
Y304500D02*Y303000D01*
X168611Y304500D02*Y303000D01*
Y304500D02*X169111Y305000D01*
X169611D01*
X170111Y304500D01*
Y303000D01*
X168111Y305000D02*X168611Y304500D01*
X173112Y307000D02*Y303000D01*
X175612Y307000D02*Y303000D01*
X173112Y305000D02*X175612D01*
X176813D02*Y303500D01*
X177313Y303000D01*
X178313D01*
X178813Y303500D01*
Y305000D02*Y303500D01*
X180514Y304500D02*Y303000D01*
Y304500D02*X181014Y305000D01*
X182014D01*
X180014D02*X180514Y304500D01*
X183215Y307000D02*Y303500D01*
X183715Y303000D01*
X184716Y307000D02*Y303000D01*
Y303500D02*X185216Y303000D01*
X186216D01*
X186716Y303500D01*
Y304500D02*Y303500D01*
X186216Y305000D02*X186716Y304500D01*
X185216Y305000D02*X186216D01*
X184716Y304500D02*X185216Y305000D01*
X187917D02*Y303500D01*
X188417Y303000D01*
X189417D01*
X189917Y303500D01*
Y305000D02*Y303500D01*
X191618Y307000D02*Y303500D01*
X192118Y303000D01*
X191118Y305500D02*X192118D01*
X177000Y316000D02*X179000D01*
X179500Y315500D01*
Y314500D01*
X179000Y314000D02*X179500Y314500D01*
X177500Y314000D02*X179000D01*
X177500Y316000D02*Y312000D01*
Y314000D02*X179500Y312000D01*
X181201D02*X182701D01*
X180701Y312500D02*X181201Y312000D01*
X180701Y313500D02*Y312500D01*
Y313500D02*X181201Y314000D01*
X182201D01*
X182701Y313500D01*
X180701Y313000D02*X182701D01*
Y313500D02*Y313000D01*
X183902Y314000D02*Y313000D01*
X184902Y312000D01*
X185902Y313000D01*
Y314000D02*Y313000D01*
X188903Y315500D02*X189403Y316000D01*
X190903D01*
X191403Y315500D01*
Y314500D01*
X188903Y312000D02*X191403Y314500D01*
X188903Y312000D02*X191403D01*
X192604D02*X193104D01*
X194305Y312500D02*X194805Y312000D01*
X194305Y315500D02*Y312500D01*
Y315500D02*X194805Y316000D01*
X195805D01*
X196305Y315500D01*
Y312500D01*
X195805Y312000D02*X196305Y312500D01*
X194805Y312000D02*X195805D01*
X194305Y313000D02*X196305Y315000D01*
X37000Y409000D02*X117000D01*
Y419000D02*Y409000D01*
X37000Y419000D02*X117000D01*
X37000D02*Y409000D01*
X47000Y419000D02*Y409000D01*
X37000Y419000D02*X47000D01*
X187000Y387000D02*Y327000D01*
X197000D01*
Y387000D01*
X187000D01*
Y377000D02*X197000D01*
Y387000D01*
X37000Y297000D02*X117000D01*
Y307000D02*Y297000D01*
X37000Y307000D02*X117000D01*
X37000D02*Y297000D01*
X47000Y307000D02*Y297000D01*
X37000Y307000D02*X47000D01*
X169000Y377000D02*Y337000D01*
X179000D01*
Y377000D02*Y337000D01*
X169000Y377000D02*X179000D01*
X169000Y367000D02*X179000D01*
Y377000D02*Y367000D01*
X159500Y355000D02*Y336000D01*
X128500Y355000D02*X159500D01*
X128500D02*Y336000D01*
X146500D02*X159500D01*
X128500D02*X141500D01*
X146500D02*G75*G03X141500Y336000I-2500J0D01*G01*
G54D23*X133150Y356638D02*X133936D01*
X133150Y362148D02*X133936D01*
G54D11*X38500Y403000D02*X40000D01*
X38000Y403500D02*X38500Y403000D01*
X38000Y406500D02*Y403500D01*
Y406500D02*X38500Y407000D01*
X40000D01*
X41201Y406500D02*Y403500D01*
Y406500D02*X41701Y407000D01*
X42701D01*
X43201Y406500D01*
Y403500D01*
X42701Y403000D02*X43201Y403500D01*
X41701Y403000D02*X42701D01*
X41201Y403500D02*X41701Y403000D01*
X44402Y407000D02*Y403000D01*
Y407000D02*Y406500D01*
X46902Y404000D01*
Y407000D02*Y403000D01*
X48103Y407000D02*Y403000D01*
Y407000D02*Y406500D01*
X50603Y404000D01*
Y407000D02*Y403000D01*
X52304D02*X53304D01*
X52804Y407000D02*Y403000D01*
X51804Y406000D02*X52804Y407000D01*
X181000Y385500D02*Y384000D01*
X181500Y386000D02*X181000Y385500D01*
X181500Y386000D02*X184500D01*
X185000Y385500D01*
Y384000D01*
X181500Y382799D02*X184500D01*
X185000Y382299D01*
Y381299D01*
X184500Y380799D01*
X181500D02*X184500D01*
X181000Y381299D02*X181500Y380799D01*
X181000Y382299D02*Y381299D01*
X181500Y382799D02*X181000Y382299D01*
Y379598D02*X185000D01*
X184500D02*X185000D01*
X184500D02*X182000Y377098D01*
X181000D02*X185000D01*
X181000Y375897D02*X185000D01*
X184500D02*X185000D01*
X184500D02*X182000Y373397D01*
X181000D02*X185000D01*
X184500Y372196D02*X185000Y371696D01*
Y370696D01*
X184500Y370196D01*
X181500D02*X184500D01*
X181000Y370696D02*X181500Y370196D01*
X181000Y371696D02*Y370696D01*
X181500Y372196D02*X181000Y371696D01*
X183000D02*Y370196D01*
X163000Y375500D02*Y374000D01*
X163500Y376000D02*X163000Y375500D01*
X163500Y376000D02*X166500D01*
X167000Y375500D01*
Y374000D01*
X163500Y372799D02*X166500D01*
X167000Y372299D01*
Y371299D01*
X166500Y370799D01*
X163500D02*X166500D01*
X163000Y371299D02*X163500Y370799D01*
X163000Y372299D02*Y371299D01*
X163500Y372799D02*X163000Y372299D01*
Y369598D02*X167000D01*
X166500D02*X167000D01*
X166500D02*X164000Y367098D01*
X163000D02*X167000D01*
X163000Y365897D02*X167000D01*
X166500D02*X167000D01*
X166500D02*X164000Y363397D01*
X163000D02*X167000D01*
X165000Y362196D02*X167000Y360196D01*
X165000Y362196D02*Y359696D01*
X163000Y360196D02*X167000D01*
X131108Y367722D02*X133108D01*
X133608Y367222D01*
Y366222D01*
X133108Y365722D02*X133608Y366222D01*
X131608Y365722D02*X133108D01*
X131608Y367722D02*Y363722D01*
Y365722D02*X133608Y363722D01*
X135309D02*X136309D01*
X135809Y367722D02*Y363722D01*
X134809Y366722D02*X135809Y367722D01*
X141000Y346500D02*Y343000D01*
X141500Y342500D01*
X142500D01*
X143000Y343000D01*
Y346500D02*Y343000D01*
X144201Y346000D02*X144701Y346500D01*
X146201D01*
X146701Y346000D01*
Y345000D01*
X144201Y342500D02*X146701Y345000D01*
X144201Y342500D02*X146701D01*
X98500Y310000D02*X100000D01*
X98000Y310500D02*X98500Y310000D01*
X98000Y313500D02*Y310500D01*
Y313500D02*X98500Y314000D01*
X100000D01*
X101201Y313500D02*Y310500D01*
Y313500D02*X101701Y314000D01*
X102701D01*
X103201Y313500D01*
Y310500D01*
X102701Y310000D02*X103201Y310500D01*
X101701Y310000D02*X102701D01*
X101201Y310500D02*X101701Y310000D01*
X104402Y314000D02*Y310000D01*
Y314000D02*Y313500D01*
X106902Y311000D01*
Y314000D02*Y310000D01*
X108103Y314000D02*Y310000D01*
Y314000D02*Y313500D01*
X110603Y311000D01*
Y314000D02*Y310000D01*
X111804Y313500D02*X112304Y314000D01*
X113804D01*
X114304Y313500D01*
Y312500D01*
X111804Y310000D02*X114304Y312500D01*
X111804Y310000D02*X114304D01*
M02*
