G04 start of page 3 for group 1 idx 1 *
G04 Title: (unknown), solder *
G04 Creator: pcb 20091103 *
G04 CreationDate: Sun 20 Mar 2011 04:21:17 AM GMT UTC *
G04 For: gjhurlbu *
G04 Format: Gerber/RS-274X *
G04 PCB-Dimensions: 600000 500000 *
G04 PCB-Coordinate-Origin: lower left *
%MOIN*%
%FSLAX25Y25*%
%LNBACK*%
%ADD11C,0.0100*%
%ADD12C,0.0200*%
%ADD13C,0.0600*%
%ADD14C,0.0360*%
%ADD17C,0.0380*%
%ADD18R,0.0130X0.0130*%
G54D12*G36*
X199000Y421000D02*Y295000D01*
X195613D01*
Y329860D01*
X195708Y329882D01*
X195829Y329933D01*
X195938Y330005D01*
X196034Y330094D01*
X196113Y330198D01*
X196172Y330315D01*
X196314Y330722D01*
X196417Y331142D01*
X196479Y331569D01*
X196500Y332000D01*
X196479Y332432D01*
X196417Y332859D01*
X196314Y333279D01*
X196172Y333686D01*
X196171D01*
X196112Y333802D01*
X196033Y333907D01*
X195937Y333996D01*
X195828Y334067D01*
X195707Y334118D01*
X195613Y334139D01*
Y339344D01*
X195897Y339750D01*
X196229Y340461D01*
X196432Y341219D01*
X196500Y342000D01*
X196432Y342781D01*
X196229Y343539D01*
X195897Y344250D01*
X195613Y344656D01*
Y349344D01*
X195897Y349750D01*
X196229Y350461D01*
X196432Y351219D01*
X196500Y352000D01*
X196432Y352781D01*
X196229Y353539D01*
X195897Y354250D01*
X195613Y354656D01*
Y359344D01*
X195897Y359750D01*
X196229Y360461D01*
X196432Y361219D01*
X196500Y362000D01*
X196432Y362781D01*
X196229Y363539D01*
X195897Y364250D01*
X195613Y364656D01*
Y369344D01*
X195897Y369750D01*
X196229Y370461D01*
X196432Y371219D01*
X196500Y372000D01*
X196432Y372781D01*
X196229Y373539D01*
X195897Y374250D01*
X195613Y374656D01*
Y377637D01*
X195750Y377701D01*
X195964Y377851D01*
X196149Y378036D01*
X196299Y378250D01*
X196410Y378487D01*
X196477Y378740D01*
X196500Y379000D01*
Y385000D01*
X196477Y385260D01*
X196410Y385513D01*
X196299Y385750D01*
X196149Y385964D01*
X195964Y386149D01*
X195750Y386299D01*
X195613Y386363D01*
Y421000D01*
X199000D01*
G37*
G36*
X195613Y386363D02*X195513Y386410D01*
X195260Y386477D01*
X195000Y386500D01*
X192000D01*
Y421000D01*
X195613D01*
Y386363D01*
G37*
G36*
Y374656D02*X195447Y374893D01*
X194893Y375447D01*
X194250Y375897D01*
X193539Y376229D01*
X192781Y376432D01*
X192000Y376500D01*
Y377500D01*
X195000D01*
X195260Y377523D01*
X195513Y377590D01*
X195613Y377637D01*
Y374656D01*
G37*
G36*
Y364656D02*X195447Y364893D01*
X194893Y365447D01*
X194250Y365897D01*
X193539Y366229D01*
X192781Y366432D01*
X192000Y366500D01*
Y367500D01*
X192781Y367568D01*
X193539Y367771D01*
X194250Y368103D01*
X194893Y368553D01*
X195447Y369107D01*
X195613Y369344D01*
Y364656D01*
G37*
G36*
Y354656D02*X195447Y354893D01*
X194893Y355447D01*
X194250Y355897D01*
X193539Y356229D01*
X192781Y356432D01*
X192000Y356500D01*
Y357500D01*
X192781Y357568D01*
X193539Y357771D01*
X194250Y358103D01*
X194893Y358553D01*
X195447Y359107D01*
X195613Y359344D01*
Y354656D01*
G37*
G36*
Y344656D02*X195447Y344893D01*
X194893Y345447D01*
X194250Y345897D01*
X193539Y346229D01*
X192781Y346432D01*
X192000Y346500D01*
Y347500D01*
X192781Y347568D01*
X193539Y347771D01*
X194250Y348103D01*
X194893Y348553D01*
X195447Y349107D01*
X195613Y349344D01*
Y344656D01*
G37*
G36*
Y295000D02*X192000D01*
Y327500D01*
X192431Y327521D01*
X192858Y327583D01*
X193278Y327686D01*
X193685Y327828D01*
Y327829D01*
X193801Y327888D01*
X193906Y327967D01*
X193995Y328063D01*
X194066Y328172D01*
X194117Y328293D01*
X194146Y328420D01*
X194153Y328550D01*
X194137Y328680D01*
X194099Y328805D01*
X194040Y328921D01*
X193961Y329026D01*
X193865Y329115D01*
X193756Y329186D01*
X193635Y329237D01*
X193508Y329266D01*
X193378Y329273D01*
X193248Y329257D01*
X193123Y329219D01*
X192852Y329124D01*
X192572Y329056D01*
X192287Y329014D01*
X192000Y329000D01*
Y335000D01*
X192287Y334987D01*
X192572Y334945D01*
X192852Y334877D01*
X193123Y334782D01*
Y334781D01*
X193248Y334743D01*
X193378Y334727D01*
X193509Y334734D01*
X193636Y334763D01*
X193757Y334814D01*
X193866Y334886D01*
X193962Y334975D01*
X194041Y335079D01*
X194100Y335196D01*
X194138Y335321D01*
X194154Y335451D01*
X194147Y335582D01*
X194118Y335709D01*
X194067Y335830D01*
X193995Y335939D01*
X193906Y336035D01*
X193802Y336114D01*
X193685Y336173D01*
X193278Y336315D01*
X192858Y336418D01*
X192431Y336480D01*
X192000Y336500D01*
Y337500D01*
X192781Y337568D01*
X193539Y337771D01*
X194250Y338103D01*
X194893Y338553D01*
X195447Y339107D01*
X195613Y339344D01*
Y334139D01*
X195580Y334147D01*
X195450Y334154D01*
X195320Y334138D01*
X195195Y334100D01*
X195079Y334041D01*
X194974Y333962D01*
X194885Y333866D01*
X194814Y333757D01*
X194763Y333636D01*
X194734Y333509D01*
X194727Y333379D01*
X194743Y333249D01*
X194781Y333124D01*
X194876Y332853D01*
X194944Y332573D01*
X194986Y332288D01*
X195000Y332000D01*
X194986Y331713D01*
X194944Y331428D01*
X194876Y331148D01*
X194781Y330877D01*
X194780D01*
X194742Y330752D01*
X194726Y330622D01*
X194733Y330491D01*
X194762Y330364D01*
X194813Y330243D01*
X194885Y330134D01*
X194974Y330038D01*
X195078Y329959D01*
X195195Y329900D01*
X195320Y329862D01*
X195450Y329846D01*
X195581Y329853D01*
X195613Y329860D01*
Y295000D01*
G37*
G36*
X192000Y386500D02*X189000D01*
X188740Y386477D01*
X188487Y386410D01*
X188250Y386299D01*
X188036Y386149D01*
X187851Y385964D01*
X187701Y385750D01*
X187590Y385513D01*
X187523Y385260D01*
X187500Y385000D01*
Y383500D01*
X167000D01*
X166943Y383495D01*
X166869D01*
X166798Y383482D01*
X166740Y383477D01*
X166681Y383461D01*
X166612Y383449D01*
X166549Y383426D01*
X166487Y383410D01*
X166429Y383383D01*
X166366Y383360D01*
X166306Y383325D01*
X166250Y383299D01*
X166202Y383265D01*
X166139Y383229D01*
X166082Y383181D01*
X166036Y383149D01*
X165995Y383108D01*
X165939Y383061D01*
X161939Y379061D01*
X161940Y379060D01*
X161903Y379016D01*
X161851Y378964D01*
X161809Y378904D01*
X161772Y378860D01*
X161743Y378810D01*
X161701Y378750D01*
X161671Y378686D01*
X161641Y378634D01*
X161622Y378581D01*
X161590Y378513D01*
X161570Y378437D01*
X161552Y378388D01*
X161542Y378333D01*
X161523Y378260D01*
X161516Y378185D01*
X161507Y378131D01*
Y378079D01*
X161500Y378000D01*
Y349622D01*
X154850Y342972D01*
Y421000D01*
X192000D01*
Y386500D01*
G37*
G36*
X188387Y349344D02*X188553Y349107D01*
X189107Y348553D01*
X189750Y348103D01*
X190461Y347771D01*
X191219Y347568D01*
X192000Y347500D01*
Y346500D01*
X191219Y346432D01*
X190461Y346229D01*
X189750Y345897D01*
X189107Y345447D01*
X188553Y344893D01*
X188387Y344656D01*
Y349344D01*
G37*
G36*
Y359344D02*X188553Y359107D01*
X189107Y358553D01*
X189750Y358103D01*
X190461Y357771D01*
X191219Y357568D01*
X192000Y357500D01*
Y356500D01*
X191219Y356432D01*
X190461Y356229D01*
X189750Y355897D01*
X189107Y355447D01*
X188553Y354893D01*
X188387Y354656D01*
Y359344D01*
G37*
G36*
Y369344D02*X188553Y369107D01*
X189107Y368553D01*
X189750Y368103D01*
X190461Y367771D01*
X191219Y367568D01*
X192000Y367500D01*
Y366500D01*
X191219Y366432D01*
X190461Y366229D01*
X189750Y365897D01*
X189107Y365447D01*
X188553Y364893D01*
X188387Y364656D01*
Y369344D01*
G37*
G36*
Y377637D02*X188487Y377590D01*
X188740Y377523D01*
X189000Y377500D01*
X192000D01*
Y376500D01*
X191219Y376432D01*
X190461Y376229D01*
X189750Y375897D01*
X189107Y375447D01*
X188553Y374893D01*
X188387Y374656D01*
Y377637D01*
G37*
G36*
X192000Y295000D02*X188387D01*
Y329861D01*
X188419Y329854D01*
X188549Y329847D01*
X188679Y329863D01*
X188804Y329901D01*
X188920Y329960D01*
X189025Y330039D01*
X189114Y330135D01*
X189185Y330244D01*
X189236Y330365D01*
X189265Y330492D01*
X189272Y330622D01*
X189256Y330752D01*
X189218Y330877D01*
X189123Y331148D01*
X189055Y331428D01*
X189013Y331713D01*
X189000Y332001D01*
X189013Y332288D01*
X189055Y332573D01*
X189123Y332853D01*
X189218Y333124D01*
X189219D01*
X189257Y333249D01*
X189273Y333379D01*
X189266Y333510D01*
X189237Y333637D01*
X189186Y333758D01*
X189114Y333867D01*
X189025Y333963D01*
X188921Y334042D01*
X188804Y334101D01*
X188679Y334139D01*
X188549Y334155D01*
X188418Y334148D01*
X188387Y334141D01*
Y339344D01*
X188553Y339107D01*
X189107Y338553D01*
X189750Y338103D01*
X190461Y337771D01*
X191219Y337568D01*
X192000Y337500D01*
Y336500D01*
X191568Y336480D01*
X191141Y336418D01*
X190721Y336315D01*
X190314Y336173D01*
Y336172D01*
X190198Y336113D01*
X190093Y336034D01*
X190004Y335938D01*
X189933Y335829D01*
X189882Y335708D01*
X189853Y335581D01*
X189846Y335451D01*
X189862Y335321D01*
X189900Y335196D01*
X189959Y335080D01*
X190038Y334975D01*
X190134Y334886D01*
X190243Y334815D01*
X190364Y334764D01*
X190491Y334735D01*
X190621Y334728D01*
X190751Y334744D01*
X190876Y334782D01*
X191147Y334877D01*
X191427Y334945D01*
X191712Y334987D01*
X192000Y335000D01*
Y329000D01*
X191999D01*
X191712Y329014D01*
X191427Y329056D01*
X191147Y329124D01*
X190876Y329219D01*
Y329220D01*
X190751Y329258D01*
X190621Y329274D01*
X190490Y329267D01*
X190363Y329238D01*
X190242Y329187D01*
X190133Y329115D01*
X190037Y329026D01*
X189958Y328922D01*
X189899Y328805D01*
X189861Y328680D01*
X189845Y328550D01*
X189852Y328419D01*
X189881Y328292D01*
X189932Y328171D01*
X190004Y328062D01*
X190093Y327966D01*
X190197Y327887D01*
X190314Y327828D01*
X190721Y327686D01*
X191141Y327583D01*
X191568Y327521D01*
X191999Y327500D01*
X192000D01*
Y295000D01*
G37*
G36*
X188387D02*X174000D01*
Y337500D01*
X174781Y337568D01*
X175539Y337771D01*
X176250Y338103D01*
X176893Y338553D01*
X177447Y339107D01*
X177897Y339750D01*
X178229Y340461D01*
X178432Y341219D01*
X178500Y342000D01*
X178432Y342781D01*
X178229Y343539D01*
X177897Y344250D01*
X177447Y344893D01*
X176893Y345447D01*
X176250Y345897D01*
X175539Y346229D01*
X174781Y346432D01*
X174000Y346500D01*
Y347500D01*
X174781Y347568D01*
X175539Y347771D01*
X176250Y348103D01*
X176893Y348553D01*
X177447Y349107D01*
X177897Y349750D01*
X178229Y350461D01*
X178432Y351219D01*
X178500Y352000D01*
X178432Y352781D01*
X178229Y353539D01*
X177897Y354250D01*
X177447Y354893D01*
X176893Y355447D01*
X176250Y355897D01*
X175539Y356229D01*
X174781Y356432D01*
X174000Y356500D01*
Y357500D01*
X174781Y357568D01*
X175539Y357771D01*
X176250Y358103D01*
X176893Y358553D01*
X177447Y359107D01*
X177897Y359750D01*
X178229Y360461D01*
X178432Y361219D01*
X178500Y362000D01*
X178432Y362781D01*
X178229Y363539D01*
X177897Y364250D01*
X177447Y364893D01*
X176893Y365447D01*
X176250Y365897D01*
X175539Y366229D01*
X174781Y366432D01*
X174000Y366500D01*
Y367500D01*
X177000D01*
X177260Y367523D01*
X177513Y367590D01*
X177750Y367701D01*
X177964Y367851D01*
X178149Y368036D01*
X178299Y368250D01*
X178410Y368487D01*
X178477Y368740D01*
X178500Y369000D01*
Y375000D01*
X178477Y375260D01*
X178410Y375513D01*
X178299Y375750D01*
X178149Y375964D01*
X177964Y376149D01*
X177750Y376299D01*
X177513Y376410D01*
X177260Y376477D01*
X177000Y376500D01*
X174000D01*
Y380500D01*
X187500D01*
Y379000D01*
X187523Y378740D01*
X187590Y378487D01*
X187701Y378250D01*
X187851Y378036D01*
X188036Y377851D01*
X188250Y377701D01*
X188387Y377637D01*
Y374656D01*
X188103Y374250D01*
X187771Y373539D01*
X187568Y372781D01*
X187500Y372000D01*
X187568Y371219D01*
X187771Y370461D01*
X188103Y369750D01*
X188387Y369344D01*
Y364656D01*
X188103Y364250D01*
X187771Y363539D01*
X187568Y362781D01*
X187500Y362000D01*
X187568Y361219D01*
X187771Y360461D01*
X188103Y359750D01*
X188387Y359344D01*
Y354656D01*
X188103Y354250D01*
X187771Y353539D01*
X187568Y352781D01*
X187500Y352000D01*
X187568Y351219D01*
X187771Y350461D01*
X188103Y349750D01*
X188387Y349344D01*
Y344656D01*
X188103Y344250D01*
X187771Y343539D01*
X187568Y342781D01*
X187500Y342000D01*
X187568Y341219D01*
X187771Y340461D01*
X188103Y339750D01*
X188387Y339344D01*
Y334141D01*
X188291Y334119D01*
X188170Y334068D01*
X188061Y333996D01*
X187965Y333907D01*
X187886Y333803D01*
X187827Y333686D01*
X187685Y333279D01*
X187582Y332859D01*
X187520Y332432D01*
X187500Y332001D01*
X187520Y331569D01*
X187582Y331142D01*
X187685Y330722D01*
X187827Y330315D01*
X187828D01*
X187887Y330199D01*
X187966Y330094D01*
X188062Y330005D01*
X188171Y329934D01*
X188292Y329883D01*
X188387Y329861D01*
Y295000D01*
G37*
G36*
X174000D02*X154850D01*
Y338730D01*
X164060Y347940D01*
X164061Y347939D01*
X164108Y347995D01*
X164149Y348036D01*
X164182Y348083D01*
X164229Y348139D01*
X164266Y348203D01*
X164299Y348250D01*
X164325Y348305D01*
X164360Y348366D01*
X164382Y348428D01*
X164410Y348487D01*
X164427Y348551D01*
X164449Y348612D01*
X164461Y348681D01*
X164477Y348740D01*
X164482Y348796D01*
X164495Y348869D01*
Y348943D01*
X164500Y349000D01*
Y377380D01*
X167620Y380500D01*
X174000D01*
Y376500D01*
X171000D01*
X170740Y376477D01*
X170487Y376410D01*
X170250Y376299D01*
X170036Y376149D01*
X169851Y375964D01*
X169701Y375750D01*
X169590Y375513D01*
X169523Y375260D01*
X169500Y375000D01*
Y369000D01*
X169523Y368740D01*
X169590Y368487D01*
X169701Y368250D01*
X169851Y368036D01*
X170036Y367851D01*
X170250Y367701D01*
X170487Y367590D01*
X170740Y367523D01*
X171000Y367500D01*
X174000D01*
Y366500D01*
X173219Y366432D01*
X172461Y366229D01*
X171750Y365897D01*
X171107Y365447D01*
X170553Y364893D01*
X170103Y364250D01*
X169771Y363539D01*
X169568Y362781D01*
X169500Y362000D01*
X169568Y361219D01*
X169771Y360461D01*
X170103Y359750D01*
X170553Y359107D01*
X171107Y358553D01*
X171750Y358103D01*
X172461Y357771D01*
X173219Y357568D01*
X174000Y357500D01*
Y356500D01*
X173219Y356432D01*
X172461Y356229D01*
X171750Y355897D01*
X171107Y355447D01*
X170553Y354893D01*
X170103Y354250D01*
X169771Y353539D01*
X169568Y352781D01*
X169500Y352000D01*
X169568Y351219D01*
X169771Y350461D01*
X170103Y349750D01*
X170553Y349107D01*
X171107Y348553D01*
X171750Y348103D01*
X172461Y347771D01*
X173219Y347568D01*
X174000Y347500D01*
Y346500D01*
X173219Y346432D01*
X172461Y346229D01*
X171750Y345897D01*
X171107Y345447D01*
X170553Y344893D01*
X170103Y344250D01*
X169771Y343539D01*
X169568Y342781D01*
X169500Y342000D01*
X169568Y341219D01*
X169771Y340461D01*
X170103Y339750D01*
X170553Y339107D01*
X171107Y338553D01*
X171750Y338103D01*
X172461Y337771D01*
X173219Y337568D01*
X174000Y337500D01*
Y295000D01*
G37*
G36*
X143000Y326880D02*X143500Y327380D01*
Y325355D01*
X143200Y325145D01*
X143000Y324945D01*
Y326880D01*
G37*
G36*
Y364879D02*X144618Y363261D01*
Y360540D01*
X144592Y360577D01*
X144530Y360639D01*
X144459Y360689D01*
X144380Y360726D01*
X144296Y360748D01*
X144209Y360756D01*
X143000D01*
Y364879D01*
G37*
G36*
Y421000D02*X154850D01*
Y342972D01*
X150175Y338297D01*
X150176Y338296D01*
X150139Y338252D01*
X150087Y338200D01*
X150045Y338140D01*
X150008Y338096D01*
X149979Y338046D01*
X149937Y337986D01*
X149907Y337922D01*
X149877Y337870D01*
X149857Y337815D01*
X149826Y337749D01*
X149807Y337676D01*
X149788Y337624D01*
X149778Y337569D01*
X149759Y337496D01*
X149752Y337421D01*
X149743Y337367D01*
Y337315D01*
X149742Y337304D01*
X149710Y337349D01*
X149648Y337411D01*
X149577Y337461D01*
X149498Y337498D01*
X149414Y337520D01*
X149327Y337528D01*
X148027D01*
X147940Y337520D01*
X147856Y337498D01*
X147777Y337461D01*
X147706Y337411D01*
X147644Y337349D01*
X147594Y337278D01*
X147557Y337199D01*
X147535Y337115D01*
X147527Y337028D01*
Y332735D01*
X147396Y332548D01*
X147347Y332633D01*
X147268Y332727D01*
Y337028D01*
X147260Y337115D01*
X147238Y337199D01*
X147201Y337278D01*
X147151Y337349D01*
X147089Y337411D01*
X147018Y337461D01*
X146939Y337498D01*
X146855Y337520D01*
X146768Y337528D01*
X145468D01*
X145381Y337520D01*
X145297Y337498D01*
X145218Y337461D01*
X145147Y337411D01*
X145085Y337349D01*
X145035Y337278D01*
X144998Y337199D01*
X144976Y337115D01*
X144968Y337028D01*
Y332744D01*
X144939Y332715D01*
X144940Y332714D01*
X144903Y332670D01*
X144851Y332618D01*
X144821Y332575D01*
X144709Y332735D01*
Y337028D01*
X144701Y337115D01*
X144679Y337199D01*
X144642Y337278D01*
X144592Y337349D01*
X144530Y337411D01*
X144459Y337461D01*
X144380Y337498D01*
X144296Y337520D01*
X144209Y337528D01*
X143000D01*
Y348200D01*
X143244Y348211D01*
X143486Y348243D01*
X143724Y348296D01*
X143957Y348369D01*
X144036Y348406D01*
X144107Y348456D01*
X144169Y348517D01*
X144219Y348589D01*
X144256Y348668D01*
X144279Y348752D01*
X144286Y348839D01*
X144279Y348926D01*
X144256Y349010D01*
X144219Y349089D01*
X144169Y349160D01*
X144108Y349222D01*
X144036Y349272D01*
X143957Y349309D01*
X143873Y349332D01*
X143786Y349339D01*
X143699Y349332D01*
X143615Y349309D01*
X143465Y349262D01*
X143312Y349228D01*
X143156Y349207D01*
X143000Y349200D01*
Y349500D01*
X148000D01*
X148080Y349507D01*
X148131D01*
X148184Y349516D01*
X148260Y349523D01*
X148338Y349544D01*
X148388Y349552D01*
X148439Y349570D01*
X148513Y349590D01*
X148583Y349623D01*
X148634Y349641D01*
X148682Y349669D01*
X148750Y349701D01*
X148811Y349743D01*
X148860Y349772D01*
X148904Y349809D01*
X148964Y349851D01*
X149016Y349903D01*
X149060Y349940D01*
X150060Y350940D01*
X150061Y350939D01*
X150108Y350995D01*
X150149Y351036D01*
X150182Y351083D01*
X150229Y351139D01*
X150266Y351203D01*
X150299Y351250D01*
X150325Y351305D01*
X150360Y351366D01*
X150382Y351428D01*
X150410Y351487D01*
X150427Y351551D01*
X150449Y351612D01*
X150461Y351681D01*
X150477Y351740D01*
X150482Y351796D01*
X150495Y351869D01*
Y351943D01*
X150500Y352000D01*
Y353858D01*
X150586Y353850D01*
X151886D01*
X151973Y353858D01*
X152057Y353880D01*
X152136Y353917D01*
X152207Y353967D01*
X152269Y354029D01*
X152319Y354100D01*
X152356Y354179D01*
X152378Y354263D01*
X152386Y354350D01*
Y358643D01*
X152535Y358856D01*
X152646Y359093D01*
X152713Y359346D01*
X152736Y359606D01*
Y363810D01*
X152800Y363855D01*
X153145Y364200D01*
X153425Y364600D01*
X153631Y365042D01*
X153757Y365514D01*
X153800Y366000D01*
X153757Y366486D01*
X153631Y366958D01*
X153425Y367400D01*
X153145Y367800D01*
X152800Y368145D01*
X152400Y368425D01*
X151958Y368631D01*
X151486Y368757D01*
X151000Y368800D01*
X150514Y368757D01*
X150042Y368631D01*
X149600Y368425D01*
X149200Y368145D01*
X148855Y367800D01*
X148575Y367400D01*
X148369Y366958D01*
X148243Y366486D01*
X148200Y366000D01*
X148243Y365514D01*
X148369Y365042D01*
X148575Y364600D01*
X148855Y364200D01*
X149200Y363855D01*
X149600Y363575D01*
X149736Y363512D01*
Y360540D01*
X149710Y360577D01*
X149648Y360639D01*
X149577Y360689D01*
X149498Y360726D01*
X149414Y360748D01*
X149327Y360756D01*
X148027D01*
X147940Y360748D01*
X147856Y360726D01*
X147777Y360689D01*
X147706Y360639D01*
X147644Y360577D01*
X147629Y360556D01*
X147618Y360540D01*
Y363882D01*
X147612Y363950D01*
Y364013D01*
X147601Y364075D01*
X147595Y364142D01*
X147577Y364211D01*
X147566Y364271D01*
X147547Y364324D01*
X147528Y364395D01*
X147499Y364456D01*
X147477Y364516D01*
X147447Y364569D01*
X147417Y364632D01*
X147381Y364683D01*
X147346Y364743D01*
X147305Y364792D01*
X147267Y364846D01*
X147220Y364893D01*
X147178Y364943D01*
X143061Y369060D01*
X143011Y369102D01*
X143000Y369113D01*
Y421000D01*
G37*
G36*
X154850Y295000D02*X151231D01*
Y324720D01*
X151248Y324721D01*
X151332Y324744D01*
X151411Y324781D01*
X151483Y324831D01*
X151544Y324893D01*
X151594Y324964D01*
X151631Y325043D01*
X151704Y325276D01*
X151757Y325514D01*
X151789Y325756D01*
X151800Y326000D01*
X151789Y326245D01*
X151757Y326487D01*
X151704Y326725D01*
X151631Y326958D01*
X151594Y327037D01*
X151544Y327108D01*
X151483Y327170D01*
X151411Y327220D01*
X151332Y327257D01*
X151248Y327280D01*
X151231Y327281D01*
Y330622D01*
X151886D01*
X151973Y330630D01*
X152057Y330652D01*
X152136Y330689D01*
X152207Y330739D01*
X152269Y330801D01*
X152319Y330872D01*
X152356Y330951D01*
X152378Y331035D01*
X152386Y331122D01*
Y335415D01*
X152535Y335628D01*
X152646Y335865D01*
X152713Y336118D01*
X152736Y336378D01*
Y336616D01*
X154850Y338730D01*
Y295000D01*
G37*
G36*
X151231D02*X149000D01*
Y323200D01*
X149244Y323211D01*
X149486Y323243D01*
X149724Y323296D01*
X149957Y323369D01*
X150036Y323406D01*
X150107Y323456D01*
X150169Y323517D01*
X150219Y323589D01*
X150256Y323668D01*
X150279Y323752D01*
X150286Y323839D01*
X150279Y323926D01*
X150256Y324010D01*
X150219Y324089D01*
X150169Y324160D01*
X150108Y324222D01*
X150036Y324272D01*
X149957Y324309D01*
X149873Y324332D01*
X149786Y324339D01*
X149699Y324332D01*
X149615Y324309D01*
X149465Y324262D01*
X149312Y324228D01*
X149156Y324207D01*
X149000Y324200D01*
Y324506D01*
X149131D01*
X149389Y324552D01*
X149634Y324641D01*
X149861Y324772D01*
X150061Y324940D01*
X150229Y325140D01*
X150360Y325367D01*
X150449Y325613D01*
X150494Y325870D01*
Y326131D01*
X150448Y326389D01*
X150359Y326634D01*
X150228Y326861D01*
X150177Y326922D01*
Y327852D01*
X150219Y327912D01*
X150256Y327991D01*
X150279Y328075D01*
X150286Y328162D01*
X150279Y328249D01*
X150256Y328333D01*
X150219Y328412D01*
X150177Y328472D01*
Y330838D01*
X150203Y330801D01*
X150265Y330739D01*
X150336Y330689D01*
X150415Y330652D01*
X150499Y330630D01*
X150586Y330622D01*
X151231D01*
Y327281D01*
X151161Y327287D01*
X151074Y327280D01*
X150990Y327257D01*
X150911Y327220D01*
X150840Y327170D01*
X150778Y327109D01*
X150728Y327037D01*
X150691Y326958D01*
X150668Y326874D01*
X150661Y326787D01*
X150668Y326700D01*
X150691Y326616D01*
X150738Y326466D01*
X150772Y326313D01*
X150793Y326157D01*
X150800Y326000D01*
X150793Y325844D01*
X150772Y325688D01*
X150738Y325535D01*
X150691Y325385D01*
X150668Y325301D01*
X150661Y325214D01*
X150668Y325127D01*
X150691Y325043D01*
X150728Y324964D01*
X150778Y324892D01*
X150840Y324831D01*
X150911Y324781D01*
X150990Y324744D01*
X151074Y324721D01*
X151161Y324714D01*
X151231Y324720D01*
Y295000D01*
G37*
G36*
X149000D02*X143000D01*
Y321055D01*
X143200Y320855D01*
X143600Y320575D01*
X144042Y320369D01*
X144514Y320243D01*
X145000Y320200D01*
X145486Y320243D01*
X145958Y320369D01*
X146400Y320575D01*
X146800Y320855D01*
X147145Y321200D01*
X147425Y321600D01*
X147631Y322042D01*
X147757Y322514D01*
X147800Y323000D01*
X147757Y323486D01*
X147631Y323958D01*
X147425Y324400D01*
X147145Y324800D01*
X147133Y324812D01*
X147159Y324831D01*
X147221Y324892D01*
X147271Y324964D01*
X147308Y325043D01*
X147331Y325127D01*
X147338Y325214D01*
X147331Y325301D01*
X147308Y325385D01*
X147261Y325535D01*
X147227Y325688D01*
X147206Y325844D01*
X147200Y326001D01*
X147202Y326055D01*
X147217Y325999D01*
X147228Y325936D01*
X147249Y325879D01*
X147267Y325810D01*
X147296Y325749D01*
X147317Y325690D01*
X147350Y325633D01*
X147378Y325573D01*
X147415Y325520D01*
X147448Y325463D01*
X147491Y325412D01*
X147528Y325359D01*
X147574Y325313D01*
X147616Y325263D01*
X147940Y324939D01*
X148140Y324771D01*
X148367Y324640D01*
X148613Y324551D01*
X148870Y324506D01*
X149000D01*
Y324200D01*
X148999D01*
X148843Y324207D01*
X148687Y324228D01*
X148534Y324262D01*
X148384Y324309D01*
X148300Y324332D01*
X148213Y324339D01*
X148126Y324332D01*
X148042Y324309D01*
X147963Y324272D01*
X147891Y324222D01*
X147830Y324160D01*
X147780Y324089D01*
X147743Y324010D01*
X147720Y323926D01*
X147713Y323839D01*
X147720Y323752D01*
X147743Y323668D01*
X147780Y323589D01*
X147830Y323517D01*
X147892Y323456D01*
X147963Y323406D01*
X148042Y323369D01*
X148275Y323296D01*
X148513Y323243D01*
X148755Y323211D01*
X148999Y323200D01*
X149000D01*
Y295000D01*
G37*
G36*
X143000Y337528D02*X142909D01*
X142822Y337520D01*
X142738Y337498D01*
X142659Y337461D01*
X142588Y337411D01*
X142526Y337349D01*
X142500Y337312D01*
Y345000D01*
X142494Y345068D01*
Y345131D01*
X142483Y345194D01*
X142477Y345260D01*
X142459Y345329D01*
X142448Y345389D01*
X142429Y345441D01*
X142410Y345513D01*
X142379Y345580D01*
X142359Y345634D01*
X142329Y345686D01*
X142299Y345750D01*
X142260Y345806D01*
X142228Y345861D01*
X142187Y345909D01*
X142149Y345964D01*
X142102Y346011D01*
X142060Y346061D01*
X138621Y349500D01*
X143000D01*
Y349200D01*
X142999D01*
X142843Y349207D01*
X142687Y349228D01*
X142534Y349262D01*
X142384Y349309D01*
X142300Y349332D01*
X142213Y349339D01*
X142126Y349332D01*
X142042Y349309D01*
X141963Y349272D01*
X141891Y349222D01*
X141830Y349160D01*
X141780Y349089D01*
X141743Y349010D01*
X141720Y348926D01*
X141713Y348839D01*
X141720Y348752D01*
X141743Y348668D01*
X141780Y348589D01*
X141830Y348517D01*
X141892Y348456D01*
X141963Y348406D01*
X142042Y348369D01*
X142275Y348296D01*
X142513Y348243D01*
X142755Y348211D01*
X142999Y348200D01*
X143000D01*
Y337528D01*
G37*
G36*
X115613Y365569D02*X116042Y365369D01*
X116514Y365243D01*
X117000Y365200D01*
X117486Y365243D01*
X117958Y365369D01*
X118400Y365575D01*
X118800Y365855D01*
X119145Y366200D01*
X119355Y366500D01*
X141379D01*
X143000Y364879D01*
Y360756D01*
X142909D01*
X142822Y360748D01*
X142738Y360726D01*
X142659Y360689D01*
X142588Y360639D01*
X142526Y360577D01*
X142476Y360506D01*
X142439Y360427D01*
X142417Y360343D01*
X142409Y360256D01*
Y355963D01*
X142279Y355778D01*
X142150Y355963D01*
Y360256D01*
X142142Y360343D01*
X142120Y360427D01*
X142083Y360506D01*
X142033Y360577D01*
X141971Y360639D01*
X141900Y360689D01*
X141821Y360726D01*
X141737Y360748D01*
X141650Y360756D01*
X140350D01*
X140263Y360748D01*
X140179Y360726D01*
X140100Y360689D01*
X140029Y360639D01*
X139967Y360577D01*
X139952Y360556D01*
X139941Y360540D01*
Y361559D01*
X139935Y361627D01*
Y361690D01*
X139924Y361752D01*
X139918Y361819D01*
X139900Y361888D01*
X139889Y361948D01*
X139870Y362000D01*
X139851Y362072D01*
X139819Y362139D01*
X139800Y362193D01*
X139770Y362245D01*
X139740Y362309D01*
X139700Y362365D01*
X139669Y362420D01*
X139628Y362469D01*
X139590Y362523D01*
X139543Y362570D01*
X139501Y362620D01*
X137061Y365060D01*
X137011Y365102D01*
X136964Y365149D01*
X136910Y365187D01*
X136861Y365228D01*
X136813Y365255D01*
X136750Y365299D01*
X136686Y365329D01*
X136634Y365359D01*
X136590Y365374D01*
X136513Y365410D01*
X136431Y365432D01*
X136389Y365448D01*
X136329Y365459D01*
X136260Y365477D01*
X136193Y365483D01*
X136131Y365494D01*
X136068D01*
X136000Y365500D01*
X129000D01*
X128943Y365495D01*
X128869D01*
X128794Y365482D01*
X128740Y365477D01*
X128682Y365462D01*
X128612Y365449D01*
X128552Y365427D01*
X128487Y365410D01*
X128427Y365382D01*
X128366Y365360D01*
X128306Y365325D01*
X128250Y365299D01*
X128202Y365265D01*
X128139Y365229D01*
X128082Y365181D01*
X128036Y365149D01*
X127995Y365108D01*
X127939Y365061D01*
X119604Y356726D01*
X119486Y356757D01*
X119000Y356800D01*
X118514Y356757D01*
X118042Y356631D01*
X117737Y356489D01*
X117600Y356425D01*
X117200Y356145D01*
X116855Y355800D01*
X116575Y355400D01*
X116477Y355189D01*
X116476D01*
X116369Y354958D01*
X116243Y354486D01*
X116200Y354000D01*
X116243Y353514D01*
X116369Y353042D01*
X116575Y352600D01*
X116855Y352200D01*
X117200Y351855D01*
X117600Y351575D01*
X118042Y351369D01*
X118514Y351243D01*
X119000Y351200D01*
X119486Y351243D01*
X119958Y351369D01*
X120400Y351575D01*
X120800Y351855D01*
X121145Y352200D01*
X121425Y352600D01*
X121631Y353042D01*
X121757Y353514D01*
X121800Y354000D01*
X121757Y354486D01*
X121725Y354605D01*
X129620Y362500D01*
X135379D01*
X136941Y360938D01*
Y360540D01*
X136915Y360577D01*
X136853Y360639D01*
X136782Y360689D01*
X136703Y360726D01*
X136619Y360748D01*
X136532Y360756D01*
X135232D01*
X135145Y360748D01*
X135061Y360726D01*
X134982Y360689D01*
X134911Y360639D01*
X134849Y360577D01*
X134799Y360506D01*
X134762Y360427D01*
X134740Y360343D01*
X134732Y360256D01*
Y355963D01*
X134583Y355750D01*
X134472Y355513D01*
X134405Y355260D01*
X134382Y355000D01*
Y353739D01*
X134061Y354060D01*
X134011Y354102D01*
X133964Y354149D01*
X133905Y354190D01*
X133861Y354228D01*
X133806Y354260D01*
X133750Y354299D01*
X133686Y354329D01*
X133634Y354359D01*
X133580Y354379D01*
X133513Y354410D01*
X133441Y354429D01*
X133440D01*
X133389Y354448D01*
X133329Y354459D01*
X133260Y354477D01*
X133194Y354483D01*
X133131Y354494D01*
X133068D01*
X133000Y354500D01*
X128355D01*
X128145Y354800D01*
X127800Y355145D01*
X127400Y355425D01*
X126958Y355631D01*
X126486Y355757D01*
X126000Y355800D01*
X125514Y355757D01*
X125042Y355631D01*
X124600Y355425D01*
X124200Y355145D01*
X123855Y354800D01*
X123575Y354400D01*
X123369Y353958D01*
X123243Y353486D01*
X123200Y353000D01*
X123243Y352514D01*
X123369Y352042D01*
X123575Y351600D01*
X123855Y351200D01*
X124200Y350855D01*
X124600Y350575D01*
X124761Y350500D01*
X124600Y350425D01*
X124200Y350145D01*
X123855Y349800D01*
X123575Y349400D01*
X123369Y348958D01*
X123243Y348486D01*
X123200Y348000D01*
X123243Y347514D01*
X123369Y347042D01*
X123575Y346600D01*
X123855Y346200D01*
X124200Y345855D01*
X124264Y345810D01*
X124600Y345575D01*
X124761Y345500D01*
X124600Y345425D01*
X124200Y345145D01*
X123855Y344800D01*
X123645Y344500D01*
X118355D01*
X118145Y344800D01*
X117800Y345145D01*
X117400Y345425D01*
X116958Y345631D01*
X116486Y345757D01*
X116000Y345800D01*
X115613Y345766D01*
Y365569D01*
G37*
G36*
Y421000D02*X143000D01*
Y369113D01*
X142964Y369149D01*
X142910Y369187D01*
X142861Y369228D01*
X142806Y369259D01*
X142750Y369299D01*
X142686Y369329D01*
X142634Y369359D01*
X142580Y369378D01*
X142513Y369410D01*
X142441Y369429D01*
X142389Y369448D01*
X142329Y369459D01*
X142260Y369477D01*
X142193Y369483D01*
X142131Y369494D01*
X142068D01*
X142000Y369500D01*
X119355D01*
X119145Y369800D01*
X118800Y370145D01*
X118400Y370425D01*
X117958Y370631D01*
X117486Y370757D01*
X117000Y370800D01*
X116514Y370757D01*
X116042Y370631D01*
X115613Y370431D01*
Y411860D01*
X115708Y411882D01*
X115829Y411933D01*
X115938Y412005D01*
X116034Y412094D01*
X116113Y412198D01*
X116172Y412315D01*
X116314Y412722D01*
X116417Y413142D01*
X116479Y413569D01*
X116500Y414000D01*
X116479Y414432D01*
X116417Y414859D01*
X116314Y415279D01*
X116172Y415686D01*
X116171D01*
X116112Y415802D01*
X116033Y415907D01*
X115937Y415996D01*
X115828Y416067D01*
X115707Y416118D01*
X115613Y416139D01*
Y421000D01*
G37*
G36*
X143000Y295000D02*X115613D01*
Y299344D01*
X115897Y299750D01*
X116229Y300461D01*
X116432Y301219D01*
X116500Y302000D01*
X116432Y302781D01*
X116229Y303539D01*
X115897Y304250D01*
X115613Y304656D01*
Y340234D01*
X116000Y340200D01*
X116486Y340243D01*
X116958Y340369D01*
X117400Y340575D01*
X117800Y340855D01*
X118145Y341200D01*
X118355Y341500D01*
X123645D01*
X123855Y341200D01*
X124200Y340855D01*
X124600Y340575D01*
X125042Y340369D01*
X125514Y340243D01*
X126000Y340200D01*
X126486Y340243D01*
X126958Y340369D01*
X127400Y340575D01*
X127800Y340855D01*
X128145Y341200D01*
X128425Y341600D01*
X128631Y342042D01*
X128757Y342514D01*
X128800Y343000D01*
X128757Y343486D01*
X128631Y343958D01*
X128425Y344400D01*
X128145Y344800D01*
X127800Y345145D01*
X127400Y345425D01*
X127239Y345500D01*
X127400Y345575D01*
X127736Y345810D01*
X127800Y345855D01*
X128145Y346200D01*
X128355Y346500D01*
X134379D01*
X136500Y344379D01*
Y337528D01*
X135232D01*
X135145Y337520D01*
X135061Y337498D01*
X134982Y337461D01*
X134911Y337411D01*
X134849Y337349D01*
X134799Y337278D01*
X134762Y337199D01*
X134740Y337115D01*
X134732Y337028D01*
Y332735D01*
X134583Y332522D01*
X134472Y332285D01*
X134405Y332032D01*
X134382Y331772D01*
Y328766D01*
X134000Y328800D01*
X133514Y328757D01*
X133042Y328631D01*
X132600Y328425D01*
X132200Y328145D01*
X131855Y327800D01*
X131575Y327400D01*
X131369Y326958D01*
X131243Y326486D01*
X131200Y326000D01*
X131243Y325514D01*
X131369Y325042D01*
X131575Y324600D01*
X131855Y324200D01*
X132200Y323855D01*
X132600Y323575D01*
X133042Y323369D01*
X133514Y323243D01*
X134000Y323200D01*
X134486Y323243D01*
X134958Y323369D01*
X135400Y323575D01*
X135800Y323855D01*
X136145Y324200D01*
X136425Y324600D01*
X136631Y325042D01*
X136757Y325514D01*
X136800Y326000D01*
X136757Y326486D01*
X136725Y326605D01*
X136942Y326822D01*
X136943Y326821D01*
X136990Y326877D01*
X137031Y326918D01*
X137063Y326964D01*
X137111Y327021D01*
X137147Y327084D01*
X137181Y327132D01*
X137207Y327188D01*
X137242Y327248D01*
X137265Y327311D01*
X137292Y327369D01*
X137308Y327431D01*
X137331Y327494D01*
X137343Y327563D01*
X137359Y327622D01*
X137364Y327680D01*
X137377Y327751D01*
Y327825D01*
X137382Y327882D01*
Y330838D01*
X137408Y330801D01*
X137470Y330739D01*
X137541Y330689D01*
X137620Y330652D01*
X137704Y330630D01*
X137791Y330622D01*
X139091D01*
X139178Y330630D01*
X139262Y330652D01*
X139341Y330689D01*
X139412Y330739D01*
X139474Y330801D01*
X139524Y330872D01*
X139561Y330951D01*
X139583Y331035D01*
X139591Y331122D01*
Y335424D01*
X139670Y335518D01*
X139719Y335603D01*
X139850Y335415D01*
Y331122D01*
X139858Y331035D01*
X139880Y330951D01*
X139917Y330872D01*
X139967Y330801D01*
X140029Y330739D01*
X140100Y330689D01*
X140179Y330652D01*
X140263Y330630D01*
X140350Y330622D01*
X141650D01*
X141737Y330630D01*
X141821Y330652D01*
X141900Y330689D01*
X141971Y330739D01*
X142033Y330801D01*
X142059Y330838D01*
Y330181D01*
X140604Y328726D01*
X140486Y328757D01*
X140000Y328800D01*
X139514Y328757D01*
X139042Y328631D01*
X138600Y328425D01*
X138200Y328145D01*
X137855Y327800D01*
X137575Y327400D01*
X137369Y326958D01*
X137243Y326486D01*
X137200Y326000D01*
X137243Y325514D01*
X137369Y325042D01*
X137575Y324600D01*
X137855Y324200D01*
X138200Y323855D01*
X138600Y323575D01*
X139042Y323369D01*
X139514Y323243D01*
X140000Y323200D01*
X140486Y323243D01*
X140958Y323369D01*
X141400Y323575D01*
X141800Y323855D01*
X142145Y324200D01*
X142425Y324600D01*
X142631Y325042D01*
X142757Y325514D01*
X142800Y326000D01*
X142757Y326486D01*
X142725Y326605D01*
X143000Y326880D01*
Y324945D01*
X142855Y324800D01*
X142575Y324400D01*
X142369Y323958D01*
X142243Y323486D01*
X142200Y323000D01*
X142243Y322514D01*
X142369Y322042D01*
X142575Y321600D01*
X142855Y321200D01*
X143000Y321055D01*
Y295000D01*
G37*
G36*
X115613Y304656D02*X115447Y304893D01*
X114893Y305447D01*
X114250Y305897D01*
X113539Y306229D01*
X112781Y306432D01*
X112000Y306500D01*
Y409500D01*
X112431Y409521D01*
X112858Y409583D01*
X113278Y409686D01*
X113685Y409828D01*
Y409829D01*
X113801Y409888D01*
X113906Y409967D01*
X113995Y410063D01*
X114066Y410172D01*
X114117Y410293D01*
X114146Y410420D01*
X114153Y410550D01*
X114137Y410680D01*
X114099Y410805D01*
X114040Y410921D01*
X113961Y411026D01*
X113865Y411115D01*
X113756Y411186D01*
X113635Y411237D01*
X113508Y411266D01*
X113378Y411273D01*
X113248Y411257D01*
X113123Y411219D01*
X112852Y411124D01*
X112572Y411056D01*
X112287Y411014D01*
X112000Y411000D01*
Y417000D01*
X112287Y416987D01*
X112572Y416945D01*
X112852Y416877D01*
X113123Y416782D01*
Y416781D01*
X113248Y416743D01*
X113378Y416727D01*
X113509Y416734D01*
X113636Y416763D01*
X113757Y416814D01*
X113866Y416886D01*
X113962Y416975D01*
X114041Y417079D01*
X114100Y417196D01*
X114138Y417321D01*
X114154Y417451D01*
X114147Y417582D01*
X114118Y417709D01*
X114067Y417830D01*
X113995Y417939D01*
X113906Y418035D01*
X113802Y418114D01*
X113685Y418173D01*
X113278Y418315D01*
X112858Y418418D01*
X112431Y418480D01*
X112000Y418500D01*
Y421000D01*
X115613D01*
Y416139D01*
X115580Y416147D01*
X115450Y416154D01*
X115320Y416138D01*
X115195Y416100D01*
X115079Y416041D01*
X114974Y415962D01*
X114885Y415866D01*
X114814Y415757D01*
X114763Y415636D01*
X114734Y415509D01*
X114727Y415379D01*
X114743Y415249D01*
X114781Y415124D01*
X114876Y414853D01*
X114944Y414573D01*
X114986Y414288D01*
X115000Y414000D01*
X114986Y413713D01*
X114944Y413428D01*
X114876Y413148D01*
X114781Y412877D01*
X114780D01*
X114742Y412752D01*
X114726Y412622D01*
X114733Y412491D01*
X114762Y412364D01*
X114813Y412243D01*
X114885Y412134D01*
X114974Y412038D01*
X115078Y411959D01*
X115195Y411900D01*
X115320Y411862D01*
X115450Y411846D01*
X115581Y411853D01*
X115613Y411860D01*
Y370431D01*
X115600Y370425D01*
X115200Y370145D01*
X114855Y369800D01*
X114575Y369400D01*
X114369Y368958D01*
X114243Y368486D01*
X114200Y368000D01*
X114243Y367514D01*
X114369Y367042D01*
X114575Y366600D01*
X114855Y366200D01*
X115200Y365855D01*
X115600Y365575D01*
X115613Y365569D01*
Y345766D01*
X115514Y345757D01*
X115042Y345631D01*
X114600Y345425D01*
X114200Y345145D01*
X113855Y344800D01*
X113575Y344400D01*
X113369Y343958D01*
X113243Y343486D01*
X113200Y343000D01*
X113243Y342514D01*
X113369Y342042D01*
X113575Y341600D01*
X113855Y341200D01*
X114200Y340855D01*
X114600Y340575D01*
X115042Y340369D01*
X115514Y340243D01*
X115613Y340234D01*
Y304656D01*
G37*
G36*
Y295000D02*X112000D01*
Y297500D01*
X112781Y297568D01*
X113539Y297771D01*
X114250Y298103D01*
X114893Y298553D01*
X115447Y299107D01*
X115613Y299344D01*
Y295000D01*
G37*
G36*
X112000Y306500D02*X111219Y306432D01*
X110461Y306229D01*
X109750Y305897D01*
X109107Y305447D01*
X108553Y304893D01*
X108387Y304656D01*
Y322000D01*
X111000D01*
Y394000D01*
X108387D01*
Y411861D01*
X108419Y411854D01*
X108549Y411847D01*
X108679Y411863D01*
X108804Y411901D01*
X108920Y411960D01*
X109025Y412039D01*
X109114Y412135D01*
X109185Y412244D01*
X109236Y412365D01*
X109265Y412492D01*
X109272Y412622D01*
X109256Y412752D01*
X109218Y412877D01*
X109123Y413148D01*
X109055Y413428D01*
X109013Y413713D01*
X109000Y414001D01*
X109013Y414288D01*
X109055Y414573D01*
X109123Y414853D01*
X109218Y415124D01*
X109219D01*
X109257Y415249D01*
X109273Y415379D01*
X109266Y415510D01*
X109237Y415637D01*
X109186Y415758D01*
X109114Y415867D01*
X109025Y415963D01*
X108921Y416042D01*
X108804Y416101D01*
X108679Y416139D01*
X108549Y416155D01*
X108418Y416148D01*
X108387Y416141D01*
Y421000D01*
X112000D01*
Y418500D01*
X111568Y418480D01*
X111141Y418418D01*
X110721Y418315D01*
X110314Y418173D01*
Y418172D01*
X110198Y418113D01*
X110093Y418034D01*
X110004Y417938D01*
X109933Y417829D01*
X109882Y417708D01*
X109853Y417581D01*
X109846Y417451D01*
X109862Y417321D01*
X109900Y417196D01*
X109959Y417080D01*
X110038Y416975D01*
X110134Y416886D01*
X110243Y416815D01*
X110364Y416764D01*
X110491Y416735D01*
X110621Y416728D01*
X110751Y416744D01*
X110876Y416782D01*
X111147Y416877D01*
X111427Y416945D01*
X111712Y416987D01*
X112000Y417000D01*
Y411000D01*
X111999D01*
X111712Y411014D01*
X111427Y411056D01*
X111147Y411124D01*
X110876Y411219D01*
Y411220D01*
X110751Y411258D01*
X110621Y411274D01*
X110490Y411267D01*
X110363Y411238D01*
X110242Y411187D01*
X110133Y411115D01*
X110037Y411026D01*
X109958Y410922D01*
X109899Y410805D01*
X109861Y410680D01*
X109845Y410550D01*
X109852Y410419D01*
X109881Y410292D01*
X109932Y410171D01*
X110004Y410062D01*
X110093Y409966D01*
X110197Y409887D01*
X110314Y409828D01*
X110721Y409686D01*
X111141Y409583D01*
X111568Y409521D01*
X111999Y409500D01*
X112000D01*
Y306500D01*
G37*
G36*
Y295000D02*X108387D01*
Y299344D01*
X108553Y299107D01*
X109107Y298553D01*
X109750Y298103D01*
X110461Y297771D01*
X111219Y297568D01*
X112000Y297500D01*
Y295000D01*
G37*
G36*
X108387Y394000D02*X102000D01*
Y409500D01*
X102781Y409568D01*
X103539Y409771D01*
X104250Y410103D01*
X104893Y410553D01*
X105447Y411107D01*
X105897Y411750D01*
X106229Y412461D01*
X106432Y413219D01*
X106500Y414000D01*
X106432Y414781D01*
X106229Y415539D01*
X105897Y416250D01*
X105447Y416893D01*
X104893Y417447D01*
X104250Y417897D01*
X103539Y418229D01*
X102781Y418432D01*
X102000Y418500D01*
Y421000D01*
X108387D01*
Y416141D01*
X108291Y416119D01*
X108170Y416068D01*
X108061Y415996D01*
X107965Y415907D01*
X107886Y415803D01*
X107827Y415686D01*
X107685Y415279D01*
X107582Y414859D01*
X107520Y414432D01*
X107500Y414001D01*
X107520Y413569D01*
X107582Y413142D01*
X107685Y412722D01*
X107827Y412315D01*
X107828D01*
X107887Y412199D01*
X107966Y412094D01*
X108062Y412005D01*
X108171Y411934D01*
X108292Y411883D01*
X108387Y411861D01*
Y394000D01*
G37*
G36*
X102000D02*X92000D01*
Y409500D01*
X92781Y409568D01*
X93539Y409771D01*
X94250Y410103D01*
X94893Y410553D01*
X95447Y411107D01*
X95897Y411750D01*
X96229Y412461D01*
X96432Y413219D01*
X96500Y414000D01*
X96432Y414781D01*
X96229Y415539D01*
X95897Y416250D01*
X95447Y416893D01*
X94893Y417447D01*
X94250Y417897D01*
X93539Y418229D01*
X92781Y418432D01*
X92000Y418500D01*
Y421000D01*
X102000D01*
Y418500D01*
X101219Y418432D01*
X100461Y418229D01*
X99750Y417897D01*
X99107Y417447D01*
X98553Y416893D01*
X98103Y416250D01*
X97771Y415539D01*
X97568Y414781D01*
X97500Y414000D01*
X97568Y413219D01*
X97771Y412461D01*
X98103Y411750D01*
X98553Y411107D01*
X99107Y410553D01*
X99750Y410103D01*
X100461Y409771D01*
X101219Y409568D01*
X102000Y409500D01*
Y394000D01*
G37*
G36*
X92000D02*X82000D01*
Y409500D01*
X82781Y409568D01*
X83539Y409771D01*
X84250Y410103D01*
X84893Y410553D01*
X85447Y411107D01*
X85897Y411750D01*
X86229Y412461D01*
X86432Y413219D01*
X86500Y414000D01*
X86432Y414781D01*
X86229Y415539D01*
X85897Y416250D01*
X85447Y416893D01*
X84893Y417447D01*
X84250Y417897D01*
X83539Y418229D01*
X82781Y418432D01*
X82000Y418500D01*
Y421000D01*
X92000D01*
Y418500D01*
X91219Y418432D01*
X90461Y418229D01*
X89750Y417897D01*
X89107Y417447D01*
X88553Y416893D01*
X88103Y416250D01*
X87771Y415539D01*
X87568Y414781D01*
X87500Y414000D01*
X87568Y413219D01*
X87771Y412461D01*
X88103Y411750D01*
X88553Y411107D01*
X89107Y410553D01*
X89750Y410103D01*
X90461Y409771D01*
X91219Y409568D01*
X92000Y409500D01*
Y394000D01*
G37*
G36*
X82000D02*X72000D01*
Y409500D01*
X72781Y409568D01*
X73539Y409771D01*
X74250Y410103D01*
X74893Y410553D01*
X75447Y411107D01*
X75897Y411750D01*
X76229Y412461D01*
X76432Y413219D01*
X76500Y414000D01*
X76432Y414781D01*
X76229Y415539D01*
X75897Y416250D01*
X75447Y416893D01*
X74893Y417447D01*
X74250Y417897D01*
X73539Y418229D01*
X72781Y418432D01*
X72000Y418500D01*
Y421000D01*
X82000D01*
Y418500D01*
X81219Y418432D01*
X80461Y418229D01*
X79750Y417897D01*
X79107Y417447D01*
X78553Y416893D01*
X78103Y416250D01*
X77771Y415539D01*
X77568Y414781D01*
X77500Y414000D01*
X77568Y413219D01*
X77771Y412461D01*
X78103Y411750D01*
X78553Y411107D01*
X79107Y410553D01*
X79750Y410103D01*
X80461Y409771D01*
X81219Y409568D01*
X82000Y409500D01*
Y394000D01*
G37*
G36*
X72000D02*X62000D01*
Y409500D01*
X62781Y409568D01*
X63539Y409771D01*
X64250Y410103D01*
X64893Y410553D01*
X65447Y411107D01*
X65897Y411750D01*
X66229Y412461D01*
X66432Y413219D01*
X66500Y414000D01*
X66432Y414781D01*
X66229Y415539D01*
X65897Y416250D01*
X65447Y416893D01*
X64893Y417447D01*
X64250Y417897D01*
X63539Y418229D01*
X62781Y418432D01*
X62000Y418500D01*
Y421000D01*
X72000D01*
Y418500D01*
X71219Y418432D01*
X70461Y418229D01*
X69750Y417897D01*
X69107Y417447D01*
X68553Y416893D01*
X68103Y416250D01*
X67771Y415539D01*
X67568Y414781D01*
X67500Y414000D01*
X67568Y413219D01*
X67771Y412461D01*
X68103Y411750D01*
X68553Y411107D01*
X69107Y410553D01*
X69750Y410103D01*
X70461Y409771D01*
X71219Y409568D01*
X72000Y409500D01*
Y394000D01*
G37*
G36*
X108387Y295000D02*X102000D01*
Y297500D01*
X102781Y297568D01*
X103539Y297771D01*
X104250Y298103D01*
X104893Y298553D01*
X105447Y299107D01*
X105897Y299750D01*
X106229Y300461D01*
X106432Y301219D01*
X106500Y302000D01*
X106432Y302781D01*
X106229Y303539D01*
X105897Y304250D01*
X105447Y304893D01*
X104893Y305447D01*
X104250Y305897D01*
X103539Y306229D01*
X102781Y306432D01*
X102000Y306500D01*
Y322000D01*
X108387D01*
Y304656D01*
X108103Y304250D01*
X107771Y303539D01*
X107568Y302781D01*
X107500Y302000D01*
X107568Y301219D01*
X107771Y300461D01*
X108103Y299750D01*
X108387Y299344D01*
Y295000D01*
G37*
G36*
X102000D02*X92000D01*
Y297500D01*
X92781Y297568D01*
X93539Y297771D01*
X94250Y298103D01*
X94893Y298553D01*
X95447Y299107D01*
X95897Y299750D01*
X96229Y300461D01*
X96432Y301219D01*
X96500Y302000D01*
X96432Y302781D01*
X96229Y303539D01*
X95897Y304250D01*
X95447Y304893D01*
X94893Y305447D01*
X94250Y305897D01*
X93539Y306229D01*
X92781Y306432D01*
X92000Y306500D01*
Y322000D01*
X102000D01*
Y306500D01*
X101219Y306432D01*
X100461Y306229D01*
X99750Y305897D01*
X99107Y305447D01*
X98553Y304893D01*
X98103Y304250D01*
X97771Y303539D01*
X97568Y302781D01*
X97500Y302000D01*
X97568Y301219D01*
X97771Y300461D01*
X98103Y299750D01*
X98553Y299107D01*
X99107Y298553D01*
X99750Y298103D01*
X100461Y297771D01*
X101219Y297568D01*
X102000Y297500D01*
Y295000D01*
G37*
G36*
X92000D02*X82000D01*
Y297500D01*
X82781Y297568D01*
X83539Y297771D01*
X84250Y298103D01*
X84893Y298553D01*
X85447Y299107D01*
X85897Y299750D01*
X86229Y300461D01*
X86432Y301219D01*
X86500Y302000D01*
X86432Y302781D01*
X86229Y303539D01*
X85897Y304250D01*
X85447Y304893D01*
X84893Y305447D01*
X84250Y305897D01*
X83539Y306229D01*
X82781Y306432D01*
X82000Y306500D01*
Y322000D01*
X92000D01*
Y306500D01*
X91219Y306432D01*
X90461Y306229D01*
X89750Y305897D01*
X89107Y305447D01*
X88553Y304893D01*
X88103Y304250D01*
X87771Y303539D01*
X87568Y302781D01*
X87500Y302000D01*
X87568Y301219D01*
X87771Y300461D01*
X88103Y299750D01*
X88553Y299107D01*
X89107Y298553D01*
X89750Y298103D01*
X90461Y297771D01*
X91219Y297568D01*
X92000Y297500D01*
Y295000D01*
G37*
G36*
X82000D02*X72000D01*
Y297500D01*
X72781Y297568D01*
X73539Y297771D01*
X74250Y298103D01*
X74893Y298553D01*
X75447Y299107D01*
X75897Y299750D01*
X76229Y300461D01*
X76432Y301219D01*
X76500Y302000D01*
X76432Y302781D01*
X76229Y303539D01*
X75897Y304250D01*
X75447Y304893D01*
X74893Y305447D01*
X74250Y305897D01*
X73539Y306229D01*
X72781Y306432D01*
X72000Y306500D01*
Y322000D01*
X82000D01*
Y306500D01*
X81219Y306432D01*
X80461Y306229D01*
X79750Y305897D01*
X79107Y305447D01*
X78553Y304893D01*
X78103Y304250D01*
X77771Y303539D01*
X77568Y302781D01*
X77500Y302000D01*
X77568Y301219D01*
X77771Y300461D01*
X78103Y299750D01*
X78553Y299107D01*
X79107Y298553D01*
X79750Y298103D01*
X80461Y297771D01*
X81219Y297568D01*
X82000Y297500D01*
Y295000D01*
G37*
G36*
X72000D02*X62000D01*
Y297500D01*
X62781Y297568D01*
X63539Y297771D01*
X64250Y298103D01*
X64893Y298553D01*
X65447Y299107D01*
X65897Y299750D01*
X66229Y300461D01*
X66432Y301219D01*
X66500Y302000D01*
X66432Y302781D01*
X66229Y303539D01*
X65897Y304250D01*
X65447Y304893D01*
X64893Y305447D01*
X64250Y305897D01*
X63539Y306229D01*
X63500Y306239D01*
Y315645D01*
X63800Y315855D01*
X64145Y316200D01*
X64425Y316600D01*
X64631Y317042D01*
X64757Y317514D01*
X64800Y318000D01*
X64757Y318486D01*
X64631Y318958D01*
X64425Y319400D01*
X64145Y319800D01*
X63800Y320145D01*
X63400Y320425D01*
X62958Y320631D01*
X62486Y320757D01*
X62000Y320800D01*
Y322000D01*
X72000D01*
Y306500D01*
X71219Y306432D01*
X70461Y306229D01*
X69750Y305897D01*
X69107Y305447D01*
X68553Y304893D01*
X68103Y304250D01*
X67771Y303539D01*
X67568Y302781D01*
X67500Y302000D01*
X67568Y301219D01*
X67771Y300461D01*
X68103Y299750D01*
X68553Y299107D01*
X69107Y298553D01*
X69750Y298103D01*
X70461Y297771D01*
X71219Y297568D01*
X72000Y297500D01*
Y295000D01*
G37*
G36*
X62000Y394000D02*X52000D01*
Y409500D01*
X52781Y409568D01*
X53539Y409771D01*
X54250Y410103D01*
X54893Y410553D01*
X55447Y411107D01*
X55897Y411750D01*
X56229Y412461D01*
X56432Y413219D01*
X56500Y414000D01*
X56432Y414781D01*
X56229Y415539D01*
X55897Y416250D01*
X55447Y416893D01*
X54893Y417447D01*
X54250Y417897D01*
X53539Y418229D01*
X52781Y418432D01*
X52000Y418500D01*
Y421000D01*
X62000D01*
Y418500D01*
X61219Y418432D01*
X60461Y418229D01*
X59750Y417897D01*
X59107Y417447D01*
X58553Y416893D01*
X58103Y416250D01*
X57771Y415539D01*
X57568Y414781D01*
X57500Y414000D01*
X57568Y413219D01*
X57771Y412461D01*
X58103Y411750D01*
X58553Y411107D01*
X59107Y410553D01*
X59750Y410103D01*
X60461Y409771D01*
X61219Y409568D01*
X62000Y409500D01*
Y394000D01*
G37*
G36*
X52000D02*X42000D01*
Y409500D01*
X45000D01*
X45260Y409523D01*
X45513Y409590D01*
X45750Y409701D01*
X45964Y409851D01*
X46149Y410036D01*
X46299Y410250D01*
X46410Y410487D01*
X46477Y410740D01*
X46500Y411000D01*
Y417000D01*
X46477Y417260D01*
X46410Y417513D01*
X46299Y417750D01*
X46149Y417964D01*
X45964Y418149D01*
X45750Y418299D01*
X45513Y418410D01*
X45260Y418477D01*
X45000Y418500D01*
X42000D01*
Y421000D01*
X52000D01*
Y418500D01*
X51219Y418432D01*
X50461Y418229D01*
X49750Y417897D01*
X49107Y417447D01*
X48553Y416893D01*
X48103Y416250D01*
X47771Y415539D01*
X47568Y414781D01*
X47500Y414000D01*
X47568Y413219D01*
X47771Y412461D01*
X48103Y411750D01*
X48553Y411107D01*
X49107Y410553D01*
X49750Y410103D01*
X50461Y409771D01*
X51219Y409568D01*
X52000Y409500D01*
Y394000D01*
G37*
G36*
X42000D02*X35000D01*
Y421000D01*
X42000D01*
Y418500D01*
X39000D01*
X38740Y418477D01*
X38487Y418410D01*
X38250Y418299D01*
X38036Y418149D01*
X37851Y417964D01*
X37701Y417750D01*
X37590Y417513D01*
X37523Y417260D01*
X37500Y417000D01*
Y411000D01*
X37523Y410740D01*
X37590Y410487D01*
X37701Y410250D01*
X37851Y410036D01*
X38036Y409851D01*
X38250Y409701D01*
X38487Y409590D01*
X38740Y409523D01*
X39000Y409500D01*
X42000D01*
Y394000D01*
G37*
G36*
X62000Y295000D02*X52000D01*
Y297500D01*
X52781Y297568D01*
X53539Y297771D01*
X54250Y298103D01*
X54893Y298553D01*
X55447Y299107D01*
X55897Y299750D01*
X56229Y300461D01*
X56432Y301219D01*
X56500Y302000D01*
X56432Y302781D01*
X56229Y303539D01*
X55897Y304250D01*
X55447Y304893D01*
X54893Y305447D01*
X54250Y305897D01*
X53539Y306229D01*
X53500Y306239D01*
Y311645D01*
X53800Y311855D01*
X54145Y312200D01*
X54425Y312600D01*
X54631Y313042D01*
X54757Y313514D01*
X54800Y314000D01*
X54757Y314486D01*
X54631Y314958D01*
X54425Y315400D01*
X54145Y315800D01*
X53800Y316145D01*
X53400Y316425D01*
X52958Y316631D01*
X52486Y316757D01*
X52000Y316800D01*
Y322000D01*
X62000D01*
Y320800D01*
X61514Y320757D01*
X61042Y320631D01*
X60600Y320425D01*
X60200Y320145D01*
X59855Y319800D01*
X59575Y319400D01*
X59369Y318958D01*
X59243Y318486D01*
X59200Y318000D01*
X59243Y317514D01*
X59369Y317042D01*
X59575Y316600D01*
X59855Y316200D01*
X60200Y315855D01*
X60500Y315645D01*
Y306239D01*
X60461Y306229D01*
X59750Y305897D01*
X59107Y305447D01*
X58553Y304893D01*
X58103Y304250D01*
X57771Y303539D01*
X57568Y302781D01*
X57500Y302000D01*
X57568Y301219D01*
X57771Y300461D01*
X58103Y299750D01*
X58553Y299107D01*
X59107Y298553D01*
X59750Y298103D01*
X60461Y297771D01*
X61219Y297568D01*
X62000Y297500D01*
Y295000D01*
G37*
G36*
X52000D02*X42000D01*
Y297500D01*
X45000D01*
X45260Y297523D01*
X45513Y297590D01*
X45750Y297701D01*
X45964Y297851D01*
X46149Y298036D01*
X46299Y298250D01*
X46410Y298487D01*
X46477Y298740D01*
X46500Y299000D01*
Y305000D01*
X46477Y305260D01*
X46410Y305513D01*
X46299Y305750D01*
X46149Y305964D01*
X45964Y306149D01*
X45750Y306299D01*
X45513Y306410D01*
X45260Y306477D01*
X45000Y306500D01*
X43500D01*
Y307645D01*
X43800Y307855D01*
X44145Y308200D01*
X44425Y308600D01*
X44631Y309042D01*
X44757Y309514D01*
X44800Y310000D01*
X44757Y310486D01*
X44631Y310958D01*
X44425Y311400D01*
X44145Y311800D01*
X43800Y312145D01*
X43400Y312425D01*
X42958Y312631D01*
X42486Y312757D01*
X42000Y312800D01*
Y322000D01*
X52000D01*
Y316800D01*
X51514Y316757D01*
X51042Y316631D01*
X50600Y316425D01*
X50200Y316145D01*
X49855Y315800D01*
X49575Y315400D01*
X49369Y314958D01*
X49243Y314486D01*
X49200Y314000D01*
X49243Y313514D01*
X49369Y313042D01*
X49575Y312600D01*
X49855Y312200D01*
X50200Y311855D01*
X50500Y311645D01*
Y306239D01*
X50461Y306229D01*
X49750Y305897D01*
X49107Y305447D01*
X48553Y304893D01*
X48103Y304250D01*
X47771Y303539D01*
X47568Y302781D01*
X47500Y302000D01*
X47568Y301219D01*
X47771Y300461D01*
X48103Y299750D01*
X48553Y299107D01*
X49107Y298553D01*
X49750Y298103D01*
X50461Y297771D01*
X51219Y297568D01*
X52000Y297500D01*
Y295000D01*
G37*
G36*
X42000D02*X35000D01*
Y322000D01*
X42000D01*
Y312800D01*
X41514Y312757D01*
X41042Y312631D01*
X40600Y312425D01*
X40200Y312145D01*
X39855Y311800D01*
X39575Y311400D01*
X39369Y310958D01*
X39243Y310486D01*
X39200Y310000D01*
X39243Y309514D01*
X39369Y309042D01*
X39575Y308600D01*
X39855Y308200D01*
X40200Y307855D01*
X40500Y307645D01*
Y306500D01*
X39000D01*
X38740Y306477D01*
X38487Y306410D01*
X38250Y306299D01*
X38036Y306149D01*
X37851Y305964D01*
X37701Y305750D01*
X37590Y305513D01*
X37523Y305260D01*
X37500Y305000D01*
Y299000D01*
X37523Y298740D01*
X37590Y298487D01*
X37701Y298250D01*
X37851Y298036D01*
X38036Y297851D01*
X38250Y297701D01*
X38487Y297590D01*
X38740Y297523D01*
X39000Y297500D01*
X42000D01*
Y295000D01*
G37*
G54D11*X151236Y365764D02*X151000Y366000D01*
X167000Y382000D02*X192000D01*
X135882Y355000D02*Y353118D01*
X138000Y351000D01*
X126000Y353000D02*X133000D01*
X141000Y345000D01*
X135000Y348000D02*X138000Y345000D01*
X126000Y348000D02*X135000D01*
X129000Y364000D02*X119000Y354000D01*
X126000Y343000D02*X116000D01*
X142000Y368000D02*X117000D01*
X42000Y310000D02*Y302000D01*
X52000Y314000D02*Y302000D01*
Y308000D01*
X62000Y318000D02*Y302000D01*
X138000Y351000D02*X148000D01*
X143559Y355000D02*Y351559D01*
X143000Y351000D01*
X141000Y355000D02*Y352000D01*
X142000Y351000D01*
X148000D02*X149000Y352000D01*
Y354677D01*
X148677Y355000D01*
X151236Y337236D02*X163000Y349000D01*
Y378000D01*
X167000Y382000D01*
X151236Y359606D02*Y365764D01*
X138441Y359606D02*Y361559D01*
X136000Y364000D01*
X129000D01*
X146118Y359606D02*Y363882D01*
X142000Y368000D01*
X148677Y331772D02*Y326323D01*
X149000Y326000D01*
X145000Y323000D02*Y328000D01*
X146000Y329000D01*
X143559Y331772D02*Y329559D01*
X151236Y336378D02*Y337236D01*
X146000Y329000D02*Y331654D01*
X146118Y331772D01*
X141000Y345000D02*Y336378D01*
X138000Y345000D02*Y336819D01*
X138441Y336378D01*
X135882Y331772D02*Y327882D01*
X134000Y326000D01*
X143559Y329559D02*X140000Y326000D01*
G54D12*G36*
X189000Y385000D02*Y379000D01*
X195000D01*
Y385000D01*
X189000D01*
G37*
G54D13*X192000Y372000D03*
Y362000D03*
Y352000D03*
Y342000D03*
Y332000D03*
G54D12*G36*
X171000Y375000D02*Y369000D01*
X177000D01*
Y375000D01*
X171000D01*
G37*
G54D13*X174000Y362000D03*
Y352000D03*
Y342000D03*
G54D12*G36*
X39000Y417000D02*Y411000D01*
X45000D01*
Y417000D01*
X39000D01*
G37*
G54D13*X52000Y414000D03*
X62000D03*
X72000D03*
X82000D03*
X92000D03*
X102000D03*
X112000D03*
G54D12*G36*
X39000Y305000D02*Y299000D01*
X45000D01*
Y305000D01*
X39000D01*
G37*
G54D13*X52000Y302000D03*
X62000D03*
X72000D03*
X82000D03*
X92000D03*
X102000D03*
X112000D03*
G54D14*X42000Y310000D03*
X149000Y326000D03*
X145000Y323000D03*
X134000Y326000D03*
X140000D03*
X52000Y314000D03*
X62000Y318000D03*
X143000Y351000D03*
X151000Y366000D03*
X126000Y353000D03*
Y348000D03*
X119000Y354000D03*
X126000Y343000D03*
X116000D03*
X117000Y368000D03*
G54D18*X151236Y336378D02*Y331772D01*
X148677Y336378D02*Y331772D01*
X146118Y336378D02*Y331772D01*
X143559Y336378D02*Y331772D01*
X141000Y336378D02*Y331772D01*
X138441Y336378D02*Y331772D01*
X135882Y336378D02*Y331772D01*
Y359606D02*Y355000D01*
X138441Y359606D02*Y355000D01*
X141000Y359606D02*Y355000D01*
X143559Y359606D02*Y355000D01*
X146118Y359606D02*Y355000D01*
X148677Y359606D02*Y355000D01*
X151236Y359606D02*Y355000D01*
G54D17*G54D12*M02*
