M48
INCH
T12C0.020
T17C0.038
%
T12
X004200Y031000
X014900Y032600
X014500Y032300
X013400Y032600
X014000Y032600
X005200Y031400
X006200Y031800
X014300Y035100
X015100Y036600
X012600Y035300
X012600Y034800
X011900Y035400
X012600Y034300
X011600Y034300
X011700Y036800
T17
X019200Y038200
X019200Y037200
X019200Y036200
X019200Y035200
X019200Y034200
X019200Y033200
X017400Y037200
X017400Y036200
X017400Y035200
X017400Y034200
X004200Y041400
X005200Y041400
X006200Y041400
X007200Y041400
X008200Y041400
X009200Y041400
X010200Y041400
X011200Y041400
X004200Y030200
X005200Y030200
X006200Y030200
X007200Y030200
X008200Y030200
X009200Y030200
X010200Y030200
X011200Y030200
M30
